ISO-10303-21;
HEADER;
/* Generated by software containing ST-Developer
 * from STEP Tools, Inc. (www.steptools.com) 
 */

FILE_DESCRIPTION(
/* description */ (''),
/* implementation_level */ '2;1');

FILE_NAME(
/* name */ 'Schwungrad_Prallschutz_Teil_2.step',
/* time_stamp */ '2026-06-28T16:59:37+02:00',
/* author */ (''),
/* organization */ (''),
/* preprocessor_version */ 'ST-DEVELOPER v20.1',
/* originating_system */ 'Autodesk Translation Framework v15.8.0.0',
/* authorisation */ '');

FILE_SCHEMA (('AUTOMOTIVE_DESIGN { 1 0 10303 214 3 1 1 }'));
ENDSEC;

DATA;
#10=MECHANICAL_DESIGN_GEOMETRIC_PRESENTATION_REPRESENTATION('',(#13,#14),
#1390);
#11=SHAPE_REPRESENTATION_RELATIONSHIP('SRR','None',#1397,#12);
#12=ADVANCED_BREP_SHAPE_REPRESENTATION('',(#15,#16),#1389);
#13=STYLED_ITEM('',(#1406),#15);
#14=STYLED_ITEM('',(#1406),#16);
#15=MANIFOLD_SOLID_BREP('K\X\F6rper1',#873);
#16=MANIFOLD_SOLID_BREP('K\X\F6rper2',#874);
#17=FACE_OUTER_BOUND('',#61,.T.);
#18=FACE_OUTER_BOUND('',#62,.T.);
#19=FACE_OUTER_BOUND('',#63,.T.);
#20=FACE_OUTER_BOUND('',#64,.T.);
#21=FACE_OUTER_BOUND('',#65,.T.);
#22=FACE_OUTER_BOUND('',#66,.T.);
#23=FACE_OUTER_BOUND('',#67,.T.);
#24=FACE_OUTER_BOUND('',#68,.T.);
#25=FACE_OUTER_BOUND('',#69,.T.);
#26=FACE_OUTER_BOUND('',#70,.T.);
#27=FACE_OUTER_BOUND('',#71,.T.);
#28=FACE_OUTER_BOUND('',#72,.T.);
#29=FACE_OUTER_BOUND('',#73,.T.);
#30=FACE_OUTER_BOUND('',#74,.T.);
#31=FACE_OUTER_BOUND('',#75,.T.);
#32=FACE_OUTER_BOUND('',#76,.T.);
#33=FACE_OUTER_BOUND('',#77,.T.);
#34=FACE_OUTER_BOUND('',#78,.T.);
#35=FACE_OUTER_BOUND('',#79,.T.);
#36=FACE_OUTER_BOUND('',#80,.T.);
#37=FACE_OUTER_BOUND('',#81,.T.);
#38=FACE_OUTER_BOUND('',#82,.T.);
#39=FACE_OUTER_BOUND('',#83,.T.);
#40=FACE_OUTER_BOUND('',#84,.T.);
#41=FACE_OUTER_BOUND('',#85,.T.);
#42=FACE_OUTER_BOUND('',#86,.T.);
#43=FACE_OUTER_BOUND('',#87,.T.);
#44=FACE_OUTER_BOUND('',#88,.T.);
#45=FACE_OUTER_BOUND('',#89,.T.);
#46=FACE_OUTER_BOUND('',#90,.T.);
#47=FACE_OUTER_BOUND('',#91,.T.);
#48=FACE_OUTER_BOUND('',#92,.T.);
#49=FACE_OUTER_BOUND('',#93,.T.);
#50=FACE_OUTER_BOUND('',#94,.T.);
#51=FACE_OUTER_BOUND('',#95,.T.);
#52=FACE_OUTER_BOUND('',#96,.T.);
#53=FACE_OUTER_BOUND('',#97,.T.);
#54=FACE_OUTER_BOUND('',#98,.T.);
#55=FACE_OUTER_BOUND('',#99,.T.);
#56=FACE_OUTER_BOUND('',#100,.T.);
#57=FACE_OUTER_BOUND('',#101,.T.);
#58=FACE_OUTER_BOUND('',#102,.T.);
#59=FACE_OUTER_BOUND('',#103,.T.);
#60=FACE_OUTER_BOUND('',#104,.T.);
#61=EDGE_LOOP('',(#545,#546,#547,#548));
#62=EDGE_LOOP('',(#549,#550,#551,#552));
#63=EDGE_LOOP('',(#553,#554,#555,#556));
#64=EDGE_LOOP('',(#557,#558,#559,#560));
#65=EDGE_LOOP('',(#561,#562,#563,#564));
#66=EDGE_LOOP('',(#565,#566,#567,#568));
#67=EDGE_LOOP('',(#569,#570,#571,#572));
#68=EDGE_LOOP('',(#573,#574,#575,#576));
#69=EDGE_LOOP('',(#577,#578,#579,#580));
#70=EDGE_LOOP('',(#581,#582,#583,#584));
#71=EDGE_LOOP('',(#585,#586,#587,#588));
#72=EDGE_LOOP('',(#589,#590,#591,#592));
#73=EDGE_LOOP('',(#593,#594,#595,#596));
#74=EDGE_LOOP('',(#597,#598,#599,#600));
#75=EDGE_LOOP('',(#601,#602,#603,#604));
#76=EDGE_LOOP('',(#605,#606,#607,#608));
#77=EDGE_LOOP('',(#609,#610,#611,#612));
#78=EDGE_LOOP('',(#613,#614,#615,#616));
#79=EDGE_LOOP('',(#617,#618,#619,#620));
#80=EDGE_LOOP('',(#621,#622,#623,#624));
#81=EDGE_LOOP('',(#625,#626,#627,#628,#629,#630,#631,#632,#633,#634,#635,
#636,#637,#638,#639,#640,#641,#642,#643,#644));
#82=EDGE_LOOP('',(#645,#646,#647,#648,#649,#650,#651,#652,#653,#654,#655,
#656,#657,#658,#659,#660,#661,#662,#663,#664));
#83=EDGE_LOOP('',(#665,#666,#667,#668));
#84=EDGE_LOOP('',(#669,#670,#671,#672));
#85=EDGE_LOOP('',(#673,#674,#675,#676));
#86=EDGE_LOOP('',(#677,#678,#679,#680));
#87=EDGE_LOOP('',(#681,#682,#683,#684));
#88=EDGE_LOOP('',(#685,#686,#687,#688));
#89=EDGE_LOOP('',(#689,#690,#691,#692));
#90=EDGE_LOOP('',(#693,#694,#695,#696));
#91=EDGE_LOOP('',(#697,#698,#699,#700));
#92=EDGE_LOOP('',(#701,#702,#703,#704));
#93=EDGE_LOOP('',(#705,#706,#707,#708));
#94=EDGE_LOOP('',(#709,#710,#711,#712));
#95=EDGE_LOOP('',(#713,#714,#715,#716));
#96=EDGE_LOOP('',(#717,#718,#719,#720));
#97=EDGE_LOOP('',(#721,#722,#723,#724));
#98=EDGE_LOOP('',(#725,#726,#727,#728));
#99=EDGE_LOOP('',(#729,#730,#731,#732));
#100=EDGE_LOOP('',(#733,#734,#735,#736));
#101=EDGE_LOOP('',(#737,#738,#739,#740));
#102=EDGE_LOOP('',(#741,#742,#743,#744));
#103=EDGE_LOOP('',(#745,#746,#747,#748,#749,#750,#751,#752,#753,#754,#755,
#756,#757,#758,#759,#760,#761,#762,#763,#764));
#104=EDGE_LOOP('',(#765,#766,#767,#768,#769,#770,#771,#772,#773,#774,#775,
#776,#777,#778,#779,#780,#781,#782,#783,#784));
#105=LINE('',#1146,#225);
#106=LINE('',#1148,#226);
#107=LINE('',#1150,#227);
#108=LINE('',#1151,#228);
#109=LINE('',#1154,#229);
#110=LINE('',#1156,#230);
#111=LINE('',#1157,#231);
#112=LINE('',#1160,#232);
#113=LINE('',#1162,#233);
#114=LINE('',#1163,#234);
#115=LINE('',#1166,#235);
#116=LINE('',#1168,#236);
#117=LINE('',#1169,#237);
#118=LINE('',#1172,#238);
#119=LINE('',#1174,#239);
#120=LINE('',#1175,#240);
#121=LINE('',#1178,#241);
#122=LINE('',#1180,#242);
#123=LINE('',#1181,#243);
#124=LINE('',#1184,#244);
#125=LINE('',#1186,#245);
#126=LINE('',#1187,#246);
#127=LINE('',#1190,#247);
#128=LINE('',#1192,#248);
#129=LINE('',#1193,#249);
#130=LINE('',#1196,#250);
#131=LINE('',#1198,#251);
#132=LINE('',#1199,#252);
#133=LINE('',#1202,#253);
#134=LINE('',#1204,#254);
#135=LINE('',#1205,#255);
#136=LINE('',#1208,#256);
#137=LINE('',#1210,#257);
#138=LINE('',#1211,#258);
#139=LINE('',#1214,#259);
#140=LINE('',#1216,#260);
#141=LINE('',#1217,#261);
#142=LINE('',#1220,#262);
#143=LINE('',#1222,#263);
#144=LINE('',#1223,#264);
#145=LINE('',#1226,#265);
#146=LINE('',#1228,#266);
#147=LINE('',#1229,#267);
#148=LINE('',#1232,#268);
#149=LINE('',#1234,#269);
#150=LINE('',#1235,#270);
#151=LINE('',#1238,#271);
#152=LINE('',#1240,#272);
#153=LINE('',#1241,#273);
#154=LINE('',#1244,#274);
#155=LINE('',#1246,#275);
#156=LINE('',#1247,#276);
#157=LINE('',#1250,#277);
#158=LINE('',#1252,#278);
#159=LINE('',#1253,#279);
#160=LINE('',#1256,#280);
#161=LINE('',#1258,#281);
#162=LINE('',#1259,#282);
#163=LINE('',#1261,#283);
#164=LINE('',#1262,#284);
#165=LINE('',#1268,#285);
#166=LINE('',#1270,#286);
#167=LINE('',#1272,#287);
#168=LINE('',#1273,#288);
#169=LINE('',#1276,#289);
#170=LINE('',#1278,#290);
#171=LINE('',#1279,#291);
#172=LINE('',#1282,#292);
#173=LINE('',#1284,#293);
#174=LINE('',#1285,#294);
#175=LINE('',#1288,#295);
#176=LINE('',#1290,#296);
#177=LINE('',#1291,#297);
#178=LINE('',#1294,#298);
#179=LINE('',#1296,#299);
#180=LINE('',#1297,#300);
#181=LINE('',#1300,#301);
#182=LINE('',#1302,#302);
#183=LINE('',#1303,#303);
#184=LINE('',#1306,#304);
#185=LINE('',#1308,#305);
#186=LINE('',#1309,#306);
#187=LINE('',#1312,#307);
#188=LINE('',#1314,#308);
#189=LINE('',#1315,#309);
#190=LINE('',#1318,#310);
#191=LINE('',#1320,#311);
#192=LINE('',#1321,#312);
#193=LINE('',#1324,#313);
#194=LINE('',#1326,#314);
#195=LINE('',#1327,#315);
#196=LINE('',#1330,#316);
#197=LINE('',#1332,#317);
#198=LINE('',#1333,#318);
#199=LINE('',#1336,#319);
#200=LINE('',#1338,#320);
#201=LINE('',#1339,#321);
#202=LINE('',#1342,#322);
#203=LINE('',#1344,#323);
#204=LINE('',#1345,#324);
#205=LINE('',#1348,#325);
#206=LINE('',#1350,#326);
#207=LINE('',#1351,#327);
#208=LINE('',#1354,#328);
#209=LINE('',#1356,#329);
#210=LINE('',#1357,#330);
#211=LINE('',#1360,#331);
#212=LINE('',#1362,#332);
#213=LINE('',#1363,#333);
#214=LINE('',#1366,#334);
#215=LINE('',#1368,#335);
#216=LINE('',#1369,#336);
#217=LINE('',#1372,#337);
#218=LINE('',#1374,#338);
#219=LINE('',#1375,#339);
#220=LINE('',#1378,#340);
#221=LINE('',#1380,#341);
#222=LINE('',#1381,#342);
#223=LINE('',#1383,#343);
#224=LINE('',#1384,#344);
#225=VECTOR('',#936,10.);
#226=VECTOR('',#937,10.);
#227=VECTOR('',#938,10.);
#228=VECTOR('',#939,10.);
#229=VECTOR('',#942,10.);
#230=VECTOR('',#943,10.);
#231=VECTOR('',#944,10.);
#232=VECTOR('',#947,10.);
#233=VECTOR('',#948,10.);
#234=VECTOR('',#949,10.);
#235=VECTOR('',#952,10.);
#236=VECTOR('',#953,10.);
#237=VECTOR('',#954,10.);
#238=VECTOR('',#957,10.);
#239=VECTOR('',#958,10.);
#240=VECTOR('',#959,10.);
#241=VECTOR('',#962,10.);
#242=VECTOR('',#963,10.);
#243=VECTOR('',#964,10.);
#244=VECTOR('',#967,10.);
#245=VECTOR('',#968,10.);
#246=VECTOR('',#969,10.);
#247=VECTOR('',#972,10.);
#248=VECTOR('',#973,10.);
#249=VECTOR('',#974,10.);
#250=VECTOR('',#977,10.);
#251=VECTOR('',#978,10.);
#252=VECTOR('',#979,10.);
#253=VECTOR('',#982,10.);
#254=VECTOR('',#983,10.);
#255=VECTOR('',#984,10.);
#256=VECTOR('',#987,10.);
#257=VECTOR('',#988,10.);
#258=VECTOR('',#989,10.);
#259=VECTOR('',#992,10.);
#260=VECTOR('',#993,10.);
#261=VECTOR('',#994,10.);
#262=VECTOR('',#997,10.);
#263=VECTOR('',#998,10.);
#264=VECTOR('',#999,10.);
#265=VECTOR('',#1002,10.);
#266=VECTOR('',#1003,10.);
#267=VECTOR('',#1004,10.);
#268=VECTOR('',#1007,10.);
#269=VECTOR('',#1008,10.);
#270=VECTOR('',#1009,10.);
#271=VECTOR('',#1012,10.);
#272=VECTOR('',#1013,10.);
#273=VECTOR('',#1014,10.);
#274=VECTOR('',#1017,10.);
#275=VECTOR('',#1018,10.);
#276=VECTOR('',#1019,10.);
#277=VECTOR('',#1022,10.);
#278=VECTOR('',#1023,10.);
#279=VECTOR('',#1024,10.);
#280=VECTOR('',#1027,10.);
#281=VECTOR('',#1028,10.);
#282=VECTOR('',#1029,10.);
#283=VECTOR('',#1032,10.);
#284=VECTOR('',#1033,10.);
#285=VECTOR('',#1040,10.);
#286=VECTOR('',#1041,10.);
#287=VECTOR('',#1042,10.);
#288=VECTOR('',#1043,10.);
#289=VECTOR('',#1046,10.);
#290=VECTOR('',#1047,10.);
#291=VECTOR('',#1048,10.);
#292=VECTOR('',#1051,10.);
#293=VECTOR('',#1052,10.);
#294=VECTOR('',#1053,10.);
#295=VECTOR('',#1056,10.);
#296=VECTOR('',#1057,10.);
#297=VECTOR('',#1058,10.);
#298=VECTOR('',#1061,10.);
#299=VECTOR('',#1062,10.);
#300=VECTOR('',#1063,10.);
#301=VECTOR('',#1066,10.);
#302=VECTOR('',#1067,10.);
#303=VECTOR('',#1068,10.);
#304=VECTOR('',#1071,10.);
#305=VECTOR('',#1072,10.);
#306=VECTOR('',#1073,10.);
#307=VECTOR('',#1076,10.);
#308=VECTOR('',#1077,10.);
#309=VECTOR('',#1078,10.);
#310=VECTOR('',#1081,10.);
#311=VECTOR('',#1082,10.);
#312=VECTOR('',#1083,10.);
#313=VECTOR('',#1086,10.);
#314=VECTOR('',#1087,10.);
#315=VECTOR('',#1088,10.);
#316=VECTOR('',#1091,10.);
#317=VECTOR('',#1092,10.);
#318=VECTOR('',#1093,10.);
#319=VECTOR('',#1096,10.);
#320=VECTOR('',#1097,10.);
#321=VECTOR('',#1098,10.);
#322=VECTOR('',#1101,10.);
#323=VECTOR('',#1102,10.);
#324=VECTOR('',#1103,10.);
#325=VECTOR('',#1106,10.);
#326=VECTOR('',#1107,10.);
#327=VECTOR('',#1108,10.);
#328=VECTOR('',#1111,10.);
#329=VECTOR('',#1112,10.);
#330=VECTOR('',#1113,10.);
#331=VECTOR('',#1116,10.);
#332=VECTOR('',#1117,10.);
#333=VECTOR('',#1118,10.);
#334=VECTOR('',#1121,10.);
#335=VECTOR('',#1122,10.);
#336=VECTOR('',#1123,10.);
#337=VECTOR('',#1126,10.);
#338=VECTOR('',#1127,10.);
#339=VECTOR('',#1128,10.);
#340=VECTOR('',#1131,10.);
#341=VECTOR('',#1132,10.);
#342=VECTOR('',#1133,10.);
#343=VECTOR('',#1136,10.);
#344=VECTOR('',#1137,10.);
#345=VERTEX_POINT('',#1144);
#346=VERTEX_POINT('',#1145);
#347=VERTEX_POINT('',#1147);
#348=VERTEX_POINT('',#1149);
#349=VERTEX_POINT('',#1153);
#350=VERTEX_POINT('',#1155);
#351=VERTEX_POINT('',#1159);
#352=VERTEX_POINT('',#1161);
#353=VERTEX_POINT('',#1165);
#354=VERTEX_POINT('',#1167);
#355=VERTEX_POINT('',#1171);
#356=VERTEX_POINT('',#1173);
#357=VERTEX_POINT('',#1177);
#358=VERTEX_POINT('',#1179);
#359=VERTEX_POINT('',#1183);
#360=VERTEX_POINT('',#1185);
#361=VERTEX_POINT('',#1189);
#362=VERTEX_POINT('',#1191);
#363=VERTEX_POINT('',#1195);
#364=VERTEX_POINT('',#1197);
#365=VERTEX_POINT('',#1201);
#366=VERTEX_POINT('',#1203);
#367=VERTEX_POINT('',#1207);
#368=VERTEX_POINT('',#1209);
#369=VERTEX_POINT('',#1213);
#370=VERTEX_POINT('',#1215);
#371=VERTEX_POINT('',#1219);
#372=VERTEX_POINT('',#1221);
#373=VERTEX_POINT('',#1225);
#374=VERTEX_POINT('',#1227);
#375=VERTEX_POINT('',#1231);
#376=VERTEX_POINT('',#1233);
#377=VERTEX_POINT('',#1237);
#378=VERTEX_POINT('',#1239);
#379=VERTEX_POINT('',#1243);
#380=VERTEX_POINT('',#1245);
#381=VERTEX_POINT('',#1249);
#382=VERTEX_POINT('',#1251);
#383=VERTEX_POINT('',#1255);
#384=VERTEX_POINT('',#1257);
#385=VERTEX_POINT('',#1266);
#386=VERTEX_POINT('',#1267);
#387=VERTEX_POINT('',#1269);
#388=VERTEX_POINT('',#1271);
#389=VERTEX_POINT('',#1275);
#390=VERTEX_POINT('',#1277);
#391=VERTEX_POINT('',#1281);
#392=VERTEX_POINT('',#1283);
#393=VERTEX_POINT('',#1287);
#394=VERTEX_POINT('',#1289);
#395=VERTEX_POINT('',#1293);
#396=VERTEX_POINT('',#1295);
#397=VERTEX_POINT('',#1299);
#398=VERTEX_POINT('',#1301);
#399=VERTEX_POINT('',#1305);
#400=VERTEX_POINT('',#1307);
#401=VERTEX_POINT('',#1311);
#402=VERTEX_POINT('',#1313);
#403=VERTEX_POINT('',#1317);
#404=VERTEX_POINT('',#1319);
#405=VERTEX_POINT('',#1323);
#406=VERTEX_POINT('',#1325);
#407=VERTEX_POINT('',#1329);
#408=VERTEX_POINT('',#1331);
#409=VERTEX_POINT('',#1335);
#410=VERTEX_POINT('',#1337);
#411=VERTEX_POINT('',#1341);
#412=VERTEX_POINT('',#1343);
#413=VERTEX_POINT('',#1347);
#414=VERTEX_POINT('',#1349);
#415=VERTEX_POINT('',#1353);
#416=VERTEX_POINT('',#1355);
#417=VERTEX_POINT('',#1359);
#418=VERTEX_POINT('',#1361);
#419=VERTEX_POINT('',#1365);
#420=VERTEX_POINT('',#1367);
#421=VERTEX_POINT('',#1371);
#422=VERTEX_POINT('',#1373);
#423=VERTEX_POINT('',#1377);
#424=VERTEX_POINT('',#1379);
#425=EDGE_CURVE('',#345,#346,#105,.T.);
#426=EDGE_CURVE('',#345,#347,#106,.T.);
#427=EDGE_CURVE('',#348,#347,#107,.T.);
#428=EDGE_CURVE('',#346,#348,#108,.T.);
#429=EDGE_CURVE('',#346,#349,#109,.T.);
#430=EDGE_CURVE('',#350,#348,#110,.T.);
#431=EDGE_CURVE('',#349,#350,#111,.T.);
#432=EDGE_CURVE('',#349,#351,#112,.T.);
#433=EDGE_CURVE('',#352,#350,#113,.T.);
#434=EDGE_CURVE('',#351,#352,#114,.T.);
#435=EDGE_CURVE('',#351,#353,#115,.T.);
#436=EDGE_CURVE('',#354,#352,#116,.T.);
#437=EDGE_CURVE('',#353,#354,#117,.T.);
#438=EDGE_CURVE('',#353,#355,#118,.T.);
#439=EDGE_CURVE('',#356,#354,#119,.T.);
#440=EDGE_CURVE('',#355,#356,#120,.T.);
#441=EDGE_CURVE('',#355,#357,#121,.T.);
#442=EDGE_CURVE('',#358,#356,#122,.T.);
#443=EDGE_CURVE('',#357,#358,#123,.T.);
#444=EDGE_CURVE('',#357,#359,#124,.T.);
#445=EDGE_CURVE('',#360,#358,#125,.T.);
#446=EDGE_CURVE('',#359,#360,#126,.T.);
#447=EDGE_CURVE('',#359,#361,#127,.T.);
#448=EDGE_CURVE('',#362,#360,#128,.T.);
#449=EDGE_CURVE('',#361,#362,#129,.T.);
#450=EDGE_CURVE('',#361,#363,#130,.T.);
#451=EDGE_CURVE('',#364,#362,#131,.T.);
#452=EDGE_CURVE('',#363,#364,#132,.T.);
#453=EDGE_CURVE('',#363,#365,#133,.T.);
#454=EDGE_CURVE('',#366,#364,#134,.T.);
#455=EDGE_CURVE('',#365,#366,#135,.T.);
#456=EDGE_CURVE('',#365,#367,#136,.T.);
#457=EDGE_CURVE('',#368,#366,#137,.T.);
#458=EDGE_CURVE('',#367,#368,#138,.T.);
#459=EDGE_CURVE('',#367,#369,#139,.T.);
#460=EDGE_CURVE('',#370,#368,#140,.T.);
#461=EDGE_CURVE('',#369,#370,#141,.T.);
#462=EDGE_CURVE('',#369,#371,#142,.T.);
#463=EDGE_CURVE('',#372,#370,#143,.T.);
#464=EDGE_CURVE('',#371,#372,#144,.T.);
#465=EDGE_CURVE('',#371,#373,#145,.T.);
#466=EDGE_CURVE('',#374,#372,#146,.T.);
#467=EDGE_CURVE('',#373,#374,#147,.T.);
#468=EDGE_CURVE('',#373,#375,#148,.T.);
#469=EDGE_CURVE('',#376,#374,#149,.T.);
#470=EDGE_CURVE('',#375,#376,#150,.T.);
#471=EDGE_CURVE('',#375,#377,#151,.T.);
#472=EDGE_CURVE('',#378,#376,#152,.T.);
#473=EDGE_CURVE('',#377,#378,#153,.T.);
#474=EDGE_CURVE('',#377,#379,#154,.T.);
#475=EDGE_CURVE('',#380,#378,#155,.T.);
#476=EDGE_CURVE('',#379,#380,#156,.T.);
#477=EDGE_CURVE('',#381,#379,#157,.T.);
#478=EDGE_CURVE('',#382,#380,#158,.T.);
#479=EDGE_CURVE('',#381,#382,#159,.T.);
#480=EDGE_CURVE('',#383,#381,#160,.T.);
#481=EDGE_CURVE('',#384,#382,#161,.T.);
#482=EDGE_CURVE('',#383,#384,#162,.T.);
#483=EDGE_CURVE('',#345,#383,#163,.T.);
#484=EDGE_CURVE('',#347,#384,#164,.T.);
#485=EDGE_CURVE('',#385,#386,#165,.T.);
#486=EDGE_CURVE('',#385,#387,#166,.T.);
#487=EDGE_CURVE('',#388,#387,#167,.T.);
#488=EDGE_CURVE('',#386,#388,#168,.T.);
#489=EDGE_CURVE('',#386,#389,#169,.T.);
#490=EDGE_CURVE('',#390,#388,#170,.T.);
#491=EDGE_CURVE('',#389,#390,#171,.T.);
#492=EDGE_CURVE('',#389,#391,#172,.T.);
#493=EDGE_CURVE('',#392,#390,#173,.T.);
#494=EDGE_CURVE('',#391,#392,#174,.T.);
#495=EDGE_CURVE('',#391,#393,#175,.T.);
#496=EDGE_CURVE('',#394,#392,#176,.T.);
#497=EDGE_CURVE('',#393,#394,#177,.T.);
#498=EDGE_CURVE('',#393,#395,#178,.T.);
#499=EDGE_CURVE('',#396,#394,#179,.T.);
#500=EDGE_CURVE('',#395,#396,#180,.T.);
#501=EDGE_CURVE('',#395,#397,#181,.T.);
#502=EDGE_CURVE('',#398,#396,#182,.T.);
#503=EDGE_CURVE('',#397,#398,#183,.T.);
#504=EDGE_CURVE('',#397,#399,#184,.T.);
#505=EDGE_CURVE('',#400,#398,#185,.T.);
#506=EDGE_CURVE('',#399,#400,#186,.T.);
#507=EDGE_CURVE('',#399,#401,#187,.T.);
#508=EDGE_CURVE('',#402,#400,#188,.T.);
#509=EDGE_CURVE('',#401,#402,#189,.T.);
#510=EDGE_CURVE('',#401,#403,#190,.T.);
#511=EDGE_CURVE('',#404,#402,#191,.T.);
#512=EDGE_CURVE('',#403,#404,#192,.T.);
#513=EDGE_CURVE('',#403,#405,#193,.T.);
#514=EDGE_CURVE('',#406,#404,#194,.T.);
#515=EDGE_CURVE('',#405,#406,#195,.T.);
#516=EDGE_CURVE('',#405,#407,#196,.T.);
#517=EDGE_CURVE('',#408,#406,#197,.T.);
#518=EDGE_CURVE('',#407,#408,#198,.T.);
#519=EDGE_CURVE('',#407,#409,#199,.T.);
#520=EDGE_CURVE('',#410,#408,#200,.T.);
#521=EDGE_CURVE('',#409,#410,#201,.T.);
#522=EDGE_CURVE('',#409,#411,#202,.T.);
#523=EDGE_CURVE('',#412,#410,#203,.T.);
#524=EDGE_CURVE('',#411,#412,#204,.T.);
#525=EDGE_CURVE('',#411,#413,#205,.T.);
#526=EDGE_CURVE('',#414,#412,#206,.T.);
#527=EDGE_CURVE('',#413,#414,#207,.T.);
#528=EDGE_CURVE('',#413,#415,#208,.T.);
#529=EDGE_CURVE('',#416,#414,#209,.T.);
#530=EDGE_CURVE('',#415,#416,#210,.T.);
#531=EDGE_CURVE('',#415,#417,#211,.T.);
#532=EDGE_CURVE('',#418,#416,#212,.T.);
#533=EDGE_CURVE('',#417,#418,#213,.T.);
#534=EDGE_CURVE('',#417,#419,#214,.T.);
#535=EDGE_CURVE('',#420,#418,#215,.T.);
#536=EDGE_CURVE('',#419,#420,#216,.T.);
#537=EDGE_CURVE('',#421,#419,#217,.T.);
#538=EDGE_CURVE('',#422,#420,#218,.T.);
#539=EDGE_CURVE('',#421,#422,#219,.T.);
#540=EDGE_CURVE('',#423,#421,#220,.T.);
#541=EDGE_CURVE('',#424,#422,#221,.T.);
#542=EDGE_CURVE('',#423,#424,#222,.T.);
#543=EDGE_CURVE('',#385,#423,#223,.T.);
#544=EDGE_CURVE('',#387,#424,#224,.T.);
#545=ORIENTED_EDGE('',*,*,#425,.F.);
#546=ORIENTED_EDGE('',*,*,#426,.T.);
#547=ORIENTED_EDGE('',*,*,#427,.F.);
#548=ORIENTED_EDGE('',*,*,#428,.F.);
#549=ORIENTED_EDGE('',*,*,#429,.F.);
#550=ORIENTED_EDGE('',*,*,#428,.T.);
#551=ORIENTED_EDGE('',*,*,#430,.F.);
#552=ORIENTED_EDGE('',*,*,#431,.F.);
#553=ORIENTED_EDGE('',*,*,#432,.F.);
#554=ORIENTED_EDGE('',*,*,#431,.T.);
#555=ORIENTED_EDGE('',*,*,#433,.F.);
#556=ORIENTED_EDGE('',*,*,#434,.F.);
#557=ORIENTED_EDGE('',*,*,#435,.F.);
#558=ORIENTED_EDGE('',*,*,#434,.T.);
#559=ORIENTED_EDGE('',*,*,#436,.F.);
#560=ORIENTED_EDGE('',*,*,#437,.F.);
#561=ORIENTED_EDGE('',*,*,#438,.F.);
#562=ORIENTED_EDGE('',*,*,#437,.T.);
#563=ORIENTED_EDGE('',*,*,#439,.F.);
#564=ORIENTED_EDGE('',*,*,#440,.F.);
#565=ORIENTED_EDGE('',*,*,#441,.F.);
#566=ORIENTED_EDGE('',*,*,#440,.T.);
#567=ORIENTED_EDGE('',*,*,#442,.F.);
#568=ORIENTED_EDGE('',*,*,#443,.F.);
#569=ORIENTED_EDGE('',*,*,#444,.F.);
#570=ORIENTED_EDGE('',*,*,#443,.T.);
#571=ORIENTED_EDGE('',*,*,#445,.F.);
#572=ORIENTED_EDGE('',*,*,#446,.F.);
#573=ORIENTED_EDGE('',*,*,#447,.F.);
#574=ORIENTED_EDGE('',*,*,#446,.T.);
#575=ORIENTED_EDGE('',*,*,#448,.F.);
#576=ORIENTED_EDGE('',*,*,#449,.F.);
#577=ORIENTED_EDGE('',*,*,#450,.F.);
#578=ORIENTED_EDGE('',*,*,#449,.T.);
#579=ORIENTED_EDGE('',*,*,#451,.F.);
#580=ORIENTED_EDGE('',*,*,#452,.F.);
#581=ORIENTED_EDGE('',*,*,#453,.F.);
#582=ORIENTED_EDGE('',*,*,#452,.T.);
#583=ORIENTED_EDGE('',*,*,#454,.F.);
#584=ORIENTED_EDGE('',*,*,#455,.F.);
#585=ORIENTED_EDGE('',*,*,#456,.F.);
#586=ORIENTED_EDGE('',*,*,#455,.T.);
#587=ORIENTED_EDGE('',*,*,#457,.F.);
#588=ORIENTED_EDGE('',*,*,#458,.F.);
#589=ORIENTED_EDGE('',*,*,#459,.F.);
#590=ORIENTED_EDGE('',*,*,#458,.T.);
#591=ORIENTED_EDGE('',*,*,#460,.F.);
#592=ORIENTED_EDGE('',*,*,#461,.F.);
#593=ORIENTED_EDGE('',*,*,#462,.F.);
#594=ORIENTED_EDGE('',*,*,#461,.T.);
#595=ORIENTED_EDGE('',*,*,#463,.F.);
#596=ORIENTED_EDGE('',*,*,#464,.F.);
#597=ORIENTED_EDGE('',*,*,#465,.F.);
#598=ORIENTED_EDGE('',*,*,#464,.T.);
#599=ORIENTED_EDGE('',*,*,#466,.F.);
#600=ORIENTED_EDGE('',*,*,#467,.F.);
#601=ORIENTED_EDGE('',*,*,#468,.F.);
#602=ORIENTED_EDGE('',*,*,#467,.T.);
#603=ORIENTED_EDGE('',*,*,#469,.F.);
#604=ORIENTED_EDGE('',*,*,#470,.F.);
#605=ORIENTED_EDGE('',*,*,#471,.F.);
#606=ORIENTED_EDGE('',*,*,#470,.T.);
#607=ORIENTED_EDGE('',*,*,#472,.F.);
#608=ORIENTED_EDGE('',*,*,#473,.F.);
#609=ORIENTED_EDGE('',*,*,#474,.F.);
#610=ORIENTED_EDGE('',*,*,#473,.T.);
#611=ORIENTED_EDGE('',*,*,#475,.F.);
#612=ORIENTED_EDGE('',*,*,#476,.F.);
#613=ORIENTED_EDGE('',*,*,#477,.T.);
#614=ORIENTED_EDGE('',*,*,#476,.T.);
#615=ORIENTED_EDGE('',*,*,#478,.F.);
#616=ORIENTED_EDGE('',*,*,#479,.F.);
#617=ORIENTED_EDGE('',*,*,#480,.T.);
#618=ORIENTED_EDGE('',*,*,#479,.T.);
#619=ORIENTED_EDGE('',*,*,#481,.F.);
#620=ORIENTED_EDGE('',*,*,#482,.F.);
#621=ORIENTED_EDGE('',*,*,#483,.T.);
#622=ORIENTED_EDGE('',*,*,#482,.T.);
#623=ORIENTED_EDGE('',*,*,#484,.F.);
#624=ORIENTED_EDGE('',*,*,#426,.F.);
#625=ORIENTED_EDGE('',*,*,#484,.T.);
#626=ORIENTED_EDGE('',*,*,#481,.T.);
#627=ORIENTED_EDGE('',*,*,#478,.T.);
#628=ORIENTED_EDGE('',*,*,#475,.T.);
#629=ORIENTED_EDGE('',*,*,#472,.T.);
#630=ORIENTED_EDGE('',*,*,#469,.T.);
#631=ORIENTED_EDGE('',*,*,#466,.T.);
#632=ORIENTED_EDGE('',*,*,#463,.T.);
#633=ORIENTED_EDGE('',*,*,#460,.T.);
#634=ORIENTED_EDGE('',*,*,#457,.T.);
#635=ORIENTED_EDGE('',*,*,#454,.T.);
#636=ORIENTED_EDGE('',*,*,#451,.T.);
#637=ORIENTED_EDGE('',*,*,#448,.T.);
#638=ORIENTED_EDGE('',*,*,#445,.T.);
#639=ORIENTED_EDGE('',*,*,#442,.T.);
#640=ORIENTED_EDGE('',*,*,#439,.T.);
#641=ORIENTED_EDGE('',*,*,#436,.T.);
#642=ORIENTED_EDGE('',*,*,#433,.T.);
#643=ORIENTED_EDGE('',*,*,#430,.T.);
#644=ORIENTED_EDGE('',*,*,#427,.T.);
#645=ORIENTED_EDGE('',*,*,#483,.F.);
#646=ORIENTED_EDGE('',*,*,#425,.T.);
#647=ORIENTED_EDGE('',*,*,#429,.T.);
#648=ORIENTED_EDGE('',*,*,#432,.T.);
#649=ORIENTED_EDGE('',*,*,#435,.T.);
#650=ORIENTED_EDGE('',*,*,#438,.T.);
#651=ORIENTED_EDGE('',*,*,#441,.T.);
#652=ORIENTED_EDGE('',*,*,#444,.T.);
#653=ORIENTED_EDGE('',*,*,#447,.T.);
#654=ORIENTED_EDGE('',*,*,#450,.T.);
#655=ORIENTED_EDGE('',*,*,#453,.T.);
#656=ORIENTED_EDGE('',*,*,#456,.T.);
#657=ORIENTED_EDGE('',*,*,#459,.T.);
#658=ORIENTED_EDGE('',*,*,#462,.T.);
#659=ORIENTED_EDGE('',*,*,#465,.T.);
#660=ORIENTED_EDGE('',*,*,#468,.T.);
#661=ORIENTED_EDGE('',*,*,#471,.T.);
#662=ORIENTED_EDGE('',*,*,#474,.T.);
#663=ORIENTED_EDGE('',*,*,#477,.F.);
#664=ORIENTED_EDGE('',*,*,#480,.F.);
#665=ORIENTED_EDGE('',*,*,#485,.F.);
#666=ORIENTED_EDGE('',*,*,#486,.T.);
#667=ORIENTED_EDGE('',*,*,#487,.F.);
#668=ORIENTED_EDGE('',*,*,#488,.F.);
#669=ORIENTED_EDGE('',*,*,#489,.F.);
#670=ORIENTED_EDGE('',*,*,#488,.T.);
#671=ORIENTED_EDGE('',*,*,#490,.F.);
#672=ORIENTED_EDGE('',*,*,#491,.F.);
#673=ORIENTED_EDGE('',*,*,#492,.F.);
#674=ORIENTED_EDGE('',*,*,#491,.T.);
#675=ORIENTED_EDGE('',*,*,#493,.F.);
#676=ORIENTED_EDGE('',*,*,#494,.F.);
#677=ORIENTED_EDGE('',*,*,#495,.F.);
#678=ORIENTED_EDGE('',*,*,#494,.T.);
#679=ORIENTED_EDGE('',*,*,#496,.F.);
#680=ORIENTED_EDGE('',*,*,#497,.F.);
#681=ORIENTED_EDGE('',*,*,#498,.F.);
#682=ORIENTED_EDGE('',*,*,#497,.T.);
#683=ORIENTED_EDGE('',*,*,#499,.F.);
#684=ORIENTED_EDGE('',*,*,#500,.F.);
#685=ORIENTED_EDGE('',*,*,#501,.F.);
#686=ORIENTED_EDGE('',*,*,#500,.T.);
#687=ORIENTED_EDGE('',*,*,#502,.F.);
#688=ORIENTED_EDGE('',*,*,#503,.F.);
#689=ORIENTED_EDGE('',*,*,#504,.F.);
#690=ORIENTED_EDGE('',*,*,#503,.T.);
#691=ORIENTED_EDGE('',*,*,#505,.F.);
#692=ORIENTED_EDGE('',*,*,#506,.F.);
#693=ORIENTED_EDGE('',*,*,#507,.F.);
#694=ORIENTED_EDGE('',*,*,#506,.T.);
#695=ORIENTED_EDGE('',*,*,#508,.F.);
#696=ORIENTED_EDGE('',*,*,#509,.F.);
#697=ORIENTED_EDGE('',*,*,#510,.F.);
#698=ORIENTED_EDGE('',*,*,#509,.T.);
#699=ORIENTED_EDGE('',*,*,#511,.F.);
#700=ORIENTED_EDGE('',*,*,#512,.F.);
#701=ORIENTED_EDGE('',*,*,#513,.F.);
#702=ORIENTED_EDGE('',*,*,#512,.T.);
#703=ORIENTED_EDGE('',*,*,#514,.F.);
#704=ORIENTED_EDGE('',*,*,#515,.F.);
#705=ORIENTED_EDGE('',*,*,#516,.F.);
#706=ORIENTED_EDGE('',*,*,#515,.T.);
#707=ORIENTED_EDGE('',*,*,#517,.F.);
#708=ORIENTED_EDGE('',*,*,#518,.F.);
#709=ORIENTED_EDGE('',*,*,#519,.F.);
#710=ORIENTED_EDGE('',*,*,#518,.T.);
#711=ORIENTED_EDGE('',*,*,#520,.F.);
#712=ORIENTED_EDGE('',*,*,#521,.F.);
#713=ORIENTED_EDGE('',*,*,#522,.F.);
#714=ORIENTED_EDGE('',*,*,#521,.T.);
#715=ORIENTED_EDGE('',*,*,#523,.F.);
#716=ORIENTED_EDGE('',*,*,#524,.F.);
#717=ORIENTED_EDGE('',*,*,#525,.F.);
#718=ORIENTED_EDGE('',*,*,#524,.T.);
#719=ORIENTED_EDGE('',*,*,#526,.F.);
#720=ORIENTED_EDGE('',*,*,#527,.F.);
#721=ORIENTED_EDGE('',*,*,#528,.F.);
#722=ORIENTED_EDGE('',*,*,#527,.T.);
#723=ORIENTED_EDGE('',*,*,#529,.F.);
#724=ORIENTED_EDGE('',*,*,#530,.F.);
#725=ORIENTED_EDGE('',*,*,#531,.F.);
#726=ORIENTED_EDGE('',*,*,#530,.T.);
#727=ORIENTED_EDGE('',*,*,#532,.F.);
#728=ORIENTED_EDGE('',*,*,#533,.F.);
#729=ORIENTED_EDGE('',*,*,#534,.F.);
#730=ORIENTED_EDGE('',*,*,#533,.T.);
#731=ORIENTED_EDGE('',*,*,#535,.F.);
#732=ORIENTED_EDGE('',*,*,#536,.F.);
#733=ORIENTED_EDGE('',*,*,#537,.T.);
#734=ORIENTED_EDGE('',*,*,#536,.T.);
#735=ORIENTED_EDGE('',*,*,#538,.F.);
#736=ORIENTED_EDGE('',*,*,#539,.F.);
#737=ORIENTED_EDGE('',*,*,#540,.T.);
#738=ORIENTED_EDGE('',*,*,#539,.T.);
#739=ORIENTED_EDGE('',*,*,#541,.F.);
#740=ORIENTED_EDGE('',*,*,#542,.F.);
#741=ORIENTED_EDGE('',*,*,#543,.T.);
#742=ORIENTED_EDGE('',*,*,#542,.T.);
#743=ORIENTED_EDGE('',*,*,#544,.F.);
#744=ORIENTED_EDGE('',*,*,#486,.F.);
#745=ORIENTED_EDGE('',*,*,#544,.T.);
#746=ORIENTED_EDGE('',*,*,#541,.T.);
#747=ORIENTED_EDGE('',*,*,#538,.T.);
#748=ORIENTED_EDGE('',*,*,#535,.T.);
#749=ORIENTED_EDGE('',*,*,#532,.T.);
#750=ORIENTED_EDGE('',*,*,#529,.T.);
#751=ORIENTED_EDGE('',*,*,#526,.T.);
#752=ORIENTED_EDGE('',*,*,#523,.T.);
#753=ORIENTED_EDGE('',*,*,#520,.T.);
#754=ORIENTED_EDGE('',*,*,#517,.T.);
#755=ORIENTED_EDGE('',*,*,#514,.T.);
#756=ORIENTED_EDGE('',*,*,#511,.T.);
#757=ORIENTED_EDGE('',*,*,#508,.T.);
#758=ORIENTED_EDGE('',*,*,#505,.T.);
#759=ORIENTED_EDGE('',*,*,#502,.T.);
#760=ORIENTED_EDGE('',*,*,#499,.T.);
#761=ORIENTED_EDGE('',*,*,#496,.T.);
#762=ORIENTED_EDGE('',*,*,#493,.T.);
#763=ORIENTED_EDGE('',*,*,#490,.T.);
#764=ORIENTED_EDGE('',*,*,#487,.T.);
#765=ORIENTED_EDGE('',*,*,#543,.F.);
#766=ORIENTED_EDGE('',*,*,#485,.T.);
#767=ORIENTED_EDGE('',*,*,#489,.T.);
#768=ORIENTED_EDGE('',*,*,#492,.T.);
#769=ORIENTED_EDGE('',*,*,#495,.T.);
#770=ORIENTED_EDGE('',*,*,#498,.T.);
#771=ORIENTED_EDGE('',*,*,#501,.T.);
#772=ORIENTED_EDGE('',*,*,#504,.T.);
#773=ORIENTED_EDGE('',*,*,#507,.T.);
#774=ORIENTED_EDGE('',*,*,#510,.T.);
#775=ORIENTED_EDGE('',*,*,#513,.T.);
#776=ORIENTED_EDGE('',*,*,#516,.T.);
#777=ORIENTED_EDGE('',*,*,#519,.T.);
#778=ORIENTED_EDGE('',*,*,#522,.T.);
#779=ORIENTED_EDGE('',*,*,#525,.T.);
#780=ORIENTED_EDGE('',*,*,#528,.T.);
#781=ORIENTED_EDGE('',*,*,#531,.T.);
#782=ORIENTED_EDGE('',*,*,#534,.T.);
#783=ORIENTED_EDGE('',*,*,#537,.F.);
#784=ORIENTED_EDGE('',*,*,#540,.F.);
#785=PLANE('',#888);
#786=PLANE('',#889);
#787=PLANE('',#890);
#788=PLANE('',#891);
#789=PLANE('',#892);
#790=PLANE('',#893);
#791=PLANE('',#894);
#792=PLANE('',#895);
#793=PLANE('',#896);
#794=PLANE('',#897);
#795=PLANE('',#898);
#796=PLANE('',#899);
#797=PLANE('',#900);
#798=PLANE('',#901);
#799=PLANE('',#902);
#800=PLANE('',#903);
#801=PLANE('',#904);
#802=PLANE('',#905);
#803=PLANE('',#906);
#804=PLANE('',#907);
#805=PLANE('',#908);
#806=PLANE('',#909);
#807=PLANE('',#910);
#808=PLANE('',#911);
#809=PLANE('',#912);
#810=PLANE('',#913);
#811=PLANE('',#914);
#812=PLANE('',#915);
#813=PLANE('',#916);
#814=PLANE('',#917);
#815=PLANE('',#918);
#816=PLANE('',#919);
#817=PLANE('',#920);
#818=PLANE('',#921);
#819=PLANE('',#922);
#820=PLANE('',#923);
#821=PLANE('',#924);
#822=PLANE('',#925);
#823=PLANE('',#926);
#824=PLANE('',#927);
#825=PLANE('',#928);
#826=PLANE('',#929);
#827=PLANE('',#930);
#828=PLANE('',#931);
#829=ADVANCED_FACE('',(#17),#785,.T.);
#830=ADVANCED_FACE('',(#18),#786,.T.);
#831=ADVANCED_FACE('',(#19),#787,.T.);
#832=ADVANCED_FACE('',(#20),#788,.T.);
#833=ADVANCED_FACE('',(#21),#789,.T.);
#834=ADVANCED_FACE('',(#22),#790,.T.);
#835=ADVANCED_FACE('',(#23),#791,.T.);
#836=ADVANCED_FACE('',(#24),#792,.T.);
#837=ADVANCED_FACE('',(#25),#793,.T.);
#838=ADVANCED_FACE('',(#26),#794,.T.);
#839=ADVANCED_FACE('',(#27),#795,.T.);
#840=ADVANCED_FACE('',(#28),#796,.T.);
#841=ADVANCED_FACE('',(#29),#797,.T.);
#842=ADVANCED_FACE('',(#30),#798,.T.);
#843=ADVANCED_FACE('',(#31),#799,.T.);
#844=ADVANCED_FACE('',(#32),#800,.T.);
#845=ADVANCED_FACE('',(#33),#801,.T.);
#846=ADVANCED_FACE('',(#34),#802,.T.);
#847=ADVANCED_FACE('',(#35),#803,.T.);
#848=ADVANCED_FACE('',(#36),#804,.T.);
#849=ADVANCED_FACE('',(#37),#805,.T.);
#850=ADVANCED_FACE('',(#38),#806,.F.);
#851=ADVANCED_FACE('',(#39),#807,.T.);
#852=ADVANCED_FACE('',(#40),#808,.T.);
#853=ADVANCED_FACE('',(#41),#809,.T.);
#854=ADVANCED_FACE('',(#42),#810,.T.);
#855=ADVANCED_FACE('',(#43),#811,.T.);
#856=ADVANCED_FACE('',(#44),#812,.T.);
#857=ADVANCED_FACE('',(#45),#813,.T.);
#858=ADVANCED_FACE('',(#46),#814,.T.);
#859=ADVANCED_FACE('',(#47),#815,.T.);
#860=ADVANCED_FACE('',(#48),#816,.T.);
#861=ADVANCED_FACE('',(#49),#817,.T.);
#862=ADVANCED_FACE('',(#50),#818,.T.);
#863=ADVANCED_FACE('',(#51),#819,.T.);
#864=ADVANCED_FACE('',(#52),#820,.T.);
#865=ADVANCED_FACE('',(#53),#821,.T.);
#866=ADVANCED_FACE('',(#54),#822,.T.);
#867=ADVANCED_FACE('',(#55),#823,.T.);
#868=ADVANCED_FACE('',(#56),#824,.T.);
#869=ADVANCED_FACE('',(#57),#825,.T.);
#870=ADVANCED_FACE('',(#58),#826,.T.);
#871=ADVANCED_FACE('',(#59),#827,.T.);
#872=ADVANCED_FACE('',(#60),#828,.F.);
#873=CLOSED_SHELL('',(#829,#830,#831,#832,#833,#834,#835,#836,#837,#838,
#839,#840,#841,#842,#843,#844,#845,#846,#847,#848,#849,#850));
#874=CLOSED_SHELL('',(#851,#852,#853,#854,#855,#856,#857,#858,#859,#860,
#861,#862,#863,#864,#865,#866,#867,#868,#869,#870,#871,#872));
#875=DERIVED_UNIT_ELEMENT(#877,1.);
#876=DERIVED_UNIT_ELEMENT(#1392,-3.);
#877=(
MASS_UNIT()
NAMED_UNIT(*)
SI_UNIT(.KILO.,.GRAM.)
);
#878=DERIVED_UNIT((#875,#876));
#879=MEASURE_REPRESENTATION_ITEM('density measure',
POSITIVE_RATIO_MEASURE(7850.),#878);
#880=PROPERTY_DEFINITION_REPRESENTATION(#885,#882);
#881=PROPERTY_DEFINITION_REPRESENTATION(#886,#883);
#882=REPRESENTATION('material name',(#884),#1389);
#883=REPRESENTATION('density',(#879),#1389);
#884=DESCRIPTIVE_REPRESENTATION_ITEM('Stahl','Stahl');
#885=PROPERTY_DEFINITION('material property','material name',#1399);
#886=PROPERTY_DEFINITION('material property','density of part',#1399);
#887=AXIS2_PLACEMENT_3D('',#1142,#932,#933);
#888=AXIS2_PLACEMENT_3D('',#1143,#934,#935);
#889=AXIS2_PLACEMENT_3D('',#1152,#940,#941);
#890=AXIS2_PLACEMENT_3D('',#1158,#945,#946);
#891=AXIS2_PLACEMENT_3D('',#1164,#950,#951);
#892=AXIS2_PLACEMENT_3D('',#1170,#955,#956);
#893=AXIS2_PLACEMENT_3D('',#1176,#960,#961);
#894=AXIS2_PLACEMENT_3D('',#1182,#965,#966);
#895=AXIS2_PLACEMENT_3D('',#1188,#970,#971);
#896=AXIS2_PLACEMENT_3D('',#1194,#975,#976);
#897=AXIS2_PLACEMENT_3D('',#1200,#980,#981);
#898=AXIS2_PLACEMENT_3D('',#1206,#985,#986);
#899=AXIS2_PLACEMENT_3D('',#1212,#990,#991);
#900=AXIS2_PLACEMENT_3D('',#1218,#995,#996);
#901=AXIS2_PLACEMENT_3D('',#1224,#1000,#1001);
#902=AXIS2_PLACEMENT_3D('',#1230,#1005,#1006);
#903=AXIS2_PLACEMENT_3D('',#1236,#1010,#1011);
#904=AXIS2_PLACEMENT_3D('',#1242,#1015,#1016);
#905=AXIS2_PLACEMENT_3D('',#1248,#1020,#1021);
#906=AXIS2_PLACEMENT_3D('',#1254,#1025,#1026);
#907=AXIS2_PLACEMENT_3D('',#1260,#1030,#1031);
#908=AXIS2_PLACEMENT_3D('',#1263,#1034,#1035);
#909=AXIS2_PLACEMENT_3D('',#1264,#1036,#1037);
#910=AXIS2_PLACEMENT_3D('',#1265,#1038,#1039);
#911=AXIS2_PLACEMENT_3D('',#1274,#1044,#1045);
#912=AXIS2_PLACEMENT_3D('',#1280,#1049,#1050);
#913=AXIS2_PLACEMENT_3D('',#1286,#1054,#1055);
#914=AXIS2_PLACEMENT_3D('',#1292,#1059,#1060);
#915=AXIS2_PLACEMENT_3D('',#1298,#1064,#1065);
#916=AXIS2_PLACEMENT_3D('',#1304,#1069,#1070);
#917=AXIS2_PLACEMENT_3D('',#1310,#1074,#1075);
#918=AXIS2_PLACEMENT_3D('',#1316,#1079,#1080);
#919=AXIS2_PLACEMENT_3D('',#1322,#1084,#1085);
#920=AXIS2_PLACEMENT_3D('',#1328,#1089,#1090);
#921=AXIS2_PLACEMENT_3D('',#1334,#1094,#1095);
#922=AXIS2_PLACEMENT_3D('',#1340,#1099,#1100);
#923=AXIS2_PLACEMENT_3D('',#1346,#1104,#1105);
#924=AXIS2_PLACEMENT_3D('',#1352,#1109,#1110);
#925=AXIS2_PLACEMENT_3D('',#1358,#1114,#1115);
#926=AXIS2_PLACEMENT_3D('',#1364,#1119,#1120);
#927=AXIS2_PLACEMENT_3D('',#1370,#1124,#1125);
#928=AXIS2_PLACEMENT_3D('',#1376,#1129,#1130);
#929=AXIS2_PLACEMENT_3D('',#1382,#1134,#1135);
#930=AXIS2_PLACEMENT_3D('',#1385,#1138,#1139);
#931=AXIS2_PLACEMENT_3D('',#1386,#1140,#1141);
#932=DIRECTION('axis',(0.,0.,1.));
#933=DIRECTION('refdir',(1.,0.,0.));
#934=DIRECTION('center_axis',(-1.,0.,-1.55879798406965E-14));
#935=DIRECTION('ref_axis',(-1.55879798406965E-14,0.,1.));
#936=DIRECTION('',(1.55879798406965E-14,0.,-1.));
#937=DIRECTION('',(0.,1.,0.));
#938=DIRECTION('',(-1.55879798406965E-14,0.,1.));
#939=DIRECTION('',(0.,1.,0.));
#940=DIRECTION('center_axis',(7.01321211183979E-14,0.,-1.));
#941=DIRECTION('ref_axis',(-1.,0.,-7.01321211183979E-14));
#942=DIRECTION('',(1.,0.,7.01321211183979E-14));
#943=DIRECTION('',(-1.,0.,-7.01321211183979E-14));
#944=DIRECTION('',(0.,1.,0.));
#945=DIRECTION('center_axis',(-1.,0.,1.6151734777895E-16));
#946=DIRECTION('ref_axis',(1.6151734777895E-16,0.,1.));
#947=DIRECTION('',(-1.6151734777895E-16,0.,-1.));
#948=DIRECTION('',(1.6151734777895E-16,0.,1.));
#949=DIRECTION('',(0.,1.,0.));
#950=DIRECTION('center_axis',(0.,0.,-1.));
#951=DIRECTION('ref_axis',(-1.,0.,0.));
#952=DIRECTION('',(1.,0.,0.));
#953=DIRECTION('',(-1.,0.,0.));
#954=DIRECTION('',(0.,1.,0.));
#955=DIRECTION('center_axis',(1.,0.,4.7723019566051E-14));
#956=DIRECTION('ref_axis',(4.7723019566051E-14,0.,-1.));
#957=DIRECTION('',(-4.7723019566051E-14,0.,1.));
#958=DIRECTION('',(4.7723019566051E-14,0.,-1.));
#959=DIRECTION('',(0.,1.,0.));
#960=DIRECTION('center_axis',(4.63502945799773E-14,0.,-1.));
#961=DIRECTION('ref_axis',(-1.,0.,-4.63502945799773E-14));
#962=DIRECTION('',(1.,0.,4.63502945799773E-14));
#963=DIRECTION('',(-1.,0.,-4.63502945799773E-14));
#964=DIRECTION('',(0.,1.,0.));
#965=DIRECTION('center_axis',(1.,0.,-4.4857495944293E-15));
#966=DIRECTION('ref_axis',(-4.4857495944293E-15,0.,-1.));
#967=DIRECTION('',(4.4857495944293E-15,0.,1.));
#968=DIRECTION('',(-4.4857495944293E-15,0.,-1.));
#969=DIRECTION('',(0.,1.,0.));
#970=DIRECTION('center_axis',(-3.52601979186956E-13,0.,1.));
#971=DIRECTION('ref_axis',(1.,0.,3.52601979186956E-13));
#972=DIRECTION('',(-1.,0.,-3.52601979186956E-13));
#973=DIRECTION('',(1.,0.,3.52601979186956E-13));
#974=DIRECTION('',(0.,1.,0.));
#975=DIRECTION('center_axis',(1.,0.,-2.65127886478082E-14));
#976=DIRECTION('ref_axis',(-2.65127886478082E-14,0.,-1.));
#977=DIRECTION('',(2.65127886478082E-14,0.,1.));
#978=DIRECTION('',(-2.65127886478082E-14,0.,-1.));
#979=DIRECTION('',(0.,1.,0.));
#980=DIRECTION('center_axis',(0.,0.,1.));
#981=DIRECTION('ref_axis',(1.,0.,0.));
#982=DIRECTION('',(-1.,0.,0.));
#983=DIRECTION('',(1.,0.,0.));
#984=DIRECTION('',(0.,1.,0.));
#985=DIRECTION('center_axis',(1.,0.,0.));
#986=DIRECTION('ref_axis',(0.,0.,-1.));
#987=DIRECTION('',(0.,0.,1.));
#988=DIRECTION('',(0.,0.,-1.));
#989=DIRECTION('',(0.,1.,0.));
#990=DIRECTION('center_axis',(-5.92118946466724E-16,0.,1.));
#991=DIRECTION('ref_axis',(1.,0.,5.92118946466724E-16));
#992=DIRECTION('',(-1.,0.,-5.92118946466724E-16));
#993=DIRECTION('',(1.,0.,5.92118946466724E-16));
#994=DIRECTION('',(0.,1.,0.));
#995=DIRECTION('center_axis',(-1.,0.,-2.96059473233376E-14));
#996=DIRECTION('ref_axis',(-2.96059473233376E-14,0.,1.));
#997=DIRECTION('',(2.96059473233376E-14,0.,-1.));
#998=DIRECTION('',(-2.96059473233376E-14,0.,1.));
#999=DIRECTION('',(0.,1.,0.));
#1000=DIRECTION('center_axis',(-2.96059473233362E-16,0.,1.));
#1001=DIRECTION('ref_axis',(1.,0.,2.96059473233362E-16));
#1002=DIRECTION('',(-1.,0.,-2.96059473233362E-16));
#1003=DIRECTION('',(1.,0.,2.96059473233362E-16));
#1004=DIRECTION('',(0.,1.,0.));
#1005=DIRECTION('center_axis',(1.,0.,3.14563190310461E-14));
#1006=DIRECTION('ref_axis',(3.14563190310461E-14,0.,-1.));
#1007=DIRECTION('',(-3.14563190310461E-14,0.,1.));
#1008=DIRECTION('',(3.14563190310461E-14,0.,-1.));
#1009=DIRECTION('',(0.,1.,0.));
#1010=DIRECTION('center_axis',(-2.96059473233362E-16,0.,1.));
#1011=DIRECTION('ref_axis',(1.,0.,2.96059473233362E-16));
#1012=DIRECTION('',(-1.,0.,-2.96059473233362E-16));
#1013=DIRECTION('',(1.,0.,2.96059473233362E-16));
#1014=DIRECTION('',(0.,1.,0.));
#1015=DIRECTION('center_axis',(-1.,0.,-8.78926561161583E-15));
#1016=DIRECTION('ref_axis',(-8.78926561161583E-15,0.,1.));
#1017=DIRECTION('',(8.78926561161583E-15,0.,-1.));
#1018=DIRECTION('',(-8.78926561161583E-15,0.,1.));
#1019=DIRECTION('',(0.,1.,0.));
#1020=DIRECTION('center_axis',(0.,0.,1.));
#1021=DIRECTION('ref_axis',(1.,0.,0.));
#1022=DIRECTION('',(1.,0.,0.));
#1023=DIRECTION('',(1.,0.,0.));
#1024=DIRECTION('',(0.,1.,0.));
#1025=DIRECTION('center_axis',(-1.,0.,-1.93539174493398E-13));
#1026=DIRECTION('ref_axis',(-1.93539174493398E-13,0.,1.));
#1027=DIRECTION('',(-1.93539174493398E-13,0.,1.));
#1028=DIRECTION('',(-1.93539174493398E-13,0.,1.));
#1029=DIRECTION('',(0.,1.,0.));
#1030=DIRECTION('center_axis',(-4.45302568346921E-13,0.,1.));
#1031=DIRECTION('ref_axis',(1.,0.,4.45302568346921E-13));
#1032=DIRECTION('',(1.,0.,4.45302568346921E-13));
#1033=DIRECTION('',(1.,0.,4.45302568346921E-13));
#1034=DIRECTION('center_axis',(0.,1.,0.));
#1035=DIRECTION('ref_axis',(0.,0.,1.));
#1036=DIRECTION('center_axis',(0.,1.,0.));
#1037=DIRECTION('ref_axis',(1.,0.,0.));
#1038=DIRECTION('center_axis',(-1.,0.,-1.55879798406965E-14));
#1039=DIRECTION('ref_axis',(-1.55879798406965E-14,0.,1.));
#1040=DIRECTION('',(1.55879798406965E-14,0.,-1.));
#1041=DIRECTION('',(0.,1.,0.));
#1042=DIRECTION('',(-1.55879798406965E-14,0.,1.));
#1043=DIRECTION('',(0.,1.,0.));
#1044=DIRECTION('center_axis',(7.01321211183979E-14,0.,-1.));
#1045=DIRECTION('ref_axis',(-1.,0.,-7.01321211183979E-14));
#1046=DIRECTION('',(1.,0.,7.01321211183979E-14));
#1047=DIRECTION('',(-1.,0.,-7.01321211183979E-14));
#1048=DIRECTION('',(0.,1.,0.));
#1049=DIRECTION('center_axis',(-1.,0.,1.6151734777895E-16));
#1050=DIRECTION('ref_axis',(1.6151734777895E-16,0.,1.));
#1051=DIRECTION('',(-1.6151734777895E-16,0.,-1.));
#1052=DIRECTION('',(1.6151734777895E-16,0.,1.));
#1053=DIRECTION('',(0.,1.,0.));
#1054=DIRECTION('center_axis',(0.,0.,-1.));
#1055=DIRECTION('ref_axis',(-1.,0.,0.));
#1056=DIRECTION('',(1.,0.,0.));
#1057=DIRECTION('',(-1.,0.,0.));
#1058=DIRECTION('',(0.,1.,0.));
#1059=DIRECTION('center_axis',(1.,0.,4.7723019566051E-14));
#1060=DIRECTION('ref_axis',(4.7723019566051E-14,0.,-1.));
#1061=DIRECTION('',(-4.7723019566051E-14,0.,1.));
#1062=DIRECTION('',(4.7723019566051E-14,0.,-1.));
#1063=DIRECTION('',(0.,1.,0.));
#1064=DIRECTION('center_axis',(4.63502945799773E-14,0.,-1.));
#1065=DIRECTION('ref_axis',(-1.,0.,-4.63502945799773E-14));
#1066=DIRECTION('',(1.,0.,4.63502945799773E-14));
#1067=DIRECTION('',(-1.,0.,-4.63502945799773E-14));
#1068=DIRECTION('',(0.,1.,0.));
#1069=DIRECTION('center_axis',(1.,0.,-4.4857495944293E-15));
#1070=DIRECTION('ref_axis',(-4.4857495944293E-15,0.,-1.));
#1071=DIRECTION('',(4.4857495944293E-15,0.,1.));
#1072=DIRECTION('',(-4.4857495944293E-15,0.,-1.));
#1073=DIRECTION('',(0.,1.,0.));
#1074=DIRECTION('center_axis',(-3.52601979186956E-13,0.,1.));
#1075=DIRECTION('ref_axis',(1.,0.,3.52601979186956E-13));
#1076=DIRECTION('',(-1.,0.,-3.52601979186956E-13));
#1077=DIRECTION('',(1.,0.,3.52601979186956E-13));
#1078=DIRECTION('',(0.,1.,0.));
#1079=DIRECTION('center_axis',(1.,0.,-2.65127886478082E-14));
#1080=DIRECTION('ref_axis',(-2.65127886478082E-14,0.,-1.));
#1081=DIRECTION('',(2.65127886478082E-14,0.,1.));
#1082=DIRECTION('',(-2.65127886478082E-14,0.,-1.));
#1083=DIRECTION('',(0.,1.,0.));
#1084=DIRECTION('center_axis',(0.,0.,1.));
#1085=DIRECTION('ref_axis',(1.,0.,0.));
#1086=DIRECTION('',(-1.,0.,0.));
#1087=DIRECTION('',(1.,0.,0.));
#1088=DIRECTION('',(0.,1.,0.));
#1089=DIRECTION('center_axis',(1.,0.,0.));
#1090=DIRECTION('ref_axis',(0.,0.,-1.));
#1091=DIRECTION('',(0.,0.,1.));
#1092=DIRECTION('',(0.,0.,-1.));
#1093=DIRECTION('',(0.,1.,0.));
#1094=DIRECTION('center_axis',(-5.92118946466724E-16,0.,1.));
#1095=DIRECTION('ref_axis',(1.,0.,5.92118946466724E-16));
#1096=DIRECTION('',(-1.,0.,-5.92118946466724E-16));
#1097=DIRECTION('',(1.,0.,5.92118946466724E-16));
#1098=DIRECTION('',(0.,1.,0.));
#1099=DIRECTION('center_axis',(-1.,0.,-2.96059473233376E-14));
#1100=DIRECTION('ref_axis',(-2.96059473233376E-14,0.,1.));
#1101=DIRECTION('',(2.96059473233376E-14,0.,-1.));
#1102=DIRECTION('',(-2.96059473233376E-14,0.,1.));
#1103=DIRECTION('',(0.,1.,0.));
#1104=DIRECTION('center_axis',(-2.96059473233362E-16,0.,1.));
#1105=DIRECTION('ref_axis',(1.,0.,2.96059473233362E-16));
#1106=DIRECTION('',(-1.,0.,-2.96059473233362E-16));
#1107=DIRECTION('',(1.,0.,2.96059473233362E-16));
#1108=DIRECTION('',(0.,1.,0.));
#1109=DIRECTION('center_axis',(1.,0.,3.14563190310461E-14));
#1110=DIRECTION('ref_axis',(3.14563190310461E-14,0.,-1.));
#1111=DIRECTION('',(-3.14563190310461E-14,0.,1.));
#1112=DIRECTION('',(3.14563190310461E-14,0.,-1.));
#1113=DIRECTION('',(0.,1.,0.));
#1114=DIRECTION('center_axis',(-2.96059473233362E-16,0.,1.));
#1115=DIRECTION('ref_axis',(1.,0.,2.96059473233362E-16));
#1116=DIRECTION('',(-1.,0.,-2.96059473233362E-16));
#1117=DIRECTION('',(1.,0.,2.96059473233362E-16));
#1118=DIRECTION('',(0.,1.,0.));
#1119=DIRECTION('center_axis',(-1.,0.,-8.78926561161583E-15));
#1120=DIRECTION('ref_axis',(-8.78926561161583E-15,0.,1.));
#1121=DIRECTION('',(8.78926561161583E-15,0.,-1.));
#1122=DIRECTION('',(-8.78926561161583E-15,0.,1.));
#1123=DIRECTION('',(0.,1.,0.));
#1124=DIRECTION('center_axis',(0.,0.,1.));
#1125=DIRECTION('ref_axis',(1.,0.,0.));
#1126=DIRECTION('',(1.,0.,0.));
#1127=DIRECTION('',(1.,0.,0.));
#1128=DIRECTION('',(0.,1.,0.));
#1129=DIRECTION('center_axis',(-1.,0.,-1.93539174493398E-13));
#1130=DIRECTION('ref_axis',(-1.93539174493398E-13,0.,1.));
#1131=DIRECTION('',(-1.93539174493398E-13,0.,1.));
#1132=DIRECTION('',(-1.93539174493398E-13,0.,1.));
#1133=DIRECTION('',(0.,1.,0.));
#1134=DIRECTION('center_axis',(-4.45302568346921E-13,0.,1.));
#1135=DIRECTION('ref_axis',(1.,0.,4.45302568346921E-13));
#1136=DIRECTION('',(1.,0.,4.45302568346921E-13));
#1137=DIRECTION('',(1.,0.,4.45302568346921E-13));
#1138=DIRECTION('center_axis',(0.,1.,0.));
#1139=DIRECTION('ref_axis',(0.,0.,1.));
#1140=DIRECTION('center_axis',(0.,1.,0.));
#1141=DIRECTION('ref_axis',(1.,0.,0.));
#1142=CARTESIAN_POINT('',(0.,0.,0.));
#1143=CARTESIAN_POINT('Origin',(-18.3,0.,20.0999999999591));
#1144=CARTESIAN_POINT('',(-18.3000000000003,0.,39.8999999999593));
#1145=CARTESIAN_POINT('',(-18.3,0.,20.0999999999591));
#1146=CARTESIAN_POINT('',(-18.3000000000003,0.,39.8999999999593));
#1147=CARTESIAN_POINT('',(-18.3000000000003,18.,39.8999999999593));
#1148=CARTESIAN_POINT('',(-18.3000000000003,0.,39.8999999999593));
#1149=CARTESIAN_POINT('',(-18.3,18.,20.0999999999591));
#1150=CARTESIAN_POINT('',(-18.3000000000003,18.,39.8999999999593));
#1151=CARTESIAN_POINT('',(-18.3,0.,20.0999999999591));
#1152=CARTESIAN_POINT('Origin',(2.22044604925031E-15,0.,20.0999999999604));
#1153=CARTESIAN_POINT('',(3.24649869035051E-15,0.,20.0999999999604));
#1154=CARTESIAN_POINT('',(-18.3,0.,20.0999999999591));
#1155=CARTESIAN_POINT('',(2.22044604925031E-15,18.,20.0999999999604));
#1156=CARTESIAN_POINT('',(-18.3,18.,20.0999999999591));
#1157=CARTESIAN_POINT('',(3.24649869035051E-15,0.,20.0999999999604));
#1158=CARTESIAN_POINT('Origin',(0.,0.,0.));
#1159=CARTESIAN_POINT('',(0.,0.,0.));
#1160=CARTESIAN_POINT('',(3.24649869035051E-15,0.,20.0999999999604));
#1161=CARTESIAN_POINT('',(0.,18.,0.));
#1162=CARTESIAN_POINT('',(3.24649869035051E-15,18.,20.0999999999604));
#1163=CARTESIAN_POINT('',(0.,0.,0.));
#1164=CARTESIAN_POINT('Origin',(113.4,0.,0.));
#1165=CARTESIAN_POINT('',(113.4,0.,0.));
#1166=CARTESIAN_POINT('',(0.,0.,0.));
#1167=CARTESIAN_POINT('',(113.4,18.,0.));
#1168=CARTESIAN_POINT('',(0.,18.,0.));
#1169=CARTESIAN_POINT('',(113.4,0.,0.));
#1170=CARTESIAN_POINT('Origin',(113.399999999999,0.,20.0999999999688));
#1171=CARTESIAN_POINT('',(113.399999999999,0.,20.0999999999688));
#1172=CARTESIAN_POINT('',(113.4,0.,0.));
#1173=CARTESIAN_POINT('',(113.399999999999,18.,20.0999999999688));
#1174=CARTESIAN_POINT('',(113.4,18.,0.));
#1175=CARTESIAN_POINT('',(113.399999999999,0.,20.0999999999688));
#1176=CARTESIAN_POINT('Origin',(131.7,0.,20.0999999999696));
#1177=CARTESIAN_POINT('',(131.7,0.,20.0999999999696));
#1178=CARTESIAN_POINT('',(113.399999999999,0.,20.0999999999688));
#1179=CARTESIAN_POINT('',(131.7,18.,20.0999999999696));
#1180=CARTESIAN_POINT('',(113.399999999999,18.,20.0999999999688));
#1181=CARTESIAN_POINT('',(131.7,0.,20.0999999999696));
#1182=CARTESIAN_POINT('Origin',(131.7,0.,39.9000000000393));
#1183=CARTESIAN_POINT('',(131.7,0.,39.9000000000393));
#1184=CARTESIAN_POINT('',(131.7,0.,20.0999999999696));
#1185=CARTESIAN_POINT('',(131.7,18.,39.9000000000393));
#1186=CARTESIAN_POINT('',(131.7,18.,20.0999999999696));
#1187=CARTESIAN_POINT('',(131.7,0.,39.9000000000393));
#1188=CARTESIAN_POINT('Origin',(113.399999999999,0.,39.9000000000328));
#1189=CARTESIAN_POINT('',(113.399999999999,0.,39.9000000000328));
#1190=CARTESIAN_POINT('',(131.7,0.,39.9000000000393));
#1191=CARTESIAN_POINT('',(113.399999999999,18.,39.9000000000328));
#1192=CARTESIAN_POINT('',(131.7,18.,39.9000000000393));
#1193=CARTESIAN_POINT('',(113.399999999999,0.,39.9000000000328));
#1194=CARTESIAN_POINT('Origin',(113.4,0.,60.));
#1195=CARTESIAN_POINT('',(113.4,0.,60.));
#1196=CARTESIAN_POINT('',(113.399999999999,0.,39.9000000000328));
#1197=CARTESIAN_POINT('',(113.4,18.,60.));
#1198=CARTESIAN_POINT('',(113.399999999999,18.,39.9000000000328));
#1199=CARTESIAN_POINT('',(113.4,0.,60.));
#1200=CARTESIAN_POINT('Origin',(101.7,0.,60.));
#1201=CARTESIAN_POINT('',(101.7,0.,60.));
#1202=CARTESIAN_POINT('',(113.4,0.,60.));
#1203=CARTESIAN_POINT('',(101.7,18.,60.));
#1204=CARTESIAN_POINT('',(113.4,18.,60.));
#1205=CARTESIAN_POINT('',(101.7,0.,60.));
#1206=CARTESIAN_POINT('Origin',(101.7,0.,64.8));
#1207=CARTESIAN_POINT('',(101.7,0.,64.8));
#1208=CARTESIAN_POINT('',(101.7,0.,60.));
#1209=CARTESIAN_POINT('',(101.7,18.,64.8));
#1210=CARTESIAN_POINT('',(101.7,18.,60.));
#1211=CARTESIAN_POINT('',(101.7,0.,64.8));
#1212=CARTESIAN_POINT('Origin',(71.6999999999987,0.,64.8));
#1213=CARTESIAN_POINT('',(71.6999999999987,0.,64.8));
#1214=CARTESIAN_POINT('',(101.7,0.,64.8));
#1215=CARTESIAN_POINT('',(71.6999999999987,18.,64.8));
#1216=CARTESIAN_POINT('',(101.7,18.,64.8));
#1217=CARTESIAN_POINT('',(71.6999999999987,0.,64.8));
#1218=CARTESIAN_POINT('Origin',(71.6999999999989,0.,60.));
#1219=CARTESIAN_POINT('',(71.6999999999989,0.,60.));
#1220=CARTESIAN_POINT('',(71.6999999999987,0.,64.8));
#1221=CARTESIAN_POINT('',(71.6999999999989,18.,60.));
#1222=CARTESIAN_POINT('',(71.6999999999987,18.,64.8));
#1223=CARTESIAN_POINT('',(71.6999999999989,0.,60.));
#1224=CARTESIAN_POINT('Origin',(41.6999999999975,0.,60.));
#1225=CARTESIAN_POINT('',(41.6999999999975,0.,60.));
#1226=CARTESIAN_POINT('',(71.6999999999989,0.,60.));
#1227=CARTESIAN_POINT('',(41.6999999999975,18.,60.));
#1228=CARTESIAN_POINT('',(71.6999999999989,18.,60.));
#1229=CARTESIAN_POINT('',(41.6999999999975,0.,60.));
#1230=CARTESIAN_POINT('Origin',(41.6999999999974,0.,64.8));
#1231=CARTESIAN_POINT('',(41.6999999999974,0.,64.8));
#1232=CARTESIAN_POINT('',(41.6999999999975,0.,60.));
#1233=CARTESIAN_POINT('',(41.6999999999974,18.,64.8));
#1234=CARTESIAN_POINT('',(41.6999999999975,18.,60.));
#1235=CARTESIAN_POINT('',(41.6999999999974,0.,64.8));
#1236=CARTESIAN_POINT('Origin',(11.6999999999961,0.,64.8));
#1237=CARTESIAN_POINT('',(11.6999999999961,0.,64.8));
#1238=CARTESIAN_POINT('',(41.6999999999974,0.,64.8));
#1239=CARTESIAN_POINT('',(11.6999999999961,18.,64.8));
#1240=CARTESIAN_POINT('',(41.6999999999974,18.,64.8));
#1241=CARTESIAN_POINT('',(11.6999999999961,0.,64.8));
#1242=CARTESIAN_POINT('Origin',(11.6999999999961,0.,60.));
#1243=CARTESIAN_POINT('',(11.6999999999961,0.,60.));
#1244=CARTESIAN_POINT('',(11.6999999999961,0.,64.8));
#1245=CARTESIAN_POINT('',(11.6999999999961,18.,60.));
#1246=CARTESIAN_POINT('',(11.6999999999961,18.,64.8));
#1247=CARTESIAN_POINT('',(11.6999999999961,0.,60.));
#1248=CARTESIAN_POINT('Origin',(-4.22495372021103E-12,0.,60.));
#1249=CARTESIAN_POINT('',(-4.22495372021103E-12,0.,60.));
#1250=CARTESIAN_POINT('',(-4.22495372021103E-12,0.,60.));
#1251=CARTESIAN_POINT('',(-4.22550883172335E-12,18.,60.));
#1252=CARTESIAN_POINT('',(-4.22495372021103E-12,18.,60.));
#1253=CARTESIAN_POINT('',(-4.22495372021103E-12,0.,60.));
#1254=CARTESIAN_POINT('Origin',(-3.34816312887433E-13,0.,39.8999999999675));
#1255=CARTESIAN_POINT('',(-3.34816312887433E-13,0.,39.8999999999675));
#1256=CARTESIAN_POINT('',(-3.34816312887433E-13,0.,39.8999999999675));
#1257=CARTESIAN_POINT('',(-3.35287353436797E-13,18.,39.8999999999675));
#1258=CARTESIAN_POINT('',(-3.34816312887433E-13,18.,39.8999999999675));
#1259=CARTESIAN_POINT('',(-3.34816312887433E-13,0.,39.8999999999675));
#1260=CARTESIAN_POINT('Origin',(-18.3000000000003,0.,39.8999999999593));
#1261=CARTESIAN_POINT('',(-18.3000000000003,0.,39.8999999999593));
#1262=CARTESIAN_POINT('',(-18.3000000000003,18.,39.8999999999593));
#1263=CARTESIAN_POINT('Origin',(56.6999999999997,18.,32.4));
#1264=CARTESIAN_POINT('Origin',(56.6999999999997,0.,32.4));
#1265=CARTESIAN_POINT('Origin',(-18.3,0.,20.0999999999591));
#1266=CARTESIAN_POINT('',(-18.3000000000003,0.,39.8999999999593));
#1267=CARTESIAN_POINT('',(-18.3,0.,20.0999999999591));
#1268=CARTESIAN_POINT('',(-18.3000000000003,0.,39.8999999999593));
#1269=CARTESIAN_POINT('',(-18.3000000000003,15.,39.8999999999593));
#1270=CARTESIAN_POINT('',(-18.3000000000003,0.,39.8999999999593));
#1271=CARTESIAN_POINT('',(-18.3,15.,20.0999999999591));
#1272=CARTESIAN_POINT('',(-18.3000000000003,15.,39.8999999999593));
#1273=CARTESIAN_POINT('',(-18.3,0.,20.0999999999591));
#1274=CARTESIAN_POINT('Origin',(2.22044604925031E-15,0.,20.0999999999604));
#1275=CARTESIAN_POINT('',(3.24649869035051E-15,0.,20.0999999999604));
#1276=CARTESIAN_POINT('',(-18.3,0.,20.0999999999591));
#1277=CARTESIAN_POINT('',(2.22044604925031E-15,15.,20.0999999999604));
#1278=CARTESIAN_POINT('',(-18.3,15.,20.0999999999591));
#1279=CARTESIAN_POINT('',(3.24649869035051E-15,0.,20.0999999999604));
#1280=CARTESIAN_POINT('Origin',(0.,0.,0.));
#1281=CARTESIAN_POINT('',(0.,0.,0.));
#1282=CARTESIAN_POINT('',(3.24649869035051E-15,0.,20.0999999999604));
#1283=CARTESIAN_POINT('',(0.,15.,0.));
#1284=CARTESIAN_POINT('',(3.24649869035051E-15,15.,20.0999999999604));
#1285=CARTESIAN_POINT('',(0.,0.,0.));
#1286=CARTESIAN_POINT('Origin',(113.4,0.,0.));
#1287=CARTESIAN_POINT('',(113.4,0.,0.));
#1288=CARTESIAN_POINT('',(0.,0.,0.));
#1289=CARTESIAN_POINT('',(113.4,15.,0.));
#1290=CARTESIAN_POINT('',(0.,15.,0.));
#1291=CARTESIAN_POINT('',(113.4,0.,0.));
#1292=CARTESIAN_POINT('Origin',(113.399999999999,0.,20.0999999999688));
#1293=CARTESIAN_POINT('',(113.399999999999,0.,20.0999999999688));
#1294=CARTESIAN_POINT('',(113.4,0.,0.));
#1295=CARTESIAN_POINT('',(113.399999999999,15.,20.0999999999688));
#1296=CARTESIAN_POINT('',(113.4,15.,0.));
#1297=CARTESIAN_POINT('',(113.399999999999,0.,20.0999999999688));
#1298=CARTESIAN_POINT('Origin',(131.7,0.,20.0999999999696));
#1299=CARTESIAN_POINT('',(131.7,0.,20.0999999999696));
#1300=CARTESIAN_POINT('',(113.399999999999,0.,20.0999999999688));
#1301=CARTESIAN_POINT('',(131.7,15.,20.0999999999696));
#1302=CARTESIAN_POINT('',(113.399999999999,15.,20.0999999999688));
#1303=CARTESIAN_POINT('',(131.7,0.,20.0999999999696));
#1304=CARTESIAN_POINT('Origin',(131.7,0.,39.9000000000393));
#1305=CARTESIAN_POINT('',(131.7,0.,39.9000000000393));
#1306=CARTESIAN_POINT('',(131.7,0.,20.0999999999696));
#1307=CARTESIAN_POINT('',(131.7,15.,39.9000000000393));
#1308=CARTESIAN_POINT('',(131.7,15.,20.0999999999696));
#1309=CARTESIAN_POINT('',(131.7,0.,39.9000000000393));
#1310=CARTESIAN_POINT('Origin',(113.399999999999,0.,39.9000000000328));
#1311=CARTESIAN_POINT('',(113.399999999999,0.,39.9000000000328));
#1312=CARTESIAN_POINT('',(131.7,0.,39.9000000000393));
#1313=CARTESIAN_POINT('',(113.399999999999,15.,39.9000000000328));
#1314=CARTESIAN_POINT('',(131.7,15.,39.9000000000393));
#1315=CARTESIAN_POINT('',(113.399999999999,0.,39.9000000000328));
#1316=CARTESIAN_POINT('Origin',(113.4,0.,60.));
#1317=CARTESIAN_POINT('',(113.4,0.,60.));
#1318=CARTESIAN_POINT('',(113.399999999999,0.,39.9000000000328));
#1319=CARTESIAN_POINT('',(113.4,15.,60.));
#1320=CARTESIAN_POINT('',(113.399999999999,15.,39.9000000000328));
#1321=CARTESIAN_POINT('',(113.4,0.,60.));
#1322=CARTESIAN_POINT('Origin',(101.7,0.,60.));
#1323=CARTESIAN_POINT('',(101.7,0.,60.));
#1324=CARTESIAN_POINT('',(113.4,0.,60.));
#1325=CARTESIAN_POINT('',(101.7,15.,60.));
#1326=CARTESIAN_POINT('',(113.4,15.,60.));
#1327=CARTESIAN_POINT('',(101.7,0.,60.));
#1328=CARTESIAN_POINT('Origin',(101.7,0.,64.8));
#1329=CARTESIAN_POINT('',(101.7,0.,64.8));
#1330=CARTESIAN_POINT('',(101.7,0.,60.));
#1331=CARTESIAN_POINT('',(101.7,15.,64.8));
#1332=CARTESIAN_POINT('',(101.7,15.,60.));
#1333=CARTESIAN_POINT('',(101.7,0.,64.8));
#1334=CARTESIAN_POINT('Origin',(71.6999999999987,0.,64.8));
#1335=CARTESIAN_POINT('',(71.6999999999987,0.,64.8));
#1336=CARTESIAN_POINT('',(101.7,0.,64.8));
#1337=CARTESIAN_POINT('',(71.6999999999987,15.,64.8));
#1338=CARTESIAN_POINT('',(101.7,15.,64.8));
#1339=CARTESIAN_POINT('',(71.6999999999987,0.,64.8));
#1340=CARTESIAN_POINT('Origin',(71.6999999999989,0.,60.));
#1341=CARTESIAN_POINT('',(71.6999999999989,0.,60.));
#1342=CARTESIAN_POINT('',(71.6999999999987,0.,64.8));
#1343=CARTESIAN_POINT('',(71.6999999999989,15.,60.));
#1344=CARTESIAN_POINT('',(71.6999999999987,15.,64.8));
#1345=CARTESIAN_POINT('',(71.6999999999989,0.,60.));
#1346=CARTESIAN_POINT('Origin',(41.6999999999975,0.,60.));
#1347=CARTESIAN_POINT('',(41.6999999999975,0.,60.));
#1348=CARTESIAN_POINT('',(71.6999999999989,0.,60.));
#1349=CARTESIAN_POINT('',(41.6999999999975,15.,60.));
#1350=CARTESIAN_POINT('',(71.6999999999989,15.,60.));
#1351=CARTESIAN_POINT('',(41.6999999999975,0.,60.));
#1352=CARTESIAN_POINT('Origin',(41.6999999999974,0.,64.8));
#1353=CARTESIAN_POINT('',(41.6999999999974,0.,64.8));
#1354=CARTESIAN_POINT('',(41.6999999999975,0.,60.));
#1355=CARTESIAN_POINT('',(41.6999999999974,15.,64.8));
#1356=CARTESIAN_POINT('',(41.6999999999975,15.,60.));
#1357=CARTESIAN_POINT('',(41.6999999999974,0.,64.8));
#1358=CARTESIAN_POINT('Origin',(11.6999999999961,0.,64.8));
#1359=CARTESIAN_POINT('',(11.6999999999961,0.,64.8));
#1360=CARTESIAN_POINT('',(41.6999999999974,0.,64.8));
#1361=CARTESIAN_POINT('',(11.6999999999961,15.,64.8));
#1362=CARTESIAN_POINT('',(41.6999999999974,15.,64.8));
#1363=CARTESIAN_POINT('',(11.6999999999961,0.,64.8));
#1364=CARTESIAN_POINT('Origin',(11.6999999999961,0.,60.));
#1365=CARTESIAN_POINT('',(11.6999999999961,0.,60.));
#1366=CARTESIAN_POINT('',(11.6999999999961,0.,64.8));
#1367=CARTESIAN_POINT('',(11.6999999999961,15.,60.));
#1368=CARTESIAN_POINT('',(11.6999999999961,15.,64.8));
#1369=CARTESIAN_POINT('',(11.6999999999961,0.,60.));
#1370=CARTESIAN_POINT('Origin',(-4.22495372021103E-12,0.,60.));
#1371=CARTESIAN_POINT('',(-4.22495372021103E-12,0.,60.));
#1372=CARTESIAN_POINT('',(-4.22495372021103E-12,0.,60.));
#1373=CARTESIAN_POINT('',(-4.22550883172335E-12,15.,60.));
#1374=CARTESIAN_POINT('',(-4.22495372021103E-12,15.,60.));
#1375=CARTESIAN_POINT('',(-4.22495372021103E-12,0.,60.));
#1376=CARTESIAN_POINT('Origin',(-3.34816312887433E-13,0.,39.8999999999675));
#1377=CARTESIAN_POINT('',(-3.34816312887433E-13,0.,39.8999999999675));
#1378=CARTESIAN_POINT('',(-3.34816312887433E-13,0.,39.8999999999675));
#1379=CARTESIAN_POINT('',(-3.35287353436797E-13,15.,39.8999999999675));
#1380=CARTESIAN_POINT('',(-3.34816312887433E-13,15.,39.8999999999675));
#1381=CARTESIAN_POINT('',(-3.34816312887433E-13,0.,39.8999999999675));
#1382=CARTESIAN_POINT('Origin',(-18.3000000000003,0.,39.8999999999593));
#1383=CARTESIAN_POINT('',(-18.3000000000003,0.,39.8999999999593));
#1384=CARTESIAN_POINT('',(-18.3000000000003,15.,39.8999999999593));
#1385=CARTESIAN_POINT('Origin',(56.6999999999997,15.,32.4));
#1386=CARTESIAN_POINT('Origin',(56.6999999999997,0.,32.4));
#1387=UNCERTAINTY_MEASURE_WITH_UNIT(LENGTH_MEASURE(0.01),#1391,
'DISTANCE_ACCURACY_VALUE',
'Maximum model space distance between geometric entities at asserted c
onnectivities');
#1388=UNCERTAINTY_MEASURE_WITH_UNIT(LENGTH_MEASURE(0.01),#1391,
'DISTANCE_ACCURACY_VALUE',
'Maximum model space distance between geometric entities at asserted c
onnectivities');
#1389=(
GEOMETRIC_REPRESENTATION_CONTEXT(3)
GLOBAL_UNCERTAINTY_ASSIGNED_CONTEXT((#1387))
GLOBAL_UNIT_ASSIGNED_CONTEXT((#1391,#1393,#1394))
REPRESENTATION_CONTEXT('','3D')
);
#1390=(
GEOMETRIC_REPRESENTATION_CONTEXT(3)
GLOBAL_UNCERTAINTY_ASSIGNED_CONTEXT((#1388))
GLOBAL_UNIT_ASSIGNED_CONTEXT((#1391,#1393,#1394))
REPRESENTATION_CONTEXT('','3D')
);
#1391=(
LENGTH_UNIT()
NAMED_UNIT(*)
SI_UNIT(.MILLI.,.METRE.)
);
#1392=(
LENGTH_UNIT()
NAMED_UNIT(*)
SI_UNIT($,.METRE.)
);
#1393=(
NAMED_UNIT(*)
PLANE_ANGLE_UNIT()
SI_UNIT($,.RADIAN.)
);
#1394=(
NAMED_UNIT(*)
SI_UNIT($,.STERADIAN.)
SOLID_ANGLE_UNIT()
);
#1395=SHAPE_DEFINITION_REPRESENTATION(#1396,#1397);
#1396=PRODUCT_DEFINITION_SHAPE('',$,#1399);
#1397=SHAPE_REPRESENTATION('',(#887),#1389);
#1398=PRODUCT_DEFINITION_CONTEXT('part definition',#1403,'design');
#1399=PRODUCT_DEFINITION('Prallschutz_Teil_2','Prallschutz_Teil_2 v4',#1400,
#1398);
#1400=PRODUCT_DEFINITION_FORMATION('',$,#1405);
#1401=PRODUCT_RELATED_PRODUCT_CATEGORY('Prallschutz_Teil_2 v4',
'Prallschutz_Teil_2 v4',(#1405));
#1402=APPLICATION_PROTOCOL_DEFINITION('international standard',
'automotive_design',2009,#1403);
#1403=APPLICATION_CONTEXT(
'Core Data for Automotive Mechanical Design Process');
#1404=PRODUCT_CONTEXT('part definition',#1403,'mechanical');
#1405=PRODUCT('Prallschutz_Teil_2','Prallschutz_Teil_2 v4',$,(#1404));
#1406=PRESENTATION_STYLE_ASSIGNMENT((#1407));
#1407=SURFACE_STYLE_USAGE(.BOTH.,#1408);
#1408=SURFACE_SIDE_STYLE('',(#1409));
#1409=SURFACE_STYLE_FILL_AREA(#1410);
#1410=FILL_AREA_STYLE('Stahl - satiniert',(#1411));
#1411=FILL_AREA_STYLE_COLOUR('Stahl - satiniert',#1412);
#1412=COLOUR_RGB('Stahl - satiniert',0.627450980392157,0.627450980392157,
0.627450980392157);
ENDSEC;
END-ISO-10303-21;
