ISO-10303-21;
HEADER;
/* Generated by software containing ST-Developer
 * from STEP Tools, Inc. (www.steptools.com) 
 */

FILE_DESCRIPTION(
/* description */ (''),
/* implementation_level */ '2;1');

FILE_NAME(
/* name */ 'Schwungrad_Gegenhalter_Prallschutz.step',
/* time_stamp */ '2026-06-28T16:58:51+02:00',
/* author */ (''),
/* organization */ (''),
/* preprocessor_version */ 'ST-DEVELOPER v20.1',
/* originating_system */ 'Autodesk Translation Framework v15.8.0.0',
/* authorisation */ '');

FILE_SCHEMA (('AUTOMOTIVE_DESIGN { 1 0 10303 214 3 1 1 }'));
ENDSEC;

DATA;
#10=MECHANICAL_DESIGN_GEOMETRIC_PRESENTATION_REPRESENTATION('',(#13),#943);
#11=SHAPE_REPRESENTATION_RELATIONSHIP('SRR','None',#950,#12);
#12=ADVANCED_BREP_SHAPE_REPRESENTATION('',(#14),#942);
#13=STYLED_ITEM('',(#960),#14);
#14=MANIFOLD_SOLID_BREP('K\X\F6rper1',#563);
#15=FACE_BOUND('',#110,.T.);
#16=FACE_BOUND('',#111,.T.);
#17=FACE_BOUND('',#112,.T.);
#18=FACE_BOUND('',#113,.T.);
#19=FACE_BOUND('',#114,.T.);
#20=FACE_BOUND('',#115,.T.);
#21=FACE_BOUND('',#116,.T.);
#22=FACE_BOUND('',#117,.T.);
#23=FACE_BOUND('',#118,.T.);
#24=FACE_BOUND('',#119,.T.);
#25=FACE_BOUND('',#120,.T.);
#26=FACE_BOUND('',#121,.T.);
#27=FACE_BOUND('',#122,.T.);
#28=FACE_BOUND('',#123,.T.);
#29=FACE_BOUND('',#124,.T.);
#30=FACE_BOUND('',#125,.T.);
#31=FACE_BOUND('',#126,.T.);
#32=FACE_BOUND('',#128,.T.);
#33=FACE_BOUND('',#129,.T.);
#34=FACE_BOUND('',#130,.T.);
#35=FACE_BOUND('',#131,.T.);
#36=FACE_BOUND('',#132,.T.);
#37=FACE_BOUND('',#133,.T.);
#38=FACE_BOUND('',#134,.T.);
#39=FACE_BOUND('',#135,.T.);
#40=FACE_BOUND('',#136,.T.);
#41=FACE_BOUND('',#137,.T.);
#42=FACE_BOUND('',#138,.T.);
#43=FACE_BOUND('',#139,.T.);
#44=FACE_BOUND('',#140,.T.);
#45=FACE_BOUND('',#141,.T.);
#46=FACE_BOUND('',#142,.T.);
#47=FACE_BOUND('',#143,.T.);
#48=FACE_BOUND('',#144,.T.);
#49=PLANE('',#610);
#50=PLANE('',#611);
#51=PLANE('',#612);
#52=PLANE('',#613);
#53=PLANE('',#629);
#54=PLANE('',#630);
#55=PLANE('',#631);
#56=PLANE('',#632);
#57=PLANE('',#633);
#58=PLANE('',#634);
#59=FACE_OUTER_BOUND('',#85,.T.);
#60=FACE_OUTER_BOUND('',#86,.T.);
#61=FACE_OUTER_BOUND('',#87,.T.);
#62=FACE_OUTER_BOUND('',#88,.T.);
#63=FACE_OUTER_BOUND('',#89,.T.);
#64=FACE_OUTER_BOUND('',#90,.T.);
#65=FACE_OUTER_BOUND('',#91,.T.);
#66=FACE_OUTER_BOUND('',#92,.T.);
#67=FACE_OUTER_BOUND('',#93,.T.);
#68=FACE_OUTER_BOUND('',#94,.T.);
#69=FACE_OUTER_BOUND('',#95,.T.);
#70=FACE_OUTER_BOUND('',#96,.T.);
#71=FACE_OUTER_BOUND('',#97,.T.);
#72=FACE_OUTER_BOUND('',#98,.T.);
#73=FACE_OUTER_BOUND('',#99,.T.);
#74=FACE_OUTER_BOUND('',#100,.T.);
#75=FACE_OUTER_BOUND('',#101,.T.);
#76=FACE_OUTER_BOUND('',#102,.T.);
#77=FACE_OUTER_BOUND('',#103,.T.);
#78=FACE_OUTER_BOUND('',#104,.T.);
#79=FACE_OUTER_BOUND('',#105,.T.);
#80=FACE_OUTER_BOUND('',#106,.T.);
#81=FACE_OUTER_BOUND('',#107,.T.);
#82=FACE_OUTER_BOUND('',#108,.T.);
#83=FACE_OUTER_BOUND('',#109,.T.);
#84=FACE_OUTER_BOUND('',#127,.T.);
#85=EDGE_LOOP('',(#377,#378,#379,#380));
#86=EDGE_LOOP('',(#381,#382,#383,#384));
#87=EDGE_LOOP('',(#385,#386,#387,#388));
#88=EDGE_LOOP('',(#389,#390,#391,#392));
#89=EDGE_LOOP('',(#393,#394,#395,#396));
#90=EDGE_LOOP('',(#397,#398,#399,#400));
#91=EDGE_LOOP('',(#401,#402,#403,#404));
#92=EDGE_LOOP('',(#405,#406,#407,#408));
#93=EDGE_LOOP('',(#409,#410,#411,#412));
#94=EDGE_LOOP('',(#413,#414,#415,#416));
#95=EDGE_LOOP('',(#417,#418,#419,#420));
#96=EDGE_LOOP('',(#421,#422,#423,#424));
#97=EDGE_LOOP('',(#425,#426,#427,#428));
#98=EDGE_LOOP('',(#429,#430,#431,#432));
#99=EDGE_LOOP('',(#433,#434,#435,#436));
#100=EDGE_LOOP('',(#437,#438,#439,#440));
#101=EDGE_LOOP('',(#441,#442,#443,#444));
#102=EDGE_LOOP('',(#445,#446,#447,#448));
#103=EDGE_LOOP('',(#449,#450,#451,#452));
#104=EDGE_LOOP('',(#453,#454,#455,#456));
#105=EDGE_LOOP('',(#457,#458,#459,#460));
#106=EDGE_LOOP('',(#461,#462,#463,#464));
#107=EDGE_LOOP('',(#465,#466,#467,#468));
#108=EDGE_LOOP('',(#469,#470,#471,#472));
#109=EDGE_LOOP('',(#473,#474,#475,#476));
#110=EDGE_LOOP('',(#477));
#111=EDGE_LOOP('',(#478));
#112=EDGE_LOOP('',(#479));
#113=EDGE_LOOP('',(#480));
#114=EDGE_LOOP('',(#481));
#115=EDGE_LOOP('',(#482,#483,#484,#485));
#116=EDGE_LOOP('',(#486));
#117=EDGE_LOOP('',(#487));
#118=EDGE_LOOP('',(#488));
#119=EDGE_LOOP('',(#489));
#120=EDGE_LOOP('',(#490));
#121=EDGE_LOOP('',(#491));
#122=EDGE_LOOP('',(#492));
#123=EDGE_LOOP('',(#493));
#124=EDGE_LOOP('',(#494));
#125=EDGE_LOOP('',(#495));
#126=EDGE_LOOP('',(#496));
#127=EDGE_LOOP('',(#497,#498,#499,#500));
#128=EDGE_LOOP('',(#501));
#129=EDGE_LOOP('',(#502));
#130=EDGE_LOOP('',(#503));
#131=EDGE_LOOP('',(#504));
#132=EDGE_LOOP('',(#505));
#133=EDGE_LOOP('',(#506,#507,#508,#509));
#134=EDGE_LOOP('',(#510));
#135=EDGE_LOOP('',(#511));
#136=EDGE_LOOP('',(#512));
#137=EDGE_LOOP('',(#513));
#138=EDGE_LOOP('',(#514));
#139=EDGE_LOOP('',(#515));
#140=EDGE_LOOP('',(#516));
#141=EDGE_LOOP('',(#517));
#142=EDGE_LOOP('',(#518));
#143=EDGE_LOOP('',(#519));
#144=EDGE_LOOP('',(#520));
#145=LINE('',#798,#185);
#146=LINE('',#804,#186);
#147=LINE('',#810,#187);
#148=LINE('',#816,#188);
#149=LINE('',#822,#189);
#150=LINE('',#828,#190);
#151=LINE('',#834,#191);
#152=LINE('',#840,#192);
#153=LINE('',#846,#193);
#154=LINE('',#852,#194);
#155=LINE('',#858,#195);
#156=LINE('',#863,#196);
#157=LINE('',#865,#197);
#158=LINE('',#867,#198);
#159=LINE('',#868,#199);
#160=LINE('',#871,#200);
#161=LINE('',#873,#201);
#162=LINE('',#874,#202);
#163=LINE('',#877,#203);
#164=LINE('',#879,#204);
#165=LINE('',#880,#205);
#166=LINE('',#882,#206);
#167=LINE('',#883,#207);
#168=LINE('',#888,#208);
#169=LINE('',#894,#209);
#170=LINE('',#900,#210);
#171=LINE('',#906,#211);
#172=LINE('',#912,#212);
#173=LINE('',#917,#213);
#174=LINE('',#919,#214);
#175=LINE('',#921,#215);
#176=LINE('',#922,#216);
#177=LINE('',#925,#217);
#178=LINE('',#927,#218);
#179=LINE('',#928,#219);
#180=LINE('',#931,#220);
#181=LINE('',#933,#221);
#182=LINE('',#934,#222);
#183=LINE('',#936,#223);
#184=LINE('',#937,#224);
#185=VECTOR('',#641,2.);
#186=VECTOR('',#648,2.);
#187=VECTOR('',#655,2.);
#188=VECTOR('',#662,2.);
#189=VECTOR('',#669,2.);
#190=VECTOR('',#676,2.);
#191=VECTOR('',#683,2.);
#192=VECTOR('',#690,2.);
#193=VECTOR('',#697,2.);
#194=VECTOR('',#704,2.);
#195=VECTOR('',#711,2.);
#196=VECTOR('',#716,10.);
#197=VECTOR('',#717,10.);
#198=VECTOR('',#718,10.);
#199=VECTOR('',#719,10.);
#200=VECTOR('',#722,10.);
#201=VECTOR('',#723,10.);
#202=VECTOR('',#724,10.);
#203=VECTOR('',#727,10.);
#204=VECTOR('',#728,10.);
#205=VECTOR('',#729,10.);
#206=VECTOR('',#732,10.);
#207=VECTOR('',#733,10.);
#208=VECTOR('',#738,2.);
#209=VECTOR('',#745,2.);
#210=VECTOR('',#752,2.);
#211=VECTOR('',#759,2.);
#212=VECTOR('',#766,2.);
#213=VECTOR('',#771,10.);
#214=VECTOR('',#772,10.);
#215=VECTOR('',#773,10.);
#216=VECTOR('',#774,10.);
#217=VECTOR('',#777,10.);
#218=VECTOR('',#778,10.);
#219=VECTOR('',#779,10.);
#220=VECTOR('',#782,10.);
#221=VECTOR('',#783,10.);
#222=VECTOR('',#784,10.);
#223=VECTOR('',#787,10.);
#224=VECTOR('',#788,10.);
#225=CIRCLE('',#578,2.);
#226=CIRCLE('',#579,2.);
#227=CIRCLE('',#581,2.);
#228=CIRCLE('',#582,2.);
#229=CIRCLE('',#584,2.);
#230=CIRCLE('',#585,2.);
#231=CIRCLE('',#587,2.);
#232=CIRCLE('',#588,2.);
#233=CIRCLE('',#590,2.);
#234=CIRCLE('',#591,2.);
#235=CIRCLE('',#593,2.);
#236=CIRCLE('',#594,2.);
#237=CIRCLE('',#596,2.);
#238=CIRCLE('',#597,2.);
#239=CIRCLE('',#599,2.);
#240=CIRCLE('',#600,2.);
#241=CIRCLE('',#602,2.);
#242=CIRCLE('',#603,2.);
#243=CIRCLE('',#605,2.);
#244=CIRCLE('',#606,2.);
#245=CIRCLE('',#608,2.);
#246=CIRCLE('',#609,2.);
#247=CIRCLE('',#615,2.);
#248=CIRCLE('',#616,2.);
#249=CIRCLE('',#618,2.);
#250=CIRCLE('',#619,2.);
#251=CIRCLE('',#621,2.);
#252=CIRCLE('',#622,2.);
#253=CIRCLE('',#624,2.);
#254=CIRCLE('',#625,2.);
#255=CIRCLE('',#627,2.);
#256=CIRCLE('',#628,2.);
#257=VERTEX_POINT('',#795);
#258=VERTEX_POINT('',#797);
#259=VERTEX_POINT('',#801);
#260=VERTEX_POINT('',#803);
#261=VERTEX_POINT('',#807);
#262=VERTEX_POINT('',#809);
#263=VERTEX_POINT('',#813);
#264=VERTEX_POINT('',#815);
#265=VERTEX_POINT('',#819);
#266=VERTEX_POINT('',#821);
#267=VERTEX_POINT('',#825);
#268=VERTEX_POINT('',#827);
#269=VERTEX_POINT('',#831);
#270=VERTEX_POINT('',#833);
#271=VERTEX_POINT('',#837);
#272=VERTEX_POINT('',#839);
#273=VERTEX_POINT('',#843);
#274=VERTEX_POINT('',#845);
#275=VERTEX_POINT('',#849);
#276=VERTEX_POINT('',#851);
#277=VERTEX_POINT('',#855);
#278=VERTEX_POINT('',#857);
#279=VERTEX_POINT('',#861);
#280=VERTEX_POINT('',#862);
#281=VERTEX_POINT('',#864);
#282=VERTEX_POINT('',#866);
#283=VERTEX_POINT('',#870);
#284=VERTEX_POINT('',#872);
#285=VERTEX_POINT('',#876);
#286=VERTEX_POINT('',#878);
#287=VERTEX_POINT('',#885);
#288=VERTEX_POINT('',#887);
#289=VERTEX_POINT('',#891);
#290=VERTEX_POINT('',#893);
#291=VERTEX_POINT('',#897);
#292=VERTEX_POINT('',#899);
#293=VERTEX_POINT('',#903);
#294=VERTEX_POINT('',#905);
#295=VERTEX_POINT('',#909);
#296=VERTEX_POINT('',#911);
#297=VERTEX_POINT('',#915);
#298=VERTEX_POINT('',#916);
#299=VERTEX_POINT('',#918);
#300=VERTEX_POINT('',#920);
#301=VERTEX_POINT('',#924);
#302=VERTEX_POINT('',#926);
#303=VERTEX_POINT('',#930);
#304=VERTEX_POINT('',#932);
#305=EDGE_CURVE('',#257,#257,#225,.T.);
#306=EDGE_CURVE('',#257,#258,#145,.T.);
#307=EDGE_CURVE('',#258,#258,#226,.T.);
#308=EDGE_CURVE('',#259,#259,#227,.T.);
#309=EDGE_CURVE('',#259,#260,#146,.T.);
#310=EDGE_CURVE('',#260,#260,#228,.T.);
#311=EDGE_CURVE('',#261,#261,#229,.T.);
#312=EDGE_CURVE('',#261,#262,#147,.T.);
#313=EDGE_CURVE('',#262,#262,#230,.T.);
#314=EDGE_CURVE('',#263,#263,#231,.T.);
#315=EDGE_CURVE('',#263,#264,#148,.T.);
#316=EDGE_CURVE('',#264,#264,#232,.T.);
#317=EDGE_CURVE('',#265,#265,#233,.T.);
#318=EDGE_CURVE('',#265,#266,#149,.T.);
#319=EDGE_CURVE('',#266,#266,#234,.T.);
#320=EDGE_CURVE('',#267,#267,#235,.T.);
#321=EDGE_CURVE('',#267,#268,#150,.T.);
#322=EDGE_CURVE('',#268,#268,#236,.T.);
#323=EDGE_CURVE('',#269,#269,#237,.T.);
#324=EDGE_CURVE('',#269,#270,#151,.T.);
#325=EDGE_CURVE('',#270,#270,#238,.T.);
#326=EDGE_CURVE('',#271,#271,#239,.T.);
#327=EDGE_CURVE('',#271,#272,#152,.T.);
#328=EDGE_CURVE('',#272,#272,#240,.T.);
#329=EDGE_CURVE('',#273,#273,#241,.T.);
#330=EDGE_CURVE('',#273,#274,#153,.T.);
#331=EDGE_CURVE('',#274,#274,#242,.T.);
#332=EDGE_CURVE('',#275,#275,#243,.T.);
#333=EDGE_CURVE('',#275,#276,#154,.T.);
#334=EDGE_CURVE('',#276,#276,#244,.T.);
#335=EDGE_CURVE('',#277,#277,#245,.T.);
#336=EDGE_CURVE('',#277,#278,#155,.T.);
#337=EDGE_CURVE('',#278,#278,#246,.T.);
#338=EDGE_CURVE('',#279,#280,#156,.T.);
#339=EDGE_CURVE('',#280,#281,#157,.T.);
#340=EDGE_CURVE('',#282,#281,#158,.T.);
#341=EDGE_CURVE('',#279,#282,#159,.T.);
#342=EDGE_CURVE('',#283,#279,#160,.T.);
#343=EDGE_CURVE('',#284,#282,#161,.T.);
#344=EDGE_CURVE('',#283,#284,#162,.T.);
#345=EDGE_CURVE('',#285,#283,#163,.T.);
#346=EDGE_CURVE('',#286,#284,#164,.T.);
#347=EDGE_CURVE('',#285,#286,#165,.T.);
#348=EDGE_CURVE('',#280,#285,#166,.T.);
#349=EDGE_CURVE('',#281,#286,#167,.T.);
#350=EDGE_CURVE('',#287,#287,#247,.T.);
#351=EDGE_CURVE('',#287,#288,#168,.T.);
#352=EDGE_CURVE('',#288,#288,#248,.T.);
#353=EDGE_CURVE('',#289,#289,#249,.T.);
#354=EDGE_CURVE('',#289,#290,#169,.T.);
#355=EDGE_CURVE('',#290,#290,#250,.T.);
#356=EDGE_CURVE('',#291,#291,#251,.T.);
#357=EDGE_CURVE('',#291,#292,#170,.T.);
#358=EDGE_CURVE('',#292,#292,#252,.T.);
#359=EDGE_CURVE('',#293,#293,#253,.T.);
#360=EDGE_CURVE('',#293,#294,#171,.T.);
#361=EDGE_CURVE('',#294,#294,#254,.T.);
#362=EDGE_CURVE('',#295,#295,#255,.T.);
#363=EDGE_CURVE('',#295,#296,#172,.T.);
#364=EDGE_CURVE('',#296,#296,#256,.T.);
#365=EDGE_CURVE('',#297,#298,#173,.T.);
#366=EDGE_CURVE('',#298,#299,#174,.T.);
#367=EDGE_CURVE('',#300,#299,#175,.T.);
#368=EDGE_CURVE('',#297,#300,#176,.T.);
#369=EDGE_CURVE('',#301,#297,#177,.T.);
#370=EDGE_CURVE('',#302,#300,#178,.T.);
#371=EDGE_CURVE('',#301,#302,#179,.T.);
#372=EDGE_CURVE('',#303,#301,#180,.T.);
#373=EDGE_CURVE('',#304,#302,#181,.T.);
#374=EDGE_CURVE('',#303,#304,#182,.T.);
#375=EDGE_CURVE('',#298,#303,#183,.T.);
#376=EDGE_CURVE('',#299,#304,#184,.T.);
#377=ORIENTED_EDGE('',*,*,#305,.F.);
#378=ORIENTED_EDGE('',*,*,#306,.T.);
#379=ORIENTED_EDGE('',*,*,#307,.T.);
#380=ORIENTED_EDGE('',*,*,#306,.F.);
#381=ORIENTED_EDGE('',*,*,#308,.F.);
#382=ORIENTED_EDGE('',*,*,#309,.T.);
#383=ORIENTED_EDGE('',*,*,#310,.T.);
#384=ORIENTED_EDGE('',*,*,#309,.F.);
#385=ORIENTED_EDGE('',*,*,#311,.F.);
#386=ORIENTED_EDGE('',*,*,#312,.T.);
#387=ORIENTED_EDGE('',*,*,#313,.T.);
#388=ORIENTED_EDGE('',*,*,#312,.F.);
#389=ORIENTED_EDGE('',*,*,#314,.F.);
#390=ORIENTED_EDGE('',*,*,#315,.T.);
#391=ORIENTED_EDGE('',*,*,#316,.T.);
#392=ORIENTED_EDGE('',*,*,#315,.F.);
#393=ORIENTED_EDGE('',*,*,#317,.F.);
#394=ORIENTED_EDGE('',*,*,#318,.T.);
#395=ORIENTED_EDGE('',*,*,#319,.T.);
#396=ORIENTED_EDGE('',*,*,#318,.F.);
#397=ORIENTED_EDGE('',*,*,#320,.F.);
#398=ORIENTED_EDGE('',*,*,#321,.T.);
#399=ORIENTED_EDGE('',*,*,#322,.T.);
#400=ORIENTED_EDGE('',*,*,#321,.F.);
#401=ORIENTED_EDGE('',*,*,#323,.F.);
#402=ORIENTED_EDGE('',*,*,#324,.T.);
#403=ORIENTED_EDGE('',*,*,#325,.T.);
#404=ORIENTED_EDGE('',*,*,#324,.F.);
#405=ORIENTED_EDGE('',*,*,#326,.F.);
#406=ORIENTED_EDGE('',*,*,#327,.T.);
#407=ORIENTED_EDGE('',*,*,#328,.T.);
#408=ORIENTED_EDGE('',*,*,#327,.F.);
#409=ORIENTED_EDGE('',*,*,#329,.F.);
#410=ORIENTED_EDGE('',*,*,#330,.T.);
#411=ORIENTED_EDGE('',*,*,#331,.T.);
#412=ORIENTED_EDGE('',*,*,#330,.F.);
#413=ORIENTED_EDGE('',*,*,#332,.F.);
#414=ORIENTED_EDGE('',*,*,#333,.T.);
#415=ORIENTED_EDGE('',*,*,#334,.T.);
#416=ORIENTED_EDGE('',*,*,#333,.F.);
#417=ORIENTED_EDGE('',*,*,#335,.F.);
#418=ORIENTED_EDGE('',*,*,#336,.T.);
#419=ORIENTED_EDGE('',*,*,#337,.T.);
#420=ORIENTED_EDGE('',*,*,#336,.F.);
#421=ORIENTED_EDGE('',*,*,#338,.T.);
#422=ORIENTED_EDGE('',*,*,#339,.T.);
#423=ORIENTED_EDGE('',*,*,#340,.F.);
#424=ORIENTED_EDGE('',*,*,#341,.F.);
#425=ORIENTED_EDGE('',*,*,#342,.T.);
#426=ORIENTED_EDGE('',*,*,#341,.T.);
#427=ORIENTED_EDGE('',*,*,#343,.F.);
#428=ORIENTED_EDGE('',*,*,#344,.F.);
#429=ORIENTED_EDGE('',*,*,#345,.T.);
#430=ORIENTED_EDGE('',*,*,#344,.T.);
#431=ORIENTED_EDGE('',*,*,#346,.F.);
#432=ORIENTED_EDGE('',*,*,#347,.F.);
#433=ORIENTED_EDGE('',*,*,#348,.T.);
#434=ORIENTED_EDGE('',*,*,#347,.T.);
#435=ORIENTED_EDGE('',*,*,#349,.F.);
#436=ORIENTED_EDGE('',*,*,#339,.F.);
#437=ORIENTED_EDGE('',*,*,#350,.F.);
#438=ORIENTED_EDGE('',*,*,#351,.T.);
#439=ORIENTED_EDGE('',*,*,#352,.T.);
#440=ORIENTED_EDGE('',*,*,#351,.F.);
#441=ORIENTED_EDGE('',*,*,#353,.F.);
#442=ORIENTED_EDGE('',*,*,#354,.T.);
#443=ORIENTED_EDGE('',*,*,#355,.T.);
#444=ORIENTED_EDGE('',*,*,#354,.F.);
#445=ORIENTED_EDGE('',*,*,#356,.F.);
#446=ORIENTED_EDGE('',*,*,#357,.T.);
#447=ORIENTED_EDGE('',*,*,#358,.T.);
#448=ORIENTED_EDGE('',*,*,#357,.F.);
#449=ORIENTED_EDGE('',*,*,#359,.F.);
#450=ORIENTED_EDGE('',*,*,#360,.T.);
#451=ORIENTED_EDGE('',*,*,#361,.T.);
#452=ORIENTED_EDGE('',*,*,#360,.F.);
#453=ORIENTED_EDGE('',*,*,#362,.F.);
#454=ORIENTED_EDGE('',*,*,#363,.T.);
#455=ORIENTED_EDGE('',*,*,#364,.T.);
#456=ORIENTED_EDGE('',*,*,#363,.F.);
#457=ORIENTED_EDGE('',*,*,#365,.T.);
#458=ORIENTED_EDGE('',*,*,#366,.T.);
#459=ORIENTED_EDGE('',*,*,#367,.F.);
#460=ORIENTED_EDGE('',*,*,#368,.F.);
#461=ORIENTED_EDGE('',*,*,#369,.T.);
#462=ORIENTED_EDGE('',*,*,#368,.T.);
#463=ORIENTED_EDGE('',*,*,#370,.F.);
#464=ORIENTED_EDGE('',*,*,#371,.F.);
#465=ORIENTED_EDGE('',*,*,#372,.T.);
#466=ORIENTED_EDGE('',*,*,#371,.T.);
#467=ORIENTED_EDGE('',*,*,#373,.F.);
#468=ORIENTED_EDGE('',*,*,#374,.F.);
#469=ORIENTED_EDGE('',*,*,#375,.T.);
#470=ORIENTED_EDGE('',*,*,#374,.T.);
#471=ORIENTED_EDGE('',*,*,#376,.F.);
#472=ORIENTED_EDGE('',*,*,#366,.F.);
#473=ORIENTED_EDGE('',*,*,#376,.T.);
#474=ORIENTED_EDGE('',*,*,#373,.T.);
#475=ORIENTED_EDGE('',*,*,#370,.T.);
#476=ORIENTED_EDGE('',*,*,#367,.T.);
#477=ORIENTED_EDGE('',*,*,#362,.T.);
#478=ORIENTED_EDGE('',*,*,#359,.T.);
#479=ORIENTED_EDGE('',*,*,#356,.T.);
#480=ORIENTED_EDGE('',*,*,#353,.T.);
#481=ORIENTED_EDGE('',*,*,#350,.T.);
#482=ORIENTED_EDGE('',*,*,#349,.T.);
#483=ORIENTED_EDGE('',*,*,#346,.T.);
#484=ORIENTED_EDGE('',*,*,#343,.T.);
#485=ORIENTED_EDGE('',*,*,#340,.T.);
#486=ORIENTED_EDGE('',*,*,#335,.T.);
#487=ORIENTED_EDGE('',*,*,#332,.T.);
#488=ORIENTED_EDGE('',*,*,#329,.T.);
#489=ORIENTED_EDGE('',*,*,#326,.T.);
#490=ORIENTED_EDGE('',*,*,#323,.T.);
#491=ORIENTED_EDGE('',*,*,#320,.T.);
#492=ORIENTED_EDGE('',*,*,#317,.T.);
#493=ORIENTED_EDGE('',*,*,#314,.T.);
#494=ORIENTED_EDGE('',*,*,#311,.T.);
#495=ORIENTED_EDGE('',*,*,#308,.T.);
#496=ORIENTED_EDGE('',*,*,#305,.T.);
#497=ORIENTED_EDGE('',*,*,#375,.F.);
#498=ORIENTED_EDGE('',*,*,#365,.F.);
#499=ORIENTED_EDGE('',*,*,#369,.F.);
#500=ORIENTED_EDGE('',*,*,#372,.F.);
#501=ORIENTED_EDGE('',*,*,#364,.F.);
#502=ORIENTED_EDGE('',*,*,#361,.F.);
#503=ORIENTED_EDGE('',*,*,#358,.F.);
#504=ORIENTED_EDGE('',*,*,#355,.F.);
#505=ORIENTED_EDGE('',*,*,#352,.F.);
#506=ORIENTED_EDGE('',*,*,#348,.F.);
#507=ORIENTED_EDGE('',*,*,#338,.F.);
#508=ORIENTED_EDGE('',*,*,#342,.F.);
#509=ORIENTED_EDGE('',*,*,#345,.F.);
#510=ORIENTED_EDGE('',*,*,#337,.F.);
#511=ORIENTED_EDGE('',*,*,#334,.F.);
#512=ORIENTED_EDGE('',*,*,#331,.F.);
#513=ORIENTED_EDGE('',*,*,#328,.F.);
#514=ORIENTED_EDGE('',*,*,#325,.F.);
#515=ORIENTED_EDGE('',*,*,#322,.F.);
#516=ORIENTED_EDGE('',*,*,#319,.F.);
#517=ORIENTED_EDGE('',*,*,#316,.F.);
#518=ORIENTED_EDGE('',*,*,#313,.F.);
#519=ORIENTED_EDGE('',*,*,#310,.F.);
#520=ORIENTED_EDGE('',*,*,#307,.F.);
#521=CYLINDRICAL_SURFACE('',#577,2.);
#522=CYLINDRICAL_SURFACE('',#580,2.);
#523=CYLINDRICAL_SURFACE('',#583,2.);
#524=CYLINDRICAL_SURFACE('',#586,2.);
#525=CYLINDRICAL_SURFACE('',#589,2.);
#526=CYLINDRICAL_SURFACE('',#592,2.);
#527=CYLINDRICAL_SURFACE('',#595,2.);
#528=CYLINDRICAL_SURFACE('',#598,2.);
#529=CYLINDRICAL_SURFACE('',#601,2.);
#530=CYLINDRICAL_SURFACE('',#604,2.);
#531=CYLINDRICAL_SURFACE('',#607,2.);
#532=CYLINDRICAL_SURFACE('',#614,2.);
#533=CYLINDRICAL_SURFACE('',#617,2.);
#534=CYLINDRICAL_SURFACE('',#620,2.);
#535=CYLINDRICAL_SURFACE('',#623,2.);
#536=CYLINDRICAL_SURFACE('',#626,2.);
#537=ADVANCED_FACE('',(#59),#521,.F.);
#538=ADVANCED_FACE('',(#60),#522,.F.);
#539=ADVANCED_FACE('',(#61),#523,.F.);
#540=ADVANCED_FACE('',(#62),#524,.F.);
#541=ADVANCED_FACE('',(#63),#525,.F.);
#542=ADVANCED_FACE('',(#64),#526,.F.);
#543=ADVANCED_FACE('',(#65),#527,.F.);
#544=ADVANCED_FACE('',(#66),#528,.F.);
#545=ADVANCED_FACE('',(#67),#529,.F.);
#546=ADVANCED_FACE('',(#68),#530,.F.);
#547=ADVANCED_FACE('',(#69),#531,.F.);
#548=ADVANCED_FACE('',(#70),#49,.T.);
#549=ADVANCED_FACE('',(#71),#50,.T.);
#550=ADVANCED_FACE('',(#72),#51,.T.);
#551=ADVANCED_FACE('',(#73),#52,.T.);
#552=ADVANCED_FACE('',(#74),#532,.F.);
#553=ADVANCED_FACE('',(#75),#533,.F.);
#554=ADVANCED_FACE('',(#76),#534,.F.);
#555=ADVANCED_FACE('',(#77),#535,.F.);
#556=ADVANCED_FACE('',(#78),#536,.F.);
#557=ADVANCED_FACE('',(#79),#53,.T.);
#558=ADVANCED_FACE('',(#80),#54,.T.);
#559=ADVANCED_FACE('',(#81),#55,.T.);
#560=ADVANCED_FACE('',(#82),#56,.T.);
#561=ADVANCED_FACE('',(#83,#15,#16,#17,#18,#19,#20,#21,#22,#23,#24,#25,
#26,#27,#28,#29,#30,#31),#57,.T.);
#562=ADVANCED_FACE('',(#84,#32,#33,#34,#35,#36,#37,#38,#39,#40,#41,#42,
#43,#44,#45,#46,#47,#48),#58,.F.);
#563=CLOSED_SHELL('',(#537,#538,#539,#540,#541,#542,#543,#544,#545,#546,
#547,#548,#549,#550,#551,#552,#553,#554,#555,#556,#557,#558,#559,#560,#561,
#562));
#564=DERIVED_UNIT_ELEMENT(#566,1.);
#565=DERIVED_UNIT_ELEMENT(#945,-3.);
#566=(
MASS_UNIT()
NAMED_UNIT(*)
SI_UNIT(.KILO.,.GRAM.)
);
#567=DERIVED_UNIT((#564,#565));
#568=MEASURE_REPRESENTATION_ITEM('density measure',
POSITIVE_RATIO_MEASURE(7850.),#567);
#569=PROPERTY_DEFINITION_REPRESENTATION(#574,#571);
#570=PROPERTY_DEFINITION_REPRESENTATION(#575,#572);
#571=REPRESENTATION('material name',(#573),#942);
#572=REPRESENTATION('density',(#568),#942);
#573=DESCRIPTIVE_REPRESENTATION_ITEM('Stahl','Stahl');
#574=PROPERTY_DEFINITION('material property','material name',#952);
#575=PROPERTY_DEFINITION('material property','density of part',#952);
#576=AXIS2_PLACEMENT_3D('',#793,#635,#636);
#577=AXIS2_PLACEMENT_3D('',#794,#637,#638);
#578=AXIS2_PLACEMENT_3D('',#796,#639,#640);
#579=AXIS2_PLACEMENT_3D('',#799,#642,#643);
#580=AXIS2_PLACEMENT_3D('',#800,#644,#645);
#581=AXIS2_PLACEMENT_3D('',#802,#646,#647);
#582=AXIS2_PLACEMENT_3D('',#805,#649,#650);
#583=AXIS2_PLACEMENT_3D('',#806,#651,#652);
#584=AXIS2_PLACEMENT_3D('',#808,#653,#654);
#585=AXIS2_PLACEMENT_3D('',#811,#656,#657);
#586=AXIS2_PLACEMENT_3D('',#812,#658,#659);
#587=AXIS2_PLACEMENT_3D('',#814,#660,#661);
#588=AXIS2_PLACEMENT_3D('',#817,#663,#664);
#589=AXIS2_PLACEMENT_3D('',#818,#665,#666);
#590=AXIS2_PLACEMENT_3D('',#820,#667,#668);
#591=AXIS2_PLACEMENT_3D('',#823,#670,#671);
#592=AXIS2_PLACEMENT_3D('',#824,#672,#673);
#593=AXIS2_PLACEMENT_3D('',#826,#674,#675);
#594=AXIS2_PLACEMENT_3D('',#829,#677,#678);
#595=AXIS2_PLACEMENT_3D('',#830,#679,#680);
#596=AXIS2_PLACEMENT_3D('',#832,#681,#682);
#597=AXIS2_PLACEMENT_3D('',#835,#684,#685);
#598=AXIS2_PLACEMENT_3D('',#836,#686,#687);
#599=AXIS2_PLACEMENT_3D('',#838,#688,#689);
#600=AXIS2_PLACEMENT_3D('',#841,#691,#692);
#601=AXIS2_PLACEMENT_3D('',#842,#693,#694);
#602=AXIS2_PLACEMENT_3D('',#844,#695,#696);
#603=AXIS2_PLACEMENT_3D('',#847,#698,#699);
#604=AXIS2_PLACEMENT_3D('',#848,#700,#701);
#605=AXIS2_PLACEMENT_3D('',#850,#702,#703);
#606=AXIS2_PLACEMENT_3D('',#853,#705,#706);
#607=AXIS2_PLACEMENT_3D('',#854,#707,#708);
#608=AXIS2_PLACEMENT_3D('',#856,#709,#710);
#609=AXIS2_PLACEMENT_3D('',#859,#712,#713);
#610=AXIS2_PLACEMENT_3D('',#860,#714,#715);
#611=AXIS2_PLACEMENT_3D('',#869,#720,#721);
#612=AXIS2_PLACEMENT_3D('',#875,#725,#726);
#613=AXIS2_PLACEMENT_3D('',#881,#730,#731);
#614=AXIS2_PLACEMENT_3D('',#884,#734,#735);
#615=AXIS2_PLACEMENT_3D('',#886,#736,#737);
#616=AXIS2_PLACEMENT_3D('',#889,#739,#740);
#617=AXIS2_PLACEMENT_3D('',#890,#741,#742);
#618=AXIS2_PLACEMENT_3D('',#892,#743,#744);
#619=AXIS2_PLACEMENT_3D('',#895,#746,#747);
#620=AXIS2_PLACEMENT_3D('',#896,#748,#749);
#621=AXIS2_PLACEMENT_3D('',#898,#750,#751);
#622=AXIS2_PLACEMENT_3D('',#901,#753,#754);
#623=AXIS2_PLACEMENT_3D('',#902,#755,#756);
#624=AXIS2_PLACEMENT_3D('',#904,#757,#758);
#625=AXIS2_PLACEMENT_3D('',#907,#760,#761);
#626=AXIS2_PLACEMENT_3D('',#908,#762,#763);
#627=AXIS2_PLACEMENT_3D('',#910,#764,#765);
#628=AXIS2_PLACEMENT_3D('',#913,#767,#768);
#629=AXIS2_PLACEMENT_3D('',#914,#769,#770);
#630=AXIS2_PLACEMENT_3D('',#923,#775,#776);
#631=AXIS2_PLACEMENT_3D('',#929,#780,#781);
#632=AXIS2_PLACEMENT_3D('',#935,#785,#786);
#633=AXIS2_PLACEMENT_3D('',#938,#789,#790);
#634=AXIS2_PLACEMENT_3D('',#939,#791,#792);
#635=DIRECTION('axis',(0.,0.,1.));
#636=DIRECTION('refdir',(1.,0.,0.));
#637=DIRECTION('center_axis',(0.,0.,1.));
#638=DIRECTION('ref_axis',(1.,0.,0.));
#639=DIRECTION('center_axis',(0.,0.,-1.));
#640=DIRECTION('ref_axis',(1.,0.,0.));
#641=DIRECTION('',(0.,0.,-1.));
#642=DIRECTION('center_axis',(0.,0.,-1.));
#643=DIRECTION('ref_axis',(1.,0.,0.));
#644=DIRECTION('center_axis',(0.,0.,1.));
#645=DIRECTION('ref_axis',(1.,0.,0.));
#646=DIRECTION('center_axis',(0.,0.,-1.));
#647=DIRECTION('ref_axis',(1.,0.,0.));
#648=DIRECTION('',(0.,0.,-1.));
#649=DIRECTION('center_axis',(0.,0.,-1.));
#650=DIRECTION('ref_axis',(1.,0.,0.));
#651=DIRECTION('center_axis',(0.,0.,1.));
#652=DIRECTION('ref_axis',(1.,0.,0.));
#653=DIRECTION('center_axis',(0.,0.,-1.));
#654=DIRECTION('ref_axis',(1.,0.,0.));
#655=DIRECTION('',(0.,0.,-1.));
#656=DIRECTION('center_axis',(0.,0.,-1.));
#657=DIRECTION('ref_axis',(1.,0.,0.));
#658=DIRECTION('center_axis',(0.,0.,1.));
#659=DIRECTION('ref_axis',(1.,0.,0.));
#660=DIRECTION('center_axis',(0.,0.,-1.));
#661=DIRECTION('ref_axis',(1.,0.,0.));
#662=DIRECTION('',(0.,0.,-1.));
#663=DIRECTION('center_axis',(0.,0.,-1.));
#664=DIRECTION('ref_axis',(1.,0.,0.));
#665=DIRECTION('center_axis',(0.,0.,1.));
#666=DIRECTION('ref_axis',(1.,0.,0.));
#667=DIRECTION('center_axis',(0.,0.,-1.));
#668=DIRECTION('ref_axis',(1.,0.,0.));
#669=DIRECTION('',(0.,0.,-1.));
#670=DIRECTION('center_axis',(0.,0.,-1.));
#671=DIRECTION('ref_axis',(1.,0.,0.));
#672=DIRECTION('center_axis',(0.,0.,1.));
#673=DIRECTION('ref_axis',(1.,0.,0.));
#674=DIRECTION('center_axis',(0.,0.,-1.));
#675=DIRECTION('ref_axis',(1.,0.,0.));
#676=DIRECTION('',(0.,0.,-1.));
#677=DIRECTION('center_axis',(0.,0.,-1.));
#678=DIRECTION('ref_axis',(1.,0.,0.));
#679=DIRECTION('center_axis',(0.,0.,1.));
#680=DIRECTION('ref_axis',(1.,0.,0.));
#681=DIRECTION('center_axis',(0.,0.,-1.));
#682=DIRECTION('ref_axis',(1.,0.,0.));
#683=DIRECTION('',(0.,0.,-1.));
#684=DIRECTION('center_axis',(0.,0.,-1.));
#685=DIRECTION('ref_axis',(1.,0.,0.));
#686=DIRECTION('center_axis',(0.,0.,1.));
#687=DIRECTION('ref_axis',(1.,0.,0.));
#688=DIRECTION('center_axis',(0.,0.,-1.));
#689=DIRECTION('ref_axis',(1.,0.,0.));
#690=DIRECTION('',(0.,0.,-1.));
#691=DIRECTION('center_axis',(0.,0.,-1.));
#692=DIRECTION('ref_axis',(1.,0.,0.));
#693=DIRECTION('center_axis',(0.,0.,1.));
#694=DIRECTION('ref_axis',(1.,0.,0.));
#695=DIRECTION('center_axis',(0.,0.,-1.));
#696=DIRECTION('ref_axis',(1.,0.,0.));
#697=DIRECTION('',(0.,0.,-1.));
#698=DIRECTION('center_axis',(0.,0.,-1.));
#699=DIRECTION('ref_axis',(1.,0.,0.));
#700=DIRECTION('center_axis',(0.,0.,1.));
#701=DIRECTION('ref_axis',(1.,0.,0.));
#702=DIRECTION('center_axis',(0.,0.,-1.));
#703=DIRECTION('ref_axis',(1.,0.,0.));
#704=DIRECTION('',(0.,0.,-1.));
#705=DIRECTION('center_axis',(0.,0.,-1.));
#706=DIRECTION('ref_axis',(1.,0.,0.));
#707=DIRECTION('center_axis',(0.,0.,1.));
#708=DIRECTION('ref_axis',(1.,0.,0.));
#709=DIRECTION('center_axis',(0.,0.,-1.));
#710=DIRECTION('ref_axis',(1.,0.,0.));
#711=DIRECTION('',(0.,0.,-1.));
#712=DIRECTION('center_axis',(0.,0.,-1.));
#713=DIRECTION('ref_axis',(1.,0.,0.));
#714=DIRECTION('center_axis',(1.,2.37904933848248E-16,0.));
#715=DIRECTION('ref_axis',(-2.37904933848248E-16,1.,0.));
#716=DIRECTION('',(-2.37904933848248E-16,1.,0.));
#717=DIRECTION('',(0.,0.,1.));
#718=DIRECTION('',(-2.37904933848248E-16,1.,0.));
#719=DIRECTION('',(0.,0.,1.));
#720=DIRECTION('center_axis',(-7.93016446160826E-17,1.,0.));
#721=DIRECTION('ref_axis',(-1.,-7.93016446160826E-17,0.));
#722=DIRECTION('',(-1.,-7.93016446160826E-17,0.));
#723=DIRECTION('',(-1.,-7.93016446160826E-17,0.));
#724=DIRECTION('',(0.,0.,1.));
#725=DIRECTION('center_axis',(-1.,0.,0.));
#726=DIRECTION('ref_axis',(0.,-1.,0.));
#727=DIRECTION('',(0.,-1.,0.));
#728=DIRECTION('',(0.,-1.,0.));
#729=DIRECTION('',(0.,0.,1.));
#730=DIRECTION('center_axis',(0.,-1.,0.));
#731=DIRECTION('ref_axis',(1.,0.,0.));
#732=DIRECTION('',(1.,0.,0.));
#733=DIRECTION('',(1.,0.,0.));
#734=DIRECTION('center_axis',(0.,0.,1.));
#735=DIRECTION('ref_axis',(1.,0.,0.));
#736=DIRECTION('center_axis',(0.,0.,-1.));
#737=DIRECTION('ref_axis',(1.,0.,0.));
#738=DIRECTION('',(0.,0.,-1.));
#739=DIRECTION('center_axis',(0.,0.,-1.));
#740=DIRECTION('ref_axis',(1.,0.,0.));
#741=DIRECTION('center_axis',(0.,0.,1.));
#742=DIRECTION('ref_axis',(1.,0.,0.));
#743=DIRECTION('center_axis',(0.,0.,-1.));
#744=DIRECTION('ref_axis',(1.,0.,0.));
#745=DIRECTION('',(0.,0.,-1.));
#746=DIRECTION('center_axis',(0.,0.,-1.));
#747=DIRECTION('ref_axis',(1.,0.,0.));
#748=DIRECTION('center_axis',(0.,0.,1.));
#749=DIRECTION('ref_axis',(1.,0.,0.));
#750=DIRECTION('center_axis',(0.,0.,-1.));
#751=DIRECTION('ref_axis',(1.,0.,0.));
#752=DIRECTION('',(0.,0.,-1.));
#753=DIRECTION('center_axis',(0.,0.,-1.));
#754=DIRECTION('ref_axis',(1.,0.,0.));
#755=DIRECTION('center_axis',(0.,0.,1.));
#756=DIRECTION('ref_axis',(1.,0.,0.));
#757=DIRECTION('center_axis',(0.,0.,-1.));
#758=DIRECTION('ref_axis',(1.,0.,0.));
#759=DIRECTION('',(0.,0.,-1.));
#760=DIRECTION('center_axis',(0.,0.,-1.));
#761=DIRECTION('ref_axis',(1.,0.,0.));
#762=DIRECTION('center_axis',(0.,0.,1.));
#763=DIRECTION('ref_axis',(1.,0.,0.));
#764=DIRECTION('center_axis',(0.,0.,-1.));
#765=DIRECTION('ref_axis',(1.,0.,0.));
#766=DIRECTION('',(0.,0.,-1.));
#767=DIRECTION('center_axis',(0.,0.,-1.));
#768=DIRECTION('ref_axis',(1.,0.,0.));
#769=DIRECTION('center_axis',(0.,-1.,0.));
#770=DIRECTION('ref_axis',(1.,0.,0.));
#771=DIRECTION('',(1.,0.,0.));
#772=DIRECTION('',(0.,0.,1.));
#773=DIRECTION('',(1.,0.,0.));
#774=DIRECTION('',(0.,0.,1.));
#775=DIRECTION('center_axis',(-1.,3.50596744618471E-16,0.));
#776=DIRECTION('ref_axis',(-3.50596744618471E-16,-1.,0.));
#777=DIRECTION('',(-3.50596744618471E-16,-1.,0.));
#778=DIRECTION('',(-3.50596744618471E-16,-1.,0.));
#779=DIRECTION('',(0.,0.,1.));
#780=DIRECTION('center_axis',(-1.1686558153949E-16,1.,0.));
#781=DIRECTION('ref_axis',(-1.,-1.1686558153949E-16,0.));
#782=DIRECTION('',(-1.,-1.1686558153949E-16,0.));
#783=DIRECTION('',(-1.,-1.1686558153949E-16,0.));
#784=DIRECTION('',(0.,0.,1.));
#785=DIRECTION('center_axis',(1.,-1.75298372309235E-16,0.));
#786=DIRECTION('ref_axis',(1.75298372309235E-16,1.,0.));
#787=DIRECTION('',(1.75298372309235E-16,1.,0.));
#788=DIRECTION('',(1.75298372309235E-16,1.,0.));
#789=DIRECTION('center_axis',(0.,0.,1.));
#790=DIRECTION('ref_axis',(1.,0.,0.));
#791=DIRECTION('center_axis',(0.,0.,1.));
#792=DIRECTION('ref_axis',(1.,0.,0.));
#793=CARTESIAN_POINT('',(0.,0.,0.));
#794=CARTESIAN_POINT('Origin',(65.9,22.5,0.));
#795=CARTESIAN_POINT('',(63.9,22.5,5.));
#796=CARTESIAN_POINT('Origin',(65.9,22.5,5.));
#797=CARTESIAN_POINT('',(63.9,22.5,0.));
#798=CARTESIAN_POINT('',(63.9,22.5,0.));
#799=CARTESIAN_POINT('Origin',(65.9,22.5,0.));
#800=CARTESIAN_POINT('Origin',(65.9,-37.5,0.));
#801=CARTESIAN_POINT('',(63.9,-37.5,5.));
#802=CARTESIAN_POINT('Origin',(65.9,-37.5,5.));
#803=CARTESIAN_POINT('',(63.9,-37.5,0.));
#804=CARTESIAN_POINT('',(63.9,-37.5,0.));
#805=CARTESIAN_POINT('Origin',(65.9,-37.5,0.));
#806=CARTESIAN_POINT('Origin',(-37.5,-65.8999999999999,0.));
#807=CARTESIAN_POINT('',(-39.5,-65.8999999999999,5.));
#808=CARTESIAN_POINT('Origin',(-37.5,-65.8999999999999,5.));
#809=CARTESIAN_POINT('',(-39.5,-65.8999999999999,0.));
#810=CARTESIAN_POINT('',(-39.5,-65.8999999999999,0.));
#811=CARTESIAN_POINT('Origin',(-37.5,-65.8999999999999,0.));
#812=CARTESIAN_POINT('Origin',(37.5,65.9,0.));
#813=CARTESIAN_POINT('',(35.5,65.9,5.));
#814=CARTESIAN_POINT('Origin',(37.5,65.9,5.));
#815=CARTESIAN_POINT('',(35.5,65.9,0.));
#816=CARTESIAN_POINT('',(35.5,65.9,0.));
#817=CARTESIAN_POINT('Origin',(37.5,65.9,0.));
#818=CARTESIAN_POINT('Origin',(22.5,65.9,0.));
#819=CARTESIAN_POINT('',(20.5,65.9,5.));
#820=CARTESIAN_POINT('Origin',(22.5,65.9,5.));
#821=CARTESIAN_POINT('',(20.5,65.9,0.));
#822=CARTESIAN_POINT('',(20.5,65.9,0.));
#823=CARTESIAN_POINT('Origin',(22.5,65.9,0.));
#824=CARTESIAN_POINT('Origin',(-37.5,65.9,0.));
#825=CARTESIAN_POINT('',(-39.5,65.9,5.));
#826=CARTESIAN_POINT('Origin',(-37.5,65.9,5.));
#827=CARTESIAN_POINT('',(-39.5,65.9,0.));
#828=CARTESIAN_POINT('',(-39.5,65.9,0.));
#829=CARTESIAN_POINT('Origin',(-37.5,65.9,0.));
#830=CARTESIAN_POINT('Origin',(37.5,-65.9,0.));
#831=CARTESIAN_POINT('',(35.5,-65.9,5.));
#832=CARTESIAN_POINT('Origin',(37.5,-65.9,5.));
#833=CARTESIAN_POINT('',(35.5,-65.9,0.));
#834=CARTESIAN_POINT('',(35.5,-65.9,0.));
#835=CARTESIAN_POINT('Origin',(37.5,-65.9,0.));
#836=CARTESIAN_POINT('Origin',(-22.5,-65.9,0.));
#837=CARTESIAN_POINT('',(-24.5,-65.9,5.));
#838=CARTESIAN_POINT('Origin',(-22.5,-65.9,5.));
#839=CARTESIAN_POINT('',(-24.5,-65.9,0.));
#840=CARTESIAN_POINT('',(-24.5,-65.9,0.));
#841=CARTESIAN_POINT('Origin',(-22.5,-65.9,0.));
#842=CARTESIAN_POINT('Origin',(22.5,-65.9,0.));
#843=CARTESIAN_POINT('',(20.5,-65.9,5.));
#844=CARTESIAN_POINT('Origin',(22.5,-65.9,5.));
#845=CARTESIAN_POINT('',(20.5,-65.9,0.));
#846=CARTESIAN_POINT('',(20.5,-65.9,0.));
#847=CARTESIAN_POINT('Origin',(22.5,-65.9,0.));
#848=CARTESIAN_POINT('Origin',(-65.9,37.5,0.));
#849=CARTESIAN_POINT('',(-67.9,37.5,5.));
#850=CARTESIAN_POINT('Origin',(-65.9,37.5,5.));
#851=CARTESIAN_POINT('',(-67.9,37.5,0.));
#852=CARTESIAN_POINT('',(-67.9,37.5,0.));
#853=CARTESIAN_POINT('Origin',(-65.9,37.5,0.));
#854=CARTESIAN_POINT('Origin',(65.9,37.5,0.));
#855=CARTESIAN_POINT('',(63.9,37.5,5.));
#856=CARTESIAN_POINT('Origin',(65.9,37.5,5.));
#857=CARTESIAN_POINT('',(63.9,37.5,0.));
#858=CARTESIAN_POINT('',(63.9,37.5,0.));
#859=CARTESIAN_POINT('Origin',(65.9,37.5,0.));
#860=CARTESIAN_POINT('Origin',(-56.,-56.,0.));
#861=CARTESIAN_POINT('',(-56.,-56.,0.));
#862=CARTESIAN_POINT('',(-56.,56.,0.));
#863=CARTESIAN_POINT('',(-56.,-56.,0.));
#864=CARTESIAN_POINT('',(-56.,56.,5.));
#865=CARTESIAN_POINT('',(-56.,56.,0.));
#866=CARTESIAN_POINT('',(-56.,-56.,5.));
#867=CARTESIAN_POINT('',(-56.,-56.,5.));
#868=CARTESIAN_POINT('',(-56.,-56.,0.));
#869=CARTESIAN_POINT('Origin',(56.,-56.,0.));
#870=CARTESIAN_POINT('',(56.,-56.,0.));
#871=CARTESIAN_POINT('',(56.,-56.,0.));
#872=CARTESIAN_POINT('',(56.,-56.,5.));
#873=CARTESIAN_POINT('',(56.,-56.,5.));
#874=CARTESIAN_POINT('',(56.,-56.,0.));
#875=CARTESIAN_POINT('Origin',(56.,56.,0.));
#876=CARTESIAN_POINT('',(56.,56.,0.));
#877=CARTESIAN_POINT('',(56.,56.,0.));
#878=CARTESIAN_POINT('',(56.,56.,5.));
#879=CARTESIAN_POINT('',(56.,56.,5.));
#880=CARTESIAN_POINT('',(56.,56.,0.));
#881=CARTESIAN_POINT('Origin',(-56.,56.,0.));
#882=CARTESIAN_POINT('',(-56.,56.,0.));
#883=CARTESIAN_POINT('',(-56.,56.,5.));
#884=CARTESIAN_POINT('Origin',(-22.5,65.9,0.));
#885=CARTESIAN_POINT('',(-24.5,65.9,5.));
#886=CARTESIAN_POINT('Origin',(-22.5,65.9,5.));
#887=CARTESIAN_POINT('',(-24.5,65.9,0.));
#888=CARTESIAN_POINT('',(-24.5,65.9,0.));
#889=CARTESIAN_POINT('Origin',(-22.5,65.9,0.));
#890=CARTESIAN_POINT('Origin',(-65.9,-37.5,0.));
#891=CARTESIAN_POINT('',(-67.9,-37.5,5.));
#892=CARTESIAN_POINT('Origin',(-65.9,-37.5,5.));
#893=CARTESIAN_POINT('',(-67.9,-37.5,0.));
#894=CARTESIAN_POINT('',(-67.9,-37.5,0.));
#895=CARTESIAN_POINT('Origin',(-65.9,-37.5,0.));
#896=CARTESIAN_POINT('Origin',(-65.9,22.5,0.));
#897=CARTESIAN_POINT('',(-67.9,22.5,5.));
#898=CARTESIAN_POINT('Origin',(-65.9,22.5,5.));
#899=CARTESIAN_POINT('',(-67.9,22.5,0.));
#900=CARTESIAN_POINT('',(-67.9,22.5,0.));
#901=CARTESIAN_POINT('Origin',(-65.9,22.5,0.));
#902=CARTESIAN_POINT('Origin',(-65.9,-22.5,0.));
#903=CARTESIAN_POINT('',(-67.9,-22.5,5.));
#904=CARTESIAN_POINT('Origin',(-65.9,-22.5,5.));
#905=CARTESIAN_POINT('',(-67.9,-22.5,0.));
#906=CARTESIAN_POINT('',(-67.9,-22.5,0.));
#907=CARTESIAN_POINT('Origin',(-65.9,-22.5,0.));
#908=CARTESIAN_POINT('Origin',(65.9,-22.5,0.));
#909=CARTESIAN_POINT('',(63.9,-22.5,5.));
#910=CARTESIAN_POINT('Origin',(65.9,-22.5,5.));
#911=CARTESIAN_POINT('',(63.9,-22.5,0.));
#912=CARTESIAN_POINT('',(63.9,-22.5,0.));
#913=CARTESIAN_POINT('Origin',(65.9,-22.5,0.));
#914=CARTESIAN_POINT('Origin',(-76.,-76.,0.));
#915=CARTESIAN_POINT('',(-76.,-76.,0.));
#916=CARTESIAN_POINT('',(76.,-76.,0.));
#917=CARTESIAN_POINT('',(-76.,-76.,0.));
#918=CARTESIAN_POINT('',(76.,-76.,5.));
#919=CARTESIAN_POINT('',(76.,-76.,0.));
#920=CARTESIAN_POINT('',(-76.,-76.,5.));
#921=CARTESIAN_POINT('',(-76.,-76.,5.));
#922=CARTESIAN_POINT('',(-76.,-76.,0.));
#923=CARTESIAN_POINT('Origin',(-76.,76.,0.));
#924=CARTESIAN_POINT('',(-76.,76.,0.));
#925=CARTESIAN_POINT('',(-76.,76.,0.));
#926=CARTESIAN_POINT('',(-76.,75.9999999999999,5.));
#927=CARTESIAN_POINT('',(-76.,76.,5.));
#928=CARTESIAN_POINT('',(-76.,76.,0.));
#929=CARTESIAN_POINT('Origin',(76.,76.,0.));
#930=CARTESIAN_POINT('',(76.,76.,0.));
#931=CARTESIAN_POINT('',(76.,76.,0.));
#932=CARTESIAN_POINT('',(76.,76.,5.));
#933=CARTESIAN_POINT('',(76.,76.,5.));
#934=CARTESIAN_POINT('',(76.,76.,0.));
#935=CARTESIAN_POINT('Origin',(76.,-76.,0.));
#936=CARTESIAN_POINT('',(76.,-76.,0.));
#937=CARTESIAN_POINT('',(76.,-76.,5.));
#938=CARTESIAN_POINT('Origin',(8.88178419700125E-15,-1.77635683940025E-14,
5.));
#939=CARTESIAN_POINT('Origin',(8.88178419700125E-15,-1.77635683940025E-14,
0.));
#940=UNCERTAINTY_MEASURE_WITH_UNIT(LENGTH_MEASURE(0.01),#944,
'DISTANCE_ACCURACY_VALUE',
'Maximum model space distance between geometric entities at asserted c
onnectivities');
#941=UNCERTAINTY_MEASURE_WITH_UNIT(LENGTH_MEASURE(0.01),#944,
'DISTANCE_ACCURACY_VALUE',
'Maximum model space distance between geometric entities at asserted c
onnectivities');
#942=(
GEOMETRIC_REPRESENTATION_CONTEXT(3)
GLOBAL_UNCERTAINTY_ASSIGNED_CONTEXT((#940))
GLOBAL_UNIT_ASSIGNED_CONTEXT((#944,#946,#947))
REPRESENTATION_CONTEXT('','3D')
);
#943=(
GEOMETRIC_REPRESENTATION_CONTEXT(3)
GLOBAL_UNCERTAINTY_ASSIGNED_CONTEXT((#941))
GLOBAL_UNIT_ASSIGNED_CONTEXT((#944,#946,#947))
REPRESENTATION_CONTEXT('','3D')
);
#944=(
LENGTH_UNIT()
NAMED_UNIT(*)
SI_UNIT(.MILLI.,.METRE.)
);
#945=(
LENGTH_UNIT()
NAMED_UNIT(*)
SI_UNIT($,.METRE.)
);
#946=(
NAMED_UNIT(*)
PLANE_ANGLE_UNIT()
SI_UNIT($,.RADIAN.)
);
#947=(
NAMED_UNIT(*)
SI_UNIT($,.STERADIAN.)
SOLID_ANGLE_UNIT()
);
#948=SHAPE_DEFINITION_REPRESENTATION(#949,#950);
#949=PRODUCT_DEFINITION_SHAPE('',$,#952);
#950=SHAPE_REPRESENTATION('',(#576),#942);
#951=PRODUCT_DEFINITION_CONTEXT('part definition',#956,'design');
#952=PRODUCT_DEFINITION('Gegenhalter_Prallschutz',
'Gegenhalter_Prallschutz v3',#953,#951);
#953=PRODUCT_DEFINITION_FORMATION('',$,#958);
#954=PRODUCT_RELATED_PRODUCT_CATEGORY('Gegenhalter_Prallschutz v3',
'Gegenhalter_Prallschutz v3',(#958));
#955=APPLICATION_PROTOCOL_DEFINITION('international standard',
'automotive_design',2009,#956);
#956=APPLICATION_CONTEXT(
'Core Data for Automotive Mechanical Design Process');
#957=PRODUCT_CONTEXT('part definition',#956,'mechanical');
#958=PRODUCT('Gegenhalter_Prallschutz','Gegenhalter_Prallschutz v3',$,(#957));
#959=PRESENTATION_STYLE_ASSIGNMENT((#961));
#960=PRESENTATION_STYLE_ASSIGNMENT((#962));
#961=SURFACE_STYLE_USAGE(.BOTH.,#963);
#962=SURFACE_STYLE_USAGE(.BOTH.,#964);
#963=SURFACE_SIDE_STYLE('',(#965));
#964=SURFACE_SIDE_STYLE('',(#966));
#965=SURFACE_STYLE_FILL_AREA(#967);
#966=SURFACE_STYLE_FILL_AREA(#968);
#967=FILL_AREA_STYLE('Stahl - satiniert',(#969));
#968=FILL_AREA_STYLE('Glas (Bronze)',(#970));
#969=FILL_AREA_STYLE_COLOUR('Stahl - satiniert',#971);
#970=FILL_AREA_STYLE_COLOUR('Glas (Bronze)',#972);
#971=COLOUR_RGB('Stahl - satiniert',0.627450980392157,0.627450980392157,
0.627450980392157);
#972=COLOUR_RGB('Glas (Bronze)',0.627450980392157,0.486274509803922,0.349019607843137);
ENDSEC;
END-ISO-10303-21;
