ISO-10303-21;
HEADER;
/* Generated by software containing ST-Developer
 * from STEP Tools, Inc. (www.steptools.com) 
 */

FILE_DESCRIPTION(
/* description */ (''),
/* implementation_level */ '2;1');

FILE_NAME(
/* name */ 'Schwungrad_Schwungrad.step',
/* time_stamp */ '2026-06-28T16:59:47+02:00',
/* author */ (''),
/* organization */ (''),
/* preprocessor_version */ 'ST-DEVELOPER v20.1',
/* originating_system */ 'Autodesk Translation Framework v15.8.0.0',
/* authorisation */ '');

FILE_SCHEMA (('AUTOMOTIVE_DESIGN { 1 0 10303 214 3 1 1 }'));
ENDSEC;

DATA;
#10=MECHANICAL_DESIGN_GEOMETRIC_PRESENTATION_REPRESENTATION('',(#13),#699);
#11=SHAPE_REPRESENTATION_RELATIONSHIP('SRR','None',#706,#12);
#12=ADVANCED_BREP_SHAPE_REPRESENTATION('',(#14),#698);
#13=STYLED_ITEM('',(#716),#14);
#14=MANIFOLD_SOLID_BREP('K\X\F6rper4',#321);
#15=B_SPLINE_CURVE_WITH_KNOTS('',3,(#504,#505,#506,#507,#508,#509,#510,
#511,#512,#513,#514,#515,#516,#517,#518,#519,#520,#521,#522,#523,#524,#525,
#526,#527,#528,#529,#530,#531,#532,#533,#534,#535,#536,#537),
 .UNSPECIFIED.,.T.,.F.,(4,2,2,2,2,2,2,2,2,2,2,2,2,2,2,2,4),(0.,0.131897585643022,
0.263795171286044,0.395692593244535,0.527590015203026,0.659487437161517,
0.791384859120008,0.92328244476303,1.05518003040605,1.18707761604907,1.3189752016921,
1.45087262365059,1.58277004560908,1.71466746756757,1.84656488952606,1.97846247516908,
2.1103600608121),.UNSPECIFIED.);
#16=B_SPLINE_CURVE_WITH_KNOTS('',3,(#544,#545,#546,#547,#548,#549,#550,
#551,#552,#553,#554,#555,#556,#557,#558,#559,#560,#561),.UNSPECIFIED.,.F.,
 .F.,(4,2,2,2,2,2,2,2,4),(0.527590015203026,0.659487437161517,0.791384859120008,
0.92328244476303,1.05518003040605,1.18707761604907,1.3189752016921,1.45087262365059,
1.58277004560908),.UNSPECIFIED.);
#17=B_SPLINE_CURVE_WITH_KNOTS('',3,(#563,#564,#565,#566,#567,#568,#569,
#570,#571,#572),.UNSPECIFIED.,.F.,.F.,(4,2,2,2,4),(2.1103600608121,2.24225764645513,
2.37415523209815,2.50605265405664,2.63795007601513),.UNSPECIFIED.);
#18=B_SPLINE_CURVE_WITH_KNOTS('',3,(#576,#577,#578,#579,#580,#581,#582,
#583,#584,#585),.UNSPECIFIED.,.F.,.F.,(4,2,2,2,4),(1.58277004560908,1.71466746756757,
1.84656488952606,1.97846247516908,2.1103600608121),.UNSPECIFIED.);
#19=B_SPLINE_CURVE_WITH_KNOTS('',3,(#592,#593,#594,#595,#596,#597,#598,
#599,#600,#601,#602,#603,#604,#605,#606,#607,#608,#609,#610,#611,#612,#613,
#614,#615,#616,#617,#618,#619,#620,#621,#622,#623,#624,#625),
 .UNSPECIFIED.,.T.,.F.,(4,2,2,2,2,2,2,2,2,2,2,2,2,2,2,2,4),(0.,0.052133405383063,
0.104266810766126,0.156215222907017,0.208163635047908,0.260112047188799,
0.31206045932969,0.364193864712753,0.416327270095816,0.468460675478879,
0.520594080861942,0.572542493002833,0.624490905143724,0.676439317284615,
0.728387729425507,0.78052113480857,0.832654540191633),.UNSPECIFIED.);
#20=B_SPLINE_CURVE_WITH_KNOTS('',3,(#628,#629,#630,#631,#632,#633,#634,
#635,#636,#637,#638,#639,#640,#641,#642,#643,#644,#645,#646,#647,#648,#649,
#650,#651,#652,#653,#654,#655,#656,#657,#658,#659,#660,#661),
 .UNSPECIFIED.,.T.,.F.,(4,2,2,2,2,2,2,2,2,2,2,2,2,2,2,2,4),(0.,0.0521334053830631,
0.104266810766126,0.156215222907017,0.208163635047908,0.260112047188799,
0.31206045932969,0.364193864712753,0.416327270095816,0.468460675478879,
0.520594080861942,0.572542493002833,0.624490905143724,0.676439317284615,
0.728387729425506,0.780521134808569,0.832654540191633),.UNSPECIFIED.);
#21=LINE('',#503,#33);
#22=LINE('',#574,#34);
#23=LINE('',#591,#35);
#24=LINE('',#662,#36);
#25=LINE('',#666,#37);
#26=LINE('',#670,#38);
#27=LINE('',#674,#39);
#28=LINE('',#678,#40);
#29=LINE('',#682,#41);
#30=LINE('',#686,#42);
#31=LINE('',#690,#43);
#32=LINE('',#694,#44);
#33=VECTOR('',#413,3.5);
#34=VECTOR('',#420,3.5);
#35=VECTOR('',#429,1.35);
#36=VECTOR('',#432,1.35);
#37=VECTOR('',#437,11.05);
#38=VECTOR('',#442,11.05);
#39=VECTOR('',#447,11.05);
#40=VECTOR('',#452,11.05);
#41=VECTOR('',#457,11.05);
#42=VECTOR('',#462,11.05);
#43=VECTOR('',#467,45.);
#44=VECTOR('',#472,2.55);
#45=CYLINDRICAL_SURFACE('',#350,3.5);
#46=CYLINDRICAL_SURFACE('',#354,3.5);
#47=CYLINDRICAL_SURFACE('',#358,1.35);
#48=CYLINDRICAL_SURFACE('',#359,1.35);
#49=CYLINDRICAL_SURFACE('',#360,11.05);
#50=CYLINDRICAL_SURFACE('',#362,11.05);
#51=CYLINDRICAL_SURFACE('',#364,11.05);
#52=CYLINDRICAL_SURFACE('',#366,11.05);
#53=CYLINDRICAL_SURFACE('',#368,11.05);
#54=CYLINDRICAL_SURFACE('',#370,11.05);
#55=CYLINDRICAL_SURFACE('',#372,45.);
#56=CYLINDRICAL_SURFACE('',#374,2.55);
#57=FACE_BOUND('',#100,.T.);
#58=FACE_BOUND('',#103,.T.);
#59=FACE_BOUND('',#106,.T.);
#60=FACE_BOUND('',#116,.T.);
#61=FACE_BOUND('',#117,.T.);
#62=FACE_BOUND('',#119,.T.);
#63=FACE_BOUND('',#120,.T.);
#64=FACE_BOUND('',#122,.T.);
#65=FACE_BOUND('',#123,.T.);
#66=FACE_BOUND('',#124,.T.);
#67=FACE_BOUND('',#125,.T.);
#68=FACE_BOUND('',#126,.T.);
#69=FACE_BOUND('',#127,.T.);
#70=FACE_BOUND('',#128,.T.);
#71=FACE_OUTER_BOUND('',#93,.T.);
#72=FACE_OUTER_BOUND('',#94,.T.);
#73=FACE_OUTER_BOUND('',#95,.T.);
#74=FACE_OUTER_BOUND('',#96,.T.);
#75=FACE_OUTER_BOUND('',#97,.T.);
#76=FACE_OUTER_BOUND('',#98,.T.);
#77=FACE_OUTER_BOUND('',#99,.T.);
#78=FACE_OUTER_BOUND('',#101,.T.);
#79=FACE_OUTER_BOUND('',#102,.T.);
#80=FACE_OUTER_BOUND('',#104,.T.);
#81=FACE_OUTER_BOUND('',#105,.T.);
#82=FACE_OUTER_BOUND('',#107,.T.);
#83=FACE_OUTER_BOUND('',#108,.T.);
#84=FACE_OUTER_BOUND('',#109,.T.);
#85=FACE_OUTER_BOUND('',#110,.T.);
#86=FACE_OUTER_BOUND('',#111,.T.);
#87=FACE_OUTER_BOUND('',#112,.T.);
#88=FACE_OUTER_BOUND('',#113,.T.);
#89=FACE_OUTER_BOUND('',#114,.T.);
#90=FACE_OUTER_BOUND('',#115,.T.);
#91=FACE_OUTER_BOUND('',#118,.T.);
#92=FACE_OUTER_BOUND('',#121,.T.);
#93=EDGE_LOOP('',(#213));
#94=EDGE_LOOP('',(#214));
#95=EDGE_LOOP('',(#215));
#96=EDGE_LOOP('',(#216));
#97=EDGE_LOOP('',(#217));
#98=EDGE_LOOP('',(#218));
#99=EDGE_LOOP('',(#219));
#100=EDGE_LOOP('',(#220));
#101=EDGE_LOOP('',(#221,#222,#223,#224));
#102=EDGE_LOOP('',(#225));
#103=EDGE_LOOP('',(#226));
#104=EDGE_LOOP('',(#227,#228,#229,#230,#231,#232));
#105=EDGE_LOOP('',(#233));
#106=EDGE_LOOP('',(#234));
#107=EDGE_LOOP('',(#235,#236,#237,#238));
#108=EDGE_LOOP('',(#239,#240,#241,#242));
#109=EDGE_LOOP('',(#243,#244,#245,#246));
#110=EDGE_LOOP('',(#247,#248,#249,#250));
#111=EDGE_LOOP('',(#251,#252,#253,#254));
#112=EDGE_LOOP('',(#255,#256,#257,#258));
#113=EDGE_LOOP('',(#259,#260,#261,#262));
#114=EDGE_LOOP('',(#263,#264,#265,#266));
#115=EDGE_LOOP('',(#267,#268,#269,#270));
#116=EDGE_LOOP('',(#271));
#117=EDGE_LOOP('',(#272,#273,#274));
#118=EDGE_LOOP('',(#275,#276,#277,#278));
#119=EDGE_LOOP('',(#279));
#120=EDGE_LOOP('',(#280));
#121=EDGE_LOOP('',(#281));
#122=EDGE_LOOP('',(#282));
#123=EDGE_LOOP('',(#283));
#124=EDGE_LOOP('',(#284));
#125=EDGE_LOOP('',(#285));
#126=EDGE_LOOP('',(#286));
#127=EDGE_LOOP('',(#287));
#128=EDGE_LOOP('',(#288));
#129=CIRCLE('',#336,11.05);
#130=CIRCLE('',#338,11.05);
#131=CIRCLE('',#340,11.05);
#132=CIRCLE('',#342,11.05);
#133=CIRCLE('',#344,11.05);
#134=CIRCLE('',#346,11.05);
#135=CIRCLE('',#348,45.);
#136=CIRCLE('',#349,2.55);
#137=CIRCLE('',#351,3.5);
#138=CIRCLE('',#353,1.35);
#139=CIRCLE('',#355,3.5);
#140=CIRCLE('',#357,1.35);
#141=CIRCLE('',#361,11.05);
#142=CIRCLE('',#363,11.05);
#143=CIRCLE('',#365,11.05);
#144=CIRCLE('',#367,11.05);
#145=CIRCLE('',#369,11.05);
#146=CIRCLE('',#371,11.05);
#147=CIRCLE('',#373,45.);
#148=CIRCLE('',#375,2.55);
#149=VERTEX_POINT('',#477);
#150=VERTEX_POINT('',#480);
#151=VERTEX_POINT('',#483);
#152=VERTEX_POINT('',#486);
#153=VERTEX_POINT('',#489);
#154=VERTEX_POINT('',#492);
#155=VERTEX_POINT('',#495);
#156=VERTEX_POINT('',#497);
#157=VERTEX_POINT('',#500);
#158=VERTEX_POINT('',#502);
#159=VERTEX_POINT('',#539);
#160=VERTEX_POINT('',#542);
#161=VERTEX_POINT('',#543);
#162=VERTEX_POINT('',#562);
#163=VERTEX_POINT('',#573);
#164=VERTEX_POINT('',#587);
#165=VERTEX_POINT('',#590);
#166=VERTEX_POINT('',#627);
#167=VERTEX_POINT('',#664);
#168=VERTEX_POINT('',#668);
#169=VERTEX_POINT('',#672);
#170=VERTEX_POINT('',#676);
#171=VERTEX_POINT('',#680);
#172=VERTEX_POINT('',#684);
#173=VERTEX_POINT('',#688);
#174=VERTEX_POINT('',#692);
#175=EDGE_CURVE('',#149,#149,#129,.T.);
#176=EDGE_CURVE('',#150,#150,#130,.T.);
#177=EDGE_CURVE('',#151,#151,#131,.T.);
#178=EDGE_CURVE('',#152,#152,#132,.T.);
#179=EDGE_CURVE('',#153,#153,#133,.T.);
#180=EDGE_CURVE('',#154,#154,#134,.T.);
#181=EDGE_CURVE('',#155,#155,#135,.T.);
#182=EDGE_CURVE('',#156,#156,#136,.T.);
#183=EDGE_CURVE('',#157,#157,#137,.T.);
#184=EDGE_CURVE('',#157,#158,#21,.T.);
#185=EDGE_CURVE('',#158,#158,#15,.T.);
#186=EDGE_CURVE('',#159,#159,#138,.T.);
#187=EDGE_CURVE('',#160,#161,#16,.T.);
#188=EDGE_CURVE('',#162,#160,#17,.T.);
#189=EDGE_CURVE('',#162,#163,#22,.T.);
#190=EDGE_CURVE('',#163,#163,#139,.T.);
#191=EDGE_CURVE('',#161,#162,#18,.T.);
#192=EDGE_CURVE('',#164,#164,#140,.T.);
#193=EDGE_CURVE('',#164,#165,#23,.T.);
#194=EDGE_CURVE('',#165,#165,#19,.T.);
#195=EDGE_CURVE('',#166,#166,#20,.T.);
#196=EDGE_CURVE('',#166,#159,#24,.T.);
#197=EDGE_CURVE('',#167,#167,#141,.T.);
#198=EDGE_CURVE('',#167,#154,#25,.T.);
#199=EDGE_CURVE('',#168,#168,#142,.T.);
#200=EDGE_CURVE('',#168,#153,#26,.T.);
#201=EDGE_CURVE('',#169,#169,#143,.T.);
#202=EDGE_CURVE('',#169,#152,#27,.T.);
#203=EDGE_CURVE('',#170,#170,#144,.T.);
#204=EDGE_CURVE('',#170,#151,#28,.T.);
#205=EDGE_CURVE('',#171,#171,#145,.T.);
#206=EDGE_CURVE('',#171,#150,#29,.T.);
#207=EDGE_CURVE('',#172,#172,#146,.T.);
#208=EDGE_CURVE('',#172,#149,#30,.T.);
#209=EDGE_CURVE('',#173,#173,#147,.T.);
#210=EDGE_CURVE('',#173,#155,#31,.T.);
#211=EDGE_CURVE('',#174,#174,#148,.T.);
#212=EDGE_CURVE('',#174,#156,#32,.T.);
#213=ORIENTED_EDGE('',*,*,#175,.F.);
#214=ORIENTED_EDGE('',*,*,#176,.F.);
#215=ORIENTED_EDGE('',*,*,#177,.F.);
#216=ORIENTED_EDGE('',*,*,#178,.F.);
#217=ORIENTED_EDGE('',*,*,#179,.F.);
#218=ORIENTED_EDGE('',*,*,#180,.F.);
#219=ORIENTED_EDGE('',*,*,#181,.T.);
#220=ORIENTED_EDGE('',*,*,#182,.T.);
#221=ORIENTED_EDGE('',*,*,#183,.T.);
#222=ORIENTED_EDGE('',*,*,#184,.T.);
#223=ORIENTED_EDGE('',*,*,#185,.F.);
#224=ORIENTED_EDGE('',*,*,#184,.F.);
#225=ORIENTED_EDGE('',*,*,#183,.F.);
#226=ORIENTED_EDGE('',*,*,#186,.F.);
#227=ORIENTED_EDGE('',*,*,#187,.F.);
#228=ORIENTED_EDGE('',*,*,#188,.F.);
#229=ORIENTED_EDGE('',*,*,#189,.T.);
#230=ORIENTED_EDGE('',*,*,#190,.T.);
#231=ORIENTED_EDGE('',*,*,#189,.F.);
#232=ORIENTED_EDGE('',*,*,#191,.F.);
#233=ORIENTED_EDGE('',*,*,#190,.F.);
#234=ORIENTED_EDGE('',*,*,#192,.F.);
#235=ORIENTED_EDGE('',*,*,#192,.T.);
#236=ORIENTED_EDGE('',*,*,#193,.T.);
#237=ORIENTED_EDGE('',*,*,#194,.F.);
#238=ORIENTED_EDGE('',*,*,#193,.F.);
#239=ORIENTED_EDGE('',*,*,#195,.F.);
#240=ORIENTED_EDGE('',*,*,#196,.T.);
#241=ORIENTED_EDGE('',*,*,#186,.T.);
#242=ORIENTED_EDGE('',*,*,#196,.F.);
#243=ORIENTED_EDGE('',*,*,#197,.F.);
#244=ORIENTED_EDGE('',*,*,#198,.T.);
#245=ORIENTED_EDGE('',*,*,#180,.T.);
#246=ORIENTED_EDGE('',*,*,#198,.F.);
#247=ORIENTED_EDGE('',*,*,#199,.F.);
#248=ORIENTED_EDGE('',*,*,#200,.T.);
#249=ORIENTED_EDGE('',*,*,#179,.T.);
#250=ORIENTED_EDGE('',*,*,#200,.F.);
#251=ORIENTED_EDGE('',*,*,#201,.F.);
#252=ORIENTED_EDGE('',*,*,#202,.T.);
#253=ORIENTED_EDGE('',*,*,#178,.T.);
#254=ORIENTED_EDGE('',*,*,#202,.F.);
#255=ORIENTED_EDGE('',*,*,#203,.F.);
#256=ORIENTED_EDGE('',*,*,#204,.T.);
#257=ORIENTED_EDGE('',*,*,#177,.T.);
#258=ORIENTED_EDGE('',*,*,#204,.F.);
#259=ORIENTED_EDGE('',*,*,#205,.F.);
#260=ORIENTED_EDGE('',*,*,#206,.T.);
#261=ORIENTED_EDGE('',*,*,#176,.T.);
#262=ORIENTED_EDGE('',*,*,#206,.F.);
#263=ORIENTED_EDGE('',*,*,#207,.F.);
#264=ORIENTED_EDGE('',*,*,#208,.T.);
#265=ORIENTED_EDGE('',*,*,#175,.T.);
#266=ORIENTED_EDGE('',*,*,#208,.F.);
#267=ORIENTED_EDGE('',*,*,#209,.F.);
#268=ORIENTED_EDGE('',*,*,#210,.T.);
#269=ORIENTED_EDGE('',*,*,#181,.F.);
#270=ORIENTED_EDGE('',*,*,#210,.F.);
#271=ORIENTED_EDGE('',*,*,#185,.T.);
#272=ORIENTED_EDGE('',*,*,#191,.T.);
#273=ORIENTED_EDGE('',*,*,#188,.T.);
#274=ORIENTED_EDGE('',*,*,#187,.T.);
#275=ORIENTED_EDGE('',*,*,#211,.F.);
#276=ORIENTED_EDGE('',*,*,#212,.T.);
#277=ORIENTED_EDGE('',*,*,#182,.F.);
#278=ORIENTED_EDGE('',*,*,#212,.F.);
#279=ORIENTED_EDGE('',*,*,#195,.T.);
#280=ORIENTED_EDGE('',*,*,#194,.T.);
#281=ORIENTED_EDGE('',*,*,#209,.T.);
#282=ORIENTED_EDGE('',*,*,#197,.T.);
#283=ORIENTED_EDGE('',*,*,#199,.T.);
#284=ORIENTED_EDGE('',*,*,#201,.T.);
#285=ORIENTED_EDGE('',*,*,#203,.T.);
#286=ORIENTED_EDGE('',*,*,#205,.T.);
#287=ORIENTED_EDGE('',*,*,#207,.T.);
#288=ORIENTED_EDGE('',*,*,#211,.T.);
#289=PLANE('',#335);
#290=PLANE('',#337);
#291=PLANE('',#339);
#292=PLANE('',#341);
#293=PLANE('',#343);
#294=PLANE('',#345);
#295=PLANE('',#347);
#296=PLANE('',#352);
#297=PLANE('',#356);
#298=PLANE('',#376);
#299=ADVANCED_FACE('',(#71),#289,.F.);
#300=ADVANCED_FACE('',(#72),#290,.F.);
#301=ADVANCED_FACE('',(#73),#291,.F.);
#302=ADVANCED_FACE('',(#74),#292,.F.);
#303=ADVANCED_FACE('',(#75),#293,.F.);
#304=ADVANCED_FACE('',(#76),#294,.F.);
#305=ADVANCED_FACE('',(#77,#57),#295,.T.);
#306=ADVANCED_FACE('',(#78),#45,.F.);
#307=ADVANCED_FACE('',(#79,#58),#296,.F.);
#308=ADVANCED_FACE('',(#80),#46,.F.);
#309=ADVANCED_FACE('',(#81,#59),#297,.T.);
#310=ADVANCED_FACE('',(#82),#47,.F.);
#311=ADVANCED_FACE('',(#83),#48,.F.);
#312=ADVANCED_FACE('',(#84),#49,.F.);
#313=ADVANCED_FACE('',(#85),#50,.F.);
#314=ADVANCED_FACE('',(#86),#51,.F.);
#315=ADVANCED_FACE('',(#87),#52,.F.);
#316=ADVANCED_FACE('',(#88),#53,.F.);
#317=ADVANCED_FACE('',(#89),#54,.F.);
#318=ADVANCED_FACE('',(#90,#60,#61),#55,.T.);
#319=ADVANCED_FACE('',(#91,#62,#63),#56,.F.);
#320=ADVANCED_FACE('',(#92,#64,#65,#66,#67,#68,#69,#70),#298,.T.);
#321=CLOSED_SHELL('',(#299,#300,#301,#302,#303,#304,#305,#306,#307,#308,
#309,#310,#311,#312,#313,#314,#315,#316,#317,#318,#319,#320));
#322=DERIVED_UNIT_ELEMENT(#324,1.);
#323=DERIVED_UNIT_ELEMENT(#701,-3.);
#324=(
MASS_UNIT()
NAMED_UNIT(*)
SI_UNIT(.KILO.,.GRAM.)
);
#325=DERIVED_UNIT((#322,#323));
#326=MEASURE_REPRESENTATION_ITEM('density measure',
POSITIVE_RATIO_MEASURE(7850.),#325);
#327=PROPERTY_DEFINITION_REPRESENTATION(#332,#329);
#328=PROPERTY_DEFINITION_REPRESENTATION(#333,#330);
#329=REPRESENTATION('material name',(#331),#698);
#330=REPRESENTATION('density',(#326),#698);
#331=DESCRIPTIVE_REPRESENTATION_ITEM('Stahl','Stahl');
#332=PROPERTY_DEFINITION('material property','material name',#708);
#333=PROPERTY_DEFINITION('material property','density of part',#708);
#334=AXIS2_PLACEMENT_3D('',#475,#377,#378);
#335=AXIS2_PLACEMENT_3D('',#476,#379,#380);
#336=AXIS2_PLACEMENT_3D('',#478,#381,#382);
#337=AXIS2_PLACEMENT_3D('',#479,#383,#384);
#338=AXIS2_PLACEMENT_3D('',#481,#385,#386);
#339=AXIS2_PLACEMENT_3D('',#482,#387,#388);
#340=AXIS2_PLACEMENT_3D('',#484,#389,#390);
#341=AXIS2_PLACEMENT_3D('',#485,#391,#392);
#342=AXIS2_PLACEMENT_3D('',#487,#393,#394);
#343=AXIS2_PLACEMENT_3D('',#488,#395,#396);
#344=AXIS2_PLACEMENT_3D('',#490,#397,#398);
#345=AXIS2_PLACEMENT_3D('',#491,#399,#400);
#346=AXIS2_PLACEMENT_3D('',#493,#401,#402);
#347=AXIS2_PLACEMENT_3D('',#494,#403,#404);
#348=AXIS2_PLACEMENT_3D('',#496,#405,#406);
#349=AXIS2_PLACEMENT_3D('',#498,#407,#408);
#350=AXIS2_PLACEMENT_3D('',#499,#409,#410);
#351=AXIS2_PLACEMENT_3D('',#501,#411,#412);
#352=AXIS2_PLACEMENT_3D('',#538,#414,#415);
#353=AXIS2_PLACEMENT_3D('',#540,#416,#417);
#354=AXIS2_PLACEMENT_3D('',#541,#418,#419);
#355=AXIS2_PLACEMENT_3D('',#575,#421,#422);
#356=AXIS2_PLACEMENT_3D('',#586,#423,#424);
#357=AXIS2_PLACEMENT_3D('',#588,#425,#426);
#358=AXIS2_PLACEMENT_3D('',#589,#427,#428);
#359=AXIS2_PLACEMENT_3D('',#626,#430,#431);
#360=AXIS2_PLACEMENT_3D('',#663,#433,#434);
#361=AXIS2_PLACEMENT_3D('',#665,#435,#436);
#362=AXIS2_PLACEMENT_3D('',#667,#438,#439);
#363=AXIS2_PLACEMENT_3D('',#669,#440,#441);
#364=AXIS2_PLACEMENT_3D('',#671,#443,#444);
#365=AXIS2_PLACEMENT_3D('',#673,#445,#446);
#366=AXIS2_PLACEMENT_3D('',#675,#448,#449);
#367=AXIS2_PLACEMENT_3D('',#677,#450,#451);
#368=AXIS2_PLACEMENT_3D('',#679,#453,#454);
#369=AXIS2_PLACEMENT_3D('',#681,#455,#456);
#370=AXIS2_PLACEMENT_3D('',#683,#458,#459);
#371=AXIS2_PLACEMENT_3D('',#685,#460,#461);
#372=AXIS2_PLACEMENT_3D('',#687,#463,#464);
#373=AXIS2_PLACEMENT_3D('',#689,#465,#466);
#374=AXIS2_PLACEMENT_3D('',#691,#468,#469);
#375=AXIS2_PLACEMENT_3D('',#693,#470,#471);
#376=AXIS2_PLACEMENT_3D('',#695,#473,#474);
#377=DIRECTION('axis',(0.,0.,1.));
#378=DIRECTION('refdir',(1.,0.,0.));
#379=DIRECTION('center_axis',(0.,0.,-1.));
#380=DIRECTION('ref_axis',(1.,0.,0.));
#381=DIRECTION('center_axis',(0.,0.,-1.));
#382=DIRECTION('ref_axis',(-1.,1.22464679914735E-16,0.));
#383=DIRECTION('center_axis',(0.,0.,-1.));
#384=DIRECTION('ref_axis',(1.,0.,0.));
#385=DIRECTION('center_axis',(0.,0.,-1.));
#386=DIRECTION('ref_axis',(-0.5,-0.866025403784438,0.));
#387=DIRECTION('center_axis',(0.,0.,-1.));
#388=DIRECTION('ref_axis',(1.,0.,0.));
#389=DIRECTION('center_axis',(0.,0.,-1.));
#390=DIRECTION('ref_axis',(0.499999999999999,-0.866025403784439,0.));
#391=DIRECTION('center_axis',(0.,0.,-1.));
#392=DIRECTION('ref_axis',(1.,0.,0.));
#393=DIRECTION('center_axis',(0.,0.,-1.));
#394=DIRECTION('ref_axis',(1.,0.,0.));
#395=DIRECTION('center_axis',(0.,0.,-1.));
#396=DIRECTION('ref_axis',(1.,0.,0.));
#397=DIRECTION('center_axis',(0.,0.,-1.));
#398=DIRECTION('ref_axis',(0.5,0.866025403784439,0.));
#399=DIRECTION('center_axis',(0.,0.,-1.));
#400=DIRECTION('ref_axis',(1.,0.,0.));
#401=DIRECTION('center_axis',(0.,0.,-1.));
#402=DIRECTION('ref_axis',(-0.5,0.866025403784439,0.));
#403=DIRECTION('center_axis',(0.,0.,-1.));
#404=DIRECTION('ref_axis',(1.,0.,0.));
#405=DIRECTION('center_axis',(0.,0.,-1.));
#406=DIRECTION('ref_axis',(1.,0.,0.));
#407=DIRECTION('center_axis',(0.,0.,1.));
#408=DIRECTION('ref_axis',(1.,0.,0.));
#409=DIRECTION('center_axis',(-1.,0.,0.));
#410=DIRECTION('ref_axis',(0.,1.,0.));
#411=DIRECTION('center_axis',(1.,0.,0.));
#412=DIRECTION('ref_axis',(0.,1.,0.));
#413=DIRECTION('',(-1.,0.,0.));
#414=DIRECTION('center_axis',(1.,0.,0.));
#415=DIRECTION('ref_axis',(0.,1.,0.));
#416=DIRECTION('center_axis',(-1.,0.,0.));
#417=DIRECTION('ref_axis',(0.,1.,0.));
#418=DIRECTION('center_axis',(-1.,0.,0.));
#419=DIRECTION('ref_axis',(0.,1.,0.));
#420=DIRECTION('',(-1.,0.,0.));
#421=DIRECTION('center_axis',(-1.,0.,0.));
#422=DIRECTION('ref_axis',(0.,1.,0.));
#423=DIRECTION('center_axis',(1.,0.,0.));
#424=DIRECTION('ref_axis',(0.,1.,0.));
#425=DIRECTION('center_axis',(1.,0.,0.));
#426=DIRECTION('ref_axis',(0.,1.,0.));
#427=DIRECTION('center_axis',(-1.,0.,0.));
#428=DIRECTION('ref_axis',(0.,1.,0.));
#429=DIRECTION('',(-1.,0.,0.));
#430=DIRECTION('center_axis',(-1.,0.,0.));
#431=DIRECTION('ref_axis',(0.,1.,0.));
#432=DIRECTION('',(-1.,0.,0.));
#433=DIRECTION('center_axis',(0.,0.,1.));
#434=DIRECTION('ref_axis',(-0.5,0.866025403784439,0.));
#435=DIRECTION('center_axis',(0.,0.,-1.));
#436=DIRECTION('ref_axis',(-0.5,0.866025403784439,0.));
#437=DIRECTION('',(0.,0.,-1.));
#438=DIRECTION('center_axis',(0.,0.,1.));
#439=DIRECTION('ref_axis',(0.5,0.866025403784439,0.));
#440=DIRECTION('center_axis',(0.,0.,-1.));
#441=DIRECTION('ref_axis',(0.5,0.866025403784439,0.));
#442=DIRECTION('',(0.,0.,-1.));
#443=DIRECTION('center_axis',(0.,0.,1.));
#444=DIRECTION('ref_axis',(1.,0.,0.));
#445=DIRECTION('center_axis',(0.,0.,-1.));
#446=DIRECTION('ref_axis',(1.,0.,0.));
#447=DIRECTION('',(0.,0.,-1.));
#448=DIRECTION('center_axis',(0.,0.,1.));
#449=DIRECTION('ref_axis',(0.499999999999999,-0.866025403784439,0.));
#450=DIRECTION('center_axis',(0.,0.,-1.));
#451=DIRECTION('ref_axis',(0.499999999999999,-0.866025403784439,0.));
#452=DIRECTION('',(0.,0.,-1.));
#453=DIRECTION('center_axis',(0.,0.,1.));
#454=DIRECTION('ref_axis',(-0.5,-0.866025403784438,0.));
#455=DIRECTION('center_axis',(0.,0.,-1.));
#456=DIRECTION('ref_axis',(-0.5,-0.866025403784438,0.));
#457=DIRECTION('',(0.,0.,-1.));
#458=DIRECTION('center_axis',(0.,0.,1.));
#459=DIRECTION('ref_axis',(-1.,1.22464679914735E-16,0.));
#460=DIRECTION('center_axis',(0.,0.,-1.));
#461=DIRECTION('ref_axis',(-1.,1.22464679914735E-16,0.));
#462=DIRECTION('',(0.,0.,-1.));
#463=DIRECTION('center_axis',(0.,0.,1.));
#464=DIRECTION('ref_axis',(-0.500000000000091,-0.866025403784386,0.));
#465=DIRECTION('center_axis',(0.,0.,1.));
#466=DIRECTION('ref_axis',(-0.500000000000091,-0.866025403784386,0.));
#467=DIRECTION('',(0.,0.,-1.));
#468=DIRECTION('center_axis',(0.,0.,1.));
#469=DIRECTION('ref_axis',(-0.499999999999853,-0.866025403784524,0.));
#470=DIRECTION('center_axis',(0.,0.,-1.));
#471=DIRECTION('ref_axis',(-0.500000000000147,0.866025403784354,0.));
#472=DIRECTION('',(0.,0.,-1.));
#473=DIRECTION('center_axis',(0.,0.,1.));
#474=DIRECTION('ref_axis',(-1.,1.22464679914735E-16,0.));
#475=CARTESIAN_POINT('',(0.,0.,0.));
#476=CARTESIAN_POINT('Origin',(0.,0.,0.));
#477=CARTESIAN_POINT('',(11.05,-30.,0.));
#478=CARTESIAN_POINT('Origin',(-3.67394039744206E-15,-30.,0.));
#479=CARTESIAN_POINT('Origin',(0.,0.,0.));
#480=CARTESIAN_POINT('',(31.5057621135332,-5.43041928818197,0.));
#481=CARTESIAN_POINT('Origin',(25.9807621135332,-15.,0.));
#482=CARTESIAN_POINT('Origin',(0.,0.,0.));
#483=CARTESIAN_POINT('',(20.4557621135332,24.569580711818,0.));
#484=CARTESIAN_POINT('Origin',(25.9807621135332,15.,0.));
#485=CARTESIAN_POINT('Origin',(0.,0.,0.));
#486=CARTESIAN_POINT('',(-11.05,30.,0.));
#487=CARTESIAN_POINT('Origin',(0.,30.,0.));
#488=CARTESIAN_POINT('Origin',(0.,0.,0.));
#489=CARTESIAN_POINT('',(-31.5057621135332,5.43041928818196,0.));
#490=CARTESIAN_POINT('Origin',(-25.9807621135332,15.,0.));
#491=CARTESIAN_POINT('Origin',(0.,0.,0.));
#492=CARTESIAN_POINT('',(-20.4557621135332,-24.569580711818,0.));
#493=CARTESIAN_POINT('Origin',(-25.9807621135332,-15.,0.));
#494=CARTESIAN_POINT('Origin',(0.,0.,-0.5));
#495=CARTESIAN_POINT('',(22.5000000000041,38.9711431702974,-0.5));
#496=CARTESIAN_POINT('Origin',(0.,0.,-0.5));
#497=CARTESIAN_POINT('',(1.27499999999962,2.20836477965054,-0.5));
#498=CARTESIAN_POINT('Origin',(0.,0.,-0.5));
#499=CARTESIAN_POINT('Origin',(-15.,-8.26636589424463E-15,7.00000010430813));
#500=CARTESIAN_POINT('',(-15.,-3.50000000000001,7.00000010430813));
#501=CARTESIAN_POINT('Origin',(-15.,-8.26636589424463E-15,7.00000010430813));
#502=CARTESIAN_POINT('',(-44.8636824168503,-3.50000000000001,7.00000010430813));
#503=CARTESIAN_POINT('',(-15.,-3.50000000000001,7.00000010430813));
#504=CARTESIAN_POINT('Ctrl Pts',(-44.8636824168503,-3.50000000000001,7.00000010430813));
#505=CARTESIAN_POINT('Ctrl Pts',(-44.8636824168503,-3.50000000000001,6.56034148549805));
#506=CARTESIAN_POINT('Ctrl Pts',(-44.8708107815599,-3.41209775224706,6.09149911668162));
#507=CARTESIAN_POINT('Ctrl Pts',(-44.8965470102983,-3.05485478109659,5.22922415001908));
#508=CARTESIAN_POINT('Ctrl Pts',(-44.9147821259286,-2.78552379639628,4.83577643239857));
#509=CARTESIAN_POINT('Ctrl Pts',(-44.9490036622497,-2.16422405742542,4.21447669342771));
#510=CARTESIAN_POINT('Ctrl Pts',(-44.9672146837322,-1.77077616897147,3.94514541056847));
#511=CARTESIAN_POINT('Ctrl Pts',(-44.9928957863425,-0.908500638667438,3.58790220907295));
#512=CARTESIAN_POINT('Ctrl Pts',(-45.,-0.439658073194978,3.50000010430813));
#513=CARTESIAN_POINT('Ctrl Pts',(-45.,0.439658073194962,3.50000010430813));
#514=CARTESIAN_POINT('Ctrl Pts',(-44.9928957863425,0.908500638667423,3.58790220907295));
#515=CARTESIAN_POINT('Ctrl Pts',(-44.9672146837322,1.77077616897146,3.94514541056847));
#516=CARTESIAN_POINT('Ctrl Pts',(-44.9490036622497,2.1642240574254,4.21447669342771));
#517=CARTESIAN_POINT('Ctrl Pts',(-44.9147821259286,2.78552379639626,4.83577643239857));
#518=CARTESIAN_POINT('Ctrl Pts',(-44.8965470102983,3.05485478109657,5.22922415001908));
#519=CARTESIAN_POINT('Ctrl Pts',(-44.8708107815599,3.41209775224705,6.09149911668162));
#520=CARTESIAN_POINT('Ctrl Pts',(-44.8636824168503,3.49999999999999,6.56034148549805));
#521=CARTESIAN_POINT('Ctrl Pts',(-44.8636824168503,3.49999999999999,7.4396587231182));
#522=CARTESIAN_POINT('Ctrl Pts',(-44.8708107815599,3.41209775224705,7.90850109193464));
#523=CARTESIAN_POINT('Ctrl Pts',(-44.8965470102983,3.05485478109657,8.77077605859718));
#524=CARTESIAN_POINT('Ctrl Pts',(-44.9147821259286,2.78552379639626,9.16422377621769));
#525=CARTESIAN_POINT('Ctrl Pts',(-44.9490036622497,2.1642240574254,9.78552351518855));
#526=CARTESIAN_POINT('Ctrl Pts',(-44.9672146837322,1.77077616897146,10.0548547980478));
#527=CARTESIAN_POINT('Ctrl Pts',(-44.9928957863425,0.908500638667422,10.4120979995433));
#528=CARTESIAN_POINT('Ctrl Pts',(-45.,0.439658073194962,10.5000001043081));
#529=CARTESIAN_POINT('Ctrl Pts',(-45.,-0.439658073194978,10.5000001043081));
#530=CARTESIAN_POINT('Ctrl Pts',(-44.9928957863425,-0.908500638667439,10.4120979995433));
#531=CARTESIAN_POINT('Ctrl Pts',(-44.9672146837322,-1.77077616897147,10.0548547980478));
#532=CARTESIAN_POINT('Ctrl Pts',(-44.9490036622497,-2.16422405742542,9.78552351518855));
#533=CARTESIAN_POINT('Ctrl Pts',(-44.9147821259286,-2.78552379639628,9.16422377621769));
#534=CARTESIAN_POINT('Ctrl Pts',(-44.8965470102983,-3.05485478109659,8.77077605859718));
#535=CARTESIAN_POINT('Ctrl Pts',(-44.8708107815599,-3.41209775224706,7.90850109193464));
#536=CARTESIAN_POINT('Ctrl Pts',(-44.8636824168503,-3.50000000000001,7.4396587231182));
#537=CARTESIAN_POINT('Ctrl Pts',(-44.8636824168503,-3.50000000000001,7.00000010430813));
#538=CARTESIAN_POINT('Origin',(-15.,-8.26636589424463E-15,7.00000010430813));
#539=CARTESIAN_POINT('',(-15.,-1.35000000000001,7.00000010430813));
#540=CARTESIAN_POINT('Origin',(-15.,-8.26636589424463E-15,7.00000010430813));
#541=CARTESIAN_POINT('Origin',(45.,-8.26636589424463E-15,7.00000010430813));
#542=CARTESIAN_POINT('',(45.,-2.26797510251041E-29,10.5000001043081));
#543=CARTESIAN_POINT('',(45.,-2.26797510251041E-29,3.50000010430813));
#544=CARTESIAN_POINT('Ctrl Pts',(45.,-8.74300631892311E-15,10.5000001043081));
#545=CARTESIAN_POINT('Ctrl Pts',(45.,0.439658073194961,10.5000001043081));
#546=CARTESIAN_POINT('Ctrl Pts',(44.9928957863425,0.908500638667422,10.4120979995433));
#547=CARTESIAN_POINT('Ctrl Pts',(44.9672146837322,1.77077616897146,10.0548547980478));
#548=CARTESIAN_POINT('Ctrl Pts',(44.9490036622497,2.1642240574254,9.78552351518855));
#549=CARTESIAN_POINT('Ctrl Pts',(44.9147821259286,2.78552379639626,9.16422377621769));
#550=CARTESIAN_POINT('Ctrl Pts',(44.8965470102983,3.05485478109657,8.77077605859718));
#551=CARTESIAN_POINT('Ctrl Pts',(44.8708107815599,3.41209775224705,7.90850109193464));
#552=CARTESIAN_POINT('Ctrl Pts',(44.8636824168503,3.49999999999999,7.4396587231182));
#553=CARTESIAN_POINT('Ctrl Pts',(44.8636824168503,3.49999999999999,6.56034148549805));
#554=CARTESIAN_POINT('Ctrl Pts',(44.8708107815599,3.41209775224705,6.09149911668162));
#555=CARTESIAN_POINT('Ctrl Pts',(44.8965470102983,3.05485478109657,5.22922415001908));
#556=CARTESIAN_POINT('Ctrl Pts',(44.9147821259286,2.78552379639626,4.83577643239857));
#557=CARTESIAN_POINT('Ctrl Pts',(44.9490036622497,2.1642240574254,4.21447669342771));
#558=CARTESIAN_POINT('Ctrl Pts',(44.9672146837322,1.77077616897146,3.94514541056847));
#559=CARTESIAN_POINT('Ctrl Pts',(44.9928957863425,0.908500638667423,3.58790220907295));
#560=CARTESIAN_POINT('Ctrl Pts',(45.,0.439658073194963,3.50000010430813));
#561=CARTESIAN_POINT('Ctrl Pts',(45.,-7.21644966006352E-15,3.50000010430813));
#562=CARTESIAN_POINT('',(44.8636824168503,-3.50000000000001,7.00000010430813));
#563=CARTESIAN_POINT('Ctrl Pts',(44.8636824168503,-3.50000000000001,7.00000010430813));
#564=CARTESIAN_POINT('Ctrl Pts',(44.8636824168503,-3.50000000000001,7.4396587231182));
#565=CARTESIAN_POINT('Ctrl Pts',(44.8708107815599,-3.41209775224706,7.90850109193464));
#566=CARTESIAN_POINT('Ctrl Pts',(44.8965470102983,-3.05485478109659,8.77077605859718));
#567=CARTESIAN_POINT('Ctrl Pts',(44.9147821259286,-2.78552379639628,9.16422377621769));
#568=CARTESIAN_POINT('Ctrl Pts',(44.9490036622497,-2.16422405742542,9.78552351518855));
#569=CARTESIAN_POINT('Ctrl Pts',(44.9672146837322,-1.77077616897147,10.0548547980478));
#570=CARTESIAN_POINT('Ctrl Pts',(44.9928957863425,-0.908500638667439,10.4120979995433));
#571=CARTESIAN_POINT('Ctrl Pts',(45.,-0.439658073194979,10.5000001043081));
#572=CARTESIAN_POINT('Ctrl Pts',(45.,-8.88178419700125E-15,10.5000001043081));
#573=CARTESIAN_POINT('',(15.,-3.50000000000001,7.00000010430813));
#574=CARTESIAN_POINT('',(45.,-3.50000000000001,7.00000010430813));
#575=CARTESIAN_POINT('Origin',(15.,-8.26636589424463E-15,7.00000010430813));
#576=CARTESIAN_POINT('Ctrl Pts',(45.,-7.49400541621981E-15,3.50000010430813));
#577=CARTESIAN_POINT('Ctrl Pts',(45.,-0.439658073194977,3.50000010430813));
#578=CARTESIAN_POINT('Ctrl Pts',(44.9928957863425,-0.908500638667436,3.58790220907295));
#579=CARTESIAN_POINT('Ctrl Pts',(44.9672146837322,-1.77077616897147,3.94514541056847));
#580=CARTESIAN_POINT('Ctrl Pts',(44.9490036622497,-2.16422405742542,4.2144766934277));
#581=CARTESIAN_POINT('Ctrl Pts',(44.9147821259286,-2.78552379639628,4.83577643239856));
#582=CARTESIAN_POINT('Ctrl Pts',(44.8965470102983,-3.05485478109659,5.22922415001908));
#583=CARTESIAN_POINT('Ctrl Pts',(44.8708107815599,-3.41209775224706,6.09149911668162));
#584=CARTESIAN_POINT('Ctrl Pts',(44.8636824168503,-3.50000000000001,6.56034148549805));
#585=CARTESIAN_POINT('Ctrl Pts',(44.8636824168503,-3.50000000000001,7.00000010430813));
#586=CARTESIAN_POINT('Origin',(15.,-8.26636589424463E-15,7.00000010430813));
#587=CARTESIAN_POINT('',(15.,-1.35000000000001,7.00000010430813));
#588=CARTESIAN_POINT('Origin',(15.,-8.26636589424463E-15,7.00000010430813));
#589=CARTESIAN_POINT('Origin',(45.,-8.26636589424463E-15,7.00000010430813));
#590=CARTESIAN_POINT('',(2.16333076527839,-1.35000000000001,7.00000010430813));
#591=CARTESIAN_POINT('',(45.,-1.35000000000001,7.00000010430813));
#592=CARTESIAN_POINT('Ctrl Pts',(2.16333076527839,-1.35000000000001,7.00000010430813));
#593=CARTESIAN_POINT('Ctrl Pts',(2.16333076527839,-1.35000000000001,6.82622208636459));
#594=CARTESIAN_POINT('Ctrl Pts',(2.18649854407448,-1.31454817490287,6.64407914018947));
#595=CARTESIAN_POINT('Ctrl Pts',(2.26409316254709,-1.17588019406725,6.31296059983997));
#596=CARTESIAN_POINT('Ctrl Pts',(2.31688079684024,-1.07275369736376,6.1635654924682));
#597=CARTESIAN_POINT('Ctrl Pts',(2.41211476706037,-0.83685389611167,5.92766569121611));
#598=CARTESIAN_POINT('Ctrl Pts',(2.46146266402615,-0.687324014770539,5.82423552122015));
#599=CARTESIAN_POINT('Ctrl Pts',(2.53076458792986,-0.35558876433791,5.68531634720264));
#600=CARTESIAN_POINT('Ctrl Pts',(2.55,-0.173161373802979,5.65000010430813));
#601=CARTESIAN_POINT('Ctrl Pts',(2.55,0.173161373802962,5.65000010430813));
#602=CARTESIAN_POINT('Ctrl Pts',(2.53076458792986,0.355588764337894,5.68531634720264));
#603=CARTESIAN_POINT('Ctrl Pts',(2.46146266402616,0.687324014770522,5.82423552122015));
#604=CARTESIAN_POINT('Ctrl Pts',(2.41211476706038,0.836853896111653,5.92766569121611));
#605=CARTESIAN_POINT('Ctrl Pts',(2.31688079684025,1.07275369736374,6.1635654924682));
#606=CARTESIAN_POINT('Ctrl Pts',(2.26409316254709,1.17588019406724,6.31296059983997));
#607=CARTESIAN_POINT('Ctrl Pts',(2.18649854407449,1.31454817490285,6.64407914018947));
#608=CARTESIAN_POINT('Ctrl Pts',(2.1633307652784,1.34999999999999,6.82622208636459));
#609=CARTESIAN_POINT('Ctrl Pts',(2.1633307652784,1.34999999999999,7.17377812225167));
#610=CARTESIAN_POINT('Ctrl Pts',(2.18649854407449,1.31454817490285,7.35592106842679));
#611=CARTESIAN_POINT('Ctrl Pts',(2.26409316254709,1.17588019406724,7.68703960877629));
#612=CARTESIAN_POINT('Ctrl Pts',(2.31688079684025,1.07275369736374,7.83643471614806));
#613=CARTESIAN_POINT('Ctrl Pts',(2.41211476706038,0.836853896111653,8.07233451740015));
#614=CARTESIAN_POINT('Ctrl Pts',(2.46146266402616,0.687324014770522,8.17576468739611));
#615=CARTESIAN_POINT('Ctrl Pts',(2.53076458792986,0.355588764337894,8.31468386141361));
#616=CARTESIAN_POINT('Ctrl Pts',(2.55,0.173161373802962,8.35000010430813));
#617=CARTESIAN_POINT('Ctrl Pts',(2.55,-0.173161373802978,8.35000010430813));
#618=CARTESIAN_POINT('Ctrl Pts',(2.53076458792986,-0.35558876433791,8.31468386141361));
#619=CARTESIAN_POINT('Ctrl Pts',(2.46146266402615,-0.687324014770538,8.17576468739611));
#620=CARTESIAN_POINT('Ctrl Pts',(2.41211476706037,-0.836853896111669,8.07233451740015));
#621=CARTESIAN_POINT('Ctrl Pts',(2.31688079684024,-1.07275369736376,7.83643471614806));
#622=CARTESIAN_POINT('Ctrl Pts',(2.26409316254709,-1.17588019406725,7.68703960877629));
#623=CARTESIAN_POINT('Ctrl Pts',(2.18649854407448,-1.31454817490287,7.35592106842679));
#624=CARTESIAN_POINT('Ctrl Pts',(2.16333076527839,-1.35000000000001,7.17377812225167));
#625=CARTESIAN_POINT('Ctrl Pts',(2.16333076527839,-1.35000000000001,7.00000010430813));
#626=CARTESIAN_POINT('Origin',(45.,-8.26636589424463E-15,7.00000010430813));
#627=CARTESIAN_POINT('',(-2.16333076527839,-1.35000000000001,7.00000010430813));
#628=CARTESIAN_POINT('Ctrl Pts',(-2.16333076527839,-1.35000000000001,7.00000010430813));
#629=CARTESIAN_POINT('Ctrl Pts',(-2.16333076527839,-1.35000000000001,7.17377812225167));
#630=CARTESIAN_POINT('Ctrl Pts',(-2.18649854407448,-1.31454817490287,7.35592106842679));
#631=CARTESIAN_POINT('Ctrl Pts',(-2.26409316254709,-1.17588019406725,7.68703960877629));
#632=CARTESIAN_POINT('Ctrl Pts',(-2.31688079684024,-1.07275369736376,7.83643471614806));
#633=CARTESIAN_POINT('Ctrl Pts',(-2.41211476706037,-0.836853896111669,8.07233451740015));
#634=CARTESIAN_POINT('Ctrl Pts',(-2.46146266402615,-0.687324014770539,8.17576468739611));
#635=CARTESIAN_POINT('Ctrl Pts',(-2.53076458792986,-0.355588764337911,8.31468386141361));
#636=CARTESIAN_POINT('Ctrl Pts',(-2.55,-0.173161373802978,8.35000010430813));
#637=CARTESIAN_POINT('Ctrl Pts',(-2.55,0.173161373802962,8.35000010430813));
#638=CARTESIAN_POINT('Ctrl Pts',(-2.53076458792986,0.355588764337894,8.31468386141361));
#639=CARTESIAN_POINT('Ctrl Pts',(-2.46146266402616,0.687324014770522,8.17576468739611));
#640=CARTESIAN_POINT('Ctrl Pts',(-2.41211476706038,0.836853896111653,8.07233451740015));
#641=CARTESIAN_POINT('Ctrl Pts',(-2.31688079684025,1.07275369736374,7.83643471614806));
#642=CARTESIAN_POINT('Ctrl Pts',(-2.26409316254709,1.17588019406724,7.68703960877629));
#643=CARTESIAN_POINT('Ctrl Pts',(-2.18649854407449,1.31454817490285,7.35592106842679));
#644=CARTESIAN_POINT('Ctrl Pts',(-2.1633307652784,1.34999999999999,7.17377812225167));
#645=CARTESIAN_POINT('Ctrl Pts',(-2.1633307652784,1.34999999999999,6.82622208636459));
#646=CARTESIAN_POINT('Ctrl Pts',(-2.18649854407449,1.31454817490285,6.64407914018947));
#647=CARTESIAN_POINT('Ctrl Pts',(-2.26409316254709,1.17588019406724,6.31296059983997));
#648=CARTESIAN_POINT('Ctrl Pts',(-2.31688079684025,1.07275369736374,6.1635654924682));
#649=CARTESIAN_POINT('Ctrl Pts',(-2.41211476706038,0.836853896111653,5.92766569121611));
#650=CARTESIAN_POINT('Ctrl Pts',(-2.46146266402616,0.687324014770522,5.82423552122015));
#651=CARTESIAN_POINT('Ctrl Pts',(-2.53076458792986,0.355588764337894,5.68531634720264));
#652=CARTESIAN_POINT('Ctrl Pts',(-2.55,0.173161373802962,5.65000010430813));
#653=CARTESIAN_POINT('Ctrl Pts',(-2.55,-0.173161373802978,5.65000010430813));
#654=CARTESIAN_POINT('Ctrl Pts',(-2.53076458792986,-0.35558876433791,5.68531634720264));
#655=CARTESIAN_POINT('Ctrl Pts',(-2.46146266402615,-0.687324014770538,5.82423552122015));
#656=CARTESIAN_POINT('Ctrl Pts',(-2.41211476706037,-0.83685389611167,5.92766569121611));
#657=CARTESIAN_POINT('Ctrl Pts',(-2.31688079684024,-1.07275369736376,6.1635654924682));
#658=CARTESIAN_POINT('Ctrl Pts',(-2.26409316254709,-1.17588019406725,6.31296059983997));
#659=CARTESIAN_POINT('Ctrl Pts',(-2.18649854407448,-1.31454817490287,6.64407914018947));
#660=CARTESIAN_POINT('Ctrl Pts',(-2.16333076527839,-1.35000000000001,6.82622208636459));
#661=CARTESIAN_POINT('Ctrl Pts',(-2.16333076527839,-1.35000000000001,7.00000010430813));
#662=CARTESIAN_POINT('',(45.,-1.35000000000001,7.00000010430813));
#663=CARTESIAN_POINT('Origin',(-25.9807621135332,-15.,0.));
#664=CARTESIAN_POINT('',(-20.4557621135332,-24.569580711818,14.));
#665=CARTESIAN_POINT('Origin',(-25.9807621135332,-15.,14.));
#666=CARTESIAN_POINT('',(-20.4557621135332,-24.569580711818,0.));
#667=CARTESIAN_POINT('Origin',(-25.9807621135332,15.,0.));
#668=CARTESIAN_POINT('',(-31.5057621135332,5.43041928818196,14.));
#669=CARTESIAN_POINT('Origin',(-25.9807621135332,15.,14.));
#670=CARTESIAN_POINT('',(-31.5057621135332,5.43041928818195,0.));
#671=CARTESIAN_POINT('Origin',(0.,30.,0.));
#672=CARTESIAN_POINT('',(-11.05,30.,14.));
#673=CARTESIAN_POINT('Origin',(0.,30.,14.));
#674=CARTESIAN_POINT('',(-11.05,30.,0.));
#675=CARTESIAN_POINT('Origin',(25.9807621135332,15.,0.));
#676=CARTESIAN_POINT('',(20.4557621135332,24.569580711818,14.));
#677=CARTESIAN_POINT('Origin',(25.9807621135332,15.,14.));
#678=CARTESIAN_POINT('',(20.4557621135332,24.569580711818,0.));
#679=CARTESIAN_POINT('Origin',(25.9807621135332,-15.,0.));
#680=CARTESIAN_POINT('',(31.5057621135332,-5.43041928818197,14.));
#681=CARTESIAN_POINT('Origin',(25.9807621135332,-15.,14.));
#682=CARTESIAN_POINT('',(31.5057621135332,-5.43041928818197,0.));
#683=CARTESIAN_POINT('Origin',(-3.67394039744206E-15,-30.,0.));
#684=CARTESIAN_POINT('',(11.05,-30.,14.));
#685=CARTESIAN_POINT('Origin',(-3.67394039744206E-15,-30.,14.));
#686=CARTESIAN_POINT('',(11.05,-30.,0.));
#687=CARTESIAN_POINT('Origin',(0.,0.,0.));
#688=CARTESIAN_POINT('',(22.5000000000041,38.9711431702974,14.));
#689=CARTESIAN_POINT('Origin',(0.,0.,14.));
#690=CARTESIAN_POINT('',(22.5000000000041,38.9711431702974,0.));
#691=CARTESIAN_POINT('Origin',(0.,0.,0.));
#692=CARTESIAN_POINT('',(1.27499999999962,2.20836477965054,14.));
#693=CARTESIAN_POINT('Origin',(0.,0.,14.));
#694=CARTESIAN_POINT('',(1.27499999999962,2.20836477965054,0.));
#695=CARTESIAN_POINT('Origin',(-4.74576343983969E-12,-23.604182389825,14.));
#696=UNCERTAINTY_MEASURE_WITH_UNIT(LENGTH_MEASURE(0.01),#700,
'DISTANCE_ACCURACY_VALUE',
'Maximum model space distance between geometric entities at asserted c
onnectivities');
#697=UNCERTAINTY_MEASURE_WITH_UNIT(LENGTH_MEASURE(0.01),#700,
'DISTANCE_ACCURACY_VALUE',
'Maximum model space distance between geometric entities at asserted c
onnectivities');
#698=(
GEOMETRIC_REPRESENTATION_CONTEXT(3)
GLOBAL_UNCERTAINTY_ASSIGNED_CONTEXT((#696))
GLOBAL_UNIT_ASSIGNED_CONTEXT((#700,#702,#703))
REPRESENTATION_CONTEXT('','3D')
);
#699=(
GEOMETRIC_REPRESENTATION_CONTEXT(3)
GLOBAL_UNCERTAINTY_ASSIGNED_CONTEXT((#697))
GLOBAL_UNIT_ASSIGNED_CONTEXT((#700,#702,#703))
REPRESENTATION_CONTEXT('','3D')
);
#700=(
LENGTH_UNIT()
NAMED_UNIT(*)
SI_UNIT(.MILLI.,.METRE.)
);
#701=(
LENGTH_UNIT()
NAMED_UNIT(*)
SI_UNIT($,.METRE.)
);
#702=(
NAMED_UNIT(*)
PLANE_ANGLE_UNIT()
SI_UNIT($,.RADIAN.)
);
#703=(
NAMED_UNIT(*)
SI_UNIT($,.STERADIAN.)
SOLID_ANGLE_UNIT()
);
#704=SHAPE_DEFINITION_REPRESENTATION(#705,#706);
#705=PRODUCT_DEFINITION_SHAPE('',$,#708);
#706=SHAPE_REPRESENTATION('',(#334),#698);
#707=PRODUCT_DEFINITION_CONTEXT('part definition',#712,'design');
#708=PRODUCT_DEFINITION('Schwungrad_6','Schwungrad_6 v4',#709,#707);
#709=PRODUCT_DEFINITION_FORMATION('',$,#714);
#710=PRODUCT_RELATED_PRODUCT_CATEGORY('Schwungrad_6 v4',
'Schwungrad_6 v4',(#714));
#711=APPLICATION_PROTOCOL_DEFINITION('international standard',
'automotive_design',2009,#712);
#712=APPLICATION_CONTEXT(
'Core Data for Automotive Mechanical Design Process');
#713=PRODUCT_CONTEXT('part definition',#712,'mechanical');
#714=PRODUCT('Schwungrad_6','Schwungrad_6 v4',$,(#713));
#715=PRESENTATION_STYLE_ASSIGNMENT((#717));
#716=PRESENTATION_STYLE_ASSIGNMENT((#718));
#717=SURFACE_STYLE_USAGE(.BOTH.,#719);
#718=SURFACE_STYLE_USAGE(.BOTH.,#720);
#719=SURFACE_SIDE_STYLE('',(#721));
#720=SURFACE_SIDE_STYLE('',(#722));
#721=SURFACE_STYLE_FILL_AREA(#723);
#722=SURFACE_STYLE_FILL_AREA(#724);
#723=FILL_AREA_STYLE('Stahl - satiniert',(#725));
#724=FILL_AREA_STYLE('Kunststoff - gl\X\E4nzend (Schwarz)',(#726));
#725=FILL_AREA_STYLE_COLOUR('Stahl - satiniert',#727);
#726=FILL_AREA_STYLE_COLOUR('Kunststoff - gl\X\E4nzend (Schwarz)',#728);
#727=COLOUR_RGB('Stahl - satiniert',0.627450980392157,0.627450980392157,
0.627450980392157);
#728=COLOUR_RGB('Kunststoff - gl\X\E4nzend (Schwarz)',0.0980392156862745,
0.0980392156862745,0.0980392156862745);
ENDSEC;
END-ISO-10303-21;
