ISO-10303-21;
HEADER;
/* Generated by software containing ST-Developer
 * from STEP Tools, Inc. (www.steptools.com) 
 */

FILE_DESCRIPTION(
/* description */ (''),
/* implementation_level */ '2;1');

FILE_NAME(
/* name */ 'Schwungrad_Halter_Motor.step',
/* time_stamp */ '2026-06-28T16:59:17+02:00',
/* author */ (''),
/* organization */ (''),
/* preprocessor_version */ 'ST-DEVELOPER v20.1',
/* originating_system */ 'Autodesk Translation Framework v15.8.0.0',
/* authorisation */ '');

FILE_SCHEMA (('AUTOMOTIVE_DESIGN { 1 0 10303 214 3 1 1 }'));
ENDSEC;

DATA;
#10=MECHANICAL_DESIGN_GEOMETRIC_PRESENTATION_REPRESENTATION('',(#13),#956);
#11=SHAPE_REPRESENTATION_RELATIONSHIP('SRR','None',#963,#12);
#12=ADVANCED_BREP_SHAPE_REPRESENTATION('',(#14),#955);
#13=STYLED_ITEM('',(#973),#14);
#14=MANIFOLD_SOLID_BREP('Halter_Motor_TH_V',#544);
#15=FACE_BOUND('',#86,.T.);
#16=FACE_BOUND('',#87,.T.);
#17=FACE_BOUND('',#88,.T.);
#18=FACE_BOUND('',#89,.T.);
#19=FACE_BOUND('',#90,.T.);
#20=FACE_BOUND('',#91,.T.);
#21=FACE_BOUND('',#92,.T.);
#22=FACE_BOUND('',#99,.T.);
#23=FACE_BOUND('',#103,.T.);
#24=FACE_BOUND('',#107,.T.);
#25=FACE_BOUND('',#111,.T.);
#26=FACE_BOUND('',#115,.T.);
#27=FACE_BOUND('',#119,.T.);
#28=FACE_BOUND('',#124,.T.);
#29=FACE_BOUND('',#129,.T.);
#30=FACE_BOUND('',#130,.T.);
#31=FACE_BOUND('',#131,.T.);
#32=FACE_BOUND('',#132,.T.);
#33=FACE_BOUND('',#133,.T.);
#34=FACE_BOUND('',#136,.T.);
#35=FACE_BOUND('',#137,.T.);
#36=FACE_BOUND('',#138,.T.);
#37=PLANE('',#561);
#38=PLANE('',#572);
#39=PLANE('',#577);
#40=PLANE('',#580);
#41=PLANE('',#586);
#42=PLANE('',#592);
#43=PLANE('',#598);
#44=PLANE('',#604);
#45=PLANE('',#610);
#46=PLANE('',#619);
#47=PLANE('',#623);
#48=PLANE('',#624);
#49=PLANE('',#625);
#50=PLANE('',#628);
#51=FACE_OUTER_BOUND('',#84,.T.);
#52=FACE_OUTER_BOUND('',#85,.T.);
#53=FACE_OUTER_BOUND('',#93,.T.);
#54=FACE_OUTER_BOUND('',#94,.T.);
#55=FACE_OUTER_BOUND('',#95,.T.);
#56=FACE_OUTER_BOUND('',#96,.T.);
#57=FACE_OUTER_BOUND('',#97,.T.);
#58=FACE_OUTER_BOUND('',#98,.T.);
#59=FACE_OUTER_BOUND('',#100,.T.);
#60=FACE_OUTER_BOUND('',#101,.T.);
#61=FACE_OUTER_BOUND('',#102,.T.);
#62=FACE_OUTER_BOUND('',#104,.T.);
#63=FACE_OUTER_BOUND('',#105,.T.);
#64=FACE_OUTER_BOUND('',#106,.T.);
#65=FACE_OUTER_BOUND('',#108,.T.);
#66=FACE_OUTER_BOUND('',#109,.T.);
#67=FACE_OUTER_BOUND('',#110,.T.);
#68=FACE_OUTER_BOUND('',#112,.T.);
#69=FACE_OUTER_BOUND('',#113,.T.);
#70=FACE_OUTER_BOUND('',#114,.T.);
#71=FACE_OUTER_BOUND('',#116,.T.);
#72=FACE_OUTER_BOUND('',#117,.T.);
#73=FACE_OUTER_BOUND('',#118,.T.);
#74=FACE_OUTER_BOUND('',#120,.T.);
#75=FACE_OUTER_BOUND('',#121,.T.);
#76=FACE_OUTER_BOUND('',#122,.T.);
#77=FACE_OUTER_BOUND('',#123,.T.);
#78=FACE_OUTER_BOUND('',#125,.T.);
#79=FACE_OUTER_BOUND('',#126,.T.);
#80=FACE_OUTER_BOUND('',#127,.T.);
#81=FACE_OUTER_BOUND('',#128,.T.);
#82=FACE_OUTER_BOUND('',#134,.T.);
#83=FACE_OUTER_BOUND('',#135,.T.);
#84=EDGE_LOOP('',(#354,#355,#356,#357));
#85=EDGE_LOOP('',(#358,#359,#360,#361,#362,#363,#364,#365));
#86=EDGE_LOOP('',(#366));
#87=EDGE_LOOP('',(#367));
#88=EDGE_LOOP('',(#368));
#89=EDGE_LOOP('',(#369));
#90=EDGE_LOOP('',(#370));
#91=EDGE_LOOP('',(#371));
#92=EDGE_LOOP('',(#372));
#93=EDGE_LOOP('',(#373,#374,#375,#376));
#94=EDGE_LOOP('',(#377,#378,#379,#380));
#95=EDGE_LOOP('',(#381,#382,#383,#384));
#96=EDGE_LOOP('',(#385,#386,#387,#388));
#97=EDGE_LOOP('',(#389,#390,#391,#392));
#98=EDGE_LOOP('',(#393));
#99=EDGE_LOOP('',(#394));
#100=EDGE_LOOP('',(#395,#396,#397,#398));
#101=EDGE_LOOP('',(#399,#400,#401,#402));
#102=EDGE_LOOP('',(#403));
#103=EDGE_LOOP('',(#404));
#104=EDGE_LOOP('',(#405,#406,#407,#408));
#105=EDGE_LOOP('',(#409,#410,#411,#412));
#106=EDGE_LOOP('',(#413));
#107=EDGE_LOOP('',(#414));
#108=EDGE_LOOP('',(#415,#416,#417,#418));
#109=EDGE_LOOP('',(#419,#420,#421,#422));
#110=EDGE_LOOP('',(#423));
#111=EDGE_LOOP('',(#424));
#112=EDGE_LOOP('',(#425,#426,#427,#428));
#113=EDGE_LOOP('',(#429,#430,#431,#432));
#114=EDGE_LOOP('',(#433));
#115=EDGE_LOOP('',(#434));
#116=EDGE_LOOP('',(#435,#436,#437,#438));
#117=EDGE_LOOP('',(#439,#440,#441,#442));
#118=EDGE_LOOP('',(#443));
#119=EDGE_LOOP('',(#444));
#120=EDGE_LOOP('',(#445,#446,#447,#448));
#121=EDGE_LOOP('',(#449,#450,#451,#452));
#122=EDGE_LOOP('',(#453,#454,#455,#456));
#123=EDGE_LOOP('',(#457));
#124=EDGE_LOOP('',(#458));
#125=EDGE_LOOP('',(#459,#460,#461,#462));
#126=EDGE_LOOP('',(#463,#464,#465,#466));
#127=EDGE_LOOP('',(#467,#468,#469,#470));
#128=EDGE_LOOP('',(#471,#472,#473,#474,#475,#476,#477,#478));
#129=EDGE_LOOP('',(#479));
#130=EDGE_LOOP('',(#480));
#131=EDGE_LOOP('',(#481));
#132=EDGE_LOOP('',(#482));
#133=EDGE_LOOP('',(#483));
#134=EDGE_LOOP('',(#484,#485,#486,#487));
#135=EDGE_LOOP('',(#488));
#136=EDGE_LOOP('',(#489));
#137=EDGE_LOOP('',(#490));
#138=EDGE_LOOP('',(#491));
#139=LINE('',#810,#170);
#140=LINE('',#813,#171);
#141=LINE('',#816,#172);
#142=LINE('',#820,#173);
#143=LINE('',#824,#174);
#144=LINE('',#827,#175);
#145=LINE('',#844,#176);
#146=LINE('',#845,#177);
#147=LINE('',#849,#178);
#148=LINE('',#854,#179);
#149=LINE('',#855,#180);
#150=LINE('',#858,#181);
#151=LINE('',#859,#182);
#152=LINE('',#863,#183);
#153=LINE('',#870,#184);
#154=LINE('',#873,#185);
#155=LINE('',#881,#186);
#156=LINE('',#884,#187);
#157=LINE('',#892,#188);
#158=LINE('',#895,#189);
#159=LINE('',#903,#190);
#160=LINE('',#906,#191);
#161=LINE('',#914,#192);
#162=LINE('',#917,#193);
#163=LINE('',#925,#194);
#164=LINE('',#928,#195);
#165=LINE('',#934,#196);
#166=LINE('',#941,#197);
#167=LINE('',#944,#198);
#168=LINE('',#946,#199);
#169=LINE('',#951,#200);
#170=VECTOR('',#635,10.);
#171=VECTOR('',#638,10.);
#172=VECTOR('',#641,10.);
#173=VECTOR('',#644,10.);
#174=VECTOR('',#647,10.);
#175=VECTOR('',#650,10.);
#176=VECTOR('',#667,10.);
#177=VECTOR('',#668,10.);
#178=VECTOR('',#673,10.);
#179=VECTOR('',#678,10.);
#180=VECTOR('',#679,10.);
#181=VECTOR('',#682,10.);
#182=VECTOR('',#683,10.);
#183=VECTOR('',#688,10.);
#184=VECTOR('',#697,4.);
#185=VECTOR('',#700,2.25);
#186=VECTOR('',#711,4.);
#187=VECTOR('',#714,2.25);
#188=VECTOR('',#725,4.);
#189=VECTOR('',#728,2.25);
#190=VECTOR('',#739,4.);
#191=VECTOR('',#742,2.25);
#192=VECTOR('',#753,4.);
#193=VECTOR('',#756,2.25);
#194=VECTOR('',#767,4.);
#195=VECTOR('',#770,2.25);
#196=VECTOR('',#777,24.9);
#197=VECTOR('',#786,22.35);
#198=VECTOR('',#791,10.);
#199=VECTOR('',#794,10.);
#200=VECTOR('',#801,8.8);
#201=CIRCLE('',#559,5.);
#202=CIRCLE('',#560,5.);
#203=CIRCLE('',#562,5.);
#204=CIRCLE('',#563,5.);
#205=CIRCLE('',#564,5.);
#206=CIRCLE('',#565,4.);
#207=CIRCLE('',#566,4.);
#208=CIRCLE('',#567,4.);
#209=CIRCLE('',#568,4.);
#210=CIRCLE('',#569,8.8);
#211=CIRCLE('',#570,4.);
#212=CIRCLE('',#571,4.);
#213=CIRCLE('',#574,5.);
#214=CIRCLE('',#576,5.);
#215=CIRCLE('',#579,5.);
#216=CIRCLE('',#581,4.);
#217=CIRCLE('',#582,2.25);
#218=CIRCLE('',#585,2.25);
#219=CIRCLE('',#587,4.);
#220=CIRCLE('',#588,2.25);
#221=CIRCLE('',#591,2.25);
#222=CIRCLE('',#593,4.);
#223=CIRCLE('',#594,2.25);
#224=CIRCLE('',#597,2.25);
#225=CIRCLE('',#599,4.);
#226=CIRCLE('',#600,2.25);
#227=CIRCLE('',#603,2.25);
#228=CIRCLE('',#605,4.);
#229=CIRCLE('',#606,2.25);
#230=CIRCLE('',#609,2.25);
#231=CIRCLE('',#611,4.);
#232=CIRCLE('',#612,2.25);
#233=CIRCLE('',#615,2.25);
#234=CIRCLE('',#617,24.9);
#235=CIRCLE('',#618,24.9);
#236=CIRCLE('',#620,22.35);
#237=CIRCLE('',#622,22.35);
#238=CIRCLE('',#627,8.8);
#239=VERTEX_POINT('',#806);
#240=VERTEX_POINT('',#807);
#241=VERTEX_POINT('',#809);
#242=VERTEX_POINT('',#811);
#243=VERTEX_POINT('',#815);
#244=VERTEX_POINT('',#817);
#245=VERTEX_POINT('',#819);
#246=VERTEX_POINT('',#821);
#247=VERTEX_POINT('',#823);
#248=VERTEX_POINT('',#825);
#249=VERTEX_POINT('',#828);
#250=VERTEX_POINT('',#830);
#251=VERTEX_POINT('',#832);
#252=VERTEX_POINT('',#834);
#253=VERTEX_POINT('',#836);
#254=VERTEX_POINT('',#838);
#255=VERTEX_POINT('',#840);
#256=VERTEX_POINT('',#843);
#257=VERTEX_POINT('',#847);
#258=VERTEX_POINT('',#851);
#259=VERTEX_POINT('',#852);
#260=VERTEX_POINT('',#857);
#261=VERTEX_POINT('',#861);
#262=VERTEX_POINT('',#865);
#263=VERTEX_POINT('',#867);
#264=VERTEX_POINT('',#872);
#265=VERTEX_POINT('',#876);
#266=VERTEX_POINT('',#878);
#267=VERTEX_POINT('',#883);
#268=VERTEX_POINT('',#887);
#269=VERTEX_POINT('',#889);
#270=VERTEX_POINT('',#894);
#271=VERTEX_POINT('',#898);
#272=VERTEX_POINT('',#900);
#273=VERTEX_POINT('',#905);
#274=VERTEX_POINT('',#909);
#275=VERTEX_POINT('',#911);
#276=VERTEX_POINT('',#916);
#277=VERTEX_POINT('',#920);
#278=VERTEX_POINT('',#922);
#279=VERTEX_POINT('',#927);
#280=VERTEX_POINT('',#931);
#281=VERTEX_POINT('',#933);
#282=VERTEX_POINT('',#937);
#283=VERTEX_POINT('',#940);
#284=VERTEX_POINT('',#949);
#285=EDGE_CURVE('',#239,#240,#201,.T.);
#286=EDGE_CURVE('',#240,#241,#139,.T.);
#287=EDGE_CURVE('',#241,#242,#202,.T.);
#288=EDGE_CURVE('',#242,#239,#140,.T.);
#289=EDGE_CURVE('',#241,#243,#141,.T.);
#290=EDGE_CURVE('',#244,#243,#203,.T.);
#291=EDGE_CURVE('',#244,#245,#142,.T.);
#292=EDGE_CURVE('',#246,#245,#204,.T.);
#293=EDGE_CURVE('',#246,#247,#143,.T.);
#294=EDGE_CURVE('',#248,#247,#205,.T.);
#295=EDGE_CURVE('',#248,#242,#144,.T.);
#296=EDGE_CURVE('',#249,#249,#206,.T.);
#297=EDGE_CURVE('',#250,#250,#207,.T.);
#298=EDGE_CURVE('',#251,#251,#208,.T.);
#299=EDGE_CURVE('',#252,#252,#209,.T.);
#300=EDGE_CURVE('',#253,#253,#210,.T.);
#301=EDGE_CURVE('',#254,#254,#211,.T.);
#302=EDGE_CURVE('',#255,#255,#212,.T.);
#303=EDGE_CURVE('',#256,#240,#145,.T.);
#304=EDGE_CURVE('',#243,#256,#146,.T.);
#305=EDGE_CURVE('',#256,#257,#213,.T.);
#306=EDGE_CURVE('',#257,#244,#147,.T.);
#307=EDGE_CURVE('',#258,#259,#214,.T.);
#308=EDGE_CURVE('',#259,#248,#148,.T.);
#309=EDGE_CURVE('',#247,#258,#149,.T.);
#310=EDGE_CURVE('',#260,#246,#150,.T.);
#311=EDGE_CURVE('',#258,#260,#151,.T.);
#312=EDGE_CURVE('',#261,#260,#215,.T.);
#313=EDGE_CURVE('',#245,#261,#152,.T.);
#314=EDGE_CURVE('',#262,#262,#216,.T.);
#315=EDGE_CURVE('',#263,#263,#217,.T.);
#316=EDGE_CURVE('',#255,#262,#153,.T.);
#317=EDGE_CURVE('',#263,#264,#154,.T.);
#318=EDGE_CURVE('',#264,#264,#218,.T.);
#319=EDGE_CURVE('',#265,#265,#219,.T.);
#320=EDGE_CURVE('',#266,#266,#220,.T.);
#321=EDGE_CURVE('',#254,#265,#155,.T.);
#322=EDGE_CURVE('',#266,#267,#156,.T.);
#323=EDGE_CURVE('',#267,#267,#221,.T.);
#324=EDGE_CURVE('',#268,#268,#222,.T.);
#325=EDGE_CURVE('',#269,#269,#223,.T.);
#326=EDGE_CURVE('',#249,#268,#157,.T.);
#327=EDGE_CURVE('',#269,#270,#158,.T.);
#328=EDGE_CURVE('',#270,#270,#224,.T.);
#329=EDGE_CURVE('',#271,#271,#225,.T.);
#330=EDGE_CURVE('',#272,#272,#226,.T.);
#331=EDGE_CURVE('',#250,#271,#159,.T.);
#332=EDGE_CURVE('',#272,#273,#160,.T.);
#333=EDGE_CURVE('',#273,#273,#227,.T.);
#334=EDGE_CURVE('',#274,#274,#228,.T.);
#335=EDGE_CURVE('',#275,#275,#229,.T.);
#336=EDGE_CURVE('',#251,#274,#161,.T.);
#337=EDGE_CURVE('',#275,#276,#162,.T.);
#338=EDGE_CURVE('',#276,#276,#230,.T.);
#339=EDGE_CURVE('',#277,#277,#231,.T.);
#340=EDGE_CURVE('',#278,#278,#232,.T.);
#341=EDGE_CURVE('',#252,#277,#163,.T.);
#342=EDGE_CURVE('',#278,#279,#164,.T.);
#343=EDGE_CURVE('',#279,#279,#233,.T.);
#344=EDGE_CURVE('',#280,#280,#234,.T.);
#345=EDGE_CURVE('',#280,#281,#165,.T.);
#346=EDGE_CURVE('',#281,#281,#235,.T.);
#347=EDGE_CURVE('',#282,#282,#236,.T.);
#348=EDGE_CURVE('',#282,#283,#166,.T.);
#349=EDGE_CURVE('',#283,#283,#237,.T.);
#350=EDGE_CURVE('',#261,#257,#167,.T.);
#351=EDGE_CURVE('',#239,#259,#168,.T.);
#352=EDGE_CURVE('',#284,#284,#238,.T.);
#353=EDGE_CURVE('',#284,#253,#169,.T.);
#354=ORIENTED_EDGE('',*,*,#285,.T.);
#355=ORIENTED_EDGE('',*,*,#286,.T.);
#356=ORIENTED_EDGE('',*,*,#287,.T.);
#357=ORIENTED_EDGE('',*,*,#288,.T.);
#358=ORIENTED_EDGE('',*,*,#287,.F.);
#359=ORIENTED_EDGE('',*,*,#289,.T.);
#360=ORIENTED_EDGE('',*,*,#290,.F.);
#361=ORIENTED_EDGE('',*,*,#291,.T.);
#362=ORIENTED_EDGE('',*,*,#292,.F.);
#363=ORIENTED_EDGE('',*,*,#293,.T.);
#364=ORIENTED_EDGE('',*,*,#294,.F.);
#365=ORIENTED_EDGE('',*,*,#295,.T.);
#366=ORIENTED_EDGE('',*,*,#296,.T.);
#367=ORIENTED_EDGE('',*,*,#297,.T.);
#368=ORIENTED_EDGE('',*,*,#298,.T.);
#369=ORIENTED_EDGE('',*,*,#299,.T.);
#370=ORIENTED_EDGE('',*,*,#300,.F.);
#371=ORIENTED_EDGE('',*,*,#301,.T.);
#372=ORIENTED_EDGE('',*,*,#302,.T.);
#373=ORIENTED_EDGE('',*,*,#286,.F.);
#374=ORIENTED_EDGE('',*,*,#303,.F.);
#375=ORIENTED_EDGE('',*,*,#304,.F.);
#376=ORIENTED_EDGE('',*,*,#289,.F.);
#377=ORIENTED_EDGE('',*,*,#305,.T.);
#378=ORIENTED_EDGE('',*,*,#306,.T.);
#379=ORIENTED_EDGE('',*,*,#290,.T.);
#380=ORIENTED_EDGE('',*,*,#304,.T.);
#381=ORIENTED_EDGE('',*,*,#307,.T.);
#382=ORIENTED_EDGE('',*,*,#308,.T.);
#383=ORIENTED_EDGE('',*,*,#294,.T.);
#384=ORIENTED_EDGE('',*,*,#309,.T.);
#385=ORIENTED_EDGE('',*,*,#309,.F.);
#386=ORIENTED_EDGE('',*,*,#293,.F.);
#387=ORIENTED_EDGE('',*,*,#310,.F.);
#388=ORIENTED_EDGE('',*,*,#311,.F.);
#389=ORIENTED_EDGE('',*,*,#312,.T.);
#390=ORIENTED_EDGE('',*,*,#310,.T.);
#391=ORIENTED_EDGE('',*,*,#292,.T.);
#392=ORIENTED_EDGE('',*,*,#313,.T.);
#393=ORIENTED_EDGE('',*,*,#314,.F.);
#394=ORIENTED_EDGE('',*,*,#315,.T.);
#395=ORIENTED_EDGE('',*,*,#302,.F.);
#396=ORIENTED_EDGE('',*,*,#316,.T.);
#397=ORIENTED_EDGE('',*,*,#314,.T.);
#398=ORIENTED_EDGE('',*,*,#316,.F.);
#399=ORIENTED_EDGE('',*,*,#315,.F.);
#400=ORIENTED_EDGE('',*,*,#317,.T.);
#401=ORIENTED_EDGE('',*,*,#318,.F.);
#402=ORIENTED_EDGE('',*,*,#317,.F.);
#403=ORIENTED_EDGE('',*,*,#319,.F.);
#404=ORIENTED_EDGE('',*,*,#320,.T.);
#405=ORIENTED_EDGE('',*,*,#301,.F.);
#406=ORIENTED_EDGE('',*,*,#321,.T.);
#407=ORIENTED_EDGE('',*,*,#319,.T.);
#408=ORIENTED_EDGE('',*,*,#321,.F.);
#409=ORIENTED_EDGE('',*,*,#320,.F.);
#410=ORIENTED_EDGE('',*,*,#322,.T.);
#411=ORIENTED_EDGE('',*,*,#323,.F.);
#412=ORIENTED_EDGE('',*,*,#322,.F.);
#413=ORIENTED_EDGE('',*,*,#324,.F.);
#414=ORIENTED_EDGE('',*,*,#325,.T.);
#415=ORIENTED_EDGE('',*,*,#296,.F.);
#416=ORIENTED_EDGE('',*,*,#326,.T.);
#417=ORIENTED_EDGE('',*,*,#324,.T.);
#418=ORIENTED_EDGE('',*,*,#326,.F.);
#419=ORIENTED_EDGE('',*,*,#325,.F.);
#420=ORIENTED_EDGE('',*,*,#327,.T.);
#421=ORIENTED_EDGE('',*,*,#328,.F.);
#422=ORIENTED_EDGE('',*,*,#327,.F.);
#423=ORIENTED_EDGE('',*,*,#329,.F.);
#424=ORIENTED_EDGE('',*,*,#330,.T.);
#425=ORIENTED_EDGE('',*,*,#297,.F.);
#426=ORIENTED_EDGE('',*,*,#331,.T.);
#427=ORIENTED_EDGE('',*,*,#329,.T.);
#428=ORIENTED_EDGE('',*,*,#331,.F.);
#429=ORIENTED_EDGE('',*,*,#330,.F.);
#430=ORIENTED_EDGE('',*,*,#332,.T.);
#431=ORIENTED_EDGE('',*,*,#333,.F.);
#432=ORIENTED_EDGE('',*,*,#332,.F.);
#433=ORIENTED_EDGE('',*,*,#334,.F.);
#434=ORIENTED_EDGE('',*,*,#335,.T.);
#435=ORIENTED_EDGE('',*,*,#298,.F.);
#436=ORIENTED_EDGE('',*,*,#336,.T.);
#437=ORIENTED_EDGE('',*,*,#334,.T.);
#438=ORIENTED_EDGE('',*,*,#336,.F.);
#439=ORIENTED_EDGE('',*,*,#335,.F.);
#440=ORIENTED_EDGE('',*,*,#337,.T.);
#441=ORIENTED_EDGE('',*,*,#338,.F.);
#442=ORIENTED_EDGE('',*,*,#337,.F.);
#443=ORIENTED_EDGE('',*,*,#339,.F.);
#444=ORIENTED_EDGE('',*,*,#340,.T.);
#445=ORIENTED_EDGE('',*,*,#299,.F.);
#446=ORIENTED_EDGE('',*,*,#341,.T.);
#447=ORIENTED_EDGE('',*,*,#339,.T.);
#448=ORIENTED_EDGE('',*,*,#341,.F.);
#449=ORIENTED_EDGE('',*,*,#340,.F.);
#450=ORIENTED_EDGE('',*,*,#342,.T.);
#451=ORIENTED_EDGE('',*,*,#343,.F.);
#452=ORIENTED_EDGE('',*,*,#342,.F.);
#453=ORIENTED_EDGE('',*,*,#344,.F.);
#454=ORIENTED_EDGE('',*,*,#345,.T.);
#455=ORIENTED_EDGE('',*,*,#346,.F.);
#456=ORIENTED_EDGE('',*,*,#345,.F.);
#457=ORIENTED_EDGE('',*,*,#344,.T.);
#458=ORIENTED_EDGE('',*,*,#347,.T.);
#459=ORIENTED_EDGE('',*,*,#347,.F.);
#460=ORIENTED_EDGE('',*,*,#348,.T.);
#461=ORIENTED_EDGE('',*,*,#349,.F.);
#462=ORIENTED_EDGE('',*,*,#348,.F.);
#463=ORIENTED_EDGE('',*,*,#306,.F.);
#464=ORIENTED_EDGE('',*,*,#350,.F.);
#465=ORIENTED_EDGE('',*,*,#313,.F.);
#466=ORIENTED_EDGE('',*,*,#291,.F.);
#467=ORIENTED_EDGE('',*,*,#288,.F.);
#468=ORIENTED_EDGE('',*,*,#295,.F.);
#469=ORIENTED_EDGE('',*,*,#308,.F.);
#470=ORIENTED_EDGE('',*,*,#351,.F.);
#471=ORIENTED_EDGE('',*,*,#285,.F.);
#472=ORIENTED_EDGE('',*,*,#351,.T.);
#473=ORIENTED_EDGE('',*,*,#307,.F.);
#474=ORIENTED_EDGE('',*,*,#311,.T.);
#475=ORIENTED_EDGE('',*,*,#312,.F.);
#476=ORIENTED_EDGE('',*,*,#350,.T.);
#477=ORIENTED_EDGE('',*,*,#305,.F.);
#478=ORIENTED_EDGE('',*,*,#303,.T.);
#479=ORIENTED_EDGE('',*,*,#346,.T.);
#480=ORIENTED_EDGE('',*,*,#343,.T.);
#481=ORIENTED_EDGE('',*,*,#338,.T.);
#482=ORIENTED_EDGE('',*,*,#333,.T.);
#483=ORIENTED_EDGE('',*,*,#328,.T.);
#484=ORIENTED_EDGE('',*,*,#352,.F.);
#485=ORIENTED_EDGE('',*,*,#353,.T.);
#486=ORIENTED_EDGE('',*,*,#300,.T.);
#487=ORIENTED_EDGE('',*,*,#353,.F.);
#488=ORIENTED_EDGE('',*,*,#349,.T.);
#489=ORIENTED_EDGE('',*,*,#318,.T.);
#490=ORIENTED_EDGE('',*,*,#323,.T.);
#491=ORIENTED_EDGE('',*,*,#352,.T.);
#492=CYLINDRICAL_SURFACE('',#558,5.);
#493=CYLINDRICAL_SURFACE('',#573,5.);
#494=CYLINDRICAL_SURFACE('',#575,5.);
#495=CYLINDRICAL_SURFACE('',#578,5.);
#496=CYLINDRICAL_SURFACE('',#583,4.);
#497=CYLINDRICAL_SURFACE('',#584,2.25);
#498=CYLINDRICAL_SURFACE('',#589,4.);
#499=CYLINDRICAL_SURFACE('',#590,2.25);
#500=CYLINDRICAL_SURFACE('',#595,4.);
#501=CYLINDRICAL_SURFACE('',#596,2.25);
#502=CYLINDRICAL_SURFACE('',#601,4.);
#503=CYLINDRICAL_SURFACE('',#602,2.25);
#504=CYLINDRICAL_SURFACE('',#607,4.);
#505=CYLINDRICAL_SURFACE('',#608,2.25);
#506=CYLINDRICAL_SURFACE('',#613,4.);
#507=CYLINDRICAL_SURFACE('',#614,2.25);
#508=CYLINDRICAL_SURFACE('',#616,24.9);
#509=CYLINDRICAL_SURFACE('',#621,22.35);
#510=CYLINDRICAL_SURFACE('',#626,8.8);
#511=ADVANCED_FACE('',(#51),#492,.T.);
#512=ADVANCED_FACE('',(#52,#15,#16,#17,#18,#19,#20,#21),#37,.F.);
#513=ADVANCED_FACE('',(#53),#38,.T.);
#514=ADVANCED_FACE('',(#54),#493,.T.);
#515=ADVANCED_FACE('',(#55),#494,.T.);
#516=ADVANCED_FACE('',(#56),#39,.T.);
#517=ADVANCED_FACE('',(#57),#495,.T.);
#518=ADVANCED_FACE('',(#58,#22),#40,.F.);
#519=ADVANCED_FACE('',(#59),#496,.F.);
#520=ADVANCED_FACE('',(#60),#497,.F.);
#521=ADVANCED_FACE('',(#61,#23),#41,.F.);
#522=ADVANCED_FACE('',(#62),#498,.F.);
#523=ADVANCED_FACE('',(#63),#499,.F.);
#524=ADVANCED_FACE('',(#64,#24),#42,.F.);
#525=ADVANCED_FACE('',(#65),#500,.F.);
#526=ADVANCED_FACE('',(#66),#501,.F.);
#527=ADVANCED_FACE('',(#67,#25),#43,.F.);
#528=ADVANCED_FACE('',(#68),#502,.F.);
#529=ADVANCED_FACE('',(#69),#503,.F.);
#530=ADVANCED_FACE('',(#70,#26),#44,.F.);
#531=ADVANCED_FACE('',(#71),#504,.F.);
#532=ADVANCED_FACE('',(#72),#505,.F.);
#533=ADVANCED_FACE('',(#73,#27),#45,.F.);
#534=ADVANCED_FACE('',(#74),#506,.F.);
#535=ADVANCED_FACE('',(#75),#507,.F.);
#536=ADVANCED_FACE('',(#76),#508,.T.);
#537=ADVANCED_FACE('',(#77,#28),#46,.T.);
#538=ADVANCED_FACE('',(#78),#509,.F.);
#539=ADVANCED_FACE('',(#79),#47,.T.);
#540=ADVANCED_FACE('',(#80),#48,.T.);
#541=ADVANCED_FACE('',(#81,#29,#30,#31,#32,#33),#49,.T.);
#542=ADVANCED_FACE('',(#82),#510,.F.);
#543=ADVANCED_FACE('',(#83,#34,#35,#36),#50,.T.);
#544=CLOSED_SHELL('',(#511,#512,#513,#514,#515,#516,#517,#518,#519,#520,
#521,#522,#523,#524,#525,#526,#527,#528,#529,#530,#531,#532,#533,#534,#535,
#536,#537,#538,#539,#540,#541,#542,#543));
#545=DERIVED_UNIT_ELEMENT(#547,1.);
#546=DERIVED_UNIT_ELEMENT(#958,-3.);
#547=(
MASS_UNIT()
NAMED_UNIT(*)
SI_UNIT(.KILO.,.GRAM.)
);
#548=DERIVED_UNIT((#545,#546));
#549=MEASURE_REPRESENTATION_ITEM('density measure',
POSITIVE_RATIO_MEASURE(7850.),#548);
#550=PROPERTY_DEFINITION_REPRESENTATION(#555,#552);
#551=PROPERTY_DEFINITION_REPRESENTATION(#556,#553);
#552=REPRESENTATION('material name',(#554),#955);
#553=REPRESENTATION('density',(#549),#955);
#554=DESCRIPTIVE_REPRESENTATION_ITEM('Stahl','Stahl');
#555=PROPERTY_DEFINITION('material property','material name',#965);
#556=PROPERTY_DEFINITION('material property','density of part',#965);
#557=AXIS2_PLACEMENT_3D('',#804,#629,#630);
#558=AXIS2_PLACEMENT_3D('',#805,#631,#632);
#559=AXIS2_PLACEMENT_3D('',#808,#633,#634);
#560=AXIS2_PLACEMENT_3D('',#812,#636,#637);
#561=AXIS2_PLACEMENT_3D('',#814,#639,#640);
#562=AXIS2_PLACEMENT_3D('',#818,#642,#643);
#563=AXIS2_PLACEMENT_3D('',#822,#645,#646);
#564=AXIS2_PLACEMENT_3D('',#826,#648,#649);
#565=AXIS2_PLACEMENT_3D('',#829,#651,#652);
#566=AXIS2_PLACEMENT_3D('',#831,#653,#654);
#567=AXIS2_PLACEMENT_3D('',#833,#655,#656);
#568=AXIS2_PLACEMENT_3D('',#835,#657,#658);
#569=AXIS2_PLACEMENT_3D('',#837,#659,#660);
#570=AXIS2_PLACEMENT_3D('',#839,#661,#662);
#571=AXIS2_PLACEMENT_3D('',#841,#663,#664);
#572=AXIS2_PLACEMENT_3D('',#842,#665,#666);
#573=AXIS2_PLACEMENT_3D('',#846,#669,#670);
#574=AXIS2_PLACEMENT_3D('',#848,#671,#672);
#575=AXIS2_PLACEMENT_3D('',#850,#674,#675);
#576=AXIS2_PLACEMENT_3D('',#853,#676,#677);
#577=AXIS2_PLACEMENT_3D('',#856,#680,#681);
#578=AXIS2_PLACEMENT_3D('',#860,#684,#685);
#579=AXIS2_PLACEMENT_3D('',#862,#686,#687);
#580=AXIS2_PLACEMENT_3D('',#864,#689,#690);
#581=AXIS2_PLACEMENT_3D('',#866,#691,#692);
#582=AXIS2_PLACEMENT_3D('',#868,#693,#694);
#583=AXIS2_PLACEMENT_3D('',#869,#695,#696);
#584=AXIS2_PLACEMENT_3D('',#871,#698,#699);
#585=AXIS2_PLACEMENT_3D('',#874,#701,#702);
#586=AXIS2_PLACEMENT_3D('',#875,#703,#704);
#587=AXIS2_PLACEMENT_3D('',#877,#705,#706);
#588=AXIS2_PLACEMENT_3D('',#879,#707,#708);
#589=AXIS2_PLACEMENT_3D('',#880,#709,#710);
#590=AXIS2_PLACEMENT_3D('',#882,#712,#713);
#591=AXIS2_PLACEMENT_3D('',#885,#715,#716);
#592=AXIS2_PLACEMENT_3D('',#886,#717,#718);
#593=AXIS2_PLACEMENT_3D('',#888,#719,#720);
#594=AXIS2_PLACEMENT_3D('',#890,#721,#722);
#595=AXIS2_PLACEMENT_3D('',#891,#723,#724);
#596=AXIS2_PLACEMENT_3D('',#893,#726,#727);
#597=AXIS2_PLACEMENT_3D('',#896,#729,#730);
#598=AXIS2_PLACEMENT_3D('',#897,#731,#732);
#599=AXIS2_PLACEMENT_3D('',#899,#733,#734);
#600=AXIS2_PLACEMENT_3D('',#901,#735,#736);
#601=AXIS2_PLACEMENT_3D('',#902,#737,#738);
#602=AXIS2_PLACEMENT_3D('',#904,#740,#741);
#603=AXIS2_PLACEMENT_3D('',#907,#743,#744);
#604=AXIS2_PLACEMENT_3D('',#908,#745,#746);
#605=AXIS2_PLACEMENT_3D('',#910,#747,#748);
#606=AXIS2_PLACEMENT_3D('',#912,#749,#750);
#607=AXIS2_PLACEMENT_3D('',#913,#751,#752);
#608=AXIS2_PLACEMENT_3D('',#915,#754,#755);
#609=AXIS2_PLACEMENT_3D('',#918,#757,#758);
#610=AXIS2_PLACEMENT_3D('',#919,#759,#760);
#611=AXIS2_PLACEMENT_3D('',#921,#761,#762);
#612=AXIS2_PLACEMENT_3D('',#923,#763,#764);
#613=AXIS2_PLACEMENT_3D('',#924,#765,#766);
#614=AXIS2_PLACEMENT_3D('',#926,#768,#769);
#615=AXIS2_PLACEMENT_3D('',#929,#771,#772);
#616=AXIS2_PLACEMENT_3D('',#930,#773,#774);
#617=AXIS2_PLACEMENT_3D('',#932,#775,#776);
#618=AXIS2_PLACEMENT_3D('',#935,#778,#779);
#619=AXIS2_PLACEMENT_3D('',#936,#780,#781);
#620=AXIS2_PLACEMENT_3D('',#938,#782,#783);
#621=AXIS2_PLACEMENT_3D('',#939,#784,#785);
#622=AXIS2_PLACEMENT_3D('',#942,#787,#788);
#623=AXIS2_PLACEMENT_3D('',#943,#789,#790);
#624=AXIS2_PLACEMENT_3D('',#945,#792,#793);
#625=AXIS2_PLACEMENT_3D('',#947,#795,#796);
#626=AXIS2_PLACEMENT_3D('',#948,#797,#798);
#627=AXIS2_PLACEMENT_3D('',#950,#799,#800);
#628=AXIS2_PLACEMENT_3D('',#952,#802,#803);
#629=DIRECTION('axis',(0.,0.,1.));
#630=DIRECTION('refdir',(1.,0.,0.));
#631=DIRECTION('center_axis',(0.,0.,1.));
#632=DIRECTION('ref_axis',(-0.707106781186547,0.707106781186547,0.));
#633=DIRECTION('center_axis',(0.,0.,-1.));
#634=DIRECTION('ref_axis',(-0.707106781186547,0.707106781186547,0.));
#635=DIRECTION('',(0.,0.,-1.));
#636=DIRECTION('center_axis',(0.,0.,1.));
#637=DIRECTION('ref_axis',(-0.707106781186547,0.707106781186547,0.));
#638=DIRECTION('',(0.,0.,1.));
#639=DIRECTION('center_axis',(0.,0.,1.));
#640=DIRECTION('ref_axis',(1.,0.,0.));
#641=DIRECTION('',(1.,0.,0.));
#642=DIRECTION('center_axis',(0.,0.,1.));
#643=DIRECTION('ref_axis',(0.707106781186547,0.707106781186547,0.));
#644=DIRECTION('',(0.,-1.,0.));
#645=DIRECTION('center_axis',(0.,0.,1.));
#646=DIRECTION('ref_axis',(0.707106781186547,-0.707106781186547,0.));
#647=DIRECTION('',(-1.,0.,0.));
#648=DIRECTION('center_axis',(0.,0.,1.));
#649=DIRECTION('ref_axis',(-0.707106781186547,-0.707106781186547,0.));
#650=DIRECTION('',(0.,1.,0.));
#651=DIRECTION('center_axis',(0.,0.,1.));
#652=DIRECTION('ref_axis',(-1.,0.,0.));
#653=DIRECTION('center_axis',(0.,0.,1.));
#654=DIRECTION('ref_axis',(-1.,0.,0.));
#655=DIRECTION('center_axis',(0.,0.,1.));
#656=DIRECTION('ref_axis',(-1.,0.,0.));
#657=DIRECTION('center_axis',(0.,0.,1.));
#658=DIRECTION('ref_axis',(-1.,0.,0.));
#659=DIRECTION('center_axis',(0.,0.,-1.));
#660=DIRECTION('ref_axis',(1.,0.,0.));
#661=DIRECTION('center_axis',(0.,0.,1.));
#662=DIRECTION('ref_axis',(-1.,0.,0.));
#663=DIRECTION('center_axis',(0.,0.,1.));
#664=DIRECTION('ref_axis',(-1.,0.,0.));
#665=DIRECTION('center_axis',(0.,1.,0.));
#666=DIRECTION('ref_axis',(-1.,0.,0.));
#667=DIRECTION('',(-1.,0.,0.));
#668=DIRECTION('',(0.,0.,1.));
#669=DIRECTION('center_axis',(0.,0.,1.));
#670=DIRECTION('ref_axis',(0.707106781186547,0.707106781186547,0.));
#671=DIRECTION('center_axis',(0.,0.,-1.));
#672=DIRECTION('ref_axis',(0.707106781186547,0.707106781186547,0.));
#673=DIRECTION('',(0.,0.,-1.));
#674=DIRECTION('center_axis',(0.,0.,1.));
#675=DIRECTION('ref_axis',(-0.707106781186547,-0.707106781186547,0.));
#676=DIRECTION('center_axis',(0.,0.,-1.));
#677=DIRECTION('ref_axis',(-0.707106781186547,-0.707106781186547,0.));
#678=DIRECTION('',(0.,0.,-1.));
#679=DIRECTION('',(0.,0.,1.));
#680=DIRECTION('center_axis',(0.,-1.,0.));
#681=DIRECTION('ref_axis',(1.,0.,0.));
#682=DIRECTION('',(0.,0.,-1.));
#683=DIRECTION('',(1.,0.,0.));
#684=DIRECTION('center_axis',(0.,0.,1.));
#685=DIRECTION('ref_axis',(0.707106781186547,-0.707106781186547,0.));
#686=DIRECTION('center_axis',(0.,0.,-1.));
#687=DIRECTION('ref_axis',(0.707106781186547,-0.707106781186547,0.));
#688=DIRECTION('',(0.,0.,1.));
#689=DIRECTION('center_axis',(0.,0.,1.));
#690=DIRECTION('ref_axis',(-1.,0.,0.));
#691=DIRECTION('center_axis',(0.,0.,1.));
#692=DIRECTION('ref_axis',(-1.,0.,0.));
#693=DIRECTION('center_axis',(0.,0.,1.));
#694=DIRECTION('ref_axis',(-1.,0.,0.));
#695=DIRECTION('center_axis',(0.,0.,1.));
#696=DIRECTION('ref_axis',(-1.,0.,0.));
#697=DIRECTION('',(0.,0.,1.));
#698=DIRECTION('center_axis',(0.,0.,1.));
#699=DIRECTION('ref_axis',(-1.,0.,0.));
#700=DIRECTION('',(0.,0.,1.));
#701=DIRECTION('center_axis',(0.,0.,-1.));
#702=DIRECTION('ref_axis',(-1.,0.,0.));
#703=DIRECTION('center_axis',(0.,0.,1.));
#704=DIRECTION('ref_axis',(-1.,0.,0.));
#705=DIRECTION('center_axis',(0.,0.,1.));
#706=DIRECTION('ref_axis',(-1.,0.,0.));
#707=DIRECTION('center_axis',(0.,0.,1.));
#708=DIRECTION('ref_axis',(-1.,0.,0.));
#709=DIRECTION('center_axis',(0.,0.,1.));
#710=DIRECTION('ref_axis',(-1.,0.,0.));
#711=DIRECTION('',(0.,0.,1.));
#712=DIRECTION('center_axis',(0.,0.,1.));
#713=DIRECTION('ref_axis',(-1.,0.,0.));
#714=DIRECTION('',(0.,0.,1.));
#715=DIRECTION('center_axis',(0.,0.,-1.));
#716=DIRECTION('ref_axis',(-1.,0.,0.));
#717=DIRECTION('center_axis',(0.,0.,1.));
#718=DIRECTION('ref_axis',(-1.,0.,0.));
#719=DIRECTION('center_axis',(0.,0.,1.));
#720=DIRECTION('ref_axis',(-1.,0.,0.));
#721=DIRECTION('center_axis',(0.,0.,1.));
#722=DIRECTION('ref_axis',(-1.,0.,0.));
#723=DIRECTION('center_axis',(0.,0.,1.));
#724=DIRECTION('ref_axis',(-1.,0.,0.));
#725=DIRECTION('',(0.,0.,1.));
#726=DIRECTION('center_axis',(0.,0.,1.));
#727=DIRECTION('ref_axis',(-1.,0.,0.));
#728=DIRECTION('',(0.,0.,1.));
#729=DIRECTION('center_axis',(0.,0.,-1.));
#730=DIRECTION('ref_axis',(-1.,0.,0.));
#731=DIRECTION('center_axis',(0.,0.,1.));
#732=DIRECTION('ref_axis',(-1.,0.,0.));
#733=DIRECTION('center_axis',(0.,0.,1.));
#734=DIRECTION('ref_axis',(-1.,0.,0.));
#735=DIRECTION('center_axis',(0.,0.,1.));
#736=DIRECTION('ref_axis',(-1.,0.,0.));
#737=DIRECTION('center_axis',(0.,0.,1.));
#738=DIRECTION('ref_axis',(-1.,0.,0.));
#739=DIRECTION('',(0.,0.,1.));
#740=DIRECTION('center_axis',(0.,0.,1.));
#741=DIRECTION('ref_axis',(-1.,0.,0.));
#742=DIRECTION('',(0.,0.,1.));
#743=DIRECTION('center_axis',(0.,0.,-1.));
#744=DIRECTION('ref_axis',(-1.,0.,0.));
#745=DIRECTION('center_axis',(0.,0.,1.));
#746=DIRECTION('ref_axis',(-1.,0.,0.));
#747=DIRECTION('center_axis',(0.,0.,1.));
#748=DIRECTION('ref_axis',(-1.,0.,0.));
#749=DIRECTION('center_axis',(0.,0.,1.));
#750=DIRECTION('ref_axis',(-1.,0.,0.));
#751=DIRECTION('center_axis',(0.,0.,1.));
#752=DIRECTION('ref_axis',(-1.,0.,0.));
#753=DIRECTION('',(0.,0.,1.));
#754=DIRECTION('center_axis',(0.,0.,1.));
#755=DIRECTION('ref_axis',(-1.,0.,0.));
#756=DIRECTION('',(0.,0.,1.));
#757=DIRECTION('center_axis',(0.,0.,-1.));
#758=DIRECTION('ref_axis',(-1.,0.,0.));
#759=DIRECTION('center_axis',(0.,0.,1.));
#760=DIRECTION('ref_axis',(-1.,0.,0.));
#761=DIRECTION('center_axis',(0.,0.,1.));
#762=DIRECTION('ref_axis',(-1.,0.,0.));
#763=DIRECTION('center_axis',(0.,0.,1.));
#764=DIRECTION('ref_axis',(-1.,0.,0.));
#765=DIRECTION('center_axis',(0.,0.,1.));
#766=DIRECTION('ref_axis',(-1.,0.,0.));
#767=DIRECTION('',(0.,0.,1.));
#768=DIRECTION('center_axis',(0.,0.,1.));
#769=DIRECTION('ref_axis',(-1.,0.,0.));
#770=DIRECTION('',(0.,0.,1.));
#771=DIRECTION('center_axis',(0.,0.,-1.));
#772=DIRECTION('ref_axis',(-1.,0.,0.));
#773=DIRECTION('center_axis',(0.,0.,1.));
#774=DIRECTION('ref_axis',(-1.,0.,0.));
#775=DIRECTION('center_axis',(0.,0.,1.));
#776=DIRECTION('ref_axis',(-1.,0.,0.));
#777=DIRECTION('',(0.,0.,-1.));
#778=DIRECTION('center_axis',(0.,0.,-1.));
#779=DIRECTION('ref_axis',(-1.,0.,0.));
#780=DIRECTION('center_axis',(0.,0.,1.));
#781=DIRECTION('ref_axis',(-1.,0.,0.));
#782=DIRECTION('center_axis',(0.,0.,-1.));
#783=DIRECTION('ref_axis',(-1.,0.,0.));
#784=DIRECTION('center_axis',(0.,0.,1.));
#785=DIRECTION('ref_axis',(1.,0.,0.));
#786=DIRECTION('',(0.,0.,-1.));
#787=DIRECTION('center_axis',(0.,0.,1.));
#788=DIRECTION('ref_axis',(1.,0.,0.));
#789=DIRECTION('center_axis',(1.,0.,0.));
#790=DIRECTION('ref_axis',(0.,1.,0.));
#791=DIRECTION('',(0.,1.,0.));
#792=DIRECTION('center_axis',(-1.,0.,0.));
#793=DIRECTION('ref_axis',(0.,-1.,0.));
#794=DIRECTION('',(0.,-1.,0.));
#795=DIRECTION('center_axis',(0.,0.,1.));
#796=DIRECTION('ref_axis',(1.,0.,0.));
#797=DIRECTION('center_axis',(0.,0.,1.));
#798=DIRECTION('ref_axis',(1.,0.,0.));
#799=DIRECTION('center_axis',(0.,0.,-1.));
#800=DIRECTION('ref_axis',(1.,0.,0.));
#801=DIRECTION('',(0.,0.,-1.));
#802=DIRECTION('center_axis',(0.,0.,1.));
#803=DIRECTION('ref_axis',(1.,0.,0.));
#804=CARTESIAN_POINT('',(0.,0.,0.));
#805=CARTESIAN_POINT('Origin',(-25.,25.,0.));
#806=CARTESIAN_POINT('',(-30.,25.,10.));
#807=CARTESIAN_POINT('',(-25.,30.,10.));
#808=CARTESIAN_POINT('Origin',(-25.,25.,10.));
#809=CARTESIAN_POINT('',(-25.,30.,0.));
#810=CARTESIAN_POINT('',(-25.,30.,0.));
#811=CARTESIAN_POINT('',(-30.,25.,0.));
#812=CARTESIAN_POINT('Origin',(-25.,25.,0.));
#813=CARTESIAN_POINT('',(-30.,25.,0.));
#814=CARTESIAN_POINT('Origin',(0.,0.,0.));
#815=CARTESIAN_POINT('',(25.,30.,0.));
#816=CARTESIAN_POINT('',(-30.,30.,0.));
#817=CARTESIAN_POINT('',(30.,25.,0.));
#818=CARTESIAN_POINT('Origin',(25.,25.,0.));
#819=CARTESIAN_POINT('',(30.,-25.,0.));
#820=CARTESIAN_POINT('',(30.,30.,0.));
#821=CARTESIAN_POINT('',(25.,-30.,0.));
#822=CARTESIAN_POINT('Origin',(25.,-25.,0.));
#823=CARTESIAN_POINT('',(-25.,-30.,0.));
#824=CARTESIAN_POINT('',(30.,-30.,0.));
#825=CARTESIAN_POINT('',(-30.,-25.,0.));
#826=CARTESIAN_POINT('Origin',(-25.,-25.,0.));
#827=CARTESIAN_POINT('',(-30.,-30.,0.));
#828=CARTESIAN_POINT('',(-21.,25.,0.));
#829=CARTESIAN_POINT('Origin',(-25.,25.,0.));
#830=CARTESIAN_POINT('',(29.,-25.,0.));
#831=CARTESIAN_POINT('Origin',(25.,-25.,0.));
#832=CARTESIAN_POINT('',(-21.,-25.,0.));
#833=CARTESIAN_POINT('Origin',(-25.,-25.,0.));
#834=CARTESIAN_POINT('',(29.,25.,0.));
#835=CARTESIAN_POINT('Origin',(25.,25.,0.));
#836=CARTESIAN_POINT('',(-8.8,-1.07768918324967E-15,0.));
#837=CARTESIAN_POINT('Origin',(0.,0.,0.));
#838=CARTESIAN_POINT('',(-10.5,4.97250738916145E-16,0.));
#839=CARTESIAN_POINT('Origin',(-14.5,7.39201925720394E-18,0.));
#840=CARTESIAN_POINT('',(18.5,4.97250738916145E-16,0.));
#841=CARTESIAN_POINT('Origin',(14.5,7.39201925720397E-18,0.));
#842=CARTESIAN_POINT('Origin',(30.,30.,0.));
#843=CARTESIAN_POINT('',(25.,30.,10.));
#844=CARTESIAN_POINT('',(-30.,30.,10.));
#845=CARTESIAN_POINT('',(25.,30.,0.));
#846=CARTESIAN_POINT('Origin',(25.,25.,0.));
#847=CARTESIAN_POINT('',(30.,25.,10.));
#848=CARTESIAN_POINT('Origin',(25.,25.,10.));
#849=CARTESIAN_POINT('',(30.,25.,0.));
#850=CARTESIAN_POINT('Origin',(-25.,-25.,0.));
#851=CARTESIAN_POINT('',(-25.,-30.,10.));
#852=CARTESIAN_POINT('',(-30.,-25.,10.));
#853=CARTESIAN_POINT('Origin',(-25.,-25.,10.));
#854=CARTESIAN_POINT('',(-30.,-25.,0.));
#855=CARTESIAN_POINT('',(-25.,-30.,0.));
#856=CARTESIAN_POINT('Origin',(-30.,-30.,0.));
#857=CARTESIAN_POINT('',(25.,-30.,10.));
#858=CARTESIAN_POINT('',(25.,-30.,0.));
#859=CARTESIAN_POINT('',(30.,-30.,10.));
#860=CARTESIAN_POINT('Origin',(25.,-25.,0.));
#861=CARTESIAN_POINT('',(30.,-25.,10.));
#862=CARTESIAN_POINT('Origin',(25.,-25.,10.));
#863=CARTESIAN_POINT('',(30.,-25.,0.));
#864=CARTESIAN_POINT('Origin',(14.5,7.39201925720397E-18,3.));
#865=CARTESIAN_POINT('',(18.5,4.97250738916145E-16,3.));
#866=CARTESIAN_POINT('Origin',(14.5,7.39201925720397E-18,3.));
#867=CARTESIAN_POINT('',(16.75,2.82937549065358E-16,3.));
#868=CARTESIAN_POINT('Origin',(14.5,7.39201925720397E-18,3.));
#869=CARTESIAN_POINT('Origin',(14.5,7.39201925720397E-18,1.5));
#870=CARTESIAN_POINT('',(18.5,4.97250738916145E-16,1.5));
#871=CARTESIAN_POINT('Origin',(14.5,7.39201925720397E-18,7.5));
#872=CARTESIAN_POINT('',(16.75,-2.68153510550951E-16,5.));
#873=CARTESIAN_POINT('',(16.75,2.82937549065358E-16,7.5));
#874=CARTESIAN_POINT('Origin',(14.5,7.39201925720397E-18,5.));
#875=CARTESIAN_POINT('Origin',(-14.5,7.39201925720394E-18,3.));
#876=CARTESIAN_POINT('',(-10.5,4.97250738916145E-16,3.));
#877=CARTESIAN_POINT('Origin',(-14.5,7.39201925720394E-18,3.));
#878=CARTESIAN_POINT('',(-12.25,2.82937549065358E-16,3.));
#879=CARTESIAN_POINT('Origin',(-14.5,7.39201925720394E-18,3.));
#880=CARTESIAN_POINT('Origin',(-14.5,7.39201925720394E-18,1.5));
#881=CARTESIAN_POINT('',(-10.5,4.97250738916145E-16,1.5));
#882=CARTESIAN_POINT('Origin',(-14.5,7.39201925720394E-18,7.5));
#883=CARTESIAN_POINT('',(-12.25,-2.68153510550951E-16,5.));
#884=CARTESIAN_POINT('',(-12.25,2.82937549065358E-16,7.5));
#885=CARTESIAN_POINT('Origin',(-14.5,7.39201925720394E-18,5.));
#886=CARTESIAN_POINT('Origin',(-25.,25.,5.));
#887=CARTESIAN_POINT('',(-21.,25.,5.));
#888=CARTESIAN_POINT('Origin',(-25.,25.,5.));
#889=CARTESIAN_POINT('',(-22.75,25.,5.));
#890=CARTESIAN_POINT('Origin',(-25.,25.,5.));
#891=CARTESIAN_POINT('Origin',(-25.,25.,2.5));
#892=CARTESIAN_POINT('',(-21.,25.,2.5));
#893=CARTESIAN_POINT('Origin',(-25.,25.,7.5));
#894=CARTESIAN_POINT('',(-22.75,25.,10.));
#895=CARTESIAN_POINT('',(-22.75,25.,7.5));
#896=CARTESIAN_POINT('Origin',(-25.,25.,10.));
#897=CARTESIAN_POINT('Origin',(25.,-25.,5.));
#898=CARTESIAN_POINT('',(29.,-25.,5.));
#899=CARTESIAN_POINT('Origin',(25.,-25.,5.));
#900=CARTESIAN_POINT('',(27.25,-25.,5.));
#901=CARTESIAN_POINT('Origin',(25.,-25.,5.));
#902=CARTESIAN_POINT('Origin',(25.,-25.,2.5));
#903=CARTESIAN_POINT('',(29.,-25.,2.5));
#904=CARTESIAN_POINT('Origin',(25.,-25.,7.5));
#905=CARTESIAN_POINT('',(27.25,-25.,10.));
#906=CARTESIAN_POINT('',(27.25,-25.,7.5));
#907=CARTESIAN_POINT('Origin',(25.,-25.,10.));
#908=CARTESIAN_POINT('Origin',(-25.,-25.,5.));
#909=CARTESIAN_POINT('',(-21.,-25.,5.));
#910=CARTESIAN_POINT('Origin',(-25.,-25.,5.));
#911=CARTESIAN_POINT('',(-22.75,-25.,5.));
#912=CARTESIAN_POINT('Origin',(-25.,-25.,5.));
#913=CARTESIAN_POINT('Origin',(-25.,-25.,2.5));
#914=CARTESIAN_POINT('',(-21.,-25.,2.5));
#915=CARTESIAN_POINT('Origin',(-25.,-25.,7.5));
#916=CARTESIAN_POINT('',(-22.75,-25.,10.));
#917=CARTESIAN_POINT('',(-22.75,-25.,7.5));
#918=CARTESIAN_POINT('Origin',(-25.,-25.,10.));
#919=CARTESIAN_POINT('Origin',(25.,25.,5.));
#920=CARTESIAN_POINT('',(29.,25.,5.));
#921=CARTESIAN_POINT('Origin',(25.,25.,5.));
#922=CARTESIAN_POINT('',(27.25,25.,5.));
#923=CARTESIAN_POINT('Origin',(25.,25.,5.));
#924=CARTESIAN_POINT('Origin',(25.,25.,2.5));
#925=CARTESIAN_POINT('',(29.,25.,2.5));
#926=CARTESIAN_POINT('Origin',(25.,25.,7.5));
#927=CARTESIAN_POINT('',(27.25,25.,10.));
#928=CARTESIAN_POINT('',(27.25,25.,7.5));
#929=CARTESIAN_POINT('Origin',(25.,25.,10.));
#930=CARTESIAN_POINT('Origin',(0.,0.,10.));
#931=CARTESIAN_POINT('',(24.9,3.04937052987691E-15,19.8));
#932=CARTESIAN_POINT('Origin',(0.,0.,19.8));
#933=CARTESIAN_POINT('',(24.9,3.04937052987691E-15,10.));
#934=CARTESIAN_POINT('',(24.9,3.04937052987691E-15,10.));
#935=CARTESIAN_POINT('Origin',(0.,0.,10.));
#936=CARTESIAN_POINT('Origin',(0.,0.,19.8));
#937=CARTESIAN_POINT('',(-22.35,-2.73708559609433E-15,19.8));
#938=CARTESIAN_POINT('Origin',(0.,0.,19.8));
#939=CARTESIAN_POINT('Origin',(0.,0.,0.));
#940=CARTESIAN_POINT('',(-22.35,-2.73708559609433E-15,5.));
#941=CARTESIAN_POINT('',(-22.35,-2.73708559609433E-15,0.));
#942=CARTESIAN_POINT('Origin',(0.,0.,5.));
#943=CARTESIAN_POINT('Origin',(30.,-30.,0.));
#944=CARTESIAN_POINT('',(30.,30.,10.));
#945=CARTESIAN_POINT('Origin',(-30.,30.,0.));
#946=CARTESIAN_POINT('',(-30.,-30.,10.));
#947=CARTESIAN_POINT('Origin',(0.,0.,10.));
#948=CARTESIAN_POINT('Origin',(0.,0.,0.));
#949=CARTESIAN_POINT('',(-8.8,-1.07768918324967E-15,5.));
#950=CARTESIAN_POINT('Origin',(0.,0.,5.));
#951=CARTESIAN_POINT('',(-8.8,-1.07768918324967E-15,0.));
#952=CARTESIAN_POINT('Origin',(0.,0.,5.));
#953=UNCERTAINTY_MEASURE_WITH_UNIT(LENGTH_MEASURE(0.01),#957,
'DISTANCE_ACCURACY_VALUE',
'Maximum model space distance between geometric entities at asserted c
onnectivities');
#954=UNCERTAINTY_MEASURE_WITH_UNIT(LENGTH_MEASURE(0.01),#957,
'DISTANCE_ACCURACY_VALUE',
'Maximum model space distance between geometric entities at asserted c
onnectivities');
#955=(
GEOMETRIC_REPRESENTATION_CONTEXT(3)
GLOBAL_UNCERTAINTY_ASSIGNED_CONTEXT((#953))
GLOBAL_UNIT_ASSIGNED_CONTEXT((#957,#959,#960))
REPRESENTATION_CONTEXT('','3D')
);
#956=(
GEOMETRIC_REPRESENTATION_CONTEXT(3)
GLOBAL_UNCERTAINTY_ASSIGNED_CONTEXT((#954))
GLOBAL_UNIT_ASSIGNED_CONTEXT((#957,#959,#960))
REPRESENTATION_CONTEXT('','3D')
);
#957=(
LENGTH_UNIT()
NAMED_UNIT(*)
SI_UNIT(.MILLI.,.METRE.)
);
#958=(
LENGTH_UNIT()
NAMED_UNIT(*)
SI_UNIT($,.METRE.)
);
#959=(
NAMED_UNIT(*)
PLANE_ANGLE_UNIT()
SI_UNIT($,.RADIAN.)
);
#960=(
NAMED_UNIT(*)
SI_UNIT($,.STERADIAN.)
SOLID_ANGLE_UNIT()
);
#961=SHAPE_DEFINITION_REPRESENTATION(#962,#963);
#962=PRODUCT_DEFINITION_SHAPE('',$,#965);
#963=SHAPE_REPRESENTATION('',(#557),#955);
#964=PRODUCT_DEFINITION_CONTEXT('part definition',#969,'design');
#965=PRODUCT_DEFINITION('Halter_Motor_TH_V1','Halter_Motor_TH_V1 v3',#966,
#964);
#966=PRODUCT_DEFINITION_FORMATION('',$,#971);
#967=PRODUCT_RELATED_PRODUCT_CATEGORY('Halter_Motor_TH_V1 v3',
'Halter_Motor_TH_V1 v3',(#971));
#968=APPLICATION_PROTOCOL_DEFINITION('international standard',
'automotive_design',2009,#969);
#969=APPLICATION_CONTEXT(
'Core Data for Automotive Mechanical Design Process');
#970=PRODUCT_CONTEXT('part definition',#969,'mechanical');
#971=PRODUCT('Halter_Motor_TH_V1','Halter_Motor_TH_V1 v3',$,(#970));
#972=PRESENTATION_STYLE_ASSIGNMENT((#974));
#973=PRESENTATION_STYLE_ASSIGNMENT((#975));
#974=SURFACE_STYLE_USAGE(.BOTH.,#976);
#975=SURFACE_STYLE_USAGE(.BOTH.,#977);
#976=SURFACE_SIDE_STYLE('',(#978));
#977=SURFACE_SIDE_STYLE('',(#979));
#978=SURFACE_STYLE_FILL_AREA(#980);
#979=SURFACE_STYLE_FILL_AREA(#981);
#980=FILL_AREA_STYLE('Stahl - satiniert',(#982));
#981=FILL_AREA_STYLE('Kunststoff - gl\X\E4nzend (Schwarz)',(#983));
#982=FILL_AREA_STYLE_COLOUR('Stahl - satiniert',#984);
#983=FILL_AREA_STYLE_COLOUR('Kunststoff - gl\X\E4nzend (Schwarz)',#985);
#984=COLOUR_RGB('Stahl - satiniert',0.627450980392157,0.627450980392157,
0.627450980392157);
#985=COLOUR_RGB('Kunststoff - gl\X\E4nzend (Schwarz)',0.0980392156862745,
0.0980392156862745,0.0980392156862745);
ENDSEC;
END-ISO-10303-21;
