ISO-10303-21;
HEADER;
/* Generated by software containing ST-Developer
 * from STEP Tools, Inc. (www.steptools.com) 
 */

FILE_DESCRIPTION(
/* description */ (''),
/* implementation_level */ '2;1');

FILE_NAME(
/* name */ 'Schwungrad_Board.step',
/* time_stamp */ '2026-06-28T16:58:33+02:00',
/* author */ (''),
/* organization */ (''),
/* preprocessor_version */ 'ST-DEVELOPER v20.1',
/* originating_system */ 'Autodesk Translation Framework v15.8.0.0',
/* authorisation */ '');

FILE_SCHEMA (('AUTOMOTIVE_DESIGN { 1 0 10303 214 3 1 1 }'));
ENDSEC;

DATA;
#10=MECHANICAL_DESIGN_GEOMETRIC_PRESENTATION_REPRESENTATION('',(#13),#1544);
#11=SHAPE_REPRESENTATION_RELATIONSHIP('SRR','None',#1551,#12);
#12=ADVANCED_BREP_SHAPE_REPRESENTATION('',(#14),#1543);
#13=STYLED_ITEM('',(#1561),#14);
#14=MANIFOLD_SOLID_BREP('K\X\F6rper1',#972);
#15=FACE_BOUND('',#155,.T.);
#16=FACE_BOUND('',#156,.T.);
#17=FACE_BOUND('',#157,.T.);
#18=FACE_BOUND('',#158,.T.);
#19=FACE_BOUND('',#159,.T.);
#20=FACE_BOUND('',#160,.T.);
#21=FACE_BOUND('',#161,.T.);
#22=FACE_BOUND('',#162,.T.);
#23=FACE_BOUND('',#163,.T.);
#24=FACE_BOUND('',#164,.T.);
#25=FACE_BOUND('',#165,.T.);
#26=FACE_BOUND('',#166,.T.);
#27=FACE_BOUND('',#167,.T.);
#28=FACE_BOUND('',#168,.T.);
#29=FACE_BOUND('',#169,.T.);
#30=FACE_BOUND('',#171,.T.);
#31=FACE_BOUND('',#172,.T.);
#32=FACE_BOUND('',#173,.T.);
#33=FACE_BOUND('',#174,.T.);
#34=FACE_BOUND('',#175,.T.);
#35=FACE_BOUND('',#176,.T.);
#36=FACE_BOUND('',#177,.T.);
#37=FACE_BOUND('',#178,.T.);
#38=FACE_BOUND('',#179,.T.);
#39=FACE_BOUND('',#180,.T.);
#40=FACE_BOUND('',#181,.T.);
#41=FACE_BOUND('',#182,.T.);
#42=FACE_BOUND('',#183,.T.);
#43=FACE_BOUND('',#184,.T.);
#44=FACE_BOUND('',#185,.T.);
#45=CIRCLE('',#1007,6.00000000000001);
#46=CIRCLE('',#1008,6.00000000000001);
#47=CIRCLE('',#1010,6.);
#48=CIRCLE('',#1011,6.);
#49=CIRCLE('',#1013,2.25);
#50=CIRCLE('',#1014,2.25);
#51=CIRCLE('',#1016,25.);
#52=CIRCLE('',#1017,25.);
#53=CIRCLE('',#1019,2.25);
#54=CIRCLE('',#1020,2.25);
#55=CIRCLE('',#1022,2.25);
#56=CIRCLE('',#1023,2.25);
#57=CIRCLE('',#1037,2.25000000000001);
#58=CIRCLE('',#1038,2.25000000000001);
#59=CYLINDRICAL_SURFACE('',#1006,6.00000000000001);
#60=CYLINDRICAL_SURFACE('',#1009,6.);
#61=CYLINDRICAL_SURFACE('',#1012,2.25);
#62=CYLINDRICAL_SURFACE('',#1015,25.);
#63=CYLINDRICAL_SURFACE('',#1018,2.25);
#64=CYLINDRICAL_SURFACE('',#1021,2.25);
#65=CYLINDRICAL_SURFACE('',#1036,2.25000000000001);
#66=FACE_OUTER_BOUND('',#111,.T.);
#67=FACE_OUTER_BOUND('',#112,.T.);
#68=FACE_OUTER_BOUND('',#113,.T.);
#69=FACE_OUTER_BOUND('',#114,.T.);
#70=FACE_OUTER_BOUND('',#115,.T.);
#71=FACE_OUTER_BOUND('',#116,.T.);
#72=FACE_OUTER_BOUND('',#117,.T.);
#73=FACE_OUTER_BOUND('',#118,.T.);
#74=FACE_OUTER_BOUND('',#119,.T.);
#75=FACE_OUTER_BOUND('',#120,.T.);
#76=FACE_OUTER_BOUND('',#121,.T.);
#77=FACE_OUTER_BOUND('',#122,.T.);
#78=FACE_OUTER_BOUND('',#123,.T.);
#79=FACE_OUTER_BOUND('',#124,.T.);
#80=FACE_OUTER_BOUND('',#125,.T.);
#81=FACE_OUTER_BOUND('',#126,.T.);
#82=FACE_OUTER_BOUND('',#127,.T.);
#83=FACE_OUTER_BOUND('',#128,.T.);
#84=FACE_OUTER_BOUND('',#129,.T.);
#85=FACE_OUTER_BOUND('',#130,.T.);
#86=FACE_OUTER_BOUND('',#131,.T.);
#87=FACE_OUTER_BOUND('',#132,.T.);
#88=FACE_OUTER_BOUND('',#133,.T.);
#89=FACE_OUTER_BOUND('',#134,.T.);
#90=FACE_OUTER_BOUND('',#135,.T.);
#91=FACE_OUTER_BOUND('',#136,.T.);
#92=FACE_OUTER_BOUND('',#137,.T.);
#93=FACE_OUTER_BOUND('',#138,.T.);
#94=FACE_OUTER_BOUND('',#139,.T.);
#95=FACE_OUTER_BOUND('',#140,.T.);
#96=FACE_OUTER_BOUND('',#141,.T.);
#97=FACE_OUTER_BOUND('',#142,.T.);
#98=FACE_OUTER_BOUND('',#143,.T.);
#99=FACE_OUTER_BOUND('',#144,.T.);
#100=FACE_OUTER_BOUND('',#145,.T.);
#101=FACE_OUTER_BOUND('',#146,.T.);
#102=FACE_OUTER_BOUND('',#147,.T.);
#103=FACE_OUTER_BOUND('',#148,.T.);
#104=FACE_OUTER_BOUND('',#149,.T.);
#105=FACE_OUTER_BOUND('',#150,.T.);
#106=FACE_OUTER_BOUND('',#151,.T.);
#107=FACE_OUTER_BOUND('',#152,.T.);
#108=FACE_OUTER_BOUND('',#153,.T.);
#109=FACE_OUTER_BOUND('',#154,.T.);
#110=FACE_OUTER_BOUND('',#170,.T.);
#111=EDGE_LOOP('',(#631,#632,#633,#634));
#112=EDGE_LOOP('',(#635,#636,#637,#638));
#113=EDGE_LOOP('',(#639,#640,#641,#642));
#114=EDGE_LOOP('',(#643,#644,#645,#646));
#115=EDGE_LOOP('',(#647,#648,#649,#650));
#116=EDGE_LOOP('',(#651,#652,#653,#654));
#117=EDGE_LOOP('',(#655,#656,#657,#658));
#118=EDGE_LOOP('',(#659,#660,#661,#662));
#119=EDGE_LOOP('',(#663,#664,#665,#666));
#120=EDGE_LOOP('',(#667,#668,#669,#670));
#121=EDGE_LOOP('',(#671,#672,#673,#674));
#122=EDGE_LOOP('',(#675,#676,#677,#678));
#123=EDGE_LOOP('',(#679,#680,#681,#682));
#124=EDGE_LOOP('',(#683,#684,#685,#686));
#125=EDGE_LOOP('',(#687,#688,#689,#690));
#126=EDGE_LOOP('',(#691,#692,#693,#694));
#127=EDGE_LOOP('',(#695,#696,#697,#698));
#128=EDGE_LOOP('',(#699,#700,#701,#702));
#129=EDGE_LOOP('',(#703,#704,#705,#706));
#130=EDGE_LOOP('',(#707,#708,#709,#710));
#131=EDGE_LOOP('',(#711,#712,#713,#714));
#132=EDGE_LOOP('',(#715,#716,#717,#718));
#133=EDGE_LOOP('',(#719,#720,#721,#722));
#134=EDGE_LOOP('',(#723,#724,#725,#726));
#135=EDGE_LOOP('',(#727,#728,#729,#730));
#136=EDGE_LOOP('',(#731,#732,#733,#734));
#137=EDGE_LOOP('',(#735,#736,#737,#738));
#138=EDGE_LOOP('',(#739,#740,#741,#742));
#139=EDGE_LOOP('',(#743,#744,#745,#746));
#140=EDGE_LOOP('',(#747,#748,#749,#750));
#141=EDGE_LOOP('',(#751,#752,#753,#754));
#142=EDGE_LOOP('',(#755,#756,#757,#758));
#143=EDGE_LOOP('',(#759,#760,#761,#762));
#144=EDGE_LOOP('',(#763,#764,#765,#766));
#145=EDGE_LOOP('',(#767,#768,#769,#770));
#146=EDGE_LOOP('',(#771,#772,#773,#774));
#147=EDGE_LOOP('',(#775,#776,#777,#778));
#148=EDGE_LOOP('',(#779,#780,#781,#782));
#149=EDGE_LOOP('',(#783,#784,#785,#786));
#150=EDGE_LOOP('',(#787,#788,#789,#790));
#151=EDGE_LOOP('',(#791,#792,#793,#794));
#152=EDGE_LOOP('',(#795,#796,#797,#798));
#153=EDGE_LOOP('',(#799,#800,#801,#802));
#154=EDGE_LOOP('',(#803,#804,#805,#806));
#155=EDGE_LOOP('',(#807));
#156=EDGE_LOOP('',(#808,#809,#810,#811));
#157=EDGE_LOOP('',(#812,#813,#814,#815));
#158=EDGE_LOOP('',(#816,#817,#818,#819));
#159=EDGE_LOOP('',(#820));
#160=EDGE_LOOP('',(#821));
#161=EDGE_LOOP('',(#822));
#162=EDGE_LOOP('',(#823));
#163=EDGE_LOOP('',(#824));
#164=EDGE_LOOP('',(#825));
#165=EDGE_LOOP('',(#826,#827,#828,#829));
#166=EDGE_LOOP('',(#830,#831,#832,#833));
#167=EDGE_LOOP('',(#834,#835,#836,#837));
#168=EDGE_LOOP('',(#838,#839,#840,#841));
#169=EDGE_LOOP('',(#842,#843,#844,#845));
#170=EDGE_LOOP('',(#846,#847,#848,#849));
#171=EDGE_LOOP('',(#850));
#172=EDGE_LOOP('',(#851,#852,#853,#854));
#173=EDGE_LOOP('',(#855,#856,#857,#858));
#174=EDGE_LOOP('',(#859,#860,#861,#862));
#175=EDGE_LOOP('',(#863));
#176=EDGE_LOOP('',(#864));
#177=EDGE_LOOP('',(#865));
#178=EDGE_LOOP('',(#866));
#179=EDGE_LOOP('',(#867));
#180=EDGE_LOOP('',(#868));
#181=EDGE_LOOP('',(#869,#870,#871,#872));
#182=EDGE_LOOP('',(#873,#874,#875,#876));
#183=EDGE_LOOP('',(#877,#878,#879,#880));
#184=EDGE_LOOP('',(#881,#882,#883,#884));
#185=EDGE_LOOP('',(#885,#886,#887,#888));
#186=LINE('',#1284,#301);
#187=LINE('',#1286,#302);
#188=LINE('',#1288,#303);
#189=LINE('',#1289,#304);
#190=LINE('',#1292,#305);
#191=LINE('',#1294,#306);
#192=LINE('',#1295,#307);
#193=LINE('',#1298,#308);
#194=LINE('',#1300,#309);
#195=LINE('',#1301,#310);
#196=LINE('',#1303,#311);
#197=LINE('',#1304,#312);
#198=LINE('',#1308,#313);
#199=LINE('',#1310,#314);
#200=LINE('',#1312,#315);
#201=LINE('',#1313,#316);
#202=LINE('',#1316,#317);
#203=LINE('',#1318,#318);
#204=LINE('',#1319,#319);
#205=LINE('',#1322,#320);
#206=LINE('',#1324,#321);
#207=LINE('',#1325,#322);
#208=LINE('',#1327,#323);
#209=LINE('',#1328,#324);
#210=LINE('',#1332,#325);
#211=LINE('',#1334,#326);
#212=LINE('',#1336,#327);
#213=LINE('',#1337,#328);
#214=LINE('',#1340,#329);
#215=LINE('',#1342,#330);
#216=LINE('',#1343,#331);
#217=LINE('',#1346,#332);
#218=LINE('',#1348,#333);
#219=LINE('',#1349,#334);
#220=LINE('',#1351,#335);
#221=LINE('',#1352,#336);
#222=LINE('',#1356,#337);
#223=LINE('',#1358,#338);
#224=LINE('',#1360,#339);
#225=LINE('',#1361,#340);
#226=LINE('',#1364,#341);
#227=LINE('',#1366,#342);
#228=LINE('',#1367,#343);
#229=LINE('',#1370,#344);
#230=LINE('',#1372,#345);
#231=LINE('',#1373,#346);
#232=LINE('',#1375,#347);
#233=LINE('',#1376,#348);
#234=LINE('',#1380,#349);
#235=LINE('',#1382,#350);
#236=LINE('',#1384,#351);
#237=LINE('',#1385,#352);
#238=LINE('',#1388,#353);
#239=LINE('',#1390,#354);
#240=LINE('',#1391,#355);
#241=LINE('',#1394,#356);
#242=LINE('',#1396,#357);
#243=LINE('',#1397,#358);
#244=LINE('',#1399,#359);
#245=LINE('',#1400,#360);
#246=LINE('',#1405,#361);
#247=LINE('',#1411,#362);
#248=LINE('',#1417,#363);
#249=LINE('',#1423,#364);
#250=LINE('',#1429,#365);
#251=LINE('',#1435,#366);
#252=LINE('',#1440,#367);
#253=LINE('',#1442,#368);
#254=LINE('',#1444,#369);
#255=LINE('',#1445,#370);
#256=LINE('',#1448,#371);
#257=LINE('',#1450,#372);
#258=LINE('',#1451,#373);
#259=LINE('',#1454,#374);
#260=LINE('',#1456,#375);
#261=LINE('',#1457,#376);
#262=LINE('',#1459,#377);
#263=LINE('',#1460,#378);
#264=LINE('',#1464,#379);
#265=LINE('',#1466,#380);
#266=LINE('',#1468,#381);
#267=LINE('',#1469,#382);
#268=LINE('',#1472,#383);
#269=LINE('',#1474,#384);
#270=LINE('',#1475,#385);
#271=LINE('',#1478,#386);
#272=LINE('',#1480,#387);
#273=LINE('',#1481,#388);
#274=LINE('',#1483,#389);
#275=LINE('',#1484,#390);
#276=LINE('',#1488,#391);
#277=LINE('',#1490,#392);
#278=LINE('',#1492,#393);
#279=LINE('',#1493,#394);
#280=LINE('',#1496,#395);
#281=LINE('',#1498,#396);
#282=LINE('',#1499,#397);
#283=LINE('',#1502,#398);
#284=LINE('',#1504,#399);
#285=LINE('',#1505,#400);
#286=LINE('',#1507,#401);
#287=LINE('',#1508,#402);
#288=LINE('',#1513,#403);
#289=LINE('',#1518,#404);
#290=LINE('',#1520,#405);
#291=LINE('',#1522,#406);
#292=LINE('',#1523,#407);
#293=LINE('',#1526,#408);
#294=LINE('',#1528,#409);
#295=LINE('',#1529,#410);
#296=LINE('',#1532,#411);
#297=LINE('',#1534,#412);
#298=LINE('',#1535,#413);
#299=LINE('',#1537,#414);
#300=LINE('',#1538,#415);
#301=VECTOR('',#1049,10.);
#302=VECTOR('',#1050,10.);
#303=VECTOR('',#1051,10.);
#304=VECTOR('',#1052,10.);
#305=VECTOR('',#1055,10.);
#306=VECTOR('',#1056,10.);
#307=VECTOR('',#1057,10.);
#308=VECTOR('',#1060,10.);
#309=VECTOR('',#1061,10.);
#310=VECTOR('',#1062,10.);
#311=VECTOR('',#1065,10.);
#312=VECTOR('',#1066,10.);
#313=VECTOR('',#1069,10.);
#314=VECTOR('',#1070,10.);
#315=VECTOR('',#1071,10.);
#316=VECTOR('',#1072,10.);
#317=VECTOR('',#1075,10.);
#318=VECTOR('',#1076,10.);
#319=VECTOR('',#1077,10.);
#320=VECTOR('',#1080,10.);
#321=VECTOR('',#1081,10.);
#322=VECTOR('',#1082,10.);
#323=VECTOR('',#1085,10.);
#324=VECTOR('',#1086,10.);
#325=VECTOR('',#1089,10.);
#326=VECTOR('',#1090,10.);
#327=VECTOR('',#1091,10.);
#328=VECTOR('',#1092,10.);
#329=VECTOR('',#1095,10.);
#330=VECTOR('',#1096,10.);
#331=VECTOR('',#1097,10.);
#332=VECTOR('',#1100,10.);
#333=VECTOR('',#1101,10.);
#334=VECTOR('',#1102,10.);
#335=VECTOR('',#1105,10.);
#336=VECTOR('',#1106,10.);
#337=VECTOR('',#1109,10.);
#338=VECTOR('',#1110,10.);
#339=VECTOR('',#1111,10.);
#340=VECTOR('',#1112,10.);
#341=VECTOR('',#1115,10.);
#342=VECTOR('',#1116,10.);
#343=VECTOR('',#1117,10.);
#344=VECTOR('',#1120,10.);
#345=VECTOR('',#1121,10.);
#346=VECTOR('',#1122,10.);
#347=VECTOR('',#1125,10.);
#348=VECTOR('',#1126,10.);
#349=VECTOR('',#1129,10.);
#350=VECTOR('',#1130,10.);
#351=VECTOR('',#1131,10.);
#352=VECTOR('',#1132,10.);
#353=VECTOR('',#1135,10.);
#354=VECTOR('',#1136,10.);
#355=VECTOR('',#1137,10.);
#356=VECTOR('',#1140,10.);
#357=VECTOR('',#1141,10.);
#358=VECTOR('',#1142,10.);
#359=VECTOR('',#1145,10.);
#360=VECTOR('',#1146,10.);
#361=VECTOR('',#1151,6.00000000000001);
#362=VECTOR('',#1158,6.);
#363=VECTOR('',#1165,2.25);
#364=VECTOR('',#1172,25.);
#365=VECTOR('',#1179,2.25);
#366=VECTOR('',#1186,2.25);
#367=VECTOR('',#1191,10.);
#368=VECTOR('',#1192,10.);
#369=VECTOR('',#1193,10.);
#370=VECTOR('',#1194,10.);
#371=VECTOR('',#1197,10.);
#372=VECTOR('',#1198,10.);
#373=VECTOR('',#1199,10.);
#374=VECTOR('',#1202,10.);
#375=VECTOR('',#1203,10.);
#376=VECTOR('',#1204,10.);
#377=VECTOR('',#1207,10.);
#378=VECTOR('',#1208,10.);
#379=VECTOR('',#1211,10.);
#380=VECTOR('',#1212,10.);
#381=VECTOR('',#1213,10.);
#382=VECTOR('',#1214,10.);
#383=VECTOR('',#1217,10.);
#384=VECTOR('',#1218,10.);
#385=VECTOR('',#1219,10.);
#386=VECTOR('',#1222,10.);
#387=VECTOR('',#1223,10.);
#388=VECTOR('',#1224,10.);
#389=VECTOR('',#1227,10.);
#390=VECTOR('',#1228,10.);
#391=VECTOR('',#1231,10.);
#392=VECTOR('',#1232,10.);
#393=VECTOR('',#1233,10.);
#394=VECTOR('',#1234,10.);
#395=VECTOR('',#1237,10.);
#396=VECTOR('',#1238,10.);
#397=VECTOR('',#1239,10.);
#398=VECTOR('',#1242,10.);
#399=VECTOR('',#1243,10.);
#400=VECTOR('',#1244,10.);
#401=VECTOR('',#1247,10.);
#402=VECTOR('',#1248,10.);
#403=VECTOR('',#1253,2.25000000000001);
#404=VECTOR('',#1258,10.);
#405=VECTOR('',#1259,10.);
#406=VECTOR('',#1260,10.);
#407=VECTOR('',#1261,10.);
#408=VECTOR('',#1264,10.);
#409=VECTOR('',#1265,10.);
#410=VECTOR('',#1266,10.);
#411=VECTOR('',#1269,10.);
#412=VECTOR('',#1270,10.);
#413=VECTOR('',#1271,10.);
#414=VECTOR('',#1274,10.);
#415=VECTOR('',#1275,10.);
#416=VERTEX_POINT('',#1282);
#417=VERTEX_POINT('',#1283);
#418=VERTEX_POINT('',#1285);
#419=VERTEX_POINT('',#1287);
#420=VERTEX_POINT('',#1291);
#421=VERTEX_POINT('',#1293);
#422=VERTEX_POINT('',#1297);
#423=VERTEX_POINT('',#1299);
#424=VERTEX_POINT('',#1306);
#425=VERTEX_POINT('',#1307);
#426=VERTEX_POINT('',#1309);
#427=VERTEX_POINT('',#1311);
#428=VERTEX_POINT('',#1315);
#429=VERTEX_POINT('',#1317);
#430=VERTEX_POINT('',#1321);
#431=VERTEX_POINT('',#1323);
#432=VERTEX_POINT('',#1330);
#433=VERTEX_POINT('',#1331);
#434=VERTEX_POINT('',#1333);
#435=VERTEX_POINT('',#1335);
#436=VERTEX_POINT('',#1339);
#437=VERTEX_POINT('',#1341);
#438=VERTEX_POINT('',#1345);
#439=VERTEX_POINT('',#1347);
#440=VERTEX_POINT('',#1354);
#441=VERTEX_POINT('',#1355);
#442=VERTEX_POINT('',#1357);
#443=VERTEX_POINT('',#1359);
#444=VERTEX_POINT('',#1363);
#445=VERTEX_POINT('',#1365);
#446=VERTEX_POINT('',#1369);
#447=VERTEX_POINT('',#1371);
#448=VERTEX_POINT('',#1378);
#449=VERTEX_POINT('',#1379);
#450=VERTEX_POINT('',#1381);
#451=VERTEX_POINT('',#1383);
#452=VERTEX_POINT('',#1387);
#453=VERTEX_POINT('',#1389);
#454=VERTEX_POINT('',#1393);
#455=VERTEX_POINT('',#1395);
#456=VERTEX_POINT('',#1402);
#457=VERTEX_POINT('',#1404);
#458=VERTEX_POINT('',#1408);
#459=VERTEX_POINT('',#1410);
#460=VERTEX_POINT('',#1414);
#461=VERTEX_POINT('',#1416);
#462=VERTEX_POINT('',#1420);
#463=VERTEX_POINT('',#1422);
#464=VERTEX_POINT('',#1426);
#465=VERTEX_POINT('',#1428);
#466=VERTEX_POINT('',#1432);
#467=VERTEX_POINT('',#1434);
#468=VERTEX_POINT('',#1438);
#469=VERTEX_POINT('',#1439);
#470=VERTEX_POINT('',#1441);
#471=VERTEX_POINT('',#1443);
#472=VERTEX_POINT('',#1447);
#473=VERTEX_POINT('',#1449);
#474=VERTEX_POINT('',#1453);
#475=VERTEX_POINT('',#1455);
#476=VERTEX_POINT('',#1462);
#477=VERTEX_POINT('',#1463);
#478=VERTEX_POINT('',#1465);
#479=VERTEX_POINT('',#1467);
#480=VERTEX_POINT('',#1471);
#481=VERTEX_POINT('',#1473);
#482=VERTEX_POINT('',#1477);
#483=VERTEX_POINT('',#1479);
#484=VERTEX_POINT('',#1486);
#485=VERTEX_POINT('',#1487);
#486=VERTEX_POINT('',#1489);
#487=VERTEX_POINT('',#1491);
#488=VERTEX_POINT('',#1495);
#489=VERTEX_POINT('',#1497);
#490=VERTEX_POINT('',#1501);
#491=VERTEX_POINT('',#1503);
#492=VERTEX_POINT('',#1510);
#493=VERTEX_POINT('',#1512);
#494=VERTEX_POINT('',#1516);
#495=VERTEX_POINT('',#1517);
#496=VERTEX_POINT('',#1519);
#497=VERTEX_POINT('',#1521);
#498=VERTEX_POINT('',#1525);
#499=VERTEX_POINT('',#1527);
#500=VERTEX_POINT('',#1531);
#501=VERTEX_POINT('',#1533);
#502=EDGE_CURVE('',#416,#417,#186,.T.);
#503=EDGE_CURVE('',#417,#418,#187,.T.);
#504=EDGE_CURVE('',#419,#418,#188,.T.);
#505=EDGE_CURVE('',#416,#419,#189,.T.);
#506=EDGE_CURVE('',#420,#416,#190,.T.);
#507=EDGE_CURVE('',#421,#419,#191,.T.);
#508=EDGE_CURVE('',#420,#421,#192,.T.);
#509=EDGE_CURVE('',#422,#420,#193,.T.);
#510=EDGE_CURVE('',#423,#421,#194,.T.);
#511=EDGE_CURVE('',#422,#423,#195,.T.);
#512=EDGE_CURVE('',#417,#422,#196,.T.);
#513=EDGE_CURVE('',#418,#423,#197,.T.);
#514=EDGE_CURVE('',#424,#425,#198,.T.);
#515=EDGE_CURVE('',#425,#426,#199,.T.);
#516=EDGE_CURVE('',#427,#426,#200,.T.);
#517=EDGE_CURVE('',#424,#427,#201,.T.);
#518=EDGE_CURVE('',#428,#424,#202,.T.);
#519=EDGE_CURVE('',#429,#427,#203,.T.);
#520=EDGE_CURVE('',#428,#429,#204,.T.);
#521=EDGE_CURVE('',#430,#428,#205,.T.);
#522=EDGE_CURVE('',#431,#429,#206,.T.);
#523=EDGE_CURVE('',#430,#431,#207,.T.);
#524=EDGE_CURVE('',#425,#430,#208,.T.);
#525=EDGE_CURVE('',#426,#431,#209,.T.);
#526=EDGE_CURVE('',#432,#433,#210,.T.);
#527=EDGE_CURVE('',#433,#434,#211,.T.);
#528=EDGE_CURVE('',#435,#434,#212,.T.);
#529=EDGE_CURVE('',#432,#435,#213,.T.);
#530=EDGE_CURVE('',#436,#432,#214,.T.);
#531=EDGE_CURVE('',#437,#435,#215,.T.);
#532=EDGE_CURVE('',#436,#437,#216,.T.);
#533=EDGE_CURVE('',#438,#436,#217,.T.);
#534=EDGE_CURVE('',#439,#437,#218,.T.);
#535=EDGE_CURVE('',#438,#439,#219,.T.);
#536=EDGE_CURVE('',#433,#438,#220,.T.);
#537=EDGE_CURVE('',#434,#439,#221,.T.);
#538=EDGE_CURVE('',#440,#441,#222,.T.);
#539=EDGE_CURVE('',#441,#442,#223,.T.);
#540=EDGE_CURVE('',#443,#442,#224,.T.);
#541=EDGE_CURVE('',#440,#443,#225,.T.);
#542=EDGE_CURVE('',#444,#440,#226,.T.);
#543=EDGE_CURVE('',#445,#443,#227,.T.);
#544=EDGE_CURVE('',#444,#445,#228,.T.);
#545=EDGE_CURVE('',#446,#444,#229,.T.);
#546=EDGE_CURVE('',#447,#445,#230,.T.);
#547=EDGE_CURVE('',#446,#447,#231,.T.);
#548=EDGE_CURVE('',#441,#446,#232,.T.);
#549=EDGE_CURVE('',#442,#447,#233,.T.);
#550=EDGE_CURVE('',#448,#449,#234,.T.);
#551=EDGE_CURVE('',#449,#450,#235,.T.);
#552=EDGE_CURVE('',#451,#450,#236,.T.);
#553=EDGE_CURVE('',#448,#451,#237,.T.);
#554=EDGE_CURVE('',#452,#448,#238,.T.);
#555=EDGE_CURVE('',#453,#451,#239,.T.);
#556=EDGE_CURVE('',#452,#453,#240,.T.);
#557=EDGE_CURVE('',#454,#452,#241,.T.);
#558=EDGE_CURVE('',#455,#453,#242,.T.);
#559=EDGE_CURVE('',#454,#455,#243,.T.);
#560=EDGE_CURVE('',#449,#454,#244,.T.);
#561=EDGE_CURVE('',#450,#455,#245,.T.);
#562=EDGE_CURVE('',#456,#456,#45,.T.);
#563=EDGE_CURVE('',#456,#457,#246,.T.);
#564=EDGE_CURVE('',#457,#457,#46,.T.);
#565=EDGE_CURVE('',#458,#458,#47,.T.);
#566=EDGE_CURVE('',#458,#459,#247,.T.);
#567=EDGE_CURVE('',#459,#459,#48,.T.);
#568=EDGE_CURVE('',#460,#460,#49,.T.);
#569=EDGE_CURVE('',#460,#461,#248,.T.);
#570=EDGE_CURVE('',#461,#461,#50,.T.);
#571=EDGE_CURVE('',#462,#462,#51,.T.);
#572=EDGE_CURVE('',#462,#463,#249,.T.);
#573=EDGE_CURVE('',#463,#463,#52,.T.);
#574=EDGE_CURVE('',#464,#464,#53,.T.);
#575=EDGE_CURVE('',#464,#465,#250,.T.);
#576=EDGE_CURVE('',#465,#465,#54,.T.);
#577=EDGE_CURVE('',#466,#466,#55,.T.);
#578=EDGE_CURVE('',#466,#467,#251,.T.);
#579=EDGE_CURVE('',#467,#467,#56,.T.);
#580=EDGE_CURVE('',#468,#469,#252,.T.);
#581=EDGE_CURVE('',#469,#470,#253,.T.);
#582=EDGE_CURVE('',#471,#470,#254,.T.);
#583=EDGE_CURVE('',#468,#471,#255,.T.);
#584=EDGE_CURVE('',#472,#468,#256,.T.);
#585=EDGE_CURVE('',#473,#471,#257,.T.);
#586=EDGE_CURVE('',#472,#473,#258,.T.);
#587=EDGE_CURVE('',#474,#472,#259,.T.);
#588=EDGE_CURVE('',#475,#473,#260,.T.);
#589=EDGE_CURVE('',#474,#475,#261,.T.);
#590=EDGE_CURVE('',#469,#474,#262,.T.);
#591=EDGE_CURVE('',#470,#475,#263,.T.);
#592=EDGE_CURVE('',#476,#477,#264,.T.);
#593=EDGE_CURVE('',#477,#478,#265,.T.);
#594=EDGE_CURVE('',#479,#478,#266,.T.);
#595=EDGE_CURVE('',#476,#479,#267,.T.);
#596=EDGE_CURVE('',#480,#476,#268,.T.);
#597=EDGE_CURVE('',#481,#479,#269,.T.);
#598=EDGE_CURVE('',#480,#481,#270,.T.);
#599=EDGE_CURVE('',#482,#480,#271,.T.);
#600=EDGE_CURVE('',#483,#481,#272,.T.);
#601=EDGE_CURVE('',#482,#483,#273,.T.);
#602=EDGE_CURVE('',#477,#482,#274,.T.);
#603=EDGE_CURVE('',#478,#483,#275,.T.);
#604=EDGE_CURVE('',#484,#485,#276,.T.);
#605=EDGE_CURVE('',#485,#486,#277,.T.);
#606=EDGE_CURVE('',#487,#486,#278,.T.);
#607=EDGE_CURVE('',#484,#487,#279,.T.);
#608=EDGE_CURVE('',#488,#484,#280,.T.);
#609=EDGE_CURVE('',#489,#487,#281,.T.);
#610=EDGE_CURVE('',#488,#489,#282,.T.);
#611=EDGE_CURVE('',#490,#488,#283,.T.);
#612=EDGE_CURVE('',#491,#489,#284,.T.);
#613=EDGE_CURVE('',#490,#491,#285,.T.);
#614=EDGE_CURVE('',#485,#490,#286,.T.);
#615=EDGE_CURVE('',#486,#491,#287,.T.);
#616=EDGE_CURVE('',#492,#492,#57,.T.);
#617=EDGE_CURVE('',#492,#493,#288,.T.);
#618=EDGE_CURVE('',#493,#493,#58,.T.);
#619=EDGE_CURVE('',#494,#495,#289,.T.);
#620=EDGE_CURVE('',#495,#496,#290,.T.);
#621=EDGE_CURVE('',#497,#496,#291,.T.);
#622=EDGE_CURVE('',#494,#497,#292,.T.);
#623=EDGE_CURVE('',#498,#494,#293,.T.);
#624=EDGE_CURVE('',#499,#497,#294,.T.);
#625=EDGE_CURVE('',#498,#499,#295,.T.);
#626=EDGE_CURVE('',#500,#498,#296,.T.);
#627=EDGE_CURVE('',#501,#499,#297,.T.);
#628=EDGE_CURVE('',#500,#501,#298,.T.);
#629=EDGE_CURVE('',#495,#500,#299,.T.);
#630=EDGE_CURVE('',#496,#501,#300,.T.);
#631=ORIENTED_EDGE('',*,*,#502,.T.);
#632=ORIENTED_EDGE('',*,*,#503,.T.);
#633=ORIENTED_EDGE('',*,*,#504,.F.);
#634=ORIENTED_EDGE('',*,*,#505,.F.);
#635=ORIENTED_EDGE('',*,*,#506,.T.);
#636=ORIENTED_EDGE('',*,*,#505,.T.);
#637=ORIENTED_EDGE('',*,*,#507,.F.);
#638=ORIENTED_EDGE('',*,*,#508,.F.);
#639=ORIENTED_EDGE('',*,*,#509,.T.);
#640=ORIENTED_EDGE('',*,*,#508,.T.);
#641=ORIENTED_EDGE('',*,*,#510,.F.);
#642=ORIENTED_EDGE('',*,*,#511,.F.);
#643=ORIENTED_EDGE('',*,*,#512,.T.);
#644=ORIENTED_EDGE('',*,*,#511,.T.);
#645=ORIENTED_EDGE('',*,*,#513,.F.);
#646=ORIENTED_EDGE('',*,*,#503,.F.);
#647=ORIENTED_EDGE('',*,*,#514,.T.);
#648=ORIENTED_EDGE('',*,*,#515,.T.);
#649=ORIENTED_EDGE('',*,*,#516,.F.);
#650=ORIENTED_EDGE('',*,*,#517,.F.);
#651=ORIENTED_EDGE('',*,*,#518,.T.);
#652=ORIENTED_EDGE('',*,*,#517,.T.);
#653=ORIENTED_EDGE('',*,*,#519,.F.);
#654=ORIENTED_EDGE('',*,*,#520,.F.);
#655=ORIENTED_EDGE('',*,*,#521,.T.);
#656=ORIENTED_EDGE('',*,*,#520,.T.);
#657=ORIENTED_EDGE('',*,*,#522,.F.);
#658=ORIENTED_EDGE('',*,*,#523,.F.);
#659=ORIENTED_EDGE('',*,*,#524,.T.);
#660=ORIENTED_EDGE('',*,*,#523,.T.);
#661=ORIENTED_EDGE('',*,*,#525,.F.);
#662=ORIENTED_EDGE('',*,*,#515,.F.);
#663=ORIENTED_EDGE('',*,*,#526,.T.);
#664=ORIENTED_EDGE('',*,*,#527,.T.);
#665=ORIENTED_EDGE('',*,*,#528,.F.);
#666=ORIENTED_EDGE('',*,*,#529,.F.);
#667=ORIENTED_EDGE('',*,*,#530,.T.);
#668=ORIENTED_EDGE('',*,*,#529,.T.);
#669=ORIENTED_EDGE('',*,*,#531,.F.);
#670=ORIENTED_EDGE('',*,*,#532,.F.);
#671=ORIENTED_EDGE('',*,*,#533,.T.);
#672=ORIENTED_EDGE('',*,*,#532,.T.);
#673=ORIENTED_EDGE('',*,*,#534,.F.);
#674=ORIENTED_EDGE('',*,*,#535,.F.);
#675=ORIENTED_EDGE('',*,*,#536,.T.);
#676=ORIENTED_EDGE('',*,*,#535,.T.);
#677=ORIENTED_EDGE('',*,*,#537,.F.);
#678=ORIENTED_EDGE('',*,*,#527,.F.);
#679=ORIENTED_EDGE('',*,*,#538,.T.);
#680=ORIENTED_EDGE('',*,*,#539,.T.);
#681=ORIENTED_EDGE('',*,*,#540,.F.);
#682=ORIENTED_EDGE('',*,*,#541,.F.);
#683=ORIENTED_EDGE('',*,*,#542,.T.);
#684=ORIENTED_EDGE('',*,*,#541,.T.);
#685=ORIENTED_EDGE('',*,*,#543,.F.);
#686=ORIENTED_EDGE('',*,*,#544,.F.);
#687=ORIENTED_EDGE('',*,*,#545,.T.);
#688=ORIENTED_EDGE('',*,*,#544,.T.);
#689=ORIENTED_EDGE('',*,*,#546,.F.);
#690=ORIENTED_EDGE('',*,*,#547,.F.);
#691=ORIENTED_EDGE('',*,*,#548,.T.);
#692=ORIENTED_EDGE('',*,*,#547,.T.);
#693=ORIENTED_EDGE('',*,*,#549,.F.);
#694=ORIENTED_EDGE('',*,*,#539,.F.);
#695=ORIENTED_EDGE('',*,*,#550,.T.);
#696=ORIENTED_EDGE('',*,*,#551,.T.);
#697=ORIENTED_EDGE('',*,*,#552,.F.);
#698=ORIENTED_EDGE('',*,*,#553,.F.);
#699=ORIENTED_EDGE('',*,*,#554,.T.);
#700=ORIENTED_EDGE('',*,*,#553,.T.);
#701=ORIENTED_EDGE('',*,*,#555,.F.);
#702=ORIENTED_EDGE('',*,*,#556,.F.);
#703=ORIENTED_EDGE('',*,*,#557,.T.);
#704=ORIENTED_EDGE('',*,*,#556,.T.);
#705=ORIENTED_EDGE('',*,*,#558,.F.);
#706=ORIENTED_EDGE('',*,*,#559,.F.);
#707=ORIENTED_EDGE('',*,*,#560,.T.);
#708=ORIENTED_EDGE('',*,*,#559,.T.);
#709=ORIENTED_EDGE('',*,*,#561,.F.);
#710=ORIENTED_EDGE('',*,*,#551,.F.);
#711=ORIENTED_EDGE('',*,*,#562,.F.);
#712=ORIENTED_EDGE('',*,*,#563,.T.);
#713=ORIENTED_EDGE('',*,*,#564,.T.);
#714=ORIENTED_EDGE('',*,*,#563,.F.);
#715=ORIENTED_EDGE('',*,*,#565,.F.);
#716=ORIENTED_EDGE('',*,*,#566,.T.);
#717=ORIENTED_EDGE('',*,*,#567,.T.);
#718=ORIENTED_EDGE('',*,*,#566,.F.);
#719=ORIENTED_EDGE('',*,*,#568,.F.);
#720=ORIENTED_EDGE('',*,*,#569,.T.);
#721=ORIENTED_EDGE('',*,*,#570,.T.);
#722=ORIENTED_EDGE('',*,*,#569,.F.);
#723=ORIENTED_EDGE('',*,*,#571,.F.);
#724=ORIENTED_EDGE('',*,*,#572,.T.);
#725=ORIENTED_EDGE('',*,*,#573,.T.);
#726=ORIENTED_EDGE('',*,*,#572,.F.);
#727=ORIENTED_EDGE('',*,*,#574,.F.);
#728=ORIENTED_EDGE('',*,*,#575,.T.);
#729=ORIENTED_EDGE('',*,*,#576,.T.);
#730=ORIENTED_EDGE('',*,*,#575,.F.);
#731=ORIENTED_EDGE('',*,*,#577,.F.);
#732=ORIENTED_EDGE('',*,*,#578,.T.);
#733=ORIENTED_EDGE('',*,*,#579,.T.);
#734=ORIENTED_EDGE('',*,*,#578,.F.);
#735=ORIENTED_EDGE('',*,*,#580,.T.);
#736=ORIENTED_EDGE('',*,*,#581,.T.);
#737=ORIENTED_EDGE('',*,*,#582,.F.);
#738=ORIENTED_EDGE('',*,*,#583,.F.);
#739=ORIENTED_EDGE('',*,*,#584,.T.);
#740=ORIENTED_EDGE('',*,*,#583,.T.);
#741=ORIENTED_EDGE('',*,*,#585,.F.);
#742=ORIENTED_EDGE('',*,*,#586,.F.);
#743=ORIENTED_EDGE('',*,*,#587,.T.);
#744=ORIENTED_EDGE('',*,*,#586,.T.);
#745=ORIENTED_EDGE('',*,*,#588,.F.);
#746=ORIENTED_EDGE('',*,*,#589,.F.);
#747=ORIENTED_EDGE('',*,*,#590,.T.);
#748=ORIENTED_EDGE('',*,*,#589,.T.);
#749=ORIENTED_EDGE('',*,*,#591,.F.);
#750=ORIENTED_EDGE('',*,*,#581,.F.);
#751=ORIENTED_EDGE('',*,*,#592,.T.);
#752=ORIENTED_EDGE('',*,*,#593,.T.);
#753=ORIENTED_EDGE('',*,*,#594,.F.);
#754=ORIENTED_EDGE('',*,*,#595,.F.);
#755=ORIENTED_EDGE('',*,*,#596,.T.);
#756=ORIENTED_EDGE('',*,*,#595,.T.);
#757=ORIENTED_EDGE('',*,*,#597,.F.);
#758=ORIENTED_EDGE('',*,*,#598,.F.);
#759=ORIENTED_EDGE('',*,*,#599,.T.);
#760=ORIENTED_EDGE('',*,*,#598,.T.);
#761=ORIENTED_EDGE('',*,*,#600,.F.);
#762=ORIENTED_EDGE('',*,*,#601,.F.);
#763=ORIENTED_EDGE('',*,*,#602,.T.);
#764=ORIENTED_EDGE('',*,*,#601,.T.);
#765=ORIENTED_EDGE('',*,*,#603,.F.);
#766=ORIENTED_EDGE('',*,*,#593,.F.);
#767=ORIENTED_EDGE('',*,*,#604,.T.);
#768=ORIENTED_EDGE('',*,*,#605,.T.);
#769=ORIENTED_EDGE('',*,*,#606,.F.);
#770=ORIENTED_EDGE('',*,*,#607,.F.);
#771=ORIENTED_EDGE('',*,*,#608,.T.);
#772=ORIENTED_EDGE('',*,*,#607,.T.);
#773=ORIENTED_EDGE('',*,*,#609,.F.);
#774=ORIENTED_EDGE('',*,*,#610,.F.);
#775=ORIENTED_EDGE('',*,*,#611,.T.);
#776=ORIENTED_EDGE('',*,*,#610,.T.);
#777=ORIENTED_EDGE('',*,*,#612,.F.);
#778=ORIENTED_EDGE('',*,*,#613,.F.);
#779=ORIENTED_EDGE('',*,*,#614,.T.);
#780=ORIENTED_EDGE('',*,*,#613,.T.);
#781=ORIENTED_EDGE('',*,*,#615,.F.);
#782=ORIENTED_EDGE('',*,*,#605,.F.);
#783=ORIENTED_EDGE('',*,*,#616,.F.);
#784=ORIENTED_EDGE('',*,*,#617,.T.);
#785=ORIENTED_EDGE('',*,*,#618,.T.);
#786=ORIENTED_EDGE('',*,*,#617,.F.);
#787=ORIENTED_EDGE('',*,*,#619,.T.);
#788=ORIENTED_EDGE('',*,*,#620,.T.);
#789=ORIENTED_EDGE('',*,*,#621,.F.);
#790=ORIENTED_EDGE('',*,*,#622,.F.);
#791=ORIENTED_EDGE('',*,*,#623,.T.);
#792=ORIENTED_EDGE('',*,*,#622,.T.);
#793=ORIENTED_EDGE('',*,*,#624,.F.);
#794=ORIENTED_EDGE('',*,*,#625,.F.);
#795=ORIENTED_EDGE('',*,*,#626,.T.);
#796=ORIENTED_EDGE('',*,*,#625,.T.);
#797=ORIENTED_EDGE('',*,*,#627,.F.);
#798=ORIENTED_EDGE('',*,*,#628,.F.);
#799=ORIENTED_EDGE('',*,*,#629,.T.);
#800=ORIENTED_EDGE('',*,*,#628,.T.);
#801=ORIENTED_EDGE('',*,*,#630,.F.);
#802=ORIENTED_EDGE('',*,*,#620,.F.);
#803=ORIENTED_EDGE('',*,*,#630,.T.);
#804=ORIENTED_EDGE('',*,*,#627,.T.);
#805=ORIENTED_EDGE('',*,*,#624,.T.);
#806=ORIENTED_EDGE('',*,*,#621,.T.);
#807=ORIENTED_EDGE('',*,*,#616,.T.);
#808=ORIENTED_EDGE('',*,*,#615,.T.);
#809=ORIENTED_EDGE('',*,*,#612,.T.);
#810=ORIENTED_EDGE('',*,*,#609,.T.);
#811=ORIENTED_EDGE('',*,*,#606,.T.);
#812=ORIENTED_EDGE('',*,*,#603,.T.);
#813=ORIENTED_EDGE('',*,*,#600,.T.);
#814=ORIENTED_EDGE('',*,*,#597,.T.);
#815=ORIENTED_EDGE('',*,*,#594,.T.);
#816=ORIENTED_EDGE('',*,*,#591,.T.);
#817=ORIENTED_EDGE('',*,*,#588,.T.);
#818=ORIENTED_EDGE('',*,*,#585,.T.);
#819=ORIENTED_EDGE('',*,*,#582,.T.);
#820=ORIENTED_EDGE('',*,*,#577,.T.);
#821=ORIENTED_EDGE('',*,*,#574,.T.);
#822=ORIENTED_EDGE('',*,*,#571,.T.);
#823=ORIENTED_EDGE('',*,*,#568,.T.);
#824=ORIENTED_EDGE('',*,*,#565,.T.);
#825=ORIENTED_EDGE('',*,*,#562,.T.);
#826=ORIENTED_EDGE('',*,*,#561,.T.);
#827=ORIENTED_EDGE('',*,*,#558,.T.);
#828=ORIENTED_EDGE('',*,*,#555,.T.);
#829=ORIENTED_EDGE('',*,*,#552,.T.);
#830=ORIENTED_EDGE('',*,*,#549,.T.);
#831=ORIENTED_EDGE('',*,*,#546,.T.);
#832=ORIENTED_EDGE('',*,*,#543,.T.);
#833=ORIENTED_EDGE('',*,*,#540,.T.);
#834=ORIENTED_EDGE('',*,*,#537,.T.);
#835=ORIENTED_EDGE('',*,*,#534,.T.);
#836=ORIENTED_EDGE('',*,*,#531,.T.);
#837=ORIENTED_EDGE('',*,*,#528,.T.);
#838=ORIENTED_EDGE('',*,*,#525,.T.);
#839=ORIENTED_EDGE('',*,*,#522,.T.);
#840=ORIENTED_EDGE('',*,*,#519,.T.);
#841=ORIENTED_EDGE('',*,*,#516,.T.);
#842=ORIENTED_EDGE('',*,*,#513,.T.);
#843=ORIENTED_EDGE('',*,*,#510,.T.);
#844=ORIENTED_EDGE('',*,*,#507,.T.);
#845=ORIENTED_EDGE('',*,*,#504,.T.);
#846=ORIENTED_EDGE('',*,*,#629,.F.);
#847=ORIENTED_EDGE('',*,*,#619,.F.);
#848=ORIENTED_EDGE('',*,*,#623,.F.);
#849=ORIENTED_EDGE('',*,*,#626,.F.);
#850=ORIENTED_EDGE('',*,*,#618,.F.);
#851=ORIENTED_EDGE('',*,*,#614,.F.);
#852=ORIENTED_EDGE('',*,*,#604,.F.);
#853=ORIENTED_EDGE('',*,*,#608,.F.);
#854=ORIENTED_EDGE('',*,*,#611,.F.);
#855=ORIENTED_EDGE('',*,*,#602,.F.);
#856=ORIENTED_EDGE('',*,*,#592,.F.);
#857=ORIENTED_EDGE('',*,*,#596,.F.);
#858=ORIENTED_EDGE('',*,*,#599,.F.);
#859=ORIENTED_EDGE('',*,*,#590,.F.);
#860=ORIENTED_EDGE('',*,*,#580,.F.);
#861=ORIENTED_EDGE('',*,*,#584,.F.);
#862=ORIENTED_EDGE('',*,*,#587,.F.);
#863=ORIENTED_EDGE('',*,*,#579,.F.);
#864=ORIENTED_EDGE('',*,*,#576,.F.);
#865=ORIENTED_EDGE('',*,*,#573,.F.);
#866=ORIENTED_EDGE('',*,*,#570,.F.);
#867=ORIENTED_EDGE('',*,*,#567,.F.);
#868=ORIENTED_EDGE('',*,*,#564,.F.);
#869=ORIENTED_EDGE('',*,*,#560,.F.);
#870=ORIENTED_EDGE('',*,*,#550,.F.);
#871=ORIENTED_EDGE('',*,*,#554,.F.);
#872=ORIENTED_EDGE('',*,*,#557,.F.);
#873=ORIENTED_EDGE('',*,*,#548,.F.);
#874=ORIENTED_EDGE('',*,*,#538,.F.);
#875=ORIENTED_EDGE('',*,*,#542,.F.);
#876=ORIENTED_EDGE('',*,*,#545,.F.);
#877=ORIENTED_EDGE('',*,*,#536,.F.);
#878=ORIENTED_EDGE('',*,*,#526,.F.);
#879=ORIENTED_EDGE('',*,*,#530,.F.);
#880=ORIENTED_EDGE('',*,*,#533,.F.);
#881=ORIENTED_EDGE('',*,*,#524,.F.);
#882=ORIENTED_EDGE('',*,*,#514,.F.);
#883=ORIENTED_EDGE('',*,*,#518,.F.);
#884=ORIENTED_EDGE('',*,*,#521,.F.);
#885=ORIENTED_EDGE('',*,*,#512,.F.);
#886=ORIENTED_EDGE('',*,*,#502,.F.);
#887=ORIENTED_EDGE('',*,*,#506,.F.);
#888=ORIENTED_EDGE('',*,*,#509,.F.);
#889=PLANE('',#986);
#890=PLANE('',#987);
#891=PLANE('',#988);
#892=PLANE('',#989);
#893=PLANE('',#990);
#894=PLANE('',#991);
#895=PLANE('',#992);
#896=PLANE('',#993);
#897=PLANE('',#994);
#898=PLANE('',#995);
#899=PLANE('',#996);
#900=PLANE('',#997);
#901=PLANE('',#998);
#902=PLANE('',#999);
#903=PLANE('',#1000);
#904=PLANE('',#1001);
#905=PLANE('',#1002);
#906=PLANE('',#1003);
#907=PLANE('',#1004);
#908=PLANE('',#1005);
#909=PLANE('',#1024);
#910=PLANE('',#1025);
#911=PLANE('',#1026);
#912=PLANE('',#1027);
#913=PLANE('',#1028);
#914=PLANE('',#1029);
#915=PLANE('',#1030);
#916=PLANE('',#1031);
#917=PLANE('',#1032);
#918=PLANE('',#1033);
#919=PLANE('',#1034);
#920=PLANE('',#1035);
#921=PLANE('',#1039);
#922=PLANE('',#1040);
#923=PLANE('',#1041);
#924=PLANE('',#1042);
#925=PLANE('',#1043);
#926=PLANE('',#1044);
#927=ADVANCED_FACE('',(#66),#889,.T.);
#928=ADVANCED_FACE('',(#67),#890,.T.);
#929=ADVANCED_FACE('',(#68),#891,.T.);
#930=ADVANCED_FACE('',(#69),#892,.T.);
#931=ADVANCED_FACE('',(#70),#893,.T.);
#932=ADVANCED_FACE('',(#71),#894,.T.);
#933=ADVANCED_FACE('',(#72),#895,.T.);
#934=ADVANCED_FACE('',(#73),#896,.T.);
#935=ADVANCED_FACE('',(#74),#897,.T.);
#936=ADVANCED_FACE('',(#75),#898,.T.);
#937=ADVANCED_FACE('',(#76),#899,.T.);
#938=ADVANCED_FACE('',(#77),#900,.T.);
#939=ADVANCED_FACE('',(#78),#901,.T.);
#940=ADVANCED_FACE('',(#79),#902,.T.);
#941=ADVANCED_FACE('',(#80),#903,.T.);
#942=ADVANCED_FACE('',(#81),#904,.T.);
#943=ADVANCED_FACE('',(#82),#905,.T.);
#944=ADVANCED_FACE('',(#83),#906,.T.);
#945=ADVANCED_FACE('',(#84),#907,.T.);
#946=ADVANCED_FACE('',(#85),#908,.T.);
#947=ADVANCED_FACE('',(#86),#59,.F.);
#948=ADVANCED_FACE('',(#87),#60,.F.);
#949=ADVANCED_FACE('',(#88),#61,.F.);
#950=ADVANCED_FACE('',(#89),#62,.F.);
#951=ADVANCED_FACE('',(#90),#63,.F.);
#952=ADVANCED_FACE('',(#91),#64,.F.);
#953=ADVANCED_FACE('',(#92),#909,.T.);
#954=ADVANCED_FACE('',(#93),#910,.T.);
#955=ADVANCED_FACE('',(#94),#911,.T.);
#956=ADVANCED_FACE('',(#95),#912,.T.);
#957=ADVANCED_FACE('',(#96),#913,.T.);
#958=ADVANCED_FACE('',(#97),#914,.T.);
#959=ADVANCED_FACE('',(#98),#915,.T.);
#960=ADVANCED_FACE('',(#99),#916,.T.);
#961=ADVANCED_FACE('',(#100),#917,.T.);
#962=ADVANCED_FACE('',(#101),#918,.T.);
#963=ADVANCED_FACE('',(#102),#919,.T.);
#964=ADVANCED_FACE('',(#103),#920,.T.);
#965=ADVANCED_FACE('',(#104),#65,.F.);
#966=ADVANCED_FACE('',(#105),#921,.T.);
#967=ADVANCED_FACE('',(#106),#922,.T.);
#968=ADVANCED_FACE('',(#107),#923,.T.);
#969=ADVANCED_FACE('',(#108),#924,.T.);
#970=ADVANCED_FACE('',(#109,#15,#16,#17,#18,#19,#20,#21,#22,#23,#24,#25,
#26,#27,#28,#29),#925,.T.);
#971=ADVANCED_FACE('',(#110,#30,#31,#32,#33,#34,#35,#36,#37,#38,#39,#40,
#41,#42,#43,#44),#926,.F.);
#972=CLOSED_SHELL('',(#927,#928,#929,#930,#931,#932,#933,#934,#935,#936,
#937,#938,#939,#940,#941,#942,#943,#944,#945,#946,#947,#948,#949,#950,#951,
#952,#953,#954,#955,#956,#957,#958,#959,#960,#961,#962,#963,#964,#965,#966,
#967,#968,#969,#970,#971));
#973=DERIVED_UNIT_ELEMENT(#975,1.);
#974=DERIVED_UNIT_ELEMENT(#1546,-3.);
#975=(
MASS_UNIT()
NAMED_UNIT(*)
SI_UNIT(.KILO.,.GRAM.)
);
#976=DERIVED_UNIT((#973,#974));
#977=MEASURE_REPRESENTATION_ITEM('density measure',
POSITIVE_RATIO_MEASURE(7850.),#976);
#978=PROPERTY_DEFINITION_REPRESENTATION(#983,#980);
#979=PROPERTY_DEFINITION_REPRESENTATION(#984,#981);
#980=REPRESENTATION('material name',(#982),#1543);
#981=REPRESENTATION('density',(#977),#1543);
#982=DESCRIPTIVE_REPRESENTATION_ITEM('Stahl','Stahl');
#983=PROPERTY_DEFINITION('material property','material name',#1553);
#984=PROPERTY_DEFINITION('material property','density of part',#1553);
#985=AXIS2_PLACEMENT_3D('',#1280,#1045,#1046);
#986=AXIS2_PLACEMENT_3D('',#1281,#1047,#1048);
#987=AXIS2_PLACEMENT_3D('',#1290,#1053,#1054);
#988=AXIS2_PLACEMENT_3D('',#1296,#1058,#1059);
#989=AXIS2_PLACEMENT_3D('',#1302,#1063,#1064);
#990=AXIS2_PLACEMENT_3D('',#1305,#1067,#1068);
#991=AXIS2_PLACEMENT_3D('',#1314,#1073,#1074);
#992=AXIS2_PLACEMENT_3D('',#1320,#1078,#1079);
#993=AXIS2_PLACEMENT_3D('',#1326,#1083,#1084);
#994=AXIS2_PLACEMENT_3D('',#1329,#1087,#1088);
#995=AXIS2_PLACEMENT_3D('',#1338,#1093,#1094);
#996=AXIS2_PLACEMENT_3D('',#1344,#1098,#1099);
#997=AXIS2_PLACEMENT_3D('',#1350,#1103,#1104);
#998=AXIS2_PLACEMENT_3D('',#1353,#1107,#1108);
#999=AXIS2_PLACEMENT_3D('',#1362,#1113,#1114);
#1000=AXIS2_PLACEMENT_3D('',#1368,#1118,#1119);
#1001=AXIS2_PLACEMENT_3D('',#1374,#1123,#1124);
#1002=AXIS2_PLACEMENT_3D('',#1377,#1127,#1128);
#1003=AXIS2_PLACEMENT_3D('',#1386,#1133,#1134);
#1004=AXIS2_PLACEMENT_3D('',#1392,#1138,#1139);
#1005=AXIS2_PLACEMENT_3D('',#1398,#1143,#1144);
#1006=AXIS2_PLACEMENT_3D('',#1401,#1147,#1148);
#1007=AXIS2_PLACEMENT_3D('',#1403,#1149,#1150);
#1008=AXIS2_PLACEMENT_3D('',#1406,#1152,#1153);
#1009=AXIS2_PLACEMENT_3D('',#1407,#1154,#1155);
#1010=AXIS2_PLACEMENT_3D('',#1409,#1156,#1157);
#1011=AXIS2_PLACEMENT_3D('',#1412,#1159,#1160);
#1012=AXIS2_PLACEMENT_3D('',#1413,#1161,#1162);
#1013=AXIS2_PLACEMENT_3D('',#1415,#1163,#1164);
#1014=AXIS2_PLACEMENT_3D('',#1418,#1166,#1167);
#1015=AXIS2_PLACEMENT_3D('',#1419,#1168,#1169);
#1016=AXIS2_PLACEMENT_3D('',#1421,#1170,#1171);
#1017=AXIS2_PLACEMENT_3D('',#1424,#1173,#1174);
#1018=AXIS2_PLACEMENT_3D('',#1425,#1175,#1176);
#1019=AXIS2_PLACEMENT_3D('',#1427,#1177,#1178);
#1020=AXIS2_PLACEMENT_3D('',#1430,#1180,#1181);
#1021=AXIS2_PLACEMENT_3D('',#1431,#1182,#1183);
#1022=AXIS2_PLACEMENT_3D('',#1433,#1184,#1185);
#1023=AXIS2_PLACEMENT_3D('',#1436,#1187,#1188);
#1024=AXIS2_PLACEMENT_3D('',#1437,#1189,#1190);
#1025=AXIS2_PLACEMENT_3D('',#1446,#1195,#1196);
#1026=AXIS2_PLACEMENT_3D('',#1452,#1200,#1201);
#1027=AXIS2_PLACEMENT_3D('',#1458,#1205,#1206);
#1028=AXIS2_PLACEMENT_3D('',#1461,#1209,#1210);
#1029=AXIS2_PLACEMENT_3D('',#1470,#1215,#1216);
#1030=AXIS2_PLACEMENT_3D('',#1476,#1220,#1221);
#1031=AXIS2_PLACEMENT_3D('',#1482,#1225,#1226);
#1032=AXIS2_PLACEMENT_3D('',#1485,#1229,#1230);
#1033=AXIS2_PLACEMENT_3D('',#1494,#1235,#1236);
#1034=AXIS2_PLACEMENT_3D('',#1500,#1240,#1241);
#1035=AXIS2_PLACEMENT_3D('',#1506,#1245,#1246);
#1036=AXIS2_PLACEMENT_3D('',#1509,#1249,#1250);
#1037=AXIS2_PLACEMENT_3D('',#1511,#1251,#1252);
#1038=AXIS2_PLACEMENT_3D('',#1514,#1254,#1255);
#1039=AXIS2_PLACEMENT_3D('',#1515,#1256,#1257);
#1040=AXIS2_PLACEMENT_3D('',#1524,#1262,#1263);
#1041=AXIS2_PLACEMENT_3D('',#1530,#1267,#1268);
#1042=AXIS2_PLACEMENT_3D('',#1536,#1272,#1273);
#1043=AXIS2_PLACEMENT_3D('',#1539,#1276,#1277);
#1044=AXIS2_PLACEMENT_3D('',#1540,#1278,#1279);
#1045=DIRECTION('axis',(0.,0.,1.));
#1046=DIRECTION('refdir',(1.,0.,0.));
#1047=DIRECTION('center_axis',(1.95204048285742E-15,1.,0.));
#1048=DIRECTION('ref_axis',(-1.,1.95204048285742E-15,0.));
#1049=DIRECTION('',(-1.,1.95204048285742E-15,0.));
#1050=DIRECTION('',(0.,0.,1.));
#1051=DIRECTION('',(-1.,1.95204048285742E-15,0.));
#1052=DIRECTION('',(0.,0.,1.));
#1053=DIRECTION('center_axis',(-1.,0.,0.));
#1054=DIRECTION('ref_axis',(0.,-1.,0.));
#1055=DIRECTION('',(0.,-1.,0.));
#1056=DIRECTION('',(0.,-1.,0.));
#1057=DIRECTION('',(0.,0.,1.));
#1058=DIRECTION('center_axis',(-1.95204048285742E-15,-1.,0.));
#1059=DIRECTION('ref_axis',(1.,-1.95204048285742E-15,0.));
#1060=DIRECTION('',(1.,-1.95204048285742E-15,0.));
#1061=DIRECTION('',(1.,-1.95204048285742E-15,0.));
#1062=DIRECTION('',(0.,0.,1.));
#1063=DIRECTION('center_axis',(1.,0.,0.));
#1064=DIRECTION('ref_axis',(0.,1.,0.));
#1065=DIRECTION('',(0.,1.,0.));
#1066=DIRECTION('',(0.,1.,0.));
#1067=DIRECTION('center_axis',(-1.,0.,0.));
#1068=DIRECTION('ref_axis',(0.,-1.,0.));
#1069=DIRECTION('',(0.,-1.,0.));
#1070=DIRECTION('',(0.,0.,1.));
#1071=DIRECTION('',(0.,-1.,0.));
#1072=DIRECTION('',(0.,0.,1.));
#1073=DIRECTION('center_axis',(1.95204048285742E-15,-1.,0.));
#1074=DIRECTION('ref_axis',(1.,1.95204048285742E-15,0.));
#1075=DIRECTION('',(1.,1.95204048285742E-15,0.));
#1076=DIRECTION('',(1.,1.95204048285742E-15,0.));
#1077=DIRECTION('',(0.,0.,1.));
#1078=DIRECTION('center_axis',(1.,2.9409881447024E-16,0.));
#1079=DIRECTION('ref_axis',(-2.9409881447024E-16,1.,0.));
#1080=DIRECTION('',(-2.9409881447024E-16,1.,0.));
#1081=DIRECTION('',(-2.9409881447024E-16,1.,0.));
#1082=DIRECTION('',(0.,0.,1.));
#1083=DIRECTION('center_axis',(-1.95204048285742E-15,1.,0.));
#1084=DIRECTION('ref_axis',(-1.,-1.95204048285742E-15,0.));
#1085=DIRECTION('',(-1.,-1.95204048285742E-15,0.));
#1086=DIRECTION('',(-1.,-1.95204048285742E-15,0.));
#1087=DIRECTION('center_axis',(-1.,9.76020241428709E-16,0.));
#1088=DIRECTION('ref_axis',(-9.76020241428709E-16,-1.,0.));
#1089=DIRECTION('',(-9.76020241428709E-16,-1.,0.));
#1090=DIRECTION('',(0.,0.,1.));
#1091=DIRECTION('',(-9.76020241428709E-16,-1.,0.));
#1092=DIRECTION('',(0.,0.,1.));
#1093=DIRECTION('center_axis',(0.,-1.,0.));
#1094=DIRECTION('ref_axis',(1.,0.,0.));
#1095=DIRECTION('',(1.,0.,0.));
#1096=DIRECTION('',(1.,0.,0.));
#1097=DIRECTION('',(0.,0.,1.));
#1098=DIRECTION('center_axis',(1.,4.88010120714354E-16,0.));
#1099=DIRECTION('ref_axis',(-4.88010120714354E-16,1.,0.));
#1100=DIRECTION('',(-4.88010120714354E-16,1.,0.));
#1101=DIRECTION('',(-4.88010120714354E-16,1.,0.));
#1102=DIRECTION('',(0.,0.,1.));
#1103=DIRECTION('center_axis',(0.,1.,0.));
#1104=DIRECTION('ref_axis',(-1.,0.,0.));
#1105=DIRECTION('',(-1.,0.,0.));
#1106=DIRECTION('',(-1.,0.,0.));
#1107=DIRECTION('center_axis',(-1.,0.,0.));
#1108=DIRECTION('ref_axis',(0.,-1.,0.));
#1109=DIRECTION('',(0.,-1.,0.));
#1110=DIRECTION('',(0.,0.,1.));
#1111=DIRECTION('',(0.,-1.,0.));
#1112=DIRECTION('',(0.,0.,1.));
#1113=DIRECTION('center_axis',(0.,-1.,0.));
#1114=DIRECTION('ref_axis',(1.,0.,0.));
#1115=DIRECTION('',(1.,0.,0.));
#1116=DIRECTION('',(1.,0.,0.));
#1117=DIRECTION('',(0.,0.,1.));
#1118=DIRECTION('center_axis',(1.,-4.88010120714354E-16,0.));
#1119=DIRECTION('ref_axis',(4.88010120714354E-16,1.,0.));
#1120=DIRECTION('',(4.88010120714354E-16,1.,0.));
#1121=DIRECTION('',(4.88010120714354E-16,1.,0.));
#1122=DIRECTION('',(0.,0.,1.));
#1123=DIRECTION('center_axis',(0.,1.,0.));
#1124=DIRECTION('ref_axis',(-1.,0.,0.));
#1125=DIRECTION('',(-1.,0.,0.));
#1126=DIRECTION('',(-1.,0.,0.));
#1127=DIRECTION('center_axis',(9.76020241428709E-16,1.,0.));
#1128=DIRECTION('ref_axis',(-1.,9.76020241428709E-16,0.));
#1129=DIRECTION('',(-1.,9.76020241428709E-16,0.));
#1130=DIRECTION('',(0.,0.,1.));
#1131=DIRECTION('',(-1.,9.76020241428709E-16,0.));
#1132=DIRECTION('',(0.,0.,1.));
#1133=DIRECTION('center_axis',(-1.,0.,0.));
#1134=DIRECTION('ref_axis',(0.,-1.,0.));
#1135=DIRECTION('',(0.,-1.,0.));
#1136=DIRECTION('',(0.,-1.,0.));
#1137=DIRECTION('',(0.,0.,1.));
#1138=DIRECTION('center_axis',(-9.76020241428709E-16,-1.,0.));
#1139=DIRECTION('ref_axis',(1.,-9.76020241428709E-16,0.));
#1140=DIRECTION('',(1.,-9.76020241428709E-16,0.));
#1141=DIRECTION('',(1.,-9.76020241428709E-16,0.));
#1142=DIRECTION('',(0.,0.,1.));
#1143=DIRECTION('center_axis',(1.,0.,0.));
#1144=DIRECTION('ref_axis',(0.,1.,0.));
#1145=DIRECTION('',(0.,1.,0.));
#1146=DIRECTION('',(0.,1.,0.));
#1147=DIRECTION('center_axis',(0.,0.,1.));
#1148=DIRECTION('ref_axis',(1.,0.,0.));
#1149=DIRECTION('center_axis',(0.,0.,-1.));
#1150=DIRECTION('ref_axis',(1.,0.,0.));
#1151=DIRECTION('',(0.,0.,-1.));
#1152=DIRECTION('center_axis',(0.,0.,-1.));
#1153=DIRECTION('ref_axis',(1.,0.,0.));
#1154=DIRECTION('center_axis',(0.,0.,1.));
#1155=DIRECTION('ref_axis',(1.,0.,0.));
#1156=DIRECTION('center_axis',(0.,0.,-1.));
#1157=DIRECTION('ref_axis',(1.,0.,0.));
#1158=DIRECTION('',(0.,0.,-1.));
#1159=DIRECTION('center_axis',(0.,0.,-1.));
#1160=DIRECTION('ref_axis',(1.,0.,0.));
#1161=DIRECTION('center_axis',(0.,0.,1.));
#1162=DIRECTION('ref_axis',(1.,0.,0.));
#1163=DIRECTION('center_axis',(0.,0.,-1.));
#1164=DIRECTION('ref_axis',(1.,0.,0.));
#1165=DIRECTION('',(0.,0.,-1.));
#1166=DIRECTION('center_axis',(0.,0.,-1.));
#1167=DIRECTION('ref_axis',(1.,0.,0.));
#1168=DIRECTION('center_axis',(0.,0.,1.));
#1169=DIRECTION('ref_axis',(1.,0.,0.));
#1170=DIRECTION('center_axis',(0.,0.,-1.));
#1171=DIRECTION('ref_axis',(1.,0.,0.));
#1172=DIRECTION('',(0.,0.,-1.));
#1173=DIRECTION('center_axis',(0.,0.,-1.));
#1174=DIRECTION('ref_axis',(1.,0.,0.));
#1175=DIRECTION('center_axis',(0.,0.,1.));
#1176=DIRECTION('ref_axis',(1.,0.,0.));
#1177=DIRECTION('center_axis',(0.,0.,-1.));
#1178=DIRECTION('ref_axis',(1.,0.,0.));
#1179=DIRECTION('',(0.,0.,-1.));
#1180=DIRECTION('center_axis',(0.,0.,-1.));
#1181=DIRECTION('ref_axis',(1.,0.,0.));
#1182=DIRECTION('center_axis',(0.,0.,1.));
#1183=DIRECTION('ref_axis',(1.,0.,0.));
#1184=DIRECTION('center_axis',(0.,0.,-1.));
#1185=DIRECTION('ref_axis',(1.,0.,0.));
#1186=DIRECTION('',(0.,0.,-1.));
#1187=DIRECTION('center_axis',(0.,0.,-1.));
#1188=DIRECTION('ref_axis',(1.,0.,0.));
#1189=DIRECTION('center_axis',(1.,1.4704940723512E-16,0.));
#1190=DIRECTION('ref_axis',(-1.4704940723512E-16,1.,0.));
#1191=DIRECTION('',(-1.4704940723512E-16,1.,0.));
#1192=DIRECTION('',(0.,0.,1.));
#1193=DIRECTION('',(-1.4704940723512E-16,1.,0.));
#1194=DIRECTION('',(0.,0.,1.));
#1195=DIRECTION('center_axis',(0.,1.,0.));
#1196=DIRECTION('ref_axis',(-1.,0.,0.));
#1197=DIRECTION('',(-1.,0.,0.));
#1198=DIRECTION('',(-1.,0.,0.));
#1199=DIRECTION('',(0.,0.,1.));
#1200=DIRECTION('center_axis',(-1.,-2.9409881447024E-16,0.));
#1201=DIRECTION('ref_axis',(2.9409881447024E-16,-1.,0.));
#1202=DIRECTION('',(2.9409881447024E-16,-1.,0.));
#1203=DIRECTION('',(2.9409881447024E-16,-1.,0.));
#1204=DIRECTION('',(0.,0.,1.));
#1205=DIRECTION('center_axis',(9.7602024142871E-16,-1.,0.));
#1206=DIRECTION('ref_axis',(1.,9.7602024142871E-16,0.));
#1207=DIRECTION('',(1.,9.7602024142871E-16,0.));
#1208=DIRECTION('',(1.,9.7602024142871E-16,0.));
#1209=DIRECTION('center_axis',(-1.,-2.92806072428613E-15,0.));
#1210=DIRECTION('ref_axis',(2.92806072428613E-15,-1.,0.));
#1211=DIRECTION('',(2.92806072428613E-15,-1.,0.));
#1212=DIRECTION('',(0.,0.,1.));
#1213=DIRECTION('',(2.92806072428613E-15,-1.,0.));
#1214=DIRECTION('',(0.,0.,1.));
#1215=DIRECTION('center_axis',(0.,-1.,0.));
#1216=DIRECTION('ref_axis',(1.,0.,0.));
#1217=DIRECTION('',(1.,0.,0.));
#1218=DIRECTION('',(1.,0.,0.));
#1219=DIRECTION('',(0.,0.,1.));
#1220=DIRECTION('center_axis',(1.,2.92806072428613E-15,0.));
#1221=DIRECTION('ref_axis',(-2.92806072428613E-15,1.,0.));
#1222=DIRECTION('',(-2.92806072428613E-15,1.,0.));
#1223=DIRECTION('',(-2.92806072428613E-15,1.,0.));
#1224=DIRECTION('',(0.,0.,1.));
#1225=DIRECTION('center_axis',(0.,1.,0.));
#1226=DIRECTION('ref_axis',(-1.,0.,0.));
#1227=DIRECTION('',(-1.,0.,0.));
#1228=DIRECTION('',(-1.,0.,0.));
#1229=DIRECTION('center_axis',(1.,-1.95204048285742E-15,0.));
#1230=DIRECTION('ref_axis',(1.95204048285742E-15,1.,0.));
#1231=DIRECTION('',(1.95204048285742E-15,1.,0.));
#1232=DIRECTION('',(0.,0.,1.));
#1233=DIRECTION('',(1.95204048285742E-15,1.,0.));
#1234=DIRECTION('',(0.,0.,1.));
#1235=DIRECTION('center_axis',(0.,1.,0.));
#1236=DIRECTION('ref_axis',(-1.,0.,0.));
#1237=DIRECTION('',(-1.,0.,0.));
#1238=DIRECTION('',(-1.,0.,0.));
#1239=DIRECTION('',(0.,0.,1.));
#1240=DIRECTION('center_axis',(-1.,1.95204048285742E-15,0.));
#1241=DIRECTION('ref_axis',(-1.95204048285742E-15,-1.,0.));
#1242=DIRECTION('',(-1.95204048285742E-15,-1.,0.));
#1243=DIRECTION('',(-1.95204048285742E-15,-1.,0.));
#1244=DIRECTION('',(0.,0.,1.));
#1245=DIRECTION('center_axis',(0.,-1.,0.));
#1246=DIRECTION('ref_axis',(1.,0.,0.));
#1247=DIRECTION('',(1.,0.,0.));
#1248=DIRECTION('',(1.,0.,0.));
#1249=DIRECTION('center_axis',(0.,0.,1.));
#1250=DIRECTION('ref_axis',(1.,0.,0.));
#1251=DIRECTION('center_axis',(0.,0.,-1.));
#1252=DIRECTION('ref_axis',(1.,0.,0.));
#1253=DIRECTION('',(0.,0.,-1.));
#1254=DIRECTION('center_axis',(0.,0.,-1.));
#1255=DIRECTION('ref_axis',(1.,0.,0.));
#1256=DIRECTION('center_axis',(0.,1.,0.));
#1257=DIRECTION('ref_axis',(-1.,0.,0.));
#1258=DIRECTION('',(-1.,0.,0.));
#1259=DIRECTION('',(0.,0.,1.));
#1260=DIRECTION('',(-1.,0.,0.));
#1261=DIRECTION('',(0.,0.,1.));
#1262=DIRECTION('center_axis',(1.,0.,0.));
#1263=DIRECTION('ref_axis',(0.,1.,0.));
#1264=DIRECTION('',(0.,1.,0.));
#1265=DIRECTION('',(0.,1.,0.));
#1266=DIRECTION('',(0.,0.,1.));
#1267=DIRECTION('center_axis',(0.,-1.,0.));
#1268=DIRECTION('ref_axis',(1.,0.,0.));
#1269=DIRECTION('',(1.,0.,0.));
#1270=DIRECTION('',(1.,0.,0.));
#1271=DIRECTION('',(0.,0.,1.));
#1272=DIRECTION('center_axis',(-1.,0.,0.));
#1273=DIRECTION('ref_axis',(0.,-1.,0.));
#1274=DIRECTION('',(0.,-1.,0.));
#1275=DIRECTION('',(0.,-1.,0.));
#1276=DIRECTION('center_axis',(0.,0.,1.));
#1277=DIRECTION('ref_axis',(1.,0.,0.));
#1278=DIRECTION('center_axis',(0.,0.,1.));
#1279=DIRECTION('ref_axis',(1.,0.,0.));
#1280=CARTESIAN_POINT('',(0.,0.,0.));
#1281=CARTESIAN_POINT('Origin',(180.,163.4,0.));
#1282=CARTESIAN_POINT('',(180.,163.4,0.));
#1283=CARTESIAN_POINT('',(161.8,163.4,0.));
#1284=CARTESIAN_POINT('',(161.8,163.4,0.));
#1285=CARTESIAN_POINT('',(161.8,163.4,5.));
#1286=CARTESIAN_POINT('',(161.8,163.4,0.));
#1287=CARTESIAN_POINT('',(180.,163.4,5.));
#1288=CARTESIAN_POINT('',(161.8,163.4,5.));
#1289=CARTESIAN_POINT('',(180.,163.4,0.));
#1290=CARTESIAN_POINT('Origin',(180.,193.6,0.));
#1291=CARTESIAN_POINT('',(180.,193.6,0.));
#1292=CARTESIAN_POINT('',(180.,193.6,0.));
#1293=CARTESIAN_POINT('',(180.,193.6,5.));
#1294=CARTESIAN_POINT('',(180.,193.6,5.));
#1295=CARTESIAN_POINT('',(180.,193.6,0.));
#1296=CARTESIAN_POINT('Origin',(161.8,193.6,0.));
#1297=CARTESIAN_POINT('',(161.8,193.6,0.));
#1298=CARTESIAN_POINT('',(180.,193.6,0.));
#1299=CARTESIAN_POINT('',(161.8,193.6,5.));
#1300=CARTESIAN_POINT('',(180.,193.6,5.));
#1301=CARTESIAN_POINT('',(161.8,193.6,0.));
#1302=CARTESIAN_POINT('Origin',(161.8,163.4,0.));
#1303=CARTESIAN_POINT('',(161.8,193.6,0.));
#1304=CARTESIAN_POINT('',(161.8,193.6,5.));
#1305=CARTESIAN_POINT('Origin',(48.2,193.6,0.));
#1306=CARTESIAN_POINT('',(48.2,193.6,0.));
#1307=CARTESIAN_POINT('',(48.2,163.4,0.));
#1308=CARTESIAN_POINT('',(48.2,193.6,0.));
#1309=CARTESIAN_POINT('',(48.2,163.4,5.));
#1310=CARTESIAN_POINT('',(48.2,163.4,0.));
#1311=CARTESIAN_POINT('',(48.2,193.6,5.));
#1312=CARTESIAN_POINT('',(48.2,193.6,5.));
#1313=CARTESIAN_POINT('',(48.2,193.6,0.));
#1314=CARTESIAN_POINT('Origin',(30.,193.6,0.));
#1315=CARTESIAN_POINT('',(30.,193.6,0.));
#1316=CARTESIAN_POINT('',(30.,193.6,0.));
#1317=CARTESIAN_POINT('',(30.,193.6,5.));
#1318=CARTESIAN_POINT('',(30.,193.6,5.));
#1319=CARTESIAN_POINT('',(30.,193.6,0.));
#1320=CARTESIAN_POINT('Origin',(30.,163.4,0.));
#1321=CARTESIAN_POINT('',(30.,163.4,0.));
#1322=CARTESIAN_POINT('',(30.,163.4,0.));
#1323=CARTESIAN_POINT('',(30.,163.4,5.));
#1324=CARTESIAN_POINT('',(30.,163.4,5.));
#1325=CARTESIAN_POINT('',(30.,163.4,0.));
#1326=CARTESIAN_POINT('Origin',(48.2,163.4,0.));
#1327=CARTESIAN_POINT('',(48.2,163.4,0.));
#1328=CARTESIAN_POINT('',(48.2,163.4,5.));
#1329=CARTESIAN_POINT('Origin',(90.1,223.5,0.));
#1330=CARTESIAN_POINT('',(90.1,223.5,0.));
#1331=CARTESIAN_POINT('',(90.1,205.3,0.));
#1332=CARTESIAN_POINT('',(90.1,205.3,0.));
#1333=CARTESIAN_POINT('',(90.1,205.3,5.));
#1334=CARTESIAN_POINT('',(90.1,205.3,0.));
#1335=CARTESIAN_POINT('',(90.1,223.5,5.));
#1336=CARTESIAN_POINT('',(90.1,205.3,5.));
#1337=CARTESIAN_POINT('',(90.1,223.5,0.));
#1338=CARTESIAN_POINT('Origin',(59.9000000000001,223.5,0.));
#1339=CARTESIAN_POINT('',(59.9000000000001,223.5,0.));
#1340=CARTESIAN_POINT('',(59.9000000000001,223.5,0.));
#1341=CARTESIAN_POINT('',(59.9000000000001,223.5,5.));
#1342=CARTESIAN_POINT('',(59.9000000000001,223.5,5.));
#1343=CARTESIAN_POINT('',(59.9000000000001,223.5,0.));
#1344=CARTESIAN_POINT('Origin',(59.9000000000001,205.3,0.));
#1345=CARTESIAN_POINT('',(59.9000000000001,205.3,0.));
#1346=CARTESIAN_POINT('',(59.9000000000001,223.5,0.));
#1347=CARTESIAN_POINT('',(59.9000000000001,205.3,5.));
#1348=CARTESIAN_POINT('',(59.9000000000001,223.5,5.));
#1349=CARTESIAN_POINT('',(59.9000000000001,205.3,0.));
#1350=CARTESIAN_POINT('Origin',(90.1,205.3,0.));
#1351=CARTESIAN_POINT('',(59.9000000000001,205.3,0.));
#1352=CARTESIAN_POINT('',(59.9000000000001,205.3,5.));
#1353=CARTESIAN_POINT('Origin',(90.1,91.7000000000001,0.));
#1354=CARTESIAN_POINT('',(90.1,91.7000000000001,0.));
#1355=CARTESIAN_POINT('',(90.1,73.5,0.));
#1356=CARTESIAN_POINT('',(90.1,73.5,0.));
#1357=CARTESIAN_POINT('',(90.1,73.5,5.));
#1358=CARTESIAN_POINT('',(90.1,73.5,0.));
#1359=CARTESIAN_POINT('',(90.1,91.7000000000001,5.));
#1360=CARTESIAN_POINT('',(90.1,73.5,5.));
#1361=CARTESIAN_POINT('',(90.1,91.7000000000001,0.));
#1362=CARTESIAN_POINT('Origin',(59.9,91.7000000000001,0.));
#1363=CARTESIAN_POINT('',(59.9,91.7000000000001,0.));
#1364=CARTESIAN_POINT('',(90.1,91.7000000000001,0.));
#1365=CARTESIAN_POINT('',(59.9,91.7000000000001,5.));
#1366=CARTESIAN_POINT('',(90.1,91.7000000000001,5.));
#1367=CARTESIAN_POINT('',(59.9,91.7000000000001,0.));
#1368=CARTESIAN_POINT('Origin',(59.9,73.5,0.));
#1369=CARTESIAN_POINT('',(59.9,73.5,0.));
#1370=CARTESIAN_POINT('',(59.9,91.7000000000001,0.));
#1371=CARTESIAN_POINT('',(59.9,73.5,5.));
#1372=CARTESIAN_POINT('',(59.9,91.7000000000001,5.));
#1373=CARTESIAN_POINT('',(59.9,73.5,0.));
#1374=CARTESIAN_POINT('Origin',(90.1,73.5,0.));
#1375=CARTESIAN_POINT('',(59.9,73.5,0.));
#1376=CARTESIAN_POINT('',(59.9,73.5,5.));
#1377=CARTESIAN_POINT('Origin',(180.,103.4,0.));
#1378=CARTESIAN_POINT('',(180.,103.4,0.));
#1379=CARTESIAN_POINT('',(161.8,103.4,0.));
#1380=CARTESIAN_POINT('',(180.,103.4,0.));
#1381=CARTESIAN_POINT('',(161.8,103.4,5.));
#1382=CARTESIAN_POINT('',(161.8,103.4,0.));
#1383=CARTESIAN_POINT('',(180.,103.4,5.));
#1384=CARTESIAN_POINT('',(180.,103.4,5.));
#1385=CARTESIAN_POINT('',(180.,103.4,0.));
#1386=CARTESIAN_POINT('Origin',(180.,133.6,0.));
#1387=CARTESIAN_POINT('',(180.,133.6,0.));
#1388=CARTESIAN_POINT('',(180.,133.6,0.));
#1389=CARTESIAN_POINT('',(180.,133.6,5.));
#1390=CARTESIAN_POINT('',(180.,133.6,5.));
#1391=CARTESIAN_POINT('',(180.,133.6,0.));
#1392=CARTESIAN_POINT('Origin',(161.8,133.6,0.));
#1393=CARTESIAN_POINT('',(161.8,133.6,0.));
#1394=CARTESIAN_POINT('',(180.,133.6,0.));
#1395=CARTESIAN_POINT('',(161.8,133.6,5.));
#1396=CARTESIAN_POINT('',(180.,133.6,5.));
#1397=CARTESIAN_POINT('',(161.8,133.6,0.));
#1398=CARTESIAN_POINT('Origin',(161.8,103.4,0.));
#1399=CARTESIAN_POINT('',(161.8,133.6,0.));
#1400=CARTESIAN_POINT('',(161.8,133.6,5.));
#1401=CARTESIAN_POINT('Origin',(180.,25.,0.));
#1402=CARTESIAN_POINT('',(174.,25.,5.));
#1403=CARTESIAN_POINT('Origin',(180.,25.,5.));
#1404=CARTESIAN_POINT('',(174.,25.,0.));
#1405=CARTESIAN_POINT('',(174.,25.,0.));
#1406=CARTESIAN_POINT('Origin',(180.,25.,0.));
#1407=CARTESIAN_POINT('Origin',(149.999999999999,25.,0.));
#1408=CARTESIAN_POINT('',(143.999999999999,25.,5.));
#1409=CARTESIAN_POINT('Origin',(149.999999999999,25.,5.));
#1410=CARTESIAN_POINT('',(143.999999999999,25.,0.));
#1411=CARTESIAN_POINT('',(143.999999999999,25.,0.));
#1412=CARTESIAN_POINT('Origin',(149.999999999999,25.,0.));
#1413=CARTESIAN_POINT('Origin',(130.,123.5,0.));
#1414=CARTESIAN_POINT('',(127.75,123.5,5.));
#1415=CARTESIAN_POINT('Origin',(130.,123.5,5.));
#1416=CARTESIAN_POINT('',(127.75,123.5,0.));
#1417=CARTESIAN_POINT('',(127.75,123.5,0.));
#1418=CARTESIAN_POINT('Origin',(130.,123.5,0.));
#1419=CARTESIAN_POINT('Origin',(105.,148.5,0.));
#1420=CARTESIAN_POINT('',(80.,148.5,5.));
#1421=CARTESIAN_POINT('Origin',(105.,148.5,5.));
#1422=CARTESIAN_POINT('',(80.,148.5,0.));
#1423=CARTESIAN_POINT('',(80.,148.5,0.));
#1424=CARTESIAN_POINT('Origin',(105.,148.5,0.));
#1425=CARTESIAN_POINT('Origin',(130.,173.5,0.));
#1426=CARTESIAN_POINT('',(127.75,173.5,5.));
#1427=CARTESIAN_POINT('Origin',(130.,173.5,5.));
#1428=CARTESIAN_POINT('',(127.75,173.5,0.));
#1429=CARTESIAN_POINT('',(127.75,173.5,0.));
#1430=CARTESIAN_POINT('Origin',(130.,173.5,0.));
#1431=CARTESIAN_POINT('Origin',(80.,173.5,0.));
#1432=CARTESIAN_POINT('',(77.75,173.5,5.));
#1433=CARTESIAN_POINT('Origin',(80.,173.5,5.));
#1434=CARTESIAN_POINT('',(77.75,173.5,0.));
#1435=CARTESIAN_POINT('',(77.75,173.5,0.));
#1436=CARTESIAN_POINT('Origin',(80.,173.5,0.));
#1437=CARTESIAN_POINT('Origin',(30.,103.4,0.));
#1438=CARTESIAN_POINT('',(30.,103.4,0.));
#1439=CARTESIAN_POINT('',(30.,133.6,0.));
#1440=CARTESIAN_POINT('',(30.,133.6,0.));
#1441=CARTESIAN_POINT('',(30.,133.6,5.));
#1442=CARTESIAN_POINT('',(30.,133.6,0.));
#1443=CARTESIAN_POINT('',(30.,103.4,5.));
#1444=CARTESIAN_POINT('',(30.,133.6,5.));
#1445=CARTESIAN_POINT('',(30.,103.4,0.));
#1446=CARTESIAN_POINT('Origin',(48.2,103.4,0.));
#1447=CARTESIAN_POINT('',(48.2,103.4,0.));
#1448=CARTESIAN_POINT('',(48.2,103.4,0.));
#1449=CARTESIAN_POINT('',(48.2,103.4,5.));
#1450=CARTESIAN_POINT('',(48.2,103.4,5.));
#1451=CARTESIAN_POINT('',(48.2,103.4,0.));
#1452=CARTESIAN_POINT('Origin',(48.2,133.6,0.));
#1453=CARTESIAN_POINT('',(48.2,133.6,0.));
#1454=CARTESIAN_POINT('',(48.2,133.6,0.));
#1455=CARTESIAN_POINT('',(48.2,133.6,5.));
#1456=CARTESIAN_POINT('',(48.2,133.6,5.));
#1457=CARTESIAN_POINT('',(48.2,133.6,0.));
#1458=CARTESIAN_POINT('Origin',(30.,133.6,0.));
#1459=CARTESIAN_POINT('',(30.,133.6,0.));
#1460=CARTESIAN_POINT('',(30.,133.6,5.));
#1461=CARTESIAN_POINT('Origin',(150.1,223.5,0.));
#1462=CARTESIAN_POINT('',(150.1,223.5,0.));
#1463=CARTESIAN_POINT('',(150.1,205.3,0.));
#1464=CARTESIAN_POINT('',(150.1,205.3,0.));
#1465=CARTESIAN_POINT('',(150.1,205.3,5.));
#1466=CARTESIAN_POINT('',(150.1,205.3,0.));
#1467=CARTESIAN_POINT('',(150.1,223.5,5.));
#1468=CARTESIAN_POINT('',(150.1,205.3,5.));
#1469=CARTESIAN_POINT('',(150.1,223.5,0.));
#1470=CARTESIAN_POINT('Origin',(119.9,223.5,0.));
#1471=CARTESIAN_POINT('',(119.9,223.5,0.));
#1472=CARTESIAN_POINT('',(119.9,223.5,0.));
#1473=CARTESIAN_POINT('',(119.9,223.5,5.));
#1474=CARTESIAN_POINT('',(119.9,223.5,5.));
#1475=CARTESIAN_POINT('',(119.9,223.5,0.));
#1476=CARTESIAN_POINT('Origin',(119.9,205.3,0.));
#1477=CARTESIAN_POINT('',(119.9,205.3,0.));
#1478=CARTESIAN_POINT('',(119.9,223.5,0.));
#1479=CARTESIAN_POINT('',(119.9,205.3,5.));
#1480=CARTESIAN_POINT('',(119.9,223.5,5.));
#1481=CARTESIAN_POINT('',(119.9,205.3,0.));
#1482=CARTESIAN_POINT('Origin',(150.1,205.3,0.));
#1483=CARTESIAN_POINT('',(119.9,205.3,0.));
#1484=CARTESIAN_POINT('',(119.9,205.3,5.));
#1485=CARTESIAN_POINT('Origin',(119.9,73.5,0.));
#1486=CARTESIAN_POINT('',(119.9,73.5,0.));
#1487=CARTESIAN_POINT('',(119.9,91.7000000000001,0.));
#1488=CARTESIAN_POINT('',(119.9,91.7000000000001,0.));
#1489=CARTESIAN_POINT('',(119.9,91.7000000000001,5.));
#1490=CARTESIAN_POINT('',(119.9,91.7000000000001,0.));
#1491=CARTESIAN_POINT('',(119.9,73.5,5.));
#1492=CARTESIAN_POINT('',(119.9,91.7000000000001,5.));
#1493=CARTESIAN_POINT('',(119.9,73.5,0.));
#1494=CARTESIAN_POINT('Origin',(150.1,73.5,0.));
#1495=CARTESIAN_POINT('',(150.1,73.5,0.));
#1496=CARTESIAN_POINT('',(119.9,73.5,0.));
#1497=CARTESIAN_POINT('',(150.1,73.5,5.));
#1498=CARTESIAN_POINT('',(119.9,73.5,5.));
#1499=CARTESIAN_POINT('',(150.1,73.5,0.));
#1500=CARTESIAN_POINT('Origin',(150.1,91.7000000000001,0.));
#1501=CARTESIAN_POINT('',(150.1,91.7000000000001,0.));
#1502=CARTESIAN_POINT('',(150.1,91.7000000000001,0.));
#1503=CARTESIAN_POINT('',(150.1,91.7000000000001,5.));
#1504=CARTESIAN_POINT('',(150.1,91.7000000000001,5.));
#1505=CARTESIAN_POINT('',(150.1,91.7000000000001,0.));
#1506=CARTESIAN_POINT('Origin',(119.9,91.7000000000001,0.));
#1507=CARTESIAN_POINT('',(150.1,91.7000000000001,0.));
#1508=CARTESIAN_POINT('',(150.1,91.7000000000001,5.));
#1509=CARTESIAN_POINT('Origin',(80.,123.5,0.));
#1510=CARTESIAN_POINT('',(77.75,123.5,5.));
#1511=CARTESIAN_POINT('Origin',(80.,123.5,5.));
#1512=CARTESIAN_POINT('',(77.75,123.5,0.));
#1513=CARTESIAN_POINT('',(77.75,123.5,0.));
#1514=CARTESIAN_POINT('Origin',(80.,123.5,0.));
#1515=CARTESIAN_POINT('Origin',(210.,297.,0.));
#1516=CARTESIAN_POINT('',(210.,297.,0.));
#1517=CARTESIAN_POINT('',(0.,297.,0.));
#1518=CARTESIAN_POINT('',(210.,297.,0.));
#1519=CARTESIAN_POINT('',(0.,297.,5.));
#1520=CARTESIAN_POINT('',(0.,297.,0.));
#1521=CARTESIAN_POINT('',(210.,297.,5.));
#1522=CARTESIAN_POINT('',(210.,297.,5.));
#1523=CARTESIAN_POINT('',(210.,297.,0.));
#1524=CARTESIAN_POINT('Origin',(210.,0.,0.));
#1525=CARTESIAN_POINT('',(210.,0.,0.));
#1526=CARTESIAN_POINT('',(210.,0.,0.));
#1527=CARTESIAN_POINT('',(210.,0.,5.));
#1528=CARTESIAN_POINT('',(210.,0.,5.));
#1529=CARTESIAN_POINT('',(210.,0.,0.));
#1530=CARTESIAN_POINT('Origin',(0.,0.,0.));
#1531=CARTESIAN_POINT('',(0.,0.,0.));
#1532=CARTESIAN_POINT('',(0.,0.,0.));
#1533=CARTESIAN_POINT('',(0.,0.,5.));
#1534=CARTESIAN_POINT('',(0.,0.,5.));
#1535=CARTESIAN_POINT('',(0.,0.,0.));
#1536=CARTESIAN_POINT('Origin',(0.,297.,0.));
#1537=CARTESIAN_POINT('',(0.,297.,0.));
#1538=CARTESIAN_POINT('',(0.,297.,5.));
#1539=CARTESIAN_POINT('Origin',(105.,148.5,5.));
#1540=CARTESIAN_POINT('Origin',(105.,148.5,0.));
#1541=UNCERTAINTY_MEASURE_WITH_UNIT(LENGTH_MEASURE(0.01),#1545,
'DISTANCE_ACCURACY_VALUE',
'Maximum model space distance between geometric entities at asserted c
onnectivities');
#1542=UNCERTAINTY_MEASURE_WITH_UNIT(LENGTH_MEASURE(0.01),#1545,
'DISTANCE_ACCURACY_VALUE',
'Maximum model space distance between geometric entities at asserted c
onnectivities');
#1543=(
GEOMETRIC_REPRESENTATION_CONTEXT(3)
GLOBAL_UNCERTAINTY_ASSIGNED_CONTEXT((#1541))
GLOBAL_UNIT_ASSIGNED_CONTEXT((#1545,#1547,#1548))
REPRESENTATION_CONTEXT('','3D')
);
#1544=(
GEOMETRIC_REPRESENTATION_CONTEXT(3)
GLOBAL_UNCERTAINTY_ASSIGNED_CONTEXT((#1542))
GLOBAL_UNIT_ASSIGNED_CONTEXT((#1545,#1547,#1548))
REPRESENTATION_CONTEXT('','3D')
);
#1545=(
LENGTH_UNIT()
NAMED_UNIT(*)
SI_UNIT(.MILLI.,.METRE.)
);
#1546=(
LENGTH_UNIT()
NAMED_UNIT(*)
SI_UNIT($,.METRE.)
);
#1547=(
NAMED_UNIT(*)
PLANE_ANGLE_UNIT()
SI_UNIT($,.RADIAN.)
);
#1548=(
NAMED_UNIT(*)
SI_UNIT($,.STERADIAN.)
SOLID_ANGLE_UNIT()
);
#1549=SHAPE_DEFINITION_REPRESENTATION(#1550,#1551);
#1550=PRODUCT_DEFINITION_SHAPE('',$,#1553);
#1551=SHAPE_REPRESENTATION('',(#985),#1543);
#1552=PRODUCT_DEFINITION_CONTEXT('part definition',#1557,'design');
#1553=PRODUCT_DEFINITION('Board_Schwungrad','Board_Schwungrad v4',#1554,
#1552);
#1554=PRODUCT_DEFINITION_FORMATION('',$,#1559);
#1555=PRODUCT_RELATED_PRODUCT_CATEGORY('Board_Schwungrad v4',
'Board_Schwungrad v4',(#1559));
#1556=APPLICATION_PROTOCOL_DEFINITION('international standard',
'automotive_design',2009,#1557);
#1557=APPLICATION_CONTEXT(
'Core Data for Automotive Mechanical Design Process');
#1558=PRODUCT_CONTEXT('part definition',#1557,'mechanical');
#1559=PRODUCT('Board_Schwungrad','Board_Schwungrad v4',$,(#1558));
#1560=PRESENTATION_STYLE_ASSIGNMENT((#1562));
#1561=PRESENTATION_STYLE_ASSIGNMENT((#1563));
#1562=SURFACE_STYLE_USAGE(.BOTH.,#1564);
#1563=SURFACE_STYLE_USAGE(.BOTH.,#1565);
#1564=SURFACE_SIDE_STYLE('',(#1566));
#1565=SURFACE_SIDE_STYLE('',(#1567));
#1566=SURFACE_STYLE_FILL_AREA(#1568);
#1567=SURFACE_STYLE_FILL_AREA(#1569);
#1568=FILL_AREA_STYLE('Stahl - satiniert',(#1570));
#1569=FILL_AREA_STYLE('Kunststoff - gl\X\E4nzend (Wei\X\DF)',(#1571));
#1570=FILL_AREA_STYLE_COLOUR('Stahl - satiniert',#1572);
#1571=FILL_AREA_STYLE_COLOUR('Kunststoff - gl\X\E4nzend (Wei\X\DF)',#1573);
#1572=COLOUR_RGB('Stahl - satiniert',0.627450980392157,0.627450980392157,
0.627450980392157);
#1573=COLOUR_RGB('Kunststoff - gl\X\E4nzend (Wei\X\DF)',0.964705882352941,
0.964705882352941,0.952941176470588);
ENDSEC;
END-ISO-10303-21;
