ISO-10303-21;
HEADER;
/* Generated by software containing ST-Developer
 * from STEP Tools, Inc. (www.steptools.com) 
 */

FILE_DESCRIPTION(
/* description */ (''),
/* implementation_level */ '2;1');

FILE_NAME(
/* name */ 'Schwungrad_Gegenhalter_Motor.step',
/* time_stamp */ '2026-06-28T16:59:06+02:00',
/* author */ (''),
/* organization */ (''),
/* preprocessor_version */ 'ST-DEVELOPER v20.1',
/* originating_system */ 'Autodesk Translation Framework v15.8.0.0',
/* authorisation */ '');

FILE_SCHEMA (('AUTOMOTIVE_DESIGN { 1 0 10303 214 3 1 1 }'));
ENDSEC;

DATA;
#10=MECHANICAL_DESIGN_GEOMETRIC_PRESENTATION_REPRESENTATION('',(#13),#1395);
#11=SHAPE_REPRESENTATION_RELATIONSHIP('SRR','None',#1402,#12);
#12=ADVANCED_BREP_SHAPE_REPRESENTATION('',(#14),#1394);
#13=STYLED_ITEM('',(#1412),#14);
#14=MANIFOLD_SOLID_BREP('Gegenhalter_Motor_TH_V',#851);
#15=FACE_BOUND('',#113,.T.);
#16=FACE_BOUND('',#114,.T.);
#17=FACE_BOUND('',#115,.T.);
#18=FACE_BOUND('',#116,.T.);
#19=FACE_BOUND('',#117,.T.);
#20=FACE_BOUND('',#125,.T.);
#21=FACE_BOUND('',#137,.T.);
#22=FACE_BOUND('',#145,.T.);
#23=FACE_BOUND('',#153,.T.);
#24=FACE_BOUND('',#161,.T.);
#25=FACE_BOUND('',#165,.T.);
#26=FACE_BOUND('',#166,.T.);
#27=FACE_BOUND('',#167,.T.);
#28=FACE_BOUND('',#168,.T.);
#29=FACE_BOUND('',#169,.T.);
#30=PLANE('',#868);
#31=PLANE('',#869);
#32=PLANE('',#880);
#33=PLANE('',#883);
#34=PLANE('',#888);
#35=PLANE('',#898);
#36=PLANE('',#899);
#37=PLANE('',#900);
#38=PLANE('',#901);
#39=PLANE('',#902);
#40=PLANE('',#903);
#41=PLANE('',#904);
#42=PLANE('',#905);
#43=PLANE('',#906);
#44=PLANE('',#907);
#45=PLANE('',#908);
#46=PLANE('',#909);
#47=PLANE('',#910);
#48=PLANE('',#911);
#49=PLANE('',#912);
#50=PLANE('',#913);
#51=PLANE('',#914);
#52=PLANE('',#915);
#53=PLANE('',#916);
#54=PLANE('',#917);
#55=PLANE('',#918);
#56=PLANE('',#919);
#57=PLANE('',#920);
#58=PLANE('',#921);
#59=PLANE('',#922);
#60=PLANE('',#923);
#61=PLANE('',#924);
#62=PLANE('',#925);
#63=PLANE('',#928);
#64=PLANE('',#929);
#65=FACE_OUTER_BOUND('',#110,.T.);
#66=FACE_OUTER_BOUND('',#111,.T.);
#67=FACE_OUTER_BOUND('',#112,.T.);
#68=FACE_OUTER_BOUND('',#118,.T.);
#69=FACE_OUTER_BOUND('',#119,.T.);
#70=FACE_OUTER_BOUND('',#120,.T.);
#71=FACE_OUTER_BOUND('',#121,.T.);
#72=FACE_OUTER_BOUND('',#122,.T.);
#73=FACE_OUTER_BOUND('',#123,.T.);
#74=FACE_OUTER_BOUND('',#124,.T.);
#75=FACE_OUTER_BOUND('',#126,.T.);
#76=FACE_OUTER_BOUND('',#127,.T.);
#77=FACE_OUTER_BOUND('',#128,.T.);
#78=FACE_OUTER_BOUND('',#129,.T.);
#79=FACE_OUTER_BOUND('',#130,.T.);
#80=FACE_OUTER_BOUND('',#131,.T.);
#81=FACE_OUTER_BOUND('',#132,.T.);
#82=FACE_OUTER_BOUND('',#133,.T.);
#83=FACE_OUTER_BOUND('',#134,.T.);
#84=FACE_OUTER_BOUND('',#135,.T.);
#85=FACE_OUTER_BOUND('',#136,.T.);
#86=FACE_OUTER_BOUND('',#138,.T.);
#87=FACE_OUTER_BOUND('',#139,.T.);
#88=FACE_OUTER_BOUND('',#140,.T.);
#89=FACE_OUTER_BOUND('',#141,.T.);
#90=FACE_OUTER_BOUND('',#142,.T.);
#91=FACE_OUTER_BOUND('',#143,.T.);
#92=FACE_OUTER_BOUND('',#144,.T.);
#93=FACE_OUTER_BOUND('',#146,.T.);
#94=FACE_OUTER_BOUND('',#147,.T.);
#95=FACE_OUTER_BOUND('',#148,.T.);
#96=FACE_OUTER_BOUND('',#149,.T.);
#97=FACE_OUTER_BOUND('',#150,.T.);
#98=FACE_OUTER_BOUND('',#151,.T.);
#99=FACE_OUTER_BOUND('',#152,.T.);
#100=FACE_OUTER_BOUND('',#154,.T.);
#101=FACE_OUTER_BOUND('',#155,.T.);
#102=FACE_OUTER_BOUND('',#156,.T.);
#103=FACE_OUTER_BOUND('',#157,.T.);
#104=FACE_OUTER_BOUND('',#158,.T.);
#105=FACE_OUTER_BOUND('',#159,.T.);
#106=FACE_OUTER_BOUND('',#160,.T.);
#107=FACE_OUTER_BOUND('',#162,.T.);
#108=FACE_OUTER_BOUND('',#163,.T.);
#109=FACE_OUTER_BOUND('',#164,.T.);
#110=EDGE_LOOP('',(#568,#569,#570,#571));
#111=EDGE_LOOP('',(#572,#573,#574,#575));
#112=EDGE_LOOP('',(#576,#577,#578,#579,#580,#581,#582,#583));
#113=EDGE_LOOP('',(#584));
#114=EDGE_LOOP('',(#585));
#115=EDGE_LOOP('',(#586));
#116=EDGE_LOOP('',(#587));
#117=EDGE_LOOP('',(#588));
#118=EDGE_LOOP('',(#589,#590,#591,#592));
#119=EDGE_LOOP('',(#593,#594,#595,#596));
#120=EDGE_LOOP('',(#597,#598,#599,#600));
#121=EDGE_LOOP('',(#601,#602,#603,#604));
#122=EDGE_LOOP('',(#605,#606,#607,#608));
#123=EDGE_LOOP('',(#609,#610,#611,#612));
#124=EDGE_LOOP('',(#613));
#125=EDGE_LOOP('',(#614));
#126=EDGE_LOOP('',(#615,#616,#617,#618));
#127=EDGE_LOOP('',(#619,#620,#621,#622));
#128=EDGE_LOOP('',(#623,#624,#625,#626));
#129=EDGE_LOOP('',(#627,#628,#629,#630));
#130=EDGE_LOOP('',(#631,#632,#633,#634));
#131=EDGE_LOOP('',(#635,#636,#637,#638));
#132=EDGE_LOOP('',(#639,#640,#641,#642));
#133=EDGE_LOOP('',(#643,#644,#645,#646));
#134=EDGE_LOOP('',(#647,#648,#649,#650));
#135=EDGE_LOOP('',(#651,#652,#653,#654));
#136=EDGE_LOOP('',(#655,#656,#657,#658,#659,#660));
#137=EDGE_LOOP('',(#661));
#138=EDGE_LOOP('',(#662,#663,#664,#665));
#139=EDGE_LOOP('',(#666,#667,#668,#669));
#140=EDGE_LOOP('',(#670,#671,#672,#673));
#141=EDGE_LOOP('',(#674,#675,#676,#677));
#142=EDGE_LOOP('',(#678,#679,#680,#681));
#143=EDGE_LOOP('',(#682,#683,#684,#685));
#144=EDGE_LOOP('',(#686,#687,#688,#689,#690,#691));
#145=EDGE_LOOP('',(#692));
#146=EDGE_LOOP('',(#693,#694,#695,#696));
#147=EDGE_LOOP('',(#697,#698,#699,#700));
#148=EDGE_LOOP('',(#701,#702,#703,#704));
#149=EDGE_LOOP('',(#705,#706,#707,#708));
#150=EDGE_LOOP('',(#709,#710,#711,#712));
#151=EDGE_LOOP('',(#713,#714,#715,#716));
#152=EDGE_LOOP('',(#717,#718,#719,#720,#721,#722));
#153=EDGE_LOOP('',(#723));
#154=EDGE_LOOP('',(#724,#725,#726,#727));
#155=EDGE_LOOP('',(#728,#729,#730,#731));
#156=EDGE_LOOP('',(#732,#733,#734,#735));
#157=EDGE_LOOP('',(#736,#737,#738,#739));
#158=EDGE_LOOP('',(#740,#741,#742,#743));
#159=EDGE_LOOP('',(#744,#745,#746,#747));
#160=EDGE_LOOP('',(#748,#749,#750,#751,#752,#753));
#161=EDGE_LOOP('',(#754));
#162=EDGE_LOOP('',(#755,#756,#757,#758));
#163=EDGE_LOOP('',(#759,#760,#761,#762));
#164=EDGE_LOOP('',(#763,#764,#765,#766,#767,#768,#769,#770));
#165=EDGE_LOOP('',(#771));
#166=EDGE_LOOP('',(#772,#773,#774,#775,#776,#777));
#167=EDGE_LOOP('',(#778,#779,#780,#781,#782,#783));
#168=EDGE_LOOP('',(#784,#785,#786,#787,#788,#789));
#169=EDGE_LOOP('',(#790,#791,#792,#793,#794,#795));
#170=LINE('',#1162,#264);
#171=LINE('',#1165,#265);
#172=LINE('',#1168,#266);
#173=LINE('',#1170,#267);
#174=LINE('',#1171,#268);
#175=LINE('',#1174,#269);
#176=LINE('',#1178,#270);
#177=LINE('',#1182,#271);
#178=LINE('',#1197,#272);
#179=LINE('',#1200,#273);
#180=LINE('',#1201,#274);
#181=LINE('',#1206,#275);
#182=LINE('',#1207,#276);
#183=LINE('',#1209,#277);
#184=LINE('',#1213,#278);
#185=LINE('',#1216,#279);
#186=LINE('',#1224,#280);
#187=LINE('',#1228,#281);
#188=LINE('',#1232,#282);
#189=LINE('',#1236,#283);
#190=LINE('',#1240,#284);
#191=LINE('',#1242,#285);
#192=LINE('',#1244,#286);
#193=LINE('',#1245,#287);
#194=LINE('',#1248,#288);
#195=LINE('',#1250,#289);
#196=LINE('',#1251,#290);
#197=LINE('',#1254,#291);
#198=LINE('',#1256,#292);
#199=LINE('',#1257,#293);
#200=LINE('',#1260,#294);
#201=LINE('',#1262,#295);
#202=LINE('',#1263,#296);
#203=LINE('',#1266,#297);
#204=LINE('',#1268,#298);
#205=LINE('',#1269,#299);
#206=LINE('',#1271,#300);
#207=LINE('',#1272,#301);
#208=LINE('',#1277,#302);
#209=LINE('',#1279,#303);
#210=LINE('',#1281,#304);
#211=LINE('',#1282,#305);
#212=LINE('',#1285,#306);
#213=LINE('',#1287,#307);
#214=LINE('',#1288,#308);
#215=LINE('',#1291,#309);
#216=LINE('',#1293,#310);
#217=LINE('',#1294,#311);
#218=LINE('',#1297,#312);
#219=LINE('',#1299,#313);
#220=LINE('',#1300,#314);
#221=LINE('',#1303,#315);
#222=LINE('',#1305,#316);
#223=LINE('',#1306,#317);
#224=LINE('',#1308,#318);
#225=LINE('',#1309,#319);
#226=LINE('',#1314,#320);
#227=LINE('',#1316,#321);
#228=LINE('',#1318,#322);
#229=LINE('',#1319,#323);
#230=LINE('',#1322,#324);
#231=LINE('',#1324,#325);
#232=LINE('',#1325,#326);
#233=LINE('',#1328,#327);
#234=LINE('',#1330,#328);
#235=LINE('',#1331,#329);
#236=LINE('',#1334,#330);
#237=LINE('',#1336,#331);
#238=LINE('',#1337,#332);
#239=LINE('',#1340,#333);
#240=LINE('',#1342,#334);
#241=LINE('',#1343,#335);
#242=LINE('',#1345,#336);
#243=LINE('',#1346,#337);
#244=LINE('',#1351,#338);
#245=LINE('',#1353,#339);
#246=LINE('',#1355,#340);
#247=LINE('',#1356,#341);
#248=LINE('',#1359,#342);
#249=LINE('',#1361,#343);
#250=LINE('',#1362,#344);
#251=LINE('',#1365,#345);
#252=LINE('',#1367,#346);
#253=LINE('',#1368,#347);
#254=LINE('',#1371,#348);
#255=LINE('',#1373,#349);
#256=LINE('',#1374,#350);
#257=LINE('',#1377,#351);
#258=LINE('',#1379,#352);
#259=LINE('',#1380,#353);
#260=LINE('',#1382,#354);
#261=LINE('',#1383,#355);
#262=LINE('',#1388,#356);
#263=LINE('',#1390,#357);
#264=VECTOR('',#936,10.);
#265=VECTOR('',#939,10.);
#266=VECTOR('',#942,10.);
#267=VECTOR('',#943,10.);
#268=VECTOR('',#944,10.);
#269=VECTOR('',#947,10.);
#270=VECTOR('',#950,10.);
#271=VECTOR('',#953,10.);
#272=VECTOR('',#970,10.);
#273=VECTOR('',#973,10.);
#274=VECTOR('',#974,10.);
#275=VECTOR('',#979,10.);
#276=VECTOR('',#980,10.);
#277=VECTOR('',#983,10.);
#278=VECTOR('',#988,10.);
#279=VECTOR('',#991,25.);
#280=VECTOR('',#1002,2.25);
#281=VECTOR('',#1007,2.25);
#282=VECTOR('',#1012,2.25);
#283=VECTOR('',#1017,2.25);
#284=VECTOR('',#1020,10.);
#285=VECTOR('',#1021,10.);
#286=VECTOR('',#1022,10.);
#287=VECTOR('',#1023,10.);
#288=VECTOR('',#1026,10.);
#289=VECTOR('',#1027,10.);
#290=VECTOR('',#1028,10.);
#291=VECTOR('',#1031,10.);
#292=VECTOR('',#1032,10.);
#293=VECTOR('',#1033,10.);
#294=VECTOR('',#1036,10.);
#295=VECTOR('',#1037,10.);
#296=VECTOR('',#1038,10.);
#297=VECTOR('',#1041,10.);
#298=VECTOR('',#1042,10.);
#299=VECTOR('',#1043,10.);
#300=VECTOR('',#1046,10.);
#301=VECTOR('',#1047,10.);
#302=VECTOR('',#1052,10.);
#303=VECTOR('',#1053,10.);
#304=VECTOR('',#1054,10.);
#305=VECTOR('',#1055,10.);
#306=VECTOR('',#1058,10.);
#307=VECTOR('',#1059,10.);
#308=VECTOR('',#1060,10.);
#309=VECTOR('',#1063,10.);
#310=VECTOR('',#1064,10.);
#311=VECTOR('',#1065,10.);
#312=VECTOR('',#1068,10.);
#313=VECTOR('',#1069,10.);
#314=VECTOR('',#1070,10.);
#315=VECTOR('',#1073,10.);
#316=VECTOR('',#1074,10.);
#317=VECTOR('',#1075,10.);
#318=VECTOR('',#1078,10.);
#319=VECTOR('',#1079,10.);
#320=VECTOR('',#1084,10.);
#321=VECTOR('',#1085,10.);
#322=VECTOR('',#1086,10.);
#323=VECTOR('',#1087,10.);
#324=VECTOR('',#1090,10.);
#325=VECTOR('',#1091,10.);
#326=VECTOR('',#1092,10.);
#327=VECTOR('',#1095,10.);
#328=VECTOR('',#1096,10.);
#329=VECTOR('',#1097,10.);
#330=VECTOR('',#1100,10.);
#331=VECTOR('',#1101,10.);
#332=VECTOR('',#1102,10.);
#333=VECTOR('',#1105,10.);
#334=VECTOR('',#1106,10.);
#335=VECTOR('',#1107,10.);
#336=VECTOR('',#1110,10.);
#337=VECTOR('',#1111,10.);
#338=VECTOR('',#1116,10.);
#339=VECTOR('',#1117,10.);
#340=VECTOR('',#1118,10.);
#341=VECTOR('',#1119,10.);
#342=VECTOR('',#1122,10.);
#343=VECTOR('',#1123,10.);
#344=VECTOR('',#1124,10.);
#345=VECTOR('',#1127,10.);
#346=VECTOR('',#1128,10.);
#347=VECTOR('',#1129,10.);
#348=VECTOR('',#1132,10.);
#349=VECTOR('',#1133,10.);
#350=VECTOR('',#1134,10.);
#351=VECTOR('',#1137,10.);
#352=VECTOR('',#1138,10.);
#353=VECTOR('',#1139,10.);
#354=VECTOR('',#1142,10.);
#355=VECTOR('',#1143,10.);
#356=VECTOR('',#1150,22.35);
#357=VECTOR('',#1153,10.);
#358=CIRCLE('',#866,5.);
#359=CIRCLE('',#867,5.);
#360=CIRCLE('',#870,5.);
#361=CIRCLE('',#871,5.);
#362=CIRCLE('',#872,5.);
#363=CIRCLE('',#873,25.);
#364=CIRCLE('',#874,2.25);
#365=CIRCLE('',#875,2.25);
#366=CIRCLE('',#876,2.25);
#367=CIRCLE('',#877,2.25);
#368=CIRCLE('',#879,5.);
#369=CIRCLE('',#882,5.);
#370=CIRCLE('',#885,5.);
#371=CIRCLE('',#887,25.);
#372=CIRCLE('',#889,22.35);
#373=CIRCLE('',#891,2.25);
#374=CIRCLE('',#893,2.25);
#375=CIRCLE('',#895,2.25);
#376=CIRCLE('',#897,2.25);
#377=CIRCLE('',#927,22.35);
#378=VERTEX_POINT('',#1158);
#379=VERTEX_POINT('',#1159);
#380=VERTEX_POINT('',#1161);
#381=VERTEX_POINT('',#1163);
#382=VERTEX_POINT('',#1167);
#383=VERTEX_POINT('',#1169);
#384=VERTEX_POINT('',#1173);
#385=VERTEX_POINT('',#1175);
#386=VERTEX_POINT('',#1177);
#387=VERTEX_POINT('',#1179);
#388=VERTEX_POINT('',#1181);
#389=VERTEX_POINT('',#1184);
#390=VERTEX_POINT('',#1186);
#391=VERTEX_POINT('',#1188);
#392=VERTEX_POINT('',#1190);
#393=VERTEX_POINT('',#1192);
#394=VERTEX_POINT('',#1195);
#395=VERTEX_POINT('',#1199);
#396=VERTEX_POINT('',#1203);
#397=VERTEX_POINT('',#1204);
#398=VERTEX_POINT('',#1211);
#399=VERTEX_POINT('',#1215);
#400=VERTEX_POINT('',#1219);
#401=VERTEX_POINT('',#1222);
#402=VERTEX_POINT('',#1226);
#403=VERTEX_POINT('',#1230);
#404=VERTEX_POINT('',#1234);
#405=VERTEX_POINT('',#1238);
#406=VERTEX_POINT('',#1239);
#407=VERTEX_POINT('',#1241);
#408=VERTEX_POINT('',#1243);
#409=VERTEX_POINT('',#1247);
#410=VERTEX_POINT('',#1249);
#411=VERTEX_POINT('',#1253);
#412=VERTEX_POINT('',#1255);
#413=VERTEX_POINT('',#1259);
#414=VERTEX_POINT('',#1261);
#415=VERTEX_POINT('',#1265);
#416=VERTEX_POINT('',#1267);
#417=VERTEX_POINT('',#1275);
#418=VERTEX_POINT('',#1276);
#419=VERTEX_POINT('',#1278);
#420=VERTEX_POINT('',#1280);
#421=VERTEX_POINT('',#1284);
#422=VERTEX_POINT('',#1286);
#423=VERTEX_POINT('',#1290);
#424=VERTEX_POINT('',#1292);
#425=VERTEX_POINT('',#1296);
#426=VERTEX_POINT('',#1298);
#427=VERTEX_POINT('',#1302);
#428=VERTEX_POINT('',#1304);
#429=VERTEX_POINT('',#1312);
#430=VERTEX_POINT('',#1313);
#431=VERTEX_POINT('',#1315);
#432=VERTEX_POINT('',#1317);
#433=VERTEX_POINT('',#1321);
#434=VERTEX_POINT('',#1323);
#435=VERTEX_POINT('',#1327);
#436=VERTEX_POINT('',#1329);
#437=VERTEX_POINT('',#1333);
#438=VERTEX_POINT('',#1335);
#439=VERTEX_POINT('',#1339);
#440=VERTEX_POINT('',#1341);
#441=VERTEX_POINT('',#1349);
#442=VERTEX_POINT('',#1350);
#443=VERTEX_POINT('',#1352);
#444=VERTEX_POINT('',#1354);
#445=VERTEX_POINT('',#1358);
#446=VERTEX_POINT('',#1360);
#447=VERTEX_POINT('',#1364);
#448=VERTEX_POINT('',#1366);
#449=VERTEX_POINT('',#1370);
#450=VERTEX_POINT('',#1372);
#451=VERTEX_POINT('',#1376);
#452=VERTEX_POINT('',#1378);
#453=VERTEX_POINT('',#1386);
#454=EDGE_CURVE('',#378,#379,#358,.T.);
#455=EDGE_CURVE('',#379,#380,#170,.T.);
#456=EDGE_CURVE('',#380,#381,#359,.T.);
#457=EDGE_CURVE('',#381,#378,#171,.T.);
#458=EDGE_CURVE('',#382,#381,#172,.T.);
#459=EDGE_CURVE('',#383,#382,#173,.T.);
#460=EDGE_CURVE('',#378,#383,#174,.T.);
#461=EDGE_CURVE('',#380,#384,#175,.T.);
#462=EDGE_CURVE('',#385,#384,#360,.T.);
#463=EDGE_CURVE('',#385,#386,#176,.T.);
#464=EDGE_CURVE('',#387,#386,#361,.T.);
#465=EDGE_CURVE('',#387,#388,#177,.T.);
#466=EDGE_CURVE('',#382,#388,#362,.T.);
#467=EDGE_CURVE('',#389,#389,#363,.T.);
#468=EDGE_CURVE('',#390,#390,#364,.T.);
#469=EDGE_CURVE('',#391,#391,#365,.T.);
#470=EDGE_CURVE('',#392,#392,#366,.T.);
#471=EDGE_CURVE('',#393,#393,#367,.T.);
#472=EDGE_CURVE('',#394,#383,#368,.T.);
#473=EDGE_CURVE('',#388,#394,#178,.T.);
#474=EDGE_CURVE('',#395,#387,#179,.T.);
#475=EDGE_CURVE('',#394,#395,#180,.T.);
#476=EDGE_CURVE('',#396,#397,#369,.T.);
#477=EDGE_CURVE('',#397,#385,#181,.T.);
#478=EDGE_CURVE('',#384,#396,#182,.T.);
#479=EDGE_CURVE('',#396,#379,#183,.T.);
#480=EDGE_CURVE('',#398,#395,#370,.T.);
#481=EDGE_CURVE('',#386,#398,#184,.T.);
#482=EDGE_CURVE('',#389,#399,#185,.T.);
#483=EDGE_CURVE('',#399,#399,#371,.T.);
#484=EDGE_CURVE('',#400,#400,#372,.T.);
#485=EDGE_CURVE('',#401,#401,#373,.T.);
#486=EDGE_CURVE('',#401,#393,#186,.T.);
#487=EDGE_CURVE('',#402,#402,#374,.T.);
#488=EDGE_CURVE('',#402,#392,#187,.T.);
#489=EDGE_CURVE('',#403,#403,#375,.T.);
#490=EDGE_CURVE('',#403,#391,#188,.T.);
#491=EDGE_CURVE('',#404,#404,#376,.T.);
#492=EDGE_CURVE('',#404,#390,#189,.T.);
#493=EDGE_CURVE('',#405,#406,#190,.T.);
#494=EDGE_CURVE('',#405,#407,#191,.T.);
#495=EDGE_CURVE('',#407,#408,#192,.T.);
#496=EDGE_CURVE('',#406,#408,#193,.T.);
#497=EDGE_CURVE('',#409,#405,#194,.T.);
#498=EDGE_CURVE('',#409,#410,#195,.T.);
#499=EDGE_CURVE('',#410,#407,#196,.T.);
#500=EDGE_CURVE('',#411,#409,#197,.T.);
#501=EDGE_CURVE('',#411,#412,#198,.T.);
#502=EDGE_CURVE('',#412,#410,#199,.T.);
#503=EDGE_CURVE('',#413,#411,#200,.T.);
#504=EDGE_CURVE('',#413,#414,#201,.T.);
#505=EDGE_CURVE('',#414,#412,#202,.T.);
#506=EDGE_CURVE('',#415,#413,#203,.T.);
#507=EDGE_CURVE('',#415,#416,#204,.T.);
#508=EDGE_CURVE('',#416,#414,#205,.T.);
#509=EDGE_CURVE('',#406,#415,#206,.T.);
#510=EDGE_CURVE('',#408,#416,#207,.T.);
#511=EDGE_CURVE('',#417,#418,#208,.T.);
#512=EDGE_CURVE('',#417,#419,#209,.T.);
#513=EDGE_CURVE('',#419,#420,#210,.T.);
#514=EDGE_CURVE('',#418,#420,#211,.T.);
#515=EDGE_CURVE('',#421,#417,#212,.T.);
#516=EDGE_CURVE('',#421,#422,#213,.T.);
#517=EDGE_CURVE('',#422,#419,#214,.T.);
#518=EDGE_CURVE('',#423,#421,#215,.T.);
#519=EDGE_CURVE('',#423,#424,#216,.T.);
#520=EDGE_CURVE('',#424,#422,#217,.T.);
#521=EDGE_CURVE('',#425,#423,#218,.T.);
#522=EDGE_CURVE('',#425,#426,#219,.T.);
#523=EDGE_CURVE('',#426,#424,#220,.T.);
#524=EDGE_CURVE('',#427,#425,#221,.T.);
#525=EDGE_CURVE('',#427,#428,#222,.T.);
#526=EDGE_CURVE('',#428,#426,#223,.T.);
#527=EDGE_CURVE('',#418,#427,#224,.T.);
#528=EDGE_CURVE('',#420,#428,#225,.T.);
#529=EDGE_CURVE('',#429,#430,#226,.T.);
#530=EDGE_CURVE('',#429,#431,#227,.T.);
#531=EDGE_CURVE('',#431,#432,#228,.T.);
#532=EDGE_CURVE('',#430,#432,#229,.T.);
#533=EDGE_CURVE('',#433,#429,#230,.T.);
#534=EDGE_CURVE('',#433,#434,#231,.T.);
#535=EDGE_CURVE('',#434,#431,#232,.T.);
#536=EDGE_CURVE('',#435,#433,#233,.T.);
#537=EDGE_CURVE('',#435,#436,#234,.T.);
#538=EDGE_CURVE('',#436,#434,#235,.T.);
#539=EDGE_CURVE('',#437,#435,#236,.T.);
#540=EDGE_CURVE('',#437,#438,#237,.T.);
#541=EDGE_CURVE('',#438,#436,#238,.T.);
#542=EDGE_CURVE('',#439,#437,#239,.T.);
#543=EDGE_CURVE('',#439,#440,#240,.T.);
#544=EDGE_CURVE('',#440,#438,#241,.T.);
#545=EDGE_CURVE('',#430,#439,#242,.T.);
#546=EDGE_CURVE('',#432,#440,#243,.T.);
#547=EDGE_CURVE('',#441,#442,#244,.T.);
#548=EDGE_CURVE('',#441,#443,#245,.T.);
#549=EDGE_CURVE('',#443,#444,#246,.T.);
#550=EDGE_CURVE('',#442,#444,#247,.T.);
#551=EDGE_CURVE('',#445,#441,#248,.T.);
#552=EDGE_CURVE('',#445,#446,#249,.T.);
#553=EDGE_CURVE('',#446,#443,#250,.T.);
#554=EDGE_CURVE('',#447,#445,#251,.T.);
#555=EDGE_CURVE('',#447,#448,#252,.T.);
#556=EDGE_CURVE('',#448,#446,#253,.T.);
#557=EDGE_CURVE('',#449,#447,#254,.T.);
#558=EDGE_CURVE('',#449,#450,#255,.T.);
#559=EDGE_CURVE('',#450,#448,#256,.T.);
#560=EDGE_CURVE('',#451,#449,#257,.T.);
#561=EDGE_CURVE('',#451,#452,#258,.T.);
#562=EDGE_CURVE('',#452,#450,#259,.T.);
#563=EDGE_CURVE('',#442,#451,#260,.T.);
#564=EDGE_CURVE('',#444,#452,#261,.T.);
#565=EDGE_CURVE('',#453,#453,#377,.T.);
#566=EDGE_CURVE('',#453,#400,#262,.T.);
#567=EDGE_CURVE('',#398,#397,#263,.T.);
#568=ORIENTED_EDGE('',*,*,#454,.T.);
#569=ORIENTED_EDGE('',*,*,#455,.T.);
#570=ORIENTED_EDGE('',*,*,#456,.T.);
#571=ORIENTED_EDGE('',*,*,#457,.T.);
#572=ORIENTED_EDGE('',*,*,#457,.F.);
#573=ORIENTED_EDGE('',*,*,#458,.F.);
#574=ORIENTED_EDGE('',*,*,#459,.F.);
#575=ORIENTED_EDGE('',*,*,#460,.F.);
#576=ORIENTED_EDGE('',*,*,#456,.F.);
#577=ORIENTED_EDGE('',*,*,#461,.T.);
#578=ORIENTED_EDGE('',*,*,#462,.F.);
#579=ORIENTED_EDGE('',*,*,#463,.T.);
#580=ORIENTED_EDGE('',*,*,#464,.F.);
#581=ORIENTED_EDGE('',*,*,#465,.T.);
#582=ORIENTED_EDGE('',*,*,#466,.F.);
#583=ORIENTED_EDGE('',*,*,#458,.T.);
#584=ORIENTED_EDGE('',*,*,#467,.T.);
#585=ORIENTED_EDGE('',*,*,#468,.T.);
#586=ORIENTED_EDGE('',*,*,#469,.T.);
#587=ORIENTED_EDGE('',*,*,#470,.T.);
#588=ORIENTED_EDGE('',*,*,#471,.T.);
#589=ORIENTED_EDGE('',*,*,#472,.T.);
#590=ORIENTED_EDGE('',*,*,#459,.T.);
#591=ORIENTED_EDGE('',*,*,#466,.T.);
#592=ORIENTED_EDGE('',*,*,#473,.T.);
#593=ORIENTED_EDGE('',*,*,#473,.F.);
#594=ORIENTED_EDGE('',*,*,#465,.F.);
#595=ORIENTED_EDGE('',*,*,#474,.F.);
#596=ORIENTED_EDGE('',*,*,#475,.F.);
#597=ORIENTED_EDGE('',*,*,#476,.T.);
#598=ORIENTED_EDGE('',*,*,#477,.T.);
#599=ORIENTED_EDGE('',*,*,#462,.T.);
#600=ORIENTED_EDGE('',*,*,#478,.T.);
#601=ORIENTED_EDGE('',*,*,#455,.F.);
#602=ORIENTED_EDGE('',*,*,#479,.F.);
#603=ORIENTED_EDGE('',*,*,#478,.F.);
#604=ORIENTED_EDGE('',*,*,#461,.F.);
#605=ORIENTED_EDGE('',*,*,#480,.T.);
#606=ORIENTED_EDGE('',*,*,#474,.T.);
#607=ORIENTED_EDGE('',*,*,#464,.T.);
#608=ORIENTED_EDGE('',*,*,#481,.T.);
#609=ORIENTED_EDGE('',*,*,#467,.F.);
#610=ORIENTED_EDGE('',*,*,#482,.T.);
#611=ORIENTED_EDGE('',*,*,#483,.T.);
#612=ORIENTED_EDGE('',*,*,#482,.F.);
#613=ORIENTED_EDGE('',*,*,#483,.F.);
#614=ORIENTED_EDGE('',*,*,#484,.F.);
#615=ORIENTED_EDGE('',*,*,#485,.F.);
#616=ORIENTED_EDGE('',*,*,#486,.T.);
#617=ORIENTED_EDGE('',*,*,#471,.F.);
#618=ORIENTED_EDGE('',*,*,#486,.F.);
#619=ORIENTED_EDGE('',*,*,#487,.F.);
#620=ORIENTED_EDGE('',*,*,#488,.T.);
#621=ORIENTED_EDGE('',*,*,#470,.F.);
#622=ORIENTED_EDGE('',*,*,#488,.F.);
#623=ORIENTED_EDGE('',*,*,#489,.F.);
#624=ORIENTED_EDGE('',*,*,#490,.T.);
#625=ORIENTED_EDGE('',*,*,#469,.F.);
#626=ORIENTED_EDGE('',*,*,#490,.F.);
#627=ORIENTED_EDGE('',*,*,#491,.F.);
#628=ORIENTED_EDGE('',*,*,#492,.T.);
#629=ORIENTED_EDGE('',*,*,#468,.F.);
#630=ORIENTED_EDGE('',*,*,#492,.F.);
#631=ORIENTED_EDGE('',*,*,#493,.F.);
#632=ORIENTED_EDGE('',*,*,#494,.T.);
#633=ORIENTED_EDGE('',*,*,#495,.T.);
#634=ORIENTED_EDGE('',*,*,#496,.F.);
#635=ORIENTED_EDGE('',*,*,#497,.F.);
#636=ORIENTED_EDGE('',*,*,#498,.T.);
#637=ORIENTED_EDGE('',*,*,#499,.T.);
#638=ORIENTED_EDGE('',*,*,#494,.F.);
#639=ORIENTED_EDGE('',*,*,#500,.F.);
#640=ORIENTED_EDGE('',*,*,#501,.T.);
#641=ORIENTED_EDGE('',*,*,#502,.T.);
#642=ORIENTED_EDGE('',*,*,#498,.F.);
#643=ORIENTED_EDGE('',*,*,#503,.F.);
#644=ORIENTED_EDGE('',*,*,#504,.T.);
#645=ORIENTED_EDGE('',*,*,#505,.T.);
#646=ORIENTED_EDGE('',*,*,#501,.F.);
#647=ORIENTED_EDGE('',*,*,#506,.F.);
#648=ORIENTED_EDGE('',*,*,#507,.T.);
#649=ORIENTED_EDGE('',*,*,#508,.T.);
#650=ORIENTED_EDGE('',*,*,#504,.F.);
#651=ORIENTED_EDGE('',*,*,#509,.F.);
#652=ORIENTED_EDGE('',*,*,#496,.T.);
#653=ORIENTED_EDGE('',*,*,#510,.T.);
#654=ORIENTED_EDGE('',*,*,#507,.F.);
#655=ORIENTED_EDGE('',*,*,#510,.F.);
#656=ORIENTED_EDGE('',*,*,#495,.F.);
#657=ORIENTED_EDGE('',*,*,#499,.F.);
#658=ORIENTED_EDGE('',*,*,#502,.F.);
#659=ORIENTED_EDGE('',*,*,#505,.F.);
#660=ORIENTED_EDGE('',*,*,#508,.F.);
#661=ORIENTED_EDGE('',*,*,#489,.T.);
#662=ORIENTED_EDGE('',*,*,#511,.F.);
#663=ORIENTED_EDGE('',*,*,#512,.T.);
#664=ORIENTED_EDGE('',*,*,#513,.T.);
#665=ORIENTED_EDGE('',*,*,#514,.F.);
#666=ORIENTED_EDGE('',*,*,#515,.F.);
#667=ORIENTED_EDGE('',*,*,#516,.T.);
#668=ORIENTED_EDGE('',*,*,#517,.T.);
#669=ORIENTED_EDGE('',*,*,#512,.F.);
#670=ORIENTED_EDGE('',*,*,#518,.F.);
#671=ORIENTED_EDGE('',*,*,#519,.T.);
#672=ORIENTED_EDGE('',*,*,#520,.T.);
#673=ORIENTED_EDGE('',*,*,#516,.F.);
#674=ORIENTED_EDGE('',*,*,#521,.F.);
#675=ORIENTED_EDGE('',*,*,#522,.T.);
#676=ORIENTED_EDGE('',*,*,#523,.T.);
#677=ORIENTED_EDGE('',*,*,#519,.F.);
#678=ORIENTED_EDGE('',*,*,#524,.F.);
#679=ORIENTED_EDGE('',*,*,#525,.T.);
#680=ORIENTED_EDGE('',*,*,#526,.T.);
#681=ORIENTED_EDGE('',*,*,#522,.F.);
#682=ORIENTED_EDGE('',*,*,#527,.F.);
#683=ORIENTED_EDGE('',*,*,#514,.T.);
#684=ORIENTED_EDGE('',*,*,#528,.T.);
#685=ORIENTED_EDGE('',*,*,#525,.F.);
#686=ORIENTED_EDGE('',*,*,#528,.F.);
#687=ORIENTED_EDGE('',*,*,#513,.F.);
#688=ORIENTED_EDGE('',*,*,#517,.F.);
#689=ORIENTED_EDGE('',*,*,#520,.F.);
#690=ORIENTED_EDGE('',*,*,#523,.F.);
#691=ORIENTED_EDGE('',*,*,#526,.F.);
#692=ORIENTED_EDGE('',*,*,#487,.T.);
#693=ORIENTED_EDGE('',*,*,#529,.F.);
#694=ORIENTED_EDGE('',*,*,#530,.T.);
#695=ORIENTED_EDGE('',*,*,#531,.T.);
#696=ORIENTED_EDGE('',*,*,#532,.F.);
#697=ORIENTED_EDGE('',*,*,#533,.F.);
#698=ORIENTED_EDGE('',*,*,#534,.T.);
#699=ORIENTED_EDGE('',*,*,#535,.T.);
#700=ORIENTED_EDGE('',*,*,#530,.F.);
#701=ORIENTED_EDGE('',*,*,#536,.F.);
#702=ORIENTED_EDGE('',*,*,#537,.T.);
#703=ORIENTED_EDGE('',*,*,#538,.T.);
#704=ORIENTED_EDGE('',*,*,#534,.F.);
#705=ORIENTED_EDGE('',*,*,#539,.F.);
#706=ORIENTED_EDGE('',*,*,#540,.T.);
#707=ORIENTED_EDGE('',*,*,#541,.T.);
#708=ORIENTED_EDGE('',*,*,#537,.F.);
#709=ORIENTED_EDGE('',*,*,#542,.F.);
#710=ORIENTED_EDGE('',*,*,#543,.T.);
#711=ORIENTED_EDGE('',*,*,#544,.T.);
#712=ORIENTED_EDGE('',*,*,#540,.F.);
#713=ORIENTED_EDGE('',*,*,#545,.F.);
#714=ORIENTED_EDGE('',*,*,#532,.T.);
#715=ORIENTED_EDGE('',*,*,#546,.T.);
#716=ORIENTED_EDGE('',*,*,#543,.F.);
#717=ORIENTED_EDGE('',*,*,#546,.F.);
#718=ORIENTED_EDGE('',*,*,#531,.F.);
#719=ORIENTED_EDGE('',*,*,#535,.F.);
#720=ORIENTED_EDGE('',*,*,#538,.F.);
#721=ORIENTED_EDGE('',*,*,#541,.F.);
#722=ORIENTED_EDGE('',*,*,#544,.F.);
#723=ORIENTED_EDGE('',*,*,#485,.T.);
#724=ORIENTED_EDGE('',*,*,#547,.F.);
#725=ORIENTED_EDGE('',*,*,#548,.T.);
#726=ORIENTED_EDGE('',*,*,#549,.T.);
#727=ORIENTED_EDGE('',*,*,#550,.F.);
#728=ORIENTED_EDGE('',*,*,#551,.F.);
#729=ORIENTED_EDGE('',*,*,#552,.T.);
#730=ORIENTED_EDGE('',*,*,#553,.T.);
#731=ORIENTED_EDGE('',*,*,#548,.F.);
#732=ORIENTED_EDGE('',*,*,#554,.F.);
#733=ORIENTED_EDGE('',*,*,#555,.T.);
#734=ORIENTED_EDGE('',*,*,#556,.T.);
#735=ORIENTED_EDGE('',*,*,#552,.F.);
#736=ORIENTED_EDGE('',*,*,#557,.F.);
#737=ORIENTED_EDGE('',*,*,#558,.T.);
#738=ORIENTED_EDGE('',*,*,#559,.T.);
#739=ORIENTED_EDGE('',*,*,#555,.F.);
#740=ORIENTED_EDGE('',*,*,#560,.F.);
#741=ORIENTED_EDGE('',*,*,#561,.T.);
#742=ORIENTED_EDGE('',*,*,#562,.T.);
#743=ORIENTED_EDGE('',*,*,#558,.F.);
#744=ORIENTED_EDGE('',*,*,#563,.F.);
#745=ORIENTED_EDGE('',*,*,#550,.T.);
#746=ORIENTED_EDGE('',*,*,#564,.T.);
#747=ORIENTED_EDGE('',*,*,#561,.F.);
#748=ORIENTED_EDGE('',*,*,#564,.F.);
#749=ORIENTED_EDGE('',*,*,#549,.F.);
#750=ORIENTED_EDGE('',*,*,#553,.F.);
#751=ORIENTED_EDGE('',*,*,#556,.F.);
#752=ORIENTED_EDGE('',*,*,#559,.F.);
#753=ORIENTED_EDGE('',*,*,#562,.F.);
#754=ORIENTED_EDGE('',*,*,#491,.T.);
#755=ORIENTED_EDGE('',*,*,#565,.F.);
#756=ORIENTED_EDGE('',*,*,#566,.T.);
#757=ORIENTED_EDGE('',*,*,#484,.T.);
#758=ORIENTED_EDGE('',*,*,#566,.F.);
#759=ORIENTED_EDGE('',*,*,#477,.F.);
#760=ORIENTED_EDGE('',*,*,#567,.F.);
#761=ORIENTED_EDGE('',*,*,#481,.F.);
#762=ORIENTED_EDGE('',*,*,#463,.F.);
#763=ORIENTED_EDGE('',*,*,#454,.F.);
#764=ORIENTED_EDGE('',*,*,#460,.T.);
#765=ORIENTED_EDGE('',*,*,#472,.F.);
#766=ORIENTED_EDGE('',*,*,#475,.T.);
#767=ORIENTED_EDGE('',*,*,#480,.F.);
#768=ORIENTED_EDGE('',*,*,#567,.T.);
#769=ORIENTED_EDGE('',*,*,#476,.F.);
#770=ORIENTED_EDGE('',*,*,#479,.T.);
#771=ORIENTED_EDGE('',*,*,#565,.T.);
#772=ORIENTED_EDGE('',*,*,#547,.T.);
#773=ORIENTED_EDGE('',*,*,#563,.T.);
#774=ORIENTED_EDGE('',*,*,#560,.T.);
#775=ORIENTED_EDGE('',*,*,#557,.T.);
#776=ORIENTED_EDGE('',*,*,#554,.T.);
#777=ORIENTED_EDGE('',*,*,#551,.T.);
#778=ORIENTED_EDGE('',*,*,#529,.T.);
#779=ORIENTED_EDGE('',*,*,#545,.T.);
#780=ORIENTED_EDGE('',*,*,#542,.T.);
#781=ORIENTED_EDGE('',*,*,#539,.T.);
#782=ORIENTED_EDGE('',*,*,#536,.T.);
#783=ORIENTED_EDGE('',*,*,#533,.T.);
#784=ORIENTED_EDGE('',*,*,#511,.T.);
#785=ORIENTED_EDGE('',*,*,#527,.T.);
#786=ORIENTED_EDGE('',*,*,#524,.T.);
#787=ORIENTED_EDGE('',*,*,#521,.T.);
#788=ORIENTED_EDGE('',*,*,#518,.T.);
#789=ORIENTED_EDGE('',*,*,#515,.T.);
#790=ORIENTED_EDGE('',*,*,#493,.T.);
#791=ORIENTED_EDGE('',*,*,#509,.T.);
#792=ORIENTED_EDGE('',*,*,#506,.T.);
#793=ORIENTED_EDGE('',*,*,#503,.T.);
#794=ORIENTED_EDGE('',*,*,#500,.T.);
#795=ORIENTED_EDGE('',*,*,#497,.T.);
#796=CYLINDRICAL_SURFACE('',#865,5.);
#797=CYLINDRICAL_SURFACE('',#878,5.);
#798=CYLINDRICAL_SURFACE('',#881,5.);
#799=CYLINDRICAL_SURFACE('',#884,5.);
#800=CYLINDRICAL_SURFACE('',#886,25.);
#801=CYLINDRICAL_SURFACE('',#890,2.25);
#802=CYLINDRICAL_SURFACE('',#892,2.25);
#803=CYLINDRICAL_SURFACE('',#894,2.25);
#804=CYLINDRICAL_SURFACE('',#896,2.25);
#805=CYLINDRICAL_SURFACE('',#926,22.35);
#806=ADVANCED_FACE('',(#65),#796,.T.);
#807=ADVANCED_FACE('',(#66),#30,.T.);
#808=ADVANCED_FACE('',(#67,#15,#16,#17,#18,#19),#31,.F.);
#809=ADVANCED_FACE('',(#68),#797,.T.);
#810=ADVANCED_FACE('',(#69),#32,.T.);
#811=ADVANCED_FACE('',(#70),#798,.T.);
#812=ADVANCED_FACE('',(#71),#33,.T.);
#813=ADVANCED_FACE('',(#72),#799,.T.);
#814=ADVANCED_FACE('',(#73),#800,.F.);
#815=ADVANCED_FACE('',(#74,#20),#34,.T.);
#816=ADVANCED_FACE('',(#75),#801,.F.);
#817=ADVANCED_FACE('',(#76),#802,.F.);
#818=ADVANCED_FACE('',(#77),#803,.F.);
#819=ADVANCED_FACE('',(#78),#804,.F.);
#820=ADVANCED_FACE('',(#79),#35,.F.);
#821=ADVANCED_FACE('',(#80),#36,.F.);
#822=ADVANCED_FACE('',(#81),#37,.F.);
#823=ADVANCED_FACE('',(#82),#38,.F.);
#824=ADVANCED_FACE('',(#83),#39,.F.);
#825=ADVANCED_FACE('',(#84),#40,.F.);
#826=ADVANCED_FACE('',(#85,#21),#41,.F.);
#827=ADVANCED_FACE('',(#86),#42,.F.);
#828=ADVANCED_FACE('',(#87),#43,.F.);
#829=ADVANCED_FACE('',(#88),#44,.F.);
#830=ADVANCED_FACE('',(#89),#45,.F.);
#831=ADVANCED_FACE('',(#90),#46,.F.);
#832=ADVANCED_FACE('',(#91),#47,.F.);
#833=ADVANCED_FACE('',(#92,#22),#48,.F.);
#834=ADVANCED_FACE('',(#93),#49,.F.);
#835=ADVANCED_FACE('',(#94),#50,.F.);
#836=ADVANCED_FACE('',(#95),#51,.F.);
#837=ADVANCED_FACE('',(#96),#52,.F.);
#838=ADVANCED_FACE('',(#97),#53,.F.);
#839=ADVANCED_FACE('',(#98),#54,.F.);
#840=ADVANCED_FACE('',(#99,#23),#55,.F.);
#841=ADVANCED_FACE('',(#100),#56,.F.);
#842=ADVANCED_FACE('',(#101),#57,.F.);
#843=ADVANCED_FACE('',(#102),#58,.F.);
#844=ADVANCED_FACE('',(#103),#59,.F.);
#845=ADVANCED_FACE('',(#104),#60,.F.);
#846=ADVANCED_FACE('',(#105),#61,.F.);
#847=ADVANCED_FACE('',(#106,#24),#62,.F.);
#848=ADVANCED_FACE('',(#107),#805,.F.);
#849=ADVANCED_FACE('',(#108),#63,.T.);
#850=ADVANCED_FACE('',(#109,#25,#26,#27,#28,#29),#64,.T.);
#851=CLOSED_SHELL('',(#806,#807,#808,#809,#810,#811,#812,#813,#814,#815,
#816,#817,#818,#819,#820,#821,#822,#823,#824,#825,#826,#827,#828,#829,#830,
#831,#832,#833,#834,#835,#836,#837,#838,#839,#840,#841,#842,#843,#844,#845,
#846,#847,#848,#849,#850));
#852=DERIVED_UNIT_ELEMENT(#854,1.);
#853=DERIVED_UNIT_ELEMENT(#1397,-3.);
#854=(
MASS_UNIT()
NAMED_UNIT(*)
SI_UNIT(.KILO.,.GRAM.)
);
#855=DERIVED_UNIT((#852,#853));
#856=MEASURE_REPRESENTATION_ITEM('density measure',
POSITIVE_RATIO_MEASURE(7850.),#855);
#857=PROPERTY_DEFINITION_REPRESENTATION(#862,#859);
#858=PROPERTY_DEFINITION_REPRESENTATION(#863,#860);
#859=REPRESENTATION('material name',(#861),#1394);
#860=REPRESENTATION('density',(#856),#1394);
#861=DESCRIPTIVE_REPRESENTATION_ITEM('Stahl','Stahl');
#862=PROPERTY_DEFINITION('material property','material name',#1404);
#863=PROPERTY_DEFINITION('material property','density of part',#1404);
#864=AXIS2_PLACEMENT_3D('',#1156,#930,#931);
#865=AXIS2_PLACEMENT_3D('',#1157,#932,#933);
#866=AXIS2_PLACEMENT_3D('',#1160,#934,#935);
#867=AXIS2_PLACEMENT_3D('',#1164,#937,#938);
#868=AXIS2_PLACEMENT_3D('',#1166,#940,#941);
#869=AXIS2_PLACEMENT_3D('',#1172,#945,#946);
#870=AXIS2_PLACEMENT_3D('',#1176,#948,#949);
#871=AXIS2_PLACEMENT_3D('',#1180,#951,#952);
#872=AXIS2_PLACEMENT_3D('',#1183,#954,#955);
#873=AXIS2_PLACEMENT_3D('',#1185,#956,#957);
#874=AXIS2_PLACEMENT_3D('',#1187,#958,#959);
#875=AXIS2_PLACEMENT_3D('',#1189,#960,#961);
#876=AXIS2_PLACEMENT_3D('',#1191,#962,#963);
#877=AXIS2_PLACEMENT_3D('',#1193,#964,#965);
#878=AXIS2_PLACEMENT_3D('',#1194,#966,#967);
#879=AXIS2_PLACEMENT_3D('',#1196,#968,#969);
#880=AXIS2_PLACEMENT_3D('',#1198,#971,#972);
#881=AXIS2_PLACEMENT_3D('',#1202,#975,#976);
#882=AXIS2_PLACEMENT_3D('',#1205,#977,#978);
#883=AXIS2_PLACEMENT_3D('',#1208,#981,#982);
#884=AXIS2_PLACEMENT_3D('',#1210,#984,#985);
#885=AXIS2_PLACEMENT_3D('',#1212,#986,#987);
#886=AXIS2_PLACEMENT_3D('',#1214,#989,#990);
#887=AXIS2_PLACEMENT_3D('',#1217,#992,#993);
#888=AXIS2_PLACEMENT_3D('',#1218,#994,#995);
#889=AXIS2_PLACEMENT_3D('',#1220,#996,#997);
#890=AXIS2_PLACEMENT_3D('',#1221,#998,#999);
#891=AXIS2_PLACEMENT_3D('',#1223,#1000,#1001);
#892=AXIS2_PLACEMENT_3D('',#1225,#1003,#1004);
#893=AXIS2_PLACEMENT_3D('',#1227,#1005,#1006);
#894=AXIS2_PLACEMENT_3D('',#1229,#1008,#1009);
#895=AXIS2_PLACEMENT_3D('',#1231,#1010,#1011);
#896=AXIS2_PLACEMENT_3D('',#1233,#1013,#1014);
#897=AXIS2_PLACEMENT_3D('',#1235,#1015,#1016);
#898=AXIS2_PLACEMENT_3D('',#1237,#1018,#1019);
#899=AXIS2_PLACEMENT_3D('',#1246,#1024,#1025);
#900=AXIS2_PLACEMENT_3D('',#1252,#1029,#1030);
#901=AXIS2_PLACEMENT_3D('',#1258,#1034,#1035);
#902=AXIS2_PLACEMENT_3D('',#1264,#1039,#1040);
#903=AXIS2_PLACEMENT_3D('',#1270,#1044,#1045);
#904=AXIS2_PLACEMENT_3D('',#1273,#1048,#1049);
#905=AXIS2_PLACEMENT_3D('',#1274,#1050,#1051);
#906=AXIS2_PLACEMENT_3D('',#1283,#1056,#1057);
#907=AXIS2_PLACEMENT_3D('',#1289,#1061,#1062);
#908=AXIS2_PLACEMENT_3D('',#1295,#1066,#1067);
#909=AXIS2_PLACEMENT_3D('',#1301,#1071,#1072);
#910=AXIS2_PLACEMENT_3D('',#1307,#1076,#1077);
#911=AXIS2_PLACEMENT_3D('',#1310,#1080,#1081);
#912=AXIS2_PLACEMENT_3D('',#1311,#1082,#1083);
#913=AXIS2_PLACEMENT_3D('',#1320,#1088,#1089);
#914=AXIS2_PLACEMENT_3D('',#1326,#1093,#1094);
#915=AXIS2_PLACEMENT_3D('',#1332,#1098,#1099);
#916=AXIS2_PLACEMENT_3D('',#1338,#1103,#1104);
#917=AXIS2_PLACEMENT_3D('',#1344,#1108,#1109);
#918=AXIS2_PLACEMENT_3D('',#1347,#1112,#1113);
#919=AXIS2_PLACEMENT_3D('',#1348,#1114,#1115);
#920=AXIS2_PLACEMENT_3D('',#1357,#1120,#1121);
#921=AXIS2_PLACEMENT_3D('',#1363,#1125,#1126);
#922=AXIS2_PLACEMENT_3D('',#1369,#1130,#1131);
#923=AXIS2_PLACEMENT_3D('',#1375,#1135,#1136);
#924=AXIS2_PLACEMENT_3D('',#1381,#1140,#1141);
#925=AXIS2_PLACEMENT_3D('',#1384,#1144,#1145);
#926=AXIS2_PLACEMENT_3D('',#1385,#1146,#1147);
#927=AXIS2_PLACEMENT_3D('',#1387,#1148,#1149);
#928=AXIS2_PLACEMENT_3D('',#1389,#1151,#1152);
#929=AXIS2_PLACEMENT_3D('',#1391,#1154,#1155);
#930=DIRECTION('axis',(0.,0.,1.));
#931=DIRECTION('refdir',(1.,0.,0.));
#932=DIRECTION('center_axis',(0.,0.,1.));
#933=DIRECTION('ref_axis',(0.707106781186547,0.707106781186547,0.));
#934=DIRECTION('center_axis',(0.,0.,-1.));
#935=DIRECTION('ref_axis',(0.707106781186547,0.707106781186547,0.));
#936=DIRECTION('',(0.,0.,-1.));
#937=DIRECTION('center_axis',(0.,0.,1.));
#938=DIRECTION('ref_axis',(0.707106781186547,0.707106781186547,0.));
#939=DIRECTION('',(0.,0.,1.));
#940=DIRECTION('center_axis',(0.,1.,0.));
#941=DIRECTION('ref_axis',(-1.,0.,0.));
#942=DIRECTION('',(1.,0.,0.));
#943=DIRECTION('',(0.,0.,-1.));
#944=DIRECTION('',(-1.,0.,0.));
#945=DIRECTION('center_axis',(0.,0.,1.));
#946=DIRECTION('ref_axis',(1.,0.,0.));
#947=DIRECTION('',(7.40148683083438E-17,-1.,0.));
#948=DIRECTION('center_axis',(0.,0.,1.));
#949=DIRECTION('ref_axis',(0.707106781186547,-0.707106781186547,0.));
#950=DIRECTION('',(-1.,0.,0.));
#951=DIRECTION('center_axis',(0.,0.,1.));
#952=DIRECTION('ref_axis',(-0.707106781186547,-0.707106781186547,0.));
#953=DIRECTION('',(0.,1.,0.));
#954=DIRECTION('center_axis',(0.,0.,1.));
#955=DIRECTION('ref_axis',(-0.707106781186547,0.707106781186547,0.));
#956=DIRECTION('center_axis',(0.,0.,1.));
#957=DIRECTION('ref_axis',(1.,0.,0.));
#958=DIRECTION('center_axis',(0.,0.,1.));
#959=DIRECTION('ref_axis',(-1.,0.,0.));
#960=DIRECTION('center_axis',(0.,0.,1.));
#961=DIRECTION('ref_axis',(-1.,0.,0.));
#962=DIRECTION('center_axis',(0.,0.,1.));
#963=DIRECTION('ref_axis',(-1.,0.,0.));
#964=DIRECTION('center_axis',(0.,0.,1.));
#965=DIRECTION('ref_axis',(-1.,0.,0.));
#966=DIRECTION('center_axis',(0.,0.,1.));
#967=DIRECTION('ref_axis',(-0.707106781186547,0.707106781186547,0.));
#968=DIRECTION('center_axis',(0.,0.,-1.));
#969=DIRECTION('ref_axis',(-0.707106781186547,0.707106781186547,0.));
#970=DIRECTION('',(0.,0.,1.));
#971=DIRECTION('center_axis',(-1.,0.,0.));
#972=DIRECTION('ref_axis',(0.,-1.,0.));
#973=DIRECTION('',(0.,0.,-1.));
#974=DIRECTION('',(0.,-1.,0.));
#975=DIRECTION('center_axis',(0.,0.,1.));
#976=DIRECTION('ref_axis',(0.707106781186547,-0.707106781186547,0.));
#977=DIRECTION('center_axis',(0.,0.,-1.));
#978=DIRECTION('ref_axis',(0.707106781186547,-0.707106781186547,0.));
#979=DIRECTION('',(0.,0.,-1.));
#980=DIRECTION('',(0.,0.,1.));
#981=DIRECTION('center_axis',(1.,7.40148683083438E-17,0.));
#982=DIRECTION('ref_axis',(-7.40148683083438E-17,1.,0.));
#983=DIRECTION('',(-7.40148683083438E-17,1.,0.));
#984=DIRECTION('center_axis',(0.,0.,1.));
#985=DIRECTION('ref_axis',(-0.707106781186547,-0.707106781186547,0.));
#986=DIRECTION('center_axis',(0.,0.,-1.));
#987=DIRECTION('ref_axis',(-0.707106781186547,-0.707106781186547,0.));
#988=DIRECTION('',(0.,0.,1.));
#989=DIRECTION('center_axis',(0.,0.,1.));
#990=DIRECTION('ref_axis',(1.,0.,0.));
#991=DIRECTION('',(0.,0.,1.));
#992=DIRECTION('center_axis',(0.,0.,1.));
#993=DIRECTION('ref_axis',(1.,0.,0.));
#994=DIRECTION('center_axis',(0.,0.,-1.));
#995=DIRECTION('ref_axis',(1.,0.,0.));
#996=DIRECTION('center_axis',(0.,0.,-1.));
#997=DIRECTION('ref_axis',(1.,0.,0.));
#998=DIRECTION('center_axis',(0.,0.,-1.));
#999=DIRECTION('ref_axis',(-1.,0.,0.));
#1000=DIRECTION('center_axis',(0.,0.,-1.));
#1001=DIRECTION('ref_axis',(-1.,0.,0.));
#1002=DIRECTION('',(0.,0.,-1.));
#1003=DIRECTION('center_axis',(0.,0.,-1.));
#1004=DIRECTION('ref_axis',(-1.,0.,0.));
#1005=DIRECTION('center_axis',(0.,0.,-1.));
#1006=DIRECTION('ref_axis',(-1.,0.,0.));
#1007=DIRECTION('',(0.,0.,-1.));
#1008=DIRECTION('center_axis',(0.,0.,-1.));
#1009=DIRECTION('ref_axis',(-1.,0.,0.));
#1010=DIRECTION('center_axis',(0.,0.,-1.));
#1011=DIRECTION('ref_axis',(-1.,0.,0.));
#1012=DIRECTION('',(0.,0.,-1.));
#1013=DIRECTION('center_axis',(0.,0.,-1.));
#1014=DIRECTION('ref_axis',(-1.,0.,0.));
#1015=DIRECTION('center_axis',(0.,0.,-1.));
#1016=DIRECTION('ref_axis',(-1.,0.,0.));
#1017=DIRECTION('',(0.,0.,-1.));
#1018=DIRECTION('center_axis',(-0.499999999999998,-0.86602540378444,0.));
#1019=DIRECTION('ref_axis',(-0.86602540378444,0.499999999999998,0.));
#1020=DIRECTION('',(-0.86602540378444,0.499999999999998,0.));
#1021=DIRECTION('',(0.,0.,-1.));
#1022=DIRECTION('',(-0.86602540378444,0.499999999999998,0.));
#1023=DIRECTION('',(0.,0.,-1.));
#1024=DIRECTION('center_axis',(0.499999999999999,-0.866025403784439,0.));
#1025=DIRECTION('ref_axis',(-0.866025403784439,-0.499999999999999,0.));
#1026=DIRECTION('',(-0.866025403784439,-0.499999999999999,0.));
#1027=DIRECTION('',(0.,0.,-1.));
#1028=DIRECTION('',(-0.866025403784439,-0.499999999999999,0.));
#1029=DIRECTION('center_axis',(1.,0.,0.));
#1030=DIRECTION('ref_axis',(0.,-1.,0.));
#1031=DIRECTION('',(0.,-1.,0.));
#1032=DIRECTION('',(0.,0.,-1.));
#1033=DIRECTION('',(0.,-1.,0.));
#1034=DIRECTION('center_axis',(0.500000000000001,0.866025403784438,0.));
#1035=DIRECTION('ref_axis',(0.866025403784438,-0.500000000000001,0.));
#1036=DIRECTION('',(0.866025403784438,-0.500000000000001,0.));
#1037=DIRECTION('',(0.,0.,-1.));
#1038=DIRECTION('',(0.866025403784438,-0.500000000000001,0.));
#1039=DIRECTION('center_axis',(-0.5,0.866025403784439,0.));
#1040=DIRECTION('ref_axis',(0.866025403784439,0.5,0.));
#1041=DIRECTION('',(0.866025403784439,0.5,0.));
#1042=DIRECTION('',(0.,0.,-1.));
#1043=DIRECTION('',(0.866025403784439,0.5,0.));
#1044=DIRECTION('center_axis',(-1.,1.0833592599344E-15,0.));
#1045=DIRECTION('ref_axis',(1.0833592599344E-15,1.,0.));
#1046=DIRECTION('',(1.0833592599344E-15,1.,0.));
#1047=DIRECTION('',(1.0833592599344E-15,1.,0.));
#1048=DIRECTION('center_axis',(0.,0.,-1.));
#1049=DIRECTION('ref_axis',(-1.,0.,0.));
#1050=DIRECTION('center_axis',(0.499999999999998,0.86602540378444,0.));
#1051=DIRECTION('ref_axis',(0.86602540378444,-0.499999999999998,0.));
#1052=DIRECTION('',(0.86602540378444,-0.499999999999998,0.));
#1053=DIRECTION('',(0.,0.,-1.));
#1054=DIRECTION('',(0.86602540378444,-0.499999999999998,0.));
#1055=DIRECTION('',(0.,0.,-1.));
#1056=DIRECTION('center_axis',(-0.5,0.866025403784439,0.));
#1057=DIRECTION('ref_axis',(0.866025403784439,0.5,0.));
#1058=DIRECTION('',(0.866025403784439,0.5,0.));
#1059=DIRECTION('',(0.,0.,-1.));
#1060=DIRECTION('',(0.866025403784439,0.5,0.));
#1061=DIRECTION('center_axis',(-1.,0.,0.));
#1062=DIRECTION('ref_axis',(0.,1.,0.));
#1063=DIRECTION('',(0.,1.,0.));
#1064=DIRECTION('',(0.,0.,-1.));
#1065=DIRECTION('',(0.,1.,0.));
#1066=DIRECTION('center_axis',(-0.499999999999999,-0.866025403784439,0.));
#1067=DIRECTION('ref_axis',(-0.866025403784439,0.499999999999999,0.));
#1068=DIRECTION('',(-0.866025403784439,0.499999999999999,0.));
#1069=DIRECTION('',(0.,0.,-1.));
#1070=DIRECTION('',(-0.866025403784439,0.499999999999999,0.));
#1071=DIRECTION('center_axis',(0.499999999999998,-0.86602540378444,0.));
#1072=DIRECTION('ref_axis',(-0.86602540378444,-0.499999999999998,0.));
#1073=DIRECTION('',(-0.86602540378444,-0.499999999999998,0.));
#1074=DIRECTION('',(0.,0.,-1.));
#1075=DIRECTION('',(-0.86602540378444,-0.499999999999998,0.));
#1076=DIRECTION('center_axis',(1.,0.,0.));
#1077=DIRECTION('ref_axis',(0.,-1.,0.));
#1078=DIRECTION('',(0.,-1.,0.));
#1079=DIRECTION('',(0.,-1.,0.));
#1080=DIRECTION('center_axis',(0.,0.,-1.));
#1081=DIRECTION('ref_axis',(-1.,0.,0.));
#1082=DIRECTION('center_axis',(0.500000000000001,0.866025403784438,0.));
#1083=DIRECTION('ref_axis',(0.866025403784438,-0.500000000000001,0.));
#1084=DIRECTION('',(0.866025403784438,-0.500000000000001,0.));
#1085=DIRECTION('',(0.,0.,-1.));
#1086=DIRECTION('',(0.866025403784438,-0.500000000000001,0.));
#1087=DIRECTION('',(0.,0.,-1.));
#1088=DIRECTION('center_axis',(-0.5,0.866025403784439,0.));
#1089=DIRECTION('ref_axis',(0.866025403784439,0.499999999999999,0.));
#1090=DIRECTION('',(0.866025403784439,0.499999999999999,0.));
#1091=DIRECTION('',(0.,0.,-1.));
#1092=DIRECTION('',(0.866025403784439,0.499999999999999,0.));
#1093=DIRECTION('center_axis',(-1.,1.0833592599344E-15,0.));
#1094=DIRECTION('ref_axis',(1.0833592599344E-15,1.,0.));
#1095=DIRECTION('',(1.0833592599344E-15,1.,0.));
#1096=DIRECTION('',(0.,0.,-1.));
#1097=DIRECTION('',(1.0833592599344E-15,1.,0.));
#1098=DIRECTION('center_axis',(-0.500000000000001,-0.866025403784438,0.));
#1099=DIRECTION('ref_axis',(-0.866025403784438,0.500000000000001,0.));
#1100=DIRECTION('',(-0.866025403784438,0.500000000000001,0.));
#1101=DIRECTION('',(0.,0.,-1.));
#1102=DIRECTION('',(-0.866025403784438,0.500000000000001,0.));
#1103=DIRECTION('center_axis',(0.5,-0.866025403784439,0.));
#1104=DIRECTION('ref_axis',(-0.866025403784439,-0.5,0.));
#1105=DIRECTION('',(-0.866025403784439,-0.5,0.));
#1106=DIRECTION('',(0.,0.,-1.));
#1107=DIRECTION('',(-0.866025403784439,-0.5,0.));
#1108=DIRECTION('center_axis',(1.,-1.0833592599344E-15,0.));
#1109=DIRECTION('ref_axis',(-1.0833592599344E-15,-1.,0.));
#1110=DIRECTION('',(-1.0833592599344E-15,-1.,0.));
#1111=DIRECTION('',(-1.0833592599344E-15,-1.,0.));
#1112=DIRECTION('center_axis',(0.,0.,-1.));
#1113=DIRECTION('ref_axis',(-1.,0.,0.));
#1114=DIRECTION('center_axis',(-0.500000024816893,-0.866025389456399,0.));
#1115=DIRECTION('ref_axis',(-0.866025389456399,0.500000024816893,0.));
#1116=DIRECTION('',(-0.866025389456399,0.500000024816893,0.));
#1117=DIRECTION('',(0.,0.,-1.));
#1118=DIRECTION('',(-0.866025389456399,0.500000024816893,0.));
#1119=DIRECTION('',(0.,0.,-1.));
#1120=DIRECTION('center_axis',(0.49999996277466,-0.866025425276498,0.));
#1121=DIRECTION('ref_axis',(-0.866025425276498,-0.49999996277466,0.));
#1122=DIRECTION('',(-0.866025425276498,-0.49999996277466,0.));
#1123=DIRECTION('',(0.,0.,-1.));
#1124=DIRECTION('',(-0.866025425276498,-0.49999996277466,0.));
#1125=DIRECTION('center_axis',(1.,0.,0.));
#1126=DIRECTION('ref_axis',(0.,-1.,0.));
#1127=DIRECTION('',(0.,-1.,0.));
#1128=DIRECTION('',(0.,0.,-1.));
#1129=DIRECTION('',(0.,-1.,0.));
#1130=DIRECTION('center_axis',(0.50000003722534,0.866025382292378,0.));
#1131=DIRECTION('ref_axis',(0.866025382292378,-0.500000037225339,0.));
#1132=DIRECTION('',(0.866025382292378,-0.500000037225339,0.));
#1133=DIRECTION('',(0.,0.,-1.));
#1134=DIRECTION('',(0.866025382292378,-0.500000037225339,0.));
#1135=DIRECTION('center_axis',(-0.499999975183105,0.866025418112479,0.));
#1136=DIRECTION('ref_axis',(0.866025418112479,0.499999975183105,0.));
#1137=DIRECTION('',(0.866025418112479,0.499999975183105,0.));
#1138=DIRECTION('',(0.,0.,-1.));
#1139=DIRECTION('',(0.866025418112479,0.499999975183105,0.));
#1140=DIRECTION('center_axis',(-1.,-1.08335924201066E-15,0.));
#1141=DIRECTION('ref_axis',(-1.08335924201066E-15,1.,0.));
#1142=DIRECTION('',(-1.08335924201066E-15,1.,0.));
#1143=DIRECTION('',(-1.08335924201066E-15,1.,0.));
#1144=DIRECTION('center_axis',(0.,0.,-1.));
#1145=DIRECTION('ref_axis',(-1.,0.,0.));
#1146=DIRECTION('center_axis',(0.,0.,1.));
#1147=DIRECTION('ref_axis',(1.,0.,0.));
#1148=DIRECTION('center_axis',(0.,0.,-1.));
#1149=DIRECTION('ref_axis',(1.,0.,0.));
#1150=DIRECTION('',(0.,0.,-1.));
#1151=DIRECTION('center_axis',(0.,-1.,0.));
#1152=DIRECTION('ref_axis',(1.,0.,0.));
#1153=DIRECTION('',(1.,0.,0.));
#1154=DIRECTION('center_axis',(0.,0.,1.));
#1155=DIRECTION('ref_axis',(1.,0.,0.));
#1156=CARTESIAN_POINT('',(0.,0.,0.));
#1157=CARTESIAN_POINT('Origin',(25.,25.,0.));
#1158=CARTESIAN_POINT('',(25.,30.,40.));
#1159=CARTESIAN_POINT('',(30.,25.,40.));
#1160=CARTESIAN_POINT('Origin',(25.,25.,40.));
#1161=CARTESIAN_POINT('',(30.,25.,0.));
#1162=CARTESIAN_POINT('',(30.,25.,0.));
#1163=CARTESIAN_POINT('',(25.,30.,0.));
#1164=CARTESIAN_POINT('Origin',(25.,25.,0.));
#1165=CARTESIAN_POINT('',(25.,30.,0.));
#1166=CARTESIAN_POINT('Origin',(30.,30.,0.));
#1167=CARTESIAN_POINT('',(-25.,30.,0.));
#1168=CARTESIAN_POINT('',(-30.,30.,0.));
#1169=CARTESIAN_POINT('',(-25.,30.,40.));
#1170=CARTESIAN_POINT('',(-25.,30.,0.));
#1171=CARTESIAN_POINT('',(-30.,30.,40.));
#1172=CARTESIAN_POINT('Origin',(0.,-4.44089209850063E-15,0.));
#1173=CARTESIAN_POINT('',(30.,-25.,0.));
#1174=CARTESIAN_POINT('',(30.,30.,0.));
#1175=CARTESIAN_POINT('',(25.,-30.,0.));
#1176=CARTESIAN_POINT('Origin',(25.,-25.,0.));
#1177=CARTESIAN_POINT('',(-25.,-30.,0.));
#1178=CARTESIAN_POINT('',(30.,-30.,0.));
#1179=CARTESIAN_POINT('',(-30.,-25.,0.));
#1180=CARTESIAN_POINT('Origin',(-25.,-25.,0.));
#1181=CARTESIAN_POINT('',(-30.,25.,0.));
#1182=CARTESIAN_POINT('',(-30.,-30.,0.));
#1183=CARTESIAN_POINT('Origin',(-25.,25.,0.));
#1184=CARTESIAN_POINT('',(-25.,3.06161699786838E-15,0.));
#1185=CARTESIAN_POINT('Origin',(0.,0.,0.));
#1186=CARTESIAN_POINT('',(27.25,25.,0.));
#1187=CARTESIAN_POINT('Origin',(25.,25.,0.));
#1188=CARTESIAN_POINT('',(27.25,-25.,0.));
#1189=CARTESIAN_POINT('Origin',(25.,-25.,0.));
#1190=CARTESIAN_POINT('',(-22.75,25.,0.));
#1191=CARTESIAN_POINT('Origin',(-25.,25.,0.));
#1192=CARTESIAN_POINT('',(-22.75,-25.,0.));
#1193=CARTESIAN_POINT('Origin',(-25.,-25.,0.));
#1194=CARTESIAN_POINT('Origin',(-25.,25.,0.));
#1195=CARTESIAN_POINT('',(-30.,25.,40.));
#1196=CARTESIAN_POINT('Origin',(-25.,25.,40.));
#1197=CARTESIAN_POINT('',(-30.,25.,0.));
#1198=CARTESIAN_POINT('Origin',(-30.,30.,0.));
#1199=CARTESIAN_POINT('',(-30.,-25.,40.));
#1200=CARTESIAN_POINT('',(-30.,-25.,0.));
#1201=CARTESIAN_POINT('',(-30.,-30.,40.));
#1202=CARTESIAN_POINT('Origin',(25.,-25.,0.));
#1203=CARTESIAN_POINT('',(30.,-25.,40.));
#1204=CARTESIAN_POINT('',(25.,-30.,40.));
#1205=CARTESIAN_POINT('Origin',(25.,-25.,40.));
#1206=CARTESIAN_POINT('',(25.,-30.,0.));
#1207=CARTESIAN_POINT('',(30.,-25.,0.));
#1208=CARTESIAN_POINT('Origin',(30.,-30.,0.));
#1209=CARTESIAN_POINT('',(30.,30.,40.));
#1210=CARTESIAN_POINT('Origin',(-25.,-25.,0.));
#1211=CARTESIAN_POINT('',(-25.,-30.,40.));
#1212=CARTESIAN_POINT('Origin',(-25.,-25.,40.));
#1213=CARTESIAN_POINT('',(-25.,-30.,0.));
#1214=CARTESIAN_POINT('Origin',(0.,0.,0.));
#1215=CARTESIAN_POINT('',(-25.,3.06161699786838E-15,5.));
#1216=CARTESIAN_POINT('',(-25.,-3.06161699786838E-15,0.));
#1217=CARTESIAN_POINT('Origin',(0.,0.,5.));
#1218=CARTESIAN_POINT('Origin',(0.,0.,5.));
#1219=CARTESIAN_POINT('',(-22.35,2.73708559609433E-15,5.));
#1220=CARTESIAN_POINT('Origin',(0.,0.,5.));
#1221=CARTESIAN_POINT('Origin',(-25.,-25.,5.));
#1222=CARTESIAN_POINT('',(-22.75,-25.,5.));
#1223=CARTESIAN_POINT('Origin',(-25.,-25.,5.));
#1224=CARTESIAN_POINT('',(-22.75,-25.,5.));
#1225=CARTESIAN_POINT('Origin',(-25.,25.,5.));
#1226=CARTESIAN_POINT('',(-22.75,25.,5.));
#1227=CARTESIAN_POINT('Origin',(-25.,25.,5.));
#1228=CARTESIAN_POINT('',(-22.75,25.,5.));
#1229=CARTESIAN_POINT('Origin',(25.,-25.,5.));
#1230=CARTESIAN_POINT('',(27.25,-25.,5.));
#1231=CARTESIAN_POINT('Origin',(25.,-25.,5.));
#1232=CARTESIAN_POINT('',(27.25,-25.,5.));
#1233=CARTESIAN_POINT('Origin',(25.,25.,5.));
#1234=CARTESIAN_POINT('',(27.25,25.,5.));
#1235=CARTESIAN_POINT('Origin',(25.,25.,5.));
#1236=CARTESIAN_POINT('',(27.25,25.,5.));
#1237=CARTESIAN_POINT('Origin',(25.,-29.0991869112463,40.));
#1238=CARTESIAN_POINT('',(25.,-29.0991869112463,40.));
#1239=CARTESIAN_POINT('',(21.45,-27.0495934556232,40.));
#1240=CARTESIAN_POINT('',(9.32484122634725,-20.0491297736878,40.));
#1241=CARTESIAN_POINT('',(25.,-29.0991869112463,5.));
#1242=CARTESIAN_POINT('',(25.,-29.0991869112463,40.));
#1243=CARTESIAN_POINT('',(21.45,-27.0495934556232,5.));
#1244=CARTESIAN_POINT('',(21.45,-27.0495934556232,5.));
#1245=CARTESIAN_POINT('',(21.45,-27.0495934556232,40.));
#1246=CARTESIAN_POINT('Origin',(28.55,-27.0495934556232,40.));
#1247=CARTESIAN_POINT('',(28.55,-27.0495934556232,40.));
#1248=CARTESIAN_POINT('',(23.7001587736527,-29.8496505931817,40.));
#1249=CARTESIAN_POINT('',(28.55,-27.0495934556232,5.));
#1250=CARTESIAN_POINT('',(28.55,-27.0495934556232,40.));
#1251=CARTESIAN_POINT('',(25.,-29.0991869112463,5.));
#1252=CARTESIAN_POINT('Origin',(28.55,-22.9504065443768,40.));
#1253=CARTESIAN_POINT('',(28.55,-22.9504065443768,40.));
#1254=CARTESIAN_POINT('',(28.55,-11.4752032721884,40.));
#1255=CARTESIAN_POINT('',(28.55,-22.9504065443768,5.));
#1256=CARTESIAN_POINT('',(28.55,-22.9504065443768,40.));
#1257=CARTESIAN_POINT('',(28.55,-27.0495934556232,5.));
#1258=CARTESIAN_POINT('Origin',(25.,-20.9008130887537,40.));
#1259=CARTESIAN_POINT('',(25.,-20.9008130887537,40.));
#1260=CARTESIAN_POINT('',(11.0998412263473,-12.8755526790067,40.));
#1261=CARTESIAN_POINT('',(25.,-20.9008130887537,5.));
#1262=CARTESIAN_POINT('',(25.,-20.9008130887537,40.));
#1263=CARTESIAN_POINT('',(28.55,-22.9504065443768,5.));
#1264=CARTESIAN_POINT('Origin',(21.45,-22.9504065443768,40.));
#1265=CARTESIAN_POINT('',(21.45,-22.9504065443768,40.));
#1266=CARTESIAN_POINT('',(18.3751587736527,-24.7256669541238,40.));
#1267=CARTESIAN_POINT('',(21.45,-22.9504065443768,5.));
#1268=CARTESIAN_POINT('',(21.45,-22.9504065443768,40.));
#1269=CARTESIAN_POINT('',(25.,-20.9008130887537,5.));
#1270=CARTESIAN_POINT('Origin',(21.45,-27.0495934556232,40.));
#1271=CARTESIAN_POINT('',(21.45,-13.5247967278116,40.));
#1272=CARTESIAN_POINT('',(21.45,-22.9504065443768,5.));
#1273=CARTESIAN_POINT('Origin',(25.,-25.,5.));
#1274=CARTESIAN_POINT('Origin',(-25.,29.0991869112462,40.));
#1275=CARTESIAN_POINT('',(-25.,29.0991869112462,40.));
#1276=CARTESIAN_POINT('',(-21.45,27.0495934556231,40.));
#1277=CARTESIAN_POINT('',(-9.32484122634727,20.0491297736878,40.));
#1278=CARTESIAN_POINT('',(-25.,29.0991869112462,5.));
#1279=CARTESIAN_POINT('',(-25.,29.0991869112462,40.));
#1280=CARTESIAN_POINT('',(-21.45,27.0495934556231,5.));
#1281=CARTESIAN_POINT('',(-21.45,27.0495934556231,5.));
#1282=CARTESIAN_POINT('',(-21.45,27.0495934556231,40.));
#1283=CARTESIAN_POINT('Origin',(-28.55,27.0495934556231,40.));
#1284=CARTESIAN_POINT('',(-28.55,27.0495934556231,40.));
#1285=CARTESIAN_POINT('',(-23.7001587736527,29.8496505931816,40.));
#1286=CARTESIAN_POINT('',(-28.55,27.0495934556231,5.));
#1287=CARTESIAN_POINT('',(-28.55,27.0495934556231,40.));
#1288=CARTESIAN_POINT('',(-25.,29.0991869112462,5.));
#1289=CARTESIAN_POINT('Origin',(-28.55,22.9504065443767,40.));
#1290=CARTESIAN_POINT('',(-28.55,22.9504065443767,40.));
#1291=CARTESIAN_POINT('',(-28.55,11.4752032721883,40.));
#1292=CARTESIAN_POINT('',(-28.55,22.9504065443767,5.));
#1293=CARTESIAN_POINT('',(-28.55,22.9504065443767,40.));
#1294=CARTESIAN_POINT('',(-28.55,27.0495934556231,5.));
#1295=CARTESIAN_POINT('Origin',(-25.,20.9008130887536,40.));
#1296=CARTESIAN_POINT('',(-25.,20.9008130887536,40.));
#1297=CARTESIAN_POINT('',(-11.0998412263473,12.8755526790066,40.));
#1298=CARTESIAN_POINT('',(-25.,20.9008130887536,5.));
#1299=CARTESIAN_POINT('',(-25.,20.9008130887536,40.));
#1300=CARTESIAN_POINT('',(-28.55,22.9504065443767,5.));
#1301=CARTESIAN_POINT('Origin',(-21.45,22.9504065443767,40.));
#1302=CARTESIAN_POINT('',(-21.45,22.9504065443767,40.));
#1303=CARTESIAN_POINT('',(-18.3751587736527,24.7256669541237,40.));
#1304=CARTESIAN_POINT('',(-21.45,22.9504065443767,5.));
#1305=CARTESIAN_POINT('',(-21.45,22.9504065443767,40.));
#1306=CARTESIAN_POINT('',(-25.,20.9008130887536,5.));
#1307=CARTESIAN_POINT('Origin',(-21.45,27.0495934556231,40.));
#1308=CARTESIAN_POINT('',(-21.45,13.5247967278115,40.));
#1309=CARTESIAN_POINT('',(-21.45,22.9504065443767,5.));
#1310=CARTESIAN_POINT('Origin',(-25.,24.9999999999999,5.));
#1311=CARTESIAN_POINT('Origin',(-25.,-20.9008130887537,40.));
#1312=CARTESIAN_POINT('',(-25.,-20.9008130887537,40.));
#1313=CARTESIAN_POINT('',(-21.45,-22.9504065443768,40.));
#1314=CARTESIAN_POINT('',(-20.1501587736528,-23.7008702263122,40.));
#1315=CARTESIAN_POINT('',(-25.,-20.9008130887537,5.));
#1316=CARTESIAN_POINT('',(-25.,-20.9008130887537,40.));
#1317=CARTESIAN_POINT('',(-21.45,-22.9504065443768,5.));
#1318=CARTESIAN_POINT('',(-21.45,-22.9504065443768,5.));
#1319=CARTESIAN_POINT('',(-21.45,-22.9504065443768,40.));
#1320=CARTESIAN_POINT('Origin',(-28.55,-22.9504065443768,40.));
#1321=CARTESIAN_POINT('',(-28.55,-22.9504065443768,40.));
#1322=CARTESIAN_POINT('',(-12.8748412263473,-13.9003494068183,40.));
#1323=CARTESIAN_POINT('',(-28.55,-22.9504065443768,5.));
#1324=CARTESIAN_POINT('',(-28.55,-22.9504065443768,40.));
#1325=CARTESIAN_POINT('',(-25.,-20.9008130887537,5.));
#1326=CARTESIAN_POINT('Origin',(-28.55,-27.0495934556232,40.));
#1327=CARTESIAN_POINT('',(-28.55,-27.0495934556232,40.));
#1328=CARTESIAN_POINT('',(-28.55,-13.5247967278116,40.));
#1329=CARTESIAN_POINT('',(-28.55,-27.0495934556232,5.));
#1330=CARTESIAN_POINT('',(-28.55,-27.0495934556232,40.));
#1331=CARTESIAN_POINT('',(-28.55,-22.9504065443768,5.));
#1332=CARTESIAN_POINT('Origin',(-25.,-29.0991869112463,40.));
#1333=CARTESIAN_POINT('',(-25.,-29.0991869112463,40.));
#1334=CARTESIAN_POINT('',(-21.9251587736528,-30.8744473209933,40.));
#1335=CARTESIAN_POINT('',(-25.,-29.0991869112463,5.));
#1336=CARTESIAN_POINT('',(-25.,-29.0991869112463,40.));
#1337=CARTESIAN_POINT('',(-28.55,-27.0495934556232,5.));
#1338=CARTESIAN_POINT('Origin',(-21.45,-27.0495934556232,40.));
#1339=CARTESIAN_POINT('',(-21.45,-27.0495934556232,40.));
#1340=CARTESIAN_POINT('',(-7.54984122634726,-19.0243330458762,40.));
#1341=CARTESIAN_POINT('',(-21.45,-27.0495934556232,5.));
#1342=CARTESIAN_POINT('',(-21.45,-27.0495934556232,40.));
#1343=CARTESIAN_POINT('',(-25.,-29.0991869112463,5.));
#1344=CARTESIAN_POINT('Origin',(-21.45,-22.9504065443768,40.));
#1345=CARTESIAN_POINT('',(-21.45,-11.4752032721884,40.));
#1346=CARTESIAN_POINT('',(-21.45,-27.0495934556232,5.));
#1347=CARTESIAN_POINT('Origin',(-25.,-25.,5.));
#1348=CARTESIAN_POINT('Origin',(24.9999998825334,20.9008130887537,40.));
#1349=CARTESIAN_POINT('',(24.9999998825334,20.9008130887537,40.));
#1350=CARTESIAN_POINT('',(21.45,22.9504066121962,40.));
#1351=CARTESIAN_POINT('',(20.1501591601811,23.7008701206338,40.));
#1352=CARTESIAN_POINT('',(24.9999998825334,20.9008130887537,5.));
#1353=CARTESIAN_POINT('',(24.9999998825334,20.9008130887537,40.));
#1354=CARTESIAN_POINT('',(21.45,22.9504066121962,5.));
#1355=CARTESIAN_POINT('',(21.45,22.9504066121962,5.));
#1356=CARTESIAN_POINT('',(21.45,22.9504066121962,40.));
#1357=CARTESIAN_POINT('Origin',(28.55,22.950406408738,40.));
#1358=CARTESIAN_POINT('',(28.55,22.950406408738,40.));
#1359=CARTESIAN_POINT('',(12.874840970948,13.9003500221019,40.));
#1360=CARTESIAN_POINT('',(28.55,22.950406408738,5.));
#1361=CARTESIAN_POINT('',(28.55,22.950406408738,40.));
#1362=CARTESIAN_POINT('',(24.9999998825334,20.9008130887537,5.));
#1363=CARTESIAN_POINT('Origin',(28.55,27.0495933878038,40.));
#1364=CARTESIAN_POINT('',(28.55,27.0495933878038,40.));
#1365=CARTESIAN_POINT('',(28.55,13.5247966939019,40.));
#1366=CARTESIAN_POINT('',(28.55,27.0495933878038,5.));
#1367=CARTESIAN_POINT('',(28.55,27.0495933878038,40.));
#1368=CARTESIAN_POINT('',(28.55,22.950406408738,5.));
#1369=CARTESIAN_POINT('Origin',(25.0000001174666,29.0991869790657,40.));
#1370=CARTESIAN_POINT('',(25.0000001174666,29.0991869790657,40.));
#1371=CARTESIAN_POINT('',(21.9251596397702,30.8744471328047,40.));
#1372=CARTESIAN_POINT('',(25.0000001174666,29.0991869790657,5.));
#1373=CARTESIAN_POINT('',(25.0000001174666,29.0991869790657,40.));
#1374=CARTESIAN_POINT('',(28.55,27.0495933878038,5.));
#1375=CARTESIAN_POINT('Origin',(21.45,27.049593591262,40.));
#1376=CARTESIAN_POINT('',(21.45,27.049593591262,40.));
#1377=CARTESIAN_POINT('',(7.54984112460326,19.0243336538719,40.));
#1378=CARTESIAN_POINT('',(21.45,27.049593591262,5.));
#1379=CARTESIAN_POINT('',(21.45,27.049593591262,40.));
#1380=CARTESIAN_POINT('',(25.0000001174666,29.0991869790657,5.));
#1381=CARTESIAN_POINT('Origin',(21.45,22.9504066121962,40.));
#1382=CARTESIAN_POINT('',(21.45,11.4752033060981,40.));
#1383=CARTESIAN_POINT('',(21.45,27.049593591262,5.));
#1384=CARTESIAN_POINT('Origin',(25.,25.0000000339097,5.));
#1385=CARTESIAN_POINT('Origin',(0.,0.,0.));
#1386=CARTESIAN_POINT('',(-22.35,-2.73708559609433E-15,40.));
#1387=CARTESIAN_POINT('Origin',(0.,0.,40.));
#1388=CARTESIAN_POINT('',(-22.35,-2.73708559609433E-15,0.));
#1389=CARTESIAN_POINT('Origin',(-30.,-30.,0.));
#1390=CARTESIAN_POINT('',(30.,-30.,40.));
#1391=CARTESIAN_POINT('Origin',(0.,-4.44089209850063E-15,40.));
#1392=UNCERTAINTY_MEASURE_WITH_UNIT(LENGTH_MEASURE(0.01),#1396,
'DISTANCE_ACCURACY_VALUE',
'Maximum model space distance between geometric entities at asserted c
onnectivities');
#1393=UNCERTAINTY_MEASURE_WITH_UNIT(LENGTH_MEASURE(0.01),#1396,
'DISTANCE_ACCURACY_VALUE',
'Maximum model space distance between geometric entities at asserted c
onnectivities');
#1394=(
GEOMETRIC_REPRESENTATION_CONTEXT(3)
GLOBAL_UNCERTAINTY_ASSIGNED_CONTEXT((#1392))
GLOBAL_UNIT_ASSIGNED_CONTEXT((#1396,#1398,#1399))
REPRESENTATION_CONTEXT('','3D')
);
#1395=(
GEOMETRIC_REPRESENTATION_CONTEXT(3)
GLOBAL_UNCERTAINTY_ASSIGNED_CONTEXT((#1393))
GLOBAL_UNIT_ASSIGNED_CONTEXT((#1396,#1398,#1399))
REPRESENTATION_CONTEXT('','3D')
);
#1396=(
LENGTH_UNIT()
NAMED_UNIT(*)
SI_UNIT(.MILLI.,.METRE.)
);
#1397=(
LENGTH_UNIT()
NAMED_UNIT(*)
SI_UNIT($,.METRE.)
);
#1398=(
NAMED_UNIT(*)
PLANE_ANGLE_UNIT()
SI_UNIT($,.RADIAN.)
);
#1399=(
NAMED_UNIT(*)
SI_UNIT($,.STERADIAN.)
SOLID_ANGLE_UNIT()
);
#1400=SHAPE_DEFINITION_REPRESENTATION(#1401,#1402);
#1401=PRODUCT_DEFINITION_SHAPE('',$,#1404);
#1402=SHAPE_REPRESENTATION('',(#864),#1394);
#1403=PRODUCT_DEFINITION_CONTEXT('part definition',#1408,'design');
#1404=PRODUCT_DEFINITION('Halter_Motor_TH_Gegenhalter_V1',
'Halter_Motor_TH_Gegenhalter_V1 v2',#1405,#1403);
#1405=PRODUCT_DEFINITION_FORMATION('',$,#1410);
#1406=PRODUCT_RELATED_PRODUCT_CATEGORY(
'Halter_Motor_TH_Gegenhalter_V1 v2','Halter_Motor_TH_Gegenhalter_V1 v2',
(#1410));
#1407=APPLICATION_PROTOCOL_DEFINITION('international standard',
'automotive_design',2009,#1408);
#1408=APPLICATION_CONTEXT(
'Core Data for Automotive Mechanical Design Process');
#1409=PRODUCT_CONTEXT('part definition',#1408,'mechanical');
#1410=PRODUCT('Halter_Motor_TH_Gegenhalter_V1',
'Halter_Motor_TH_Gegenhalter_V1 v2',$,(#1409));
#1411=PRESENTATION_STYLE_ASSIGNMENT((#1413));
#1412=PRESENTATION_STYLE_ASSIGNMENT((#1414));
#1413=SURFACE_STYLE_USAGE(.BOTH.,#1415);
#1414=SURFACE_STYLE_USAGE(.BOTH.,#1416);
#1415=SURFACE_SIDE_STYLE('',(#1417));
#1416=SURFACE_SIDE_STYLE('',(#1418));
#1417=SURFACE_STYLE_FILL_AREA(#1419);
#1418=SURFACE_STYLE_FILL_AREA(#1420);
#1419=FILL_AREA_STYLE('Stahl - satiniert',(#1421));
#1420=FILL_AREA_STYLE('Kunststoff - gl\X\E4nzend (Schwarz)',(#1422));
#1421=FILL_AREA_STYLE_COLOUR('Stahl - satiniert',#1423);
#1422=FILL_AREA_STYLE_COLOUR('Kunststoff - gl\X\E4nzend (Schwarz)',#1424);
#1423=COLOUR_RGB('Stahl - satiniert',0.627450980392157,0.627450980392157,
0.627450980392157);
#1424=COLOUR_RGB('Kunststoff - gl\X\E4nzend (Schwarz)',0.0980392156862745,
0.0980392156862745,0.0980392156862745);
ENDSEC;
END-ISO-10303-21;
