0
SECTION
2
HEADER
9
$INSUNITS
70
4
9
$ACADVER
1
AC1014
9
$HANDSEED
5
FFFF
0
ENDSEC
0
SECTION
2
TABLES
0
TABLE
2
VPORT
5
8
100
AcDbSymbolTable
0
ENDTAB
0
TABLE
2
LTYPE
5
5
100
AcDbSymbolTable
0
LTYPE
5
14
100
AcDbSymbolTableRecord
100
AcDbLinetypeTableRecord
2
BYBLOCK
70
0
0
LTYPE
5
15
100
AcDbSymbolTableRecord
100
AcDbLinetypeTableRecord
2
BYLAYER
70
0
0
LTYPE
5
16
100
AcDbSymbolTableRecord
100
AcDbLinetypeTableRecord
2
DASHED
70
0
3
Dashed __ __ __ __ __ __ __ __ __ __ __ __ __ _
72
65
73
2
40
0.75
49
0.5
74
0
49
-0.25
74
0
0
ENDTAB
0
TABLE
2
LAYER
5
2
100
AcDbSymbolTable
70
2
0
LAYER
5
50
100
AcDbSymbolTableRecord
100
AcDbLayerTableRecord
2
0
70
0
62
7
6
CONTINUOUS
0
ENDTAB
0
TABLE
2
STYLE
5
3
100
AcDbSymbolTable
70
1
0
STYLE
5
11
100
AcDbSymbolTableRecord
100
AcDbTextStyleTableRecord
2
STANDARD
70
0
0
ENDTAB
0
TABLE
2
VIEW
5
6
100
AcDbSymbolTable
70
0
0
ENDTAB
0
TABLE
2
UCS
5
7
100
AcDbSymbolTable
70
0
0
ENDTAB
0
TABLE
2
APPID
5
9
100
AcDbSymbolTable
70
2
0
APPID
5
12
100
AcDbSymbolTableRecord
100
AcDbRegAppTableRecord
2
ACAD
70
0
0
ENDTAB
0
TABLE
2
DIMSTYLE
5
A
100
AcDbSymbolTable
70
1
0
ENDTAB
0
TABLE
2
BLOCK_RECORD
5
1
100
AcDbSymbolTable
70
1
0
BLOCK_RECORD
5
1F
100
AcDbSymbolTableRecord
100
AcDbBlockTableRecord
2
*MODEL_SPACE
0
BLOCK_RECORD
5
1B
100
AcDbSymbolTableRecord
100
AcDbBlockTableRecord
2
*PAPER_SPACE
0
ENDTAB
0
ENDSEC
0
SECTION
2
BLOCKS
0
BLOCK
5
20
100
AcDbEntity
100
AcDbBlockBegin
2
*MODEL_SPACE
0
ENDBLK
5
21
100
AcDbEntity
100
AcDbBlockEnd
0
BLOCK
5
1C
100
AcDbEntity
100
AcDbBlockBegin
2
*PAPER_SPACE
0
ENDBLK
5
1D
100
AcDbEntity
100
AcDbBlockEnd
0
ENDSEC
0
SECTION
2
ENTITIES
0
LWPOLYLINE
5
100
100
AcDbEntity
8
0
100
AcDbPolyline
90
4
70
1
43
0.0
10
0
20
0
10
210
20
0
10
210
20
297
10
0
20
297
0
CIRCLE
5
101
100
AcDbEntity
8
0
100
AcDbCircle
10
105
20
148.5
30
0
40
25
210
0
220
0
230
1
0
CIRCLE
5
102
100
AcDbEntity
8
0
100
AcDbCircle
10
149.99999999999881
20
25.000000000000004
30
0
40
6.0000000000000009
210
0
220
0
230
1
0
CIRCLE
5
103
100
AcDbEntity
8
0
100
AcDbCircle
10
180
20
25
30
0
40
6.0000000000000009
210
0
220
0
230
1
0
CIRCLE
5
104
100
AcDbEntity
8
0
100
AcDbCircle
10
79.999999999999986
20
123.50000000000003
30
0
40
2.25
210
0
220
0
230
1
0
CIRCLE
5
105
100
AcDbEntity
8
0
100
AcDbCircle
10
130.00000000000003
20
123.50000000000001
30
0
40
2.25
210
0
220
0
230
1
0
CIRCLE
5
106
100
AcDbEntity
8
0
100
AcDbCircle
10
130.00000000000003
20
173.5
30
0
40
2.25
210
0
220
0
230
1
0
CIRCLE
5
107
100
AcDbEntity
8
0
100
AcDbCircle
10
80.000000000000014
20
173.49999999999997
30
0
40
2.25
210
0
220
0
230
1
0
LWPOLYLINE
5
108
100
AcDbEntity
8
0
100
AcDbPolyline
90
4
70
1
43
0.0
10
180
20
193.60000000000008
10
161.80000000000001
20
193.60000000000011
10
161.80000000000001
20
163.40000000000009
10
180
20
163.40000000000006
0
LINE
5
109
100
AcDbEntity
8
0
100
AcDbLine
10
180
20
133.60000000000005
30
0
11
161.80000000000001
21
133.60000000000008
31
0
0
LINE
5
110
100
AcDbEntity
8
0
100
AcDbLine
10
161.80000000000001
20
133.60000000000008
30
0
11
161.80000000000001
21
103.40000000000006
31
0
0
LINE
5
111
100
AcDbEntity
8
0
100
AcDbLine
10
180
20
103.40000000000005
30
0
11
161.80000000000001
21
103.40000000000006
31
0
0
LINE
5
112
100
AcDbEntity
8
0
100
AcDbLine
10
180
20
133.60000000000005
30
0
11
180
21
103.40000000000005
31
0
0
LWPOLYLINE
5
113
100
AcDbEntity
8
0
100
AcDbPolyline
90
4
70
1
43
0.0
10
150.09999999999997
20
91.700000000000074
10
150.09999999999994
20
73.500000000000043
10
119.89999999999995
20
73.500000000000043
10
119.89999999999998
20
91.700000000000074
0
LWPOLYLINE
5
114
100
AcDbEntity
8
0
100
AcDbPolyline
90
4
70
1
43
0.0
10
59.90000000000002
20
91.700000000000074
10
59.900000000000013
20
73.500000000000043
10
90.100000000000037
20
73.500000000000043
10
90.100000000000037
20
91.700000000000074
0
LWPOLYLINE
5
115
100
AcDbEntity
8
0
100
AcDbPolyline
90
4
70
1
43
0.0
10
30.000000000000018
20
133.60000000000019
10
48.200000000000003
20
133.60000000000019
10
48.20000000000001
20
103.40000000000019
10
30.000000000000021
20
103.40000000000019
0
LWPOLYLINE
5
116
100
AcDbEntity
8
0
100
AcDbPolyline
90
4
70
1
43
0.0
10
30.000000000000004
20
193.60000000000036
10
48.199999999999974
20
193.60000000000039
10
48.199999999999974
20
163.40000000000038
10
30.000000000000014
20
163.40000000000035
0
LWPOLYLINE
5
117
100
AcDbEntity
8
0
100
AcDbPolyline
90
4
70
1
43
0.0
10
59.900000000000084
20
223.50000000000006
10
59.900000000000091
20
205.30000000000004
10
90.099999999999994
20
205.30000000000004
10
90.100000000000023
20
223.50000000000006
0
LWPOLYLINE
5
118
100
AcDbEntity
8
0
100
AcDbPolyline
90
4
70
1
43
0.0
10
119.90000000000016
20
223.50000000000006
10
119.90000000000022
20
205.30000000000004
10
150.10000000000022
20
205.30000000000004
10
150.10000000000016
20
223.50000000000006
0
ENDSEC
0
SECTION
2
OBJECTS
0
DICTIONARY
5
C
100
AcDbDictionary
3
ACAD_GROUP
350
D
3
ACAD_MLINESTYLE
350
17
0
DICTIONARY
5
D
100
AcDbDictionary
0
DICTIONARY
5
1A
330
C
100
AcDbDictionary
0
DICTIONARY
5
17
100
AcDbDictionary
0
ENDSEC
0
EOF
