0
SECTION
2
HEADER
9
$INSUNITS
70
4
9
$ACADVER
1
AC1014
9
$HANDSEED
5
FFFF
0
ENDSEC
0
SECTION
2
TABLES
0
TABLE
2
VPORT
5
8
100
AcDbSymbolTable
0
ENDTAB
0
TABLE
2
LTYPE
5
5
100
AcDbSymbolTable
0
LTYPE
5
14
100
AcDbSymbolTableRecord
100
AcDbLinetypeTableRecord
2
BYBLOCK
70
0
0
LTYPE
5
15
100
AcDbSymbolTableRecord
100
AcDbLinetypeTableRecord
2
BYLAYER
70
0
0
LTYPE
5
16
100
AcDbSymbolTableRecord
100
AcDbLinetypeTableRecord
2
DASHED
70
0
3
Dashed __ __ __ __ __ __ __ __ __ __ __ __ __ _
72
65
73
2
40
0.75
49
0.5
74
0
49
-0.25
74
0
0
ENDTAB
0
TABLE
2
LAYER
5
2
100
AcDbSymbolTable
70
2
0
LAYER
5
50
100
AcDbSymbolTableRecord
100
AcDbLayerTableRecord
2
0
70
0
62
7
6
CONTINUOUS
0
ENDTAB
0
TABLE
2
STYLE
5
3
100
AcDbSymbolTable
70
1
0
STYLE
5
11
100
AcDbSymbolTableRecord
100
AcDbTextStyleTableRecord
2
STANDARD
70
0
0
ENDTAB
0
TABLE
2
VIEW
5
6
100
AcDbSymbolTable
70
0
0
ENDTAB
0
TABLE
2
UCS
5
7
100
AcDbSymbolTable
70
0
0
ENDTAB
0
TABLE
2
APPID
5
9
100
AcDbSymbolTable
70
2
0
APPID
5
12
100
AcDbSymbolTableRecord
100
AcDbRegAppTableRecord
2
ACAD
70
0
0
ENDTAB
0
TABLE
2
DIMSTYLE
5
A
100
AcDbSymbolTable
70
1
0
ENDTAB
0
TABLE
2
BLOCK_RECORD
5
1
100
AcDbSymbolTable
70
1
0
BLOCK_RECORD
5
1F
100
AcDbSymbolTableRecord
100
AcDbBlockTableRecord
2
*MODEL_SPACE
0
BLOCK_RECORD
5
1B
100
AcDbSymbolTableRecord
100
AcDbBlockTableRecord
2
*PAPER_SPACE
0
ENDTAB
0
ENDSEC
0
SECTION
2
BLOCKS
0
BLOCK
5
20
100
AcDbEntity
100
AcDbBlockBegin
2
*MODEL_SPACE
0
ENDBLK
5
21
100
AcDbEntity
100
AcDbBlockEnd
0
BLOCK
5
1C
100
AcDbEntity
100
AcDbBlockBegin
2
*PAPER_SPACE
0
ENDBLK
5
1D
100
AcDbEntity
100
AcDbBlockEnd
0
ENDSEC
0
SECTION
2
ENTITIES
0
LINE
5
100
100
AcDbEntity
8
0
100
AcDbLine
10
0
20
0
30
0
11
113.39999999999989
21
0
31
0
0
LINE
5
101
100
AcDbEntity
8
0
100
AcDbLine
10
113.39999999999989
20
0
30
0
11
113.39999999999893
21
-20.099999999968801
31
0
0
LINE
5
102
100
AcDbEntity
8
0
100
AcDbLine
10
113.39999999999893
20
-20.099999999968801
30
0
11
131.6999999999997
21
-20.099999999969647
31
0
0
LINE
5
103
100
AcDbEntity
8
0
100
AcDbLine
10
131.6999999999997
20
-20.099999999969647
30
0
11
131.69999999999979
21
-39.900000000039284
31
0
0
LINE
5
104
100
AcDbEntity
8
0
100
AcDbLine
10
131.69999999999979
20
-39.900000000039284
30
0
11
113.39999999999947
21
-39.900000000032833
31
0
0
LINE
5
105
100
AcDbEntity
8
0
100
AcDbLine
10
101.70000000000002
20
-60.000000000000028
30
0
11
101.70000000000002
21
-64.800000000000026
31
0
0
LINE
5
106
100
AcDbEntity
8
0
100
AcDbLine
10
101.70000000000002
20
-64.800000000000026
30
0
11
71.69999999999871
21
-64.800000000000011
31
0
0
LINE
5
107
100
AcDbEntity
8
0
100
AcDbLine
10
71.69999999999871
20
-64.800000000000011
30
0
11
71.699999999998852
21
-60.000000000000014
31
0
0
LINE
5
108
100
AcDbEntity
8
0
100
AcDbLine
10
71.699999999998852
20
-60.000000000000014
30
0
11
41.69999999999753
21
-60.000000000000007
31
0
0
LINE
5
109
100
AcDbEntity
8
0
100
AcDbLine
10
41.69999999999753
20
-60.000000000000007
30
0
11
41.699999999997381
21
-64.800000000000011
31
0
0
LINE
5
110
100
AcDbEntity
8
0
100
AcDbLine
10
41.699999999997381
20
-64.800000000000011
30
0
11
11.699999999996075
21
-64.799999999999997
31
0
0
LINE
5
111
100
AcDbEntity
8
0
100
AcDbLine
10
11.699999999996075
20
-64.799999999999997
30
0
11
11.699999999996118
21
-60
31
0
0
LINE
5
112
100
AcDbEntity
8
0
100
AcDbLine
10
-18.300000000000306
20
-39.899999999959313
30
0
11
-18.299999999999997
21
-20.099999999959142
31
0
0
LINE
5
113
100
AcDbEntity
8
0
100
AcDbLine
10
-18.299999999999997
20
-20.099999999959142
30
0
11
3.2464986903505055e-15
21
-20.099999999960424
31
0
0
LINE
5
114
100
AcDbEntity
8
0
100
AcDbLine
10
3.2464986903505055e-15
20
-20.099999999960424
30
0
11
0
21
0
31
0
0
LINE
5
115
100
AcDbEntity
8
0
100
AcDbLine
10
113.39999999999947
20
-39.900000000032833
30
0
11
113.40000000000001
21
-60.000000000000028
31
0
0
LINE
5
116
100
AcDbEntity
8
0
100
AcDbLine
10
113.40000000000001
20
-60.000000000000028
30
0
11
101.70000000000002
21
-60.000000000000028
31
0
0
LINE
5
117
100
AcDbEntity
8
0
100
AcDbLine
10
-18.300000000000306
20
-39.899999999959313
30
0
11
-3.3481631288743301e-13
21
-39.899999999967463
31
0
0
LINE
5
118
100
AcDbEntity
8
0
100
AcDbLine
10
-3.3481631288743301e-13
20
-39.899999999967463
30
0
11
-4.2249537202110332e-12
21
-60
31
0
0
LINE
5
119
100
AcDbEntity
8
0
100
AcDbLine
10
-4.2249537202110332e-12
20
-60
30
0
11
11.699999999996118
21
-60
31
0
0
ENDSEC
0
SECTION
2
OBJECTS
0
DICTIONARY
5
C
100
AcDbDictionary
3
ACAD_GROUP
350
D
3
ACAD_MLINESTYLE
350
17
0
DICTIONARY
5
D
100
AcDbDictionary
0
DICTIONARY
5
1A
330
C
100
AcDbDictionary
0
DICTIONARY
5
17
100
AcDbDictionary
0
ENDSEC
0
EOF
