ISO-10303-21;
HEADER;
/* Generated by software containing ST-Developer
 * from STEP Tools, Inc. (www.steptools.com) 
 */

FILE_DESCRIPTION(
/* description */ (''),
/* implementation_level */ '2;1');

FILE_NAME(
/* name */ 'Abdeckung_Stromwandler.step',
/* time_stamp */ '2026-06-28T17:01:43+02:00',
/* author */ (''),
/* organization */ (''),
/* preprocessor_version */ 'ST-DEVELOPER v20.1',
/* originating_system */ 'Autodesk Translation Framework v15.8.0.0',
/* authorisation */ '');

FILE_SCHEMA (('AUTOMOTIVE_DESIGN { 1 0 10303 214 3 1 1 }'));
ENDSEC;

DATA;
#10=MECHANICAL_DESIGN_GEOMETRIC_PRESENTATION_REPRESENTATION('',(#13),#1509);
#11=SHAPE_REPRESENTATION_RELATIONSHIP('SRR','None',#1516,#12);
#12=ADVANCED_BREP_SHAPE_REPRESENTATION('',(#14),#1508);
#13=STYLED_ITEM('',(#1525),#14);
#14=MANIFOLD_SOLID_BREP('K\X\F6rper1',#909);
#15=FACE_BOUND('',#327,.T.);
#16=FACE_BOUND('',#329,.T.);
#17=FACE_BOUND('',#330,.T.);
#18=FACE_BOUND('',#331,.T.);
#19=FACE_BOUND('',#359,.T.);
#20=FACE_BOUND('',#361,.T.);
#21=FACE_BOUND('',#365,.T.);
#22=FACE_BOUND('',#368,.T.);
#23=FACE_BOUND('',#369,.T.);
#24=FACE_BOUND('',#370,.T.);
#25=PLANE('',#951);
#26=PLANE('',#952);
#27=PLANE('',#953);
#28=PLANE('',#962);
#29=PLANE('',#965);
#30=PLANE('',#968);
#31=PLANE('',#971);
#32=PLANE('',#976);
#33=PLANE('',#977);
#34=PLANE('',#978);
#35=PLANE('',#979);
#36=PLANE('',#980);
#37=PLANE('',#981);
#38=PLANE('',#982);
#39=PLANE('',#983);
#40=PLANE('',#984);
#41=PLANE('',#985);
#42=PLANE('',#986);
#43=PLANE('',#987);
#44=PLANE('',#988);
#45=PLANE('',#989);
#46=PLANE('',#990);
#47=PLANE('',#991);
#48=PLANE('',#992);
#49=PLANE('',#993);
#50=PLANE('',#994);
#51=PLANE('',#995);
#52=PLANE('',#996);
#53=PLANE('',#997);
#54=PLANE('',#998);
#55=LINE('',#1281,#153);
#56=LINE('',#1282,#154);
#57=LINE('',#1284,#155);
#58=LINE('',#1285,#156);
#59=LINE('',#1290,#157);
#60=LINE('',#1291,#158);
#61=LINE('',#1296,#159);
#62=LINE('',#1297,#160);
#63=LINE('',#1299,#161);
#64=LINE('',#1300,#162);
#65=LINE('',#1302,#163);
#66=LINE('',#1303,#164);
#67=LINE('',#1308,#165);
#68=LINE('',#1309,#166);
#69=LINE('',#1314,#167);
#70=LINE('',#1315,#168);
#71=LINE('',#1317,#169);
#72=LINE('',#1320,#170);
#73=LINE('',#1322,#171);
#74=LINE('',#1324,#172);
#75=LINE('',#1326,#173);
#76=LINE('',#1327,#174);
#77=LINE('',#1330,#175);
#78=LINE('',#1332,#176);
#79=LINE('',#1334,#177);
#80=LINE('',#1335,#178);
#81=LINE('',#1343,#179);
#82=LINE('',#1347,#180);
#83=LINE('',#1351,#181);
#84=LINE('',#1355,#182);
#85=LINE('',#1359,#183);
#86=LINE('',#1362,#184);
#87=LINE('',#1365,#185);
#88=LINE('',#1366,#186);
#89=LINE('',#1369,#187);
#90=LINE('',#1372,#188);
#91=LINE('',#1374,#189);
#92=LINE('',#1377,#190);
#93=LINE('',#1380,#191);
#94=LINE('',#1382,#192);
#95=LINE('',#1385,#193);
#96=LINE('',#1388,#194);
#97=LINE('',#1391,#195);
#98=LINE('',#1395,#196);
#99=LINE('',#1399,#197);
#100=LINE('',#1401,#198);
#101=LINE('',#1403,#199);
#102=LINE('',#1405,#200);
#103=LINE('',#1407,#201);
#104=LINE('',#1408,#202);
#105=LINE('',#1411,#203);
#106=LINE('',#1413,#204);
#107=LINE('',#1414,#205);
#108=LINE('',#1417,#206);
#109=LINE('',#1418,#207);
#110=LINE('',#1422,#208);
#111=LINE('',#1423,#209);
#112=LINE('',#1424,#210);
#113=LINE('',#1428,#211);
#114=LINE('',#1430,#212);
#115=LINE('',#1432,#213);
#116=LINE('',#1433,#214);
#117=LINE('',#1435,#215);
#118=LINE('',#1437,#216);
#119=LINE('',#1439,#217);
#120=LINE('',#1440,#218);
#121=LINE('',#1441,#219);
#122=LINE('',#1445,#220);
#123=LINE('',#1446,#221);
#124=LINE('',#1447,#222);
#125=LINE('',#1451,#223);
#126=LINE('',#1453,#224);
#127=LINE('',#1455,#225);
#128=LINE('',#1456,#226);
#129=LINE('',#1459,#227);
#130=LINE('',#1460,#228);
#131=LINE('',#1463,#229);
#132=LINE('',#1465,#230);
#133=LINE('',#1466,#231);
#134=LINE('',#1469,#232);
#135=LINE('',#1470,#233);
#136=LINE('',#1472,#234);
#137=LINE('',#1475,#235);
#138=LINE('',#1477,#236);
#139=LINE('',#1478,#237);
#140=LINE('',#1480,#238);
#141=LINE('',#1481,#239);
#142=LINE('',#1484,#240);
#143=LINE('',#1485,#241);
#144=LINE('',#1488,#242);
#145=LINE('',#1490,#243);
#146=LINE('',#1491,#244);
#147=LINE('',#1495,#245);
#148=LINE('',#1496,#246);
#149=LINE('',#1499,#247);
#150=LINE('',#1500,#248);
#151=LINE('',#1502,#249);
#152=LINE('',#1503,#250);
#153=VECTOR('',#1035,10.);
#154=VECTOR('',#1036,10.);
#155=VECTOR('',#1039,10.);
#156=VECTOR('',#1040,10.);
#157=VECTOR('',#1045,10.);
#158=VECTOR('',#1046,10.);
#159=VECTOR('',#1051,10.);
#160=VECTOR('',#1052,10.);
#161=VECTOR('',#1055,10.);
#162=VECTOR('',#1056,10.);
#163=VECTOR('',#1059,10.);
#164=VECTOR('',#1060,10.);
#165=VECTOR('',#1065,10.);
#166=VECTOR('',#1066,10.);
#167=VECTOR('',#1071,10.);
#168=VECTOR('',#1072,10.);
#169=VECTOR('',#1075,10.);
#170=VECTOR('',#1078,10.);
#171=VECTOR('',#1079,10.);
#172=VECTOR('',#1080,10.);
#173=VECTOR('',#1081,10.);
#174=VECTOR('',#1082,10.);
#175=VECTOR('',#1083,10.);
#176=VECTOR('',#1084,10.);
#177=VECTOR('',#1085,10.);
#178=VECTOR('',#1086,10.);
#179=VECTOR('',#1093,10.);
#180=VECTOR('',#1096,10.);
#181=VECTOR('',#1099,10.);
#182=VECTOR('',#1102,10.);
#183=VECTOR('',#1107,10.);
#184=VECTOR('',#1110,10.);
#185=VECTOR('',#1113,10.);
#186=VECTOR('',#1114,10.);
#187=VECTOR('',#1117,10.);
#188=VECTOR('',#1120,10.);
#189=VECTOR('',#1123,10.);
#190=VECTOR('',#1126,10.);
#191=VECTOR('',#1129,10.);
#192=VECTOR('',#1132,10.);
#193=VECTOR('',#1135,10.);
#194=VECTOR('',#1140,10.);
#195=VECTOR('',#1143,1.6);
#196=VECTOR('',#1148,1.6);
#197=VECTOR('',#1153,10.);
#198=VECTOR('',#1154,10.);
#199=VECTOR('',#1155,10.);
#200=VECTOR('',#1156,10.);
#201=VECTOR('',#1157,10.);
#202=VECTOR('',#1158,10.);
#203=VECTOR('',#1161,10.);
#204=VECTOR('',#1162,10.);
#205=VECTOR('',#1163,10.);
#206=VECTOR('',#1166,10.);
#207=VECTOR('',#1167,10.);
#208=VECTOR('',#1170,10.);
#209=VECTOR('',#1171,10.);
#210=VECTOR('',#1172,10.);
#211=VECTOR('',#1175,10.);
#212=VECTOR('',#1176,10.);
#213=VECTOR('',#1177,10.);
#214=VECTOR('',#1178,10.);
#215=VECTOR('',#1181,10.);
#216=VECTOR('',#1182,10.);
#217=VECTOR('',#1183,10.);
#218=VECTOR('',#1184,10.);
#219=VECTOR('',#1185,10.);
#220=VECTOR('',#1188,10.);
#221=VECTOR('',#1189,10.);
#222=VECTOR('',#1190,10.);
#223=VECTOR('',#1193,10.);
#224=VECTOR('',#1194,10.);
#225=VECTOR('',#1195,10.);
#226=VECTOR('',#1196,10.);
#227=VECTOR('',#1199,10.);
#228=VECTOR('',#1200,10.);
#229=VECTOR('',#1203,10.);
#230=VECTOR('',#1204,10.);
#231=VECTOR('',#1205,10.);
#232=VECTOR('',#1208,10.);
#233=VECTOR('',#1209,10.);
#234=VECTOR('',#1212,10.);
#235=VECTOR('',#1215,10.);
#236=VECTOR('',#1216,10.);
#237=VECTOR('',#1217,10.);
#238=VECTOR('',#1220,10.);
#239=VECTOR('',#1221,10.);
#240=VECTOR('',#1226,10.);
#241=VECTOR('',#1227,10.);
#242=VECTOR('',#1230,10.);
#243=VECTOR('',#1231,10.);
#244=VECTOR('',#1232,10.);
#245=VECTOR('',#1237,10.);
#246=VECTOR('',#1238,10.);
#247=VECTOR('',#1241,10.);
#248=VECTOR('',#1242,10.);
#249=VECTOR('',#1245,10.);
#250=VECTOR('',#1246,10.);
#251=CYLINDRICAL_SURFACE('',#939,2.);
#252=CYLINDRICAL_SURFACE('',#940,2.);
#253=CYLINDRICAL_SURFACE('',#941,2.);
#254=CYLINDRICAL_SURFACE('',#943,2.);
#255=CYLINDRICAL_SURFACE('',#945,2.);
#256=CYLINDRICAL_SURFACE('',#946,2.);
#257=CYLINDRICAL_SURFACE('',#947,2.);
#258=CYLINDRICAL_SURFACE('',#949,2.);
#259=CYLINDRICAL_SURFACE('',#960,2.);
#260=CYLINDRICAL_SURFACE('',#963,2.);
#261=CYLINDRICAL_SURFACE('',#966,2.);
#262=CYLINDRICAL_SURFACE('',#969,2.);
#263=CYLINDRICAL_SURFACE('',#972,1.6);
#264=CYLINDRICAL_SURFACE('',#974,1.6);
#265=FACE_OUTER_BOUND('',#313,.T.);
#266=FACE_OUTER_BOUND('',#314,.T.);
#267=FACE_OUTER_BOUND('',#315,.T.);
#268=FACE_OUTER_BOUND('',#316,.T.);
#269=FACE_OUTER_BOUND('',#317,.T.);
#270=FACE_OUTER_BOUND('',#318,.T.);
#271=FACE_OUTER_BOUND('',#319,.T.);
#272=FACE_OUTER_BOUND('',#320,.T.);
#273=FACE_OUTER_BOUND('',#321,.T.);
#274=FACE_OUTER_BOUND('',#322,.T.);
#275=FACE_OUTER_BOUND('',#323,.T.);
#276=FACE_OUTER_BOUND('',#324,.T.);
#277=FACE_OUTER_BOUND('',#325,.T.);
#278=FACE_OUTER_BOUND('',#326,.T.);
#279=FACE_OUTER_BOUND('',#328,.T.);
#280=FACE_OUTER_BOUND('',#332,.T.);
#281=FACE_OUTER_BOUND('',#333,.T.);
#282=FACE_OUTER_BOUND('',#334,.T.);
#283=FACE_OUTER_BOUND('',#335,.T.);
#284=FACE_OUTER_BOUND('',#336,.T.);
#285=FACE_OUTER_BOUND('',#337,.T.);
#286=FACE_OUTER_BOUND('',#338,.T.);
#287=FACE_OUTER_BOUND('',#339,.T.);
#288=FACE_OUTER_BOUND('',#340,.T.);
#289=FACE_OUTER_BOUND('',#341,.T.);
#290=FACE_OUTER_BOUND('',#342,.T.);
#291=FACE_OUTER_BOUND('',#343,.T.);
#292=FACE_OUTER_BOUND('',#344,.T.);
#293=FACE_OUTER_BOUND('',#345,.T.);
#294=FACE_OUTER_BOUND('',#346,.T.);
#295=FACE_OUTER_BOUND('',#347,.T.);
#296=FACE_OUTER_BOUND('',#348,.T.);
#297=FACE_OUTER_BOUND('',#349,.T.);
#298=FACE_OUTER_BOUND('',#350,.T.);
#299=FACE_OUTER_BOUND('',#351,.T.);
#300=FACE_OUTER_BOUND('',#352,.T.);
#301=FACE_OUTER_BOUND('',#353,.T.);
#302=FACE_OUTER_BOUND('',#354,.T.);
#303=FACE_OUTER_BOUND('',#355,.T.);
#304=FACE_OUTER_BOUND('',#356,.T.);
#305=FACE_OUTER_BOUND('',#357,.T.);
#306=FACE_OUTER_BOUND('',#358,.T.);
#307=FACE_OUTER_BOUND('',#360,.T.);
#308=FACE_OUTER_BOUND('',#362,.T.);
#309=FACE_OUTER_BOUND('',#363,.T.);
#310=FACE_OUTER_BOUND('',#364,.T.);
#311=FACE_OUTER_BOUND('',#366,.T.);
#312=FACE_OUTER_BOUND('',#367,.T.);
#313=EDGE_LOOP('',(#605,#606,#607));
#314=EDGE_LOOP('',(#608,#609,#610));
#315=EDGE_LOOP('',(#611,#612,#613));
#316=EDGE_LOOP('',(#614,#615,#616));
#317=EDGE_LOOP('',(#617,#618,#619,#620));
#318=EDGE_LOOP('',(#621,#622,#623,#624));
#319=EDGE_LOOP('',(#625,#626,#627,#628));
#320=EDGE_LOOP('',(#629,#630,#631,#632));
#321=EDGE_LOOP('',(#633,#634,#635,#636));
#322=EDGE_LOOP('',(#637,#638,#639,#640));
#323=EDGE_LOOP('',(#641,#642,#643,#644));
#324=EDGE_LOOP('',(#645,#646,#647,#648));
#325=EDGE_LOOP('',(#649,#650,#651,#652));
#326=EDGE_LOOP('',(#653,#654,#655,#656,#657,#658,#659,#660));
#327=EDGE_LOOP('',(#661,#662,#663,#664));
#328=EDGE_LOOP('',(#665,#666,#667,#668));
#329=EDGE_LOOP('',(#669));
#330=EDGE_LOOP('',(#670));
#331=EDGE_LOOP('',(#671,#672,#673,#674,#675,#676,#677,#678));
#332=EDGE_LOOP('',(#679,#680,#681,#682));
#333=EDGE_LOOP('',(#683,#684,#685,#686));
#334=EDGE_LOOP('',(#687,#688,#689,#690));
#335=EDGE_LOOP('',(#691,#692,#693,#694));
#336=EDGE_LOOP('',(#695,#696,#697,#698));
#337=EDGE_LOOP('',(#699,#700,#701,#702));
#338=EDGE_LOOP('',(#703,#704,#705,#706));
#339=EDGE_LOOP('',(#707,#708,#709,#710));
#340=EDGE_LOOP('',(#711,#712,#713,#714));
#341=EDGE_LOOP('',(#715,#716,#717,#718));
#342=EDGE_LOOP('',(#719,#720,#721,#722,#723,#724,#725,#726,#727,#728));
#343=EDGE_LOOP('',(#729,#730,#731,#732));
#344=EDGE_LOOP('',(#733,#734,#735,#736));
#345=EDGE_LOOP('',(#737,#738,#739,#740));
#346=EDGE_LOOP('',(#741,#742,#743,#744));
#347=EDGE_LOOP('',(#745,#746,#747,#748,#749,#750,#751,#752,#753,#754));
#348=EDGE_LOOP('',(#755,#756,#757,#758));
#349=EDGE_LOOP('',(#759,#760,#761,#762));
#350=EDGE_LOOP('',(#763,#764,#765,#766));
#351=EDGE_LOOP('',(#767,#768,#769,#770));
#352=EDGE_LOOP('',(#771,#772,#773,#774));
#353=EDGE_LOOP('',(#775,#776,#777,#778));
#354=EDGE_LOOP('',(#779,#780,#781,#782));
#355=EDGE_LOOP('',(#783,#784,#785,#786));
#356=EDGE_LOOP('',(#787,#788,#789,#790));
#357=EDGE_LOOP('',(#791,#792,#793,#794));
#358=EDGE_LOOP('',(#795,#796,#797,#798,#799,#800,#801,#802));
#359=EDGE_LOOP('',(#803,#804,#805,#806));
#360=EDGE_LOOP('',(#807,#808,#809,#810,#811,#812,#813,#814));
#361=EDGE_LOOP('',(#815,#816,#817,#818));
#362=EDGE_LOOP('',(#819,#820,#821,#822));
#363=EDGE_LOOP('',(#823,#824,#825,#826));
#364=EDGE_LOOP('',(#827,#828,#829,#830,#831,#832,#833,#834));
#365=EDGE_LOOP('',(#835,#836,#837,#838));
#366=EDGE_LOOP('',(#839,#840,#841,#842));
#367=EDGE_LOOP('',(#843,#844,#845,#846));
#368=EDGE_LOOP('',(#847,#848,#849,#850,#851,#852,#853,#854));
#369=EDGE_LOOP('',(#855));
#370=EDGE_LOOP('',(#856));
#371=CIRCLE('',#924,2.);
#372=CIRCLE('',#925,2.);
#373=CIRCLE('',#926,2.);
#374=CIRCLE('',#928,2.);
#375=CIRCLE('',#929,2.);
#376=CIRCLE('',#930,2.00000000000001);
#377=CIRCLE('',#932,2.);
#378=CIRCLE('',#933,2.);
#379=CIRCLE('',#934,2.);
#380=CIRCLE('',#936,2.);
#381=CIRCLE('',#937,2.);
#382=CIRCLE('',#938,2.);
#383=CIRCLE('',#942,2.);
#384=CIRCLE('',#944,2.);
#385=CIRCLE('',#948,2.);
#386=CIRCLE('',#950,2.);
#387=CIRCLE('',#954,1.6);
#388=CIRCLE('',#955,1.6);
#389=CIRCLE('',#956,2.);
#390=CIRCLE('',#957,2.);
#391=CIRCLE('',#958,2.);
#392=CIRCLE('',#959,2.);
#393=CIRCLE('',#961,2.);
#394=CIRCLE('',#964,2.);
#395=CIRCLE('',#967,2.);
#396=CIRCLE('',#970,2.);
#397=CIRCLE('',#973,1.6);
#398=CIRCLE('',#975,1.6);
#399=VERTEX_POINT('',#1253);
#400=VERTEX_POINT('',#1254);
#401=VERTEX_POINT('',#1256);
#402=VERTEX_POINT('',#1260);
#403=VERTEX_POINT('',#1261);
#404=VERTEX_POINT('',#1263);
#405=VERTEX_POINT('',#1267);
#406=VERTEX_POINT('',#1268);
#407=VERTEX_POINT('',#1270);
#408=VERTEX_POINT('',#1274);
#409=VERTEX_POINT('',#1275);
#410=VERTEX_POINT('',#1277);
#411=VERTEX_POINT('',#1287);
#412=VERTEX_POINT('',#1288);
#413=VERTEX_POINT('',#1293);
#414=VERTEX_POINT('',#1294);
#415=VERTEX_POINT('',#1305);
#416=VERTEX_POINT('',#1306);
#417=VERTEX_POINT('',#1311);
#418=VERTEX_POINT('',#1312);
#419=VERTEX_POINT('',#1319);
#420=VERTEX_POINT('',#1321);
#421=VERTEX_POINT('',#1323);
#422=VERTEX_POINT('',#1325);
#423=VERTEX_POINT('',#1328);
#424=VERTEX_POINT('',#1329);
#425=VERTEX_POINT('',#1331);
#426=VERTEX_POINT('',#1333);
#427=VERTEX_POINT('',#1337);
#428=VERTEX_POINT('',#1339);
#429=VERTEX_POINT('',#1341);
#430=VERTEX_POINT('',#1342);
#431=VERTEX_POINT('',#1344);
#432=VERTEX_POINT('',#1346);
#433=VERTEX_POINT('',#1348);
#434=VERTEX_POINT('',#1350);
#435=VERTEX_POINT('',#1352);
#436=VERTEX_POINT('',#1354);
#437=VERTEX_POINT('',#1358);
#438=VERTEX_POINT('',#1360);
#439=VERTEX_POINT('',#1364);
#440=VERTEX_POINT('',#1368);
#441=VERTEX_POINT('',#1370);
#442=VERTEX_POINT('',#1376);
#443=VERTEX_POINT('',#1378);
#444=VERTEX_POINT('',#1384);
#445=VERTEX_POINT('',#1390);
#446=VERTEX_POINT('',#1394);
#447=VERTEX_POINT('',#1398);
#448=VERTEX_POINT('',#1400);
#449=VERTEX_POINT('',#1402);
#450=VERTEX_POINT('',#1404);
#451=VERTEX_POINT('',#1406);
#452=VERTEX_POINT('',#1410);
#453=VERTEX_POINT('',#1412);
#454=VERTEX_POINT('',#1416);
#455=VERTEX_POINT('',#1420);
#456=VERTEX_POINT('',#1421);
#457=VERTEX_POINT('',#1426);
#458=VERTEX_POINT('',#1427);
#459=VERTEX_POINT('',#1429);
#460=VERTEX_POINT('',#1431);
#461=VERTEX_POINT('',#1436);
#462=VERTEX_POINT('',#1438);
#463=VERTEX_POINT('',#1443);
#464=VERTEX_POINT('',#1444);
#465=VERTEX_POINT('',#1449);
#466=VERTEX_POINT('',#1450);
#467=VERTEX_POINT('',#1452);
#468=VERTEX_POINT('',#1454);
#469=VERTEX_POINT('',#1458);
#470=VERTEX_POINT('',#1462);
#471=VERTEX_POINT('',#1464);
#472=VERTEX_POINT('',#1468);
#473=VERTEX_POINT('',#1474);
#474=VERTEX_POINT('',#1476);
#475=VERTEX_POINT('',#1487);
#476=VERTEX_POINT('',#1489);
#477=VERTEX_POINT('',#1494);
#478=VERTEX_POINT('',#1498);
#479=EDGE_CURVE('',#399,#400,#371,.F.);
#480=EDGE_CURVE('',#401,#399,#372,.F.);
#481=EDGE_CURVE('',#400,#401,#373,.F.);
#482=EDGE_CURVE('',#402,#403,#374,.F.);
#483=EDGE_CURVE('',#404,#402,#375,.F.);
#484=EDGE_CURVE('',#403,#404,#376,.F.);
#485=EDGE_CURVE('',#405,#406,#377,.F.);
#486=EDGE_CURVE('',#407,#405,#378,.F.);
#487=EDGE_CURVE('',#406,#407,#379,.F.);
#488=EDGE_CURVE('',#408,#409,#380,.F.);
#489=EDGE_CURVE('',#410,#408,#381,.F.);
#490=EDGE_CURVE('',#409,#410,#382,.F.);
#491=EDGE_CURVE('',#408,#407,#55,.T.);
#492=EDGE_CURVE('',#405,#410,#56,.T.);
#493=EDGE_CURVE('',#402,#409,#57,.T.);
#494=EDGE_CURVE('',#410,#404,#58,.T.);
#495=EDGE_CURVE('',#411,#412,#383,.T.);
#496=EDGE_CURVE('',#412,#408,#59,.T.);
#497=EDGE_CURVE('',#409,#411,#60,.T.);
#498=EDGE_CURVE('',#413,#414,#384,.T.);
#499=EDGE_CURVE('',#414,#406,#61,.T.);
#500=EDGE_CURVE('',#407,#413,#62,.T.);
#501=EDGE_CURVE('',#406,#400,#63,.T.);
#502=EDGE_CURVE('',#401,#405,#64,.T.);
#503=EDGE_CURVE('',#399,#403,#65,.T.);
#504=EDGE_CURVE('',#404,#401,#66,.T.);
#505=EDGE_CURVE('',#415,#416,#385,.T.);
#506=EDGE_CURVE('',#416,#402,#67,.T.);
#507=EDGE_CURVE('',#403,#415,#68,.T.);
#508=EDGE_CURVE('',#417,#418,#386,.T.);
#509=EDGE_CURVE('',#418,#399,#69,.T.);
#510=EDGE_CURVE('',#400,#417,#70,.T.);
#511=EDGE_CURVE('',#416,#411,#71,.T.);
#512=EDGE_CURVE('',#418,#419,#72,.T.);
#513=EDGE_CURVE('',#419,#420,#73,.T.);
#514=EDGE_CURVE('',#421,#420,#74,.T.);
#515=EDGE_CURVE('',#421,#422,#75,.T.);
#516=EDGE_CURVE('',#422,#415,#76,.T.);
#517=EDGE_CURVE('',#423,#424,#77,.T.);
#518=EDGE_CURVE('',#424,#425,#78,.T.);
#519=EDGE_CURVE('',#425,#426,#79,.T.);
#520=EDGE_CURVE('',#426,#423,#80,.T.);
#521=EDGE_CURVE('',#427,#427,#387,.T.);
#522=EDGE_CURVE('',#428,#428,#388,.T.);
#523=EDGE_CURVE('',#429,#430,#81,.T.);
#524=EDGE_CURVE('',#431,#430,#389,.T.);
#525=EDGE_CURVE('',#431,#432,#82,.T.);
#526=EDGE_CURVE('',#433,#432,#390,.T.);
#527=EDGE_CURVE('',#433,#434,#83,.T.);
#528=EDGE_CURVE('',#435,#434,#391,.T.);
#529=EDGE_CURVE('',#435,#436,#84,.T.);
#530=EDGE_CURVE('',#429,#436,#392,.T.);
#531=EDGE_CURVE('',#434,#437,#85,.T.);
#532=EDGE_CURVE('',#437,#438,#393,.T.);
#533=EDGE_CURVE('',#438,#435,#86,.T.);
#534=EDGE_CURVE('',#439,#433,#87,.T.);
#535=EDGE_CURVE('',#437,#439,#88,.T.);
#536=EDGE_CURVE('',#436,#440,#89,.T.);
#537=EDGE_CURVE('',#440,#441,#394,.T.);
#538=EDGE_CURVE('',#441,#429,#90,.T.);
#539=EDGE_CURVE('',#440,#438,#91,.T.);
#540=EDGE_CURVE('',#430,#442,#92,.T.);
#541=EDGE_CURVE('',#442,#443,#395,.T.);
#542=EDGE_CURVE('',#443,#431,#93,.T.);
#543=EDGE_CURVE('',#442,#441,#94,.T.);
#544=EDGE_CURVE('',#432,#444,#95,.T.);
#545=EDGE_CURVE('',#444,#439,#396,.T.);
#546=EDGE_CURVE('',#444,#443,#96,.T.);
#547=EDGE_CURVE('',#428,#445,#97,.T.);
#548=EDGE_CURVE('',#445,#445,#397,.T.);
#549=EDGE_CURVE('',#427,#446,#98,.T.);
#550=EDGE_CURVE('',#446,#446,#398,.T.);
#551=EDGE_CURVE('',#422,#447,#99,.T.);
#552=EDGE_CURVE('',#448,#447,#100,.T.);
#553=EDGE_CURVE('',#449,#448,#101,.T.);
#554=EDGE_CURVE('',#450,#449,#102,.T.);
#555=EDGE_CURVE('',#450,#451,#103,.T.);
#556=EDGE_CURVE('',#412,#451,#104,.T.);
#557=EDGE_CURVE('',#451,#452,#105,.T.);
#558=EDGE_CURVE('',#453,#450,#106,.T.);
#559=EDGE_CURVE('',#452,#453,#107,.T.);
#560=EDGE_CURVE('',#447,#454,#108,.T.);
#561=EDGE_CURVE('',#454,#421,#109,.T.);
#562=EDGE_CURVE('',#455,#456,#110,.T.);
#563=EDGE_CURVE('',#420,#455,#111,.T.);
#564=EDGE_CURVE('',#419,#456,#112,.T.);
#565=EDGE_CURVE('',#457,#458,#113,.T.);
#566=EDGE_CURVE('',#459,#457,#114,.T.);
#567=EDGE_CURVE('',#460,#459,#115,.T.);
#568=EDGE_CURVE('',#460,#458,#116,.T.);
#569=EDGE_CURVE('',#458,#413,#117,.T.);
#570=EDGE_CURVE('',#461,#460,#118,.T.);
#571=EDGE_CURVE('',#462,#461,#119,.T.);
#572=EDGE_CURVE('',#456,#462,#120,.T.);
#573=EDGE_CURVE('',#414,#417,#121,.T.);
#574=EDGE_CURVE('',#463,#464,#122,.T.);
#575=EDGE_CURVE('',#426,#463,#123,.T.);
#576=EDGE_CURVE('',#425,#464,#124,.T.);
#577=EDGE_CURVE('',#465,#466,#125,.T.);
#578=EDGE_CURVE('',#465,#467,#126,.T.);
#579=EDGE_CURVE('',#468,#467,#127,.T.);
#580=EDGE_CURVE('',#466,#468,#128,.T.);
#581=EDGE_CURVE('',#469,#463,#129,.T.);
#582=EDGE_CURVE('',#423,#469,#130,.T.);
#583=EDGE_CURVE('',#466,#470,#131,.T.);
#584=EDGE_CURVE('',#471,#468,#132,.T.);
#585=EDGE_CURVE('',#470,#471,#133,.T.);
#586=EDGE_CURVE('',#464,#472,#134,.T.);
#587=EDGE_CURVE('',#424,#472,#135,.T.);
#588=EDGE_CURVE('',#472,#469,#136,.T.);
#589=EDGE_CURVE('',#470,#473,#137,.T.);
#590=EDGE_CURVE('',#474,#471,#138,.T.);
#591=EDGE_CURVE('',#473,#474,#139,.T.);
#592=EDGE_CURVE('',#473,#465,#140,.T.);
#593=EDGE_CURVE('',#467,#474,#141,.T.);
#594=EDGE_CURVE('',#453,#459,#142,.T.);
#595=EDGE_CURVE('',#457,#452,#143,.T.);
#596=EDGE_CURVE('',#475,#449,#144,.T.);
#597=EDGE_CURVE('',#476,#475,#145,.T.);
#598=EDGE_CURVE('',#476,#461,#146,.T.);
#599=EDGE_CURVE('',#477,#476,#147,.T.);
#600=EDGE_CURVE('',#477,#462,#148,.T.);
#601=EDGE_CURVE('',#478,#448,#149,.T.);
#602=EDGE_CURVE('',#475,#478,#150,.T.);
#603=EDGE_CURVE('',#455,#454,#151,.T.);
#604=EDGE_CURVE('',#478,#477,#152,.T.);
#605=ORIENTED_EDGE('',*,*,#479,.F.);
#606=ORIENTED_EDGE('',*,*,#480,.F.);
#607=ORIENTED_EDGE('',*,*,#481,.F.);
#608=ORIENTED_EDGE('',*,*,#482,.F.);
#609=ORIENTED_EDGE('',*,*,#483,.F.);
#610=ORIENTED_EDGE('',*,*,#484,.F.);
#611=ORIENTED_EDGE('',*,*,#485,.F.);
#612=ORIENTED_EDGE('',*,*,#486,.F.);
#613=ORIENTED_EDGE('',*,*,#487,.F.);
#614=ORIENTED_EDGE('',*,*,#488,.F.);
#615=ORIENTED_EDGE('',*,*,#489,.F.);
#616=ORIENTED_EDGE('',*,*,#490,.F.);
#617=ORIENTED_EDGE('',*,*,#489,.T.);
#618=ORIENTED_EDGE('',*,*,#491,.T.);
#619=ORIENTED_EDGE('',*,*,#486,.T.);
#620=ORIENTED_EDGE('',*,*,#492,.T.);
#621=ORIENTED_EDGE('',*,*,#483,.T.);
#622=ORIENTED_EDGE('',*,*,#493,.T.);
#623=ORIENTED_EDGE('',*,*,#490,.T.);
#624=ORIENTED_EDGE('',*,*,#494,.T.);
#625=ORIENTED_EDGE('',*,*,#495,.T.);
#626=ORIENTED_EDGE('',*,*,#496,.T.);
#627=ORIENTED_EDGE('',*,*,#488,.T.);
#628=ORIENTED_EDGE('',*,*,#497,.T.);
#629=ORIENTED_EDGE('',*,*,#498,.T.);
#630=ORIENTED_EDGE('',*,*,#499,.T.);
#631=ORIENTED_EDGE('',*,*,#487,.T.);
#632=ORIENTED_EDGE('',*,*,#500,.T.);
#633=ORIENTED_EDGE('',*,*,#485,.T.);
#634=ORIENTED_EDGE('',*,*,#501,.T.);
#635=ORIENTED_EDGE('',*,*,#481,.T.);
#636=ORIENTED_EDGE('',*,*,#502,.T.);
#637=ORIENTED_EDGE('',*,*,#480,.T.);
#638=ORIENTED_EDGE('',*,*,#503,.T.);
#639=ORIENTED_EDGE('',*,*,#484,.T.);
#640=ORIENTED_EDGE('',*,*,#504,.T.);
#641=ORIENTED_EDGE('',*,*,#505,.T.);
#642=ORIENTED_EDGE('',*,*,#506,.T.);
#643=ORIENTED_EDGE('',*,*,#482,.T.);
#644=ORIENTED_EDGE('',*,*,#507,.T.);
#645=ORIENTED_EDGE('',*,*,#508,.T.);
#646=ORIENTED_EDGE('',*,*,#509,.T.);
#647=ORIENTED_EDGE('',*,*,#479,.T.);
#648=ORIENTED_EDGE('',*,*,#510,.T.);
#649=ORIENTED_EDGE('',*,*,#497,.F.);
#650=ORIENTED_EDGE('',*,*,#493,.F.);
#651=ORIENTED_EDGE('',*,*,#506,.F.);
#652=ORIENTED_EDGE('',*,*,#511,.T.);
#653=ORIENTED_EDGE('',*,*,#507,.F.);
#654=ORIENTED_EDGE('',*,*,#503,.F.);
#655=ORIENTED_EDGE('',*,*,#509,.F.);
#656=ORIENTED_EDGE('',*,*,#512,.T.);
#657=ORIENTED_EDGE('',*,*,#513,.T.);
#658=ORIENTED_EDGE('',*,*,#514,.F.);
#659=ORIENTED_EDGE('',*,*,#515,.T.);
#660=ORIENTED_EDGE('',*,*,#516,.T.);
#661=ORIENTED_EDGE('',*,*,#517,.T.);
#662=ORIENTED_EDGE('',*,*,#518,.T.);
#663=ORIENTED_EDGE('',*,*,#519,.T.);
#664=ORIENTED_EDGE('',*,*,#520,.T.);
#665=ORIENTED_EDGE('',*,*,#492,.F.);
#666=ORIENTED_EDGE('',*,*,#502,.F.);
#667=ORIENTED_EDGE('',*,*,#504,.F.);
#668=ORIENTED_EDGE('',*,*,#494,.F.);
#669=ORIENTED_EDGE('',*,*,#521,.T.);
#670=ORIENTED_EDGE('',*,*,#522,.T.);
#671=ORIENTED_EDGE('',*,*,#523,.T.);
#672=ORIENTED_EDGE('',*,*,#524,.F.);
#673=ORIENTED_EDGE('',*,*,#525,.T.);
#674=ORIENTED_EDGE('',*,*,#526,.F.);
#675=ORIENTED_EDGE('',*,*,#527,.T.);
#676=ORIENTED_EDGE('',*,*,#528,.F.);
#677=ORIENTED_EDGE('',*,*,#529,.T.);
#678=ORIENTED_EDGE('',*,*,#530,.F.);
#679=ORIENTED_EDGE('',*,*,#528,.T.);
#680=ORIENTED_EDGE('',*,*,#531,.T.);
#681=ORIENTED_EDGE('',*,*,#532,.T.);
#682=ORIENTED_EDGE('',*,*,#533,.T.);
#683=ORIENTED_EDGE('',*,*,#531,.F.);
#684=ORIENTED_EDGE('',*,*,#527,.F.);
#685=ORIENTED_EDGE('',*,*,#534,.F.);
#686=ORIENTED_EDGE('',*,*,#535,.F.);
#687=ORIENTED_EDGE('',*,*,#530,.T.);
#688=ORIENTED_EDGE('',*,*,#536,.T.);
#689=ORIENTED_EDGE('',*,*,#537,.T.);
#690=ORIENTED_EDGE('',*,*,#538,.T.);
#691=ORIENTED_EDGE('',*,*,#533,.F.);
#692=ORIENTED_EDGE('',*,*,#539,.F.);
#693=ORIENTED_EDGE('',*,*,#536,.F.);
#694=ORIENTED_EDGE('',*,*,#529,.F.);
#695=ORIENTED_EDGE('',*,*,#524,.T.);
#696=ORIENTED_EDGE('',*,*,#540,.T.);
#697=ORIENTED_EDGE('',*,*,#541,.T.);
#698=ORIENTED_EDGE('',*,*,#542,.T.);
#699=ORIENTED_EDGE('',*,*,#538,.F.);
#700=ORIENTED_EDGE('',*,*,#543,.F.);
#701=ORIENTED_EDGE('',*,*,#540,.F.);
#702=ORIENTED_EDGE('',*,*,#523,.F.);
#703=ORIENTED_EDGE('',*,*,#526,.T.);
#704=ORIENTED_EDGE('',*,*,#544,.T.);
#705=ORIENTED_EDGE('',*,*,#545,.T.);
#706=ORIENTED_EDGE('',*,*,#534,.T.);
#707=ORIENTED_EDGE('',*,*,#542,.F.);
#708=ORIENTED_EDGE('',*,*,#546,.F.);
#709=ORIENTED_EDGE('',*,*,#544,.F.);
#710=ORIENTED_EDGE('',*,*,#525,.F.);
#711=ORIENTED_EDGE('',*,*,#522,.F.);
#712=ORIENTED_EDGE('',*,*,#547,.T.);
#713=ORIENTED_EDGE('',*,*,#548,.F.);
#714=ORIENTED_EDGE('',*,*,#547,.F.);
#715=ORIENTED_EDGE('',*,*,#521,.F.);
#716=ORIENTED_EDGE('',*,*,#549,.T.);
#717=ORIENTED_EDGE('',*,*,#550,.F.);
#718=ORIENTED_EDGE('',*,*,#549,.F.);
#719=ORIENTED_EDGE('',*,*,#495,.F.);
#720=ORIENTED_EDGE('',*,*,#511,.F.);
#721=ORIENTED_EDGE('',*,*,#505,.F.);
#722=ORIENTED_EDGE('',*,*,#516,.F.);
#723=ORIENTED_EDGE('',*,*,#551,.T.);
#724=ORIENTED_EDGE('',*,*,#552,.F.);
#725=ORIENTED_EDGE('',*,*,#553,.F.);
#726=ORIENTED_EDGE('',*,*,#554,.F.);
#727=ORIENTED_EDGE('',*,*,#555,.T.);
#728=ORIENTED_EDGE('',*,*,#556,.F.);
#729=ORIENTED_EDGE('',*,*,#557,.F.);
#730=ORIENTED_EDGE('',*,*,#555,.F.);
#731=ORIENTED_EDGE('',*,*,#558,.F.);
#732=ORIENTED_EDGE('',*,*,#559,.F.);
#733=ORIENTED_EDGE('',*,*,#560,.F.);
#734=ORIENTED_EDGE('',*,*,#551,.F.);
#735=ORIENTED_EDGE('',*,*,#515,.F.);
#736=ORIENTED_EDGE('',*,*,#561,.F.);
#737=ORIENTED_EDGE('',*,*,#562,.F.);
#738=ORIENTED_EDGE('',*,*,#563,.F.);
#739=ORIENTED_EDGE('',*,*,#513,.F.);
#740=ORIENTED_EDGE('',*,*,#564,.T.);
#741=ORIENTED_EDGE('',*,*,#565,.F.);
#742=ORIENTED_EDGE('',*,*,#566,.F.);
#743=ORIENTED_EDGE('',*,*,#567,.F.);
#744=ORIENTED_EDGE('',*,*,#568,.T.);
#745=ORIENTED_EDGE('',*,*,#498,.F.);
#746=ORIENTED_EDGE('',*,*,#569,.F.);
#747=ORIENTED_EDGE('',*,*,#568,.F.);
#748=ORIENTED_EDGE('',*,*,#570,.F.);
#749=ORIENTED_EDGE('',*,*,#571,.F.);
#750=ORIENTED_EDGE('',*,*,#572,.F.);
#751=ORIENTED_EDGE('',*,*,#564,.F.);
#752=ORIENTED_EDGE('',*,*,#512,.F.);
#753=ORIENTED_EDGE('',*,*,#508,.F.);
#754=ORIENTED_EDGE('',*,*,#573,.F.);
#755=ORIENTED_EDGE('',*,*,#574,.F.);
#756=ORIENTED_EDGE('',*,*,#575,.F.);
#757=ORIENTED_EDGE('',*,*,#519,.F.);
#758=ORIENTED_EDGE('',*,*,#576,.T.);
#759=ORIENTED_EDGE('',*,*,#577,.F.);
#760=ORIENTED_EDGE('',*,*,#578,.T.);
#761=ORIENTED_EDGE('',*,*,#579,.F.);
#762=ORIENTED_EDGE('',*,*,#580,.F.);
#763=ORIENTED_EDGE('',*,*,#581,.F.);
#764=ORIENTED_EDGE('',*,*,#582,.F.);
#765=ORIENTED_EDGE('',*,*,#520,.F.);
#766=ORIENTED_EDGE('',*,*,#575,.T.);
#767=ORIENTED_EDGE('',*,*,#583,.F.);
#768=ORIENTED_EDGE('',*,*,#580,.T.);
#769=ORIENTED_EDGE('',*,*,#584,.F.);
#770=ORIENTED_EDGE('',*,*,#585,.F.);
#771=ORIENTED_EDGE('',*,*,#586,.F.);
#772=ORIENTED_EDGE('',*,*,#576,.F.);
#773=ORIENTED_EDGE('',*,*,#518,.F.);
#774=ORIENTED_EDGE('',*,*,#587,.T.);
#775=ORIENTED_EDGE('',*,*,#588,.F.);
#776=ORIENTED_EDGE('',*,*,#587,.F.);
#777=ORIENTED_EDGE('',*,*,#517,.F.);
#778=ORIENTED_EDGE('',*,*,#582,.T.);
#779=ORIENTED_EDGE('',*,*,#589,.F.);
#780=ORIENTED_EDGE('',*,*,#585,.T.);
#781=ORIENTED_EDGE('',*,*,#590,.F.);
#782=ORIENTED_EDGE('',*,*,#591,.F.);
#783=ORIENTED_EDGE('',*,*,#592,.F.);
#784=ORIENTED_EDGE('',*,*,#591,.T.);
#785=ORIENTED_EDGE('',*,*,#593,.F.);
#786=ORIENTED_EDGE('',*,*,#578,.F.);
#787=ORIENTED_EDGE('',*,*,#499,.F.);
#788=ORIENTED_EDGE('',*,*,#573,.T.);
#789=ORIENTED_EDGE('',*,*,#510,.F.);
#790=ORIENTED_EDGE('',*,*,#501,.F.);
#791=ORIENTED_EDGE('',*,*,#559,.T.);
#792=ORIENTED_EDGE('',*,*,#594,.T.);
#793=ORIENTED_EDGE('',*,*,#566,.T.);
#794=ORIENTED_EDGE('',*,*,#595,.T.);
#795=ORIENTED_EDGE('',*,*,#558,.T.);
#796=ORIENTED_EDGE('',*,*,#554,.T.);
#797=ORIENTED_EDGE('',*,*,#596,.F.);
#798=ORIENTED_EDGE('',*,*,#597,.F.);
#799=ORIENTED_EDGE('',*,*,#598,.T.);
#800=ORIENTED_EDGE('',*,*,#570,.T.);
#801=ORIENTED_EDGE('',*,*,#567,.T.);
#802=ORIENTED_EDGE('',*,*,#594,.F.);
#803=ORIENTED_EDGE('',*,*,#589,.T.);
#804=ORIENTED_EDGE('',*,*,#592,.T.);
#805=ORIENTED_EDGE('',*,*,#577,.T.);
#806=ORIENTED_EDGE('',*,*,#583,.T.);
#807=ORIENTED_EDGE('',*,*,#496,.F.);
#808=ORIENTED_EDGE('',*,*,#556,.T.);
#809=ORIENTED_EDGE('',*,*,#557,.T.);
#810=ORIENTED_EDGE('',*,*,#595,.F.);
#811=ORIENTED_EDGE('',*,*,#565,.T.);
#812=ORIENTED_EDGE('',*,*,#569,.T.);
#813=ORIENTED_EDGE('',*,*,#500,.F.);
#814=ORIENTED_EDGE('',*,*,#491,.F.);
#815=ORIENTED_EDGE('',*,*,#590,.T.);
#816=ORIENTED_EDGE('',*,*,#584,.T.);
#817=ORIENTED_EDGE('',*,*,#579,.T.);
#818=ORIENTED_EDGE('',*,*,#593,.T.);
#819=ORIENTED_EDGE('',*,*,#571,.T.);
#820=ORIENTED_EDGE('',*,*,#598,.F.);
#821=ORIENTED_EDGE('',*,*,#599,.F.);
#822=ORIENTED_EDGE('',*,*,#600,.T.);
#823=ORIENTED_EDGE('',*,*,#553,.T.);
#824=ORIENTED_EDGE('',*,*,#601,.F.);
#825=ORIENTED_EDGE('',*,*,#602,.F.);
#826=ORIENTED_EDGE('',*,*,#596,.T.);
#827=ORIENTED_EDGE('',*,*,#560,.T.);
#828=ORIENTED_EDGE('',*,*,#603,.F.);
#829=ORIENTED_EDGE('',*,*,#562,.T.);
#830=ORIENTED_EDGE('',*,*,#572,.T.);
#831=ORIENTED_EDGE('',*,*,#600,.F.);
#832=ORIENTED_EDGE('',*,*,#604,.F.);
#833=ORIENTED_EDGE('',*,*,#601,.T.);
#834=ORIENTED_EDGE('',*,*,#552,.T.);
#835=ORIENTED_EDGE('',*,*,#588,.T.);
#836=ORIENTED_EDGE('',*,*,#581,.T.);
#837=ORIENTED_EDGE('',*,*,#574,.T.);
#838=ORIENTED_EDGE('',*,*,#586,.T.);
#839=ORIENTED_EDGE('',*,*,#561,.T.);
#840=ORIENTED_EDGE('',*,*,#514,.T.);
#841=ORIENTED_EDGE('',*,*,#563,.T.);
#842=ORIENTED_EDGE('',*,*,#603,.T.);
#843=ORIENTED_EDGE('',*,*,#599,.T.);
#844=ORIENTED_EDGE('',*,*,#597,.T.);
#845=ORIENTED_EDGE('',*,*,#602,.T.);
#846=ORIENTED_EDGE('',*,*,#604,.T.);
#847=ORIENTED_EDGE('',*,*,#543,.T.);
#848=ORIENTED_EDGE('',*,*,#537,.F.);
#849=ORIENTED_EDGE('',*,*,#539,.T.);
#850=ORIENTED_EDGE('',*,*,#532,.F.);
#851=ORIENTED_EDGE('',*,*,#535,.T.);
#852=ORIENTED_EDGE('',*,*,#545,.F.);
#853=ORIENTED_EDGE('',*,*,#546,.T.);
#854=ORIENTED_EDGE('',*,*,#541,.F.);
#855=ORIENTED_EDGE('',*,*,#548,.T.);
#856=ORIENTED_EDGE('',*,*,#550,.T.);
#857=SPHERICAL_SURFACE('',#923,2.);
#858=SPHERICAL_SURFACE('',#927,2.);
#859=SPHERICAL_SURFACE('',#931,2.);
#860=SPHERICAL_SURFACE('',#935,2.);
#861=ADVANCED_FACE('',(#265),#857,.T.);
#862=ADVANCED_FACE('',(#266),#858,.T.);
#863=ADVANCED_FACE('',(#267),#859,.T.);
#864=ADVANCED_FACE('',(#268),#860,.T.);
#865=ADVANCED_FACE('',(#269),#251,.T.);
#866=ADVANCED_FACE('',(#270),#252,.T.);
#867=ADVANCED_FACE('',(#271),#253,.T.);
#868=ADVANCED_FACE('',(#272),#254,.T.);
#869=ADVANCED_FACE('',(#273),#255,.T.);
#870=ADVANCED_FACE('',(#274),#256,.T.);
#871=ADVANCED_FACE('',(#275),#257,.T.);
#872=ADVANCED_FACE('',(#276),#258,.T.);
#873=ADVANCED_FACE('',(#277),#25,.T.);
#874=ADVANCED_FACE('',(#278,#15),#26,.T.);
#875=ADVANCED_FACE('',(#279,#16,#17,#18),#27,.F.);
#876=ADVANCED_FACE('',(#280),#259,.F.);
#877=ADVANCED_FACE('',(#281),#28,.F.);
#878=ADVANCED_FACE('',(#282),#260,.F.);
#879=ADVANCED_FACE('',(#283),#29,.F.);
#880=ADVANCED_FACE('',(#284),#261,.F.);
#881=ADVANCED_FACE('',(#285),#30,.F.);
#882=ADVANCED_FACE('',(#286),#262,.F.);
#883=ADVANCED_FACE('',(#287),#31,.F.);
#884=ADVANCED_FACE('',(#288),#263,.F.);
#885=ADVANCED_FACE('',(#289),#264,.F.);
#886=ADVANCED_FACE('',(#290),#32,.F.);
#887=ADVANCED_FACE('',(#291),#33,.F.);
#888=ADVANCED_FACE('',(#292),#34,.F.);
#889=ADVANCED_FACE('',(#293),#35,.F.);
#890=ADVANCED_FACE('',(#294),#36,.F.);
#891=ADVANCED_FACE('',(#295),#37,.F.);
#892=ADVANCED_FACE('',(#296),#38,.F.);
#893=ADVANCED_FACE('',(#297),#39,.F.);
#894=ADVANCED_FACE('',(#298),#40,.F.);
#895=ADVANCED_FACE('',(#299),#41,.F.);
#896=ADVANCED_FACE('',(#300),#42,.F.);
#897=ADVANCED_FACE('',(#301),#43,.F.);
#898=ADVANCED_FACE('',(#302),#44,.F.);
#899=ADVANCED_FACE('',(#303),#45,.F.);
#900=ADVANCED_FACE('',(#304),#46,.T.);
#901=ADVANCED_FACE('',(#305),#47,.T.);
#902=ADVANCED_FACE('',(#306,#19),#48,.T.);
#903=ADVANCED_FACE('',(#307,#20),#49,.T.);
#904=ADVANCED_FACE('',(#308),#50,.T.);
#905=ADVANCED_FACE('',(#309),#51,.T.);
#906=ADVANCED_FACE('',(#310,#21),#52,.T.);
#907=ADVANCED_FACE('',(#311),#53,.T.);
#908=ADVANCED_FACE('',(#312,#22,#23,#24),#54,.T.);
#909=CLOSED_SHELL('',(#861,#862,#863,#864,#865,#866,#867,#868,#869,#870,
#871,#872,#873,#874,#875,#876,#877,#878,#879,#880,#881,#882,#883,#884,#885,
#886,#887,#888,#889,#890,#891,#892,#893,#894,#895,#896,#897,#898,#899,#900,
#901,#902,#903,#904,#905,#906,#907,#908));
#910=DERIVED_UNIT_ELEMENT(#912,1.);
#911=DERIVED_UNIT_ELEMENT(#1511,-3.);
#912=(
MASS_UNIT()
NAMED_UNIT(*)
SI_UNIT(.KILO.,.GRAM.)
);
#913=DERIVED_UNIT((#910,#911));
#914=MEASURE_REPRESENTATION_ITEM('density measure',
POSITIVE_RATIO_MEASURE(7850.),#913);
#915=PROPERTY_DEFINITION_REPRESENTATION(#920,#917);
#916=PROPERTY_DEFINITION_REPRESENTATION(#921,#918);
#917=REPRESENTATION('material name',(#919),#1508);
#918=REPRESENTATION('density',(#914),#1508);
#919=DESCRIPTIVE_REPRESENTATION_ITEM('Stahl','Stahl');
#920=PROPERTY_DEFINITION('material property','material name',#1518);
#921=PROPERTY_DEFINITION('material property','density of part',#1518);
#922=AXIS2_PLACEMENT_3D('',#1251,#999,#1000);
#923=AXIS2_PLACEMENT_3D('',#1252,#1001,#1002);
#924=AXIS2_PLACEMENT_3D('',#1255,#1003,#1004);
#925=AXIS2_PLACEMENT_3D('',#1257,#1005,#1006);
#926=AXIS2_PLACEMENT_3D('',#1258,#1007,#1008);
#927=AXIS2_PLACEMENT_3D('',#1259,#1009,#1010);
#928=AXIS2_PLACEMENT_3D('',#1262,#1011,#1012);
#929=AXIS2_PLACEMENT_3D('',#1264,#1013,#1014);
#930=AXIS2_PLACEMENT_3D('',#1265,#1015,#1016);
#931=AXIS2_PLACEMENT_3D('',#1266,#1017,#1018);
#932=AXIS2_PLACEMENT_3D('',#1269,#1019,#1020);
#933=AXIS2_PLACEMENT_3D('',#1271,#1021,#1022);
#934=AXIS2_PLACEMENT_3D('',#1272,#1023,#1024);
#935=AXIS2_PLACEMENT_3D('',#1273,#1025,#1026);
#936=AXIS2_PLACEMENT_3D('',#1276,#1027,#1028);
#937=AXIS2_PLACEMENT_3D('',#1278,#1029,#1030);
#938=AXIS2_PLACEMENT_3D('',#1279,#1031,#1032);
#939=AXIS2_PLACEMENT_3D('',#1280,#1033,#1034);
#940=AXIS2_PLACEMENT_3D('',#1283,#1037,#1038);
#941=AXIS2_PLACEMENT_3D('',#1286,#1041,#1042);
#942=AXIS2_PLACEMENT_3D('',#1289,#1043,#1044);
#943=AXIS2_PLACEMENT_3D('',#1292,#1047,#1048);
#944=AXIS2_PLACEMENT_3D('',#1295,#1049,#1050);
#945=AXIS2_PLACEMENT_3D('',#1298,#1053,#1054);
#946=AXIS2_PLACEMENT_3D('',#1301,#1057,#1058);
#947=AXIS2_PLACEMENT_3D('',#1304,#1061,#1062);
#948=AXIS2_PLACEMENT_3D('',#1307,#1063,#1064);
#949=AXIS2_PLACEMENT_3D('',#1310,#1067,#1068);
#950=AXIS2_PLACEMENT_3D('',#1313,#1069,#1070);
#951=AXIS2_PLACEMENT_3D('',#1316,#1073,#1074);
#952=AXIS2_PLACEMENT_3D('',#1318,#1076,#1077);
#953=AXIS2_PLACEMENT_3D('',#1336,#1087,#1088);
#954=AXIS2_PLACEMENT_3D('',#1338,#1089,#1090);
#955=AXIS2_PLACEMENT_3D('',#1340,#1091,#1092);
#956=AXIS2_PLACEMENT_3D('',#1345,#1094,#1095);
#957=AXIS2_PLACEMENT_3D('',#1349,#1097,#1098);
#958=AXIS2_PLACEMENT_3D('',#1353,#1100,#1101);
#959=AXIS2_PLACEMENT_3D('',#1356,#1103,#1104);
#960=AXIS2_PLACEMENT_3D('',#1357,#1105,#1106);
#961=AXIS2_PLACEMENT_3D('',#1361,#1108,#1109);
#962=AXIS2_PLACEMENT_3D('',#1363,#1111,#1112);
#963=AXIS2_PLACEMENT_3D('',#1367,#1115,#1116);
#964=AXIS2_PLACEMENT_3D('',#1371,#1118,#1119);
#965=AXIS2_PLACEMENT_3D('',#1373,#1121,#1122);
#966=AXIS2_PLACEMENT_3D('',#1375,#1124,#1125);
#967=AXIS2_PLACEMENT_3D('',#1379,#1127,#1128);
#968=AXIS2_PLACEMENT_3D('',#1381,#1130,#1131);
#969=AXIS2_PLACEMENT_3D('',#1383,#1133,#1134);
#970=AXIS2_PLACEMENT_3D('',#1386,#1136,#1137);
#971=AXIS2_PLACEMENT_3D('',#1387,#1138,#1139);
#972=AXIS2_PLACEMENT_3D('',#1389,#1141,#1142);
#973=AXIS2_PLACEMENT_3D('',#1392,#1144,#1145);
#974=AXIS2_PLACEMENT_3D('',#1393,#1146,#1147);
#975=AXIS2_PLACEMENT_3D('',#1396,#1149,#1150);
#976=AXIS2_PLACEMENT_3D('',#1397,#1151,#1152);
#977=AXIS2_PLACEMENT_3D('',#1409,#1159,#1160);
#978=AXIS2_PLACEMENT_3D('',#1415,#1164,#1165);
#979=AXIS2_PLACEMENT_3D('',#1419,#1168,#1169);
#980=AXIS2_PLACEMENT_3D('',#1425,#1173,#1174);
#981=AXIS2_PLACEMENT_3D('',#1434,#1179,#1180);
#982=AXIS2_PLACEMENT_3D('',#1442,#1186,#1187);
#983=AXIS2_PLACEMENT_3D('',#1448,#1191,#1192);
#984=AXIS2_PLACEMENT_3D('',#1457,#1197,#1198);
#985=AXIS2_PLACEMENT_3D('',#1461,#1201,#1202);
#986=AXIS2_PLACEMENT_3D('',#1467,#1206,#1207);
#987=AXIS2_PLACEMENT_3D('',#1471,#1210,#1211);
#988=AXIS2_PLACEMENT_3D('',#1473,#1213,#1214);
#989=AXIS2_PLACEMENT_3D('',#1479,#1218,#1219);
#990=AXIS2_PLACEMENT_3D('',#1482,#1222,#1223);
#991=AXIS2_PLACEMENT_3D('',#1483,#1224,#1225);
#992=AXIS2_PLACEMENT_3D('',#1486,#1228,#1229);
#993=AXIS2_PLACEMENT_3D('',#1492,#1233,#1234);
#994=AXIS2_PLACEMENT_3D('',#1493,#1235,#1236);
#995=AXIS2_PLACEMENT_3D('',#1497,#1239,#1240);
#996=AXIS2_PLACEMENT_3D('',#1501,#1243,#1244);
#997=AXIS2_PLACEMENT_3D('',#1504,#1247,#1248);
#998=AXIS2_PLACEMENT_3D('',#1505,#1249,#1250);
#999=DIRECTION('axis',(0.,0.,1.));
#1000=DIRECTION('refdir',(1.,0.,0.));
#1001=DIRECTION('center_axis',(-0.408248290463863,-0.40824829046386,-0.816496580927727));
#1002=DIRECTION('ref_axis',(0.577350269189626,0.577350269189626,-0.577350269189625));
#1003=DIRECTION('center_axis',(0.,0.,-1.));
#1004=DIRECTION('ref_axis',(1.,0.,0.));
#1005=DIRECTION('center_axis',(0.,1.,0.));
#1006=DIRECTION('ref_axis',(0.,0.,-1.));
#1007=DIRECTION('center_axis',(1.,0.,-2.22044604925031E-15));
#1008=DIRECTION('ref_axis',(0.,1.,0.));
#1009=DIRECTION('center_axis',(-0.408248290463863,0.408248290463861,-0.816496580927727));
#1010=DIRECTION('ref_axis',(0.577350269189627,-0.577350269189625,-0.577350269189626));
#1011=DIRECTION('center_axis',(0.,0.,-1.));
#1012=DIRECTION('ref_axis',(0.,-1.,0.));
#1013=DIRECTION('center_axis',(1.,2.22044604925031E-15,0.));
#1014=DIRECTION('ref_axis',(0.,0.,-1.));
#1015=DIRECTION('center_axis',(0.,-1.,0.));
#1016=DIRECTION('ref_axis',(1.,0.,0.));
#1017=DIRECTION('center_axis',(-0.816496580927726,-0.408248290463863,0.408248290463863));
#1018=DIRECTION('ref_axis',(-0.577350269189626,0.577350269189626,-0.577350269189626));
#1019=DIRECTION('center_axis',(-1.,0.,0.));
#1020=DIRECTION('ref_axis',(0.,0.,-1.));
#1021=DIRECTION('center_axis',(0.,1.,0.));
#1022=DIRECTION('ref_axis',(-1.,0.,0.));
#1023=DIRECTION('center_axis',(0.,0.,-1.));
#1024=DIRECTION('ref_axis',(-1.38777878078144E-16,1.,0.));
#1025=DIRECTION('center_axis',(-0.816496580927727,0.408248290463863,0.408248290463862));
#1026=DIRECTION('ref_axis',(-0.577350269189625,-0.577350269189627,-0.577350269189625));
#1027=DIRECTION('center_axis',(0.,0.,-1.));
#1028=DIRECTION('ref_axis',(-1.,-1.38777878078145E-16,0.));
#1029=DIRECTION('center_axis',(2.22044604925031E-15,-1.,0.));
#1030=DIRECTION('ref_axis',(0.,0.,-1.));
#1031=DIRECTION('center_axis',(-1.,0.,-5.55111512312578E-16));
#1032=DIRECTION('ref_axis',(0.,-1.,0.));
#1033=DIRECTION('center_axis',(7.49387970515054E-17,-1.,0.));
#1034=DIRECTION('ref_axis',(-0.707106781186548,0.,-0.707106781186547));
#1035=DIRECTION('',(-7.49387970515054E-17,1.,0.));
#1036=DIRECTION('',(7.49387970515054E-17,-1.,0.));
#1037=DIRECTION('center_axis',(1.,0.,0.));
#1038=DIRECTION('ref_axis',(0.,-0.707106781186547,-0.707106781186548));
#1039=DIRECTION('',(-1.,0.,0.));
#1040=DIRECTION('',(1.,0.,0.));
#1041=DIRECTION('center_axis',(0.,0.,1.));
#1042=DIRECTION('ref_axis',(-0.707106781186548,-0.707106781186547,0.));
#1043=DIRECTION('center_axis',(0.,0.,-1.));
#1044=DIRECTION('ref_axis',(-0.707106781186548,-0.707106781186547,0.));
#1045=DIRECTION('',(0.,0.,-1.));
#1046=DIRECTION('',(0.,0.,1.));
#1047=DIRECTION('center_axis',(0.,0.,1.));
#1048=DIRECTION('ref_axis',(-0.707106781186547,0.707106781186548,0.));
#1049=DIRECTION('center_axis',(0.,0.,-1.));
#1050=DIRECTION('ref_axis',(-0.707106781186547,0.707106781186548,0.));
#1051=DIRECTION('',(0.,0.,-1.));
#1052=DIRECTION('',(0.,0.,1.));
#1053=DIRECTION('center_axis',(-1.,-1.2335811384724E-16,0.));
#1054=DIRECTION('ref_axis',(0.,0.707106781186548,-0.707106781186547));
#1055=DIRECTION('',(1.,1.2335811384724E-16,0.));
#1056=DIRECTION('',(-1.,-1.2335811384724E-16,0.));
#1057=DIRECTION('center_axis',(0.,1.,0.));
#1058=DIRECTION('ref_axis',(0.707106781186549,0.,-0.707106781186546));
#1059=DIRECTION('',(0.,-1.,0.));
#1060=DIRECTION('',(0.,1.,0.));
#1061=DIRECTION('center_axis',(0.,0.,1.));
#1062=DIRECTION('ref_axis',(0.707106781186548,-0.707106781186547,0.));
#1063=DIRECTION('center_axis',(0.,0.,-1.));
#1064=DIRECTION('ref_axis',(0.707106781186548,-0.707106781186547,0.));
#1065=DIRECTION('',(0.,0.,-1.));
#1066=DIRECTION('',(0.,0.,1.));
#1067=DIRECTION('center_axis',(0.,0.,1.));
#1068=DIRECTION('ref_axis',(0.707106781186548,0.707106781186548,0.));
#1069=DIRECTION('center_axis',(0.,0.,-1.));
#1070=DIRECTION('ref_axis',(0.707106781186548,0.707106781186548,0.));
#1071=DIRECTION('',(0.,0.,-1.));
#1072=DIRECTION('',(0.,0.,1.));
#1073=DIRECTION('center_axis',(0.,-1.,0.));
#1074=DIRECTION('ref_axis',(1.,0.,0.));
#1075=DIRECTION('',(-1.,0.,0.));
#1076=DIRECTION('center_axis',(1.,0.,0.));
#1077=DIRECTION('ref_axis',(0.,1.,0.));
#1078=DIRECTION('',(0.,-1.,0.));
#1079=DIRECTION('',(0.,-0.707106781186549,0.707106781186546));
#1080=DIRECTION('',(0.,1.,0.));
#1081=DIRECTION('',(0.,-0.707106781186544,-0.707106781186551));
#1082=DIRECTION('',(0.,-1.,0.));
#1083=DIRECTION('',(0.,0.,-1.));
#1084=DIRECTION('',(0.,-1.,0.));
#1085=DIRECTION('',(0.,-1.11022302462516E-15,1.));
#1086=DIRECTION('',(0.,1.,0.));
#1087=DIRECTION('center_axis',(0.,0.,1.));
#1088=DIRECTION('ref_axis',(1.,0.,0.));
#1089=DIRECTION('center_axis',(0.,0.,1.));
#1090=DIRECTION('ref_axis',(1.,0.,0.));
#1091=DIRECTION('center_axis',(0.,0.,1.));
#1092=DIRECTION('ref_axis',(1.,0.,0.));
#1093=DIRECTION('',(-0.10805918076842,-0.994144463069456,0.));
#1094=DIRECTION('center_axis',(0.,0.,-1.));
#1095=DIRECTION('ref_axis',(-0.744331640053149,-0.667810159862658,0.));
#1096=DIRECTION('',(1.,5.55111512312578E-17,0.));
#1097=DIRECTION('center_axis',(0.,0.,-1.));
#1098=DIRECTION('ref_axis',(0.744331640053149,-0.667810159862659,0.));
#1099=DIRECTION('',(-0.108059180768418,0.994144463069457,0.));
#1100=DIRECTION('center_axis',(0.,0.,-1.));
#1101=DIRECTION('ref_axis',(0.667810159862661,0.744331640053147,0.));
#1102=DIRECTION('',(-1.,0.,0.));
#1103=DIRECTION('center_axis',(0.,0.,-1.));
#1104=DIRECTION('ref_axis',(-0.667810159862659,0.744331640053149,0.));
#1105=DIRECTION('center_axis',(0.,0.,1.));
#1106=DIRECTION('ref_axis',(0.667810159862661,0.744331640053147,0.));
#1107=DIRECTION('',(0.,0.,1.));
#1108=DIRECTION('center_axis',(0.,0.,1.));
#1109=DIRECTION('ref_axis',(0.667810159862661,0.744331640053147,0.));
#1110=DIRECTION('',(0.,0.,-1.));
#1111=DIRECTION('center_axis',(0.994144463069457,0.108059180768418,0.));
#1112=DIRECTION('ref_axis',(-0.108059180768418,0.994144463069457,0.));
#1113=DIRECTION('',(0.,0.,-1.));
#1114=DIRECTION('',(0.108059180768418,-0.994144463069457,0.));
#1115=DIRECTION('center_axis',(0.,0.,1.));
#1116=DIRECTION('ref_axis',(-0.667810159862659,0.744331640053149,0.));
#1117=DIRECTION('',(0.,0.,1.));
#1118=DIRECTION('center_axis',(0.,0.,1.));
#1119=DIRECTION('ref_axis',(-0.667810159862659,0.744331640053149,0.));
#1120=DIRECTION('',(0.,0.,-1.));
#1121=DIRECTION('center_axis',(0.,1.,0.));
#1122=DIRECTION('ref_axis',(-1.,0.,0.));
#1123=DIRECTION('',(1.,0.,0.));
#1124=DIRECTION('center_axis',(0.,0.,1.));
#1125=DIRECTION('ref_axis',(-0.744331640053149,-0.667810159862658,0.));
#1126=DIRECTION('',(0.,0.,1.));
#1127=DIRECTION('center_axis',(0.,0.,1.));
#1128=DIRECTION('ref_axis',(-0.744331640053149,-0.667810159862658,0.));
#1129=DIRECTION('',(0.,0.,-1.));
#1130=DIRECTION('center_axis',(-0.994144463069456,0.10805918076842,0.));
#1131=DIRECTION('ref_axis',(-0.10805918076842,-0.994144463069456,0.));
#1132=DIRECTION('',(0.10805918076842,0.994144463069456,0.));
#1133=DIRECTION('center_axis',(0.,0.,1.));
#1134=DIRECTION('ref_axis',(0.744331640053149,-0.667810159862659,0.));
#1135=DIRECTION('',(0.,0.,1.));
#1136=DIRECTION('center_axis',(0.,0.,1.));
#1137=DIRECTION('ref_axis',(0.744331640053149,-0.667810159862659,0.));
#1138=DIRECTION('center_axis',(5.55111512312578E-17,-1.,0.));
#1139=DIRECTION('ref_axis',(1.,5.55111512312578E-17,0.));
#1140=DIRECTION('',(-1.,-5.55111512312578E-17,0.));
#1141=DIRECTION('center_axis',(0.,0.,1.));
#1142=DIRECTION('ref_axis',(1.,0.,0.));
#1143=DIRECTION('',(0.,0.,1.));
#1144=DIRECTION('center_axis',(0.,0.,-1.));
#1145=DIRECTION('ref_axis',(1.,0.,0.));
#1146=DIRECTION('center_axis',(0.,0.,1.));
#1147=DIRECTION('ref_axis',(1.,0.,0.));
#1148=DIRECTION('',(0.,0.,1.));
#1149=DIRECTION('center_axis',(0.,0.,-1.));
#1150=DIRECTION('ref_axis',(1.,0.,0.));
#1151=DIRECTION('center_axis',(0.,0.,-1.));
#1152=DIRECTION('ref_axis',(0.,-1.,0.));
#1153=DIRECTION('',(-1.,0.,0.));
#1154=DIRECTION('',(0.,1.,0.));
#1155=DIRECTION('',(1.,0.,0.));
#1156=DIRECTION('',(8.67361737988404E-17,-1.,0.));
#1157=DIRECTION('',(-1.,0.,0.));
#1158=DIRECTION('',(-7.49387970515054E-17,1.,0.));
#1159=DIRECTION('center_axis',(0.,0.707106781186551,-0.707106781186544));
#1160=DIRECTION('ref_axis',(0.,-0.707106781186544,-0.707106781186551));
#1161=DIRECTION('',(-5.29897315690817E-17,0.707106781186544,0.707106781186551));
#1162=DIRECTION('',(6.13317366673347E-17,-0.707106781186544,-0.707106781186551));
#1163=DIRECTION('',(1.,0.,0.));
#1164=DIRECTION('center_axis',(0.,0.707106781186551,-0.707106781186544));
#1165=DIRECTION('ref_axis',(0.,-0.707106781186544,-0.707106781186551));
#1166=DIRECTION('',(0.,0.707106781186544,0.707106781186551));
#1167=DIRECTION('',(1.,0.,0.));
#1168=DIRECTION('center_axis',(0.,-0.707106781186546,-0.707106781186549));
#1169=DIRECTION('ref_axis',(0.,-0.707106781186549,0.707106781186546));
#1170=DIRECTION('',(0.,0.707106781186549,-0.707106781186546));
#1171=DIRECTION('',(-1.,0.,0.));
#1172=DIRECTION('',(-1.,0.,0.));
#1173=DIRECTION('center_axis',(0.,-0.707106781186546,-0.707106781186549));
#1174=DIRECTION('ref_axis',(0.,-0.707106781186549,0.707106781186546));
#1175=DIRECTION('',(-5.2989731569082E-17,0.707106781186549,-0.707106781186546));
#1176=DIRECTION('',(-1.,0.,0.));
#1177=DIRECTION('',(6.13317366673351E-17,-0.707106781186549,0.707106781186546));
#1178=DIRECTION('',(-1.,0.,0.));
#1179=DIRECTION('center_axis',(0.,0.,-1.));
#1180=DIRECTION('ref_axis',(0.,-1.,0.));
#1181=DIRECTION('',(-7.49387970515054E-17,1.,0.));
#1182=DIRECTION('',(8.67361737988404E-17,-1.,0.));
#1183=DIRECTION('',(-1.,0.,0.));
#1184=DIRECTION('',(0.,1.,0.));
#1185=DIRECTION('',(1.,1.2335811384724E-16,0.));
#1186=DIRECTION('center_axis',(0.,-1.,-1.11022302462516E-15));
#1187=DIRECTION('ref_axis',(0.,-1.11022302462516E-15,1.));
#1188=DIRECTION('',(0.,1.11022302462516E-15,-1.));
#1189=DIRECTION('',(-1.,0.,0.));
#1190=DIRECTION('',(-1.,0.,0.));
#1191=DIRECTION('center_axis',(0.,-1.,-1.11022302462516E-15));
#1192=DIRECTION('ref_axis',(0.,-1.11022302462516E-15,1.));
#1193=DIRECTION('',(9.62964972193618E-32,-1.11022302462516E-15,1.));
#1194=DIRECTION('',(-1.,0.,0.));
#1195=DIRECTION('',(-8.3198777924293E-32,1.11022302462516E-15,-1.));
#1196=DIRECTION('',(-1.,0.,0.));
#1197=DIRECTION('center_axis',(0.,0.,1.));
#1198=DIRECTION('ref_axis',(0.,1.,0.));
#1199=DIRECTION('',(0.,-1.,0.));
#1200=DIRECTION('',(-1.,0.,0.));
#1201=DIRECTION('center_axis',(0.,0.,1.));
#1202=DIRECTION('ref_axis',(0.,1.,0.));
#1203=DIRECTION('',(-8.67361737988404E-17,1.,0.));
#1204=DIRECTION('',(7.49387970515054E-17,-1.,0.));
#1205=DIRECTION('',(-1.,0.,0.));
#1206=DIRECTION('center_axis',(0.,0.,-1.));
#1207=DIRECTION('ref_axis',(0.,-1.,0.));
#1208=DIRECTION('',(0.,1.,0.));
#1209=DIRECTION('',(-1.,0.,0.));
#1210=DIRECTION('center_axis',(0.,1.,0.));
#1211=DIRECTION('ref_axis',(0.,0.,-1.));
#1212=DIRECTION('',(0.,0.,1.));
#1213=DIRECTION('center_axis',(0.,1.,0.));
#1214=DIRECTION('ref_axis',(0.,0.,-1.));
#1215=DIRECTION('',(0.,0.,-1.));
#1216=DIRECTION('',(0.,0.,1.));
#1217=DIRECTION('',(-1.,0.,0.));
#1218=DIRECTION('center_axis',(0.,0.,-1.));
#1219=DIRECTION('ref_axis',(0.,-1.,0.));
#1220=DIRECTION('',(8.67361737988404E-17,-1.,0.));
#1221=DIRECTION('',(-7.49387970515054E-17,1.,0.));
#1222=DIRECTION('center_axis',(-1.2335811384724E-16,1.,0.));
#1223=DIRECTION('ref_axis',(-1.,-1.2335811384724E-16,0.));
#1224=DIRECTION('center_axis',(0.,0.,1.));
#1225=DIRECTION('ref_axis',(1.,0.,0.));
#1226=DIRECTION('',(-8.67361737988404E-17,1.,0.));
#1227=DIRECTION('',(7.49387970515054E-17,-1.,0.));
#1228=DIRECTION('center_axis',(1.,8.67361737988404E-17,0.));
#1229=DIRECTION('ref_axis',(-8.67361737988404E-17,1.,0.));
#1230=DIRECTION('',(0.,0.,1.));
#1231=DIRECTION('',(8.67361737988404E-17,-1.,0.));
#1232=DIRECTION('',(0.,0.,1.));
#1233=DIRECTION('center_axis',(-1.,-7.49387970515054E-17,0.));
#1234=DIRECTION('ref_axis',(7.49387970515054E-17,-1.,0.));
#1235=DIRECTION('center_axis',(0.,-1.,0.));
#1236=DIRECTION('ref_axis',(1.,0.,0.));
#1237=DIRECTION('',(-1.,0.,0.));
#1238=DIRECTION('',(0.,0.,1.));
#1239=DIRECTION('center_axis',(0.,1.,0.));
#1240=DIRECTION('ref_axis',(-1.,0.,0.));
#1241=DIRECTION('',(0.,0.,1.));
#1242=DIRECTION('',(1.,0.,0.));
#1243=DIRECTION('center_axis',(-1.,0.,0.));
#1244=DIRECTION('ref_axis',(0.,-1.,0.));
#1245=DIRECTION('',(0.,-1.,0.));
#1246=DIRECTION('',(0.,1.,0.));
#1247=DIRECTION('center_axis',(0.,0.,1.));
#1248=DIRECTION('ref_axis',(1.,0.,0.));
#1249=DIRECTION('center_axis',(0.,0.,1.));
#1250=DIRECTION('ref_axis',(1.,0.,0.));
#1251=CARTESIAN_POINT('',(0.,0.,0.));
#1252=CARTESIAN_POINT('Origin',(34.,34.,2.));
#1253=CARTESIAN_POINT('',(36.,34.,2.));
#1254=CARTESIAN_POINT('',(34.,36.,2.));
#1255=CARTESIAN_POINT('Origin',(34.,34.,2.));
#1256=CARTESIAN_POINT('',(34.,34.,0.));
#1257=CARTESIAN_POINT('Origin',(34.,34.,2.));
#1258=CARTESIAN_POINT('Origin',(34.,34.,2.));
#1259=CARTESIAN_POINT('Origin',(34.,2.,2.));
#1260=CARTESIAN_POINT('',(34.,0.,2.));
#1261=CARTESIAN_POINT('',(36.,2.,2.));
#1262=CARTESIAN_POINT('Origin',(34.,2.,2.));
#1263=CARTESIAN_POINT('',(34.,2.,0.));
#1264=CARTESIAN_POINT('Origin',(34.,2.,2.));
#1265=CARTESIAN_POINT('Origin',(34.,2.,2.));
#1266=CARTESIAN_POINT('Origin',(2.,34.,2.));
#1267=CARTESIAN_POINT('',(2.,34.,0.));
#1268=CARTESIAN_POINT('',(2.,36.,2.));
#1269=CARTESIAN_POINT('Origin',(2.,34.,2.));
#1270=CARTESIAN_POINT('',(-2.4980018054066E-15,34.,2.));
#1271=CARTESIAN_POINT('Origin',(2.,34.,2.));
#1272=CARTESIAN_POINT('Origin',(2.,34.,2.));
#1273=CARTESIAN_POINT('Origin',(2.,2.,2.));
#1274=CARTESIAN_POINT('',(-3.46976122962679E-16,2.,2.));
#1275=CARTESIAN_POINT('',(2.,0.,2.));
#1276=CARTESIAN_POINT('Origin',(2.,2.,2.));
#1277=CARTESIAN_POINT('',(2.,2.,0.));
#1278=CARTESIAN_POINT('Origin',(2.,2.,2.));
#1279=CARTESIAN_POINT('Origin',(2.,2.,2.));
#1280=CARTESIAN_POINT('Origin',(2.,27.,2.));
#1281=CARTESIAN_POINT('',(-2.22044604925031E-15,27.,2.));
#1282=CARTESIAN_POINT('',(2.,27.,0.));
#1283=CARTESIAN_POINT('Origin',(9.,2.,2.));
#1284=CARTESIAN_POINT('',(9.,0.,2.));
#1285=CARTESIAN_POINT('',(9.,2.,0.));
#1286=CARTESIAN_POINT('Origin',(2.,2.,0.));
#1287=CARTESIAN_POINT('',(2.,0.,51.0000007599592));
#1288=CARTESIAN_POINT('',(-7.02935380482114E-16,2.,51.0000007599592));
#1289=CARTESIAN_POINT('Origin',(2.,2.,51.0000007599592));
#1290=CARTESIAN_POINT('',(-2.77555756156289E-16,2.,0.));
#1291=CARTESIAN_POINT('',(2.,0.,0.));
#1292=CARTESIAN_POINT('Origin',(2.,34.,0.));
#1293=CARTESIAN_POINT('',(-2.0705684551473E-15,34.,51.0000007599592));
#1294=CARTESIAN_POINT('',(2.,36.,51.0000007599592));
#1295=CARTESIAN_POINT('Origin',(2.,34.,51.0000007599592));
#1296=CARTESIAN_POINT('',(2.,36.,0.));
#1297=CARTESIAN_POINT('',(-2.4980018054066E-15,34.,0.));
#1298=CARTESIAN_POINT('Origin',(27.,34.,2.));
#1299=CARTESIAN_POINT('',(27.,36.,2.));
#1300=CARTESIAN_POINT('',(27.,34.,0.));
#1301=CARTESIAN_POINT('Origin',(34.,9.,2.));
#1302=CARTESIAN_POINT('',(36.,9.,2.));
#1303=CARTESIAN_POINT('',(34.,9.,0.));
#1304=CARTESIAN_POINT('Origin',(34.,2.,0.));
#1305=CARTESIAN_POINT('',(36.,2.,51.0000007599592));
#1306=CARTESIAN_POINT('',(34.,0.,51.0000007599592));
#1307=CARTESIAN_POINT('Origin',(34.,2.,51.0000007599592));
#1308=CARTESIAN_POINT('',(34.,0.,0.));
#1309=CARTESIAN_POINT('',(36.,2.,0.));
#1310=CARTESIAN_POINT('Origin',(34.,34.,0.));
#1311=CARTESIAN_POINT('',(34.,36.,51.0000007599592));
#1312=CARTESIAN_POINT('',(36.,34.,51.0000007599592));
#1313=CARTESIAN_POINT('Origin',(34.,34.,51.0000007599592));
#1314=CARTESIAN_POINT('',(36.,34.,0.));
#1315=CARTESIAN_POINT('',(34.,36.,0.));
#1316=CARTESIAN_POINT('Origin',(0.,0.,0.));
#1317=CARTESIAN_POINT('',(18.,0.,51.0000007599592));
#1318=CARTESIAN_POINT('Origin',(36.,0.,0.));
#1319=CARTESIAN_POINT('',(36.,27.4999992400408,51.0000007599592));
#1320=CARTESIAN_POINT('',(36.,18.,51.0000007599592));
#1321=CARTESIAN_POINT('',(36.,26.5,52.));
#1322=CARTESIAN_POINT('',(36.,33.3749996200204,45.1250003799797));
#1323=CARTESIAN_POINT('',(36.,9.49999999999999,52.));
#1324=CARTESIAN_POINT('',(36.,0.,52.));
#1325=CARTESIAN_POINT('',(36.,8.50000075995922,51.0000007599592));
#1326=CARTESIAN_POINT('',(36.,-5.87499999999998,36.6249999999999));
#1327=CARTESIAN_POINT('',(36.,4.25000037997961,51.0000007599592));
#1328=CARTESIAN_POINT('',(36.,21.2,49.6000007599592));
#1329=CARTESIAN_POINT('',(36.,21.2,47.6000007599592));
#1330=CARTESIAN_POINT('',(36.,21.2,24.8000003799796));
#1331=CARTESIAN_POINT('',(36.,14.8,47.6000007599592));
#1332=CARTESIAN_POINT('',(36.,10.6,47.6000007599592));
#1333=CARTESIAN_POINT('',(36.,14.8,49.6000007599592));
#1334=CARTESIAN_POINT('',(36.,14.8,23.8000003799796));
#1335=CARTESIAN_POINT('',(36.,7.4,49.6000007599592));
#1336=CARTESIAN_POINT('Origin',(18.,18.,0.));
#1337=CARTESIAN_POINT('',(28.9,9.16822121380326,0.));
#1338=CARTESIAN_POINT('Origin',(30.5,9.16822121380326,0.));
#1339=CARTESIAN_POINT('',(3.90000000000002,9.16822121380322,0.));
#1340=CARTESIAN_POINT('Origin',(5.50000000000002,9.16822121380322,0.));
#1341=CARTESIAN_POINT('',(9.05609982190621,13.1343395753401,0.));
#1342=CARTESIAN_POINT('',(8.24088243060185,5.63433957534005,0.));
#1343=CARTESIAN_POINT('',(9.46661819729692,16.9111086289346,0.));
#1344=CARTESIAN_POINT('',(10.2291713567408,3.41822121380321,0.));
#1345=CARTESIAN_POINT('Origin',(10.2291713567408,5.41822121380321,0.));
#1346=CARTESIAN_POINT('',(25.7708286432593,3.41822121380321,0.));
#1347=CARTESIAN_POINT('',(13.,3.41822121380321,0.));
#1348=CARTESIAN_POINT('',(27.7591175693982,5.63433957534005,0.));
#1349=CARTESIAN_POINT('Origin',(25.7708286432593,5.41822121380321,0.));
#1350=CARTESIAN_POINT('',(26.9439001780939,13.13433957534,0.));
#1351=CARTESIAN_POINT('',(27.1583818027031,11.1611086289345,0.));
#1352=CARTESIAN_POINT('',(24.9556112519549,14.9182212138032,0.));
#1353=CARTESIAN_POINT('Origin',(24.9556112519549,12.9182212138032,0.));
#1354=CARTESIAN_POINT('',(11.0443887480451,14.9182212138032,0.));
#1355=CARTESIAN_POINT('',(22.375,14.9182212138032,0.));
#1356=CARTESIAN_POINT('Origin',(11.0443887480451,12.9182212138032,0.));
#1357=CARTESIAN_POINT('Origin',(24.9556112519549,12.9182212138032,0.));
#1358=CARTESIAN_POINT('',(26.9439001780939,13.13433957534,2.));
#1359=CARTESIAN_POINT('',(26.9439001780939,13.13433957534,0.));
#1360=CARTESIAN_POINT('',(24.9556112519549,14.9182212138032,2.));
#1361=CARTESIAN_POINT('Origin',(24.9556112519549,12.9182212138032,2.));
#1362=CARTESIAN_POINT('',(24.9556112519549,14.9182212138032,0.));
#1363=CARTESIAN_POINT('Origin',(28.,3.41822121380321,0.));
#1364=CARTESIAN_POINT('',(27.7591175693982,5.63433957534005,2.));
#1365=CARTESIAN_POINT('',(27.7591175693982,5.63433957534005,0.));
#1366=CARTESIAN_POINT('',(27.1583818027031,11.1611086289345,2.));
#1367=CARTESIAN_POINT('Origin',(11.0443887480451,12.9182212138032,0.));
#1368=CARTESIAN_POINT('',(11.0443887480451,14.9182212138032,2.));
#1369=CARTESIAN_POINT('',(11.0443887480451,14.9182212138032,0.));
#1370=CARTESIAN_POINT('',(9.05609982190621,13.1343395753401,2.));
#1371=CARTESIAN_POINT('Origin',(11.0443887480451,12.9182212138032,2.));
#1372=CARTESIAN_POINT('',(9.05609982190621,13.1343395753401,0.));
#1373=CARTESIAN_POINT('Origin',(26.75,14.9182212138032,0.));
#1374=CARTESIAN_POINT('',(22.375,14.9182212138032,2.));
#1375=CARTESIAN_POINT('Origin',(10.2291713567408,5.41822121380321,0.));
#1376=CARTESIAN_POINT('',(8.24088243060185,5.63433957534005,2.));
#1377=CARTESIAN_POINT('',(8.24088243060185,5.63433957534005,0.));
#1378=CARTESIAN_POINT('',(10.2291713567408,3.41822121380321,2.));
#1379=CARTESIAN_POINT('Origin',(10.2291713567408,5.41822121380321,2.));
#1380=CARTESIAN_POINT('',(10.2291713567408,3.41822121380321,0.));
#1381=CARTESIAN_POINT('Origin',(9.25000000000003,14.9182212138032,0.));
#1382=CARTESIAN_POINT('',(9.46661819729692,16.9111086289346,2.));
#1383=CARTESIAN_POINT('Origin',(25.7708286432593,5.41822121380321,0.));
#1384=CARTESIAN_POINT('',(25.7708286432593,3.41822121380321,2.));
#1385=CARTESIAN_POINT('',(25.7708286432593,3.41822121380321,0.));
#1386=CARTESIAN_POINT('Origin',(25.7708286432593,5.41822121380321,2.));
#1387=CARTESIAN_POINT('Origin',(8.00000000000002,3.41822121380321,0.));
#1388=CARTESIAN_POINT('',(13.,3.41822121380321,2.));
#1389=CARTESIAN_POINT('Origin',(5.50000000000002,9.16822121380322,0.));
#1390=CARTESIAN_POINT('',(3.90000000000002,9.16822121380322,2.));
#1391=CARTESIAN_POINT('',(3.90000000000002,9.16822121380322,0.));
#1392=CARTESIAN_POINT('Origin',(5.50000000000002,9.16822121380322,2.));
#1393=CARTESIAN_POINT('Origin',(30.5,9.16822121380326,0.));
#1394=CARTESIAN_POINT('',(28.9,9.16822121380326,2.));
#1395=CARTESIAN_POINT('',(28.9,9.16822121380326,0.));
#1396=CARTESIAN_POINT('Origin',(30.5,9.16822121380326,2.));
#1397=CARTESIAN_POINT('Origin',(36.,8.50000075995922,51.0000007599592));
#1398=CARTESIAN_POINT('',(34.,8.50000075995922,51.0000007599592));
#1399=CARTESIAN_POINT('',(36.,8.50000075995922,51.0000007599592));
#1400=CARTESIAN_POINT('',(34.,2.,51.0000007599592));
#1401=CARTESIAN_POINT('',(34.,21.2500003799796,51.0000007599592));
#1402=CARTESIAN_POINT('',(2.,2.,51.0000007599592));
#1403=CARTESIAN_POINT('',(35.,2.,51.0000007599592));
#1404=CARTESIAN_POINT('',(2.,8.50000075995922,51.0000007599592));
#1405=CARTESIAN_POINT('',(2.,5.25000037997961,51.0000007599592));
#1406=CARTESIAN_POINT('',(-4.44089209850063E-15,8.50000075995922,51.0000007599592));
#1407=CARTESIAN_POINT('',(36.,8.50000075995922,51.0000007599592));
#1408=CARTESIAN_POINT('',(-2.22044604925031E-15,22.2500003799796,51.0000007599592));
#1409=CARTESIAN_POINT('Origin',(36.,9.49999999999999,52.));
#1410=CARTESIAN_POINT('',(-7.119185719893E-16,9.49999999999999,52.));
#1411=CARTESIAN_POINT('',(0.,3.12499999999993,45.6249999999999));
#1412=CARTESIAN_POINT('',(2.,9.49999999999999,52.));
#1413=CARTESIAN_POINT('',(2.,-4.87499999999999,37.6249999999999));
#1414=CARTESIAN_POINT('',(27.,9.49999999999999,52.));
#1415=CARTESIAN_POINT('Origin',(36.,9.49999999999999,52.));
#1416=CARTESIAN_POINT('',(34.,9.49999999999999,52.));
#1417=CARTESIAN_POINT('',(34.,3.12499999999993,45.6249999999999));
#1418=CARTESIAN_POINT('',(27.,9.49999999999999,52.));
#1419=CARTESIAN_POINT('Origin',(36.,27.4999992400408,51.0000007599592));
#1420=CARTESIAN_POINT('',(34.,26.5,52.));
#1421=CARTESIAN_POINT('',(34.,27.4999992400408,51.0000007599592));
#1422=CARTESIAN_POINT('',(34.,41.3749996200204,37.1250003799797));
#1423=CARTESIAN_POINT('',(27.,26.5,52.));
#1424=CARTESIAN_POINT('',(36.,27.4999992400408,51.0000007599592));
#1425=CARTESIAN_POINT('Origin',(36.,27.4999992400408,51.0000007599592));
#1426=CARTESIAN_POINT('',(-4.44089209850063E-15,26.5,52.));
#1427=CARTESIAN_POINT('',(-4.44089209850063E-15,27.4999992400408,51.0000007599592));
#1428=CARTESIAN_POINT('',(0.,42.3749996200204,36.1250003799797));
#1429=CARTESIAN_POINT('',(2.,26.5,52.));
#1430=CARTESIAN_POINT('',(27.,26.5,52.));
#1431=CARTESIAN_POINT('',(2.,27.4999992400408,51.0000007599592));
#1432=CARTESIAN_POINT('',(2.,33.3749996200204,45.1250003799797));
#1433=CARTESIAN_POINT('',(36.,27.4999992400408,51.0000007599592));
#1434=CARTESIAN_POINT('Origin',(36.,36.,51.0000007599592));
#1435=CARTESIAN_POINT('',(-2.22044604925031E-15,36.,51.0000007599592));
#1436=CARTESIAN_POINT('',(2.,34.,51.0000007599592));
#1437=CARTESIAN_POINT('',(2.,19.,51.0000007599592));
#1438=CARTESIAN_POINT('',(34.,34.,51.0000007599592));
#1439=CARTESIAN_POINT('',(19.,34.,51.0000007599592));
#1440=CARTESIAN_POINT('',(34.,35.,51.0000007599592));
#1441=CARTESIAN_POINT('',(36.,36.,51.0000007599592));
#1442=CARTESIAN_POINT('Origin',(36.,14.8,47.6000007599592));
#1443=CARTESIAN_POINT('',(34.,14.8,49.6000007599592));
#1444=CARTESIAN_POINT('',(34.,14.8,47.6000007599592));
#1445=CARTESIAN_POINT('',(34.,14.8,24.8000003799796));
#1446=CARTESIAN_POINT('',(36.,14.8,49.6000007599592));
#1447=CARTESIAN_POINT('',(36.,14.8,47.6000007599592));
#1448=CARTESIAN_POINT('Origin',(36.,14.8,47.6000007599592));
#1449=CARTESIAN_POINT('',(2.,14.8,47.6000007599592));
#1450=CARTESIAN_POINT('',(2.,14.8,49.6000007599592));
#1451=CARTESIAN_POINT('',(2.,14.8,24.8000003799796));
#1452=CARTESIAN_POINT('',(-4.44089209850063E-15,14.8,47.6000007599592));
#1453=CARTESIAN_POINT('',(36.,14.8,47.6000007599592));
#1454=CARTESIAN_POINT('',(-4.44089209850063E-15,14.8,49.6000007599592));
#1455=CARTESIAN_POINT('',(0.,14.8,23.8000003799796));
#1456=CARTESIAN_POINT('',(36.,14.8,49.6000007599592));
#1457=CARTESIAN_POINT('Origin',(36.,14.8,49.6000007599592));
#1458=CARTESIAN_POINT('',(34.,21.2,49.6000007599592));
#1459=CARTESIAN_POINT('',(34.,24.4,49.6000007599592));
#1460=CARTESIAN_POINT('',(36.,21.2,49.6000007599592));
#1461=CARTESIAN_POINT('Origin',(36.,14.8,49.6000007599592));
#1462=CARTESIAN_POINT('',(2.,21.2,49.6000007599592));
#1463=CARTESIAN_POINT('',(2.,8.4,49.6000007599592));
#1464=CARTESIAN_POINT('',(-4.44089209850063E-15,21.2,49.6000007599592));
#1465=CARTESIAN_POINT('',(-2.22044604925031E-15,25.4,49.6000007599592));
#1466=CARTESIAN_POINT('',(36.,21.2,49.6000007599592));
#1467=CARTESIAN_POINT('Origin',(36.,21.2,47.6000007599592));
#1468=CARTESIAN_POINT('',(34.,21.2,47.6000007599592));
#1469=CARTESIAN_POINT('',(34.,27.6,47.6000007599592));
#1470=CARTESIAN_POINT('',(36.,21.2,47.6000007599592));
#1471=CARTESIAN_POINT('Origin',(36.,21.2,49.6000007599592));
#1472=CARTESIAN_POINT('',(34.,21.2,25.8000003799796));
#1473=CARTESIAN_POINT('Origin',(36.,21.2,49.6000007599592));
#1474=CARTESIAN_POINT('',(2.,21.2,47.6000007599592));
#1475=CARTESIAN_POINT('',(2.,21.2,25.8000003799796));
#1476=CARTESIAN_POINT('',(-4.44089209850063E-15,21.2,47.6000007599592));
#1477=CARTESIAN_POINT('',(-2.22044604925031E-15,21.2,24.8000003799796));
#1478=CARTESIAN_POINT('',(36.,21.2,47.6000007599592));
#1479=CARTESIAN_POINT('Origin',(36.,21.2,47.6000007599592));
#1480=CARTESIAN_POINT('',(2.,11.6,47.6000007599592));
#1481=CARTESIAN_POINT('',(-2.22044604925031E-15,28.6,47.6000007599592));
#1482=CARTESIAN_POINT('Origin',(36.,36.,0.));
#1483=CARTESIAN_POINT('Origin',(18.,18.,52.));
#1484=CARTESIAN_POINT('',(2.,34.,52.));
#1485=CARTESIAN_POINT('',(-2.69779669385419E-15,36.,52.));
#1486=CARTESIAN_POINT('Origin',(2.,2.,2.));
#1487=CARTESIAN_POINT('',(2.,2.,2.));
#1488=CARTESIAN_POINT('',(2.,2.,2.));
#1489=CARTESIAN_POINT('',(2.,34.,2.));
#1490=CARTESIAN_POINT('',(2.,10.,2.));
#1491=CARTESIAN_POINT('',(2.,34.,2.));
#1492=CARTESIAN_POINT('Origin',(-2.69779669385419E-15,36.,0.));
#1493=CARTESIAN_POINT('Origin',(2.,34.,2.));
#1494=CARTESIAN_POINT('',(34.,34.,2.));
#1495=CARTESIAN_POINT('',(10.,34.,2.));
#1496=CARTESIAN_POINT('',(34.,34.,2.));
#1497=CARTESIAN_POINT('Origin',(34.,2.,2.));
#1498=CARTESIAN_POINT('',(34.,2.,2.));
#1499=CARTESIAN_POINT('',(34.,2.,2.));
#1500=CARTESIAN_POINT('',(26.,2.,2.));
#1501=CARTESIAN_POINT('Origin',(34.,34.,2.));
#1502=CARTESIAN_POINT('',(34.,2.,52.));
#1503=CARTESIAN_POINT('',(34.,26.,2.));
#1504=CARTESIAN_POINT('Origin',(18.,18.,52.));
#1505=CARTESIAN_POINT('Origin',(18.,18.,2.));
#1506=UNCERTAINTY_MEASURE_WITH_UNIT(LENGTH_MEASURE(0.01),#1510,
'DISTANCE_ACCURACY_VALUE',
'Maximum model space distance between geometric entities at asserted c
onnectivities');
#1507=UNCERTAINTY_MEASURE_WITH_UNIT(LENGTH_MEASURE(0.01),#1510,
'DISTANCE_ACCURACY_VALUE',
'Maximum model space distance between geometric entities at asserted c
onnectivities');
#1508=(
GEOMETRIC_REPRESENTATION_CONTEXT(3)
GLOBAL_UNCERTAINTY_ASSIGNED_CONTEXT((#1506))
GLOBAL_UNIT_ASSIGNED_CONTEXT((#1510,#1512,#1513))
REPRESENTATION_CONTEXT('','3D')
);
#1509=(
GEOMETRIC_REPRESENTATION_CONTEXT(3)
GLOBAL_UNCERTAINTY_ASSIGNED_CONTEXT((#1507))
GLOBAL_UNIT_ASSIGNED_CONTEXT((#1510,#1512,#1513))
REPRESENTATION_CONTEXT('','3D')
);
#1510=(
LENGTH_UNIT()
NAMED_UNIT(*)
SI_UNIT(.MILLI.,.METRE.)
);
#1511=(
LENGTH_UNIT()
NAMED_UNIT(*)
SI_UNIT($,.METRE.)
);
#1512=(
NAMED_UNIT(*)
PLANE_ANGLE_UNIT()
SI_UNIT($,.RADIAN.)
);
#1513=(
NAMED_UNIT(*)
SI_UNIT($,.STERADIAN.)
SOLID_ANGLE_UNIT()
);
#1514=SHAPE_DEFINITION_REPRESENTATION(#1515,#1516);
#1515=PRODUCT_DEFINITION_SHAPE('',$,#1518);
#1516=SHAPE_REPRESENTATION('',(#922),#1508);
#1517=PRODUCT_DEFINITION_CONTEXT('part definition',#1522,'design');
#1518=PRODUCT_DEFINITION('Abdeckung_Stromwandler',
'Abdeckung_Stromwandler v1',#1519,#1517);
#1519=PRODUCT_DEFINITION_FORMATION('',$,#1524);
#1520=PRODUCT_RELATED_PRODUCT_CATEGORY('Abdeckung_Stromwandler v1',
'Abdeckung_Stromwandler v1',(#1524));
#1521=APPLICATION_PROTOCOL_DEFINITION('international standard',
'automotive_design',2009,#1522);
#1522=APPLICATION_CONTEXT(
'Core Data for Automotive Mechanical Design Process');
#1523=PRODUCT_CONTEXT('part definition',#1522,'mechanical');
#1524=PRODUCT('Abdeckung_Stromwandler','Abdeckung_Stromwandler v1',$,(#1523));
#1525=PRESENTATION_STYLE_ASSIGNMENT((#1526));
#1526=SURFACE_STYLE_USAGE(.BOTH.,#1527);
#1527=SURFACE_SIDE_STYLE('',(#1528));
#1528=SURFACE_STYLE_FILL_AREA(#1529);
#1529=FILL_AREA_STYLE('Stahl - satiniert',(#1530));
#1530=FILL_AREA_STYLE_COLOUR('Stahl - satiniert',#1531);
#1531=COLOUR_RGB('Stahl - satiniert',0.627450980392157,0.627450980392157,
0.627450980392157);
ENDSEC;
END-ISO-10303-21;
