ISO-10303-21;
HEADER;
/* Generated by software containing ST-Developer
 * from STEP Tools, Inc. (www.steptools.com) 
 */

FILE_DESCRIPTION(
/* description */ (''),
/* implementation_level */ '2;1');

FILE_NAME(
/* name */ 'Kran_Servoaufsatz.step',
/* time_stamp */ '2026-06-28T17:05:12+02:00',
/* author */ (''),
/* organization */ (''),
/* preprocessor_version */ 'ST-DEVELOPER v20.1',
/* originating_system */ 'Autodesk Translation Framework v15.8.0.0',
/* authorisation */ '');

FILE_SCHEMA (('AUTOMOTIVE_DESIGN { 1 0 10303 214 3 1 1 }'));
ENDSEC;

DATA;
#10=MECHANICAL_DESIGN_GEOMETRIC_PRESENTATION_REPRESENTATION('',(#13),#391);
#11=SHAPE_REPRESENTATION_RELATIONSHIP('SRR','None',#398,#12);
#12=ADVANCED_BREP_SHAPE_REPRESENTATION('',(#14),#390);
#13=STYLED_ITEM('',(#407),#14);
#14=MANIFOLD_SOLID_BREP('Servoaufsatz_V',#231);
#15=CYLINDRICAL_SURFACE('',#254,3.6);
#16=CYLINDRICAL_SURFACE('',#258,14.1666666666667);
#17=FACE_BOUND('',#42,.T.);
#18=FACE_BOUND('',#50,.T.);
#19=CIRCLE('',#249,3.6);
#20=CIRCLE('',#250,3.6);
#21=CIRCLE('',#252,14.1666666666667);
#22=CIRCLE('',#253,3.6);
#23=CIRCLE('',#255,3.6);
#24=CIRCLE('',#259,14.1666666666667);
#25=FACE_OUTER_BOUND('',#37,.T.);
#26=FACE_OUTER_BOUND('',#38,.T.);
#27=FACE_OUTER_BOUND('',#39,.T.);
#28=FACE_OUTER_BOUND('',#40,.T.);
#29=FACE_OUTER_BOUND('',#41,.T.);
#30=FACE_OUTER_BOUND('',#43,.T.);
#31=FACE_OUTER_BOUND('',#44,.T.);
#32=FACE_OUTER_BOUND('',#45,.T.);
#33=FACE_OUTER_BOUND('',#46,.T.);
#34=FACE_OUTER_BOUND('',#47,.T.);
#35=FACE_OUTER_BOUND('',#48,.T.);
#36=FACE_OUTER_BOUND('',#49,.T.);
#37=EDGE_LOOP('',(#149,#150,#151,#152));
#38=EDGE_LOOP('',(#153,#154,#155,#156));
#39=EDGE_LOOP('',(#157,#158,#159,#160));
#40=EDGE_LOOP('',(#161,#162,#163,#164,#165));
#41=EDGE_LOOP('',(#166,#167,#168,#169,#170));
#42=EDGE_LOOP('',(#171,#172,#173,#174));
#43=EDGE_LOOP('',(#175,#176,#177,#178,#179,#180,#181,#182));
#44=EDGE_LOOP('',(#183,#184,#185,#186));
#45=EDGE_LOOP('',(#187,#188,#189,#190));
#46=EDGE_LOOP('',(#191,#192,#193,#194));
#47=EDGE_LOOP('',(#195,#196,#197,#198));
#48=EDGE_LOOP('',(#199,#200,#201,#202));
#49=EDGE_LOOP('',(#203,#204,#205,#206,#207));
#50=EDGE_LOOP('',(#208));
#51=LINE('',#329,#75);
#52=LINE('',#331,#76);
#53=LINE('',#333,#77);
#54=LINE('',#334,#78);
#55=LINE('',#338,#79);
#56=LINE('',#340,#80);
#57=LINE('',#342,#81);
#58=LINE('',#343,#82);
#59=LINE('',#345,#83);
#60=LINE('',#346,#84);
#61=LINE('',#354,#85);
#62=LINE('',#356,#86);
#63=LINE('',#360,#87);
#64=LINE('',#361,#88);
#65=LINE('',#365,#89);
#66=LINE('',#370,#90);
#67=LINE('',#371,#91);
#68=LINE('',#372,#92);
#69=LINE('',#375,#93);
#70=LINE('',#376,#94);
#71=LINE('',#380,#95);
#72=LINE('',#383,#96);
#73=LINE('',#384,#97);
#74=LINE('',#386,#98);
#75=VECTOR('',#267,10.);
#76=VECTOR('',#268,10.);
#77=VECTOR('',#269,10.);
#78=VECTOR('',#270,10.);
#79=VECTOR('',#273,10.);
#80=VECTOR('',#274,10.);
#81=VECTOR('',#275,10.);
#82=VECTOR('',#276,10.);
#83=VECTOR('',#279,10.);
#84=VECTOR('',#280,10.);
#85=VECTOR('',#289,10.);
#86=VECTOR('',#290,10.);
#87=VECTOR('',#293,10.);
#88=VECTOR('',#294,10.);
#89=VECTOR('',#299,3.6);
#90=VECTOR('',#304,10.);
#91=VECTOR('',#305,10.);
#92=VECTOR('',#306,10.);
#93=VECTOR('',#309,10.);
#94=VECTOR('',#310,10.);
#95=VECTOR('',#315,10.);
#96=VECTOR('',#318,10.);
#97=VECTOR('',#319,10.);
#98=VECTOR('',#322,10.);
#99=VERTEX_POINT('',#327);
#100=VERTEX_POINT('',#328);
#101=VERTEX_POINT('',#330);
#102=VERTEX_POINT('',#332);
#103=VERTEX_POINT('',#336);
#104=VERTEX_POINT('',#337);
#105=VERTEX_POINT('',#339);
#106=VERTEX_POINT('',#341);
#107=VERTEX_POINT('',#348);
#108=VERTEX_POINT('',#352);
#109=VERTEX_POINT('',#353);
#110=VERTEX_POINT('',#355);
#111=VERTEX_POINT('',#357);
#112=VERTEX_POINT('',#359);
#113=VERTEX_POINT('',#364);
#114=VERTEX_POINT('',#368);
#115=VERTEX_POINT('',#369);
#116=VERTEX_POINT('',#374);
#117=VERTEX_POINT('',#378);
#118=VERTEX_POINT('',#382);
#119=EDGE_CURVE('',#99,#100,#51,.T.);
#120=EDGE_CURVE('',#101,#99,#52,.T.);
#121=EDGE_CURVE('',#101,#102,#53,.T.);
#122=EDGE_CURVE('',#100,#102,#54,.T.);
#123=EDGE_CURVE('',#103,#104,#55,.T.);
#124=EDGE_CURVE('',#103,#105,#56,.T.);
#125=EDGE_CURVE('',#105,#106,#57,.T.);
#126=EDGE_CURVE('',#104,#106,#58,.T.);
#127=EDGE_CURVE('',#100,#103,#59,.T.);
#128=EDGE_CURVE('',#102,#105,#60,.T.);
#129=EDGE_CURVE('',#107,#101,#19,.T.);
#130=EDGE_CURVE('',#106,#107,#20,.T.);
#131=EDGE_CURVE('',#108,#109,#61,.T.);
#132=EDGE_CURVE('',#109,#110,#62,.T.);
#133=EDGE_CURVE('',#110,#111,#21,.T.);
#134=EDGE_CURVE('',#111,#112,#63,.T.);
#135=EDGE_CURVE('',#112,#108,#64,.T.);
#136=EDGE_CURVE('',#104,#99,#22,.T.);
#137=EDGE_CURVE('',#107,#113,#65,.T.);
#138=EDGE_CURVE('',#113,#113,#23,.T.);
#139=EDGE_CURVE('',#114,#115,#66,.T.);
#140=EDGE_CURVE('',#114,#108,#67,.T.);
#141=EDGE_CURVE('',#115,#112,#68,.T.);
#142=EDGE_CURVE('',#115,#116,#69,.T.);
#143=EDGE_CURVE('',#116,#111,#70,.T.);
#144=EDGE_CURVE('',#117,#116,#24,.T.);
#145=EDGE_CURVE('',#117,#110,#71,.T.);
#146=EDGE_CURVE('',#118,#117,#72,.T.);
#147=EDGE_CURVE('',#118,#109,#73,.T.);
#148=EDGE_CURVE('',#114,#118,#74,.T.);
#149=ORIENTED_EDGE('',*,*,#119,.F.);
#150=ORIENTED_EDGE('',*,*,#120,.F.);
#151=ORIENTED_EDGE('',*,*,#121,.T.);
#152=ORIENTED_EDGE('',*,*,#122,.F.);
#153=ORIENTED_EDGE('',*,*,#123,.F.);
#154=ORIENTED_EDGE('',*,*,#124,.T.);
#155=ORIENTED_EDGE('',*,*,#125,.T.);
#156=ORIENTED_EDGE('',*,*,#126,.F.);
#157=ORIENTED_EDGE('',*,*,#127,.F.);
#158=ORIENTED_EDGE('',*,*,#122,.T.);
#159=ORIENTED_EDGE('',*,*,#128,.T.);
#160=ORIENTED_EDGE('',*,*,#124,.F.);
#161=ORIENTED_EDGE('',*,*,#128,.F.);
#162=ORIENTED_EDGE('',*,*,#121,.F.);
#163=ORIENTED_EDGE('',*,*,#129,.F.);
#164=ORIENTED_EDGE('',*,*,#130,.F.);
#165=ORIENTED_EDGE('',*,*,#125,.F.);
#166=ORIENTED_EDGE('',*,*,#131,.T.);
#167=ORIENTED_EDGE('',*,*,#132,.T.);
#168=ORIENTED_EDGE('',*,*,#133,.T.);
#169=ORIENTED_EDGE('',*,*,#134,.T.);
#170=ORIENTED_EDGE('',*,*,#135,.T.);
#171=ORIENTED_EDGE('',*,*,#119,.T.);
#172=ORIENTED_EDGE('',*,*,#127,.T.);
#173=ORIENTED_EDGE('',*,*,#123,.T.);
#174=ORIENTED_EDGE('',*,*,#136,.T.);
#175=ORIENTED_EDGE('',*,*,#120,.T.);
#176=ORIENTED_EDGE('',*,*,#136,.F.);
#177=ORIENTED_EDGE('',*,*,#126,.T.);
#178=ORIENTED_EDGE('',*,*,#130,.T.);
#179=ORIENTED_EDGE('',*,*,#137,.T.);
#180=ORIENTED_EDGE('',*,*,#138,.T.);
#181=ORIENTED_EDGE('',*,*,#137,.F.);
#182=ORIENTED_EDGE('',*,*,#129,.T.);
#183=ORIENTED_EDGE('',*,*,#139,.F.);
#184=ORIENTED_EDGE('',*,*,#140,.T.);
#185=ORIENTED_EDGE('',*,*,#135,.F.);
#186=ORIENTED_EDGE('',*,*,#141,.F.);
#187=ORIENTED_EDGE('',*,*,#142,.F.);
#188=ORIENTED_EDGE('',*,*,#141,.T.);
#189=ORIENTED_EDGE('',*,*,#134,.F.);
#190=ORIENTED_EDGE('',*,*,#143,.F.);
#191=ORIENTED_EDGE('',*,*,#144,.T.);
#192=ORIENTED_EDGE('',*,*,#143,.T.);
#193=ORIENTED_EDGE('',*,*,#133,.F.);
#194=ORIENTED_EDGE('',*,*,#145,.F.);
#195=ORIENTED_EDGE('',*,*,#146,.T.);
#196=ORIENTED_EDGE('',*,*,#145,.T.);
#197=ORIENTED_EDGE('',*,*,#132,.F.);
#198=ORIENTED_EDGE('',*,*,#147,.F.);
#199=ORIENTED_EDGE('',*,*,#148,.T.);
#200=ORIENTED_EDGE('',*,*,#147,.T.);
#201=ORIENTED_EDGE('',*,*,#131,.F.);
#202=ORIENTED_EDGE('',*,*,#140,.F.);
#203=ORIENTED_EDGE('',*,*,#148,.F.);
#204=ORIENTED_EDGE('',*,*,#139,.T.);
#205=ORIENTED_EDGE('',*,*,#142,.T.);
#206=ORIENTED_EDGE('',*,*,#144,.F.);
#207=ORIENTED_EDGE('',*,*,#146,.F.);
#208=ORIENTED_EDGE('',*,*,#138,.F.);
#209=PLANE('',#245);
#210=PLANE('',#246);
#211=PLANE('',#247);
#212=PLANE('',#248);
#213=PLANE('',#251);
#214=PLANE('',#256);
#215=PLANE('',#257);
#216=PLANE('',#260);
#217=PLANE('',#261);
#218=PLANE('',#262);
#219=ADVANCED_FACE('',(#25),#209,.F.);
#220=ADVANCED_FACE('',(#26),#210,.F.);
#221=ADVANCED_FACE('',(#27),#211,.F.);
#222=ADVANCED_FACE('',(#28),#212,.T.);
#223=ADVANCED_FACE('',(#29,#17),#213,.T.);
#224=ADVANCED_FACE('',(#30),#15,.F.);
#225=ADVANCED_FACE('',(#31),#214,.T.);
#226=ADVANCED_FACE('',(#32),#215,.T.);
#227=ADVANCED_FACE('',(#33),#16,.T.);
#228=ADVANCED_FACE('',(#34),#216,.T.);
#229=ADVANCED_FACE('',(#35),#217,.T.);
#230=ADVANCED_FACE('',(#36,#18),#218,.F.);
#231=CLOSED_SHELL('',(#219,#220,#221,#222,#223,#224,#225,#226,#227,#228,
#229,#230));
#232=DERIVED_UNIT_ELEMENT(#234,1.);
#233=DERIVED_UNIT_ELEMENT(#393,-3.);
#234=(
MASS_UNIT()
NAMED_UNIT(*)
SI_UNIT(.KILO.,.GRAM.)
);
#235=DERIVED_UNIT((#232,#233));
#236=MEASURE_REPRESENTATION_ITEM('density measure',
POSITIVE_RATIO_MEASURE(7850.),#235);
#237=PROPERTY_DEFINITION_REPRESENTATION(#242,#239);
#238=PROPERTY_DEFINITION_REPRESENTATION(#243,#240);
#239=REPRESENTATION('material name',(#241),#390);
#240=REPRESENTATION('density',(#236),#390);
#241=DESCRIPTIVE_REPRESENTATION_ITEM('Stahl','Stahl');
#242=PROPERTY_DEFINITION('material property','material name',#400);
#243=PROPERTY_DEFINITION('material property','density of part',#400);
#244=AXIS2_PLACEMENT_3D('',#325,#263,#264);
#245=AXIS2_PLACEMENT_3D('',#326,#265,#266);
#246=AXIS2_PLACEMENT_3D('',#335,#271,#272);
#247=AXIS2_PLACEMENT_3D('',#344,#277,#278);
#248=AXIS2_PLACEMENT_3D('',#347,#281,#282);
#249=AXIS2_PLACEMENT_3D('',#349,#283,#284);
#250=AXIS2_PLACEMENT_3D('',#350,#285,#286);
#251=AXIS2_PLACEMENT_3D('',#351,#287,#288);
#252=AXIS2_PLACEMENT_3D('',#358,#291,#292);
#253=AXIS2_PLACEMENT_3D('',#362,#295,#296);
#254=AXIS2_PLACEMENT_3D('',#363,#297,#298);
#255=AXIS2_PLACEMENT_3D('',#366,#300,#301);
#256=AXIS2_PLACEMENT_3D('',#367,#302,#303);
#257=AXIS2_PLACEMENT_3D('',#373,#307,#308);
#258=AXIS2_PLACEMENT_3D('',#377,#311,#312);
#259=AXIS2_PLACEMENT_3D('',#379,#313,#314);
#260=AXIS2_PLACEMENT_3D('',#381,#316,#317);
#261=AXIS2_PLACEMENT_3D('',#385,#320,#321);
#262=AXIS2_PLACEMENT_3D('',#387,#323,#324);
#263=DIRECTION('axis',(0.,0.,1.));
#264=DIRECTION('refdir',(1.,0.,0.));
#265=DIRECTION('center_axis',(-2.75570849181164E-13,-1.,0.));
#266=DIRECTION('ref_axis',(-1.,2.75570849181164E-13,0.));
#267=DIRECTION('',(-1.,2.75570849181164E-13,0.));
#268=DIRECTION('',(0.,0.,1.));
#269=DIRECTION('',(-1.,2.75570849181164E-13,0.));
#270=DIRECTION('',(0.,0.,-1.));
#271=DIRECTION('center_axis',(2.75861842686279E-13,1.,0.));
#272=DIRECTION('ref_axis',(1.,-2.75861842686279E-13,0.));
#273=DIRECTION('',(1.,-2.75861842686279E-13,0.));
#274=DIRECTION('',(0.,0.,-1.));
#275=DIRECTION('',(1.,-2.75861842686279E-13,0.));
#276=DIRECTION('',(0.,0.,-1.));
#277=DIRECTION('center_axis',(-1.,4.84460956200068E-14,0.));
#278=DIRECTION('ref_axis',(4.84460956200068E-14,1.,0.));
#279=DIRECTION('',(4.84460956200068E-14,1.,0.));
#280=DIRECTION('',(4.84460956200068E-14,1.,0.));
#281=DIRECTION('center_axis',(0.,0.,1.));
#282=DIRECTION('ref_axis',(-1.,0.,0.));
#283=DIRECTION('center_axis',(0.,0.,1.));
#284=DIRECTION('ref_axis',(1.,0.,0.));
#285=DIRECTION('center_axis',(0.,0.,1.));
#286=DIRECTION('ref_axis',(1.,0.,0.));
#287=DIRECTION('center_axis',(0.,0.,1.));
#288=DIRECTION('ref_axis',(1.,0.,0.));
#289=DIRECTION('',(-1.22464679914735E-16,1.,0.));
#290=DIRECTION('',(-1.,0.,0.));
#291=DIRECTION('center_axis',(0.,0.,1.));
#292=DIRECTION('ref_axis',(0.,1.,0.));
#293=DIRECTION('',(0.,-1.,0.));
#294=DIRECTION('',(1.,3.62527989531715E-33,0.));
#295=DIRECTION('center_axis',(0.,0.,-1.));
#296=DIRECTION('ref_axis',(1.,0.,0.));
#297=DIRECTION('center_axis',(0.,0.,1.));
#298=DIRECTION('ref_axis',(1.,0.,0.));
#299=DIRECTION('',(0.,0.,-1.));
#300=DIRECTION('center_axis',(0.,0.,-1.));
#301=DIRECTION('ref_axis',(1.,0.,0.));
#302=DIRECTION('center_axis',(3.62527989531715E-33,-1.,0.));
#303=DIRECTION('ref_axis',(1.,3.62527989531715E-33,0.));
#304=DIRECTION('',(-1.,-3.62527989531715E-33,0.));
#305=DIRECTION('',(0.,0.,1.));
#306=DIRECTION('',(0.,0.,1.));
#307=DIRECTION('center_axis',(-1.,0.,0.));
#308=DIRECTION('ref_axis',(0.,-1.,0.));
#309=DIRECTION('',(0.,1.,0.));
#310=DIRECTION('',(0.,0.,1.));
#311=DIRECTION('center_axis',(0.,0.,1.));
#312=DIRECTION('ref_axis',(0.,1.,0.));
#313=DIRECTION('center_axis',(0.,0.,1.));
#314=DIRECTION('ref_axis',(0.,1.,0.));
#315=DIRECTION('',(0.,0.,1.));
#316=DIRECTION('center_axis',(0.,1.,0.));
#317=DIRECTION('ref_axis',(-1.,0.,0.));
#318=DIRECTION('',(-1.,0.,0.));
#319=DIRECTION('',(0.,0.,1.));
#320=DIRECTION('center_axis',(1.,1.22464679914735E-16,0.));
#321=DIRECTION('ref_axis',(-1.22464679914735E-16,1.,0.));
#322=DIRECTION('',(-1.22464679914735E-16,1.,0.));
#323=DIRECTION('center_axis',(0.,0.,1.));
#324=DIRECTION('ref_axis',(1.,0.,0.));
#325=CARTESIAN_POINT('',(0.,0.,0.));
#326=CARTESIAN_POINT('Origin',(-7.32325203109399,2.24999999999746,4.));
#327=CARTESIAN_POINT('',(-7.32325203109399,2.24999999999746,4.));
#328=CARTESIAN_POINT('',(-14.,2.2499999999993,4.));
#329=CARTESIAN_POINT('',(-7.91162601554772,2.24999999999763,4.));
#330=CARTESIAN_POINT('',(-7.32325203109399,2.24999999999746,1.2));
#331=CARTESIAN_POINT('',(-7.32325203109479,2.24999999999746,0.));
#332=CARTESIAN_POINT('',(-14.,2.2499999999993,1.2));
#333=CARTESIAN_POINT('',(-7.32325203109399,2.24999999999746,1.2));
#334=CARTESIAN_POINT('',(-14.,2.2499999999993,4.));
#335=CARTESIAN_POINT('Origin',(-13.9999999999997,7.74999999999931,4.));
#336=CARTESIAN_POINT('',(-13.9999999999997,7.74999999999931,4.));
#337=CARTESIAN_POINT('',(-7.32325203109788,7.74999999999746,4.));
#338=CARTESIAN_POINT('',(-11.2499999999998,7.74999999999855,4.));
#339=CARTESIAN_POINT('',(-13.9999999999997,7.74999999999931,1.2));
#340=CARTESIAN_POINT('',(-13.9999999999997,7.74999999999931,4.));
#341=CARTESIAN_POINT('',(-7.32325203109788,7.74999999999746,1.2));
#342=CARTESIAN_POINT('',(-13.9999999999997,7.74999999999931,1.2));
#343=CARTESIAN_POINT('',(-7.32325203110079,7.74999999999746,0.));
#344=CARTESIAN_POINT('Origin',(-14.,2.2499999999993,4.));
#345=CARTESIAN_POINT('',(-13.9999999999999,4.87499999999979,4.));
#346=CARTESIAN_POINT('',(-14.,2.2499999999993,1.2));
#347=CARTESIAN_POINT('Origin',(-10.661626015547,4.99999999999836,1.2));
#348=CARTESIAN_POINT('',(-8.6,5.,1.2));
#349=CARTESIAN_POINT('Origin',(-5.,5.,1.2));
#350=CARTESIAN_POINT('Origin',(-5.,5.,1.2));
#351=CARTESIAN_POINT('Origin',(-8.5,7.5,4.));
#352=CARTESIAN_POINT('',(0.,0.,4.));
#353=CARTESIAN_POINT('',(-2.22044604925031E-15,15.,4.));
#354=CARTESIAN_POINT('',(0.,0.,4.));
#355=CARTESIAN_POINT('',(-3.,15.,4.));
#356=CARTESIAN_POINT('',(-1.83697019872103E-15,15.,4.));
#357=CARTESIAN_POINT('',(-17.,3.,4.));
#358=CARTESIAN_POINT('Origin',(-3.,0.833333333333335,4.));
#359=CARTESIAN_POINT('',(-17.,0.,4.));
#360=CARTESIAN_POINT('',(-17.,-6.16297582203915E-32,4.));
#361=CARTESIAN_POINT('',(0.,0.,4.));
#362=CARTESIAN_POINT('Origin',(-5.,5.,4.));
#363=CARTESIAN_POINT('Origin',(-5.,5.,0.));
#364=CARTESIAN_POINT('',(-8.6,5.,0.));
#365=CARTESIAN_POINT('',(-8.6,5.,0.));
#366=CARTESIAN_POINT('Origin',(-5.,5.,0.));
#367=CARTESIAN_POINT('Origin',(-17.,-6.16297582203915E-32,0.));
#368=CARTESIAN_POINT('',(0.,0.,0.));
#369=CARTESIAN_POINT('',(-17.,-6.16297582203915E-32,0.));
#370=CARTESIAN_POINT('',(0.,0.,0.));
#371=CARTESIAN_POINT('',(0.,0.,0.));
#372=CARTESIAN_POINT('',(-17.,-6.16297582203915E-32,0.));
#373=CARTESIAN_POINT('Origin',(-17.,3.,0.));
#374=CARTESIAN_POINT('',(-17.,3.,0.));
#375=CARTESIAN_POINT('',(-17.,-6.16297582203915E-32,0.));
#376=CARTESIAN_POINT('',(-17.,3.,0.));
#377=CARTESIAN_POINT('Origin',(-3.,0.833333333333335,0.));
#378=CARTESIAN_POINT('',(-3.,15.,0.));
#379=CARTESIAN_POINT('Origin',(-3.,0.833333333333335,0.));
#380=CARTESIAN_POINT('',(-3.,15.,0.));
#381=CARTESIAN_POINT('Origin',(-1.83697019872103E-15,15.,0.));
#382=CARTESIAN_POINT('',(-1.83697019872103E-15,15.,0.));
#383=CARTESIAN_POINT('',(-1.83697019872103E-15,15.,0.));
#384=CARTESIAN_POINT('',(-1.83697019872103E-15,15.,0.));
#385=CARTESIAN_POINT('Origin',(0.,0.,0.));
#386=CARTESIAN_POINT('',(0.,0.,0.));
#387=CARTESIAN_POINT('Origin',(-8.5,7.5,0.));
#388=UNCERTAINTY_MEASURE_WITH_UNIT(LENGTH_MEASURE(0.01),#392,
'DISTANCE_ACCURACY_VALUE',
'Maximum model space distance between geometric entities at asserted c
onnectivities');
#389=UNCERTAINTY_MEASURE_WITH_UNIT(LENGTH_MEASURE(0.01),#392,
'DISTANCE_ACCURACY_VALUE',
'Maximum model space distance between geometric entities at asserted c
onnectivities');
#390=(
GEOMETRIC_REPRESENTATION_CONTEXT(3)
GLOBAL_UNCERTAINTY_ASSIGNED_CONTEXT((#388))
GLOBAL_UNIT_ASSIGNED_CONTEXT((#392,#394,#395))
REPRESENTATION_CONTEXT('','3D')
);
#391=(
GEOMETRIC_REPRESENTATION_CONTEXT(3)
GLOBAL_UNCERTAINTY_ASSIGNED_CONTEXT((#389))
GLOBAL_UNIT_ASSIGNED_CONTEXT((#392,#394,#395))
REPRESENTATION_CONTEXT('','3D')
);
#392=(
LENGTH_UNIT()
NAMED_UNIT(*)
SI_UNIT(.MILLI.,.METRE.)
);
#393=(
LENGTH_UNIT()
NAMED_UNIT(*)
SI_UNIT($,.METRE.)
);
#394=(
NAMED_UNIT(*)
PLANE_ANGLE_UNIT()
SI_UNIT($,.RADIAN.)
);
#395=(
NAMED_UNIT(*)
SI_UNIT($,.STERADIAN.)
SOLID_ANGLE_UNIT()
);
#396=SHAPE_DEFINITION_REPRESENTATION(#397,#398);
#397=PRODUCT_DEFINITION_SHAPE('',$,#400);
#398=SHAPE_REPRESENTATION('',(#244),#390);
#399=PRODUCT_DEFINITION_CONTEXT('part definition',#404,'design');
#400=PRODUCT_DEFINITION('Servoaufsatz','Servoaufsatz v2',#401,#399);
#401=PRODUCT_DEFINITION_FORMATION('',$,#406);
#402=PRODUCT_RELATED_PRODUCT_CATEGORY('Servoaufsatz v2',
'Servoaufsatz v2',(#406));
#403=APPLICATION_PROTOCOL_DEFINITION('international standard',
'automotive_design',2009,#404);
#404=APPLICATION_CONTEXT(
'Core Data for Automotive Mechanical Design Process');
#405=PRODUCT_CONTEXT('part definition',#404,'mechanical');
#406=PRODUCT('Servoaufsatz','Servoaufsatz v2',$,(#405));
#407=PRESENTATION_STYLE_ASSIGNMENT((#408));
#408=SURFACE_STYLE_USAGE(.BOTH.,#409);
#409=SURFACE_SIDE_STYLE('',(#410));
#410=SURFACE_STYLE_FILL_AREA(#411);
#411=FILL_AREA_STYLE('Stahl - satiniert',(#412));
#412=FILL_AREA_STYLE_COLOUR('Stahl - satiniert',#413);
#413=COLOUR_RGB('Stahl - satiniert',0.627450980392157,0.627450980392157,
0.627450980392157);
ENDSEC;
END-ISO-10303-21;
