ISO-10303-21;
HEADER;
/* Generated by software containing ST-Developer
 * from STEP Tools, Inc. (www.steptools.com) 
 */

FILE_DESCRIPTION(
/* description */ (''),
/* implementation_level */ '2;1');

FILE_NAME(
/* name */ 'Kran_Panel.step',
/* time_stamp */ '2026-06-28T17:04:23+02:00',
/* author */ (''),
/* organization */ (''),
/* preprocessor_version */ 'ST-DEVELOPER v20.1',
/* originating_system */ 'Autodesk Translation Framework v15.8.0.0',
/* authorisation */ '');

FILE_SCHEMA (('AUTOMOTIVE_DESIGN { 1 0 10303 214 3 1 1 }'));
ENDSEC;

DATA;
#10=MECHANICAL_DESIGN_GEOMETRIC_PRESENTATION_REPRESENTATION('',(#13),#1447);
#11=SHAPE_REPRESENTATION_RELATIONSHIP('SRR','None',#1454,#12);
#12=ADVANCED_BREP_SHAPE_REPRESENTATION('',(#14),#1446);
#13=STYLED_ITEM('',(#1463),#14);
#14=MANIFOLD_SOLID_BREP('K\X\F6rper1',#843);
#15=FACE_BOUND('',#166,.T.);
#16=FACE_BOUND('',#167,.T.);
#17=FACE_BOUND('',#168,.T.);
#18=FACE_BOUND('',#169,.T.);
#19=FACE_BOUND('',#170,.T.);
#20=FACE_BOUND('',#171,.T.);
#21=FACE_BOUND('',#182,.T.);
#22=FACE_BOUND('',#183,.T.);
#23=FACE_BOUND('',#184,.T.);
#24=FACE_BOUND('',#185,.T.);
#25=FACE_BOUND('',#186,.T.);
#26=FACE_BOUND('',#187,.T.);
#27=FACE_BOUND('',#188,.T.);
#28=FACE_BOUND('',#189,.T.);
#29=FACE_BOUND('',#194,.T.);
#30=FACE_BOUND('',#200,.T.);
#31=FACE_BOUND('',#201,.T.);
#32=FACE_BOUND('',#202,.T.);
#33=FACE_BOUND('',#205,.T.);
#34=FACE_BOUND('',#208,.T.);
#35=CYLINDRICAL_SURFACE('',#873,5.);
#36=CYLINDRICAL_SURFACE('',#876,5.);
#37=CYLINDRICAL_SURFACE('',#889,2.);
#38=CYLINDRICAL_SURFACE('',#892,2.);
#39=CYLINDRICAL_SURFACE('',#895,2.);
#40=CYLINDRICAL_SURFACE('',#898,2.);
#41=CYLINDRICAL_SURFACE('',#912,5.);
#42=CYLINDRICAL_SURFACE('',#913,5.);
#43=CYLINDRICAL_SURFACE('',#914,4.);
#44=CYLINDRICAL_SURFACE('',#925,4.);
#45=CYLINDRICAL_SURFACE('',#929,6.);
#46=CYLINDRICAL_SURFACE('',#933,1.35);
#47=CYLINDRICAL_SURFACE('',#936,1.35);
#48=CYLINDRICAL_SURFACE('',#939,1.35);
#49=CYLINDRICAL_SURFACE('',#942,1.35);
#50=CYLINDRICAL_SURFACE('',#945,2.7);
#51=CYLINDRICAL_SURFACE('',#946,3.5);
#52=CYLINDRICAL_SURFACE('',#947,2.7);
#53=CYLINDRICAL_SURFACE('',#948,1.5);
#54=CYLINDRICAL_SURFACE('',#949,1.5);
#55=CIRCLE('',#859,5.);
#56=CIRCLE('',#860,0.999999999999995);
#57=CIRCLE('',#863,5.);
#58=CIRCLE('',#864,0.999999999999996);
#59=CIRCLE('',#867,5.);
#60=CIRCLE('',#868,1.);
#61=CIRCLE('',#871,5.);
#62=CIRCLE('',#872,0.999999999999996);
#63=CIRCLE('',#874,5.);
#64=CIRCLE('',#877,5.);
#65=CIRCLE('',#880,2.7);
#66=CIRCLE('',#881,3.5);
#67=CIRCLE('',#882,2.7);
#68=CIRCLE('',#883,1.5);
#69=CIRCLE('',#884,2.);
#70=CIRCLE('',#885,2.);
#71=CIRCLE('',#886,2.);
#72=CIRCLE('',#887,2.);
#73=CIRCLE('',#888,1.5);
#74=CIRCLE('',#890,2.);
#75=CIRCLE('',#893,2.);
#76=CIRCLE('',#896,2.);
#77=CIRCLE('',#899,2.);
#78=CIRCLE('',#903,5.);
#79=CIRCLE('',#904,5.);
#80=CIRCLE('',#905,1.35);
#81=CIRCLE('',#906,1.35);
#82=CIRCLE('',#907,1.35);
#83=CIRCLE('',#908,1.35);
#84=CIRCLE('',#909,6.);
#85=CIRCLE('',#910,4.);
#86=CIRCLE('',#911,4.);
#87=CIRCLE('',#915,4.);
#88=CIRCLE('',#917,2.7);
#89=CIRCLE('',#923,1.5);
#90=CIRCLE('',#924,1.5);
#91=CIRCLE('',#926,4.);
#92=CIRCLE('',#928,2.7);
#93=CIRCLE('',#930,6.);
#94=CIRCLE('',#932,3.5);
#95=CIRCLE('',#934,1.35);
#96=CIRCLE('',#937,1.35);
#97=CIRCLE('',#940,1.35);
#98=CIRCLE('',#943,1.35);
#99=CONICAL_SURFACE('',#858,3.,0.785398163397449);
#100=CONICAL_SURFACE('',#862,3.,0.785398163397449);
#101=CONICAL_SURFACE('',#866,3.,0.785398163397448);
#102=CONICAL_SURFACE('',#870,3.,0.785398163397449);
#103=FACE_OUTER_BOUND('',#153,.T.);
#104=FACE_OUTER_BOUND('',#154,.T.);
#105=FACE_OUTER_BOUND('',#155,.T.);
#106=FACE_OUTER_BOUND('',#156,.T.);
#107=FACE_OUTER_BOUND('',#157,.T.);
#108=FACE_OUTER_BOUND('',#158,.T.);
#109=FACE_OUTER_BOUND('',#159,.T.);
#110=FACE_OUTER_BOUND('',#160,.T.);
#111=FACE_OUTER_BOUND('',#161,.T.);
#112=FACE_OUTER_BOUND('',#162,.T.);
#113=FACE_OUTER_BOUND('',#163,.T.);
#114=FACE_OUTER_BOUND('',#164,.T.);
#115=FACE_OUTER_BOUND('',#165,.T.);
#116=FACE_OUTER_BOUND('',#172,.T.);
#117=FACE_OUTER_BOUND('',#173,.T.);
#118=FACE_OUTER_BOUND('',#174,.T.);
#119=FACE_OUTER_BOUND('',#175,.T.);
#120=FACE_OUTER_BOUND('',#176,.T.);
#121=FACE_OUTER_BOUND('',#177,.T.);
#122=FACE_OUTER_BOUND('',#178,.T.);
#123=FACE_OUTER_BOUND('',#179,.T.);
#124=FACE_OUTER_BOUND('',#180,.T.);
#125=FACE_OUTER_BOUND('',#181,.T.);
#126=FACE_OUTER_BOUND('',#190,.T.);
#127=FACE_OUTER_BOUND('',#191,.T.);
#128=FACE_OUTER_BOUND('',#192,.T.);
#129=FACE_OUTER_BOUND('',#193,.T.);
#130=FACE_OUTER_BOUND('',#195,.T.);
#131=FACE_OUTER_BOUND('',#196,.T.);
#132=FACE_OUTER_BOUND('',#197,.T.);
#133=FACE_OUTER_BOUND('',#198,.T.);
#134=FACE_OUTER_BOUND('',#199,.T.);
#135=FACE_OUTER_BOUND('',#203,.T.);
#136=FACE_OUTER_BOUND('',#204,.T.);
#137=FACE_OUTER_BOUND('',#206,.T.);
#138=FACE_OUTER_BOUND('',#207,.T.);
#139=FACE_OUTER_BOUND('',#209,.T.);
#140=FACE_OUTER_BOUND('',#210,.T.);
#141=FACE_OUTER_BOUND('',#211,.T.);
#142=FACE_OUTER_BOUND('',#212,.T.);
#143=FACE_OUTER_BOUND('',#213,.T.);
#144=FACE_OUTER_BOUND('',#214,.T.);
#145=FACE_OUTER_BOUND('',#215,.T.);
#146=FACE_OUTER_BOUND('',#216,.T.);
#147=FACE_OUTER_BOUND('',#217,.T.);
#148=FACE_OUTER_BOUND('',#218,.T.);
#149=FACE_OUTER_BOUND('',#219,.T.);
#150=FACE_OUTER_BOUND('',#220,.T.);
#151=FACE_OUTER_BOUND('',#221,.T.);
#152=FACE_OUTER_BOUND('',#222,.T.);
#153=EDGE_LOOP('',(#543,#544,#545,#546));
#154=EDGE_LOOP('',(#547,#548,#549,#550));
#155=EDGE_LOOP('',(#551,#552,#553,#554));
#156=EDGE_LOOP('',(#555,#556,#557,#558));
#157=EDGE_LOOP('',(#559,#560,#561,#562));
#158=EDGE_LOOP('',(#563,#564,#565,#566));
#159=EDGE_LOOP('',(#567,#568,#569,#570));
#160=EDGE_LOOP('',(#571,#572,#573,#574));
#161=EDGE_LOOP('',(#575,#576,#577,#578));
#162=EDGE_LOOP('',(#579,#580,#581,#582));
#163=EDGE_LOOP('',(#583,#584,#585,#586));
#164=EDGE_LOOP('',(#587,#588,#589,#590));
#165=EDGE_LOOP('',(#591,#592,#593,#594,#595,#596,#597,#598));
#166=EDGE_LOOP('',(#599));
#167=EDGE_LOOP('',(#600));
#168=EDGE_LOOP('',(#601));
#169=EDGE_LOOP('',(#602));
#170=EDGE_LOOP('',(#603,#604,#605,#606,#607,#608,#609,#610));
#171=EDGE_LOOP('',(#611));
#172=EDGE_LOOP('',(#612,#613,#614,#615));
#173=EDGE_LOOP('',(#616,#617,#618,#619));
#174=EDGE_LOOP('',(#620,#621,#622,#623));
#175=EDGE_LOOP('',(#624,#625,#626,#627));
#176=EDGE_LOOP('',(#628,#629,#630,#631));
#177=EDGE_LOOP('',(#632,#633,#634,#635));
#178=EDGE_LOOP('',(#636,#637,#638,#639));
#179=EDGE_LOOP('',(#640,#641,#642,#643));
#180=EDGE_LOOP('',(#644,#645,#646,#647));
#181=EDGE_LOOP('',(#648,#649,#650,#651,#652,#653,#654,#655));
#182=EDGE_LOOP('',(#656));
#183=EDGE_LOOP('',(#657));
#184=EDGE_LOOP('',(#658));
#185=EDGE_LOOP('',(#659));
#186=EDGE_LOOP('',(#660));
#187=EDGE_LOOP('',(#661));
#188=EDGE_LOOP('',(#662,#663,#664,#665));
#189=EDGE_LOOP('',(#666));
#190=EDGE_LOOP('',(#667,#668,#669,#670));
#191=EDGE_LOOP('',(#671,#672,#673,#674));
#192=EDGE_LOOP('',(#675,#676,#677,#678));
#193=EDGE_LOOP('',(#679));
#194=EDGE_LOOP('',(#680));
#195=EDGE_LOOP('',(#681,#682,#683,#684));
#196=EDGE_LOOP('',(#685,#686,#687,#688));
#197=EDGE_LOOP('',(#689,#690,#691,#692));
#198=EDGE_LOOP('',(#693,#694,#695,#696));
#199=EDGE_LOOP('',(#697,#698,#699,#700));
#200=EDGE_LOOP('',(#701));
#201=EDGE_LOOP('',(#702,#703,#704,#705,#706,#707,#708,#709));
#202=EDGE_LOOP('',(#710));
#203=EDGE_LOOP('',(#711,#712,#713,#714));
#204=EDGE_LOOP('',(#715));
#205=EDGE_LOOP('',(#716));
#206=EDGE_LOOP('',(#717,#718,#719,#720));
#207=EDGE_LOOP('',(#721));
#208=EDGE_LOOP('',(#722));
#209=EDGE_LOOP('',(#723,#724,#725,#726));
#210=EDGE_LOOP('',(#727));
#211=EDGE_LOOP('',(#728,#729,#730,#731));
#212=EDGE_LOOP('',(#732));
#213=EDGE_LOOP('',(#733,#734,#735,#736));
#214=EDGE_LOOP('',(#737));
#215=EDGE_LOOP('',(#738,#739,#740,#741));
#216=EDGE_LOOP('',(#742));
#217=EDGE_LOOP('',(#743,#744,#745,#746));
#218=EDGE_LOOP('',(#747,#748,#749,#750));
#219=EDGE_LOOP('',(#751,#752,#753,#754));
#220=EDGE_LOOP('',(#755,#756,#757,#758));
#221=EDGE_LOOP('',(#759,#760,#761,#762));
#222=EDGE_LOOP('',(#763,#764,#765,#766));
#223=LINE('',#1213,#291);
#224=LINE('',#1215,#292);
#225=LINE('',#1217,#293);
#226=LINE('',#1218,#294);
#227=LINE('',#1222,#295);
#228=LINE('',#1228,#296);
#229=LINE('',#1229,#297);
#230=LINE('',#1230,#298);
#231=LINE('',#1234,#299);
#232=LINE('',#1240,#300);
#233=LINE('',#1241,#301);
#234=LINE('',#1242,#302);
#235=LINE('',#1246,#303);
#236=LINE('',#1252,#304);
#237=LINE('',#1253,#305);
#238=LINE('',#1254,#306);
#239=LINE('',#1260,#307);
#240=LINE('',#1263,#308);
#241=LINE('',#1266,#309);
#242=LINE('',#1267,#310);
#243=LINE('',#1270,#311);
#244=LINE('',#1274,#312);
#245=LINE('',#1275,#313);
#246=LINE('',#1289,#314);
#247=LINE('',#1293,#315);
#248=LINE('',#1297,#316);
#249=LINE('',#1300,#317);
#250=LINE('',#1305,#318);
#251=LINE('',#1308,#319);
#252=LINE('',#1311,#320);
#253=LINE('',#1312,#321);
#254=LINE('',#1315,#322);
#255=LINE('',#1318,#323);
#256=LINE('',#1320,#324);
#257=LINE('',#1323,#325);
#258=LINE('',#1326,#326);
#259=LINE('',#1328,#327);
#260=LINE('',#1331,#328);
#261=LINE('',#1334,#329);
#262=LINE('',#1337,#330);
#263=LINE('',#1338,#331);
#264=LINE('',#1343,#332);
#265=LINE('',#1359,#333);
#266=LINE('',#1361,#334);
#267=LINE('',#1363,#335);
#268=LINE('',#1364,#336);
#269=LINE('',#1368,#337);
#270=LINE('',#1370,#338);
#271=LINE('',#1373,#339);
#272=LINE('',#1380,#340);
#273=LINE('',#1382,#341);
#274=LINE('',#1383,#342);
#275=LINE('',#1386,#343);
#276=LINE('',#1387,#344);
#277=LINE('',#1390,#345);
#278=LINE('',#1391,#346);
#279=LINE('',#1393,#347);
#280=LINE('',#1401,#348);
#281=LINE('',#1408,#349);
#282=LINE('',#1415,#350);
#283=LINE('',#1420,#351);
#284=LINE('',#1425,#352);
#285=LINE('',#1430,#353);
#286=LINE('',#1434,#354);
#287=LINE('',#1436,#355);
#288=LINE('',#1438,#356);
#289=LINE('',#1440,#357);
#290=LINE('',#1442,#358);
#291=VECTOR('',#955,10.);
#292=VECTOR('',#956,10.);
#293=VECTOR('',#957,10.);
#294=VECTOR('',#958,10.);
#295=VECTOR('',#961,10.);
#296=VECTOR('',#968,10.);
#297=VECTOR('',#969,10.);
#298=VECTOR('',#970,10.);
#299=VECTOR('',#973,10.);
#300=VECTOR('',#980,10.);
#301=VECTOR('',#981,10.);
#302=VECTOR('',#982,10.);
#303=VECTOR('',#985,10.);
#304=VECTOR('',#992,10.);
#305=VECTOR('',#993,10.);
#306=VECTOR('',#994,10.);
#307=VECTOR('',#1003,10.);
#308=VECTOR('',#1006,10.);
#309=VECTOR('',#1009,10.);
#310=VECTOR('',#1010,10.);
#311=VECTOR('',#1013,10.);
#312=VECTOR('',#1018,10.);
#313=VECTOR('',#1019,10.);
#314=VECTOR('',#1032,10.);
#315=VECTOR('',#1035,10.);
#316=VECTOR('',#1038,10.);
#317=VECTOR('',#1041,10.);
#318=VECTOR('',#1046,10.);
#319=VECTOR('',#1049,10.);
#320=VECTOR('',#1052,10.);
#321=VECTOR('',#1053,10.);
#322=VECTOR('',#1056,10.);
#323=VECTOR('',#1059,10.);
#324=VECTOR('',#1062,10.);
#325=VECTOR('',#1065,10.);
#326=VECTOR('',#1068,10.);
#327=VECTOR('',#1071,10.);
#328=VECTOR('',#1074,10.);
#329=VECTOR('',#1079,10.);
#330=VECTOR('',#1082,10.);
#331=VECTOR('',#1083,10.);
#332=VECTOR('',#1088,10.);
#333=VECTOR('',#1103,10.);
#334=VECTOR('',#1104,10.);
#335=VECTOR('',#1105,10.);
#336=VECTOR('',#1106,10.);
#337=VECTOR('',#1111,10.);
#338=VECTOR('',#1114,10.);
#339=VECTOR('',#1117,4.);
#340=VECTOR('',#1126,10.);
#341=VECTOR('',#1127,10.);
#342=VECTOR('',#1128,10.);
#343=VECTOR('',#1131,10.);
#344=VECTOR('',#1132,10.);
#345=VECTOR('',#1135,10.);
#346=VECTOR('',#1136,10.);
#347=VECTOR('',#1139,10.);
#348=VECTOR('',#1148,4.);
#349=VECTOR('',#1157,6.);
#350=VECTOR('',#1166,1.35);
#351=VECTOR('',#1173,1.35);
#352=VECTOR('',#1180,1.35);
#353=VECTOR('',#1187,1.35);
#354=VECTOR('',#1194,2.7);
#355=VECTOR('',#1197,3.5);
#356=VECTOR('',#1200,2.7);
#357=VECTOR('',#1203,1.5);
#358=VECTOR('',#1206,1.5);
#359=VERTEX_POINT('',#1211);
#360=VERTEX_POINT('',#1212);
#361=VERTEX_POINT('',#1214);
#362=VERTEX_POINT('',#1216);
#363=VERTEX_POINT('',#1220);
#364=VERTEX_POINT('',#1221);
#365=VERTEX_POINT('',#1226);
#366=VERTEX_POINT('',#1227);
#367=VERTEX_POINT('',#1232);
#368=VERTEX_POINT('',#1233);
#369=VERTEX_POINT('',#1238);
#370=VERTEX_POINT('',#1239);
#371=VERTEX_POINT('',#1244);
#372=VERTEX_POINT('',#1245);
#373=VERTEX_POINT('',#1250);
#374=VERTEX_POINT('',#1251);
#375=VERTEX_POINT('',#1259);
#376=VERTEX_POINT('',#1261);
#377=VERTEX_POINT('',#1265);
#378=VERTEX_POINT('',#1269);
#379=VERTEX_POINT('',#1273);
#380=VERTEX_POINT('',#1277);
#381=VERTEX_POINT('',#1279);
#382=VERTEX_POINT('',#1281);
#383=VERTEX_POINT('',#1283);
#384=VERTEX_POINT('',#1285);
#385=VERTEX_POINT('',#1286);
#386=VERTEX_POINT('',#1288);
#387=VERTEX_POINT('',#1290);
#388=VERTEX_POINT('',#1292);
#389=VERTEX_POINT('',#1294);
#390=VERTEX_POINT('',#1296);
#391=VERTEX_POINT('',#1298);
#392=VERTEX_POINT('',#1301);
#393=VERTEX_POINT('',#1304);
#394=VERTEX_POINT('',#1306);
#395=VERTEX_POINT('',#1310);
#396=VERTEX_POINT('',#1314);
#397=VERTEX_POINT('',#1316);
#398=VERTEX_POINT('',#1322);
#399=VERTEX_POINT('',#1324);
#400=VERTEX_POINT('',#1330);
#401=VERTEX_POINT('',#1336);
#402=VERTEX_POINT('',#1340);
#403=VERTEX_POINT('',#1342);
#404=VERTEX_POINT('',#1345);
#405=VERTEX_POINT('',#1347);
#406=VERTEX_POINT('',#1349);
#407=VERTEX_POINT('',#1351);
#408=VERTEX_POINT('',#1353);
#409=VERTEX_POINT('',#1355);
#410=VERTEX_POINT('',#1357);
#411=VERTEX_POINT('',#1358);
#412=VERTEX_POINT('',#1360);
#413=VERTEX_POINT('',#1362);
#414=VERTEX_POINT('',#1365);
#415=VERTEX_POINT('',#1372);
#416=VERTEX_POINT('',#1376);
#417=VERTEX_POINT('',#1379);
#418=VERTEX_POINT('',#1381);
#419=VERTEX_POINT('',#1385);
#420=VERTEX_POINT('',#1389);
#421=VERTEX_POINT('',#1395);
#422=VERTEX_POINT('',#1397);
#423=VERTEX_POINT('',#1400);
#424=VERTEX_POINT('',#1404);
#425=VERTEX_POINT('',#1407);
#426=VERTEX_POINT('',#1411);
#427=VERTEX_POINT('',#1414);
#428=VERTEX_POINT('',#1419);
#429=VERTEX_POINT('',#1424);
#430=VERTEX_POINT('',#1429);
#431=EDGE_CURVE('',#359,#360,#223,.T.);
#432=EDGE_CURVE('',#360,#361,#224,.T.);
#433=EDGE_CURVE('',#361,#362,#225,.T.);
#434=EDGE_CURVE('',#362,#359,#226,.T.);
#435=EDGE_CURVE('',#363,#364,#227,.T.);
#436=EDGE_CURVE('',#364,#360,#55,.T.);
#437=EDGE_CURVE('',#359,#363,#56,.T.);
#438=EDGE_CURVE('',#365,#366,#228,.T.);
#439=EDGE_CURVE('',#366,#364,#229,.T.);
#440=EDGE_CURVE('',#363,#365,#230,.T.);
#441=EDGE_CURVE('',#367,#368,#231,.T.);
#442=EDGE_CURVE('',#368,#366,#57,.T.);
#443=EDGE_CURVE('',#365,#367,#58,.T.);
#444=EDGE_CURVE('',#369,#370,#232,.T.);
#445=EDGE_CURVE('',#370,#368,#233,.T.);
#446=EDGE_CURVE('',#367,#369,#234,.T.);
#447=EDGE_CURVE('',#371,#372,#235,.T.);
#448=EDGE_CURVE('',#372,#370,#59,.T.);
#449=EDGE_CURVE('',#369,#371,#60,.T.);
#450=EDGE_CURVE('',#373,#374,#236,.T.);
#451=EDGE_CURVE('',#374,#372,#237,.T.);
#452=EDGE_CURVE('',#371,#373,#238,.T.);
#453=EDGE_CURVE('',#361,#374,#61,.T.);
#454=EDGE_CURVE('',#373,#362,#62,.T.);
#455=EDGE_CURVE('',#372,#375,#239,.T.);
#456=EDGE_CURVE('',#375,#376,#63,.T.);
#457=EDGE_CURVE('',#376,#370,#240,.T.);
#458=EDGE_CURVE('',#377,#374,#241,.T.);
#459=EDGE_CURVE('',#375,#377,#242,.T.);
#460=EDGE_CURVE('',#361,#378,#243,.T.);
#461=EDGE_CURVE('',#378,#377,#64,.T.);
#462=EDGE_CURVE('',#379,#360,#244,.T.);
#463=EDGE_CURVE('',#378,#379,#245,.T.);
#464=EDGE_CURVE('',#380,#380,#65,.T.);
#465=EDGE_CURVE('',#381,#381,#66,.T.);
#466=EDGE_CURVE('',#382,#382,#67,.T.);
#467=EDGE_CURVE('',#383,#383,#68,.T.);
#468=EDGE_CURVE('',#384,#385,#69,.T.);
#469=EDGE_CURVE('',#386,#384,#246,.T.);
#470=EDGE_CURVE('',#387,#386,#70,.T.);
#471=EDGE_CURVE('',#388,#387,#247,.T.);
#472=EDGE_CURVE('',#389,#388,#71,.T.);
#473=EDGE_CURVE('',#390,#389,#248,.T.);
#474=EDGE_CURVE('',#391,#390,#72,.T.);
#475=EDGE_CURVE('',#385,#391,#249,.T.);
#476=EDGE_CURVE('',#392,#392,#73,.T.);
#477=EDGE_CURVE('',#390,#393,#250,.T.);
#478=EDGE_CURVE('',#393,#394,#74,.T.);
#479=EDGE_CURVE('',#394,#391,#251,.T.);
#480=EDGE_CURVE('',#395,#389,#252,.T.);
#481=EDGE_CURVE('',#395,#393,#253,.T.);
#482=EDGE_CURVE('',#385,#396,#254,.T.);
#483=EDGE_CURVE('',#396,#397,#75,.T.);
#484=EDGE_CURVE('',#397,#384,#255,.T.);
#485=EDGE_CURVE('',#394,#396,#256,.T.);
#486=EDGE_CURVE('',#386,#398,#257,.T.);
#487=EDGE_CURVE('',#398,#399,#76,.T.);
#488=EDGE_CURVE('',#399,#387,#258,.T.);
#489=EDGE_CURVE('',#397,#398,#259,.T.);
#490=EDGE_CURVE('',#388,#400,#260,.T.);
#491=EDGE_CURVE('',#400,#395,#77,.T.);
#492=EDGE_CURVE('',#399,#400,#261,.T.);
#493=EDGE_CURVE('',#401,#376,#262,.T.);
#494=EDGE_CURVE('',#368,#401,#263,.T.);
#495=EDGE_CURVE('',#402,#379,#78,.T.);
#496=EDGE_CURVE('',#402,#403,#264,.T.);
#497=EDGE_CURVE('',#401,#403,#79,.T.);
#498=EDGE_CURVE('',#404,#404,#80,.T.);
#499=EDGE_CURVE('',#405,#405,#81,.T.);
#500=EDGE_CURVE('',#406,#406,#82,.T.);
#501=EDGE_CURVE('',#407,#407,#83,.T.);
#502=EDGE_CURVE('',#408,#408,#84,.T.);
#503=EDGE_CURVE('',#409,#409,#85,.T.);
#504=EDGE_CURVE('',#410,#411,#265,.T.);
#505=EDGE_CURVE('',#411,#412,#266,.T.);
#506=EDGE_CURVE('',#412,#413,#267,.T.);
#507=EDGE_CURVE('',#413,#410,#268,.T.);
#508=EDGE_CURVE('',#414,#414,#86,.T.);
#509=EDGE_CURVE('',#364,#402,#269,.T.);
#510=EDGE_CURVE('',#403,#366,#270,.T.);
#511=EDGE_CURVE('',#414,#415,#271,.T.);
#512=EDGE_CURVE('',#415,#415,#87,.T.);
#513=EDGE_CURVE('',#416,#416,#88,.T.);
#514=EDGE_CURVE('',#410,#417,#272,.T.);
#515=EDGE_CURVE('',#417,#418,#273,.T.);
#516=EDGE_CURVE('',#411,#418,#274,.T.);
#517=EDGE_CURVE('',#413,#419,#275,.T.);
#518=EDGE_CURVE('',#419,#417,#276,.T.);
#519=EDGE_CURVE('',#412,#420,#277,.T.);
#520=EDGE_CURVE('',#420,#419,#278,.T.);
#521=EDGE_CURVE('',#418,#420,#279,.T.);
#522=EDGE_CURVE('',#421,#421,#89,.T.);
#523=EDGE_CURVE('',#422,#422,#90,.T.);
#524=EDGE_CURVE('',#409,#423,#280,.T.);
#525=EDGE_CURVE('',#423,#423,#91,.T.);
#526=EDGE_CURVE('',#424,#424,#92,.T.);
#527=EDGE_CURVE('',#408,#425,#281,.T.);
#528=EDGE_CURVE('',#425,#425,#93,.T.);
#529=EDGE_CURVE('',#426,#426,#94,.T.);
#530=EDGE_CURVE('',#404,#427,#282,.T.);
#531=EDGE_CURVE('',#427,#427,#95,.T.);
#532=EDGE_CURVE('',#405,#428,#283,.T.);
#533=EDGE_CURVE('',#428,#428,#96,.T.);
#534=EDGE_CURVE('',#406,#429,#284,.T.);
#535=EDGE_CURVE('',#429,#429,#97,.T.);
#536=EDGE_CURVE('',#407,#430,#285,.T.);
#537=EDGE_CURVE('',#430,#430,#98,.T.);
#538=EDGE_CURVE('',#416,#380,#286,.T.);
#539=EDGE_CURVE('',#426,#381,#287,.T.);
#540=EDGE_CURVE('',#424,#382,#288,.T.);
#541=EDGE_CURVE('',#421,#383,#289,.T.);
#542=EDGE_CURVE('',#422,#392,#290,.T.);
#543=ORIENTED_EDGE('',*,*,#431,.T.);
#544=ORIENTED_EDGE('',*,*,#432,.T.);
#545=ORIENTED_EDGE('',*,*,#433,.T.);
#546=ORIENTED_EDGE('',*,*,#434,.T.);
#547=ORIENTED_EDGE('',*,*,#435,.T.);
#548=ORIENTED_EDGE('',*,*,#436,.T.);
#549=ORIENTED_EDGE('',*,*,#431,.F.);
#550=ORIENTED_EDGE('',*,*,#437,.T.);
#551=ORIENTED_EDGE('',*,*,#438,.T.);
#552=ORIENTED_EDGE('',*,*,#439,.T.);
#553=ORIENTED_EDGE('',*,*,#435,.F.);
#554=ORIENTED_EDGE('',*,*,#440,.T.);
#555=ORIENTED_EDGE('',*,*,#441,.T.);
#556=ORIENTED_EDGE('',*,*,#442,.T.);
#557=ORIENTED_EDGE('',*,*,#438,.F.);
#558=ORIENTED_EDGE('',*,*,#443,.T.);
#559=ORIENTED_EDGE('',*,*,#444,.T.);
#560=ORIENTED_EDGE('',*,*,#445,.T.);
#561=ORIENTED_EDGE('',*,*,#441,.F.);
#562=ORIENTED_EDGE('',*,*,#446,.T.);
#563=ORIENTED_EDGE('',*,*,#447,.T.);
#564=ORIENTED_EDGE('',*,*,#448,.T.);
#565=ORIENTED_EDGE('',*,*,#444,.F.);
#566=ORIENTED_EDGE('',*,*,#449,.T.);
#567=ORIENTED_EDGE('',*,*,#450,.T.);
#568=ORIENTED_EDGE('',*,*,#451,.T.);
#569=ORIENTED_EDGE('',*,*,#447,.F.);
#570=ORIENTED_EDGE('',*,*,#452,.T.);
#571=ORIENTED_EDGE('',*,*,#433,.F.);
#572=ORIENTED_EDGE('',*,*,#453,.T.);
#573=ORIENTED_EDGE('',*,*,#450,.F.);
#574=ORIENTED_EDGE('',*,*,#454,.T.);
#575=ORIENTED_EDGE('',*,*,#448,.F.);
#576=ORIENTED_EDGE('',*,*,#455,.T.);
#577=ORIENTED_EDGE('',*,*,#456,.T.);
#578=ORIENTED_EDGE('',*,*,#457,.T.);
#579=ORIENTED_EDGE('',*,*,#451,.F.);
#580=ORIENTED_EDGE('',*,*,#458,.F.);
#581=ORIENTED_EDGE('',*,*,#459,.F.);
#582=ORIENTED_EDGE('',*,*,#455,.F.);
#583=ORIENTED_EDGE('',*,*,#453,.F.);
#584=ORIENTED_EDGE('',*,*,#460,.T.);
#585=ORIENTED_EDGE('',*,*,#461,.T.);
#586=ORIENTED_EDGE('',*,*,#458,.T.);
#587=ORIENTED_EDGE('',*,*,#432,.F.);
#588=ORIENTED_EDGE('',*,*,#462,.F.);
#589=ORIENTED_EDGE('',*,*,#463,.F.);
#590=ORIENTED_EDGE('',*,*,#460,.F.);
#591=ORIENTED_EDGE('',*,*,#434,.F.);
#592=ORIENTED_EDGE('',*,*,#454,.F.);
#593=ORIENTED_EDGE('',*,*,#452,.F.);
#594=ORIENTED_EDGE('',*,*,#449,.F.);
#595=ORIENTED_EDGE('',*,*,#446,.F.);
#596=ORIENTED_EDGE('',*,*,#443,.F.);
#597=ORIENTED_EDGE('',*,*,#440,.F.);
#598=ORIENTED_EDGE('',*,*,#437,.F.);
#599=ORIENTED_EDGE('',*,*,#464,.F.);
#600=ORIENTED_EDGE('',*,*,#465,.F.);
#601=ORIENTED_EDGE('',*,*,#466,.F.);
#602=ORIENTED_EDGE('',*,*,#467,.F.);
#603=ORIENTED_EDGE('',*,*,#468,.F.);
#604=ORIENTED_EDGE('',*,*,#469,.F.);
#605=ORIENTED_EDGE('',*,*,#470,.F.);
#606=ORIENTED_EDGE('',*,*,#471,.F.);
#607=ORIENTED_EDGE('',*,*,#472,.F.);
#608=ORIENTED_EDGE('',*,*,#473,.F.);
#609=ORIENTED_EDGE('',*,*,#474,.F.);
#610=ORIENTED_EDGE('',*,*,#475,.F.);
#611=ORIENTED_EDGE('',*,*,#476,.F.);
#612=ORIENTED_EDGE('',*,*,#474,.T.);
#613=ORIENTED_EDGE('',*,*,#477,.T.);
#614=ORIENTED_EDGE('',*,*,#478,.T.);
#615=ORIENTED_EDGE('',*,*,#479,.T.);
#616=ORIENTED_EDGE('',*,*,#477,.F.);
#617=ORIENTED_EDGE('',*,*,#473,.T.);
#618=ORIENTED_EDGE('',*,*,#480,.F.);
#619=ORIENTED_EDGE('',*,*,#481,.T.);
#620=ORIENTED_EDGE('',*,*,#468,.T.);
#621=ORIENTED_EDGE('',*,*,#482,.T.);
#622=ORIENTED_EDGE('',*,*,#483,.T.);
#623=ORIENTED_EDGE('',*,*,#484,.T.);
#624=ORIENTED_EDGE('',*,*,#479,.F.);
#625=ORIENTED_EDGE('',*,*,#485,.T.);
#626=ORIENTED_EDGE('',*,*,#482,.F.);
#627=ORIENTED_EDGE('',*,*,#475,.T.);
#628=ORIENTED_EDGE('',*,*,#470,.T.);
#629=ORIENTED_EDGE('',*,*,#486,.T.);
#630=ORIENTED_EDGE('',*,*,#487,.T.);
#631=ORIENTED_EDGE('',*,*,#488,.T.);
#632=ORIENTED_EDGE('',*,*,#484,.F.);
#633=ORIENTED_EDGE('',*,*,#489,.T.);
#634=ORIENTED_EDGE('',*,*,#486,.F.);
#635=ORIENTED_EDGE('',*,*,#469,.T.);
#636=ORIENTED_EDGE('',*,*,#472,.T.);
#637=ORIENTED_EDGE('',*,*,#490,.T.);
#638=ORIENTED_EDGE('',*,*,#491,.T.);
#639=ORIENTED_EDGE('',*,*,#480,.T.);
#640=ORIENTED_EDGE('',*,*,#488,.F.);
#641=ORIENTED_EDGE('',*,*,#492,.T.);
#642=ORIENTED_EDGE('',*,*,#490,.F.);
#643=ORIENTED_EDGE('',*,*,#471,.T.);
#644=ORIENTED_EDGE('',*,*,#445,.F.);
#645=ORIENTED_EDGE('',*,*,#457,.F.);
#646=ORIENTED_EDGE('',*,*,#493,.F.);
#647=ORIENTED_EDGE('',*,*,#494,.F.);
#648=ORIENTED_EDGE('',*,*,#456,.F.);
#649=ORIENTED_EDGE('',*,*,#459,.T.);
#650=ORIENTED_EDGE('',*,*,#461,.F.);
#651=ORIENTED_EDGE('',*,*,#463,.T.);
#652=ORIENTED_EDGE('',*,*,#495,.F.);
#653=ORIENTED_EDGE('',*,*,#496,.T.);
#654=ORIENTED_EDGE('',*,*,#497,.F.);
#655=ORIENTED_EDGE('',*,*,#493,.T.);
#656=ORIENTED_EDGE('',*,*,#498,.T.);
#657=ORIENTED_EDGE('',*,*,#499,.T.);
#658=ORIENTED_EDGE('',*,*,#500,.T.);
#659=ORIENTED_EDGE('',*,*,#501,.T.);
#660=ORIENTED_EDGE('',*,*,#502,.T.);
#661=ORIENTED_EDGE('',*,*,#503,.T.);
#662=ORIENTED_EDGE('',*,*,#504,.T.);
#663=ORIENTED_EDGE('',*,*,#505,.T.);
#664=ORIENTED_EDGE('',*,*,#506,.T.);
#665=ORIENTED_EDGE('',*,*,#507,.T.);
#666=ORIENTED_EDGE('',*,*,#508,.T.);
#667=ORIENTED_EDGE('',*,*,#436,.F.);
#668=ORIENTED_EDGE('',*,*,#509,.T.);
#669=ORIENTED_EDGE('',*,*,#495,.T.);
#670=ORIENTED_EDGE('',*,*,#462,.T.);
#671=ORIENTED_EDGE('',*,*,#442,.F.);
#672=ORIENTED_EDGE('',*,*,#494,.T.);
#673=ORIENTED_EDGE('',*,*,#497,.T.);
#674=ORIENTED_EDGE('',*,*,#510,.T.);
#675=ORIENTED_EDGE('',*,*,#508,.F.);
#676=ORIENTED_EDGE('',*,*,#511,.T.);
#677=ORIENTED_EDGE('',*,*,#512,.T.);
#678=ORIENTED_EDGE('',*,*,#511,.F.);
#679=ORIENTED_EDGE('',*,*,#512,.F.);
#680=ORIENTED_EDGE('',*,*,#513,.F.);
#681=ORIENTED_EDGE('',*,*,#504,.F.);
#682=ORIENTED_EDGE('',*,*,#514,.T.);
#683=ORIENTED_EDGE('',*,*,#515,.T.);
#684=ORIENTED_EDGE('',*,*,#516,.F.);
#685=ORIENTED_EDGE('',*,*,#507,.F.);
#686=ORIENTED_EDGE('',*,*,#517,.T.);
#687=ORIENTED_EDGE('',*,*,#518,.T.);
#688=ORIENTED_EDGE('',*,*,#514,.F.);
#689=ORIENTED_EDGE('',*,*,#506,.F.);
#690=ORIENTED_EDGE('',*,*,#519,.T.);
#691=ORIENTED_EDGE('',*,*,#520,.T.);
#692=ORIENTED_EDGE('',*,*,#517,.F.);
#693=ORIENTED_EDGE('',*,*,#505,.F.);
#694=ORIENTED_EDGE('',*,*,#516,.T.);
#695=ORIENTED_EDGE('',*,*,#521,.T.);
#696=ORIENTED_EDGE('',*,*,#519,.F.);
#697=ORIENTED_EDGE('',*,*,#521,.F.);
#698=ORIENTED_EDGE('',*,*,#515,.F.);
#699=ORIENTED_EDGE('',*,*,#518,.F.);
#700=ORIENTED_EDGE('',*,*,#520,.F.);
#701=ORIENTED_EDGE('',*,*,#522,.F.);
#702=ORIENTED_EDGE('',*,*,#481,.F.);
#703=ORIENTED_EDGE('',*,*,#491,.F.);
#704=ORIENTED_EDGE('',*,*,#492,.F.);
#705=ORIENTED_EDGE('',*,*,#487,.F.);
#706=ORIENTED_EDGE('',*,*,#489,.F.);
#707=ORIENTED_EDGE('',*,*,#483,.F.);
#708=ORIENTED_EDGE('',*,*,#485,.F.);
#709=ORIENTED_EDGE('',*,*,#478,.F.);
#710=ORIENTED_EDGE('',*,*,#523,.F.);
#711=ORIENTED_EDGE('',*,*,#503,.F.);
#712=ORIENTED_EDGE('',*,*,#524,.T.);
#713=ORIENTED_EDGE('',*,*,#525,.T.);
#714=ORIENTED_EDGE('',*,*,#524,.F.);
#715=ORIENTED_EDGE('',*,*,#525,.F.);
#716=ORIENTED_EDGE('',*,*,#526,.F.);
#717=ORIENTED_EDGE('',*,*,#502,.F.);
#718=ORIENTED_EDGE('',*,*,#527,.T.);
#719=ORIENTED_EDGE('',*,*,#528,.T.);
#720=ORIENTED_EDGE('',*,*,#527,.F.);
#721=ORIENTED_EDGE('',*,*,#528,.F.);
#722=ORIENTED_EDGE('',*,*,#529,.F.);
#723=ORIENTED_EDGE('',*,*,#498,.F.);
#724=ORIENTED_EDGE('',*,*,#530,.T.);
#725=ORIENTED_EDGE('',*,*,#531,.T.);
#726=ORIENTED_EDGE('',*,*,#530,.F.);
#727=ORIENTED_EDGE('',*,*,#531,.F.);
#728=ORIENTED_EDGE('',*,*,#499,.F.);
#729=ORIENTED_EDGE('',*,*,#532,.T.);
#730=ORIENTED_EDGE('',*,*,#533,.T.);
#731=ORIENTED_EDGE('',*,*,#532,.F.);
#732=ORIENTED_EDGE('',*,*,#533,.F.);
#733=ORIENTED_EDGE('',*,*,#500,.F.);
#734=ORIENTED_EDGE('',*,*,#534,.T.);
#735=ORIENTED_EDGE('',*,*,#535,.T.);
#736=ORIENTED_EDGE('',*,*,#534,.F.);
#737=ORIENTED_EDGE('',*,*,#535,.F.);
#738=ORIENTED_EDGE('',*,*,#501,.F.);
#739=ORIENTED_EDGE('',*,*,#536,.T.);
#740=ORIENTED_EDGE('',*,*,#537,.T.);
#741=ORIENTED_EDGE('',*,*,#536,.F.);
#742=ORIENTED_EDGE('',*,*,#537,.F.);
#743=ORIENTED_EDGE('',*,*,#513,.T.);
#744=ORIENTED_EDGE('',*,*,#538,.T.);
#745=ORIENTED_EDGE('',*,*,#464,.T.);
#746=ORIENTED_EDGE('',*,*,#538,.F.);
#747=ORIENTED_EDGE('',*,*,#529,.T.);
#748=ORIENTED_EDGE('',*,*,#539,.T.);
#749=ORIENTED_EDGE('',*,*,#465,.T.);
#750=ORIENTED_EDGE('',*,*,#539,.F.);
#751=ORIENTED_EDGE('',*,*,#526,.T.);
#752=ORIENTED_EDGE('',*,*,#540,.T.);
#753=ORIENTED_EDGE('',*,*,#466,.T.);
#754=ORIENTED_EDGE('',*,*,#540,.F.);
#755=ORIENTED_EDGE('',*,*,#522,.T.);
#756=ORIENTED_EDGE('',*,*,#541,.T.);
#757=ORIENTED_EDGE('',*,*,#467,.T.);
#758=ORIENTED_EDGE('',*,*,#541,.F.);
#759=ORIENTED_EDGE('',*,*,#523,.T.);
#760=ORIENTED_EDGE('',*,*,#542,.T.);
#761=ORIENTED_EDGE('',*,*,#476,.T.);
#762=ORIENTED_EDGE('',*,*,#542,.F.);
#763=ORIENTED_EDGE('',*,*,#439,.F.);
#764=ORIENTED_EDGE('',*,*,#510,.F.);
#765=ORIENTED_EDGE('',*,*,#496,.F.);
#766=ORIENTED_EDGE('',*,*,#509,.F.);
#767=PLANE('',#857);
#768=PLANE('',#861);
#769=PLANE('',#865);
#770=PLANE('',#869);
#771=PLANE('',#875);
#772=PLANE('',#878);
#773=PLANE('',#879);
#774=PLANE('',#891);
#775=PLANE('',#894);
#776=PLANE('',#897);
#777=PLANE('',#900);
#778=PLANE('',#901);
#779=PLANE('',#902);
#780=PLANE('',#916);
#781=PLANE('',#918);
#782=PLANE('',#919);
#783=PLANE('',#920);
#784=PLANE('',#921);
#785=PLANE('',#922);
#786=PLANE('',#927);
#787=PLANE('',#931);
#788=PLANE('',#935);
#789=PLANE('',#938);
#790=PLANE('',#941);
#791=PLANE('',#944);
#792=PLANE('',#950);
#793=ADVANCED_FACE('',(#103),#767,.T.);
#794=ADVANCED_FACE('',(#104),#99,.T.);
#795=ADVANCED_FACE('',(#105),#768,.T.);
#796=ADVANCED_FACE('',(#106),#100,.T.);
#797=ADVANCED_FACE('',(#107),#769,.T.);
#798=ADVANCED_FACE('',(#108),#101,.T.);
#799=ADVANCED_FACE('',(#109),#770,.T.);
#800=ADVANCED_FACE('',(#110),#102,.T.);
#801=ADVANCED_FACE('',(#111),#35,.T.);
#802=ADVANCED_FACE('',(#112),#771,.T.);
#803=ADVANCED_FACE('',(#113),#36,.T.);
#804=ADVANCED_FACE('',(#114),#772,.T.);
#805=ADVANCED_FACE('',(#115,#15,#16,#17,#18,#19,#20),#773,.F.);
#806=ADVANCED_FACE('',(#116),#37,.F.);
#807=ADVANCED_FACE('',(#117),#774,.T.);
#808=ADVANCED_FACE('',(#118),#38,.F.);
#809=ADVANCED_FACE('',(#119),#775,.T.);
#810=ADVANCED_FACE('',(#120),#39,.F.);
#811=ADVANCED_FACE('',(#121),#776,.T.);
#812=ADVANCED_FACE('',(#122),#40,.F.);
#813=ADVANCED_FACE('',(#123),#777,.T.);
#814=ADVANCED_FACE('',(#124),#778,.T.);
#815=ADVANCED_FACE('',(#125,#21,#22,#23,#24,#25,#26,#27,#28),#779,.T.);
#816=ADVANCED_FACE('',(#126),#41,.T.);
#817=ADVANCED_FACE('',(#127),#42,.T.);
#818=ADVANCED_FACE('',(#128),#43,.F.);
#819=ADVANCED_FACE('',(#129,#29),#780,.T.);
#820=ADVANCED_FACE('',(#130),#781,.F.);
#821=ADVANCED_FACE('',(#131),#782,.F.);
#822=ADVANCED_FACE('',(#132),#783,.F.);
#823=ADVANCED_FACE('',(#133),#784,.F.);
#824=ADVANCED_FACE('',(#134,#30,#31,#32),#785,.T.);
#825=ADVANCED_FACE('',(#135),#44,.F.);
#826=ADVANCED_FACE('',(#136,#33),#786,.T.);
#827=ADVANCED_FACE('',(#137),#45,.F.);
#828=ADVANCED_FACE('',(#138,#34),#787,.T.);
#829=ADVANCED_FACE('',(#139),#46,.F.);
#830=ADVANCED_FACE('',(#140),#788,.T.);
#831=ADVANCED_FACE('',(#141),#47,.F.);
#832=ADVANCED_FACE('',(#142),#789,.T.);
#833=ADVANCED_FACE('',(#143),#48,.F.);
#834=ADVANCED_FACE('',(#144),#790,.T.);
#835=ADVANCED_FACE('',(#145),#49,.F.);
#836=ADVANCED_FACE('',(#146),#791,.T.);
#837=ADVANCED_FACE('',(#147),#50,.F.);
#838=ADVANCED_FACE('',(#148),#51,.F.);
#839=ADVANCED_FACE('',(#149),#52,.F.);
#840=ADVANCED_FACE('',(#150),#53,.F.);
#841=ADVANCED_FACE('',(#151),#54,.F.);
#842=ADVANCED_FACE('',(#152),#792,.T.);
#843=CLOSED_SHELL('',(#793,#794,#795,#796,#797,#798,#799,#800,#801,#802,
#803,#804,#805,#806,#807,#808,#809,#810,#811,#812,#813,#814,#815,#816,#817,
#818,#819,#820,#821,#822,#823,#824,#825,#826,#827,#828,#829,#830,#831,#832,
#833,#834,#835,#836,#837,#838,#839,#840,#841,#842));
#844=DERIVED_UNIT_ELEMENT(#846,1.);
#845=DERIVED_UNIT_ELEMENT(#1449,-3.);
#846=(
MASS_UNIT()
NAMED_UNIT(*)
SI_UNIT(.KILO.,.GRAM.)
);
#847=DERIVED_UNIT((#844,#845));
#848=MEASURE_REPRESENTATION_ITEM('density measure',
POSITIVE_RATIO_MEASURE(7850.),#847);
#849=PROPERTY_DEFINITION_REPRESENTATION(#854,#851);
#850=PROPERTY_DEFINITION_REPRESENTATION(#855,#852);
#851=REPRESENTATION('material name',(#853),#1446);
#852=REPRESENTATION('density',(#848),#1446);
#853=DESCRIPTIVE_REPRESENTATION_ITEM('Stahl','Stahl');
#854=PROPERTY_DEFINITION('material property','material name',#1456);
#855=PROPERTY_DEFINITION('material property','density of part',#1456);
#856=AXIS2_PLACEMENT_3D('',#1209,#951,#952);
#857=AXIS2_PLACEMENT_3D('',#1210,#953,#954);
#858=AXIS2_PLACEMENT_3D('',#1219,#959,#960);
#859=AXIS2_PLACEMENT_3D('',#1223,#962,#963);
#860=AXIS2_PLACEMENT_3D('',#1224,#964,#965);
#861=AXIS2_PLACEMENT_3D('',#1225,#966,#967);
#862=AXIS2_PLACEMENT_3D('',#1231,#971,#972);
#863=AXIS2_PLACEMENT_3D('',#1235,#974,#975);
#864=AXIS2_PLACEMENT_3D('',#1236,#976,#977);
#865=AXIS2_PLACEMENT_3D('',#1237,#978,#979);
#866=AXIS2_PLACEMENT_3D('',#1243,#983,#984);
#867=AXIS2_PLACEMENT_3D('',#1247,#986,#987);
#868=AXIS2_PLACEMENT_3D('',#1248,#988,#989);
#869=AXIS2_PLACEMENT_3D('',#1249,#990,#991);
#870=AXIS2_PLACEMENT_3D('',#1255,#995,#996);
#871=AXIS2_PLACEMENT_3D('',#1256,#997,#998);
#872=AXIS2_PLACEMENT_3D('',#1257,#999,#1000);
#873=AXIS2_PLACEMENT_3D('',#1258,#1001,#1002);
#874=AXIS2_PLACEMENT_3D('',#1262,#1004,#1005);
#875=AXIS2_PLACEMENT_3D('',#1264,#1007,#1008);
#876=AXIS2_PLACEMENT_3D('',#1268,#1011,#1012);
#877=AXIS2_PLACEMENT_3D('',#1271,#1014,#1015);
#878=AXIS2_PLACEMENT_3D('',#1272,#1016,#1017);
#879=AXIS2_PLACEMENT_3D('',#1276,#1020,#1021);
#880=AXIS2_PLACEMENT_3D('',#1278,#1022,#1023);
#881=AXIS2_PLACEMENT_3D('',#1280,#1024,#1025);
#882=AXIS2_PLACEMENT_3D('',#1282,#1026,#1027);
#883=AXIS2_PLACEMENT_3D('',#1284,#1028,#1029);
#884=AXIS2_PLACEMENT_3D('',#1287,#1030,#1031);
#885=AXIS2_PLACEMENT_3D('',#1291,#1033,#1034);
#886=AXIS2_PLACEMENT_3D('',#1295,#1036,#1037);
#887=AXIS2_PLACEMENT_3D('',#1299,#1039,#1040);
#888=AXIS2_PLACEMENT_3D('',#1302,#1042,#1043);
#889=AXIS2_PLACEMENT_3D('',#1303,#1044,#1045);
#890=AXIS2_PLACEMENT_3D('',#1307,#1047,#1048);
#891=AXIS2_PLACEMENT_3D('',#1309,#1050,#1051);
#892=AXIS2_PLACEMENT_3D('',#1313,#1054,#1055);
#893=AXIS2_PLACEMENT_3D('',#1317,#1057,#1058);
#894=AXIS2_PLACEMENT_3D('',#1319,#1060,#1061);
#895=AXIS2_PLACEMENT_3D('',#1321,#1063,#1064);
#896=AXIS2_PLACEMENT_3D('',#1325,#1066,#1067);
#897=AXIS2_PLACEMENT_3D('',#1327,#1069,#1070);
#898=AXIS2_PLACEMENT_3D('',#1329,#1072,#1073);
#899=AXIS2_PLACEMENT_3D('',#1332,#1075,#1076);
#900=AXIS2_PLACEMENT_3D('',#1333,#1077,#1078);
#901=AXIS2_PLACEMENT_3D('',#1335,#1080,#1081);
#902=AXIS2_PLACEMENT_3D('',#1339,#1084,#1085);
#903=AXIS2_PLACEMENT_3D('',#1341,#1086,#1087);
#904=AXIS2_PLACEMENT_3D('',#1344,#1089,#1090);
#905=AXIS2_PLACEMENT_3D('',#1346,#1091,#1092);
#906=AXIS2_PLACEMENT_3D('',#1348,#1093,#1094);
#907=AXIS2_PLACEMENT_3D('',#1350,#1095,#1096);
#908=AXIS2_PLACEMENT_3D('',#1352,#1097,#1098);
#909=AXIS2_PLACEMENT_3D('',#1354,#1099,#1100);
#910=AXIS2_PLACEMENT_3D('',#1356,#1101,#1102);
#911=AXIS2_PLACEMENT_3D('',#1366,#1107,#1108);
#912=AXIS2_PLACEMENT_3D('',#1367,#1109,#1110);
#913=AXIS2_PLACEMENT_3D('',#1369,#1112,#1113);
#914=AXIS2_PLACEMENT_3D('',#1371,#1115,#1116);
#915=AXIS2_PLACEMENT_3D('',#1374,#1118,#1119);
#916=AXIS2_PLACEMENT_3D('',#1375,#1120,#1121);
#917=AXIS2_PLACEMENT_3D('',#1377,#1122,#1123);
#918=AXIS2_PLACEMENT_3D('',#1378,#1124,#1125);
#919=AXIS2_PLACEMENT_3D('',#1384,#1129,#1130);
#920=AXIS2_PLACEMENT_3D('',#1388,#1133,#1134);
#921=AXIS2_PLACEMENT_3D('',#1392,#1137,#1138);
#922=AXIS2_PLACEMENT_3D('',#1394,#1140,#1141);
#923=AXIS2_PLACEMENT_3D('',#1396,#1142,#1143);
#924=AXIS2_PLACEMENT_3D('',#1398,#1144,#1145);
#925=AXIS2_PLACEMENT_3D('',#1399,#1146,#1147);
#926=AXIS2_PLACEMENT_3D('',#1402,#1149,#1150);
#927=AXIS2_PLACEMENT_3D('',#1403,#1151,#1152);
#928=AXIS2_PLACEMENT_3D('',#1405,#1153,#1154);
#929=AXIS2_PLACEMENT_3D('',#1406,#1155,#1156);
#930=AXIS2_PLACEMENT_3D('',#1409,#1158,#1159);
#931=AXIS2_PLACEMENT_3D('',#1410,#1160,#1161);
#932=AXIS2_PLACEMENT_3D('',#1412,#1162,#1163);
#933=AXIS2_PLACEMENT_3D('',#1413,#1164,#1165);
#934=AXIS2_PLACEMENT_3D('',#1416,#1167,#1168);
#935=AXIS2_PLACEMENT_3D('',#1417,#1169,#1170);
#936=AXIS2_PLACEMENT_3D('',#1418,#1171,#1172);
#937=AXIS2_PLACEMENT_3D('',#1421,#1174,#1175);
#938=AXIS2_PLACEMENT_3D('',#1422,#1176,#1177);
#939=AXIS2_PLACEMENT_3D('',#1423,#1178,#1179);
#940=AXIS2_PLACEMENT_3D('',#1426,#1181,#1182);
#941=AXIS2_PLACEMENT_3D('',#1427,#1183,#1184);
#942=AXIS2_PLACEMENT_3D('',#1428,#1185,#1186);
#943=AXIS2_PLACEMENT_3D('',#1431,#1188,#1189);
#944=AXIS2_PLACEMENT_3D('',#1432,#1190,#1191);
#945=AXIS2_PLACEMENT_3D('',#1433,#1192,#1193);
#946=AXIS2_PLACEMENT_3D('',#1435,#1195,#1196);
#947=AXIS2_PLACEMENT_3D('',#1437,#1198,#1199);
#948=AXIS2_PLACEMENT_3D('',#1439,#1201,#1202);
#949=AXIS2_PLACEMENT_3D('',#1441,#1204,#1205);
#950=AXIS2_PLACEMENT_3D('',#1443,#1207,#1208);
#951=DIRECTION('axis',(0.,0.,1.));
#952=DIRECTION('refdir',(1.,0.,0.));
#953=DIRECTION('center_axis',(0.707106781186547,0.,-0.707106781186548));
#954=DIRECTION('ref_axis',(-0.707106781186548,0.,-0.707106781186547));
#955=DIRECTION('',(0.707106781186548,0.,0.707106781186547));
#956=DIRECTION('',(0.,-1.,0.));
#957=DIRECTION('',(-0.707106781186548,0.,-0.707106781186547));
#958=DIRECTION('',(0.,1.,0.));
#959=DIRECTION('center_axis',(0.,0.,1.));
#960=DIRECTION('ref_axis',(0.707106781186547,0.707106781186547,0.));
#961=DIRECTION('',(0.,0.707106781186548,0.707106781186547));
#962=DIRECTION('center_axis',(0.,0.,-1.));
#963=DIRECTION('ref_axis',(0.707106781186547,0.707106781186547,0.));
#964=DIRECTION('center_axis',(0.,0.,1.));
#965=DIRECTION('ref_axis',(0.707106781186548,0.707106781186548,0.));
#966=DIRECTION('center_axis',(0.,0.707106781186547,-0.707106781186548));
#967=DIRECTION('ref_axis',(-1.,0.,0.));
#968=DIRECTION('',(0.,0.707106781186548,0.707106781186547));
#969=DIRECTION('',(1.,0.,0.));
#970=DIRECTION('',(-1.,0.,0.));
#971=DIRECTION('center_axis',(0.,0.,1.));
#972=DIRECTION('ref_axis',(-0.707106781186547,0.707106781186547,0.));
#973=DIRECTION('',(-0.707106781186548,0.,0.707106781186547));
#974=DIRECTION('center_axis',(0.,0.,-1.));
#975=DIRECTION('ref_axis',(-0.707106781186547,0.707106781186547,0.));
#976=DIRECTION('center_axis',(0.,0.,1.));
#977=DIRECTION('ref_axis',(-0.707106781186548,0.707106781186548,0.));
#978=DIRECTION('center_axis',(-0.707106781186548,0.,-0.707106781186547));
#979=DIRECTION('ref_axis',(-0.707106781186547,0.,0.707106781186548));
#980=DIRECTION('',(-0.707106781186547,0.,0.707106781186548));
#981=DIRECTION('',(0.,1.,0.));
#982=DIRECTION('',(0.,-1.,0.));
#983=DIRECTION('center_axis',(0.,0.,1.));
#984=DIRECTION('ref_axis',(-0.707106781186548,-0.707106781186548,0.));
#985=DIRECTION('',(0.,-0.707106781186547,0.707106781186547));
#986=DIRECTION('center_axis',(0.,0.,-1.));
#987=DIRECTION('ref_axis',(-0.707106781186547,-0.707106781186547,0.));
#988=DIRECTION('center_axis',(0.,0.,1.));
#989=DIRECTION('ref_axis',(-0.707106781186547,-0.707106781186547,0.));
#990=DIRECTION('center_axis',(1.74315279842105E-33,-0.707106781186548,-0.707106781186547));
#991=DIRECTION('ref_axis',(-1.,0.,-2.46519032881566E-33));
#992=DIRECTION('',(0.,-0.707106781186547,0.707106781186548));
#993=DIRECTION('',(-1.,-2.46519032881566E-33,0.));
#994=DIRECTION('',(1.,2.46519032881566E-33,0.));
#995=DIRECTION('center_axis',(0.,0.,1.));
#996=DIRECTION('ref_axis',(0.707106781186547,-0.707106781186547,0.));
#997=DIRECTION('center_axis',(0.,0.,-1.));
#998=DIRECTION('ref_axis',(0.707106781186547,-0.707106781186547,0.));
#999=DIRECTION('center_axis',(0.,0.,1.));
#1000=DIRECTION('ref_axis',(0.707106781186548,-0.707106781186548,0.));
#1001=DIRECTION('center_axis',(0.,0.,1.));
#1002=DIRECTION('ref_axis',(-0.707106781186547,-0.707106781186547,0.));
#1003=DIRECTION('',(0.,0.,1.));
#1004=DIRECTION('center_axis',(0.,0.,-1.));
#1005=DIRECTION('ref_axis',(-0.707106781186547,-0.707106781186547,0.));
#1006=DIRECTION('',(0.,0.,-1.));
#1007=DIRECTION('center_axis',(2.46519032881566E-33,-1.,0.));
#1008=DIRECTION('ref_axis',(1.,2.46519032881566E-33,0.));
#1009=DIRECTION('',(0.,0.,-1.));
#1010=DIRECTION('',(1.,2.46519032881566E-33,0.));
#1011=DIRECTION('center_axis',(0.,0.,1.));
#1012=DIRECTION('ref_axis',(0.707106781186547,-0.707106781186547,0.));
#1013=DIRECTION('',(0.,0.,1.));
#1014=DIRECTION('center_axis',(0.,0.,-1.));
#1015=DIRECTION('ref_axis',(0.707106781186547,-0.707106781186547,0.));
#1016=DIRECTION('center_axis',(1.,0.,0.));
#1017=DIRECTION('ref_axis',(0.,1.,0.));
#1018=DIRECTION('',(0.,0.,-1.));
#1019=DIRECTION('',(0.,1.,0.));
#1020=DIRECTION('center_axis',(0.,0.,1.));
#1021=DIRECTION('ref_axis',(1.,0.,0.));
#1022=DIRECTION('center_axis',(0.,0.,-1.));
#1023=DIRECTION('ref_axis',(1.,0.,0.));
#1024=DIRECTION('center_axis',(0.,0.,-1.));
#1025=DIRECTION('ref_axis',(1.,0.,0.));
#1026=DIRECTION('center_axis',(0.,0.,-1.));
#1027=DIRECTION('ref_axis',(1.,0.,0.));
#1028=DIRECTION('center_axis',(0.,0.,-1.));
#1029=DIRECTION('ref_axis',(1.,0.,0.));
#1030=DIRECTION('center_axis',(0.,0.,-1.));
#1031=DIRECTION('ref_axis',(-0.675784870959373,-0.737098913431857,0.));
#1032=DIRECTION('',(-1.,-2.46716227694479E-16,0.));
#1033=DIRECTION('center_axis',(0.,0.,-1.));
#1034=DIRECTION('ref_axis',(0.675784870959375,-0.737098913431854,0.));
#1035=DIRECTION('',(-0.0866296163648424,-0.996240588195683,0.));
#1036=DIRECTION('center_axis',(0.,0.,-1.));
#1037=DIRECTION('ref_axis',(0.737098913431855,0.675784870959375,0.));
#1038=DIRECTION('',(1.,0.,0.));
#1039=DIRECTION('center_axis',(0.,0.,-1.));
#1040=DIRECTION('ref_axis',(-0.737098913431854,0.675784870959376,0.));
#1041=DIRECTION('',(-0.0866296163648424,0.996240588195683,0.));
#1042=DIRECTION('center_axis',(0.,0.,-1.));
#1043=DIRECTION('ref_axis',(1.,0.,0.));
#1044=DIRECTION('center_axis',(0.,0.,1.));
#1045=DIRECTION('ref_axis',(-0.737098913431854,0.675784870959376,0.));
#1046=DIRECTION('',(0.,0.,1.));
#1047=DIRECTION('center_axis',(0.,0.,1.));
#1048=DIRECTION('ref_axis',(-0.737098913431854,0.675784870959376,0.));
#1049=DIRECTION('',(0.,0.,-1.));
#1050=DIRECTION('center_axis',(0.,-1.,0.));
#1051=DIRECTION('ref_axis',(1.,0.,0.));
#1052=DIRECTION('',(0.,0.,-1.));
#1053=DIRECTION('',(-1.,0.,0.));
#1054=DIRECTION('center_axis',(0.,0.,1.));
#1055=DIRECTION('ref_axis',(-0.675784870959373,-0.737098913431857,0.));
#1056=DIRECTION('',(0.,0.,1.));
#1057=DIRECTION('center_axis',(0.,0.,1.));
#1058=DIRECTION('ref_axis',(-0.675784870959373,-0.737098913431857,0.));
#1059=DIRECTION('',(0.,0.,-1.));
#1060=DIRECTION('center_axis',(0.996240588195683,0.0866296163648424,0.));
#1061=DIRECTION('ref_axis',(-0.0866296163648424,0.996240588195683,0.));
#1062=DIRECTION('',(0.0866296163648424,-0.996240588195683,0.));
#1063=DIRECTION('center_axis',(0.,0.,1.));
#1064=DIRECTION('ref_axis',(0.675784870959375,-0.737098913431854,0.));
#1065=DIRECTION('',(0.,0.,1.));
#1066=DIRECTION('center_axis',(0.,0.,1.));
#1067=DIRECTION('ref_axis',(0.675784870959375,-0.737098913431854,0.));
#1068=DIRECTION('',(0.,0.,-1.));
#1069=DIRECTION('center_axis',(-2.46716227694479E-16,1.,0.));
#1070=DIRECTION('ref_axis',(-1.,-2.46716227694479E-16,0.));
#1071=DIRECTION('',(1.,2.46716227694479E-16,0.));
#1072=DIRECTION('center_axis',(0.,0.,1.));
#1073=DIRECTION('ref_axis',(0.737098913431855,0.675784870959375,0.));
#1074=DIRECTION('',(0.,0.,1.));
#1075=DIRECTION('center_axis',(0.,0.,1.));
#1076=DIRECTION('ref_axis',(0.737098913431855,0.675784870959375,0.));
#1077=DIRECTION('center_axis',(-0.996240588195683,0.0866296163648424,0.));
#1078=DIRECTION('ref_axis',(-0.0866296163648424,-0.996240588195683,0.));
#1079=DIRECTION('',(0.0866296163648424,0.996240588195683,0.));
#1080=DIRECTION('center_axis',(-1.,0.,0.));
#1081=DIRECTION('ref_axis',(0.,-1.,0.));
#1082=DIRECTION('',(0.,-1.,0.));
#1083=DIRECTION('',(0.,0.,1.));
#1084=DIRECTION('center_axis',(0.,0.,1.));
#1085=DIRECTION('ref_axis',(1.,0.,0.));
#1086=DIRECTION('center_axis',(0.,0.,-1.));
#1087=DIRECTION('ref_axis',(0.707106781186547,0.707106781186547,0.));
#1088=DIRECTION('',(-1.,0.,0.));
#1089=DIRECTION('center_axis',(0.,0.,-1.));
#1090=DIRECTION('ref_axis',(-0.707106781186547,0.707106781186547,0.));
#1091=DIRECTION('center_axis',(0.,0.,-1.));
#1092=DIRECTION('ref_axis',(-1.,0.,0.));
#1093=DIRECTION('center_axis',(0.,0.,-1.));
#1094=DIRECTION('ref_axis',(-1.,0.,0.));
#1095=DIRECTION('center_axis',(0.,0.,-1.));
#1096=DIRECTION('ref_axis',(-1.,0.,0.));
#1097=DIRECTION('center_axis',(0.,0.,-1.));
#1098=DIRECTION('ref_axis',(-1.,0.,0.));
#1099=DIRECTION('center_axis',(0.,0.,-1.));
#1100=DIRECTION('ref_axis',(-1.,0.,0.));
#1101=DIRECTION('center_axis',(0.,0.,-1.));
#1102=DIRECTION('ref_axis',(-1.,0.,0.));
#1103=DIRECTION('',(0.,1.,0.));
#1104=DIRECTION('',(1.,0.,0.));
#1105=DIRECTION('',(0.,-1.,0.));
#1106=DIRECTION('',(-1.,0.,0.));
#1107=DIRECTION('center_axis',(0.,0.,-1.));
#1108=DIRECTION('ref_axis',(-1.,0.,0.));
#1109=DIRECTION('center_axis',(0.,0.,1.));
#1110=DIRECTION('ref_axis',(0.707106781186547,0.707106781186547,0.));
#1111=DIRECTION('',(0.,0.,1.));
#1112=DIRECTION('center_axis',(0.,0.,1.));
#1113=DIRECTION('ref_axis',(-0.707106781186547,0.707106781186547,0.));
#1114=DIRECTION('',(0.,0.,-1.));
#1115=DIRECTION('center_axis',(0.,0.,-1.));
#1116=DIRECTION('ref_axis',(-1.,0.,0.));
#1117=DIRECTION('',(0.,0.,-1.));
#1118=DIRECTION('center_axis',(0.,0.,-1.));
#1119=DIRECTION('ref_axis',(-1.,0.,0.));
#1120=DIRECTION('center_axis',(0.,0.,1.));
#1121=DIRECTION('ref_axis',(-1.,0.,0.));
#1122=DIRECTION('center_axis',(0.,0.,1.));
#1123=DIRECTION('ref_axis',(1.,0.,0.));
#1124=DIRECTION('center_axis',(-1.,0.,0.));
#1125=DIRECTION('ref_axis',(0.,1.,0.));
#1126=DIRECTION('',(0.,0.,-1.));
#1127=DIRECTION('',(0.,1.,0.));
#1128=DIRECTION('',(0.,0.,-1.));
#1129=DIRECTION('center_axis',(0.,-1.,0.));
#1130=DIRECTION('ref_axis',(-1.,0.,0.));
#1131=DIRECTION('',(0.,0.,-1.));
#1132=DIRECTION('',(-1.,0.,0.));
#1133=DIRECTION('center_axis',(1.,0.,0.));
#1134=DIRECTION('ref_axis',(0.,-1.,0.));
#1135=DIRECTION('',(0.,0.,-1.));
#1136=DIRECTION('',(0.,-1.,0.));
#1137=DIRECTION('center_axis',(0.,1.,0.));
#1138=DIRECTION('ref_axis',(1.,0.,0.));
#1139=DIRECTION('',(1.,0.,0.));
#1140=DIRECTION('center_axis',(0.,0.,1.));
#1141=DIRECTION('ref_axis',(-1.,0.,0.));
#1142=DIRECTION('center_axis',(0.,0.,1.));
#1143=DIRECTION('ref_axis',(1.,0.,0.));
#1144=DIRECTION('center_axis',(0.,0.,1.));
#1145=DIRECTION('ref_axis',(1.,0.,0.));
#1146=DIRECTION('center_axis',(0.,0.,-1.));
#1147=DIRECTION('ref_axis',(-1.,0.,0.));
#1148=DIRECTION('',(0.,0.,-1.));
#1149=DIRECTION('center_axis',(0.,0.,-1.));
#1150=DIRECTION('ref_axis',(-1.,0.,0.));
#1151=DIRECTION('center_axis',(0.,0.,1.));
#1152=DIRECTION('ref_axis',(-1.,0.,0.));
#1153=DIRECTION('center_axis',(0.,0.,1.));
#1154=DIRECTION('ref_axis',(1.,0.,0.));
#1155=DIRECTION('center_axis',(0.,0.,-1.));
#1156=DIRECTION('ref_axis',(-1.,0.,0.));
#1157=DIRECTION('',(0.,0.,-1.));
#1158=DIRECTION('center_axis',(0.,0.,-1.));
#1159=DIRECTION('ref_axis',(-1.,0.,0.));
#1160=DIRECTION('center_axis',(0.,0.,1.));
#1161=DIRECTION('ref_axis',(-1.,0.,0.));
#1162=DIRECTION('center_axis',(0.,0.,1.));
#1163=DIRECTION('ref_axis',(1.,0.,0.));
#1164=DIRECTION('center_axis',(0.,0.,-1.));
#1165=DIRECTION('ref_axis',(-1.,0.,0.));
#1166=DIRECTION('',(0.,0.,-1.));
#1167=DIRECTION('center_axis',(0.,0.,-1.));
#1168=DIRECTION('ref_axis',(-1.,0.,0.));
#1169=DIRECTION('center_axis',(0.,0.,1.));
#1170=DIRECTION('ref_axis',(-1.,0.,0.));
#1171=DIRECTION('center_axis',(0.,0.,-1.));
#1172=DIRECTION('ref_axis',(-1.,0.,0.));
#1173=DIRECTION('',(0.,0.,-1.));
#1174=DIRECTION('center_axis',(0.,0.,-1.));
#1175=DIRECTION('ref_axis',(-1.,0.,0.));
#1176=DIRECTION('center_axis',(0.,0.,1.));
#1177=DIRECTION('ref_axis',(-1.,0.,0.));
#1178=DIRECTION('center_axis',(0.,0.,-1.));
#1179=DIRECTION('ref_axis',(-1.,0.,0.));
#1180=DIRECTION('',(0.,0.,-1.));
#1181=DIRECTION('center_axis',(0.,0.,-1.));
#1182=DIRECTION('ref_axis',(-1.,0.,0.));
#1183=DIRECTION('center_axis',(0.,0.,1.));
#1184=DIRECTION('ref_axis',(-1.,0.,0.));
#1185=DIRECTION('center_axis',(0.,0.,-1.));
#1186=DIRECTION('ref_axis',(-1.,0.,0.));
#1187=DIRECTION('',(0.,0.,-1.));
#1188=DIRECTION('center_axis',(0.,0.,-1.));
#1189=DIRECTION('ref_axis',(-1.,0.,0.));
#1190=DIRECTION('center_axis',(0.,0.,1.));
#1191=DIRECTION('ref_axis',(-1.,0.,0.));
#1192=DIRECTION('center_axis',(0.,0.,1.));
#1193=DIRECTION('ref_axis',(1.,0.,0.));
#1194=DIRECTION('',(0.,0.,-1.));
#1195=DIRECTION('center_axis',(0.,0.,1.));
#1196=DIRECTION('ref_axis',(1.,0.,0.));
#1197=DIRECTION('',(0.,0.,-1.));
#1198=DIRECTION('center_axis',(0.,0.,1.));
#1199=DIRECTION('ref_axis',(1.,0.,0.));
#1200=DIRECTION('',(0.,0.,-1.));
#1201=DIRECTION('center_axis',(0.,0.,1.));
#1202=DIRECTION('ref_axis',(1.,0.,0.));
#1203=DIRECTION('',(0.,0.,-1.));
#1204=DIRECTION('center_axis',(0.,0.,1.));
#1205=DIRECTION('ref_axis',(1.,0.,0.));
#1206=DIRECTION('',(0.,0.,-1.));
#1207=DIRECTION('center_axis',(0.,1.,0.));
#1208=DIRECTION('ref_axis',(-1.,0.,0.));
#1209=CARTESIAN_POINT('',(0.,0.,0.));
#1210=CARTESIAN_POINT('Origin',(48.,17.5,2.));
#1211=CARTESIAN_POINT('',(46.,65.,0.));
#1212=CARTESIAN_POINT('',(50.,65.,4.));
#1213=CARTESIAN_POINT('',(46.,65.,0.));
#1214=CARTESIAN_POINT('',(50.,5.,4.));
#1215=CARTESIAN_POINT('',(50.,17.5,4.));
#1216=CARTESIAN_POINT('',(46.,5.,0.));
#1217=CARTESIAN_POINT('',(50.,5.,4.));
#1218=CARTESIAN_POINT('',(46.,17.5,0.));
#1219=CARTESIAN_POINT('Origin',(45.,65.,2.));
#1220=CARTESIAN_POINT('',(45.,66.,0.));
#1221=CARTESIAN_POINT('',(45.,70.,4.));
#1222=CARTESIAN_POINT('',(45.,66.,0.));
#1223=CARTESIAN_POINT('Origin',(45.,65.,4.));
#1224=CARTESIAN_POINT('Origin',(45.,65.,0.));
#1225=CARTESIAN_POINT('Origin',(37.5,68.,2.));
#1226=CARTESIAN_POINT('',(5.,66.,0.));
#1227=CARTESIAN_POINT('',(5.,70.,4.));
#1228=CARTESIAN_POINT('',(5.,66.,0.));
#1229=CARTESIAN_POINT('',(37.5,70.,4.));
#1230=CARTESIAN_POINT('',(37.5,66.,0.));
#1231=CARTESIAN_POINT('Origin',(5.,65.,2.));
#1232=CARTESIAN_POINT('',(4.,65.,0.));
#1233=CARTESIAN_POINT('',(0.,65.,4.));
#1234=CARTESIAN_POINT('',(4.,65.,0.));
#1235=CARTESIAN_POINT('Origin',(5.,65.,4.));
#1236=CARTESIAN_POINT('Origin',(5.,65.,0.));
#1237=CARTESIAN_POINT('Origin',(2.,52.5,2.));
#1238=CARTESIAN_POINT('',(4.,5.,0.));
#1239=CARTESIAN_POINT('',(0.,5.,4.));
#1240=CARTESIAN_POINT('',(4.,5.,0.));
#1241=CARTESIAN_POINT('',(0.,52.5,4.));
#1242=CARTESIAN_POINT('',(4.,52.5,0.));
#1243=CARTESIAN_POINT('Origin',(5.,5.,2.));
#1244=CARTESIAN_POINT('',(5.,4.,0.));
#1245=CARTESIAN_POINT('',(5.,0.,4.));
#1246=CARTESIAN_POINT('',(5.,4.,0.));
#1247=CARTESIAN_POINT('Origin',(5.,5.,4.));
#1248=CARTESIAN_POINT('Origin',(5.,5.,0.));
#1249=CARTESIAN_POINT('Origin',(12.5,2.,2.));
#1250=CARTESIAN_POINT('',(45.,4.,0.));
#1251=CARTESIAN_POINT('',(45.,0.,4.));
#1252=CARTESIAN_POINT('',(45.,4.,0.));
#1253=CARTESIAN_POINT('',(12.5,0.,4.));
#1254=CARTESIAN_POINT('',(12.5,4.,0.));
#1255=CARTESIAN_POINT('Origin',(45.,5.,2.));
#1256=CARTESIAN_POINT('Origin',(45.,5.,4.));
#1257=CARTESIAN_POINT('Origin',(45.,5.,0.));
#1258=CARTESIAN_POINT('Origin',(5.,5.,0.));
#1259=CARTESIAN_POINT('',(5.,1.23259516440783E-32,5.));
#1260=CARTESIAN_POINT('',(5.,0.,0.));
#1261=CARTESIAN_POINT('',(0.,5.,5.));
#1262=CARTESIAN_POINT('Origin',(5.,5.,5.));
#1263=CARTESIAN_POINT('',(0.,5.,0.));
#1264=CARTESIAN_POINT('Origin',(0.,0.,0.));
#1265=CARTESIAN_POINT('',(45.,1.10933564796705E-31,5.));
#1266=CARTESIAN_POINT('',(45.,0.,0.));
#1267=CARTESIAN_POINT('',(0.,0.,5.));
#1268=CARTESIAN_POINT('Origin',(45.,5.,0.));
#1269=CARTESIAN_POINT('',(50.,5.,5.));
#1270=CARTESIAN_POINT('',(50.,5.,0.));
#1271=CARTESIAN_POINT('Origin',(45.,5.,5.));
#1272=CARTESIAN_POINT('Origin',(50.,1.23259516440783E-31,0.));
#1273=CARTESIAN_POINT('',(50.,65.,5.));
#1274=CARTESIAN_POINT('',(50.,65.,0.));
#1275=CARTESIAN_POINT('',(50.,1.23259516440783E-31,5.));
#1276=CARTESIAN_POINT('Origin',(25.,35.,0.));
#1277=CARTESIAN_POINT('',(32.3,15.,0.));
#1278=CARTESIAN_POINT('Origin',(35.,15.,0.));
#1279=CARTESIAN_POINT('',(21.5,55.,0.));
#1280=CARTESIAN_POINT('Origin',(25.,55.,0.));
#1281=CARTESIAN_POINT('',(12.3,15.,0.));
#1282=CARTESIAN_POINT('Origin',(15.,15.,0.));
#1283=CARTESIAN_POINT('',(36.,35.75,0.));
#1284=CARTESIAN_POINT('Origin',(37.5,35.75,0.));
#1285=CARTESIAN_POINT('',(17.8336341531505,30.,0.));
#1286=CARTESIAN_POINT('',(15.8411529767591,31.8267407672703,0.));
#1287=CARTESIAN_POINT('Origin',(17.8336341531505,32.,0.));
#1288=CARTESIAN_POINT('',(32.1663658468495,30.,0.));
#1289=CARTESIAN_POINT('',(34.,30.,0.));
#1290=CARTESIAN_POINT('',(34.1588470232409,31.8267407672703,0.));
#1291=CARTESIAN_POINT('Origin',(32.1663658468495,32.,0.));
#1292=CARTESIAN_POINT('',(34.8110209362844,39.3267407672703,0.));
#1293=CARTESIAN_POINT('',(35.,41.5,0.));
#1294=CARTESIAN_POINT('',(32.818539759893,41.5,0.));
#1295=CARTESIAN_POINT('Origin',(32.818539759893,39.5,0.));
#1296=CARTESIAN_POINT('',(17.181460240107,41.5,0.));
#1297=CARTESIAN_POINT('',(15.,41.5,0.));
#1298=CARTESIAN_POINT('',(15.1889790637156,39.3267407672703,0.));
#1299=CARTESIAN_POINT('Origin',(17.181460240107,39.5,0.));
#1300=CARTESIAN_POINT('',(15.,41.5,0.));
#1301=CARTESIAN_POINT('',(11.,35.75,0.));
#1302=CARTESIAN_POINT('Origin',(12.5,35.75,0.));
#1303=CARTESIAN_POINT('Origin',(17.181460240107,39.5,0.));
#1304=CARTESIAN_POINT('',(17.181460240107,41.5,1.));
#1305=CARTESIAN_POINT('',(17.181460240107,41.5,0.));
#1306=CARTESIAN_POINT('',(15.1889790637156,39.3267407672703,1.));
#1307=CARTESIAN_POINT('Origin',(17.181460240107,39.5,1.));
#1308=CARTESIAN_POINT('',(15.1889790637156,39.3267407672703,0.));
#1309=CARTESIAN_POINT('Origin',(15.,41.5,0.));
#1310=CARTESIAN_POINT('',(32.818539759893,41.5,1.));
#1311=CARTESIAN_POINT('',(32.818539759893,41.5,0.));
#1312=CARTESIAN_POINT('',(20.,41.5,1.));
#1313=CARTESIAN_POINT('Origin',(17.8336341531505,32.,0.));
#1314=CARTESIAN_POINT('',(15.8411529767591,31.8267407672703,1.));
#1315=CARTESIAN_POINT('',(15.8411529767591,31.8267407672703,0.));
#1316=CARTESIAN_POINT('',(17.8336341531505,30.,1.));
#1317=CARTESIAN_POINT('Origin',(17.8336341531505,32.,1.));
#1318=CARTESIAN_POINT('',(17.8336341531505,30.,0.));
#1319=CARTESIAN_POINT('Origin',(16.,30.,0.));
#1320=CARTESIAN_POINT('',(15.7856472795497,32.4650562851782,1.));
#1321=CARTESIAN_POINT('Origin',(32.1663658468495,32.,0.));
#1322=CARTESIAN_POINT('',(32.1663658468495,30.,1.));
#1323=CARTESIAN_POINT('',(32.1663658468495,30.,0.));
#1324=CARTESIAN_POINT('',(34.1588470232409,31.8267407672703,1.));
#1325=CARTESIAN_POINT('Origin',(32.1663658468495,32.,1.));
#1326=CARTESIAN_POINT('',(34.1588470232409,31.8267407672703,0.));
#1327=CARTESIAN_POINT('Origin',(34.,30.,0.));
#1328=CARTESIAN_POINT('',(29.5,30.,1.));
#1329=CARTESIAN_POINT('Origin',(32.818539759893,39.5,0.));
#1330=CARTESIAN_POINT('',(34.8110209362844,39.3267407672703,1.));
#1331=CARTESIAN_POINT('',(34.8110209362844,39.3267407672703,0.));
#1332=CARTESIAN_POINT('Origin',(32.818539759893,39.5,1.));
#1333=CARTESIAN_POINT('Origin',(35.,41.5,0.));
#1334=CARTESIAN_POINT('',(34.7143527204503,38.2150562851782,1.));
#1335=CARTESIAN_POINT('Origin',(0.,70.,0.));
#1336=CARTESIAN_POINT('',(0.,65.,5.));
#1337=CARTESIAN_POINT('',(0.,70.,5.));
#1338=CARTESIAN_POINT('',(0.,65.,0.));
#1339=CARTESIAN_POINT('Origin',(25.,35.,5.));
#1340=CARTESIAN_POINT('',(45.,70.,5.));
#1341=CARTESIAN_POINT('Origin',(45.,65.,5.));
#1342=CARTESIAN_POINT('',(5.,70.,5.));
#1343=CARTESIAN_POINT('',(50.,70.,5.));
#1344=CARTESIAN_POINT('Origin',(5.,65.,5.));
#1345=CARTESIAN_POINT('',(8.35,7.,5.));
#1346=CARTESIAN_POINT('Origin',(7.,7.,5.));
#1347=CARTESIAN_POINT('',(8.35,63.,5.));
#1348=CARTESIAN_POINT('Origin',(7.,63.,5.));
#1349=CARTESIAN_POINT('',(44.35,7.,5.));
#1350=CARTESIAN_POINT('Origin',(43.,7.,5.));
#1351=CARTESIAN_POINT('',(44.35,63.,5.));
#1352=CARTESIAN_POINT('Origin',(43.,63.,5.));
#1353=CARTESIAN_POINT('',(31.,55.,5.));
#1354=CARTESIAN_POINT('Origin',(25.,55.,5.));
#1355=CARTESIAN_POINT('',(19.,15.,5.));
#1356=CARTESIAN_POINT('Origin',(15.,15.,5.));
#1357=CARTESIAN_POINT('',(6.5,27.,5.));
#1358=CARTESIAN_POINT('',(6.5,44.5,5.));
#1359=CARTESIAN_POINT('',(6.5,31.,5.));
#1360=CARTESIAN_POINT('',(43.5,44.5,5.));
#1361=CARTESIAN_POINT('',(15.75,44.5,5.));
#1362=CARTESIAN_POINT('',(43.5,27.,5.));
#1363=CARTESIAN_POINT('',(43.5,39.75,5.));
#1364=CARTESIAN_POINT('',(34.25,27.,5.));
#1365=CARTESIAN_POINT('',(39.,15.,5.));
#1366=CARTESIAN_POINT('Origin',(35.,15.,5.));
#1367=CARTESIAN_POINT('Origin',(45.,65.,0.));
#1368=CARTESIAN_POINT('',(45.,70.,0.));
#1369=CARTESIAN_POINT('Origin',(5.,65.,0.));
#1370=CARTESIAN_POINT('',(5.,70.,0.));
#1371=CARTESIAN_POINT('Origin',(35.,15.,5.));
#1372=CARTESIAN_POINT('',(39.,15.,1.));
#1373=CARTESIAN_POINT('',(39.,15.,5.));
#1374=CARTESIAN_POINT('Origin',(35.,15.,1.));
#1375=CARTESIAN_POINT('Origin',(35.,15.,1.));
#1376=CARTESIAN_POINT('',(32.3,15.,1.));
#1377=CARTESIAN_POINT('Origin',(35.,15.,1.));
#1378=CARTESIAN_POINT('Origin',(6.5,27.,5.));
#1379=CARTESIAN_POINT('',(6.5,27.,1.));
#1380=CARTESIAN_POINT('',(6.5,27.,5.));
#1381=CARTESIAN_POINT('',(6.5,44.5,1.));
#1382=CARTESIAN_POINT('',(6.5,27.,1.));
#1383=CARTESIAN_POINT('',(6.5,44.5,5.));
#1384=CARTESIAN_POINT('Origin',(43.5,27.,5.));
#1385=CARTESIAN_POINT('',(43.5,27.,1.));
#1386=CARTESIAN_POINT('',(43.5,27.,5.));
#1387=CARTESIAN_POINT('',(43.5,27.,1.));
#1388=CARTESIAN_POINT('Origin',(43.5,44.5,5.));
#1389=CARTESIAN_POINT('',(43.5,44.5,1.));
#1390=CARTESIAN_POINT('',(43.5,44.5,5.));
#1391=CARTESIAN_POINT('',(43.5,44.5,1.));
#1392=CARTESIAN_POINT('Origin',(6.5,44.5,5.));
#1393=CARTESIAN_POINT('',(6.5,44.5,1.));
#1394=CARTESIAN_POINT('Origin',(25.,35.75,1.));
#1395=CARTESIAN_POINT('',(36.,35.75,1.));
#1396=CARTESIAN_POINT('Origin',(37.5,35.75,1.));
#1397=CARTESIAN_POINT('',(11.,35.75,1.));
#1398=CARTESIAN_POINT('Origin',(12.5,35.75,1.));
#1399=CARTESIAN_POINT('Origin',(15.,15.,5.));
#1400=CARTESIAN_POINT('',(19.,15.,1.));
#1401=CARTESIAN_POINT('',(19.,15.,5.));
#1402=CARTESIAN_POINT('Origin',(15.,15.,1.));
#1403=CARTESIAN_POINT('Origin',(15.,15.,1.));
#1404=CARTESIAN_POINT('',(12.3,15.,1.));
#1405=CARTESIAN_POINT('Origin',(15.,15.,1.));
#1406=CARTESIAN_POINT('Origin',(25.,55.,5.));
#1407=CARTESIAN_POINT('',(31.,55.,1.));
#1408=CARTESIAN_POINT('',(31.,55.,5.));
#1409=CARTESIAN_POINT('Origin',(25.,55.,1.));
#1410=CARTESIAN_POINT('Origin',(25.,55.,1.));
#1411=CARTESIAN_POINT('',(21.5,55.,1.));
#1412=CARTESIAN_POINT('Origin',(25.,55.,1.));
#1413=CARTESIAN_POINT('Origin',(7.,7.,5.));
#1414=CARTESIAN_POINT('',(8.35,7.,1.));
#1415=CARTESIAN_POINT('',(8.35,7.,5.));
#1416=CARTESIAN_POINT('Origin',(7.,7.,1.));
#1417=CARTESIAN_POINT('Origin',(7.,7.,1.));
#1418=CARTESIAN_POINT('Origin',(7.,63.,5.));
#1419=CARTESIAN_POINT('',(8.35,63.,1.));
#1420=CARTESIAN_POINT('',(8.35,63.,5.));
#1421=CARTESIAN_POINT('Origin',(7.,63.,1.));
#1422=CARTESIAN_POINT('Origin',(7.,63.,1.));
#1423=CARTESIAN_POINT('Origin',(43.,7.,5.));
#1424=CARTESIAN_POINT('',(44.35,7.,1.));
#1425=CARTESIAN_POINT('',(44.35,7.,5.));
#1426=CARTESIAN_POINT('Origin',(43.,7.,1.));
#1427=CARTESIAN_POINT('Origin',(43.,7.,1.));
#1428=CARTESIAN_POINT('Origin',(43.,63.,5.));
#1429=CARTESIAN_POINT('',(44.35,63.,1.));
#1430=CARTESIAN_POINT('',(44.35,63.,5.));
#1431=CARTESIAN_POINT('Origin',(43.,63.,1.));
#1432=CARTESIAN_POINT('Origin',(43.,63.,1.));
#1433=CARTESIAN_POINT('Origin',(35.,15.,0.));
#1434=CARTESIAN_POINT('',(32.3,15.,0.));
#1435=CARTESIAN_POINT('Origin',(25.,55.,0.));
#1436=CARTESIAN_POINT('',(21.5,55.,0.));
#1437=CARTESIAN_POINT('Origin',(15.,15.,0.));
#1438=CARTESIAN_POINT('',(12.3,15.,0.));
#1439=CARTESIAN_POINT('Origin',(37.5,35.75,0.));
#1440=CARTESIAN_POINT('',(36.,35.75,0.));
#1441=CARTESIAN_POINT('Origin',(12.5,35.75,0.));
#1442=CARTESIAN_POINT('',(11.,35.75,0.));
#1443=CARTESIAN_POINT('Origin',(50.,70.,0.));
#1444=UNCERTAINTY_MEASURE_WITH_UNIT(LENGTH_MEASURE(0.01),#1448,
'DISTANCE_ACCURACY_VALUE',
'Maximum model space distance between geometric entities at asserted c
onnectivities');
#1445=UNCERTAINTY_MEASURE_WITH_UNIT(LENGTH_MEASURE(0.01),#1448,
'DISTANCE_ACCURACY_VALUE',
'Maximum model space distance between geometric entities at asserted c
onnectivities');
#1446=(
GEOMETRIC_REPRESENTATION_CONTEXT(3)
GLOBAL_UNCERTAINTY_ASSIGNED_CONTEXT((#1444))
GLOBAL_UNIT_ASSIGNED_CONTEXT((#1448,#1450,#1451))
REPRESENTATION_CONTEXT('','3D')
);
#1447=(
GEOMETRIC_REPRESENTATION_CONTEXT(3)
GLOBAL_UNCERTAINTY_ASSIGNED_CONTEXT((#1445))
GLOBAL_UNIT_ASSIGNED_CONTEXT((#1448,#1450,#1451))
REPRESENTATION_CONTEXT('','3D')
);
#1448=(
LENGTH_UNIT()
NAMED_UNIT(*)
SI_UNIT(.MILLI.,.METRE.)
);
#1449=(
LENGTH_UNIT()
NAMED_UNIT(*)
SI_UNIT($,.METRE.)
);
#1450=(
NAMED_UNIT(*)
PLANE_ANGLE_UNIT()
SI_UNIT($,.RADIAN.)
);
#1451=(
NAMED_UNIT(*)
SI_UNIT($,.STERADIAN.)
SOLID_ANGLE_UNIT()
);
#1452=SHAPE_DEFINITION_REPRESENTATION(#1453,#1454);
#1453=PRODUCT_DEFINITION_SHAPE('',$,#1456);
#1454=SHAPE_REPRESENTATION('',(#856),#1446);
#1455=PRODUCT_DEFINITION_CONTEXT('part definition',#1460,'design');
#1456=PRODUCT_DEFINITION('Panel_Taster_D_Sub_5V_V1',
'Panel_Taster_D_Sub_5V_V1 v4',#1457,#1455);
#1457=PRODUCT_DEFINITION_FORMATION('',$,#1462);
#1458=PRODUCT_RELATED_PRODUCT_CATEGORY('Panel_Taster_D_Sub_5V_V1 v4',
'Panel_Taster_D_Sub_5V_V1 v4',(#1462));
#1459=APPLICATION_PROTOCOL_DEFINITION('international standard',
'automotive_design',2009,#1460);
#1460=APPLICATION_CONTEXT(
'Core Data for Automotive Mechanical Design Process');
#1461=PRODUCT_CONTEXT('part definition',#1460,'mechanical');
#1462=PRODUCT('Panel_Taster_D_Sub_5V_V1','Panel_Taster_D_Sub_5V_V1 v4',
$,(#1461));
#1463=PRESENTATION_STYLE_ASSIGNMENT((#1464));
#1464=SURFACE_STYLE_USAGE(.BOTH.,#1465);
#1465=SURFACE_SIDE_STYLE('',(#1466));
#1466=SURFACE_STYLE_FILL_AREA(#1467);
#1467=FILL_AREA_STYLE('Stahl - satiniert',(#1468));
#1468=FILL_AREA_STYLE_COLOUR('Stahl - satiniert',#1469);
#1469=COLOUR_RGB('Stahl - satiniert',0.627450980392157,0.627450980392157,
0.627450980392157);
ENDSEC;
END-ISO-10303-21;
