ISO-10303-21;
HEADER;
/* Generated by software containing ST-Developer
 * from STEP Tools, Inc. (www.steptools.com) 
 */

FILE_DESCRIPTION(
/* description */ (''),
/* implementation_level */ '2;1');

FILE_NAME(
/* name */ 'Kran_Durchfuehrung.step',
/* time_stamp */ '2026-06-28T17:02:26+02:00',
/* author */ (''),
/* organization */ (''),
/* preprocessor_version */ 'ST-DEVELOPER v20.1',
/* originating_system */ 'Autodesk Translation Framework v15.8.0.0',
/* authorisation */ '');

FILE_SCHEMA (('AUTOMOTIVE_DESIGN { 1 0 10303 214 3 1 1 }'));
ENDSEC;

DATA;
#10=MECHANICAL_DESIGN_GEOMETRIC_PRESENTATION_REPRESENTATION('',(#13),#351);
#11=SHAPE_REPRESENTATION_RELATIONSHIP('SRR','None',#358,#12);
#12=ADVANCED_BREP_SHAPE_REPRESENTATION('',(#14),#350);
#13=STYLED_ITEM('',(#367),#14);
#14=MANIFOLD_SOLID_BREP('K\X\F6rper1',#201);
#15=FACE_BOUND('',#38,.T.);
#16=CYLINDRICAL_SURFACE('',#228,10.);
#17=CYLINDRICAL_SURFACE('',#232,2.5);
#18=CONICAL_SURFACE('',#220,10.5,0.785398163397449);
#19=FACE_OUTER_BOUND('',#30,.T.);
#20=FACE_OUTER_BOUND('',#31,.T.);
#21=FACE_OUTER_BOUND('',#32,.T.);
#22=FACE_OUTER_BOUND('',#33,.T.);
#23=FACE_OUTER_BOUND('',#34,.T.);
#24=FACE_OUTER_BOUND('',#35,.T.);
#25=FACE_OUTER_BOUND('',#36,.T.);
#26=FACE_OUTER_BOUND('',#37,.T.);
#27=FACE_OUTER_BOUND('',#39,.T.);
#28=FACE_OUTER_BOUND('',#40,.T.);
#29=FACE_OUTER_BOUND('',#41,.T.);
#30=EDGE_LOOP('',(#130,#131));
#31=EDGE_LOOP('',(#132,#133));
#32=EDGE_LOOP('',(#134,#135,#136,#137));
#33=EDGE_LOOP('',(#138,#139,#140,#141));
#34=EDGE_LOOP('',(#142,#143,#144,#145,#146,#147,#148));
#35=EDGE_LOOP('',(#149,#150,#151,#152));
#36=EDGE_LOOP('',(#153,#154,#155,#156));
#37=EDGE_LOOP('',(#157,#158,#159,#160));
#38=EDGE_LOOP('',(#161,#162,#163,#164));
#39=EDGE_LOOP('',(#165,#166,#167,#168,#169,#170));
#40=EDGE_LOOP('',(#171,#172,#173,#174));
#41=EDGE_LOOP('',(#175,#176,#177,#178,#179,#180,#181));
#42=LINE('',#297,#60);
#43=LINE('',#302,#61);
#44=LINE('',#304,#62);
#45=LINE('',#305,#63);
#46=LINE('',#309,#64);
#47=LINE('',#313,#65);
#48=LINE('',#317,#66);
#49=LINE('',#319,#67);
#50=LINE('',#321,#68);
#51=LINE('',#323,#69);
#52=LINE('',#325,#70);
#53=LINE('',#326,#71);
#54=LINE('',#329,#72);
#55=LINE('',#333,#73);
#56=LINE('',#337,#74);
#57=LINE('',#342,#75);
#58=LINE('',#343,#76);
#59=LINE('',#346,#77);
#60=VECTOR('',#240,10.);
#61=VECTOR('',#245,10.);
#62=VECTOR('',#248,10.);
#63=VECTOR('',#249,10.);
#64=VECTOR('',#252,10.);
#65=VECTOR('',#255,10.);
#66=VECTOR('',#260,10.);
#67=VECTOR('',#261,10.);
#68=VECTOR('',#262,10.);
#69=VECTOR('',#263,10.);
#70=VECTOR('',#264,10.);
#71=VECTOR('',#265,10.);
#72=VECTOR('',#268,10.);
#73=VECTOR('',#273,10.);
#74=VECTOR('',#278,10.);
#75=VECTOR('',#283,10.);
#76=VECTOR('',#284,10.);
#77=VECTOR('',#289,10.);
#78=CIRCLE('',#216,10.);
#79=CIRCLE('',#218,10.);
#80=CIRCLE('',#221,11.);
#81=CIRCLE('',#222,10.);
#82=CIRCLE('',#225,2.5);
#83=CIRCLE('',#227,10.);
#84=CIRCLE('',#229,10.);
#85=CIRCLE('',#231,2.5);
#86=VERTEX_POINT('',#294);
#87=VERTEX_POINT('',#295);
#88=VERTEX_POINT('',#299);
#89=VERTEX_POINT('',#300);
#90=VERTEX_POINT('',#307);
#91=VERTEX_POINT('',#308);
#92=VERTEX_POINT('',#310);
#93=VERTEX_POINT('',#312);
#94=VERTEX_POINT('',#316);
#95=VERTEX_POINT('',#318);
#96=VERTEX_POINT('',#320);
#97=VERTEX_POINT('',#322);
#98=VERTEX_POINT('',#324);
#99=VERTEX_POINT('',#328);
#100=VERTEX_POINT('',#332);
#101=VERTEX_POINT('',#336);
#102=VERTEX_POINT('',#340);
#103=VERTEX_POINT('',#341);
#104=EDGE_CURVE('',#86,#87,#78,.T.);
#105=EDGE_CURVE('',#87,#86,#42,.T.);
#106=EDGE_CURVE('',#88,#89,#79,.T.);
#107=EDGE_CURVE('',#88,#89,#43,.T.);
#108=EDGE_CURVE('',#89,#86,#44,.T.);
#109=EDGE_CURVE('',#87,#88,#45,.T.);
#110=EDGE_CURVE('',#90,#91,#46,.T.);
#111=EDGE_CURVE('',#92,#91,#80,.T.);
#112=EDGE_CURVE('',#92,#93,#47,.T.);
#113=EDGE_CURVE('',#93,#90,#81,.T.);
#114=EDGE_CURVE('',#90,#94,#48,.T.);
#115=EDGE_CURVE('',#94,#95,#49,.T.);
#116=EDGE_CURVE('',#95,#96,#50,.T.);
#117=EDGE_CURVE('',#96,#97,#51,.T.);
#118=EDGE_CURVE('',#97,#98,#52,.T.);
#119=EDGE_CURVE('',#98,#91,#53,.T.);
#120=EDGE_CURVE('',#93,#99,#54,.T.);
#121=EDGE_CURVE('',#99,#94,#82,.T.);
#122=EDGE_CURVE('',#100,#92,#55,.T.);
#123=EDGE_CURVE('',#100,#98,#83,.T.);
#124=EDGE_CURVE('',#101,#100,#56,.T.);
#125=EDGE_CURVE('',#101,#97,#84,.T.);
#126=EDGE_CURVE('',#102,#103,#57,.T.);
#127=EDGE_CURVE('',#103,#101,#58,.T.);
#128=EDGE_CURVE('',#102,#95,#85,.T.);
#129=EDGE_CURVE('',#99,#102,#59,.T.);
#130=ORIENTED_EDGE('',*,*,#104,.F.);
#131=ORIENTED_EDGE('',*,*,#105,.F.);
#132=ORIENTED_EDGE('',*,*,#106,.F.);
#133=ORIENTED_EDGE('',*,*,#107,.T.);
#134=ORIENTED_EDGE('',*,*,#108,.F.);
#135=ORIENTED_EDGE('',*,*,#107,.F.);
#136=ORIENTED_EDGE('',*,*,#109,.F.);
#137=ORIENTED_EDGE('',*,*,#105,.T.);
#138=ORIENTED_EDGE('',*,*,#110,.T.);
#139=ORIENTED_EDGE('',*,*,#111,.F.);
#140=ORIENTED_EDGE('',*,*,#112,.T.);
#141=ORIENTED_EDGE('',*,*,#113,.T.);
#142=ORIENTED_EDGE('',*,*,#110,.F.);
#143=ORIENTED_EDGE('',*,*,#114,.T.);
#144=ORIENTED_EDGE('',*,*,#115,.T.);
#145=ORIENTED_EDGE('',*,*,#116,.T.);
#146=ORIENTED_EDGE('',*,*,#117,.T.);
#147=ORIENTED_EDGE('',*,*,#118,.T.);
#148=ORIENTED_EDGE('',*,*,#119,.T.);
#149=ORIENTED_EDGE('',*,*,#113,.F.);
#150=ORIENTED_EDGE('',*,*,#120,.T.);
#151=ORIENTED_EDGE('',*,*,#121,.T.);
#152=ORIENTED_EDGE('',*,*,#114,.F.);
#153=ORIENTED_EDGE('',*,*,#122,.T.);
#154=ORIENTED_EDGE('',*,*,#111,.T.);
#155=ORIENTED_EDGE('',*,*,#119,.F.);
#156=ORIENTED_EDGE('',*,*,#123,.F.);
#157=ORIENTED_EDGE('',*,*,#124,.T.);
#158=ORIENTED_EDGE('',*,*,#123,.T.);
#159=ORIENTED_EDGE('',*,*,#118,.F.);
#160=ORIENTED_EDGE('',*,*,#125,.F.);
#161=ORIENTED_EDGE('',*,*,#106,.T.);
#162=ORIENTED_EDGE('',*,*,#108,.T.);
#163=ORIENTED_EDGE('',*,*,#104,.T.);
#164=ORIENTED_EDGE('',*,*,#109,.T.);
#165=ORIENTED_EDGE('',*,*,#126,.T.);
#166=ORIENTED_EDGE('',*,*,#127,.T.);
#167=ORIENTED_EDGE('',*,*,#125,.T.);
#168=ORIENTED_EDGE('',*,*,#117,.F.);
#169=ORIENTED_EDGE('',*,*,#116,.F.);
#170=ORIENTED_EDGE('',*,*,#128,.F.);
#171=ORIENTED_EDGE('',*,*,#129,.T.);
#172=ORIENTED_EDGE('',*,*,#128,.T.);
#173=ORIENTED_EDGE('',*,*,#115,.F.);
#174=ORIENTED_EDGE('',*,*,#121,.F.);
#175=ORIENTED_EDGE('',*,*,#112,.F.);
#176=ORIENTED_EDGE('',*,*,#122,.F.);
#177=ORIENTED_EDGE('',*,*,#124,.F.);
#178=ORIENTED_EDGE('',*,*,#127,.F.);
#179=ORIENTED_EDGE('',*,*,#126,.F.);
#180=ORIENTED_EDGE('',*,*,#129,.F.);
#181=ORIENTED_EDGE('',*,*,#120,.F.);
#182=PLANE('',#215);
#183=PLANE('',#217);
#184=PLANE('',#219);
#185=PLANE('',#223);
#186=PLANE('',#224);
#187=PLANE('',#226);
#188=PLANE('',#230);
#189=PLANE('',#233);
#190=ADVANCED_FACE('',(#19),#182,.F.);
#191=ADVANCED_FACE('',(#20),#183,.F.);
#192=ADVANCED_FACE('',(#21),#184,.F.);
#193=ADVANCED_FACE('',(#22),#18,.T.);
#194=ADVANCED_FACE('',(#23),#185,.T.);
#195=ADVANCED_FACE('',(#24),#186,.T.);
#196=ADVANCED_FACE('',(#25),#187,.T.);
#197=ADVANCED_FACE('',(#26,#15),#16,.T.);
#198=ADVANCED_FACE('',(#27),#188,.T.);
#199=ADVANCED_FACE('',(#28),#17,.F.);
#200=ADVANCED_FACE('',(#29),#189,.F.);
#201=CLOSED_SHELL('',(#190,#191,#192,#193,#194,#195,#196,#197,#198,#199,
#200));
#202=DERIVED_UNIT_ELEMENT(#204,1.);
#203=DERIVED_UNIT_ELEMENT(#353,-3.);
#204=(
MASS_UNIT()
NAMED_UNIT(*)
SI_UNIT(.KILO.,.GRAM.)
);
#205=DERIVED_UNIT((#202,#203));
#206=MEASURE_REPRESENTATION_ITEM('density measure',
POSITIVE_RATIO_MEASURE(7850.),#205);
#207=PROPERTY_DEFINITION_REPRESENTATION(#212,#209);
#208=PROPERTY_DEFINITION_REPRESENTATION(#213,#210);
#209=REPRESENTATION('material name',(#211),#350);
#210=REPRESENTATION('density',(#206),#350);
#211=DESCRIPTIVE_REPRESENTATION_ITEM('Stahl','Stahl');
#212=PROPERTY_DEFINITION('material property','material name',#360);
#213=PROPERTY_DEFINITION('material property','density of part',#360);
#214=AXIS2_PLACEMENT_3D('',#292,#234,#235);
#215=AXIS2_PLACEMENT_3D('',#293,#236,#237);
#216=AXIS2_PLACEMENT_3D('',#296,#238,#239);
#217=AXIS2_PLACEMENT_3D('',#298,#241,#242);
#218=AXIS2_PLACEMENT_3D('',#301,#243,#244);
#219=AXIS2_PLACEMENT_3D('',#303,#246,#247);
#220=AXIS2_PLACEMENT_3D('',#306,#250,#251);
#221=AXIS2_PLACEMENT_3D('',#311,#253,#254);
#222=AXIS2_PLACEMENT_3D('',#314,#256,#257);
#223=AXIS2_PLACEMENT_3D('',#315,#258,#259);
#224=AXIS2_PLACEMENT_3D('',#327,#266,#267);
#225=AXIS2_PLACEMENT_3D('',#330,#269,#270);
#226=AXIS2_PLACEMENT_3D('',#331,#271,#272);
#227=AXIS2_PLACEMENT_3D('',#334,#274,#275);
#228=AXIS2_PLACEMENT_3D('',#335,#276,#277);
#229=AXIS2_PLACEMENT_3D('',#338,#279,#280);
#230=AXIS2_PLACEMENT_3D('',#339,#281,#282);
#231=AXIS2_PLACEMENT_3D('',#344,#285,#286);
#232=AXIS2_PLACEMENT_3D('',#345,#287,#288);
#233=AXIS2_PLACEMENT_3D('',#347,#290,#291);
#234=DIRECTION('axis',(0.,0.,1.));
#235=DIRECTION('refdir',(1.,0.,0.));
#236=DIRECTION('center_axis',(0.,-1.,0.));
#237=DIRECTION('ref_axis',(0.,0.,-1.));
#238=DIRECTION('center_axis',(0.,-1.,0.));
#239=DIRECTION('ref_axis',(-1.,0.,0.));
#240=DIRECTION('',(1.,0.,0.));
#241=DIRECTION('center_axis',(0.,1.,7.9064423387087E-16));
#242=DIRECTION('ref_axis',(0.,-7.9064423387087E-16,1.));
#243=DIRECTION('center_axis',(0.,1.,7.9064423387087E-16));
#244=DIRECTION('ref_axis',(-1.,0.,0.));
#245=DIRECTION('',(1.,0.,0.));
#246=DIRECTION('center_axis',(0.,0.,-1.));
#247=DIRECTION('ref_axis',(0.,1.,0.));
#248=DIRECTION('',(0.,-1.,0.));
#249=DIRECTION('',(0.,1.,0.));
#250=DIRECTION('center_axis',(0.,1.,0.));
#251=DIRECTION('ref_axis',(-1.,0.,0.));
#252=DIRECTION('',(0.707106781186548,0.707106781186547,8.65956056235494E-17));
#253=DIRECTION('center_axis',(0.,1.,0.));
#254=DIRECTION('ref_axis',(-1.,0.,2.01858731750028E-16));
#255=DIRECTION('',(0.707106781186548,-0.707106781186547,0.));
#256=DIRECTION('center_axis',(0.,1.,0.));
#257=DIRECTION('ref_axis',(-1.,0.,0.));
#258=DIRECTION('center_axis',(1.22464679914735E-16,0.,-1.));
#259=DIRECTION('ref_axis',(-1.,0.,-1.22464679914735E-16));
#260=DIRECTION('',(-1.,0.,-1.22464679914735E-16));
#261=DIRECTION('',(0.,1.,0.));
#262=DIRECTION('',(1.,-1.62558122518419E-8,1.22464679914735E-16));
#263=DIRECTION('',(1.,0.,1.22464679914735E-16));
#264=DIRECTION('',(0.,-1.,0.));
#265=DIRECTION('',(1.,-1.38777878078144E-16,1.22464679914735E-16));
#266=DIRECTION('center_axis',(0.,-1.,0.));
#267=DIRECTION('ref_axis',(0.,0.,-1.));
#268=DIRECTION('',(1.,0.,0.));
#269=DIRECTION('center_axis',(0.,1.,0.));
#270=DIRECTION('ref_axis',(-1.,0.,-1.11022302462516E-16));
#271=DIRECTION('center_axis',(0.,1.,0.));
#272=DIRECTION('ref_axis',(0.,0.,1.));
#273=DIRECTION('',(-1.,-1.38777878078144E-16,0.));
#274=DIRECTION('center_axis',(0.,1.,0.));
#275=DIRECTION('ref_axis',(-1.,0.,-1.11022302462516E-16));
#276=DIRECTION('center_axis',(0.,1.,0.));
#277=DIRECTION('ref_axis',(-1.,0.,0.));
#278=DIRECTION('',(0.,-1.,0.));
#279=DIRECTION('center_axis',(0.,1.,0.));
#280=DIRECTION('ref_axis',(-1.,0.,-1.11022302462516E-16));
#281=DIRECTION('center_axis',(0.,1.,0.));
#282=DIRECTION('ref_axis',(0.,0.,1.));
#283=DIRECTION('',(-1.,-1.62558122518419E-8,0.));
#284=DIRECTION('',(-1.,0.,0.));
#285=DIRECTION('center_axis',(0.,1.,0.));
#286=DIRECTION('ref_axis',(-1.,0.,-1.11022302462516E-16));
#287=DIRECTION('center_axis',(0.,1.,0.));
#288=DIRECTION('ref_axis',(-1.,0.,0.));
#289=DIRECTION('',(0.,1.,0.));
#290=DIRECTION('center_axis',(0.,0.,1.));
#291=DIRECTION('ref_axis',(1.,0.,0.));
#292=CARTESIAN_POINT('',(0.,0.,0.));
#293=CARTESIAN_POINT('Origin',(0.,6.,10.8084009901386));
#294=CARTESIAN_POINT('',(17.,6.,8.));
#295=CARTESIAN_POINT('',(5.,6.,8.));
#296=CARTESIAN_POINT('Origin',(11.,6.,0.));
#297=CARTESIAN_POINT('',(0.,6.,8.));
#298=CARTESIAN_POINT('Origin',(0.,8.,8.));
#299=CARTESIAN_POINT('',(5.,8.,8.));
#300=CARTESIAN_POINT('',(17.,8.,8.));
#301=CARTESIAN_POINT('Origin',(11.,8.,0.));
#302=CARTESIAN_POINT('',(0.,8.,8.));
#303=CARTESIAN_POINT('Origin',(0.,6.,8.));
#304=CARTESIAN_POINT('',(17.,5.,8.));
#305=CARTESIAN_POINT('',(5.,5.,8.));
#306=CARTESIAN_POINT('Origin',(11.,0.5,0.));
#307=CARTESIAN_POINT('',(21.,0.,1.22464679914735E-15));
#308=CARTESIAN_POINT('',(22.,1.,1.34711147906209E-15));
#309=CARTESIAN_POINT('',(21.5,0.5,1.28587913910472E-15));
#310=CARTESIAN_POINT('',(0.,1.,0.));
#311=CARTESIAN_POINT('Origin',(11.,1.,-2.22044604925031E-15));
#312=CARTESIAN_POINT('',(1.,0.,0.));
#313=CARTESIAN_POINT('',(0.5,0.5,0.));
#314=CARTESIAN_POINT('Origin',(11.,0.,0.));
#315=CARTESIAN_POINT('Origin',(17.75,4.50000004470348,8.26636589424464E-16));
#316=CARTESIAN_POINT('',(13.5,0.,3.06161699786838E-16));
#317=CARTESIAN_POINT('',(22.,0.,1.34711147906209E-15));
#318=CARTESIAN_POINT('',(13.5,9.00000008940697,3.06161699786838E-16));
#319=CARTESIAN_POINT('',(13.5,0.,3.06161699786838E-16));
#320=CARTESIAN_POINT('',(19.,9.,9.79717439317883E-16));
#321=CARTESIAN_POINT('',(13.5,9.00000008940697,3.06161699786838E-16));
#322=CARTESIAN_POINT('',(21.,9.,1.22464679914735E-15));
#323=CARTESIAN_POINT('',(19.,9.,9.79717439317883E-16));
#324=CARTESIAN_POINT('',(21.,1.,1.22464679914735E-15));
#325=CARTESIAN_POINT('',(21.,9.,1.22464679914735E-15));
#326=CARTESIAN_POINT('',(21.,1.,1.22464679914735E-15));
#327=CARTESIAN_POINT('Origin',(0.,0.,0.));
#328=CARTESIAN_POINT('',(8.5,0.,0.));
#329=CARTESIAN_POINT('',(0.,0.,0.));
#330=CARTESIAN_POINT('Origin',(11.,0.,2.77555756156289E-16));
#331=CARTESIAN_POINT('Origin',(1.,1.,0.));
#332=CARTESIAN_POINT('',(1.,1.,0.));
#333=CARTESIAN_POINT('',(1.,1.,0.));
#334=CARTESIAN_POINT('Origin',(11.,1.,1.11022302462516E-15));
#335=CARTESIAN_POINT('Origin',(11.,5.,0.));
#336=CARTESIAN_POINT('',(1.,9.,0.));
#337=CARTESIAN_POINT('',(1.,9.,0.));
#338=CARTESIAN_POINT('Origin',(11.,9.,1.11022302462516E-15));
#339=CARTESIAN_POINT('Origin',(8.5,9.00000008940697,0.));
#340=CARTESIAN_POINT('',(8.5,9.00000008940697,0.));
#341=CARTESIAN_POINT('',(3.,9.,0.));
#342=CARTESIAN_POINT('',(8.5,9.00000008940697,0.));
#343=CARTESIAN_POINT('',(3.,9.,0.));
#344=CARTESIAN_POINT('Origin',(11.,9.00000008940697,2.77555756156289E-16));
#345=CARTESIAN_POINT('Origin',(11.,4.50000004470348,0.));
#346=CARTESIAN_POINT('',(8.5,0.,0.));
#347=CARTESIAN_POINT('Origin',(4.25,4.50000004470348,0.));
#348=UNCERTAINTY_MEASURE_WITH_UNIT(LENGTH_MEASURE(0.01),#352,
'DISTANCE_ACCURACY_VALUE',
'Maximum model space distance between geometric entities at asserted c
onnectivities');
#349=UNCERTAINTY_MEASURE_WITH_UNIT(LENGTH_MEASURE(0.01),#352,
'DISTANCE_ACCURACY_VALUE',
'Maximum model space distance between geometric entities at asserted c
onnectivities');
#350=(
GEOMETRIC_REPRESENTATION_CONTEXT(3)
GLOBAL_UNCERTAINTY_ASSIGNED_CONTEXT((#348))
GLOBAL_UNIT_ASSIGNED_CONTEXT((#352,#354,#355))
REPRESENTATION_CONTEXT('','3D')
);
#351=(
GEOMETRIC_REPRESENTATION_CONTEXT(3)
GLOBAL_UNCERTAINTY_ASSIGNED_CONTEXT((#349))
GLOBAL_UNIT_ASSIGNED_CONTEXT((#352,#354,#355))
REPRESENTATION_CONTEXT('','3D')
);
#352=(
LENGTH_UNIT()
NAMED_UNIT(*)
SI_UNIT(.MILLI.,.METRE.)
);
#353=(
LENGTH_UNIT()
NAMED_UNIT(*)
SI_UNIT($,.METRE.)
);
#354=(
NAMED_UNIT(*)
PLANE_ANGLE_UNIT()
SI_UNIT($,.RADIAN.)
);
#355=(
NAMED_UNIT(*)
SI_UNIT($,.STERADIAN.)
SOLID_ANGLE_UNIT()
);
#356=SHAPE_DEFINITION_REPRESENTATION(#357,#358);
#357=PRODUCT_DEFINITION_SHAPE('',$,#360);
#358=SHAPE_REPRESENTATION('',(#214),#350);
#359=PRODUCT_DEFINITION_CONTEXT('part definition',#364,'design');
#360=PRODUCT_DEFINITION('Durchfuehrung','Durchfuehrung v1',#361,#359);
#361=PRODUCT_DEFINITION_FORMATION('',$,#366);
#362=PRODUCT_RELATED_PRODUCT_CATEGORY('Durchfuehrung v1',
'Durchfuehrung v1',(#366));
#363=APPLICATION_PROTOCOL_DEFINITION('international standard',
'automotive_design',2009,#364);
#364=APPLICATION_CONTEXT(
'Core Data for Automotive Mechanical Design Process');
#365=PRODUCT_CONTEXT('part definition',#364,'mechanical');
#366=PRODUCT('Durchfuehrung','Durchfuehrung v1',$,(#365));
#367=PRESENTATION_STYLE_ASSIGNMENT((#368));
#368=SURFACE_STYLE_USAGE(.BOTH.,#369);
#369=SURFACE_SIDE_STYLE('',(#370));
#370=SURFACE_STYLE_FILL_AREA(#371);
#371=FILL_AREA_STYLE('Stahl - satiniert',(#372));
#372=FILL_AREA_STYLE_COLOUR('Stahl - satiniert',#373);
#373=COLOUR_RGB('Stahl - satiniert',0.627450980392157,0.627450980392157,
0.627450980392157);
ENDSEC;
END-ISO-10303-21;
