ISO-10303-21;
HEADER;
/* Generated by software containing ST-Developer
 * from STEP Tools, Inc. (www.steptools.com) 
 */

FILE_DESCRIPTION(
/* description */ (''),
/* implementation_level */ '2;1');

FILE_NAME(
/* name */ 'Kran_Board.step',
/* time_stamp */ '2026-06-28T17:02:09+02:00',
/* author */ (''),
/* organization */ (''),
/* preprocessor_version */ 'ST-DEVELOPER v20.1',
/* originating_system */ 'Autodesk Translation Framework v15.8.0.0',
/* authorisation */ '');

FILE_SCHEMA (('AUTOMOTIVE_DESIGN { 1 0 10303 214 3 1 1 }'));
ENDSEC;

DATA;
#10=MECHANICAL_DESIGN_GEOMETRIC_PRESENTATION_REPRESENTATION('',(#13),#904);
#11=SHAPE_REPRESENTATION_RELATIONSHIP('SRR','None',#911,#12);
#12=ADVANCED_BREP_SHAPE_REPRESENTATION('',(#14),#903);
#13=STYLED_ITEM('',(#920),#14);
#14=MANIFOLD_SOLID_BREP('K\X\F6rper1',#540);
#15=FACE_BOUND('',#106,.T.);
#16=FACE_BOUND('',#107,.T.);
#17=FACE_BOUND('',#108,.T.);
#18=FACE_BOUND('',#109,.T.);
#19=FACE_BOUND('',#110,.T.);
#20=FACE_BOUND('',#111,.T.);
#21=FACE_BOUND('',#112,.T.);
#22=FACE_BOUND('',#113,.T.);
#23=FACE_BOUND('',#114,.T.);
#24=FACE_BOUND('',#115,.T.);
#25=FACE_BOUND('',#116,.T.);
#26=FACE_BOUND('',#117,.T.);
#27=FACE_BOUND('',#118,.T.);
#28=FACE_BOUND('',#119,.T.);
#29=FACE_BOUND('',#120,.T.);
#30=FACE_BOUND('',#121,.T.);
#31=FACE_BOUND('',#123,.T.);
#32=FACE_BOUND('',#124,.T.);
#33=FACE_BOUND('',#125,.T.);
#34=FACE_BOUND('',#126,.T.);
#35=FACE_BOUND('',#127,.T.);
#36=FACE_BOUND('',#128,.T.);
#37=FACE_BOUND('',#129,.T.);
#38=FACE_BOUND('',#130,.T.);
#39=FACE_BOUND('',#131,.T.);
#40=FACE_BOUND('',#132,.T.);
#41=FACE_BOUND('',#133,.T.);
#42=FACE_BOUND('',#134,.T.);
#43=FACE_BOUND('',#135,.T.);
#44=FACE_BOUND('',#136,.T.);
#45=FACE_BOUND('',#137,.T.);
#46=FACE_BOUND('',#138,.T.);
#47=PLANE('',#566);
#48=PLANE('',#567);
#49=PLANE('',#568);
#50=PLANE('',#569);
#51=PLANE('',#603);
#52=PLANE('',#604);
#53=PLANE('',#605);
#54=PLANE('',#606);
#55=PLANE('',#607);
#56=PLANE('',#608);
#57=FACE_OUTER_BOUND('',#82,.T.);
#58=FACE_OUTER_BOUND('',#83,.T.);
#59=FACE_OUTER_BOUND('',#84,.T.);
#60=FACE_OUTER_BOUND('',#85,.T.);
#61=FACE_OUTER_BOUND('',#86,.T.);
#62=FACE_OUTER_BOUND('',#87,.T.);
#63=FACE_OUTER_BOUND('',#88,.T.);
#64=FACE_OUTER_BOUND('',#89,.T.);
#65=FACE_OUTER_BOUND('',#90,.T.);
#66=FACE_OUTER_BOUND('',#91,.T.);
#67=FACE_OUTER_BOUND('',#92,.T.);
#68=FACE_OUTER_BOUND('',#93,.T.);
#69=FACE_OUTER_BOUND('',#94,.T.);
#70=FACE_OUTER_BOUND('',#95,.T.);
#71=FACE_OUTER_BOUND('',#96,.T.);
#72=FACE_OUTER_BOUND('',#97,.T.);
#73=FACE_OUTER_BOUND('',#98,.T.);
#74=FACE_OUTER_BOUND('',#99,.T.);
#75=FACE_OUTER_BOUND('',#100,.T.);
#76=FACE_OUTER_BOUND('',#101,.T.);
#77=FACE_OUTER_BOUND('',#102,.T.);
#78=FACE_OUTER_BOUND('',#103,.T.);
#79=FACE_OUTER_BOUND('',#104,.T.);
#80=FACE_OUTER_BOUND('',#105,.T.);
#81=FACE_OUTER_BOUND('',#122,.T.);
#82=EDGE_LOOP('',(#362,#363,#364,#365));
#83=EDGE_LOOP('',(#366,#367,#368,#369));
#84=EDGE_LOOP('',(#370,#371,#372,#373));
#85=EDGE_LOOP('',(#374,#375,#376,#377));
#86=EDGE_LOOP('',(#378,#379,#380,#381));
#87=EDGE_LOOP('',(#382,#383,#384,#385));
#88=EDGE_LOOP('',(#386,#387,#388,#389));
#89=EDGE_LOOP('',(#390,#391,#392,#393));
#90=EDGE_LOOP('',(#394,#395,#396,#397));
#91=EDGE_LOOP('',(#398,#399,#400,#401));
#92=EDGE_LOOP('',(#402,#403,#404,#405));
#93=EDGE_LOOP('',(#406,#407,#408,#409));
#94=EDGE_LOOP('',(#410,#411,#412,#413));
#95=EDGE_LOOP('',(#414,#415,#416,#417));
#96=EDGE_LOOP('',(#418,#419,#420,#421));
#97=EDGE_LOOP('',(#422,#423,#424,#425));
#98=EDGE_LOOP('',(#426,#427,#428,#429));
#99=EDGE_LOOP('',(#430,#431,#432,#433));
#100=EDGE_LOOP('',(#434,#435,#436,#437));
#101=EDGE_LOOP('',(#438,#439,#440,#441));
#102=EDGE_LOOP('',(#442,#443,#444,#445));
#103=EDGE_LOOP('',(#446,#447,#448,#449));
#104=EDGE_LOOP('',(#450,#451,#452,#453));
#105=EDGE_LOOP('',(#454,#455,#456,#457));
#106=EDGE_LOOP('',(#458));
#107=EDGE_LOOP('',(#459));
#108=EDGE_LOOP('',(#460));
#109=EDGE_LOOP('',(#461));
#110=EDGE_LOOP('',(#462));
#111=EDGE_LOOP('',(#463));
#112=EDGE_LOOP('',(#464));
#113=EDGE_LOOP('',(#465));
#114=EDGE_LOOP('',(#466));
#115=EDGE_LOOP('',(#467));
#116=EDGE_LOOP('',(#468));
#117=EDGE_LOOP('',(#469,#470,#471,#472));
#118=EDGE_LOOP('',(#473));
#119=EDGE_LOOP('',(#474));
#120=EDGE_LOOP('',(#475));
#121=EDGE_LOOP('',(#476));
#122=EDGE_LOOP('',(#477,#478,#479,#480));
#123=EDGE_LOOP('',(#481));
#124=EDGE_LOOP('',(#482));
#125=EDGE_LOOP('',(#483));
#126=EDGE_LOOP('',(#484));
#127=EDGE_LOOP('',(#485));
#128=EDGE_LOOP('',(#486));
#129=EDGE_LOOP('',(#487));
#130=EDGE_LOOP('',(#488));
#131=EDGE_LOOP('',(#489));
#132=EDGE_LOOP('',(#490));
#133=EDGE_LOOP('',(#491));
#134=EDGE_LOOP('',(#492,#493,#494,#495));
#135=EDGE_LOOP('',(#496));
#136=EDGE_LOOP('',(#497));
#137=EDGE_LOOP('',(#498));
#138=EDGE_LOOP('',(#499));
#139=LINE('',#765,#178);
#140=LINE('',#771,#179);
#141=LINE('',#777,#180);
#142=LINE('',#783,#181);
#143=LINE('',#788,#182);
#144=LINE('',#790,#183);
#145=LINE('',#792,#184);
#146=LINE('',#793,#185);
#147=LINE('',#796,#186);
#148=LINE('',#798,#187);
#149=LINE('',#799,#188);
#150=LINE('',#802,#189);
#151=LINE('',#804,#190);
#152=LINE('',#805,#191);
#153=LINE('',#807,#192);
#154=LINE('',#808,#193);
#155=LINE('',#813,#194);
#156=LINE('',#819,#195);
#157=LINE('',#825,#196);
#158=LINE('',#831,#197);
#159=LINE('',#837,#198);
#160=LINE('',#843,#199);
#161=LINE('',#849,#200);
#162=LINE('',#855,#201);
#163=LINE('',#861,#202);
#164=LINE('',#867,#203);
#165=LINE('',#873,#204);
#166=LINE('',#878,#205);
#167=LINE('',#880,#206);
#168=LINE('',#882,#207);
#169=LINE('',#883,#208);
#170=LINE('',#886,#209);
#171=LINE('',#888,#210);
#172=LINE('',#889,#211);
#173=LINE('',#892,#212);
#174=LINE('',#894,#213);
#175=LINE('',#895,#214);
#176=LINE('',#897,#215);
#177=LINE('',#898,#216);
#178=VECTOR('',#615,1.75);
#179=VECTOR('',#622,1.75000000000001);
#180=VECTOR('',#629,1.75000000000001);
#181=VECTOR('',#636,1.75000000000001);
#182=VECTOR('',#641,10.);
#183=VECTOR('',#642,10.);
#184=VECTOR('',#643,10.);
#185=VECTOR('',#644,10.);
#186=VECTOR('',#647,10.);
#187=VECTOR('',#648,10.);
#188=VECTOR('',#649,10.);
#189=VECTOR('',#652,10.);
#190=VECTOR('',#653,10.);
#191=VECTOR('',#654,10.);
#192=VECTOR('',#657,10.);
#193=VECTOR('',#658,10.);
#194=VECTOR('',#663,10.);
#195=VECTOR('',#670,1.75000000000001);
#196=VECTOR('',#677,6.);
#197=VECTOR('',#684,1.75000000000001);
#198=VECTOR('',#691,1.75000000000001);
#199=VECTOR('',#698,1.75);
#200=VECTOR('',#705,1.75000000000001);
#201=VECTOR('',#712,1.75000000000001);
#202=VECTOR('',#719,1.75);
#203=VECTOR('',#726,6.);
#204=VECTOR('',#733,1.75);
#205=VECTOR('',#738,10.);
#206=VECTOR('',#739,10.);
#207=VECTOR('',#740,10.);
#208=VECTOR('',#741,10.);
#209=VECTOR('',#744,10.);
#210=VECTOR('',#745,10.);
#211=VECTOR('',#746,10.);
#212=VECTOR('',#749,10.);
#213=VECTOR('',#750,10.);
#214=VECTOR('',#751,10.);
#215=VECTOR('',#754,10.);
#216=VECTOR('',#755,10.);
#217=CIRCLE('',#555,1.75);
#218=CIRCLE('',#556,1.75);
#219=CIRCLE('',#558,1.75000000000001);
#220=CIRCLE('',#559,1.75000000000001);
#221=CIRCLE('',#561,1.75000000000001);
#222=CIRCLE('',#562,1.75000000000001);
#223=CIRCLE('',#564,1.75000000000001);
#224=CIRCLE('',#565,1.75000000000001);
#225=CIRCLE('',#571,10.);
#226=CIRCLE('',#572,10.);
#227=CIRCLE('',#574,1.75000000000001);
#228=CIRCLE('',#575,1.75000000000001);
#229=CIRCLE('',#577,6.);
#230=CIRCLE('',#578,6.);
#231=CIRCLE('',#580,1.75000000000001);
#232=CIRCLE('',#581,1.75000000000001);
#233=CIRCLE('',#583,1.75000000000001);
#234=CIRCLE('',#584,1.75000000000001);
#235=CIRCLE('',#586,1.75);
#236=CIRCLE('',#587,1.75);
#237=CIRCLE('',#589,1.75000000000001);
#238=CIRCLE('',#590,1.75000000000001);
#239=CIRCLE('',#592,1.75000000000001);
#240=CIRCLE('',#593,1.75000000000001);
#241=CIRCLE('',#595,1.75);
#242=CIRCLE('',#596,1.75);
#243=CIRCLE('',#598,6.);
#244=CIRCLE('',#599,6.);
#245=CIRCLE('',#601,1.75);
#246=CIRCLE('',#602,1.75);
#247=VERTEX_POINT('',#762);
#248=VERTEX_POINT('',#764);
#249=VERTEX_POINT('',#768);
#250=VERTEX_POINT('',#770);
#251=VERTEX_POINT('',#774);
#252=VERTEX_POINT('',#776);
#253=VERTEX_POINT('',#780);
#254=VERTEX_POINT('',#782);
#255=VERTEX_POINT('',#786);
#256=VERTEX_POINT('',#787);
#257=VERTEX_POINT('',#789);
#258=VERTEX_POINT('',#791);
#259=VERTEX_POINT('',#795);
#260=VERTEX_POINT('',#797);
#261=VERTEX_POINT('',#801);
#262=VERTEX_POINT('',#803);
#263=VERTEX_POINT('',#810);
#264=VERTEX_POINT('',#812);
#265=VERTEX_POINT('',#816);
#266=VERTEX_POINT('',#818);
#267=VERTEX_POINT('',#822);
#268=VERTEX_POINT('',#824);
#269=VERTEX_POINT('',#828);
#270=VERTEX_POINT('',#830);
#271=VERTEX_POINT('',#834);
#272=VERTEX_POINT('',#836);
#273=VERTEX_POINT('',#840);
#274=VERTEX_POINT('',#842);
#275=VERTEX_POINT('',#846);
#276=VERTEX_POINT('',#848);
#277=VERTEX_POINT('',#852);
#278=VERTEX_POINT('',#854);
#279=VERTEX_POINT('',#858);
#280=VERTEX_POINT('',#860);
#281=VERTEX_POINT('',#864);
#282=VERTEX_POINT('',#866);
#283=VERTEX_POINT('',#870);
#284=VERTEX_POINT('',#872);
#285=VERTEX_POINT('',#876);
#286=VERTEX_POINT('',#877);
#287=VERTEX_POINT('',#879);
#288=VERTEX_POINT('',#881);
#289=VERTEX_POINT('',#885);
#290=VERTEX_POINT('',#887);
#291=VERTEX_POINT('',#891);
#292=VERTEX_POINT('',#893);
#293=EDGE_CURVE('',#247,#247,#217,.T.);
#294=EDGE_CURVE('',#247,#248,#139,.T.);
#295=EDGE_CURVE('',#248,#248,#218,.T.);
#296=EDGE_CURVE('',#249,#249,#219,.T.);
#297=EDGE_CURVE('',#249,#250,#140,.T.);
#298=EDGE_CURVE('',#250,#250,#220,.T.);
#299=EDGE_CURVE('',#251,#251,#221,.T.);
#300=EDGE_CURVE('',#251,#252,#141,.T.);
#301=EDGE_CURVE('',#252,#252,#222,.T.);
#302=EDGE_CURVE('',#253,#253,#223,.T.);
#303=EDGE_CURVE('',#253,#254,#142,.T.);
#304=EDGE_CURVE('',#254,#254,#224,.T.);
#305=EDGE_CURVE('',#255,#256,#143,.T.);
#306=EDGE_CURVE('',#256,#257,#144,.T.);
#307=EDGE_CURVE('',#258,#257,#145,.T.);
#308=EDGE_CURVE('',#255,#258,#146,.T.);
#309=EDGE_CURVE('',#259,#255,#147,.T.);
#310=EDGE_CURVE('',#260,#258,#148,.T.);
#311=EDGE_CURVE('',#259,#260,#149,.T.);
#312=EDGE_CURVE('',#261,#259,#150,.T.);
#313=EDGE_CURVE('',#262,#260,#151,.T.);
#314=EDGE_CURVE('',#261,#262,#152,.T.);
#315=EDGE_CURVE('',#256,#261,#153,.T.);
#316=EDGE_CURVE('',#257,#262,#154,.T.);
#317=EDGE_CURVE('',#263,#263,#225,.T.);
#318=EDGE_CURVE('',#263,#264,#155,.T.);
#319=EDGE_CURVE('',#264,#264,#226,.T.);
#320=EDGE_CURVE('',#265,#265,#227,.T.);
#321=EDGE_CURVE('',#265,#266,#156,.T.);
#322=EDGE_CURVE('',#266,#266,#228,.T.);
#323=EDGE_CURVE('',#267,#267,#229,.T.);
#324=EDGE_CURVE('',#267,#268,#157,.T.);
#325=EDGE_CURVE('',#268,#268,#230,.T.);
#326=EDGE_CURVE('',#269,#269,#231,.T.);
#327=EDGE_CURVE('',#269,#270,#158,.T.);
#328=EDGE_CURVE('',#270,#270,#232,.T.);
#329=EDGE_CURVE('',#271,#271,#233,.T.);
#330=EDGE_CURVE('',#271,#272,#159,.T.);
#331=EDGE_CURVE('',#272,#272,#234,.T.);
#332=EDGE_CURVE('',#273,#273,#235,.T.);
#333=EDGE_CURVE('',#273,#274,#160,.T.);
#334=EDGE_CURVE('',#274,#274,#236,.T.);
#335=EDGE_CURVE('',#275,#275,#237,.T.);
#336=EDGE_CURVE('',#275,#276,#161,.T.);
#337=EDGE_CURVE('',#276,#276,#238,.T.);
#338=EDGE_CURVE('',#277,#277,#239,.T.);
#339=EDGE_CURVE('',#277,#278,#162,.T.);
#340=EDGE_CURVE('',#278,#278,#240,.T.);
#341=EDGE_CURVE('',#279,#279,#241,.T.);
#342=EDGE_CURVE('',#279,#280,#163,.T.);
#343=EDGE_CURVE('',#280,#280,#242,.T.);
#344=EDGE_CURVE('',#281,#281,#243,.T.);
#345=EDGE_CURVE('',#281,#282,#164,.T.);
#346=EDGE_CURVE('',#282,#282,#244,.T.);
#347=EDGE_CURVE('',#283,#283,#245,.T.);
#348=EDGE_CURVE('',#283,#284,#165,.T.);
#349=EDGE_CURVE('',#284,#284,#246,.T.);
#350=EDGE_CURVE('',#285,#286,#166,.T.);
#351=EDGE_CURVE('',#286,#287,#167,.T.);
#352=EDGE_CURVE('',#288,#287,#168,.T.);
#353=EDGE_CURVE('',#285,#288,#169,.T.);
#354=EDGE_CURVE('',#289,#285,#170,.T.);
#355=EDGE_CURVE('',#290,#288,#171,.T.);
#356=EDGE_CURVE('',#289,#290,#172,.T.);
#357=EDGE_CURVE('',#291,#289,#173,.T.);
#358=EDGE_CURVE('',#292,#290,#174,.T.);
#359=EDGE_CURVE('',#291,#292,#175,.T.);
#360=EDGE_CURVE('',#286,#291,#176,.T.);
#361=EDGE_CURVE('',#287,#292,#177,.T.);
#362=ORIENTED_EDGE('',*,*,#293,.F.);
#363=ORIENTED_EDGE('',*,*,#294,.T.);
#364=ORIENTED_EDGE('',*,*,#295,.T.);
#365=ORIENTED_EDGE('',*,*,#294,.F.);
#366=ORIENTED_EDGE('',*,*,#296,.F.);
#367=ORIENTED_EDGE('',*,*,#297,.T.);
#368=ORIENTED_EDGE('',*,*,#298,.T.);
#369=ORIENTED_EDGE('',*,*,#297,.F.);
#370=ORIENTED_EDGE('',*,*,#299,.F.);
#371=ORIENTED_EDGE('',*,*,#300,.T.);
#372=ORIENTED_EDGE('',*,*,#301,.T.);
#373=ORIENTED_EDGE('',*,*,#300,.F.);
#374=ORIENTED_EDGE('',*,*,#302,.F.);
#375=ORIENTED_EDGE('',*,*,#303,.T.);
#376=ORIENTED_EDGE('',*,*,#304,.T.);
#377=ORIENTED_EDGE('',*,*,#303,.F.);
#378=ORIENTED_EDGE('',*,*,#305,.T.);
#379=ORIENTED_EDGE('',*,*,#306,.T.);
#380=ORIENTED_EDGE('',*,*,#307,.F.);
#381=ORIENTED_EDGE('',*,*,#308,.F.);
#382=ORIENTED_EDGE('',*,*,#309,.T.);
#383=ORIENTED_EDGE('',*,*,#308,.T.);
#384=ORIENTED_EDGE('',*,*,#310,.F.);
#385=ORIENTED_EDGE('',*,*,#311,.F.);
#386=ORIENTED_EDGE('',*,*,#312,.T.);
#387=ORIENTED_EDGE('',*,*,#311,.T.);
#388=ORIENTED_EDGE('',*,*,#313,.F.);
#389=ORIENTED_EDGE('',*,*,#314,.F.);
#390=ORIENTED_EDGE('',*,*,#315,.T.);
#391=ORIENTED_EDGE('',*,*,#314,.T.);
#392=ORIENTED_EDGE('',*,*,#316,.F.);
#393=ORIENTED_EDGE('',*,*,#306,.F.);
#394=ORIENTED_EDGE('',*,*,#317,.F.);
#395=ORIENTED_EDGE('',*,*,#318,.T.);
#396=ORIENTED_EDGE('',*,*,#319,.T.);
#397=ORIENTED_EDGE('',*,*,#318,.F.);
#398=ORIENTED_EDGE('',*,*,#320,.F.);
#399=ORIENTED_EDGE('',*,*,#321,.T.);
#400=ORIENTED_EDGE('',*,*,#322,.T.);
#401=ORIENTED_EDGE('',*,*,#321,.F.);
#402=ORIENTED_EDGE('',*,*,#323,.F.);
#403=ORIENTED_EDGE('',*,*,#324,.T.);
#404=ORIENTED_EDGE('',*,*,#325,.T.);
#405=ORIENTED_EDGE('',*,*,#324,.F.);
#406=ORIENTED_EDGE('',*,*,#326,.F.);
#407=ORIENTED_EDGE('',*,*,#327,.T.);
#408=ORIENTED_EDGE('',*,*,#328,.T.);
#409=ORIENTED_EDGE('',*,*,#327,.F.);
#410=ORIENTED_EDGE('',*,*,#329,.F.);
#411=ORIENTED_EDGE('',*,*,#330,.T.);
#412=ORIENTED_EDGE('',*,*,#331,.T.);
#413=ORIENTED_EDGE('',*,*,#330,.F.);
#414=ORIENTED_EDGE('',*,*,#332,.F.);
#415=ORIENTED_EDGE('',*,*,#333,.T.);
#416=ORIENTED_EDGE('',*,*,#334,.T.);
#417=ORIENTED_EDGE('',*,*,#333,.F.);
#418=ORIENTED_EDGE('',*,*,#335,.F.);
#419=ORIENTED_EDGE('',*,*,#336,.T.);
#420=ORIENTED_EDGE('',*,*,#337,.T.);
#421=ORIENTED_EDGE('',*,*,#336,.F.);
#422=ORIENTED_EDGE('',*,*,#338,.F.);
#423=ORIENTED_EDGE('',*,*,#339,.T.);
#424=ORIENTED_EDGE('',*,*,#340,.T.);
#425=ORIENTED_EDGE('',*,*,#339,.F.);
#426=ORIENTED_EDGE('',*,*,#341,.F.);
#427=ORIENTED_EDGE('',*,*,#342,.T.);
#428=ORIENTED_EDGE('',*,*,#343,.T.);
#429=ORIENTED_EDGE('',*,*,#342,.F.);
#430=ORIENTED_EDGE('',*,*,#344,.F.);
#431=ORIENTED_EDGE('',*,*,#345,.T.);
#432=ORIENTED_EDGE('',*,*,#346,.T.);
#433=ORIENTED_EDGE('',*,*,#345,.F.);
#434=ORIENTED_EDGE('',*,*,#347,.F.);
#435=ORIENTED_EDGE('',*,*,#348,.T.);
#436=ORIENTED_EDGE('',*,*,#349,.T.);
#437=ORIENTED_EDGE('',*,*,#348,.F.);
#438=ORIENTED_EDGE('',*,*,#350,.T.);
#439=ORIENTED_EDGE('',*,*,#351,.T.);
#440=ORIENTED_EDGE('',*,*,#352,.F.);
#441=ORIENTED_EDGE('',*,*,#353,.F.);
#442=ORIENTED_EDGE('',*,*,#354,.T.);
#443=ORIENTED_EDGE('',*,*,#353,.T.);
#444=ORIENTED_EDGE('',*,*,#355,.F.);
#445=ORIENTED_EDGE('',*,*,#356,.F.);
#446=ORIENTED_EDGE('',*,*,#357,.T.);
#447=ORIENTED_EDGE('',*,*,#356,.T.);
#448=ORIENTED_EDGE('',*,*,#358,.F.);
#449=ORIENTED_EDGE('',*,*,#359,.F.);
#450=ORIENTED_EDGE('',*,*,#360,.T.);
#451=ORIENTED_EDGE('',*,*,#359,.T.);
#452=ORIENTED_EDGE('',*,*,#361,.F.);
#453=ORIENTED_EDGE('',*,*,#351,.F.);
#454=ORIENTED_EDGE('',*,*,#361,.T.);
#455=ORIENTED_EDGE('',*,*,#358,.T.);
#456=ORIENTED_EDGE('',*,*,#355,.T.);
#457=ORIENTED_EDGE('',*,*,#352,.T.);
#458=ORIENTED_EDGE('',*,*,#347,.T.);
#459=ORIENTED_EDGE('',*,*,#344,.T.);
#460=ORIENTED_EDGE('',*,*,#341,.T.);
#461=ORIENTED_EDGE('',*,*,#338,.T.);
#462=ORIENTED_EDGE('',*,*,#335,.T.);
#463=ORIENTED_EDGE('',*,*,#332,.T.);
#464=ORIENTED_EDGE('',*,*,#329,.T.);
#465=ORIENTED_EDGE('',*,*,#326,.T.);
#466=ORIENTED_EDGE('',*,*,#323,.T.);
#467=ORIENTED_EDGE('',*,*,#320,.T.);
#468=ORIENTED_EDGE('',*,*,#317,.T.);
#469=ORIENTED_EDGE('',*,*,#316,.T.);
#470=ORIENTED_EDGE('',*,*,#313,.T.);
#471=ORIENTED_EDGE('',*,*,#310,.T.);
#472=ORIENTED_EDGE('',*,*,#307,.T.);
#473=ORIENTED_EDGE('',*,*,#302,.T.);
#474=ORIENTED_EDGE('',*,*,#299,.T.);
#475=ORIENTED_EDGE('',*,*,#296,.T.);
#476=ORIENTED_EDGE('',*,*,#293,.T.);
#477=ORIENTED_EDGE('',*,*,#360,.F.);
#478=ORIENTED_EDGE('',*,*,#350,.F.);
#479=ORIENTED_EDGE('',*,*,#354,.F.);
#480=ORIENTED_EDGE('',*,*,#357,.F.);
#481=ORIENTED_EDGE('',*,*,#349,.F.);
#482=ORIENTED_EDGE('',*,*,#346,.F.);
#483=ORIENTED_EDGE('',*,*,#343,.F.);
#484=ORIENTED_EDGE('',*,*,#340,.F.);
#485=ORIENTED_EDGE('',*,*,#337,.F.);
#486=ORIENTED_EDGE('',*,*,#334,.F.);
#487=ORIENTED_EDGE('',*,*,#331,.F.);
#488=ORIENTED_EDGE('',*,*,#328,.F.);
#489=ORIENTED_EDGE('',*,*,#325,.F.);
#490=ORIENTED_EDGE('',*,*,#322,.F.);
#491=ORIENTED_EDGE('',*,*,#319,.F.);
#492=ORIENTED_EDGE('',*,*,#315,.F.);
#493=ORIENTED_EDGE('',*,*,#305,.F.);
#494=ORIENTED_EDGE('',*,*,#309,.F.);
#495=ORIENTED_EDGE('',*,*,#312,.F.);
#496=ORIENTED_EDGE('',*,*,#304,.F.);
#497=ORIENTED_EDGE('',*,*,#301,.F.);
#498=ORIENTED_EDGE('',*,*,#298,.F.);
#499=ORIENTED_EDGE('',*,*,#295,.F.);
#500=CYLINDRICAL_SURFACE('',#554,1.75);
#501=CYLINDRICAL_SURFACE('',#557,1.75000000000001);
#502=CYLINDRICAL_SURFACE('',#560,1.75000000000001);
#503=CYLINDRICAL_SURFACE('',#563,1.75000000000001);
#504=CYLINDRICAL_SURFACE('',#570,10.);
#505=CYLINDRICAL_SURFACE('',#573,1.75000000000001);
#506=CYLINDRICAL_SURFACE('',#576,6.);
#507=CYLINDRICAL_SURFACE('',#579,1.75000000000001);
#508=CYLINDRICAL_SURFACE('',#582,1.75000000000001);
#509=CYLINDRICAL_SURFACE('',#585,1.75);
#510=CYLINDRICAL_SURFACE('',#588,1.75000000000001);
#511=CYLINDRICAL_SURFACE('',#591,1.75000000000001);
#512=CYLINDRICAL_SURFACE('',#594,1.75);
#513=CYLINDRICAL_SURFACE('',#597,6.);
#514=CYLINDRICAL_SURFACE('',#600,1.75);
#515=ADVANCED_FACE('',(#57),#500,.F.);
#516=ADVANCED_FACE('',(#58),#501,.F.);
#517=ADVANCED_FACE('',(#59),#502,.F.);
#518=ADVANCED_FACE('',(#60),#503,.F.);
#519=ADVANCED_FACE('',(#61),#47,.T.);
#520=ADVANCED_FACE('',(#62),#48,.T.);
#521=ADVANCED_FACE('',(#63),#49,.T.);
#522=ADVANCED_FACE('',(#64),#50,.T.);
#523=ADVANCED_FACE('',(#65),#504,.F.);
#524=ADVANCED_FACE('',(#66),#505,.F.);
#525=ADVANCED_FACE('',(#67),#506,.F.);
#526=ADVANCED_FACE('',(#68),#507,.F.);
#527=ADVANCED_FACE('',(#69),#508,.F.);
#528=ADVANCED_FACE('',(#70),#509,.F.);
#529=ADVANCED_FACE('',(#71),#510,.F.);
#530=ADVANCED_FACE('',(#72),#511,.F.);
#531=ADVANCED_FACE('',(#73),#512,.F.);
#532=ADVANCED_FACE('',(#74),#513,.F.);
#533=ADVANCED_FACE('',(#75),#514,.F.);
#534=ADVANCED_FACE('',(#76),#51,.T.);
#535=ADVANCED_FACE('',(#77),#52,.T.);
#536=ADVANCED_FACE('',(#78),#53,.T.);
#537=ADVANCED_FACE('',(#79),#54,.T.);
#538=ADVANCED_FACE('',(#80,#15,#16,#17,#18,#19,#20,#21,#22,#23,#24,#25,
#26,#27,#28,#29,#30),#55,.T.);
#539=ADVANCED_FACE('',(#81,#31,#32,#33,#34,#35,#36,#37,#38,#39,#40,#41,
#42,#43,#44,#45,#46),#56,.F.);
#540=CLOSED_SHELL('',(#515,#516,#517,#518,#519,#520,#521,#522,#523,#524,
#525,#526,#527,#528,#529,#530,#531,#532,#533,#534,#535,#536,#537,#538,#539));
#541=DERIVED_UNIT_ELEMENT(#543,1.);
#542=DERIVED_UNIT_ELEMENT(#906,-3.);
#543=(
MASS_UNIT()
NAMED_UNIT(*)
SI_UNIT(.KILO.,.GRAM.)
);
#544=DERIVED_UNIT((#541,#542));
#545=MEASURE_REPRESENTATION_ITEM('density measure',
POSITIVE_RATIO_MEASURE(7850.),#544);
#546=PROPERTY_DEFINITION_REPRESENTATION(#551,#548);
#547=PROPERTY_DEFINITION_REPRESENTATION(#552,#549);
#548=REPRESENTATION('material name',(#550),#903);
#549=REPRESENTATION('density',(#545),#903);
#550=DESCRIPTIVE_REPRESENTATION_ITEM('Stahl','Stahl');
#551=PROPERTY_DEFINITION('material property','material name',#913);
#552=PROPERTY_DEFINITION('material property','density of part',#913);
#553=AXIS2_PLACEMENT_3D('',#760,#609,#610);
#554=AXIS2_PLACEMENT_3D('',#761,#611,#612);
#555=AXIS2_PLACEMENT_3D('',#763,#613,#614);
#556=AXIS2_PLACEMENT_3D('',#766,#616,#617);
#557=AXIS2_PLACEMENT_3D('',#767,#618,#619);
#558=AXIS2_PLACEMENT_3D('',#769,#620,#621);
#559=AXIS2_PLACEMENT_3D('',#772,#623,#624);
#560=AXIS2_PLACEMENT_3D('',#773,#625,#626);
#561=AXIS2_PLACEMENT_3D('',#775,#627,#628);
#562=AXIS2_PLACEMENT_3D('',#778,#630,#631);
#563=AXIS2_PLACEMENT_3D('',#779,#632,#633);
#564=AXIS2_PLACEMENT_3D('',#781,#634,#635);
#565=AXIS2_PLACEMENT_3D('',#784,#637,#638);
#566=AXIS2_PLACEMENT_3D('',#785,#639,#640);
#567=AXIS2_PLACEMENT_3D('',#794,#645,#646);
#568=AXIS2_PLACEMENT_3D('',#800,#650,#651);
#569=AXIS2_PLACEMENT_3D('',#806,#655,#656);
#570=AXIS2_PLACEMENT_3D('',#809,#659,#660);
#571=AXIS2_PLACEMENT_3D('',#811,#661,#662);
#572=AXIS2_PLACEMENT_3D('',#814,#664,#665);
#573=AXIS2_PLACEMENT_3D('',#815,#666,#667);
#574=AXIS2_PLACEMENT_3D('',#817,#668,#669);
#575=AXIS2_PLACEMENT_3D('',#820,#671,#672);
#576=AXIS2_PLACEMENT_3D('',#821,#673,#674);
#577=AXIS2_PLACEMENT_3D('',#823,#675,#676);
#578=AXIS2_PLACEMENT_3D('',#826,#678,#679);
#579=AXIS2_PLACEMENT_3D('',#827,#680,#681);
#580=AXIS2_PLACEMENT_3D('',#829,#682,#683);
#581=AXIS2_PLACEMENT_3D('',#832,#685,#686);
#582=AXIS2_PLACEMENT_3D('',#833,#687,#688);
#583=AXIS2_PLACEMENT_3D('',#835,#689,#690);
#584=AXIS2_PLACEMENT_3D('',#838,#692,#693);
#585=AXIS2_PLACEMENT_3D('',#839,#694,#695);
#586=AXIS2_PLACEMENT_3D('',#841,#696,#697);
#587=AXIS2_PLACEMENT_3D('',#844,#699,#700);
#588=AXIS2_PLACEMENT_3D('',#845,#701,#702);
#589=AXIS2_PLACEMENT_3D('',#847,#703,#704);
#590=AXIS2_PLACEMENT_3D('',#850,#706,#707);
#591=AXIS2_PLACEMENT_3D('',#851,#708,#709);
#592=AXIS2_PLACEMENT_3D('',#853,#710,#711);
#593=AXIS2_PLACEMENT_3D('',#856,#713,#714);
#594=AXIS2_PLACEMENT_3D('',#857,#715,#716);
#595=AXIS2_PLACEMENT_3D('',#859,#717,#718);
#596=AXIS2_PLACEMENT_3D('',#862,#720,#721);
#597=AXIS2_PLACEMENT_3D('',#863,#722,#723);
#598=AXIS2_PLACEMENT_3D('',#865,#724,#725);
#599=AXIS2_PLACEMENT_3D('',#868,#727,#728);
#600=AXIS2_PLACEMENT_3D('',#869,#729,#730);
#601=AXIS2_PLACEMENT_3D('',#871,#731,#732);
#602=AXIS2_PLACEMENT_3D('',#874,#734,#735);
#603=AXIS2_PLACEMENT_3D('',#875,#736,#737);
#604=AXIS2_PLACEMENT_3D('',#884,#742,#743);
#605=AXIS2_PLACEMENT_3D('',#890,#747,#748);
#606=AXIS2_PLACEMENT_3D('',#896,#752,#753);
#607=AXIS2_PLACEMENT_3D('',#899,#756,#757);
#608=AXIS2_PLACEMENT_3D('',#900,#758,#759);
#609=DIRECTION('axis',(0.,0.,1.));
#610=DIRECTION('refdir',(1.,0.,0.));
#611=DIRECTION('center_axis',(0.,0.,1.));
#612=DIRECTION('ref_axis',(1.,0.,0.));
#613=DIRECTION('center_axis',(0.,0.,-1.));
#614=DIRECTION('ref_axis',(1.,0.,0.));
#615=DIRECTION('',(0.,0.,-1.));
#616=DIRECTION('center_axis',(0.,0.,-1.));
#617=DIRECTION('ref_axis',(1.,0.,0.));
#618=DIRECTION('center_axis',(0.,0.,1.));
#619=DIRECTION('ref_axis',(1.,0.,0.));
#620=DIRECTION('center_axis',(0.,0.,-1.));
#621=DIRECTION('ref_axis',(1.,0.,0.));
#622=DIRECTION('',(0.,0.,-1.));
#623=DIRECTION('center_axis',(0.,0.,-1.));
#624=DIRECTION('ref_axis',(1.,0.,0.));
#625=DIRECTION('center_axis',(0.,0.,1.));
#626=DIRECTION('ref_axis',(1.,0.,0.));
#627=DIRECTION('center_axis',(0.,0.,-1.));
#628=DIRECTION('ref_axis',(1.,0.,0.));
#629=DIRECTION('',(0.,0.,-1.));
#630=DIRECTION('center_axis',(0.,0.,-1.));
#631=DIRECTION('ref_axis',(1.,0.,0.));
#632=DIRECTION('center_axis',(0.,0.,1.));
#633=DIRECTION('ref_axis',(1.,0.,0.));
#634=DIRECTION('center_axis',(0.,0.,-1.));
#635=DIRECTION('ref_axis',(1.,0.,0.));
#636=DIRECTION('',(0.,0.,-1.));
#637=DIRECTION('center_axis',(0.,0.,-1.));
#638=DIRECTION('ref_axis',(1.,0.,0.));
#639=DIRECTION('center_axis',(-1.,0.,0.));
#640=DIRECTION('ref_axis',(0.,-1.,0.));
#641=DIRECTION('',(0.,-1.,0.));
#642=DIRECTION('',(0.,0.,1.));
#643=DIRECTION('',(0.,-1.,0.));
#644=DIRECTION('',(0.,0.,1.));
#645=DIRECTION('center_axis',(0.,-1.,0.));
#646=DIRECTION('ref_axis',(1.,0.,0.));
#647=DIRECTION('',(1.,0.,0.));
#648=DIRECTION('',(1.,0.,0.));
#649=DIRECTION('',(0.,0.,1.));
#650=DIRECTION('center_axis',(1.,0.,0.));
#651=DIRECTION('ref_axis',(0.,1.,0.));
#652=DIRECTION('',(0.,1.,0.));
#653=DIRECTION('',(0.,1.,0.));
#654=DIRECTION('',(0.,0.,1.));
#655=DIRECTION('center_axis',(-5.9211894646675E-16,1.,0.));
#656=DIRECTION('ref_axis',(-1.,-5.9211894646675E-16,0.));
#657=DIRECTION('',(-1.,-5.9211894646675E-16,0.));
#658=DIRECTION('',(-1.,-5.9211894646675E-16,0.));
#659=DIRECTION('center_axis',(0.,0.,1.));
#660=DIRECTION('ref_axis',(1.,0.,0.));
#661=DIRECTION('center_axis',(0.,0.,-1.));
#662=DIRECTION('ref_axis',(1.,0.,0.));
#663=DIRECTION('',(0.,0.,-1.));
#664=DIRECTION('center_axis',(0.,0.,-1.));
#665=DIRECTION('ref_axis',(1.,0.,0.));
#666=DIRECTION('center_axis',(0.,0.,1.));
#667=DIRECTION('ref_axis',(1.,0.,0.));
#668=DIRECTION('center_axis',(0.,0.,-1.));
#669=DIRECTION('ref_axis',(1.,0.,0.));
#670=DIRECTION('',(0.,0.,-1.));
#671=DIRECTION('center_axis',(0.,0.,-1.));
#672=DIRECTION('ref_axis',(1.,0.,0.));
#673=DIRECTION('center_axis',(0.,0.,1.));
#674=DIRECTION('ref_axis',(1.,0.,0.));
#675=DIRECTION('center_axis',(0.,0.,-1.));
#676=DIRECTION('ref_axis',(1.,0.,0.));
#677=DIRECTION('',(0.,0.,-1.));
#678=DIRECTION('center_axis',(0.,0.,-1.));
#679=DIRECTION('ref_axis',(1.,0.,0.));
#680=DIRECTION('center_axis',(0.,0.,1.));
#681=DIRECTION('ref_axis',(1.,0.,0.));
#682=DIRECTION('center_axis',(0.,0.,-1.));
#683=DIRECTION('ref_axis',(1.,0.,0.));
#684=DIRECTION('',(0.,0.,-1.));
#685=DIRECTION('center_axis',(0.,0.,-1.));
#686=DIRECTION('ref_axis',(1.,0.,0.));
#687=DIRECTION('center_axis',(0.,0.,1.));
#688=DIRECTION('ref_axis',(1.,0.,0.));
#689=DIRECTION('center_axis',(0.,0.,-1.));
#690=DIRECTION('ref_axis',(1.,0.,0.));
#691=DIRECTION('',(0.,0.,-1.));
#692=DIRECTION('center_axis',(0.,0.,-1.));
#693=DIRECTION('ref_axis',(1.,0.,0.));
#694=DIRECTION('center_axis',(0.,0.,1.));
#695=DIRECTION('ref_axis',(1.,0.,0.));
#696=DIRECTION('center_axis',(0.,0.,-1.));
#697=DIRECTION('ref_axis',(1.,0.,0.));
#698=DIRECTION('',(0.,0.,-1.));
#699=DIRECTION('center_axis',(0.,0.,-1.));
#700=DIRECTION('ref_axis',(1.,0.,0.));
#701=DIRECTION('center_axis',(0.,0.,1.));
#702=DIRECTION('ref_axis',(1.,0.,0.));
#703=DIRECTION('center_axis',(0.,0.,-1.));
#704=DIRECTION('ref_axis',(1.,0.,0.));
#705=DIRECTION('',(0.,0.,-1.));
#706=DIRECTION('center_axis',(0.,0.,-1.));
#707=DIRECTION('ref_axis',(1.,0.,0.));
#708=DIRECTION('center_axis',(0.,0.,1.));
#709=DIRECTION('ref_axis',(1.,0.,0.));
#710=DIRECTION('center_axis',(0.,0.,-1.));
#711=DIRECTION('ref_axis',(1.,0.,0.));
#712=DIRECTION('',(0.,0.,-1.));
#713=DIRECTION('center_axis',(0.,0.,-1.));
#714=DIRECTION('ref_axis',(1.,0.,0.));
#715=DIRECTION('center_axis',(0.,0.,1.));
#716=DIRECTION('ref_axis',(1.,0.,0.));
#717=DIRECTION('center_axis',(0.,0.,-1.));
#718=DIRECTION('ref_axis',(1.,0.,0.));
#719=DIRECTION('',(0.,0.,-1.));
#720=DIRECTION('center_axis',(0.,0.,-1.));
#721=DIRECTION('ref_axis',(1.,0.,0.));
#722=DIRECTION('center_axis',(0.,0.,1.));
#723=DIRECTION('ref_axis',(1.,0.,0.));
#724=DIRECTION('center_axis',(0.,0.,-1.));
#725=DIRECTION('ref_axis',(1.,0.,0.));
#726=DIRECTION('',(0.,0.,-1.));
#727=DIRECTION('center_axis',(0.,0.,-1.));
#728=DIRECTION('ref_axis',(1.,0.,0.));
#729=DIRECTION('center_axis',(0.,0.,1.));
#730=DIRECTION('ref_axis',(1.,0.,0.));
#731=DIRECTION('center_axis',(0.,0.,-1.));
#732=DIRECTION('ref_axis',(1.,0.,0.));
#733=DIRECTION('',(0.,0.,-1.));
#734=DIRECTION('center_axis',(0.,0.,-1.));
#735=DIRECTION('ref_axis',(1.,0.,0.));
#736=DIRECTION('center_axis',(0.,1.,0.));
#737=DIRECTION('ref_axis',(-1.,0.,0.));
#738=DIRECTION('',(-1.,0.,0.));
#739=DIRECTION('',(0.,0.,1.));
#740=DIRECTION('',(-1.,0.,0.));
#741=DIRECTION('',(0.,0.,1.));
#742=DIRECTION('center_axis',(1.,0.,0.));
#743=DIRECTION('ref_axis',(0.,1.,0.));
#744=DIRECTION('',(0.,1.,0.));
#745=DIRECTION('',(0.,1.,0.));
#746=DIRECTION('',(0.,0.,1.));
#747=DIRECTION('center_axis',(0.,-1.,0.));
#748=DIRECTION('ref_axis',(1.,0.,0.));
#749=DIRECTION('',(1.,0.,0.));
#750=DIRECTION('',(1.,0.,0.));
#751=DIRECTION('',(0.,0.,1.));
#752=DIRECTION('center_axis',(-1.,0.,0.));
#753=DIRECTION('ref_axis',(0.,-1.,0.));
#754=DIRECTION('',(0.,-1.,0.));
#755=DIRECTION('',(0.,-1.,0.));
#756=DIRECTION('center_axis',(0.,0.,1.));
#757=DIRECTION('ref_axis',(1.,0.,0.));
#758=DIRECTION('center_axis',(0.,0.,1.));
#759=DIRECTION('ref_axis',(1.,0.,0.));
#760=CARTESIAN_POINT('',(0.,0.,0.));
#761=CARTESIAN_POINT('Origin',(50.,123.5,0.));
#762=CARTESIAN_POINT('',(48.25,123.5,5.));
#763=CARTESIAN_POINT('Origin',(50.,123.5,5.));
#764=CARTESIAN_POINT('',(48.25,123.5,0.));
#765=CARTESIAN_POINT('',(48.25,123.5,0.));
#766=CARTESIAN_POINT('Origin',(50.,123.5,0.));
#767=CARTESIAN_POINT('Origin',(154.,86.,0.));
#768=CARTESIAN_POINT('',(152.25,86.,5.));
#769=CARTESIAN_POINT('Origin',(154.,86.,5.));
#770=CARTESIAN_POINT('',(152.25,86.,0.));
#771=CARTESIAN_POINT('',(152.25,86.,0.));
#772=CARTESIAN_POINT('Origin',(154.,86.,0.));
#773=CARTESIAN_POINT('Origin',(141.5,123.5,0.));
#774=CARTESIAN_POINT('',(139.75,123.5,5.));
#775=CARTESIAN_POINT('Origin',(141.5,123.5,5.));
#776=CARTESIAN_POINT('',(139.75,123.5,0.));
#777=CARTESIAN_POINT('',(139.75,123.5,0.));
#778=CARTESIAN_POINT('Origin',(141.5,123.5,0.));
#779=CARTESIAN_POINT('Origin',(141.5,173.5,0.));
#780=CARTESIAN_POINT('',(139.75,173.5,5.));
#781=CARTESIAN_POINT('Origin',(141.5,173.5,5.));
#782=CARTESIAN_POINT('',(139.75,173.5,0.));
#783=CARTESIAN_POINT('',(139.75,173.5,0.));
#784=CARTESIAN_POINT('Origin',(141.5,173.5,0.));
#785=CARTESIAN_POINT('Origin',(187.,83.,0.));
#786=CARTESIAN_POINT('',(187.,83.,0.));
#787=CARTESIAN_POINT('',(187.,33.,0.));
#788=CARTESIAN_POINT('',(187.,83.,0.));
#789=CARTESIAN_POINT('',(187.,33.,5.));
#790=CARTESIAN_POINT('',(187.,33.,0.));
#791=CARTESIAN_POINT('',(187.,83.,5.));
#792=CARTESIAN_POINT('',(187.,83.,5.));
#793=CARTESIAN_POINT('',(187.,83.,0.));
#794=CARTESIAN_POINT('Origin',(157.,83.,0.));
#795=CARTESIAN_POINT('',(157.,83.,0.));
#796=CARTESIAN_POINT('',(157.,83.,0.));
#797=CARTESIAN_POINT('',(157.,83.,5.));
#798=CARTESIAN_POINT('',(157.,83.,5.));
#799=CARTESIAN_POINT('',(157.,83.,0.));
#800=CARTESIAN_POINT('Origin',(157.,33.,0.));
#801=CARTESIAN_POINT('',(157.,33.,0.));
#802=CARTESIAN_POINT('',(157.,33.,0.));
#803=CARTESIAN_POINT('',(157.,33.,5.));
#804=CARTESIAN_POINT('',(157.,33.,5.));
#805=CARTESIAN_POINT('',(157.,33.,0.));
#806=CARTESIAN_POINT('Origin',(187.,33.,0.));
#807=CARTESIAN_POINT('',(187.,33.,0.));
#808=CARTESIAN_POINT('',(187.,33.,5.));
#809=CARTESIAN_POINT('Origin',(196.5,173.492673745632,0.));
#810=CARTESIAN_POINT('',(186.5,173.492673745632,5.));
#811=CARTESIAN_POINT('Origin',(196.5,173.492673745632,5.));
#812=CARTESIAN_POINT('',(186.5,173.492673745632,0.));
#813=CARTESIAN_POINT('',(186.5,173.492673745632,0.));
#814=CARTESIAN_POINT('Origin',(196.5,173.492673745632,0.));
#815=CARTESIAN_POINT('Origin',(190.,30.,0.));
#816=CARTESIAN_POINT('',(188.25,30.,5.));
#817=CARTESIAN_POINT('Origin',(190.,30.,5.));
#818=CARTESIAN_POINT('',(188.25,30.,0.));
#819=CARTESIAN_POINT('',(188.25,30.,0.));
#820=CARTESIAN_POINT('Origin',(190.,30.,0.));
#821=CARTESIAN_POINT('Origin',(40.,30.,0.));
#822=CARTESIAN_POINT('',(34.,30.,5.));
#823=CARTESIAN_POINT('Origin',(40.,30.,5.));
#824=CARTESIAN_POINT('',(34.,30.,0.));
#825=CARTESIAN_POINT('',(34.,30.,0.));
#826=CARTESIAN_POINT('Origin',(40.,30.,0.));
#827=CARTESIAN_POINT('Origin',(161.5,173.5,0.));
#828=CARTESIAN_POINT('',(159.75,173.5,5.));
#829=CARTESIAN_POINT('Origin',(161.5,173.5,5.));
#830=CARTESIAN_POINT('',(159.75,173.5,0.));
#831=CARTESIAN_POINT('',(159.75,173.5,0.));
#832=CARTESIAN_POINT('Origin',(161.5,173.5,0.));
#833=CARTESIAN_POINT('Origin',(190.,86.,0.));
#834=CARTESIAN_POINT('',(188.25,86.,5.));
#835=CARTESIAN_POINT('Origin',(190.,86.,5.));
#836=CARTESIAN_POINT('',(188.25,86.,0.));
#837=CARTESIAN_POINT('',(188.25,86.,0.));
#838=CARTESIAN_POINT('Origin',(190.,86.,0.));
#839=CARTESIAN_POINT('Origin',(30.,173.5,0.));
#840=CARTESIAN_POINT('',(28.25,173.5,5.));
#841=CARTESIAN_POINT('Origin',(30.,173.5,5.));
#842=CARTESIAN_POINT('',(28.25,173.5,0.));
#843=CARTESIAN_POINT('',(28.25,173.5,0.));
#844=CARTESIAN_POINT('Origin',(30.,173.5,0.));
#845=CARTESIAN_POINT('Origin',(154.,30.,0.));
#846=CARTESIAN_POINT('',(152.25,30.,5.));
#847=CARTESIAN_POINT('Origin',(154.,30.,5.));
#848=CARTESIAN_POINT('',(152.25,30.,0.));
#849=CARTESIAN_POINT('',(152.25,30.,0.));
#850=CARTESIAN_POINT('Origin',(154.,30.,0.));
#851=CARTESIAN_POINT('Origin',(161.5,123.5,0.));
#852=CARTESIAN_POINT('',(159.75,123.5,5.));
#853=CARTESIAN_POINT('Origin',(161.5,123.5,5.));
#854=CARTESIAN_POINT('',(159.75,123.5,0.));
#855=CARTESIAN_POINT('',(159.75,123.5,0.));
#856=CARTESIAN_POINT('Origin',(161.5,123.5,0.));
#857=CARTESIAN_POINT('Origin',(50.,173.5,0.));
#858=CARTESIAN_POINT('',(48.25,173.5,5.));
#859=CARTESIAN_POINT('Origin',(50.,173.5,5.));
#860=CARTESIAN_POINT('',(48.25,173.5,0.));
#861=CARTESIAN_POINT('',(48.25,173.5,0.));
#862=CARTESIAN_POINT('Origin',(50.,173.5,0.));
#863=CARTESIAN_POINT('Origin',(20.,30.,0.));
#864=CARTESIAN_POINT('',(14.,30.,5.));
#865=CARTESIAN_POINT('Origin',(20.,30.,5.));
#866=CARTESIAN_POINT('',(14.,30.,0.));
#867=CARTESIAN_POINT('',(14.,30.,0.));
#868=CARTESIAN_POINT('Origin',(20.,30.,0.));
#869=CARTESIAN_POINT('Origin',(30.,123.5,0.));
#870=CARTESIAN_POINT('',(28.25,123.5,5.));
#871=CARTESIAN_POINT('Origin',(30.,123.5,5.));
#872=CARTESIAN_POINT('',(28.25,123.5,0.));
#873=CARTESIAN_POINT('',(28.25,123.5,0.));
#874=CARTESIAN_POINT('Origin',(30.,123.5,0.));
#875=CARTESIAN_POINT('Origin',(210.,297.,0.));
#876=CARTESIAN_POINT('',(210.,297.,0.));
#877=CARTESIAN_POINT('',(0.,297.,0.));
#878=CARTESIAN_POINT('',(210.,297.,0.));
#879=CARTESIAN_POINT('',(0.,297.,5.));
#880=CARTESIAN_POINT('',(0.,297.,0.));
#881=CARTESIAN_POINT('',(210.,297.,5.));
#882=CARTESIAN_POINT('',(210.,297.,5.));
#883=CARTESIAN_POINT('',(210.,297.,0.));
#884=CARTESIAN_POINT('Origin',(210.,0.,0.));
#885=CARTESIAN_POINT('',(210.,0.,0.));
#886=CARTESIAN_POINT('',(210.,0.,0.));
#887=CARTESIAN_POINT('',(210.,0.,5.));
#888=CARTESIAN_POINT('',(210.,0.,5.));
#889=CARTESIAN_POINT('',(210.,0.,0.));
#890=CARTESIAN_POINT('Origin',(0.,0.,0.));
#891=CARTESIAN_POINT('',(0.,0.,0.));
#892=CARTESIAN_POINT('',(0.,0.,0.));
#893=CARTESIAN_POINT('',(0.,0.,5.));
#894=CARTESIAN_POINT('',(0.,0.,5.));
#895=CARTESIAN_POINT('',(0.,0.,0.));
#896=CARTESIAN_POINT('Origin',(0.,297.,0.));
#897=CARTESIAN_POINT('',(0.,297.,0.));
#898=CARTESIAN_POINT('',(0.,297.,5.));
#899=CARTESIAN_POINT('Origin',(105.,148.5,5.));
#900=CARTESIAN_POINT('Origin',(105.,148.5,0.));
#901=UNCERTAINTY_MEASURE_WITH_UNIT(LENGTH_MEASURE(0.01),#905,
'DISTANCE_ACCURACY_VALUE',
'Maximum model space distance between geometric entities at asserted c
onnectivities');
#902=UNCERTAINTY_MEASURE_WITH_UNIT(LENGTH_MEASURE(0.01),#905,
'DISTANCE_ACCURACY_VALUE',
'Maximum model space distance between geometric entities at asserted c
onnectivities');
#903=(
GEOMETRIC_REPRESENTATION_CONTEXT(3)
GLOBAL_UNCERTAINTY_ASSIGNED_CONTEXT((#901))
GLOBAL_UNIT_ASSIGNED_CONTEXT((#905,#907,#908))
REPRESENTATION_CONTEXT('','3D')
);
#904=(
GEOMETRIC_REPRESENTATION_CONTEXT(3)
GLOBAL_UNCERTAINTY_ASSIGNED_CONTEXT((#902))
GLOBAL_UNIT_ASSIGNED_CONTEXT((#905,#907,#908))
REPRESENTATION_CONTEXT('','3D')
);
#905=(
LENGTH_UNIT()
NAMED_UNIT(*)
SI_UNIT(.MILLI.,.METRE.)
);
#906=(
LENGTH_UNIT()
NAMED_UNIT(*)
SI_UNIT($,.METRE.)
);
#907=(
NAMED_UNIT(*)
PLANE_ANGLE_UNIT()
SI_UNIT($,.RADIAN.)
);
#908=(
NAMED_UNIT(*)
SI_UNIT($,.STERADIAN.)
SOLID_ANGLE_UNIT()
);
#909=SHAPE_DEFINITION_REPRESENTATION(#910,#911);
#910=PRODUCT_DEFINITION_SHAPE('',$,#913);
#911=SHAPE_REPRESENTATION('',(#553),#903);
#912=PRODUCT_DEFINITION_CONTEXT('part definition',#917,'design');
#913=PRODUCT_DEFINITION('Board_Kran','Board_Kran v4',#914,#912);
#914=PRODUCT_DEFINITION_FORMATION('',$,#919);
#915=PRODUCT_RELATED_PRODUCT_CATEGORY('Board_Kran v4','Board_Kran v4',(#919));
#916=APPLICATION_PROTOCOL_DEFINITION('international standard',
'automotive_design',2009,#917);
#917=APPLICATION_CONTEXT(
'Core Data for Automotive Mechanical Design Process');
#918=PRODUCT_CONTEXT('part definition',#917,'mechanical');
#919=PRODUCT('Board_Kran','Board_Kran v4',$,(#918));
#920=PRESENTATION_STYLE_ASSIGNMENT((#921));
#921=SURFACE_STYLE_USAGE(.BOTH.,#922);
#922=SURFACE_SIDE_STYLE('',(#923));
#923=SURFACE_STYLE_FILL_AREA(#924);
#924=FILL_AREA_STYLE('Stahl - satiniert',(#925));
#925=FILL_AREA_STYLE_COLOUR('Stahl - satiniert',#926);
#926=COLOUR_RGB('Stahl - satiniert',0.627450980392157,0.627450980392157,
0.627450980392157);
ENDSEC;
END-ISO-10303-21;
