ISO-10303-21;
HEADER;
/* Generated by software containing ST-Developer
 * from STEP Tools, Inc. (www.steptools.com) 
 */

FILE_DESCRIPTION(
/* description */ (''),
/* implementation_level */ '2;1');

FILE_NAME(
/* name */ 'Kran_Sperrplatte.step',
/* time_stamp */ '2026-06-28T17:05:33+02:00',
/* author */ (''),
/* organization */ (''),
/* preprocessor_version */ 'ST-DEVELOPER v20.1',
/* originating_system */ 'Autodesk Translation Framework v15.8.0.0',
/* authorisation */ '');

FILE_SCHEMA (('AUTOMOTIVE_DESIGN { 1 0 10303 214 3 1 1 }'));
ENDSEC;

DATA;
#10=MECHANICAL_DESIGN_GEOMETRIC_PRESENTATION_REPRESENTATION('',(#13),#813);
#11=SHAPE_REPRESENTATION_RELATIONSHIP('SRR','None',#820,#12);
#12=ADVANCED_BREP_SHAPE_REPRESENTATION('',(#14),#812);
#13=STYLED_ITEM('',(#829),#14);
#14=MANIFOLD_SOLID_BREP('Sperrplatte_V',#477);
#15=FACE_BOUND('',#81,.T.);
#16=FACE_BOUND('',#82,.T.);
#17=FACE_BOUND('',#83,.T.);
#18=FACE_BOUND('',#84,.T.);
#19=FACE_BOUND('',#85,.T.);
#20=FACE_BOUND('',#86,.T.);
#21=FACE_BOUND('',#87,.T.);
#22=FACE_BOUND('',#95,.T.);
#23=FACE_BOUND('',#96,.T.);
#24=FACE_BOUND('',#97,.T.);
#25=FACE_BOUND('',#99,.T.);
#26=FACE_BOUND('',#103,.T.);
#27=FACE_BOUND('',#107,.T.);
#28=FACE_BOUND('',#111,.T.);
#29=FACE_BOUND('',#117,.T.);
#30=FACE_BOUND('',#118,.T.);
#31=FACE_BOUND('',#119,.T.);
#32=FACE_BOUND('',#120,.T.);
#33=FACE_BOUND('',#121,.T.);
#34=PLANE('',#497);
#35=PLANE('',#498);
#36=PLANE('',#499);
#37=PLANE('',#505);
#38=PLANE('',#506);
#39=PLANE('',#507);
#40=PLANE('',#508);
#41=PLANE('',#514);
#42=PLANE('',#515);
#43=PLANE('',#521);
#44=PLANE('',#527);
#45=PLANE('',#533);
#46=PLANE('',#539);
#47=PLANE('',#540);
#48=PLANE('',#541);
#49=FACE_OUTER_BOUND('',#76,.T.);
#50=FACE_OUTER_BOUND('',#77,.T.);
#51=FACE_OUTER_BOUND('',#78,.T.);
#52=FACE_OUTER_BOUND('',#79,.T.);
#53=FACE_OUTER_BOUND('',#80,.T.);
#54=FACE_OUTER_BOUND('',#88,.T.);
#55=FACE_OUTER_BOUND('',#89,.T.);
#56=FACE_OUTER_BOUND('',#90,.T.);
#57=FACE_OUTER_BOUND('',#91,.T.);
#58=FACE_OUTER_BOUND('',#92,.T.);
#59=FACE_OUTER_BOUND('',#93,.T.);
#60=FACE_OUTER_BOUND('',#94,.T.);
#61=FACE_OUTER_BOUND('',#98,.T.);
#62=FACE_OUTER_BOUND('',#100,.T.);
#63=FACE_OUTER_BOUND('',#101,.T.);
#64=FACE_OUTER_BOUND('',#102,.T.);
#65=FACE_OUTER_BOUND('',#104,.T.);
#66=FACE_OUTER_BOUND('',#105,.T.);
#67=FACE_OUTER_BOUND('',#106,.T.);
#68=FACE_OUTER_BOUND('',#108,.T.);
#69=FACE_OUTER_BOUND('',#109,.T.);
#70=FACE_OUTER_BOUND('',#110,.T.);
#71=FACE_OUTER_BOUND('',#112,.T.);
#72=FACE_OUTER_BOUND('',#113,.T.);
#73=FACE_OUTER_BOUND('',#114,.T.);
#74=FACE_OUTER_BOUND('',#115,.T.);
#75=FACE_OUTER_BOUND('',#116,.T.);
#76=EDGE_LOOP('',(#318,#319,#320,#321));
#77=EDGE_LOOP('',(#322,#323,#324,#325));
#78=EDGE_LOOP('',(#326,#327,#328,#329));
#79=EDGE_LOOP('',(#330,#331,#332,#333));
#80=EDGE_LOOP('',(#334,#335,#336,#337,#338,#339,#340,#341));
#81=EDGE_LOOP('',(#342));
#82=EDGE_LOOP('',(#343));
#83=EDGE_LOOP('',(#344));
#84=EDGE_LOOP('',(#345));
#85=EDGE_LOOP('',(#346));
#86=EDGE_LOOP('',(#347));
#87=EDGE_LOOP('',(#348));
#88=EDGE_LOOP('',(#349,#350,#351,#352));
#89=EDGE_LOOP('',(#353,#354,#355,#356));
#90=EDGE_LOOP('',(#357,#358,#359,#360));
#91=EDGE_LOOP('',(#361,#362,#363,#364));
#92=EDGE_LOOP('',(#365,#366,#367,#368));
#93=EDGE_LOOP('',(#369,#370,#371,#372));
#94=EDGE_LOOP('',(#373));
#95=EDGE_LOOP('',(#374));
#96=EDGE_LOOP('',(#375));
#97=EDGE_LOOP('',(#376));
#98=EDGE_LOOP('',(#377));
#99=EDGE_LOOP('',(#378));
#100=EDGE_LOOP('',(#379,#380,#381,#382));
#101=EDGE_LOOP('',(#383,#384,#385,#386));
#102=EDGE_LOOP('',(#387));
#103=EDGE_LOOP('',(#388));
#104=EDGE_LOOP('',(#389,#390,#391,#392));
#105=EDGE_LOOP('',(#393,#394,#395,#396));
#106=EDGE_LOOP('',(#397));
#107=EDGE_LOOP('',(#398));
#108=EDGE_LOOP('',(#399,#400,#401,#402));
#109=EDGE_LOOP('',(#403,#404,#405,#406));
#110=EDGE_LOOP('',(#407));
#111=EDGE_LOOP('',(#408));
#112=EDGE_LOOP('',(#409,#410,#411,#412));
#113=EDGE_LOOP('',(#413,#414,#415,#416));
#114=EDGE_LOOP('',(#417,#418,#419,#420));
#115=EDGE_LOOP('',(#421,#422,#423,#424));
#116=EDGE_LOOP('',(#425,#426,#427,#428,#429,#430,#431,#432));
#117=EDGE_LOOP('',(#433));
#118=EDGE_LOOP('',(#434));
#119=EDGE_LOOP('',(#435));
#120=EDGE_LOOP('',(#436));
#121=EDGE_LOOP('',(#437));
#122=LINE('',#687,#158);
#123=LINE('',#693,#159);
#124=LINE('',#698,#160);
#125=LINE('',#700,#161);
#126=LINE('',#702,#162);
#127=LINE('',#703,#163);
#128=LINE('',#706,#164);
#129=LINE('',#708,#165);
#130=LINE('',#709,#166);
#131=LINE('',#712,#167);
#132=LINE('',#714,#168);
#133=LINE('',#716,#169);
#134=LINE('',#718,#170);
#135=LINE('',#720,#171);
#136=LINE('',#721,#172);
#137=LINE('',#735,#173);
#138=LINE('',#736,#174);
#139=LINE('',#737,#175);
#140=LINE('',#740,#176);
#141=LINE('',#741,#177);
#142=LINE('',#744,#178);
#143=LINE('',#745,#179);
#144=LINE('',#748,#180);
#145=LINE('',#749,#181);
#146=LINE('',#753,#182);
#147=LINE('',#758,#183);
#148=LINE('',#769,#184);
#149=LINE('',#771,#185);
#150=LINE('',#780,#186);
#151=LINE('',#782,#187);
#152=LINE('',#791,#188);
#153=LINE('',#793,#189);
#154=LINE('',#802,#190);
#155=LINE('',#804,#191);
#156=LINE('',#806,#192);
#157=LINE('',#808,#193);
#158=VECTOR('',#548,1.75);
#159=VECTOR('',#555,1.75);
#160=VECTOR('',#560,10.);
#161=VECTOR('',#561,10.);
#162=VECTOR('',#562,10.);
#163=VECTOR('',#563,10.);
#164=VECTOR('',#566,10.);
#165=VECTOR('',#567,10.);
#166=VECTOR('',#568,10.);
#167=VECTOR('',#571,10.);
#168=VECTOR('',#572,10.);
#169=VECTOR('',#573,10.);
#170=VECTOR('',#574,10.);
#171=VECTOR('',#575,10.);
#172=VECTOR('',#576,10.);
#173=VECTOR('',#589,10.);
#174=VECTOR('',#590,10.);
#175=VECTOR('',#591,10.);
#176=VECTOR('',#594,10.);
#177=VECTOR('',#595,10.);
#178=VECTOR('',#598,10.);
#179=VECTOR('',#599,10.);
#180=VECTOR('',#602,10.);
#181=VECTOR('',#603,10.);
#182=VECTOR('',#608,2.5);
#183=VECTOR('',#613,10.5);
#184=VECTOR('',#628,3.);
#185=VECTOR('',#631,1.75);
#186=VECTOR('',#642,3.);
#187=VECTOR('',#645,1.75);
#188=VECTOR('',#656,3.);
#189=VECTOR('',#659,1.75);
#190=VECTOR('',#670,3.);
#191=VECTOR('',#673,1.75);
#192=VECTOR('',#676,10.);
#193=VECTOR('',#679,10.);
#194=CIRCLE('',#492,1.75);
#195=CIRCLE('',#493,1.75);
#196=CIRCLE('',#495,1.75);
#197=CIRCLE('',#496,1.75);
#198=CIRCLE('',#500,1.75);
#199=CIRCLE('',#501,1.75);
#200=CIRCLE('',#502,1.75);
#201=CIRCLE('',#503,1.75);
#202=CIRCLE('',#504,2.5);
#203=CIRCLE('',#510,2.5);
#204=CIRCLE('',#512,10.5);
#205=CIRCLE('',#513,10.5);
#206=CIRCLE('',#516,3.);
#207=CIRCLE('',#517,1.75);
#208=CIRCLE('',#519,3.);
#209=CIRCLE('',#522,3.);
#210=CIRCLE('',#523,1.75);
#211=CIRCLE('',#525,3.);
#212=CIRCLE('',#528,3.);
#213=CIRCLE('',#529,1.75);
#214=CIRCLE('',#531,3.);
#215=CIRCLE('',#534,3.);
#216=CIRCLE('',#535,1.75);
#217=CIRCLE('',#537,3.);
#218=VERTEX_POINT('',#684);
#219=VERTEX_POINT('',#686);
#220=VERTEX_POINT('',#690);
#221=VERTEX_POINT('',#692);
#222=VERTEX_POINT('',#696);
#223=VERTEX_POINT('',#697);
#224=VERTEX_POINT('',#699);
#225=VERTEX_POINT('',#701);
#226=VERTEX_POINT('',#705);
#227=VERTEX_POINT('',#707);
#228=VERTEX_POINT('',#711);
#229=VERTEX_POINT('',#713);
#230=VERTEX_POINT('',#715);
#231=VERTEX_POINT('',#717);
#232=VERTEX_POINT('',#719);
#233=VERTEX_POINT('',#722);
#234=VERTEX_POINT('',#724);
#235=VERTEX_POINT('',#726);
#236=VERTEX_POINT('',#728);
#237=VERTEX_POINT('',#730);
#238=VERTEX_POINT('',#733);
#239=VERTEX_POINT('',#734);
#240=VERTEX_POINT('',#739);
#241=VERTEX_POINT('',#743);
#242=VERTEX_POINT('',#747);
#243=VERTEX_POINT('',#751);
#244=VERTEX_POINT('',#755);
#245=VERTEX_POINT('',#757);
#246=VERTEX_POINT('',#762);
#247=VERTEX_POINT('',#764);
#248=VERTEX_POINT('',#767);
#249=VERTEX_POINT('',#773);
#250=VERTEX_POINT('',#775);
#251=VERTEX_POINT('',#778);
#252=VERTEX_POINT('',#784);
#253=VERTEX_POINT('',#786);
#254=VERTEX_POINT('',#789);
#255=VERTEX_POINT('',#795);
#256=VERTEX_POINT('',#797);
#257=VERTEX_POINT('',#800);
#258=EDGE_CURVE('',#218,#218,#194,.T.);
#259=EDGE_CURVE('',#218,#219,#122,.T.);
#260=EDGE_CURVE('',#219,#219,#195,.T.);
#261=EDGE_CURVE('',#220,#220,#196,.T.);
#262=EDGE_CURVE('',#220,#221,#123,.T.);
#263=EDGE_CURVE('',#221,#221,#197,.T.);
#264=EDGE_CURVE('',#222,#223,#124,.T.);
#265=EDGE_CURVE('',#223,#224,#125,.T.);
#266=EDGE_CURVE('',#224,#225,#126,.T.);
#267=EDGE_CURVE('',#225,#222,#127,.T.);
#268=EDGE_CURVE('',#225,#226,#128,.T.);
#269=EDGE_CURVE('',#227,#226,#129,.T.);
#270=EDGE_CURVE('',#222,#227,#130,.T.);
#271=EDGE_CURVE('',#228,#224,#131,.T.);
#272=EDGE_CURVE('',#229,#228,#132,.T.);
#273=EDGE_CURVE('',#230,#229,#133,.T.);
#274=EDGE_CURVE('',#231,#230,#134,.T.);
#275=EDGE_CURVE('',#232,#231,#135,.T.);
#276=EDGE_CURVE('',#226,#232,#136,.T.);
#277=EDGE_CURVE('',#233,#233,#198,.T.);
#278=EDGE_CURVE('',#234,#234,#199,.T.);
#279=EDGE_CURVE('',#235,#235,#200,.T.);
#280=EDGE_CURVE('',#236,#236,#201,.T.);
#281=EDGE_CURVE('',#237,#237,#202,.T.);
#282=EDGE_CURVE('',#238,#239,#137,.T.);
#283=EDGE_CURVE('',#239,#229,#138,.T.);
#284=EDGE_CURVE('',#228,#238,#139,.T.);
#285=EDGE_CURVE('',#240,#239,#140,.T.);
#286=EDGE_CURVE('',#230,#240,#141,.T.);
#287=EDGE_CURVE('',#240,#241,#142,.T.);
#288=EDGE_CURVE('',#241,#231,#143,.T.);
#289=EDGE_CURVE('',#242,#227,#144,.T.);
#290=EDGE_CURVE('',#232,#242,#145,.T.);
#291=EDGE_CURVE('',#243,#243,#203,.T.);
#292=EDGE_CURVE('',#243,#237,#146,.T.);
#293=EDGE_CURVE('',#244,#244,#204,.T.);
#294=EDGE_CURVE('',#244,#245,#147,.T.);
#295=EDGE_CURVE('',#245,#245,#205,.T.);
#296=EDGE_CURVE('',#246,#246,#206,.T.);
#297=EDGE_CURVE('',#247,#247,#207,.T.);
#298=EDGE_CURVE('',#248,#248,#208,.T.);
#299=EDGE_CURVE('',#248,#246,#148,.T.);
#300=EDGE_CURVE('',#247,#236,#149,.T.);
#301=EDGE_CURVE('',#249,#249,#209,.T.);
#302=EDGE_CURVE('',#250,#250,#210,.T.);
#303=EDGE_CURVE('',#251,#251,#211,.T.);
#304=EDGE_CURVE('',#251,#249,#150,.T.);
#305=EDGE_CURVE('',#250,#235,#151,.T.);
#306=EDGE_CURVE('',#252,#252,#212,.T.);
#307=EDGE_CURVE('',#253,#253,#213,.T.);
#308=EDGE_CURVE('',#254,#254,#214,.T.);
#309=EDGE_CURVE('',#254,#252,#152,.T.);
#310=EDGE_CURVE('',#253,#234,#153,.T.);
#311=EDGE_CURVE('',#255,#255,#215,.T.);
#312=EDGE_CURVE('',#256,#256,#216,.T.);
#313=EDGE_CURVE('',#257,#257,#217,.T.);
#314=EDGE_CURVE('',#257,#255,#154,.T.);
#315=EDGE_CURVE('',#256,#233,#155,.T.);
#316=EDGE_CURVE('',#238,#223,#156,.T.);
#317=EDGE_CURVE('',#242,#241,#157,.T.);
#318=ORIENTED_EDGE('',*,*,#258,.F.);
#319=ORIENTED_EDGE('',*,*,#259,.T.);
#320=ORIENTED_EDGE('',*,*,#260,.F.);
#321=ORIENTED_EDGE('',*,*,#259,.F.);
#322=ORIENTED_EDGE('',*,*,#261,.F.);
#323=ORIENTED_EDGE('',*,*,#262,.T.);
#324=ORIENTED_EDGE('',*,*,#263,.F.);
#325=ORIENTED_EDGE('',*,*,#262,.F.);
#326=ORIENTED_EDGE('',*,*,#264,.T.);
#327=ORIENTED_EDGE('',*,*,#265,.T.);
#328=ORIENTED_EDGE('',*,*,#266,.T.);
#329=ORIENTED_EDGE('',*,*,#267,.T.);
#330=ORIENTED_EDGE('',*,*,#267,.F.);
#331=ORIENTED_EDGE('',*,*,#268,.T.);
#332=ORIENTED_EDGE('',*,*,#269,.F.);
#333=ORIENTED_EDGE('',*,*,#270,.F.);
#334=ORIENTED_EDGE('',*,*,#266,.F.);
#335=ORIENTED_EDGE('',*,*,#271,.F.);
#336=ORIENTED_EDGE('',*,*,#272,.F.);
#337=ORIENTED_EDGE('',*,*,#273,.F.);
#338=ORIENTED_EDGE('',*,*,#274,.F.);
#339=ORIENTED_EDGE('',*,*,#275,.F.);
#340=ORIENTED_EDGE('',*,*,#276,.F.);
#341=ORIENTED_EDGE('',*,*,#268,.F.);
#342=ORIENTED_EDGE('',*,*,#277,.T.);
#343=ORIENTED_EDGE('',*,*,#278,.T.);
#344=ORIENTED_EDGE('',*,*,#279,.T.);
#345=ORIENTED_EDGE('',*,*,#280,.T.);
#346=ORIENTED_EDGE('',*,*,#281,.T.);
#347=ORIENTED_EDGE('',*,*,#263,.T.);
#348=ORIENTED_EDGE('',*,*,#260,.T.);
#349=ORIENTED_EDGE('',*,*,#282,.T.);
#350=ORIENTED_EDGE('',*,*,#283,.T.);
#351=ORIENTED_EDGE('',*,*,#272,.T.);
#352=ORIENTED_EDGE('',*,*,#284,.T.);
#353=ORIENTED_EDGE('',*,*,#283,.F.);
#354=ORIENTED_EDGE('',*,*,#285,.F.);
#355=ORIENTED_EDGE('',*,*,#286,.F.);
#356=ORIENTED_EDGE('',*,*,#273,.T.);
#357=ORIENTED_EDGE('',*,*,#287,.T.);
#358=ORIENTED_EDGE('',*,*,#288,.T.);
#359=ORIENTED_EDGE('',*,*,#274,.T.);
#360=ORIENTED_EDGE('',*,*,#286,.T.);
#361=ORIENTED_EDGE('',*,*,#289,.T.);
#362=ORIENTED_EDGE('',*,*,#269,.T.);
#363=ORIENTED_EDGE('',*,*,#276,.T.);
#364=ORIENTED_EDGE('',*,*,#290,.T.);
#365=ORIENTED_EDGE('',*,*,#291,.F.);
#366=ORIENTED_EDGE('',*,*,#292,.T.);
#367=ORIENTED_EDGE('',*,*,#281,.F.);
#368=ORIENTED_EDGE('',*,*,#292,.F.);
#369=ORIENTED_EDGE('',*,*,#293,.F.);
#370=ORIENTED_EDGE('',*,*,#294,.T.);
#371=ORIENTED_EDGE('',*,*,#295,.T.);
#372=ORIENTED_EDGE('',*,*,#294,.F.);
#373=ORIENTED_EDGE('',*,*,#295,.F.);
#374=ORIENTED_EDGE('',*,*,#258,.T.);
#375=ORIENTED_EDGE('',*,*,#261,.T.);
#376=ORIENTED_EDGE('',*,*,#291,.T.);
#377=ORIENTED_EDGE('',*,*,#296,.F.);
#378=ORIENTED_EDGE('',*,*,#297,.T.);
#379=ORIENTED_EDGE('',*,*,#298,.F.);
#380=ORIENTED_EDGE('',*,*,#299,.T.);
#381=ORIENTED_EDGE('',*,*,#296,.T.);
#382=ORIENTED_EDGE('',*,*,#299,.F.);
#383=ORIENTED_EDGE('',*,*,#297,.F.);
#384=ORIENTED_EDGE('',*,*,#300,.T.);
#385=ORIENTED_EDGE('',*,*,#280,.F.);
#386=ORIENTED_EDGE('',*,*,#300,.F.);
#387=ORIENTED_EDGE('',*,*,#301,.F.);
#388=ORIENTED_EDGE('',*,*,#302,.T.);
#389=ORIENTED_EDGE('',*,*,#303,.F.);
#390=ORIENTED_EDGE('',*,*,#304,.T.);
#391=ORIENTED_EDGE('',*,*,#301,.T.);
#392=ORIENTED_EDGE('',*,*,#304,.F.);
#393=ORIENTED_EDGE('',*,*,#302,.F.);
#394=ORIENTED_EDGE('',*,*,#305,.T.);
#395=ORIENTED_EDGE('',*,*,#279,.F.);
#396=ORIENTED_EDGE('',*,*,#305,.F.);
#397=ORIENTED_EDGE('',*,*,#306,.F.);
#398=ORIENTED_EDGE('',*,*,#307,.T.);
#399=ORIENTED_EDGE('',*,*,#308,.F.);
#400=ORIENTED_EDGE('',*,*,#309,.T.);
#401=ORIENTED_EDGE('',*,*,#306,.T.);
#402=ORIENTED_EDGE('',*,*,#309,.F.);
#403=ORIENTED_EDGE('',*,*,#307,.F.);
#404=ORIENTED_EDGE('',*,*,#310,.T.);
#405=ORIENTED_EDGE('',*,*,#278,.F.);
#406=ORIENTED_EDGE('',*,*,#310,.F.);
#407=ORIENTED_EDGE('',*,*,#311,.F.);
#408=ORIENTED_EDGE('',*,*,#312,.T.);
#409=ORIENTED_EDGE('',*,*,#313,.F.);
#410=ORIENTED_EDGE('',*,*,#314,.T.);
#411=ORIENTED_EDGE('',*,*,#311,.T.);
#412=ORIENTED_EDGE('',*,*,#314,.F.);
#413=ORIENTED_EDGE('',*,*,#312,.F.);
#414=ORIENTED_EDGE('',*,*,#315,.T.);
#415=ORIENTED_EDGE('',*,*,#277,.F.);
#416=ORIENTED_EDGE('',*,*,#315,.F.);
#417=ORIENTED_EDGE('',*,*,#265,.F.);
#418=ORIENTED_EDGE('',*,*,#316,.F.);
#419=ORIENTED_EDGE('',*,*,#284,.F.);
#420=ORIENTED_EDGE('',*,*,#271,.T.);
#421=ORIENTED_EDGE('',*,*,#288,.F.);
#422=ORIENTED_EDGE('',*,*,#317,.F.);
#423=ORIENTED_EDGE('',*,*,#290,.F.);
#424=ORIENTED_EDGE('',*,*,#275,.T.);
#425=ORIENTED_EDGE('',*,*,#264,.F.);
#426=ORIENTED_EDGE('',*,*,#270,.T.);
#427=ORIENTED_EDGE('',*,*,#289,.F.);
#428=ORIENTED_EDGE('',*,*,#317,.T.);
#429=ORIENTED_EDGE('',*,*,#287,.F.);
#430=ORIENTED_EDGE('',*,*,#285,.T.);
#431=ORIENTED_EDGE('',*,*,#282,.F.);
#432=ORIENTED_EDGE('',*,*,#316,.T.);
#433=ORIENTED_EDGE('',*,*,#293,.T.);
#434=ORIENTED_EDGE('',*,*,#298,.T.);
#435=ORIENTED_EDGE('',*,*,#303,.T.);
#436=ORIENTED_EDGE('',*,*,#308,.T.);
#437=ORIENTED_EDGE('',*,*,#313,.T.);
#438=CYLINDRICAL_SURFACE('',#491,1.75);
#439=CYLINDRICAL_SURFACE('',#494,1.75);
#440=CYLINDRICAL_SURFACE('',#509,2.5);
#441=CYLINDRICAL_SURFACE('',#511,10.5);
#442=CYLINDRICAL_SURFACE('',#518,3.);
#443=CYLINDRICAL_SURFACE('',#520,1.75);
#444=CYLINDRICAL_SURFACE('',#524,3.);
#445=CYLINDRICAL_SURFACE('',#526,1.75);
#446=CYLINDRICAL_SURFACE('',#530,3.);
#447=CYLINDRICAL_SURFACE('',#532,1.75);
#448=CYLINDRICAL_SURFACE('',#536,3.);
#449=CYLINDRICAL_SURFACE('',#538,1.75);
#450=ADVANCED_FACE('',(#49),#438,.F.);
#451=ADVANCED_FACE('',(#50),#439,.F.);
#452=ADVANCED_FACE('',(#51),#34,.T.);
#453=ADVANCED_FACE('',(#52),#35,.T.);
#454=ADVANCED_FACE('',(#53,#15,#16,#17,#18,#19,#20,#21),#36,.F.);
#455=ADVANCED_FACE('',(#54),#37,.T.);
#456=ADVANCED_FACE('',(#55),#38,.T.);
#457=ADVANCED_FACE('',(#56),#39,.T.);
#458=ADVANCED_FACE('',(#57),#40,.T.);
#459=ADVANCED_FACE('',(#58),#440,.F.);
#460=ADVANCED_FACE('',(#59),#441,.F.);
#461=ADVANCED_FACE('',(#60,#22,#23,#24),#41,.T.);
#462=ADVANCED_FACE('',(#61,#25),#42,.F.);
#463=ADVANCED_FACE('',(#62),#442,.F.);
#464=ADVANCED_FACE('',(#63),#443,.F.);
#465=ADVANCED_FACE('',(#64,#26),#43,.F.);
#466=ADVANCED_FACE('',(#65),#444,.F.);
#467=ADVANCED_FACE('',(#66),#445,.F.);
#468=ADVANCED_FACE('',(#67,#27),#44,.F.);
#469=ADVANCED_FACE('',(#68),#446,.F.);
#470=ADVANCED_FACE('',(#69),#447,.F.);
#471=ADVANCED_FACE('',(#70,#28),#45,.F.);
#472=ADVANCED_FACE('',(#71),#448,.F.);
#473=ADVANCED_FACE('',(#72),#449,.F.);
#474=ADVANCED_FACE('',(#73),#46,.T.);
#475=ADVANCED_FACE('',(#74),#47,.T.);
#476=ADVANCED_FACE('',(#75,#29,#30,#31,#32,#33),#48,.T.);
#477=CLOSED_SHELL('',(#450,#451,#452,#453,#454,#455,#456,#457,#458,#459,
#460,#461,#462,#463,#464,#465,#466,#467,#468,#469,#470,#471,#472,#473,#474,
#475,#476));
#478=DERIVED_UNIT_ELEMENT(#480,1.);
#479=DERIVED_UNIT_ELEMENT(#815,-3.);
#480=(
MASS_UNIT()
NAMED_UNIT(*)
SI_UNIT(.KILO.,.GRAM.)
);
#481=DERIVED_UNIT((#478,#479));
#482=MEASURE_REPRESENTATION_ITEM('density measure',
POSITIVE_RATIO_MEASURE(7850.),#481);
#483=PROPERTY_DEFINITION_REPRESENTATION(#488,#485);
#484=PROPERTY_DEFINITION_REPRESENTATION(#489,#486);
#485=REPRESENTATION('material name',(#487),#812);
#486=REPRESENTATION('density',(#482),#812);
#487=DESCRIPTIVE_REPRESENTATION_ITEM('Stahl','Stahl');
#488=PROPERTY_DEFINITION('material property','material name',#822);
#489=PROPERTY_DEFINITION('material property','density of part',#822);
#490=AXIS2_PLACEMENT_3D('',#682,#542,#543);
#491=AXIS2_PLACEMENT_3D('',#683,#544,#545);
#492=AXIS2_PLACEMENT_3D('',#685,#546,#547);
#493=AXIS2_PLACEMENT_3D('',#688,#549,#550);
#494=AXIS2_PLACEMENT_3D('',#689,#551,#552);
#495=AXIS2_PLACEMENT_3D('',#691,#553,#554);
#496=AXIS2_PLACEMENT_3D('',#694,#556,#557);
#497=AXIS2_PLACEMENT_3D('',#695,#558,#559);
#498=AXIS2_PLACEMENT_3D('',#704,#564,#565);
#499=AXIS2_PLACEMENT_3D('',#710,#569,#570);
#500=AXIS2_PLACEMENT_3D('',#723,#577,#578);
#501=AXIS2_PLACEMENT_3D('',#725,#579,#580);
#502=AXIS2_PLACEMENT_3D('',#727,#581,#582);
#503=AXIS2_PLACEMENT_3D('',#729,#583,#584);
#504=AXIS2_PLACEMENT_3D('',#731,#585,#586);
#505=AXIS2_PLACEMENT_3D('',#732,#587,#588);
#506=AXIS2_PLACEMENT_3D('',#738,#592,#593);
#507=AXIS2_PLACEMENT_3D('',#742,#596,#597);
#508=AXIS2_PLACEMENT_3D('',#746,#600,#601);
#509=AXIS2_PLACEMENT_3D('',#750,#604,#605);
#510=AXIS2_PLACEMENT_3D('',#752,#606,#607);
#511=AXIS2_PLACEMENT_3D('',#754,#609,#610);
#512=AXIS2_PLACEMENT_3D('',#756,#611,#612);
#513=AXIS2_PLACEMENT_3D('',#759,#614,#615);
#514=AXIS2_PLACEMENT_3D('',#760,#616,#617);
#515=AXIS2_PLACEMENT_3D('',#761,#618,#619);
#516=AXIS2_PLACEMENT_3D('',#763,#620,#621);
#517=AXIS2_PLACEMENT_3D('',#765,#622,#623);
#518=AXIS2_PLACEMENT_3D('',#766,#624,#625);
#519=AXIS2_PLACEMENT_3D('',#768,#626,#627);
#520=AXIS2_PLACEMENT_3D('',#770,#629,#630);
#521=AXIS2_PLACEMENT_3D('',#772,#632,#633);
#522=AXIS2_PLACEMENT_3D('',#774,#634,#635);
#523=AXIS2_PLACEMENT_3D('',#776,#636,#637);
#524=AXIS2_PLACEMENT_3D('',#777,#638,#639);
#525=AXIS2_PLACEMENT_3D('',#779,#640,#641);
#526=AXIS2_PLACEMENT_3D('',#781,#643,#644);
#527=AXIS2_PLACEMENT_3D('',#783,#646,#647);
#528=AXIS2_PLACEMENT_3D('',#785,#648,#649);
#529=AXIS2_PLACEMENT_3D('',#787,#650,#651);
#530=AXIS2_PLACEMENT_3D('',#788,#652,#653);
#531=AXIS2_PLACEMENT_3D('',#790,#654,#655);
#532=AXIS2_PLACEMENT_3D('',#792,#657,#658);
#533=AXIS2_PLACEMENT_3D('',#794,#660,#661);
#534=AXIS2_PLACEMENT_3D('',#796,#662,#663);
#535=AXIS2_PLACEMENT_3D('',#798,#664,#665);
#536=AXIS2_PLACEMENT_3D('',#799,#666,#667);
#537=AXIS2_PLACEMENT_3D('',#801,#668,#669);
#538=AXIS2_PLACEMENT_3D('',#803,#671,#672);
#539=AXIS2_PLACEMENT_3D('',#805,#674,#675);
#540=AXIS2_PLACEMENT_3D('',#807,#677,#678);
#541=AXIS2_PLACEMENT_3D('',#809,#680,#681);
#542=DIRECTION('axis',(0.,0.,1.));
#543=DIRECTION('refdir',(1.,0.,0.));
#544=DIRECTION('center_axis',(0.,0.,-1.));
#545=DIRECTION('ref_axis',(-1.,0.,0.));
#546=DIRECTION('center_axis',(0.,0.,-1.));
#547=DIRECTION('ref_axis',(-1.,0.,0.));
#548=DIRECTION('',(0.,0.,-1.));
#549=DIRECTION('center_axis',(0.,0.,1.));
#550=DIRECTION('ref_axis',(-1.,0.,0.));
#551=DIRECTION('center_axis',(0.,0.,-1.));
#552=DIRECTION('ref_axis',(-1.,0.,0.));
#553=DIRECTION('center_axis',(0.,0.,-1.));
#554=DIRECTION('ref_axis',(-1.,0.,0.));
#555=DIRECTION('',(0.,0.,-1.));
#556=DIRECTION('center_axis',(0.,0.,1.));
#557=DIRECTION('ref_axis',(-1.,0.,0.));
#558=DIRECTION('center_axis',(-0.707106781186548,0.707106781186548,0.));
#559=DIRECTION('ref_axis',(0.,0.,1.));
#560=DIRECTION('',(0.707106781186548,0.707106781186548,0.));
#561=DIRECTION('',(0.,0.,-1.));
#562=DIRECTION('',(-0.707106781186548,-0.707106781186548,0.));
#563=DIRECTION('',(0.,0.,1.));
#564=DIRECTION('center_axis',(-1.,0.,0.));
#565=DIRECTION('ref_axis',(0.,-1.,0.));
#566=DIRECTION('',(0.,-1.,0.));
#567=DIRECTION('',(0.,0.,-1.));
#568=DIRECTION('',(0.,-1.,0.));
#569=DIRECTION('center_axis',(0.,0.,1.));
#570=DIRECTION('ref_axis',(1.,0.,0.));
#571=DIRECTION('',(-1.,0.,0.));
#572=DIRECTION('',(-0.707106781186548,0.707106781186548,0.));
#573=DIRECTION('',(0.,1.,0.));
#574=DIRECTION('',(0.707106781186548,0.707106781186548,0.));
#575=DIRECTION('',(1.,1.02148770531036E-33,0.));
#576=DIRECTION('',(0.707106781186548,-0.707106781186548,0.));
#577=DIRECTION('center_axis',(0.,0.,1.));
#578=DIRECTION('ref_axis',(1.,0.,0.));
#579=DIRECTION('center_axis',(0.,0.,1.));
#580=DIRECTION('ref_axis',(1.,0.,0.));
#581=DIRECTION('center_axis',(0.,0.,1.));
#582=DIRECTION('ref_axis',(1.,0.,0.));
#583=DIRECTION('center_axis',(0.,0.,1.));
#584=DIRECTION('ref_axis',(1.,0.,0.));
#585=DIRECTION('center_axis',(0.,0.,1.));
#586=DIRECTION('ref_axis',(-1.,0.,0.));
#587=DIRECTION('center_axis',(0.707106781186548,0.707106781186548,0.));
#588=DIRECTION('ref_axis',(0.,0.,-1.));
#589=DIRECTION('',(0.707106781186548,-0.707106781186548,0.));
#590=DIRECTION('',(0.,0.,-1.));
#591=DIRECTION('',(0.,0.,1.));
#592=DIRECTION('center_axis',(1.,0.,0.));
#593=DIRECTION('ref_axis',(0.,1.,0.));
#594=DIRECTION('',(0.,1.,0.));
#595=DIRECTION('',(0.,0.,1.));
#596=DIRECTION('center_axis',(0.707106781186548,-0.707106781186548,0.));
#597=DIRECTION('ref_axis',(0.,0.,-1.));
#598=DIRECTION('',(-0.707106781186548,-0.707106781186548,0.));
#599=DIRECTION('',(0.,0.,-1.));
#600=DIRECTION('center_axis',(-0.707106781186548,-0.707106781186548,0.));
#601=DIRECTION('ref_axis',(0.,0.,1.));
#602=DIRECTION('',(-0.707106781186548,0.707106781186548,0.));
#603=DIRECTION('',(0.,0.,1.));
#604=DIRECTION('center_axis',(0.,0.,-1.));
#605=DIRECTION('ref_axis',(-1.,0.,0.));
#606=DIRECTION('center_axis',(0.,0.,-1.));
#607=DIRECTION('ref_axis',(-1.,0.,0.));
#608=DIRECTION('',(0.,0.,-1.));
#609=DIRECTION('center_axis',(0.,0.,-1.));
#610=DIRECTION('ref_axis',(-1.,0.,0.));
#611=DIRECTION('center_axis',(0.,0.,-1.));
#612=DIRECTION('ref_axis',(-1.,0.,0.));
#613=DIRECTION('',(0.,0.,-1.));
#614=DIRECTION('center_axis',(0.,0.,-1.));
#615=DIRECTION('ref_axis',(-1.,0.,0.));
#616=DIRECTION('center_axis',(0.,0.,1.));
#617=DIRECTION('ref_axis',(-1.,0.,0.));
#618=DIRECTION('center_axis',(0.,0.,-1.));
#619=DIRECTION('ref_axis',(1.,0.,0.));
#620=DIRECTION('center_axis',(0.,0.,-1.));
#621=DIRECTION('ref_axis',(1.,0.,0.));
#622=DIRECTION('center_axis',(0.,0.,-1.));
#623=DIRECTION('ref_axis',(1.,0.,0.));
#624=DIRECTION('center_axis',(0.,0.,-1.));
#625=DIRECTION('ref_axis',(1.,0.,0.));
#626=DIRECTION('center_axis',(0.,0.,-1.));
#627=DIRECTION('ref_axis',(1.,0.,0.));
#628=DIRECTION('',(0.,0.,-1.));
#629=DIRECTION('center_axis',(0.,0.,-1.));
#630=DIRECTION('ref_axis',(1.,0.,0.));
#631=DIRECTION('',(0.,0.,-1.));
#632=DIRECTION('center_axis',(0.,0.,-1.));
#633=DIRECTION('ref_axis',(1.,0.,0.));
#634=DIRECTION('center_axis',(0.,0.,-1.));
#635=DIRECTION('ref_axis',(1.,0.,0.));
#636=DIRECTION('center_axis',(0.,0.,-1.));
#637=DIRECTION('ref_axis',(1.,0.,0.));
#638=DIRECTION('center_axis',(0.,0.,-1.));
#639=DIRECTION('ref_axis',(1.,0.,0.));
#640=DIRECTION('center_axis',(0.,0.,-1.));
#641=DIRECTION('ref_axis',(1.,0.,0.));
#642=DIRECTION('',(0.,0.,-1.));
#643=DIRECTION('center_axis',(0.,0.,-1.));
#644=DIRECTION('ref_axis',(1.,0.,0.));
#645=DIRECTION('',(0.,0.,-1.));
#646=DIRECTION('center_axis',(0.,0.,-1.));
#647=DIRECTION('ref_axis',(1.,0.,0.));
#648=DIRECTION('center_axis',(0.,0.,-1.));
#649=DIRECTION('ref_axis',(1.,0.,0.));
#650=DIRECTION('center_axis',(0.,0.,-1.));
#651=DIRECTION('ref_axis',(1.,0.,0.));
#652=DIRECTION('center_axis',(0.,0.,-1.));
#653=DIRECTION('ref_axis',(1.,0.,0.));
#654=DIRECTION('center_axis',(0.,0.,-1.));
#655=DIRECTION('ref_axis',(1.,0.,0.));
#656=DIRECTION('',(0.,0.,-1.));
#657=DIRECTION('center_axis',(0.,0.,-1.));
#658=DIRECTION('ref_axis',(1.,0.,0.));
#659=DIRECTION('',(0.,0.,-1.));
#660=DIRECTION('center_axis',(0.,0.,-1.));
#661=DIRECTION('ref_axis',(1.,0.,0.));
#662=DIRECTION('center_axis',(0.,0.,-1.));
#663=DIRECTION('ref_axis',(1.,0.,0.));
#664=DIRECTION('center_axis',(0.,0.,-1.));
#665=DIRECTION('ref_axis',(1.,0.,0.));
#666=DIRECTION('center_axis',(0.,0.,-1.));
#667=DIRECTION('ref_axis',(1.,0.,0.));
#668=DIRECTION('center_axis',(0.,0.,-1.));
#669=DIRECTION('ref_axis',(1.,0.,0.));
#670=DIRECTION('',(0.,0.,-1.));
#671=DIRECTION('center_axis',(0.,0.,-1.));
#672=DIRECTION('ref_axis',(1.,0.,0.));
#673=DIRECTION('',(0.,0.,-1.));
#674=DIRECTION('center_axis',(0.,1.,0.));
#675=DIRECTION('ref_axis',(-1.,0.,0.));
#676=DIRECTION('',(-1.,0.,0.));
#677=DIRECTION('center_axis',(1.02148770531036E-33,-1.,0.));
#678=DIRECTION('ref_axis',(1.,1.02148770531036E-33,0.));
#679=DIRECTION('',(1.,1.02148770531036E-33,0.));
#680=DIRECTION('center_axis',(0.,0.,1.));
#681=DIRECTION('ref_axis',(1.,0.,0.));
#682=CARTESIAN_POINT('',(0.,0.,0.));
#683=CARTESIAN_POINT('Origin',(27.9999994039536,35.0000005215406,8.));
#684=CARTESIAN_POINT('',(29.7499994039536,35.0000005215406,3.));
#685=CARTESIAN_POINT('Origin',(27.9999994039536,35.0000005215406,3.));
#686=CARTESIAN_POINT('',(29.7499994039536,35.0000005215406,0.));
#687=CARTESIAN_POINT('',(29.7499994039536,35.0000005215406,8.));
#688=CARTESIAN_POINT('Origin',(27.9999994039536,35.0000005215406,0.));
#689=CARTESIAN_POINT('Origin',(40.0000005960464,35.0000005215406,8.));
#690=CARTESIAN_POINT('',(41.7500005960464,35.0000005215406,3.));
#691=CARTESIAN_POINT('Origin',(40.0000005960464,35.0000005215406,3.));
#692=CARTESIAN_POINT('',(41.7500005960464,35.0000005215406,0.));
#693=CARTESIAN_POINT('',(41.7500005960464,35.0000005215406,8.));
#694=CARTESIAN_POINT('Origin',(40.0000005960464,35.0000005215406,0.));
#695=CARTESIAN_POINT('Origin',(5.,65.,0.));
#696=CARTESIAN_POINT('',(0.,60.,8.));
#697=CARTESIAN_POINT('',(10.,70.,8.));
#698=CARTESIAN_POINT('',(7.5625,67.5625,8.));
#699=CARTESIAN_POINT('',(10.,70.,0.));
#700=CARTESIAN_POINT('',(10.,70.,0.));
#701=CARTESIAN_POINT('',(0.,60.,0.));
#702=CARTESIAN_POINT('',(7.5625,67.5625,0.));
#703=CARTESIAN_POINT('',(0.,60.,0.));
#704=CARTESIAN_POINT('Origin',(0.,70.,0.));
#705=CARTESIAN_POINT('',(0.,10.,0.));
#706=CARTESIAN_POINT('',(0.,70.,0.));
#707=CARTESIAN_POINT('',(0.,10.,8.));
#708=CARTESIAN_POINT('',(0.,10.,0.));
#709=CARTESIAN_POINT('',(0.,70.,8.));
#710=CARTESIAN_POINT('Origin',(45.25,35.,0.));
#711=CARTESIAN_POINT('',(80.5,70.,0.));
#712=CARTESIAN_POINT('',(90.5,70.,0.));
#713=CARTESIAN_POINT('',(90.5,60.,0.));
#714=CARTESIAN_POINT('',(82.9375,67.5625,0.));
#715=CARTESIAN_POINT('',(90.5,10.,0.));
#716=CARTESIAN_POINT('',(90.5,9.24446373305873E-32,0.));
#717=CARTESIAN_POINT('',(80.5,8.22297602774838E-32,0.));
#718=CARTESIAN_POINT('',(82.9375,2.4375,0.));
#719=CARTESIAN_POINT('',(10.,1.02148770531036E-32,0.));
#720=CARTESIAN_POINT('',(0.,0.,0.));
#721=CARTESIAN_POINT('',(7.5625,2.4375,0.));
#722=CARTESIAN_POINT('',(83.75,20.,0.));
#723=CARTESIAN_POINT('Origin',(85.5,20.,0.));
#724=CARTESIAN_POINT('',(3.25,20.,0.));
#725=CARTESIAN_POINT('Origin',(5.,20.,0.));
#726=CARTESIAN_POINT('',(3.25,50.,0.));
#727=CARTESIAN_POINT('Origin',(5.,50.,0.));
#728=CARTESIAN_POINT('',(83.75,50.,0.));
#729=CARTESIAN_POINT('Origin',(85.5,50.,0.));
#730=CARTESIAN_POINT('',(36.5,35.,0.));
#731=CARTESIAN_POINT('Origin',(34.,35.,0.));
#732=CARTESIAN_POINT('Origin',(85.5,65.,0.));
#733=CARTESIAN_POINT('',(80.5,70.,8.));
#734=CARTESIAN_POINT('',(90.5,60.,8.));
#735=CARTESIAN_POINT('',(82.9375,67.5625,8.));
#736=CARTESIAN_POINT('',(90.5,60.,0.));
#737=CARTESIAN_POINT('',(80.5,70.,0.));
#738=CARTESIAN_POINT('Origin',(90.5,9.24446373305873E-32,0.));
#739=CARTESIAN_POINT('',(90.5,10.,8.));
#740=CARTESIAN_POINT('',(90.5,9.24446373305873E-32,8.));
#741=CARTESIAN_POINT('',(90.5,10.,0.));
#742=CARTESIAN_POINT('Origin',(85.5,5.,0.));
#743=CARTESIAN_POINT('',(80.5,8.22297602774838E-32,8.));
#744=CARTESIAN_POINT('',(82.9375,2.4375,8.));
#745=CARTESIAN_POINT('',(80.5,0.,0.));
#746=CARTESIAN_POINT('Origin',(5.,5.,0.));
#747=CARTESIAN_POINT('',(10.,1.02148770531036E-32,8.));
#748=CARTESIAN_POINT('',(7.5625,2.4375,8.));
#749=CARTESIAN_POINT('',(10.,0.,0.));
#750=CARTESIAN_POINT('Origin',(34.,35.,8.));
#751=CARTESIAN_POINT('',(36.5,35.,3.));
#752=CARTESIAN_POINT('Origin',(34.,35.,3.));
#753=CARTESIAN_POINT('',(36.5,35.,8.));
#754=CARTESIAN_POINT('Origin',(34.,35.,8.));
#755=CARTESIAN_POINT('',(44.5,35.,8.));
#756=CARTESIAN_POINT('Origin',(34.,35.,8.));
#757=CARTESIAN_POINT('',(44.5,35.,3.));
#758=CARTESIAN_POINT('',(44.5,35.,8.));
#759=CARTESIAN_POINT('Origin',(34.,35.,3.));
#760=CARTESIAN_POINT('Origin',(34.,35.,3.));
#761=CARTESIAN_POINT('Origin',(85.5,50.,4.));
#762=CARTESIAN_POINT('',(82.5,50.,4.));
#763=CARTESIAN_POINT('Origin',(85.5,50.,4.));
#764=CARTESIAN_POINT('',(83.75,50.,4.));
#765=CARTESIAN_POINT('Origin',(85.5,50.,4.));
#766=CARTESIAN_POINT('Origin',(85.5,50.,6.));
#767=CARTESIAN_POINT('',(82.5,50.,8.));
#768=CARTESIAN_POINT('Origin',(85.5,50.,8.));
#769=CARTESIAN_POINT('',(82.5,50.,6.));
#770=CARTESIAN_POINT('Origin',(85.5,50.,0.5));
#771=CARTESIAN_POINT('',(83.75,50.,0.5));
#772=CARTESIAN_POINT('Origin',(5.,50.,4.));
#773=CARTESIAN_POINT('',(2.,50.,4.));
#774=CARTESIAN_POINT('Origin',(5.,50.,4.));
#775=CARTESIAN_POINT('',(3.25,50.,4.));
#776=CARTESIAN_POINT('Origin',(5.,50.,4.));
#777=CARTESIAN_POINT('Origin',(5.,50.,6.));
#778=CARTESIAN_POINT('',(2.,50.,8.));
#779=CARTESIAN_POINT('Origin',(5.,50.,8.));
#780=CARTESIAN_POINT('',(2.,50.,6.));
#781=CARTESIAN_POINT('Origin',(5.,50.,0.5));
#782=CARTESIAN_POINT('',(3.25,50.,0.5));
#783=CARTESIAN_POINT('Origin',(5.,20.,4.));
#784=CARTESIAN_POINT('',(2.,20.,4.));
#785=CARTESIAN_POINT('Origin',(5.,20.,4.));
#786=CARTESIAN_POINT('',(3.25,20.,4.));
#787=CARTESIAN_POINT('Origin',(5.,20.,4.));
#788=CARTESIAN_POINT('Origin',(5.,20.,6.));
#789=CARTESIAN_POINT('',(2.,20.,8.));
#790=CARTESIAN_POINT('Origin',(5.,20.,8.));
#791=CARTESIAN_POINT('',(2.,20.,6.));
#792=CARTESIAN_POINT('Origin',(5.,20.,0.5));
#793=CARTESIAN_POINT('',(3.25,20.,0.5));
#794=CARTESIAN_POINT('Origin',(85.5,20.,4.));
#795=CARTESIAN_POINT('',(82.5,20.,4.));
#796=CARTESIAN_POINT('Origin',(85.5,20.,4.));
#797=CARTESIAN_POINT('',(83.75,20.,4.));
#798=CARTESIAN_POINT('Origin',(85.5,20.,4.));
#799=CARTESIAN_POINT('Origin',(85.5,20.,6.));
#800=CARTESIAN_POINT('',(82.5,20.,8.));
#801=CARTESIAN_POINT('Origin',(85.5,20.,8.));
#802=CARTESIAN_POINT('',(82.5,20.,6.));
#803=CARTESIAN_POINT('Origin',(85.5,20.,0.5));
#804=CARTESIAN_POINT('',(83.75,20.,0.5));
#805=CARTESIAN_POINT('Origin',(90.5,70.,0.));
#806=CARTESIAN_POINT('',(90.5,70.,8.));
#807=CARTESIAN_POINT('Origin',(0.,0.,0.));
#808=CARTESIAN_POINT('',(0.,0.,8.));
#809=CARTESIAN_POINT('Origin',(45.25,35.,8.));
#810=UNCERTAINTY_MEASURE_WITH_UNIT(LENGTH_MEASURE(0.01),#814,
'DISTANCE_ACCURACY_VALUE',
'Maximum model space distance between geometric entities at asserted c
onnectivities');
#811=UNCERTAINTY_MEASURE_WITH_UNIT(LENGTH_MEASURE(0.01),#814,
'DISTANCE_ACCURACY_VALUE',
'Maximum model space distance between geometric entities at asserted c
onnectivities');
#812=(
GEOMETRIC_REPRESENTATION_CONTEXT(3)
GLOBAL_UNCERTAINTY_ASSIGNED_CONTEXT((#810))
GLOBAL_UNIT_ASSIGNED_CONTEXT((#814,#816,#817))
REPRESENTATION_CONTEXT('','3D')
);
#813=(
GEOMETRIC_REPRESENTATION_CONTEXT(3)
GLOBAL_UNCERTAINTY_ASSIGNED_CONTEXT((#811))
GLOBAL_UNIT_ASSIGNED_CONTEXT((#814,#816,#817))
REPRESENTATION_CONTEXT('','3D')
);
#814=(
LENGTH_UNIT()
NAMED_UNIT(*)
SI_UNIT(.MILLI.,.METRE.)
);
#815=(
LENGTH_UNIT()
NAMED_UNIT(*)
SI_UNIT($,.METRE.)
);
#816=(
NAMED_UNIT(*)
PLANE_ANGLE_UNIT()
SI_UNIT($,.RADIAN.)
);
#817=(
NAMED_UNIT(*)
SI_UNIT($,.STERADIAN.)
SOLID_ANGLE_UNIT()
);
#818=SHAPE_DEFINITION_REPRESENTATION(#819,#820);
#819=PRODUCT_DEFINITION_SHAPE('',$,#822);
#820=SHAPE_REPRESENTATION('',(#490),#812);
#821=PRODUCT_DEFINITION_CONTEXT('part definition',#826,'design');
#822=PRODUCT_DEFINITION('Sperrplatte','Sperrplatte v6',#823,#821);
#823=PRODUCT_DEFINITION_FORMATION('',$,#828);
#824=PRODUCT_RELATED_PRODUCT_CATEGORY('Sperrplatte v6','Sperrplatte v6',
(#828));
#825=APPLICATION_PROTOCOL_DEFINITION('international standard',
'automotive_design',2009,#826);
#826=APPLICATION_CONTEXT(
'Core Data for Automotive Mechanical Design Process');
#827=PRODUCT_CONTEXT('part definition',#826,'mechanical');
#828=PRODUCT('Sperrplatte','Sperrplatte v6',$,(#827));
#829=PRESENTATION_STYLE_ASSIGNMENT((#830));
#830=SURFACE_STYLE_USAGE(.BOTH.,#831);
#831=SURFACE_SIDE_STYLE('',(#832));
#832=SURFACE_STYLE_FILL_AREA(#833);
#833=FILL_AREA_STYLE('Stahl - satiniert',(#834));
#834=FILL_AREA_STYLE_COLOUR('Stahl - satiniert',#835);
#835=COLOUR_RGB('Stahl - satiniert',0.627450980392157,0.627450980392157,
0.627450980392157);
ENDSEC;
END-ISO-10303-21;
