ISO-10303-21;
HEADER;
/* Generated by software containing ST-Developer
 * from STEP Tools, Inc. (www.steptools.com) 
 */

FILE_DESCRIPTION(
/* description */ (''),
/* implementation_level */ '2;1');

FILE_NAME(
/* name */ 'Kran_Sperrbolzen.step',
/* time_stamp */ '2026-06-28T17:05:20+02:00',
/* author */ (''),
/* organization */ (''),
/* preprocessor_version */ 'ST-DEVELOPER v20.1',
/* originating_system */ 'Autodesk Translation Framework v15.8.0.0',
/* authorisation */ '');

FILE_SCHEMA (('AUTOMOTIVE_DESIGN { 1 0 10303 214 3 1 1 }'));
ENDSEC;

DATA;
#10=MECHANICAL_DESIGN_GEOMETRIC_PRESENTATION_REPRESENTATION('',(#13),#354);
#11=SHAPE_REPRESENTATION_RELATIONSHIP('SRR','None',#361,#12);
#12=ADVANCED_BREP_SHAPE_REPRESENTATION('',(#14),#353);
#13=STYLED_ITEM('',(#370),#14);
#14=MANIFOLD_SOLID_BREP('Sperrbolzen_V',#214);
#15=CYLINDRICAL_SURFACE('',#238,1.4);
#16=FACE_BOUND('',#34,.T.);
#17=FACE_BOUND('',#38,.T.);
#18=CIRCLE('',#231,1.4);
#19=CIRCLE('',#235,1.4);
#20=FACE_OUTER_BOUND('',#31,.T.);
#21=FACE_OUTER_BOUND('',#32,.T.);
#22=FACE_OUTER_BOUND('',#33,.T.);
#23=FACE_OUTER_BOUND('',#35,.T.);
#24=FACE_OUTER_BOUND('',#36,.T.);
#25=FACE_OUTER_BOUND('',#37,.T.);
#26=FACE_OUTER_BOUND('',#39,.T.);
#27=FACE_OUTER_BOUND('',#40,.T.);
#28=FACE_OUTER_BOUND('',#41,.T.);
#29=FACE_OUTER_BOUND('',#42,.T.);
#30=FACE_OUTER_BOUND('',#43,.T.);
#31=EDGE_LOOP('',(#139,#140,#141,#142));
#32=EDGE_LOOP('',(#143,#144,#145,#146,#147,#148,#149,#150));
#33=EDGE_LOOP('',(#151,#152,#153,#154));
#34=EDGE_LOOP('',(#155));
#35=EDGE_LOOP('',(#156,#157,#158,#159));
#36=EDGE_LOOP('',(#160,#161,#162,#163));
#37=EDGE_LOOP('',(#164,#165,#166,#167));
#38=EDGE_LOOP('',(#168));
#39=EDGE_LOOP('',(#169,#170,#171,#172));
#40=EDGE_LOOP('',(#173,#174,#175,#176));
#41=EDGE_LOOP('',(#177,#178,#179,#180));
#42=EDGE_LOOP('',(#181,#182,#183,#184));
#43=EDGE_LOOP('',(#185,#186,#187,#188,#189,#190,#191,#192));
#44=LINE('',#298,#69);
#45=LINE('',#300,#70);
#46=LINE('',#302,#71);
#47=LINE('',#303,#72);
#48=LINE('',#306,#73);
#49=LINE('',#308,#74);
#50=LINE('',#310,#75);
#51=LINE('',#312,#76);
#52=LINE('',#314,#77);
#53=LINE('',#316,#78);
#54=LINE('',#317,#79);
#55=LINE('',#320,#80);
#56=LINE('',#321,#81);
#57=LINE('',#326,#82);
#58=LINE('',#327,#83);
#59=LINE('',#331,#84);
#60=LINE('',#332,#85);
#61=LINE('',#333,#86);
#62=LINE('',#336,#87);
#63=LINE('',#337,#88);
#64=LINE('',#342,#89);
#65=LINE('',#343,#90);
#66=LINE('',#345,#91);
#67=LINE('',#347,#92);
#68=LINE('',#349,#93);
#69=VECTOR('',#245,10.);
#70=VECTOR('',#246,10.);
#71=VECTOR('',#247,10.);
#72=VECTOR('',#248,10.);
#73=VECTOR('',#251,10.);
#74=VECTOR('',#252,10.);
#75=VECTOR('',#253,10.);
#76=VECTOR('',#254,10.);
#77=VECTOR('',#255,10.);
#78=VECTOR('',#256,10.);
#79=VECTOR('',#257,10.);
#80=VECTOR('',#260,10.);
#81=VECTOR('',#261,10.);
#82=VECTOR('',#266,10.);
#83=VECTOR('',#267,10.);
#84=VECTOR('',#270,10.);
#85=VECTOR('',#271,10.);
#86=VECTOR('',#272,10.);
#87=VECTOR('',#275,10.);
#88=VECTOR('',#276,10.);
#89=VECTOR('',#281,10.);
#90=VECTOR('',#282,10.);
#91=VECTOR('',#285,10.);
#92=VECTOR('',#288,1.4);
#93=VECTOR('',#291,10.);
#94=VERTEX_POINT('',#296);
#95=VERTEX_POINT('',#297);
#96=VERTEX_POINT('',#299);
#97=VERTEX_POINT('',#301);
#98=VERTEX_POINT('',#305);
#99=VERTEX_POINT('',#307);
#100=VERTEX_POINT('',#309);
#101=VERTEX_POINT('',#311);
#102=VERTEX_POINT('',#313);
#103=VERTEX_POINT('',#315);
#104=VERTEX_POINT('',#319);
#105=VERTEX_POINT('',#322);
#106=VERTEX_POINT('',#325);
#107=VERTEX_POINT('',#329);
#108=VERTEX_POINT('',#330);
#109=VERTEX_POINT('',#335);
#110=VERTEX_POINT('',#338);
#111=VERTEX_POINT('',#341);
#112=EDGE_CURVE('',#94,#95,#44,.T.);
#113=EDGE_CURVE('',#95,#96,#45,.T.);
#114=EDGE_CURVE('',#96,#97,#46,.T.);
#115=EDGE_CURVE('',#97,#94,#47,.T.);
#116=EDGE_CURVE('',#98,#96,#48,.T.);
#117=EDGE_CURVE('',#99,#98,#49,.T.);
#118=EDGE_CURVE('',#100,#99,#50,.T.);
#119=EDGE_CURVE('',#101,#100,#51,.T.);
#120=EDGE_CURVE('',#102,#101,#52,.T.);
#121=EDGE_CURVE('',#103,#102,#53,.T.);
#122=EDGE_CURVE('',#97,#103,#54,.T.);
#123=EDGE_CURVE('',#104,#95,#55,.T.);
#124=EDGE_CURVE('',#98,#104,#56,.T.);
#125=EDGE_CURVE('',#105,#105,#18,.T.);
#126=EDGE_CURVE('',#104,#106,#57,.T.);
#127=EDGE_CURVE('',#106,#99,#58,.T.);
#128=EDGE_CURVE('',#107,#108,#59,.T.);
#129=EDGE_CURVE('',#108,#103,#60,.T.);
#130=EDGE_CURVE('',#102,#107,#61,.T.);
#131=EDGE_CURVE('',#109,#101,#62,.T.);
#132=EDGE_CURVE('',#107,#109,#63,.T.);
#133=EDGE_CURVE('',#110,#110,#19,.T.);
#134=EDGE_CURVE('',#111,#109,#64,.T.);
#135=EDGE_CURVE('',#100,#111,#65,.T.);
#136=EDGE_CURVE('',#111,#106,#66,.T.);
#137=EDGE_CURVE('',#110,#105,#67,.T.);
#138=EDGE_CURVE('',#94,#108,#68,.T.);
#139=ORIENTED_EDGE('',*,*,#112,.T.);
#140=ORIENTED_EDGE('',*,*,#113,.T.);
#141=ORIENTED_EDGE('',*,*,#114,.T.);
#142=ORIENTED_EDGE('',*,*,#115,.T.);
#143=ORIENTED_EDGE('',*,*,#114,.F.);
#144=ORIENTED_EDGE('',*,*,#116,.F.);
#145=ORIENTED_EDGE('',*,*,#117,.F.);
#146=ORIENTED_EDGE('',*,*,#118,.F.);
#147=ORIENTED_EDGE('',*,*,#119,.F.);
#148=ORIENTED_EDGE('',*,*,#120,.F.);
#149=ORIENTED_EDGE('',*,*,#121,.F.);
#150=ORIENTED_EDGE('',*,*,#122,.F.);
#151=ORIENTED_EDGE('',*,*,#113,.F.);
#152=ORIENTED_EDGE('',*,*,#123,.F.);
#153=ORIENTED_EDGE('',*,*,#124,.F.);
#154=ORIENTED_EDGE('',*,*,#116,.T.);
#155=ORIENTED_EDGE('',*,*,#125,.T.);
#156=ORIENTED_EDGE('',*,*,#126,.T.);
#157=ORIENTED_EDGE('',*,*,#127,.T.);
#158=ORIENTED_EDGE('',*,*,#117,.T.);
#159=ORIENTED_EDGE('',*,*,#124,.T.);
#160=ORIENTED_EDGE('',*,*,#128,.T.);
#161=ORIENTED_EDGE('',*,*,#129,.T.);
#162=ORIENTED_EDGE('',*,*,#121,.T.);
#163=ORIENTED_EDGE('',*,*,#130,.T.);
#164=ORIENTED_EDGE('',*,*,#130,.F.);
#165=ORIENTED_EDGE('',*,*,#120,.T.);
#166=ORIENTED_EDGE('',*,*,#131,.F.);
#167=ORIENTED_EDGE('',*,*,#132,.F.);
#168=ORIENTED_EDGE('',*,*,#133,.T.);
#169=ORIENTED_EDGE('',*,*,#134,.T.);
#170=ORIENTED_EDGE('',*,*,#131,.T.);
#171=ORIENTED_EDGE('',*,*,#119,.T.);
#172=ORIENTED_EDGE('',*,*,#135,.T.);
#173=ORIENTED_EDGE('',*,*,#127,.F.);
#174=ORIENTED_EDGE('',*,*,#136,.F.);
#175=ORIENTED_EDGE('',*,*,#135,.F.);
#176=ORIENTED_EDGE('',*,*,#118,.T.);
#177=ORIENTED_EDGE('',*,*,#133,.F.);
#178=ORIENTED_EDGE('',*,*,#137,.T.);
#179=ORIENTED_EDGE('',*,*,#125,.F.);
#180=ORIENTED_EDGE('',*,*,#137,.F.);
#181=ORIENTED_EDGE('',*,*,#115,.F.);
#182=ORIENTED_EDGE('',*,*,#122,.T.);
#183=ORIENTED_EDGE('',*,*,#129,.F.);
#184=ORIENTED_EDGE('',*,*,#138,.F.);
#185=ORIENTED_EDGE('',*,*,#112,.F.);
#186=ORIENTED_EDGE('',*,*,#138,.T.);
#187=ORIENTED_EDGE('',*,*,#128,.F.);
#188=ORIENTED_EDGE('',*,*,#132,.T.);
#189=ORIENTED_EDGE('',*,*,#134,.F.);
#190=ORIENTED_EDGE('',*,*,#136,.T.);
#191=ORIENTED_EDGE('',*,*,#126,.F.);
#192=ORIENTED_EDGE('',*,*,#123,.T.);
#193=PLANE('',#228);
#194=PLANE('',#229);
#195=PLANE('',#230);
#196=PLANE('',#232);
#197=PLANE('',#233);
#198=PLANE('',#234);
#199=PLANE('',#236);
#200=PLANE('',#237);
#201=PLANE('',#239);
#202=PLANE('',#240);
#203=ADVANCED_FACE('',(#20),#193,.T.);
#204=ADVANCED_FACE('',(#21),#194,.F.);
#205=ADVANCED_FACE('',(#22,#16),#195,.T.);
#206=ADVANCED_FACE('',(#23),#196,.T.);
#207=ADVANCED_FACE('',(#24),#197,.T.);
#208=ADVANCED_FACE('',(#25,#17),#198,.T.);
#209=ADVANCED_FACE('',(#26),#199,.T.);
#210=ADVANCED_FACE('',(#27),#200,.T.);
#211=ADVANCED_FACE('',(#28),#15,.F.);
#212=ADVANCED_FACE('',(#29),#201,.T.);
#213=ADVANCED_FACE('',(#30),#202,.T.);
#214=CLOSED_SHELL('',(#203,#204,#205,#206,#207,#208,#209,#210,#211,#212,
#213));
#215=DERIVED_UNIT_ELEMENT(#217,1.);
#216=DERIVED_UNIT_ELEMENT(#356,-3.);
#217=(
MASS_UNIT()
NAMED_UNIT(*)
SI_UNIT(.KILO.,.GRAM.)
);
#218=DERIVED_UNIT((#215,#216));
#219=MEASURE_REPRESENTATION_ITEM('density measure',
POSITIVE_RATIO_MEASURE(7850.),#218);
#220=PROPERTY_DEFINITION_REPRESENTATION(#225,#222);
#221=PROPERTY_DEFINITION_REPRESENTATION(#226,#223);
#222=REPRESENTATION('material name',(#224),#353);
#223=REPRESENTATION('density',(#219),#353);
#224=DESCRIPTIVE_REPRESENTATION_ITEM('Stahl','Stahl');
#225=PROPERTY_DEFINITION('material property','material name',#363);
#226=PROPERTY_DEFINITION('material property','density of part',#363);
#227=AXIS2_PLACEMENT_3D('',#294,#241,#242);
#228=AXIS2_PLACEMENT_3D('',#295,#243,#244);
#229=AXIS2_PLACEMENT_3D('',#304,#249,#250);
#230=AXIS2_PLACEMENT_3D('',#318,#258,#259);
#231=AXIS2_PLACEMENT_3D('',#323,#262,#263);
#232=AXIS2_PLACEMENT_3D('',#324,#264,#265);
#233=AXIS2_PLACEMENT_3D('',#328,#268,#269);
#234=AXIS2_PLACEMENT_3D('',#334,#273,#274);
#235=AXIS2_PLACEMENT_3D('',#339,#277,#278);
#236=AXIS2_PLACEMENT_3D('',#340,#279,#280);
#237=AXIS2_PLACEMENT_3D('',#344,#283,#284);
#238=AXIS2_PLACEMENT_3D('',#346,#286,#287);
#239=AXIS2_PLACEMENT_3D('',#348,#289,#290);
#240=AXIS2_PLACEMENT_3D('',#350,#292,#293);
#241=DIRECTION('axis',(0.,0.,1.));
#242=DIRECTION('refdir',(1.,0.,0.));
#243=DIRECTION('center_axis',(-0.707106781186548,0.707106781186547,0.));
#244=DIRECTION('ref_axis',(0.,0.,1.));
#245=DIRECTION('',(0.707106781186547,0.707106781186548,0.));
#246=DIRECTION('',(0.,0.,-1.));
#247=DIRECTION('',(-0.694746590606866,-0.694746590606866,0.186156787897386));
#248=DIRECTION('',(0.,0.,1.));
#249=DIRECTION('center_axis',(0.258819045102521,0.,0.965925826289068));
#250=DIRECTION('ref_axis',(0.965925826289068,0.,-0.258819045102521));
#251=DIRECTION('',(-0.965925826289068,0.,0.258819045102521));
#252=DIRECTION('',(-0.694746590606866,0.694746590606866,0.186156787897386));
#253=DIRECTION('',(0.,1.,0.));
#254=DIRECTION('',(0.694746590606866,0.694746590606866,-0.186156787897386));
#255=DIRECTION('',(0.965925826289068,-2.27223025619367E-32,-0.258819045102521));
#256=DIRECTION('',(0.694746590606866,-0.694746590606866,-0.186156787897386));
#257=DIRECTION('',(0.,-1.,0.));
#258=DIRECTION('center_axis',(0.,1.,0.));
#259=DIRECTION('ref_axis',(-1.,0.,0.));
#260=DIRECTION('',(-1.,0.,0.));
#261=DIRECTION('',(0.,0.,1.));
#262=DIRECTION('center_axis',(0.,-1.,0.));
#263=DIRECTION('ref_axis',(1.,0.,0.));
#264=DIRECTION('center_axis',(0.707106781186548,0.707106781186548,0.));
#265=DIRECTION('ref_axis',(0.,0.,-1.));
#266=DIRECTION('',(0.707106781186548,-0.707106781186548,0.));
#267=DIRECTION('',(0.,0.,-1.));
#268=DIRECTION('center_axis',(-0.707106781186548,-0.707106781186548,0.));
#269=DIRECTION('ref_axis',(0.,0.,1.));
#270=DIRECTION('',(-0.707106781186548,0.707106781186548,0.));
#271=DIRECTION('',(0.,0.,-1.));
#272=DIRECTION('',(0.,0.,1.));
#273=DIRECTION('center_axis',(-2.35238586064441E-32,-1.,0.));
#274=DIRECTION('ref_axis',(1.,-2.35238586064441E-32,0.));
#275=DIRECTION('',(0.,0.,-1.));
#276=DIRECTION('',(1.,-2.35238586064441E-32,0.));
#277=DIRECTION('center_axis',(2.35238586064441E-32,1.,0.));
#278=DIRECTION('ref_axis',(1.,0.,0.));
#279=DIRECTION('center_axis',(0.707106781186547,-0.707106781186548,0.));
#280=DIRECTION('ref_axis',(0.,0.,-1.));
#281=DIRECTION('',(-0.707106781186548,-0.707106781186547,0.));
#282=DIRECTION('',(0.,0.,1.));
#283=DIRECTION('center_axis',(1.,0.,0.));
#284=DIRECTION('ref_axis',(0.,1.,0.));
#285=DIRECTION('',(0.,1.,0.));
#286=DIRECTION('center_axis',(0.,1.,0.));
#287=DIRECTION('ref_axis',(1.,0.,0.));
#288=DIRECTION('',(0.,1.,0.));
#289=DIRECTION('center_axis',(-1.,0.,0.));
#290=DIRECTION('ref_axis',(0.,-1.,0.));
#291=DIRECTION('',(0.,-1.,0.));
#292=DIRECTION('center_axis',(0.,0.,1.));
#293=DIRECTION('ref_axis',(1.,0.,0.));
#294=CARTESIAN_POINT('',(0.,0.,0.));
#295=CARTESIAN_POINT('Origin',(1.,6.,0.));
#296=CARTESIAN_POINT('',(0.,5.,27.));
#297=CARTESIAN_POINT('',(2.,7.,27.));
#298=CARTESIAN_POINT('',(1.,6.,27.));
#299=CARTESIAN_POINT('',(2.,7.,1.33974596215562));
#300=CARTESIAN_POINT('',(2.,7.,0.));
#301=CARTESIAN_POINT('',(0.,5.,1.87564434701786));
#302=CARTESIAN_POINT('',(-0.602719013858843,4.39728098614116,2.03714242004422));
#303=CARTESIAN_POINT('',(0.,5.,0.));
#304=CARTESIAN_POINT('Origin',(0.,-1.23259516440783E-31,1.87564434701786));
#305=CARTESIAN_POINT('',(5.,7.,0.535898384862246));
#306=CARTESIAN_POINT('',(3.5,7.,0.937822173508931));
#307=CARTESIAN_POINT('',(7.,5.,0.));
#308=CARTESIAN_POINT('',(5.91336412579932,6.08663587420068,0.29116320495876));
#309=CARTESIAN_POINT('',(7.,2.,0.));
#310=CARTESIAN_POINT('',(7.,-1.64667010245109E-31,0.));
#311=CARTESIAN_POINT('',(5.,-1.1761929303222E-31,0.535898384862246));
#312=CARTESIAN_POINT('',(4.2240092377398,-0.775990762260204,0.743824482943879));
#313=CARTESIAN_POINT('',(2.,-4.70477172128882E-32,1.33974596215562));
#314=CARTESIAN_POINT('',(0.234455543377233,-5.51529905190304E-33,1.81282217350893));
#315=CARTESIAN_POINT('',(0.,2.,1.87564434701786));
#316=CARTESIAN_POINT('',(1.08663587420068,0.913364125799319,1.5844811420591));
#317=CARTESIAN_POINT('',(0.,3.5,1.87564434701786));
#318=CARTESIAN_POINT('Origin',(7.,7.,0.));
#319=CARTESIAN_POINT('',(5.,7.,27.));
#320=CARTESIAN_POINT('',(7.,7.,27.));
#321=CARTESIAN_POINT('',(5.,7.,0.));
#322=CARTESIAN_POINT('',(2.1,7.,19.5));
#323=CARTESIAN_POINT('Origin',(3.5,7.,19.5));
#324=CARTESIAN_POINT('Origin',(6.,6.,0.));
#325=CARTESIAN_POINT('',(7.,5.,27.));
#326=CARTESIAN_POINT('',(6.,6.,27.));
#327=CARTESIAN_POINT('',(7.,5.,0.));
#328=CARTESIAN_POINT('Origin',(1.,1.,0.));
#329=CARTESIAN_POINT('',(2.,-4.70477172128882E-32,27.));
#330=CARTESIAN_POINT('',(0.,2.,27.));
#331=CARTESIAN_POINT('',(1.,1.,27.));
#332=CARTESIAN_POINT('',(0.,2.,0.));
#333=CARTESIAN_POINT('',(2.,0.,0.));
#334=CARTESIAN_POINT('Origin',(0.,0.,0.));
#335=CARTESIAN_POINT('',(5.,-1.1761929303222E-31,27.));
#336=CARTESIAN_POINT('',(5.,0.,0.));
#337=CARTESIAN_POINT('',(0.,0.,27.));
#338=CARTESIAN_POINT('',(2.1,-1.23259516440783E-31,19.5));
#339=CARTESIAN_POINT('Origin',(3.5,0.,19.5));
#340=CARTESIAN_POINT('Origin',(6.,1.,0.));
#341=CARTESIAN_POINT('',(7.,2.,27.));
#342=CARTESIAN_POINT('',(6.,1.,27.));
#343=CARTESIAN_POINT('',(7.,2.,0.));
#344=CARTESIAN_POINT('Origin',(7.,-1.64667010245109E-31,0.));
#345=CARTESIAN_POINT('',(7.,-1.64667010245109E-31,27.));
#346=CARTESIAN_POINT('Origin',(3.5,-1.23259516440783E-31,19.5));
#347=CARTESIAN_POINT('',(2.1,-1.23259516440783E-31,19.5));
#348=CARTESIAN_POINT('Origin',(0.,7.,0.));
#349=CARTESIAN_POINT('',(0.,7.,27.));
#350=CARTESIAN_POINT('Origin',(3.5,3.5,27.));
#351=UNCERTAINTY_MEASURE_WITH_UNIT(LENGTH_MEASURE(0.01),#355,
'DISTANCE_ACCURACY_VALUE',
'Maximum model space distance between geometric entities at asserted c
onnectivities');
#352=UNCERTAINTY_MEASURE_WITH_UNIT(LENGTH_MEASURE(0.01),#355,
'DISTANCE_ACCURACY_VALUE',
'Maximum model space distance between geometric entities at asserted c
onnectivities');
#353=(
GEOMETRIC_REPRESENTATION_CONTEXT(3)
GLOBAL_UNCERTAINTY_ASSIGNED_CONTEXT((#351))
GLOBAL_UNIT_ASSIGNED_CONTEXT((#355,#357,#358))
REPRESENTATION_CONTEXT('','3D')
);
#354=(
GEOMETRIC_REPRESENTATION_CONTEXT(3)
GLOBAL_UNCERTAINTY_ASSIGNED_CONTEXT((#352))
GLOBAL_UNIT_ASSIGNED_CONTEXT((#355,#357,#358))
REPRESENTATION_CONTEXT('','3D')
);
#355=(
LENGTH_UNIT()
NAMED_UNIT(*)
SI_UNIT(.MILLI.,.METRE.)
);
#356=(
LENGTH_UNIT()
NAMED_UNIT(*)
SI_UNIT($,.METRE.)
);
#357=(
NAMED_UNIT(*)
PLANE_ANGLE_UNIT()
SI_UNIT($,.RADIAN.)
);
#358=(
NAMED_UNIT(*)
SI_UNIT($,.STERADIAN.)
SOLID_ANGLE_UNIT()
);
#359=SHAPE_DEFINITION_REPRESENTATION(#360,#361);
#360=PRODUCT_DEFINITION_SHAPE('',$,#363);
#361=SHAPE_REPRESENTATION('',(#227),#353);
#362=PRODUCT_DEFINITION_CONTEXT('part definition',#367,'design');
#363=PRODUCT_DEFINITION('Sperrbolzen','Sperrbolzen v4',#364,#362);
#364=PRODUCT_DEFINITION_FORMATION('',$,#369);
#365=PRODUCT_RELATED_PRODUCT_CATEGORY('Sperrbolzen v4','Sperrbolzen v4',
(#369));
#366=APPLICATION_PROTOCOL_DEFINITION('international standard',
'automotive_design',2009,#367);
#367=APPLICATION_CONTEXT(
'Core Data for Automotive Mechanical Design Process');
#368=PRODUCT_CONTEXT('part definition',#367,'mechanical');
#369=PRODUCT('Sperrbolzen','Sperrbolzen v4',$,(#368));
#370=PRESENTATION_STYLE_ASSIGNMENT((#371));
#371=SURFACE_STYLE_USAGE(.BOTH.,#372);
#372=SURFACE_SIDE_STYLE('',(#373));
#373=SURFACE_STYLE_FILL_AREA(#374);
#374=FILL_AREA_STYLE('Stahl - satiniert',(#375));
#375=FILL_AREA_STYLE_COLOUR('Stahl - satiniert',#376);
#376=COLOUR_RGB('Stahl - satiniert',0.627450980392157,0.627450980392157,
0.627450980392157);
ENDSEC;
END-ISO-10303-21;
