ISO-10303-21;
HEADER;
/* Generated by software containing ST-Developer
 * from STEP Tools, Inc. (www.steptools.com) 
 */

FILE_DESCRIPTION(
/* description */ (''),
/* implementation_level */ '2;1');

FILE_NAME(
/* name */ 'Kran_Klammer_Durchfuehrung.step',
/* time_stamp */ '2026-06-28T17:04:11+02:00',
/* author */ (''),
/* organization */ (''),
/* preprocessor_version */ 'ST-DEVELOPER v20.1',
/* originating_system */ 'Autodesk Translation Framework v15.8.0.0',
/* authorisation */ '');

FILE_SCHEMA (('AUTOMOTIVE_DESIGN { 1 0 10303 214 3 1 1 }'));
ENDSEC;

DATA;
#10=MECHANICAL_DESIGN_GEOMETRIC_PRESENTATION_REPRESENTATION('',(#13),#494);
#11=SHAPE_REPRESENTATION_RELATIONSHIP('SRR','None',#501,#12);
#12=ADVANCED_BREP_SHAPE_REPRESENTATION('',(#14),#493);
#13=STYLED_ITEM('',(#510),#14);
#14=MANIFOLD_SOLID_BREP('K\X\F6rper1',#282);
#15=CIRCLE('',#298,9.99999999999554);
#16=CIRCLE('',#299,9.99999999999554);
#17=CIRCLE('',#302,8.0000000000004);
#18=CIRCLE('',#303,8.0000000000004);
#19=CIRCLE('',#306,11.0103432904653);
#20=CIRCLE('',#307,11.0103432904653);
#21=CIRCLE('',#309,10.);
#22=CIRCLE('',#310,10.);
#23=CIRCLE('',#313,9.99999999999554);
#24=CIRCLE('',#314,9.99999999999554);
#25=CIRCLE('',#317,8.0000000000004);
#26=CIRCLE('',#318,8.0000000000004);
#27=CIRCLE('',#321,11.0103432904653);
#28=CIRCLE('',#322,11.0103432904653);
#29=CYLINDRICAL_SURFACE('',#297,9.99999999999554);
#30=CYLINDRICAL_SURFACE('',#301,8.0000000000004);
#31=CYLINDRICAL_SURFACE('',#305,11.0103432904653);
#32=CYLINDRICAL_SURFACE('',#308,10.);
#33=CYLINDRICAL_SURFACE('',#312,9.99999999999554);
#34=CYLINDRICAL_SURFACE('',#316,8.0000000000004);
#35=CYLINDRICAL_SURFACE('',#320,11.0103432904653);
#36=FACE_OUTER_BOUND('',#51,.T.);
#37=FACE_OUTER_BOUND('',#52,.T.);
#38=FACE_OUTER_BOUND('',#53,.T.);
#39=FACE_OUTER_BOUND('',#54,.T.);
#40=FACE_OUTER_BOUND('',#55,.T.);
#41=FACE_OUTER_BOUND('',#56,.T.);
#42=FACE_OUTER_BOUND('',#57,.T.);
#43=FACE_OUTER_BOUND('',#58,.T.);
#44=FACE_OUTER_BOUND('',#59,.T.);
#45=FACE_OUTER_BOUND('',#60,.T.);
#46=FACE_OUTER_BOUND('',#61,.T.);
#47=FACE_OUTER_BOUND('',#62,.T.);
#48=FACE_OUTER_BOUND('',#63,.T.);
#49=FACE_OUTER_BOUND('',#64,.T.);
#50=FACE_OUTER_BOUND('',#65,.T.);
#51=EDGE_LOOP('',(#181,#182,#183,#184));
#52=EDGE_LOOP('',(#185,#186,#187,#188));
#53=EDGE_LOOP('',(#189,#190,#191,#192));
#54=EDGE_LOOP('',(#193,#194,#195,#196));
#55=EDGE_LOOP('',(#197,#198,#199,#200));
#56=EDGE_LOOP('',(#201,#202,#203,#204));
#57=EDGE_LOOP('',(#205,#206,#207,#208));
#58=EDGE_LOOP('',(#209,#210,#211,#212));
#59=EDGE_LOOP('',(#213,#214,#215,#216));
#60=EDGE_LOOP('',(#217,#218,#219,#220));
#61=EDGE_LOOP('',(#221,#222,#223,#224));
#62=EDGE_LOOP('',(#225,#226,#227,#228));
#63=EDGE_LOOP('',(#229,#230,#231,#232));
#64=EDGE_LOOP('',(#233,#234,#235,#236,#237,#238,#239,#240,#241,#242,#243,
#244,#245));
#65=EDGE_LOOP('',(#246,#247,#248,#249,#250,#251,#252,#253,#254,#255,#256,
#257,#258));
#66=LINE('',#414,#91);
#67=LINE('',#416,#92);
#68=LINE('',#418,#93);
#69=LINE('',#419,#94);
#70=LINE('',#424,#95);
#71=LINE('',#428,#96);
#72=LINE('',#430,#97);
#73=LINE('',#431,#98);
#74=LINE('',#436,#99);
#75=LINE('',#440,#100);
#76=LINE('',#442,#101);
#77=LINE('',#443,#102);
#78=LINE('',#448,#103);
#79=LINE('',#455,#104);
#80=LINE('',#458,#105);
#81=LINE('',#460,#106);
#82=LINE('',#461,#107);
#83=LINE('',#467,#108);
#84=LINE('',#470,#109);
#85=LINE('',#472,#110);
#86=LINE('',#473,#111);
#87=LINE('',#479,#112);
#88=LINE('',#482,#113);
#89=LINE('',#484,#114);
#90=LINE('',#485,#115);
#91=VECTOR('',#329,10.);
#92=VECTOR('',#330,10.);
#93=VECTOR('',#331,10.);
#94=VECTOR('',#332,10.);
#95=VECTOR('',#337,10.);
#96=VECTOR('',#342,10.);
#97=VECTOR('',#343,10.);
#98=VECTOR('',#344,10.);
#99=VECTOR('',#349,10.);
#100=VECTOR('',#354,10.);
#101=VECTOR('',#355,10.);
#102=VECTOR('',#356,10.);
#103=VECTOR('',#361,10.);
#104=VECTOR('',#370,10.);
#105=VECTOR('',#373,10.);
#106=VECTOR('',#374,10.);
#107=VECTOR('',#375,10.);
#108=VECTOR('',#382,10.);
#109=VECTOR('',#385,10.);
#110=VECTOR('',#386,10.);
#111=VECTOR('',#387,10.);
#112=VECTOR('',#394,10.);
#113=VECTOR('',#397,10.);
#114=VECTOR('',#398,10.);
#115=VECTOR('',#399,10.);
#116=VERTEX_POINT('',#412);
#117=VERTEX_POINT('',#413);
#118=VERTEX_POINT('',#415);
#119=VERTEX_POINT('',#417);
#120=VERTEX_POINT('',#421);
#121=VERTEX_POINT('',#423);
#122=VERTEX_POINT('',#427);
#123=VERTEX_POINT('',#429);
#124=VERTEX_POINT('',#433);
#125=VERTEX_POINT('',#435);
#126=VERTEX_POINT('',#439);
#127=VERTEX_POINT('',#441);
#128=VERTEX_POINT('',#445);
#129=VERTEX_POINT('',#447);
#130=VERTEX_POINT('',#451);
#131=VERTEX_POINT('',#453);
#132=VERTEX_POINT('',#457);
#133=VERTEX_POINT('',#459);
#134=VERTEX_POINT('',#463);
#135=VERTEX_POINT('',#465);
#136=VERTEX_POINT('',#469);
#137=VERTEX_POINT('',#471);
#138=VERTEX_POINT('',#475);
#139=VERTEX_POINT('',#477);
#140=VERTEX_POINT('',#481);
#141=VERTEX_POINT('',#483);
#142=EDGE_CURVE('',#116,#117,#66,.T.);
#143=EDGE_CURVE('',#117,#118,#67,.T.);
#144=EDGE_CURVE('',#118,#119,#68,.T.);
#145=EDGE_CURVE('',#116,#119,#69,.T.);
#146=EDGE_CURVE('',#117,#120,#15,.T.);
#147=EDGE_CURVE('',#120,#121,#70,.T.);
#148=EDGE_CURVE('',#121,#118,#16,.T.);
#149=EDGE_CURVE('',#120,#122,#71,.T.);
#150=EDGE_CURVE('',#122,#123,#72,.T.);
#151=EDGE_CURVE('',#123,#121,#73,.T.);
#152=EDGE_CURVE('',#124,#122,#17,.T.);
#153=EDGE_CURVE('',#124,#125,#74,.T.);
#154=EDGE_CURVE('',#125,#123,#18,.T.);
#155=EDGE_CURVE('',#124,#126,#75,.T.);
#156=EDGE_CURVE('',#126,#127,#76,.T.);
#157=EDGE_CURVE('',#127,#125,#77,.T.);
#158=EDGE_CURVE('',#128,#126,#19,.T.);
#159=EDGE_CURVE('',#128,#129,#78,.T.);
#160=EDGE_CURVE('',#129,#127,#20,.T.);
#161=EDGE_CURVE('',#116,#130,#21,.T.);
#162=EDGE_CURVE('',#131,#119,#22,.T.);
#163=EDGE_CURVE('',#130,#131,#79,.T.);
#164=EDGE_CURVE('',#130,#132,#80,.T.);
#165=EDGE_CURVE('',#133,#131,#81,.T.);
#166=EDGE_CURVE('',#132,#133,#82,.T.);
#167=EDGE_CURVE('',#132,#134,#23,.T.);
#168=EDGE_CURVE('',#135,#133,#24,.T.);
#169=EDGE_CURVE('',#134,#135,#83,.T.);
#170=EDGE_CURVE('',#134,#136,#84,.T.);
#171=EDGE_CURVE('',#137,#135,#85,.T.);
#172=EDGE_CURVE('',#136,#137,#86,.T.);
#173=EDGE_CURVE('',#138,#136,#25,.T.);
#174=EDGE_CURVE('',#139,#137,#26,.T.);
#175=EDGE_CURVE('',#138,#139,#87,.T.);
#176=EDGE_CURVE('',#138,#140,#88,.T.);
#177=EDGE_CURVE('',#141,#139,#89,.T.);
#178=EDGE_CURVE('',#140,#141,#90,.T.);
#179=EDGE_CURVE('',#128,#140,#27,.T.);
#180=EDGE_CURVE('',#129,#141,#28,.T.);
#181=ORIENTED_EDGE('',*,*,#142,.T.);
#182=ORIENTED_EDGE('',*,*,#143,.T.);
#183=ORIENTED_EDGE('',*,*,#144,.T.);
#184=ORIENTED_EDGE('',*,*,#145,.F.);
#185=ORIENTED_EDGE('',*,*,#146,.T.);
#186=ORIENTED_EDGE('',*,*,#147,.T.);
#187=ORIENTED_EDGE('',*,*,#148,.T.);
#188=ORIENTED_EDGE('',*,*,#143,.F.);
#189=ORIENTED_EDGE('',*,*,#149,.T.);
#190=ORIENTED_EDGE('',*,*,#150,.T.);
#191=ORIENTED_EDGE('',*,*,#151,.T.);
#192=ORIENTED_EDGE('',*,*,#147,.F.);
#193=ORIENTED_EDGE('',*,*,#152,.F.);
#194=ORIENTED_EDGE('',*,*,#153,.T.);
#195=ORIENTED_EDGE('',*,*,#154,.T.);
#196=ORIENTED_EDGE('',*,*,#150,.F.);
#197=ORIENTED_EDGE('',*,*,#155,.T.);
#198=ORIENTED_EDGE('',*,*,#156,.T.);
#199=ORIENTED_EDGE('',*,*,#157,.T.);
#200=ORIENTED_EDGE('',*,*,#153,.F.);
#201=ORIENTED_EDGE('',*,*,#158,.F.);
#202=ORIENTED_EDGE('',*,*,#159,.T.);
#203=ORIENTED_EDGE('',*,*,#160,.T.);
#204=ORIENTED_EDGE('',*,*,#156,.F.);
#205=ORIENTED_EDGE('',*,*,#161,.F.);
#206=ORIENTED_EDGE('',*,*,#145,.T.);
#207=ORIENTED_EDGE('',*,*,#162,.F.);
#208=ORIENTED_EDGE('',*,*,#163,.F.);
#209=ORIENTED_EDGE('',*,*,#164,.F.);
#210=ORIENTED_EDGE('',*,*,#163,.T.);
#211=ORIENTED_EDGE('',*,*,#165,.F.);
#212=ORIENTED_EDGE('',*,*,#166,.F.);
#213=ORIENTED_EDGE('',*,*,#167,.F.);
#214=ORIENTED_EDGE('',*,*,#166,.T.);
#215=ORIENTED_EDGE('',*,*,#168,.F.);
#216=ORIENTED_EDGE('',*,*,#169,.F.);
#217=ORIENTED_EDGE('',*,*,#170,.F.);
#218=ORIENTED_EDGE('',*,*,#169,.T.);
#219=ORIENTED_EDGE('',*,*,#171,.F.);
#220=ORIENTED_EDGE('',*,*,#172,.F.);
#221=ORIENTED_EDGE('',*,*,#173,.T.);
#222=ORIENTED_EDGE('',*,*,#172,.T.);
#223=ORIENTED_EDGE('',*,*,#174,.F.);
#224=ORIENTED_EDGE('',*,*,#175,.F.);
#225=ORIENTED_EDGE('',*,*,#176,.F.);
#226=ORIENTED_EDGE('',*,*,#175,.T.);
#227=ORIENTED_EDGE('',*,*,#177,.F.);
#228=ORIENTED_EDGE('',*,*,#178,.F.);
#229=ORIENTED_EDGE('',*,*,#179,.T.);
#230=ORIENTED_EDGE('',*,*,#178,.T.);
#231=ORIENTED_EDGE('',*,*,#180,.F.);
#232=ORIENTED_EDGE('',*,*,#159,.F.);
#233=ORIENTED_EDGE('',*,*,#180,.T.);
#234=ORIENTED_EDGE('',*,*,#177,.T.);
#235=ORIENTED_EDGE('',*,*,#174,.T.);
#236=ORIENTED_EDGE('',*,*,#171,.T.);
#237=ORIENTED_EDGE('',*,*,#168,.T.);
#238=ORIENTED_EDGE('',*,*,#165,.T.);
#239=ORIENTED_EDGE('',*,*,#162,.T.);
#240=ORIENTED_EDGE('',*,*,#144,.F.);
#241=ORIENTED_EDGE('',*,*,#148,.F.);
#242=ORIENTED_EDGE('',*,*,#151,.F.);
#243=ORIENTED_EDGE('',*,*,#154,.F.);
#244=ORIENTED_EDGE('',*,*,#157,.F.);
#245=ORIENTED_EDGE('',*,*,#160,.F.);
#246=ORIENTED_EDGE('',*,*,#161,.T.);
#247=ORIENTED_EDGE('',*,*,#164,.T.);
#248=ORIENTED_EDGE('',*,*,#167,.T.);
#249=ORIENTED_EDGE('',*,*,#170,.T.);
#250=ORIENTED_EDGE('',*,*,#173,.F.);
#251=ORIENTED_EDGE('',*,*,#176,.T.);
#252=ORIENTED_EDGE('',*,*,#179,.F.);
#253=ORIENTED_EDGE('',*,*,#158,.T.);
#254=ORIENTED_EDGE('',*,*,#155,.F.);
#255=ORIENTED_EDGE('',*,*,#152,.T.);
#256=ORIENTED_EDGE('',*,*,#149,.F.);
#257=ORIENTED_EDGE('',*,*,#146,.F.);
#258=ORIENTED_EDGE('',*,*,#142,.F.);
#259=PLANE('',#296);
#260=PLANE('',#300);
#261=PLANE('',#304);
#262=PLANE('',#311);
#263=PLANE('',#315);
#264=PLANE('',#319);
#265=PLANE('',#323);
#266=PLANE('',#324);
#267=ADVANCED_FACE('',(#36),#259,.F.);
#268=ADVANCED_FACE('',(#37),#29,.F.);
#269=ADVANCED_FACE('',(#38),#260,.F.);
#270=ADVANCED_FACE('',(#39),#30,.T.);
#271=ADVANCED_FACE('',(#40),#261,.F.);
#272=ADVANCED_FACE('',(#41),#31,.T.);
#273=ADVANCED_FACE('',(#42),#32,.F.);
#274=ADVANCED_FACE('',(#43),#262,.T.);
#275=ADVANCED_FACE('',(#44),#33,.F.);
#276=ADVANCED_FACE('',(#45),#263,.T.);
#277=ADVANCED_FACE('',(#46),#34,.T.);
#278=ADVANCED_FACE('',(#47),#264,.T.);
#279=ADVANCED_FACE('',(#48),#35,.T.);
#280=ADVANCED_FACE('',(#49),#265,.T.);
#281=ADVANCED_FACE('',(#50),#266,.F.);
#282=CLOSED_SHELL('',(#267,#268,#269,#270,#271,#272,#273,#274,#275,#276,
#277,#278,#279,#280,#281));
#283=DERIVED_UNIT_ELEMENT(#285,1.);
#284=DERIVED_UNIT_ELEMENT(#496,-3.);
#285=(
MASS_UNIT()
NAMED_UNIT(*)
SI_UNIT(.KILO.,.GRAM.)
);
#286=DERIVED_UNIT((#283,#284));
#287=MEASURE_REPRESENTATION_ITEM('density measure',
POSITIVE_RATIO_MEASURE(7850.),#286);
#288=PROPERTY_DEFINITION_REPRESENTATION(#293,#290);
#289=PROPERTY_DEFINITION_REPRESENTATION(#294,#291);
#290=REPRESENTATION('material name',(#292),#493);
#291=REPRESENTATION('density',(#287),#493);
#292=DESCRIPTIVE_REPRESENTATION_ITEM('Stahl','Stahl');
#293=PROPERTY_DEFINITION('material property','material name',#503);
#294=PROPERTY_DEFINITION('material property','density of part',#503);
#295=AXIS2_PLACEMENT_3D('',#410,#325,#326);
#296=AXIS2_PLACEMENT_3D('',#411,#327,#328);
#297=AXIS2_PLACEMENT_3D('',#420,#333,#334);
#298=AXIS2_PLACEMENT_3D('',#422,#335,#336);
#299=AXIS2_PLACEMENT_3D('',#425,#338,#339);
#300=AXIS2_PLACEMENT_3D('',#426,#340,#341);
#301=AXIS2_PLACEMENT_3D('',#432,#345,#346);
#302=AXIS2_PLACEMENT_3D('',#434,#347,#348);
#303=AXIS2_PLACEMENT_3D('',#437,#350,#351);
#304=AXIS2_PLACEMENT_3D('',#438,#352,#353);
#305=AXIS2_PLACEMENT_3D('',#444,#357,#358);
#306=AXIS2_PLACEMENT_3D('',#446,#359,#360);
#307=AXIS2_PLACEMENT_3D('',#449,#362,#363);
#308=AXIS2_PLACEMENT_3D('',#450,#364,#365);
#309=AXIS2_PLACEMENT_3D('',#452,#366,#367);
#310=AXIS2_PLACEMENT_3D('',#454,#368,#369);
#311=AXIS2_PLACEMENT_3D('',#456,#371,#372);
#312=AXIS2_PLACEMENT_3D('',#462,#376,#377);
#313=AXIS2_PLACEMENT_3D('',#464,#378,#379);
#314=AXIS2_PLACEMENT_3D('',#466,#380,#381);
#315=AXIS2_PLACEMENT_3D('',#468,#383,#384);
#316=AXIS2_PLACEMENT_3D('',#474,#388,#389);
#317=AXIS2_PLACEMENT_3D('',#476,#390,#391);
#318=AXIS2_PLACEMENT_3D('',#478,#392,#393);
#319=AXIS2_PLACEMENT_3D('',#480,#395,#396);
#320=AXIS2_PLACEMENT_3D('',#486,#400,#401);
#321=AXIS2_PLACEMENT_3D('',#487,#402,#403);
#322=AXIS2_PLACEMENT_3D('',#488,#404,#405);
#323=AXIS2_PLACEMENT_3D('',#489,#406,#407);
#324=AXIS2_PLACEMENT_3D('',#490,#408,#409);
#325=DIRECTION('axis',(0.,0.,1.));
#326=DIRECTION('refdir',(1.,0.,0.));
#327=DIRECTION('center_axis',(1.,-3.3114252081153E-12,0.));
#328=DIRECTION('ref_axis',(3.3114252081153E-12,1.,0.));
#329=DIRECTION('',(-3.3114252081153E-12,-1.,0.));
#330=DIRECTION('',(0.,0.,1.));
#331=DIRECTION('',(3.3114252081153E-12,1.,0.));
#332=DIRECTION('',(0.,0.,1.));
#333=DIRECTION('center_axis',(0.,0.,-1.));
#334=DIRECTION('ref_axis',(0.799999999997813,-0.600000000002917,0.));
#335=DIRECTION('center_axis',(0.,0.,-1.));
#336=DIRECTION('ref_axis',(0.799999999997813,-0.600000000002917,0.));
#337=DIRECTION('',(0.,0.,1.));
#338=DIRECTION('center_axis',(0.,0.,1.));
#339=DIRECTION('ref_axis',(0.799999999997813,-0.600000000002917,0.));
#340=DIRECTION('center_axis',(1.,0.,0.));
#341=DIRECTION('ref_axis',(0.,1.,0.));
#342=DIRECTION('',(0.,-1.,0.));
#343=DIRECTION('',(0.,0.,1.));
#344=DIRECTION('',(0.,1.,0.));
#345=DIRECTION('center_axis',(0.,0.,-1.));
#346=DIRECTION('ref_axis',(0.91143782776295,-0.411437827773231,0.));
#347=DIRECTION('center_axis',(0.,0.,-1.));
#348=DIRECTION('ref_axis',(0.91143782776295,-0.411437827773231,0.));
#349=DIRECTION('',(0.,0.,1.));
#350=DIRECTION('center_axis',(0.,0.,-1.));
#351=DIRECTION('ref_axis',(0.91143782776295,-0.411437827773231,0.));
#352=DIRECTION('center_axis',(-1.,0.,0.));
#353=DIRECTION('ref_axis',(0.,-1.,0.));
#354=DIRECTION('',(0.,1.,0.));
#355=DIRECTION('',(0.,0.,1.));
#356=DIRECTION('',(0.,-1.,0.));
#357=DIRECTION('center_axis',(0.,0.,-1.));
#358=DIRECTION('ref_axis',(-0.0176950299944119,0.999843430699776,0.));
#359=DIRECTION('center_axis',(0.,0.,-1.));
#360=DIRECTION('ref_axis',(-0.0176950299944119,0.999843430699776,0.));
#361=DIRECTION('',(0.,0.,1.));
#362=DIRECTION('center_axis',(0.,0.,-1.));
#363=DIRECTION('ref_axis',(-0.0176950299944119,0.999843430699776,0.));
#364=DIRECTION('center_axis',(0.,0.,1.));
#365=DIRECTION('ref_axis',(0.,1.,0.));
#366=DIRECTION('center_axis',(0.,0.,1.));
#367=DIRECTION('ref_axis',(0.,1.,0.));
#368=DIRECTION('center_axis',(0.,0.,-1.));
#369=DIRECTION('ref_axis',(0.,1.,0.));
#370=DIRECTION('',(0.,0.,1.));
#371=DIRECTION('center_axis',(1.,3.3114252081153E-12,0.));
#372=DIRECTION('ref_axis',(-3.3114252081153E-12,1.,0.));
#373=DIRECTION('',(3.3114252081153E-12,-1.,0.));
#374=DIRECTION('',(-3.3114252081153E-12,1.,0.));
#375=DIRECTION('',(0.,0.,1.));
#376=DIRECTION('center_axis',(0.,0.,1.));
#377=DIRECTION('ref_axis',(-0.799999999997813,-0.600000000002917,0.));
#378=DIRECTION('center_axis',(0.,0.,1.));
#379=DIRECTION('ref_axis',(-0.799999999997813,-0.600000000002917,0.));
#380=DIRECTION('center_axis',(0.,0.,-1.));
#381=DIRECTION('ref_axis',(-0.799999999997813,-0.600000000002917,0.));
#382=DIRECTION('',(0.,0.,1.));
#383=DIRECTION('center_axis',(1.,0.,0.));
#384=DIRECTION('ref_axis',(0.,1.,0.));
#385=DIRECTION('',(0.,-1.,0.));
#386=DIRECTION('',(0.,1.,0.));
#387=DIRECTION('',(0.,0.,1.));
#388=DIRECTION('center_axis',(0.,0.,1.));
#389=DIRECTION('ref_axis',(-0.91143782776295,-0.411437827773231,0.));
#390=DIRECTION('center_axis',(0.,0.,1.));
#391=DIRECTION('ref_axis',(-0.91143782776295,-0.411437827773231,0.));
#392=DIRECTION('center_axis',(0.,0.,1.));
#393=DIRECTION('ref_axis',(-0.91143782776295,-0.411437827773231,0.));
#394=DIRECTION('',(0.,0.,1.));
#395=DIRECTION('center_axis',(-1.,0.,0.));
#396=DIRECTION('ref_axis',(0.,-1.,0.));
#397=DIRECTION('',(0.,1.,0.));
#398=DIRECTION('',(0.,-1.,0.));
#399=DIRECTION('',(0.,0.,1.));
#400=DIRECTION('center_axis',(0.,0.,1.));
#401=DIRECTION('ref_axis',(0.0176950299944119,0.999843430699776,0.));
#402=DIRECTION('center_axis',(0.,0.,1.));
#403=DIRECTION('ref_axis',(0.0176950299944119,0.999843430699776,0.));
#404=DIRECTION('center_axis',(0.,0.,1.));
#405=DIRECTION('ref_axis',(0.0176950299944119,0.999843430699776,0.));
#406=DIRECTION('center_axis',(0.,0.,1.));
#407=DIRECTION('ref_axis',(1.,0.,0.));
#408=DIRECTION('center_axis',(0.,0.,1.));
#409=DIRECTION('ref_axis',(1.,0.,0.));
#410=CARTESIAN_POINT('',(0.,0.,0.));
#411=CARTESIAN_POINT('Origin',(17.9999999999944,0.,0.));
#412=CARTESIAN_POINT('',(18.0000000000377,12.0000000000027,0.));
#413=CARTESIAN_POINT('',(17.9999999999944,-1.11022302462516E-15,0.));
#414=CARTESIAN_POINT('',(18.0000000000342,12.,0.));
#415=CARTESIAN_POINT('',(17.9999999999944,0.,1.8));
#416=CARTESIAN_POINT('',(17.9999999999944,-1.11022302462516E-15,0.));
#417=CARTESIAN_POINT('',(18.0000000000377,12.0000000000027,1.8));
#418=CARTESIAN_POINT('',(18.0000000000342,12.,1.8));
#419=CARTESIAN_POINT('',(18.0000000000377,12.0000000000027,0.));
#420=CARTESIAN_POINT('Origin',(10.0000000000199,6.00000000002649,0.));
#421=CARTESIAN_POINT('',(16.0000000000342,-1.99999999995722,0.));
#422=CARTESIAN_POINT('Origin',(10.0000000000199,6.00000000002649,0.));
#423=CARTESIAN_POINT('',(16.0000000000342,-1.99999999995722,1.8));
#424=CARTESIAN_POINT('',(16.0000000000342,-1.99999999995722,0.));
#425=CARTESIAN_POINT('Origin',(10.0000000000199,6.00000000002649,1.8));
#426=CARTESIAN_POINT('Origin',(16.0000000000342,-3.99999999995722,0.));
#427=CARTESIAN_POINT('',(16.0000000000342,-3.99999999995722,0.));
#428=CARTESIAN_POINT('',(16.0000000000342,-1.99999999995722,0.));
#429=CARTESIAN_POINT('',(16.0000000000342,-3.99999999995722,1.8));
#430=CARTESIAN_POINT('',(16.0000000000342,-3.99999999995722,0.));
#431=CARTESIAN_POINT('',(16.0000000000342,-1.99999999995722,1.8));
#432=CARTESIAN_POINT('Origin',(12.7084973779358,3.29150262218601,0.));
#433=CARTESIAN_POINT('',(20.0000000000397,0.,0.));
#434=CARTESIAN_POINT('Origin',(12.7084973779358,3.29150262218601,0.));
#435=CARTESIAN_POINT('',(20.0000000000397,0.,1.8));
#436=CARTESIAN_POINT('',(20.0000000000397,0.,0.));
#437=CARTESIAN_POINT('Origin',(12.7084973779358,3.29150262218601,1.8));
#438=CARTESIAN_POINT('Origin',(20.0000000000397,12.,0.));
#439=CARTESIAN_POINT('',(20.0000000000397,12.,0.));
#440=CARTESIAN_POINT('',(20.0000000000397,0.,0.));
#441=CARTESIAN_POINT('',(20.0000000000397,12.,1.8));
#442=CARTESIAN_POINT('',(20.0000000000397,12.,0.));
#443=CARTESIAN_POINT('',(20.0000000000397,0.,1.8));
#444=CARTESIAN_POINT('Origin',(10.1948283547934,6.99138059130539,0.));
#445=CARTESIAN_POINT('',(10.0000000000199,18.0000000000265,0.));
#446=CARTESIAN_POINT('Origin',(10.1948283547934,6.99138059130539,0.));
#447=CARTESIAN_POINT('',(10.0000000000199,18.0000000000265,1.8));
#448=CARTESIAN_POINT('',(10.0000000000199,18.0000000000265,0.));
#449=CARTESIAN_POINT('Origin',(10.1948283547934,6.99138059130539,1.8));
#450=CARTESIAN_POINT('Origin',(10.0000000000199,6.00000000002649,0.));
#451=CARTESIAN_POINT('',(2.00000000000201,12.0000000000027,0.));
#452=CARTESIAN_POINT('Origin',(10.0000000000199,6.00000000002649,0.));
#453=CARTESIAN_POINT('',(2.00000000000201,12.0000000000027,1.8));
#454=CARTESIAN_POINT('Origin',(10.0000000000199,6.00000000002649,1.8));
#455=CARTESIAN_POINT('',(2.00000000000201,12.0000000000027,0.));
#456=CARTESIAN_POINT('Origin',(2.0000000000453,0.,0.));
#457=CARTESIAN_POINT('',(2.0000000000453,-1.11022302462516E-15,0.));
#458=CARTESIAN_POINT('',(2.00000000000556,12.,0.));
#459=CARTESIAN_POINT('',(2.0000000000453,0.,1.8));
#460=CARTESIAN_POINT('',(2.00000000000556,12.,1.8));
#461=CARTESIAN_POINT('',(2.0000000000453,-1.11022302462516E-15,0.));
#462=CARTESIAN_POINT('Origin',(10.0000000000199,6.00000000002649,0.));
#463=CARTESIAN_POINT('',(4.00000000000556,-1.99999999995722,0.));
#464=CARTESIAN_POINT('Origin',(10.0000000000199,6.00000000002649,0.));
#465=CARTESIAN_POINT('',(4.00000000000556,-1.99999999995722,1.8));
#466=CARTESIAN_POINT('Origin',(10.0000000000199,6.00000000002649,1.8));
#467=CARTESIAN_POINT('',(4.00000000000556,-1.99999999995722,0.));
#468=CARTESIAN_POINT('Origin',(4.00000000000556,-3.99999999995722,0.));
#469=CARTESIAN_POINT('',(4.00000000000556,-3.99999999995722,0.));
#470=CARTESIAN_POINT('',(4.00000000000556,-1.99999999995722,0.));
#471=CARTESIAN_POINT('',(4.00000000000556,-3.99999999995722,1.8));
#472=CARTESIAN_POINT('',(4.00000000000556,-1.99999999995722,1.8));
#473=CARTESIAN_POINT('',(4.00000000000556,-3.99999999995722,0.));
#474=CARTESIAN_POINT('Origin',(7.29150262210396,3.29150262218601,0.));
#475=CARTESIAN_POINT('',(0.,0.,0.));
#476=CARTESIAN_POINT('Origin',(7.29150262210396,3.29150262218601,0.));
#477=CARTESIAN_POINT('',(0.,0.,1.8));
#478=CARTESIAN_POINT('Origin',(7.29150262210396,3.29150262218601,1.8));
#479=CARTESIAN_POINT('',(0.,0.,0.));
#480=CARTESIAN_POINT('Origin',(0.,12.,0.));
#481=CARTESIAN_POINT('',(3.33066907387547E-15,12.,0.));
#482=CARTESIAN_POINT('',(0.,0.,0.));
#483=CARTESIAN_POINT('',(4.44089209850063E-15,12.,1.8));
#484=CARTESIAN_POINT('',(0.,0.,1.8));
#485=CARTESIAN_POINT('',(3.33066907387547E-15,12.,0.));
#486=CARTESIAN_POINT('Origin',(9.80517164524631,6.99138059130539,0.));
#487=CARTESIAN_POINT('Origin',(9.80517164524631,6.99138059130539,0.));
#488=CARTESIAN_POINT('Origin',(9.80517164524631,6.99138059130539,1.8));
#489=CARTESIAN_POINT('Origin',(5.00000000000993,7.00086194090663,1.8));
#490=CARTESIAN_POINT('Origin',(5.00000000000993,7.00086194090663,0.));
#491=UNCERTAINTY_MEASURE_WITH_UNIT(LENGTH_MEASURE(0.01),#495,
'DISTANCE_ACCURACY_VALUE',
'Maximum model space distance between geometric entities at asserted c
onnectivities');
#492=UNCERTAINTY_MEASURE_WITH_UNIT(LENGTH_MEASURE(0.01),#495,
'DISTANCE_ACCURACY_VALUE',
'Maximum model space distance between geometric entities at asserted c
onnectivities');
#493=(
GEOMETRIC_REPRESENTATION_CONTEXT(3)
GLOBAL_UNCERTAINTY_ASSIGNED_CONTEXT((#491))
GLOBAL_UNIT_ASSIGNED_CONTEXT((#495,#497,#498))
REPRESENTATION_CONTEXT('','3D')
);
#494=(
GEOMETRIC_REPRESENTATION_CONTEXT(3)
GLOBAL_UNCERTAINTY_ASSIGNED_CONTEXT((#492))
GLOBAL_UNIT_ASSIGNED_CONTEXT((#495,#497,#498))
REPRESENTATION_CONTEXT('','3D')
);
#495=(
LENGTH_UNIT()
NAMED_UNIT(*)
SI_UNIT(.MILLI.,.METRE.)
);
#496=(
LENGTH_UNIT()
NAMED_UNIT(*)
SI_UNIT($,.METRE.)
);
#497=(
NAMED_UNIT(*)
PLANE_ANGLE_UNIT()
SI_UNIT($,.RADIAN.)
);
#498=(
NAMED_UNIT(*)
SI_UNIT($,.STERADIAN.)
SOLID_ANGLE_UNIT()
);
#499=SHAPE_DEFINITION_REPRESENTATION(#500,#501);
#500=PRODUCT_DEFINITION_SHAPE('',$,#503);
#501=SHAPE_REPRESENTATION('',(#295),#493);
#502=PRODUCT_DEFINITION_CONTEXT('part definition',#507,'design');
#503=PRODUCT_DEFINITION('Klammer_Durchfuehrung',
'Klammer_Durchfuehrung v1',#504,#502);
#504=PRODUCT_DEFINITION_FORMATION('',$,#509);
#505=PRODUCT_RELATED_PRODUCT_CATEGORY('Klammer_Durchfuehrung v1',
'Klammer_Durchfuehrung v1',(#509));
#506=APPLICATION_PROTOCOL_DEFINITION('international standard',
'automotive_design',2009,#507);
#507=APPLICATION_CONTEXT(
'Core Data for Automotive Mechanical Design Process');
#508=PRODUCT_CONTEXT('part definition',#507,'mechanical');
#509=PRODUCT('Klammer_Durchfuehrung','Klammer_Durchfuehrung v1',$,(#508));
#510=PRESENTATION_STYLE_ASSIGNMENT((#511));
#511=SURFACE_STYLE_USAGE(.BOTH.,#512);
#512=SURFACE_SIDE_STYLE('',(#513));
#513=SURFACE_STYLE_FILL_AREA(#514);
#514=FILL_AREA_STYLE('Stahl - satiniert',(#515));
#515=FILL_AREA_STYLE_COLOUR('Stahl - satiniert',#516);
#516=COLOUR_RGB('Stahl - satiniert',0.627450980392157,0.627450980392157,
0.627450980392157);
ENDSEC;
END-ISO-10303-21;
