ISO-10303-21;
HEADER;
/* Generated by software containing ST-Developer
 * from STEP Tools, Inc. (www.steptools.com) 
 */

FILE_DESCRIPTION(
/* description */ (''),
/* implementation_level */ '2;1');

FILE_NAME(
/* name */ 'Kran_Gegenhalter.step',
/* time_stamp */ '2026-06-28T17:02:33+02:00',
/* author */ (''),
/* organization */ (''),
/* preprocessor_version */ 'ST-DEVELOPER v20.1',
/* originating_system */ 'Autodesk Translation Framework v15.8.0.0',
/* authorisation */ '');

FILE_SCHEMA (('AUTOMOTIVE_DESIGN { 1 0 10303 214 3 1 1 }'));
ENDSEC;

DATA;
#10=MECHANICAL_DESIGN_GEOMETRIC_PRESENTATION_REPRESENTATION('',(#13),#992);
#11=SHAPE_REPRESENTATION_RELATIONSHIP('SRR','None',#999,#12);
#12=ADVANCED_BREP_SHAPE_REPRESENTATION('',(#14),#991);
#13=STYLED_ITEM('',(#1008),#14);
#14=MANIFOLD_SOLID_BREP('Gegenhalter_V',#576);
#15=FACE_BOUND('',#97,.T.);
#16=FACE_BOUND('',#98,.T.);
#17=FACE_BOUND('',#99,.T.);
#18=FACE_BOUND('',#100,.T.);
#19=FACE_BOUND('',#103,.T.);
#20=FACE_BOUND('',#104,.T.);
#21=FACE_BOUND('',#108,.T.);
#22=FACE_BOUND('',#112,.T.);
#23=FACE_BOUND('',#116,.T.);
#24=FACE_BOUND('',#120,.T.);
#25=FACE_BOUND('',#126,.T.);
#26=FACE_BOUND('',#127,.T.);
#27=FACE_BOUND('',#128,.T.);
#28=FACE_BOUND('',#129,.T.);
#29=FACE_BOUND('',#131,.T.);
#30=PLANE('',#593);
#31=PLANE('',#597);
#32=PLANE('',#598);
#33=PLANE('',#599);
#34=PLANE('',#602);
#35=PLANE('',#603);
#36=PLANE('',#604);
#37=PLANE('',#608);
#38=PLANE('',#612);
#39=PLANE('',#613);
#40=PLANE('',#621);
#41=PLANE('',#626);
#42=PLANE('',#632);
#43=PLANE('',#638);
#44=PLANE('',#644);
#45=PLANE('',#650);
#46=PLANE('',#651);
#47=PLANE('',#652);
#48=PLANE('',#653);
#49=FACE_OUTER_BOUND('',#83,.T.);
#50=FACE_OUTER_BOUND('',#84,.T.);
#51=FACE_OUTER_BOUND('',#85,.T.);
#52=FACE_OUTER_BOUND('',#86,.T.);
#53=FACE_OUTER_BOUND('',#87,.T.);
#54=FACE_OUTER_BOUND('',#88,.T.);
#55=FACE_OUTER_BOUND('',#89,.T.);
#56=FACE_OUTER_BOUND('',#90,.T.);
#57=FACE_OUTER_BOUND('',#91,.T.);
#58=FACE_OUTER_BOUND('',#92,.T.);
#59=FACE_OUTER_BOUND('',#93,.T.);
#60=FACE_OUTER_BOUND('',#94,.T.);
#61=FACE_OUTER_BOUND('',#95,.T.);
#62=FACE_OUTER_BOUND('',#96,.T.);
#63=FACE_OUTER_BOUND('',#101,.T.);
#64=FACE_OUTER_BOUND('',#102,.T.);
#65=FACE_OUTER_BOUND('',#105,.T.);
#66=FACE_OUTER_BOUND('',#106,.T.);
#67=FACE_OUTER_BOUND('',#107,.T.);
#68=FACE_OUTER_BOUND('',#109,.T.);
#69=FACE_OUTER_BOUND('',#110,.T.);
#70=FACE_OUTER_BOUND('',#111,.T.);
#71=FACE_OUTER_BOUND('',#113,.T.);
#72=FACE_OUTER_BOUND('',#114,.T.);
#73=FACE_OUTER_BOUND('',#115,.T.);
#74=FACE_OUTER_BOUND('',#117,.T.);
#75=FACE_OUTER_BOUND('',#118,.T.);
#76=FACE_OUTER_BOUND('',#119,.T.);
#77=FACE_OUTER_BOUND('',#121,.T.);
#78=FACE_OUTER_BOUND('',#122,.T.);
#79=FACE_OUTER_BOUND('',#123,.T.);
#80=FACE_OUTER_BOUND('',#124,.T.);
#81=FACE_OUTER_BOUND('',#125,.T.);
#82=FACE_OUTER_BOUND('',#130,.T.);
#83=EDGE_LOOP('',(#377,#378,#379,#380));
#84=EDGE_LOOP('',(#381));
#85=EDGE_LOOP('',(#382,#383,#384,#385));
#86=EDGE_LOOP('',(#386));
#87=EDGE_LOOP('',(#387,#388,#389,#390));
#88=EDGE_LOOP('',(#391,#392,#393,#394,#395,#396,#397,#398,#399,#400));
#89=EDGE_LOOP('',(#401,#402,#403,#404));
#90=EDGE_LOOP('',(#405,#406,#407,#408));
#91=EDGE_LOOP('',(#409,#410,#411,#412));
#92=EDGE_LOOP('',(#413,#414,#415,#416));
#93=EDGE_LOOP('',(#417));
#94=EDGE_LOOP('',(#418,#419,#420,#421));
#95=EDGE_LOOP('',(#422,#423,#424,#425,#426,#427));
#96=EDGE_LOOP('',(#428,#429,#430,#431,#432,#433));
#97=EDGE_LOOP('',(#434));
#98=EDGE_LOOP('',(#435));
#99=EDGE_LOOP('',(#436));
#100=EDGE_LOOP('',(#437));
#101=EDGE_LOOP('',(#438,#439,#440,#441));
#102=EDGE_LOOP('',(#442,#443,#444,#445,#446,#447,#448,#449,#450,#451));
#103=EDGE_LOOP('',(#452));
#104=EDGE_LOOP('',(#453));
#105=EDGE_LOOP('',(#454,#455,#456,#457));
#106=EDGE_LOOP('',(#458,#459,#460,#461));
#107=EDGE_LOOP('',(#462));
#108=EDGE_LOOP('',(#463));
#109=EDGE_LOOP('',(#464,#465,#466,#467));
#110=EDGE_LOOP('',(#468,#469,#470,#471));
#111=EDGE_LOOP('',(#472));
#112=EDGE_LOOP('',(#473));
#113=EDGE_LOOP('',(#474,#475,#476,#477));
#114=EDGE_LOOP('',(#478,#479,#480,#481));
#115=EDGE_LOOP('',(#482));
#116=EDGE_LOOP('',(#483));
#117=EDGE_LOOP('',(#484,#485,#486,#487));
#118=EDGE_LOOP('',(#488,#489,#490,#491));
#119=EDGE_LOOP('',(#492));
#120=EDGE_LOOP('',(#493));
#121=EDGE_LOOP('',(#494,#495,#496,#497));
#122=EDGE_LOOP('',(#498,#499,#500,#501));
#123=EDGE_LOOP('',(#502,#503,#504,#505));
#124=EDGE_LOOP('',(#506,#507,#508,#509));
#125=EDGE_LOOP('',(#510,#511,#512,#513,#514,#515));
#126=EDGE_LOOP('',(#516));
#127=EDGE_LOOP('',(#517));
#128=EDGE_LOOP('',(#518));
#129=EDGE_LOOP('',(#519));
#130=EDGE_LOOP('',(#520,#521,#522,#523,#524,#525));
#131=EDGE_LOOP('',(#526));
#132=LINE('',#834,#177);
#133=LINE('',#841,#178);
#134=LINE('',#847,#179);
#135=LINE('',#849,#180);
#136=LINE('',#851,#181);
#137=LINE('',#852,#182);
#138=LINE('',#855,#183);
#139=LINE('',#857,#184);
#140=LINE('',#859,#185);
#141=LINE('',#863,#186);
#142=LINE('',#867,#187);
#143=LINE('',#869,#188);
#144=LINE('',#870,#189);
#145=LINE('',#873,#190);
#146=LINE('',#875,#191);
#147=LINE('',#876,#192);
#148=LINE('',#878,#193);
#149=LINE('',#879,#194);
#150=LINE('',#885,#195);
#151=LINE('',#893,#196);
#152=LINE('',#896,#197);
#153=LINE('',#898,#198);
#154=LINE('',#900,#199);
#155=LINE('',#902,#200);
#156=LINE('',#903,#201);
#157=LINE('',#906,#202);
#158=LINE('',#909,#203);
#159=LINE('',#920,#204);
#160=LINE('',#923,#205);
#161=LINE('',#926,#206);
#162=LINE('',#928,#207);
#163=LINE('',#929,#208);
#164=LINE('',#933,#209);
#165=LINE('',#936,#210);
#166=LINE('',#944,#211);
#167=LINE('',#947,#212);
#168=LINE('',#955,#213);
#169=LINE('',#958,#214);
#170=LINE('',#966,#215);
#171=LINE('',#969,#216);
#172=LINE('',#977,#217);
#173=LINE('',#980,#218);
#174=LINE('',#983,#219);
#175=LINE('',#985,#220);
#176=LINE('',#987,#221);
#177=VECTOR('',#660,1.35);
#178=VECTOR('',#669,1.35);
#179=VECTOR('',#676,10.);
#180=VECTOR('',#677,10.);
#181=VECTOR('',#678,10.);
#182=VECTOR('',#679,10.);
#183=VECTOR('',#682,10.);
#184=VECTOR('',#683,10.);
#185=VECTOR('',#684,10.);
#186=VECTOR('',#687,10.);
#187=VECTOR('',#690,10.);
#188=VECTOR('',#691,10.);
#189=VECTOR('',#692,10.);
#190=VECTOR('',#695,10.);
#191=VECTOR('',#696,10.);
#192=VECTOR('',#697,10.);
#193=VECTOR('',#700,10.);
#194=VECTOR('',#701,10.);
#195=VECTOR('',#708,2.9);
#196=VECTOR('',#717,10.);
#197=VECTOR('',#720,10.);
#198=VECTOR('',#723,10.);
#199=VECTOR('',#724,10.);
#200=VECTOR('',#725,10.);
#201=VECTOR('',#726,10.);
#202=VECTOR('',#729,10.);
#203=VECTOR('',#732,10.);
#204=VECTOR('',#743,10.);
#205=VECTOR('',#746,10.);
#206=VECTOR('',#749,10.);
#207=VECTOR('',#750,10.);
#208=VECTOR('',#751,10.);
#209=VECTOR('',#756,10.);
#210=VECTOR('',#759,10.);
#211=VECTOR('',#770,3.);
#212=VECTOR('',#773,1.6);
#213=VECTOR('',#784,3.);
#214=VECTOR('',#787,1.6);
#215=VECTOR('',#798,3.);
#216=VECTOR('',#801,1.6);
#217=VECTOR('',#812,3.);
#218=VECTOR('',#815,1.6);
#219=VECTOR('',#820,10.);
#220=VECTOR('',#823,10.);
#221=VECTOR('',#826,10.);
#222=CIRCLE('',#591,1.35);
#223=CIRCLE('',#592,1.35);
#224=CIRCLE('',#595,1.35);
#225=CIRCLE('',#596,1.35);
#226=CIRCLE('',#600,5.);
#227=CIRCLE('',#601,5.);
#228=CIRCLE('',#606,2.9);
#229=CIRCLE('',#607,2.9);
#230=CIRCLE('',#610,5.);
#231=CIRCLE('',#611,5.);
#232=CIRCLE('',#614,5.);
#233=CIRCLE('',#615,3.);
#234=CIRCLE('',#616,3.);
#235=CIRCLE('',#617,3.);
#236=CIRCLE('',#618,3.);
#237=CIRCLE('',#620,5.);
#238=CIRCLE('',#623,5.);
#239=CIRCLE('',#625,5.);
#240=CIRCLE('',#627,3.);
#241=CIRCLE('',#628,1.6);
#242=CIRCLE('',#631,1.6);
#243=CIRCLE('',#633,3.);
#244=CIRCLE('',#634,1.6);
#245=CIRCLE('',#637,1.6);
#246=CIRCLE('',#639,3.);
#247=CIRCLE('',#640,1.6);
#248=CIRCLE('',#643,1.6);
#249=CIRCLE('',#645,3.);
#250=CIRCLE('',#646,1.6);
#251=CIRCLE('',#649,1.6);
#252=VERTEX_POINT('',#831);
#253=VERTEX_POINT('',#833);
#254=VERTEX_POINT('',#838);
#255=VERTEX_POINT('',#840);
#256=VERTEX_POINT('',#845);
#257=VERTEX_POINT('',#846);
#258=VERTEX_POINT('',#848);
#259=VERTEX_POINT('',#850);
#260=VERTEX_POINT('',#854);
#261=VERTEX_POINT('',#856);
#262=VERTEX_POINT('',#858);
#263=VERTEX_POINT('',#860);
#264=VERTEX_POINT('',#862);
#265=VERTEX_POINT('',#864);
#266=VERTEX_POINT('',#866);
#267=VERTEX_POINT('',#868);
#268=VERTEX_POINT('',#872);
#269=VERTEX_POINT('',#874);
#270=VERTEX_POINT('',#882);
#271=VERTEX_POINT('',#884);
#272=VERTEX_POINT('',#889);
#273=VERTEX_POINT('',#890);
#274=VERTEX_POINT('',#892);
#275=VERTEX_POINT('',#894);
#276=VERTEX_POINT('',#899);
#277=VERTEX_POINT('',#901);
#278=VERTEX_POINT('',#905);
#279=VERTEX_POINT('',#907);
#280=VERTEX_POINT('',#910);
#281=VERTEX_POINT('',#912);
#282=VERTEX_POINT('',#914);
#283=VERTEX_POINT('',#916);
#284=VERTEX_POINT('',#919);
#285=VERTEX_POINT('',#921);
#286=VERTEX_POINT('',#925);
#287=VERTEX_POINT('',#927);
#288=VERTEX_POINT('',#931);
#289=VERTEX_POINT('',#935);
#290=VERTEX_POINT('',#939);
#291=VERTEX_POINT('',#941);
#292=VERTEX_POINT('',#946);
#293=VERTEX_POINT('',#950);
#294=VERTEX_POINT('',#952);
#295=VERTEX_POINT('',#957);
#296=VERTEX_POINT('',#961);
#297=VERTEX_POINT('',#963);
#298=VERTEX_POINT('',#968);
#299=VERTEX_POINT('',#972);
#300=VERTEX_POINT('',#974);
#301=VERTEX_POINT('',#979);
#302=EDGE_CURVE('',#252,#252,#222,.T.);
#303=EDGE_CURVE('',#252,#253,#132,.T.);
#304=EDGE_CURVE('',#253,#253,#223,.T.);
#305=EDGE_CURVE('',#254,#254,#224,.T.);
#306=EDGE_CURVE('',#254,#255,#133,.T.);
#307=EDGE_CURVE('',#255,#255,#225,.T.);
#308=EDGE_CURVE('',#256,#257,#134,.T.);
#309=EDGE_CURVE('',#257,#258,#135,.T.);
#310=EDGE_CURVE('',#258,#259,#136,.T.);
#311=EDGE_CURVE('',#259,#256,#137,.T.);
#312=EDGE_CURVE('',#257,#260,#138,.T.);
#313=EDGE_CURVE('',#261,#260,#139,.T.);
#314=EDGE_CURVE('',#261,#262,#140,.T.);
#315=EDGE_CURVE('',#263,#262,#226,.T.);
#316=EDGE_CURVE('',#263,#264,#141,.T.);
#317=EDGE_CURVE('',#265,#264,#227,.T.);
#318=EDGE_CURVE('',#265,#266,#142,.T.);
#319=EDGE_CURVE('',#266,#267,#143,.T.);
#320=EDGE_CURVE('',#267,#258,#144,.T.);
#321=EDGE_CURVE('',#260,#268,#145,.T.);
#322=EDGE_CURVE('',#269,#268,#146,.T.);
#323=EDGE_CURVE('',#269,#261,#147,.T.);
#324=EDGE_CURVE('',#269,#259,#148,.T.);
#325=EDGE_CURVE('',#256,#268,#149,.T.);
#326=EDGE_CURVE('',#270,#270,#228,.T.);
#327=EDGE_CURVE('',#270,#271,#150,.T.);
#328=EDGE_CURVE('',#271,#271,#229,.T.);
#329=EDGE_CURVE('',#272,#273,#230,.T.);
#330=EDGE_CURVE('',#273,#274,#151,.T.);
#331=EDGE_CURVE('',#274,#275,#231,.T.);
#332=EDGE_CURVE('',#275,#272,#152,.T.);
#333=EDGE_CURVE('',#266,#275,#153,.T.);
#334=EDGE_CURVE('',#276,#265,#154,.T.);
#335=EDGE_CURVE('',#276,#277,#155,.T.);
#336=EDGE_CURVE('',#277,#272,#156,.T.);
#337=EDGE_CURVE('',#278,#274,#157,.T.);
#338=EDGE_CURVE('',#279,#278,#232,.T.);
#339=EDGE_CURVE('',#267,#279,#158,.T.);
#340=EDGE_CURVE('',#280,#280,#233,.T.);
#341=EDGE_CURVE('',#281,#281,#234,.T.);
#342=EDGE_CURVE('',#282,#282,#235,.T.);
#343=EDGE_CURVE('',#283,#283,#236,.T.);
#344=EDGE_CURVE('',#278,#284,#159,.T.);
#345=EDGE_CURVE('',#284,#285,#237,.T.);
#346=EDGE_CURVE('',#285,#279,#160,.T.);
#347=EDGE_CURVE('',#286,#285,#161,.T.);
#348=EDGE_CURVE('',#286,#287,#162,.T.);
#349=EDGE_CURVE('',#262,#287,#163,.T.);
#350=EDGE_CURVE('',#287,#288,#238,.T.);
#351=EDGE_CURVE('',#288,#263,#164,.T.);
#352=EDGE_CURVE('',#264,#289,#165,.T.);
#353=EDGE_CURVE('',#289,#276,#239,.T.);
#354=EDGE_CURVE('',#290,#290,#240,.T.);
#355=EDGE_CURVE('',#291,#291,#241,.T.);
#356=EDGE_CURVE('',#280,#290,#166,.T.);
#357=EDGE_CURVE('',#291,#292,#167,.T.);
#358=EDGE_CURVE('',#292,#292,#242,.T.);
#359=EDGE_CURVE('',#293,#293,#243,.T.);
#360=EDGE_CURVE('',#294,#294,#244,.T.);
#361=EDGE_CURVE('',#281,#293,#168,.T.);
#362=EDGE_CURVE('',#294,#295,#169,.T.);
#363=EDGE_CURVE('',#295,#295,#245,.T.);
#364=EDGE_CURVE('',#296,#296,#246,.T.);
#365=EDGE_CURVE('',#297,#297,#247,.T.);
#366=EDGE_CURVE('',#282,#296,#170,.T.);
#367=EDGE_CURVE('',#297,#298,#171,.T.);
#368=EDGE_CURVE('',#298,#298,#248,.T.);
#369=EDGE_CURVE('',#299,#299,#249,.T.);
#370=EDGE_CURVE('',#300,#300,#250,.T.);
#371=EDGE_CURVE('',#283,#299,#172,.T.);
#372=EDGE_CURVE('',#300,#301,#173,.T.);
#373=EDGE_CURVE('',#301,#301,#251,.T.);
#374=EDGE_CURVE('',#273,#284,#174,.T.);
#375=EDGE_CURVE('',#288,#289,#175,.T.);
#376=EDGE_CURVE('',#277,#286,#176,.T.);
#377=ORIENTED_EDGE('',*,*,#302,.F.);
#378=ORIENTED_EDGE('',*,*,#303,.T.);
#379=ORIENTED_EDGE('',*,*,#304,.T.);
#380=ORIENTED_EDGE('',*,*,#303,.F.);
#381=ORIENTED_EDGE('',*,*,#304,.F.);
#382=ORIENTED_EDGE('',*,*,#305,.F.);
#383=ORIENTED_EDGE('',*,*,#306,.T.);
#384=ORIENTED_EDGE('',*,*,#307,.T.);
#385=ORIENTED_EDGE('',*,*,#306,.F.);
#386=ORIENTED_EDGE('',*,*,#307,.F.);
#387=ORIENTED_EDGE('',*,*,#308,.T.);
#388=ORIENTED_EDGE('',*,*,#309,.T.);
#389=ORIENTED_EDGE('',*,*,#310,.T.);
#390=ORIENTED_EDGE('',*,*,#311,.T.);
#391=ORIENTED_EDGE('',*,*,#309,.F.);
#392=ORIENTED_EDGE('',*,*,#312,.T.);
#393=ORIENTED_EDGE('',*,*,#313,.F.);
#394=ORIENTED_EDGE('',*,*,#314,.T.);
#395=ORIENTED_EDGE('',*,*,#315,.F.);
#396=ORIENTED_EDGE('',*,*,#316,.T.);
#397=ORIENTED_EDGE('',*,*,#317,.F.);
#398=ORIENTED_EDGE('',*,*,#318,.T.);
#399=ORIENTED_EDGE('',*,*,#319,.T.);
#400=ORIENTED_EDGE('',*,*,#320,.T.);
#401=ORIENTED_EDGE('',*,*,#321,.T.);
#402=ORIENTED_EDGE('',*,*,#322,.F.);
#403=ORIENTED_EDGE('',*,*,#323,.T.);
#404=ORIENTED_EDGE('',*,*,#313,.T.);
#405=ORIENTED_EDGE('',*,*,#324,.F.);
#406=ORIENTED_EDGE('',*,*,#322,.T.);
#407=ORIENTED_EDGE('',*,*,#325,.F.);
#408=ORIENTED_EDGE('',*,*,#311,.F.);
#409=ORIENTED_EDGE('',*,*,#312,.F.);
#410=ORIENTED_EDGE('',*,*,#308,.F.);
#411=ORIENTED_EDGE('',*,*,#325,.T.);
#412=ORIENTED_EDGE('',*,*,#321,.F.);
#413=ORIENTED_EDGE('',*,*,#326,.F.);
#414=ORIENTED_EDGE('',*,*,#327,.T.);
#415=ORIENTED_EDGE('',*,*,#328,.F.);
#416=ORIENTED_EDGE('',*,*,#327,.F.);
#417=ORIENTED_EDGE('',*,*,#326,.T.);
#418=ORIENTED_EDGE('',*,*,#329,.T.);
#419=ORIENTED_EDGE('',*,*,#330,.T.);
#420=ORIENTED_EDGE('',*,*,#331,.T.);
#421=ORIENTED_EDGE('',*,*,#332,.T.);
#422=ORIENTED_EDGE('',*,*,#332,.F.);
#423=ORIENTED_EDGE('',*,*,#333,.F.);
#424=ORIENTED_EDGE('',*,*,#318,.F.);
#425=ORIENTED_EDGE('',*,*,#334,.F.);
#426=ORIENTED_EDGE('',*,*,#335,.T.);
#427=ORIENTED_EDGE('',*,*,#336,.T.);
#428=ORIENTED_EDGE('',*,*,#331,.F.);
#429=ORIENTED_EDGE('',*,*,#337,.F.);
#430=ORIENTED_EDGE('',*,*,#338,.F.);
#431=ORIENTED_EDGE('',*,*,#339,.F.);
#432=ORIENTED_EDGE('',*,*,#319,.F.);
#433=ORIENTED_EDGE('',*,*,#333,.T.);
#434=ORIENTED_EDGE('',*,*,#340,.T.);
#435=ORIENTED_EDGE('',*,*,#341,.T.);
#436=ORIENTED_EDGE('',*,*,#342,.T.);
#437=ORIENTED_EDGE('',*,*,#343,.T.);
#438=ORIENTED_EDGE('',*,*,#338,.T.);
#439=ORIENTED_EDGE('',*,*,#344,.T.);
#440=ORIENTED_EDGE('',*,*,#345,.T.);
#441=ORIENTED_EDGE('',*,*,#346,.T.);
#442=ORIENTED_EDGE('',*,*,#346,.F.);
#443=ORIENTED_EDGE('',*,*,#347,.F.);
#444=ORIENTED_EDGE('',*,*,#348,.T.);
#445=ORIENTED_EDGE('',*,*,#349,.F.);
#446=ORIENTED_EDGE('',*,*,#314,.F.);
#447=ORIENTED_EDGE('',*,*,#323,.F.);
#448=ORIENTED_EDGE('',*,*,#324,.T.);
#449=ORIENTED_EDGE('',*,*,#310,.F.);
#450=ORIENTED_EDGE('',*,*,#320,.F.);
#451=ORIENTED_EDGE('',*,*,#339,.T.);
#452=ORIENTED_EDGE('',*,*,#302,.T.);
#453=ORIENTED_EDGE('',*,*,#305,.T.);
#454=ORIENTED_EDGE('',*,*,#315,.T.);
#455=ORIENTED_EDGE('',*,*,#349,.T.);
#456=ORIENTED_EDGE('',*,*,#350,.T.);
#457=ORIENTED_EDGE('',*,*,#351,.T.);
#458=ORIENTED_EDGE('',*,*,#317,.T.);
#459=ORIENTED_EDGE('',*,*,#352,.T.);
#460=ORIENTED_EDGE('',*,*,#353,.T.);
#461=ORIENTED_EDGE('',*,*,#334,.T.);
#462=ORIENTED_EDGE('',*,*,#354,.F.);
#463=ORIENTED_EDGE('',*,*,#355,.T.);
#464=ORIENTED_EDGE('',*,*,#340,.F.);
#465=ORIENTED_EDGE('',*,*,#356,.T.);
#466=ORIENTED_EDGE('',*,*,#354,.T.);
#467=ORIENTED_EDGE('',*,*,#356,.F.);
#468=ORIENTED_EDGE('',*,*,#355,.F.);
#469=ORIENTED_EDGE('',*,*,#357,.T.);
#470=ORIENTED_EDGE('',*,*,#358,.F.);
#471=ORIENTED_EDGE('',*,*,#357,.F.);
#472=ORIENTED_EDGE('',*,*,#359,.F.);
#473=ORIENTED_EDGE('',*,*,#360,.T.);
#474=ORIENTED_EDGE('',*,*,#341,.F.);
#475=ORIENTED_EDGE('',*,*,#361,.T.);
#476=ORIENTED_EDGE('',*,*,#359,.T.);
#477=ORIENTED_EDGE('',*,*,#361,.F.);
#478=ORIENTED_EDGE('',*,*,#360,.F.);
#479=ORIENTED_EDGE('',*,*,#362,.T.);
#480=ORIENTED_EDGE('',*,*,#363,.F.);
#481=ORIENTED_EDGE('',*,*,#362,.F.);
#482=ORIENTED_EDGE('',*,*,#364,.F.);
#483=ORIENTED_EDGE('',*,*,#365,.T.);
#484=ORIENTED_EDGE('',*,*,#342,.F.);
#485=ORIENTED_EDGE('',*,*,#366,.T.);
#486=ORIENTED_EDGE('',*,*,#364,.T.);
#487=ORIENTED_EDGE('',*,*,#366,.F.);
#488=ORIENTED_EDGE('',*,*,#365,.F.);
#489=ORIENTED_EDGE('',*,*,#367,.T.);
#490=ORIENTED_EDGE('',*,*,#368,.F.);
#491=ORIENTED_EDGE('',*,*,#367,.F.);
#492=ORIENTED_EDGE('',*,*,#369,.F.);
#493=ORIENTED_EDGE('',*,*,#370,.T.);
#494=ORIENTED_EDGE('',*,*,#343,.F.);
#495=ORIENTED_EDGE('',*,*,#371,.T.);
#496=ORIENTED_EDGE('',*,*,#369,.T.);
#497=ORIENTED_EDGE('',*,*,#371,.F.);
#498=ORIENTED_EDGE('',*,*,#370,.F.);
#499=ORIENTED_EDGE('',*,*,#372,.T.);
#500=ORIENTED_EDGE('',*,*,#373,.F.);
#501=ORIENTED_EDGE('',*,*,#372,.F.);
#502=ORIENTED_EDGE('',*,*,#330,.F.);
#503=ORIENTED_EDGE('',*,*,#374,.T.);
#504=ORIENTED_EDGE('',*,*,#344,.F.);
#505=ORIENTED_EDGE('',*,*,#337,.T.);
#506=ORIENTED_EDGE('',*,*,#351,.F.);
#507=ORIENTED_EDGE('',*,*,#375,.T.);
#508=ORIENTED_EDGE('',*,*,#352,.F.);
#509=ORIENTED_EDGE('',*,*,#316,.F.);
#510=ORIENTED_EDGE('',*,*,#329,.F.);
#511=ORIENTED_EDGE('',*,*,#336,.F.);
#512=ORIENTED_EDGE('',*,*,#376,.T.);
#513=ORIENTED_EDGE('',*,*,#347,.T.);
#514=ORIENTED_EDGE('',*,*,#345,.F.);
#515=ORIENTED_EDGE('',*,*,#374,.F.);
#516=ORIENTED_EDGE('',*,*,#358,.T.);
#517=ORIENTED_EDGE('',*,*,#363,.T.);
#518=ORIENTED_EDGE('',*,*,#368,.T.);
#519=ORIENTED_EDGE('',*,*,#373,.T.);
#520=ORIENTED_EDGE('',*,*,#350,.F.);
#521=ORIENTED_EDGE('',*,*,#348,.F.);
#522=ORIENTED_EDGE('',*,*,#376,.F.);
#523=ORIENTED_EDGE('',*,*,#335,.F.);
#524=ORIENTED_EDGE('',*,*,#353,.F.);
#525=ORIENTED_EDGE('',*,*,#375,.F.);
#526=ORIENTED_EDGE('',*,*,#328,.T.);
#527=CYLINDRICAL_SURFACE('',#590,1.35);
#528=CYLINDRICAL_SURFACE('',#594,1.35);
#529=CYLINDRICAL_SURFACE('',#605,2.9);
#530=CYLINDRICAL_SURFACE('',#609,5.);
#531=CYLINDRICAL_SURFACE('',#619,5.);
#532=CYLINDRICAL_SURFACE('',#622,5.);
#533=CYLINDRICAL_SURFACE('',#624,5.);
#534=CYLINDRICAL_SURFACE('',#629,3.);
#535=CYLINDRICAL_SURFACE('',#630,1.6);
#536=CYLINDRICAL_SURFACE('',#635,3.);
#537=CYLINDRICAL_SURFACE('',#636,1.6);
#538=CYLINDRICAL_SURFACE('',#641,3.);
#539=CYLINDRICAL_SURFACE('',#642,1.6);
#540=CYLINDRICAL_SURFACE('',#647,3.);
#541=CYLINDRICAL_SURFACE('',#648,1.6);
#542=ADVANCED_FACE('',(#49),#527,.F.);
#543=ADVANCED_FACE('',(#50),#30,.T.);
#544=ADVANCED_FACE('',(#51),#528,.F.);
#545=ADVANCED_FACE('',(#52),#31,.T.);
#546=ADVANCED_FACE('',(#53),#32,.T.);
#547=ADVANCED_FACE('',(#54),#33,.T.);
#548=ADVANCED_FACE('',(#55),#34,.T.);
#549=ADVANCED_FACE('',(#56),#35,.T.);
#550=ADVANCED_FACE('',(#57),#36,.T.);
#551=ADVANCED_FACE('',(#58),#529,.T.);
#552=ADVANCED_FACE('',(#59),#37,.T.);
#553=ADVANCED_FACE('',(#60),#530,.T.);
#554=ADVANCED_FACE('',(#61),#38,.T.);
#555=ADVANCED_FACE('',(#62,#15,#16,#17,#18),#39,.T.);
#556=ADVANCED_FACE('',(#63),#531,.T.);
#557=ADVANCED_FACE('',(#64,#19,#20),#40,.T.);
#558=ADVANCED_FACE('',(#65),#532,.T.);
#559=ADVANCED_FACE('',(#66),#533,.T.);
#560=ADVANCED_FACE('',(#67,#21),#41,.F.);
#561=ADVANCED_FACE('',(#68),#534,.F.);
#562=ADVANCED_FACE('',(#69),#535,.F.);
#563=ADVANCED_FACE('',(#70,#22),#42,.F.);
#564=ADVANCED_FACE('',(#71),#536,.F.);
#565=ADVANCED_FACE('',(#72),#537,.F.);
#566=ADVANCED_FACE('',(#73,#23),#43,.F.);
#567=ADVANCED_FACE('',(#74),#538,.F.);
#568=ADVANCED_FACE('',(#75),#539,.F.);
#569=ADVANCED_FACE('',(#76,#24),#44,.F.);
#570=ADVANCED_FACE('',(#77),#540,.F.);
#571=ADVANCED_FACE('',(#78),#541,.F.);
#572=ADVANCED_FACE('',(#79),#45,.T.);
#573=ADVANCED_FACE('',(#80),#46,.T.);
#574=ADVANCED_FACE('',(#81,#25,#26,#27,#28),#47,.T.);
#575=ADVANCED_FACE('',(#82,#29),#48,.F.);
#576=CLOSED_SHELL('',(#542,#543,#544,#545,#546,#547,#548,#549,#550,#551,
#552,#553,#554,#555,#556,#557,#558,#559,#560,#561,#562,#563,#564,#565,#566,
#567,#568,#569,#570,#571,#572,#573,#574,#575));
#577=DERIVED_UNIT_ELEMENT(#579,1.);
#578=DERIVED_UNIT_ELEMENT(#994,-3.);
#579=(
MASS_UNIT()
NAMED_UNIT(*)
SI_UNIT(.KILO.,.GRAM.)
);
#580=DERIVED_UNIT((#577,#578));
#581=MEASURE_REPRESENTATION_ITEM('density measure',
POSITIVE_RATIO_MEASURE(7850.),#580);
#582=PROPERTY_DEFINITION_REPRESENTATION(#587,#584);
#583=PROPERTY_DEFINITION_REPRESENTATION(#588,#585);
#584=REPRESENTATION('material name',(#586),#991);
#585=REPRESENTATION('density',(#581),#991);
#586=DESCRIPTIVE_REPRESENTATION_ITEM('Stahl','Stahl');
#587=PROPERTY_DEFINITION('material property','material name',#1001);
#588=PROPERTY_DEFINITION('material property','density of part',#1001);
#589=AXIS2_PLACEMENT_3D('',#829,#654,#655);
#590=AXIS2_PLACEMENT_3D('',#830,#656,#657);
#591=AXIS2_PLACEMENT_3D('',#832,#658,#659);
#592=AXIS2_PLACEMENT_3D('',#835,#661,#662);
#593=AXIS2_PLACEMENT_3D('',#836,#663,#664);
#594=AXIS2_PLACEMENT_3D('',#837,#665,#666);
#595=AXIS2_PLACEMENT_3D('',#839,#667,#668);
#596=AXIS2_PLACEMENT_3D('',#842,#670,#671);
#597=AXIS2_PLACEMENT_3D('',#843,#672,#673);
#598=AXIS2_PLACEMENT_3D('',#844,#674,#675);
#599=AXIS2_PLACEMENT_3D('',#853,#680,#681);
#600=AXIS2_PLACEMENT_3D('',#861,#685,#686);
#601=AXIS2_PLACEMENT_3D('',#865,#688,#689);
#602=AXIS2_PLACEMENT_3D('',#871,#693,#694);
#603=AXIS2_PLACEMENT_3D('',#877,#698,#699);
#604=AXIS2_PLACEMENT_3D('',#880,#702,#703);
#605=AXIS2_PLACEMENT_3D('',#881,#704,#705);
#606=AXIS2_PLACEMENT_3D('',#883,#706,#707);
#607=AXIS2_PLACEMENT_3D('',#886,#709,#710);
#608=AXIS2_PLACEMENT_3D('',#887,#711,#712);
#609=AXIS2_PLACEMENT_3D('',#888,#713,#714);
#610=AXIS2_PLACEMENT_3D('',#891,#715,#716);
#611=AXIS2_PLACEMENT_3D('',#895,#718,#719);
#612=AXIS2_PLACEMENT_3D('',#897,#721,#722);
#613=AXIS2_PLACEMENT_3D('',#904,#727,#728);
#614=AXIS2_PLACEMENT_3D('',#908,#730,#731);
#615=AXIS2_PLACEMENT_3D('',#911,#733,#734);
#616=AXIS2_PLACEMENT_3D('',#913,#735,#736);
#617=AXIS2_PLACEMENT_3D('',#915,#737,#738);
#618=AXIS2_PLACEMENT_3D('',#917,#739,#740);
#619=AXIS2_PLACEMENT_3D('',#918,#741,#742);
#620=AXIS2_PLACEMENT_3D('',#922,#744,#745);
#621=AXIS2_PLACEMENT_3D('',#924,#747,#748);
#622=AXIS2_PLACEMENT_3D('',#930,#752,#753);
#623=AXIS2_PLACEMENT_3D('',#932,#754,#755);
#624=AXIS2_PLACEMENT_3D('',#934,#757,#758);
#625=AXIS2_PLACEMENT_3D('',#937,#760,#761);
#626=AXIS2_PLACEMENT_3D('',#938,#762,#763);
#627=AXIS2_PLACEMENT_3D('',#940,#764,#765);
#628=AXIS2_PLACEMENT_3D('',#942,#766,#767);
#629=AXIS2_PLACEMENT_3D('',#943,#768,#769);
#630=AXIS2_PLACEMENT_3D('',#945,#771,#772);
#631=AXIS2_PLACEMENT_3D('',#948,#774,#775);
#632=AXIS2_PLACEMENT_3D('',#949,#776,#777);
#633=AXIS2_PLACEMENT_3D('',#951,#778,#779);
#634=AXIS2_PLACEMENT_3D('',#953,#780,#781);
#635=AXIS2_PLACEMENT_3D('',#954,#782,#783);
#636=AXIS2_PLACEMENT_3D('',#956,#785,#786);
#637=AXIS2_PLACEMENT_3D('',#959,#788,#789);
#638=AXIS2_PLACEMENT_3D('',#960,#790,#791);
#639=AXIS2_PLACEMENT_3D('',#962,#792,#793);
#640=AXIS2_PLACEMENT_3D('',#964,#794,#795);
#641=AXIS2_PLACEMENT_3D('',#965,#796,#797);
#642=AXIS2_PLACEMENT_3D('',#967,#799,#800);
#643=AXIS2_PLACEMENT_3D('',#970,#802,#803);
#644=AXIS2_PLACEMENT_3D('',#971,#804,#805);
#645=AXIS2_PLACEMENT_3D('',#973,#806,#807);
#646=AXIS2_PLACEMENT_3D('',#975,#808,#809);
#647=AXIS2_PLACEMENT_3D('',#976,#810,#811);
#648=AXIS2_PLACEMENT_3D('',#978,#813,#814);
#649=AXIS2_PLACEMENT_3D('',#981,#816,#817);
#650=AXIS2_PLACEMENT_3D('',#982,#818,#819);
#651=AXIS2_PLACEMENT_3D('',#984,#821,#822);
#652=AXIS2_PLACEMENT_3D('',#986,#824,#825);
#653=AXIS2_PLACEMENT_3D('',#988,#827,#828);
#654=DIRECTION('axis',(0.,0.,1.));
#655=DIRECTION('refdir',(1.,0.,0.));
#656=DIRECTION('center_axis',(-1.,0.,0.));
#657=DIRECTION('ref_axis',(0.,-1.,0.));
#658=DIRECTION('center_axis',(-1.,1.48029736616688E-16,0.));
#659=DIRECTION('ref_axis',(0.,-1.,0.));
#660=DIRECTION('',(-1.,0.,0.));
#661=DIRECTION('center_axis',(-1.,1.48029736616688E-16,0.));
#662=DIRECTION('ref_axis',(0.,-1.,0.));
#663=DIRECTION('center_axis',(1.,-1.48029736616688E-16,0.));
#664=DIRECTION('ref_axis',(0.,0.,-1.));
#665=DIRECTION('center_axis',(-1.,0.,0.));
#666=DIRECTION('ref_axis',(0.,-1.,0.));
#667=DIRECTION('center_axis',(-1.,1.48029736616688E-16,0.));
#668=DIRECTION('ref_axis',(0.,-1.,0.));
#669=DIRECTION('',(-1.,0.,0.));
#670=DIRECTION('center_axis',(-1.,1.48029736616688E-16,0.));
#671=DIRECTION('ref_axis',(0.,-1.,0.));
#672=DIRECTION('center_axis',(1.,-1.48029736616688E-16,0.));
#673=DIRECTION('ref_axis',(0.,0.,-1.));
#674=DIRECTION('center_axis',(0.,-0.707106781186548,0.707106781186548));
#675=DIRECTION('ref_axis',(1.,0.,0.));
#676=DIRECTION('',(0.,-0.707106781186548,-0.707106781186548));
#677=DIRECTION('',(1.,0.,0.));
#678=DIRECTION('',(1.04672830578918E-16,0.707106781186548,0.707106781186548));
#679=DIRECTION('',(-1.,0.,0.));
#680=DIRECTION('center_axis',(0.,0.,1.));
#681=DIRECTION('ref_axis',(1.,0.,0.));
#682=DIRECTION('',(0.,1.,0.));
#683=DIRECTION('',(-1.,0.,0.));
#684=DIRECTION('',(1.48029736616688E-16,1.,0.));
#685=DIRECTION('center_axis',(0.,0.,-1.));
#686=DIRECTION('ref_axis',(0.707106781186547,0.707106781186547,0.));
#687=DIRECTION('',(-1.,0.,0.));
#688=DIRECTION('center_axis',(0.,0.,-1.));
#689=DIRECTION('ref_axis',(-0.707106781186547,0.707106781186547,0.));
#690=DIRECTION('',(0.,-1.,0.));
#691=DIRECTION('',(1.,0.,0.));
#692=DIRECTION('',(1.48029736616688E-16,1.,0.));
#693=DIRECTION('center_axis',(0.,0.707106781186548,0.707106781186548));
#694=DIRECTION('ref_axis',(1.,0.,0.));
#695=DIRECTION('',(0.,-0.707106781186548,0.707106781186548));
#696=DIRECTION('',(-1.,0.,0.));
#697=DIRECTION('',(1.04672830578918E-16,0.707106781186548,-0.707106781186548));
#698=DIRECTION('center_axis',(0.,1.33226762955019E-16,1.));
#699=DIRECTION('ref_axis',(0.,1.,-1.33226762955019E-16));
#700=DIRECTION('',(0.,-1.,1.33226762955019E-16));
#701=DIRECTION('',(0.,1.,-1.33226762955019E-16));
#702=DIRECTION('center_axis',(-1.,0.,0.));
#703=DIRECTION('ref_axis',(0.,0.,1.));
#704=DIRECTION('center_axis',(0.,0.,-1.));
#705=DIRECTION('ref_axis',(1.,0.,0.));
#706=DIRECTION('center_axis',(0.,0.,-1.));
#707=DIRECTION('ref_axis',(1.,0.,0.));
#708=DIRECTION('',(0.,0.,1.));
#709=DIRECTION('center_axis',(0.,0.,1.));
#710=DIRECTION('ref_axis',(1.,0.,0.));
#711=DIRECTION('center_axis',(0.,0.,-1.));
#712=DIRECTION('ref_axis',(1.,0.,0.));
#713=DIRECTION('center_axis',(0.,-1.,0.));
#714=DIRECTION('ref_axis',(-0.707106781186547,0.,0.707106781186547));
#715=DIRECTION('center_axis',(1.02716263700653E-33,1.,0.));
#716=DIRECTION('ref_axis',(-0.707106781186547,0.,0.707106781186547));
#717=DIRECTION('',(0.,1.,0.));
#718=DIRECTION('center_axis',(0.,-1.,0.));
#719=DIRECTION('ref_axis',(-0.707106781186547,0.,0.707106781186547));
#720=DIRECTION('',(0.,-1.,0.));
#721=DIRECTION('center_axis',(-1.,0.,0.));
#722=DIRECTION('ref_axis',(0.,-1.,0.));
#723=DIRECTION('',(0.,0.,1.));
#724=DIRECTION('',(0.,0.,1.));
#725=DIRECTION('',(0.,-1.,0.));
#726=DIRECTION('',(0.,0.,1.));
#727=DIRECTION('center_axis',(0.,1.,0.));
#728=DIRECTION('ref_axis',(-1.,0.,0.));
#729=DIRECTION('',(-1.,0.,0.));
#730=DIRECTION('center_axis',(0.,-1.,0.));
#731=DIRECTION('ref_axis',(0.707106781186547,-1.17756934401283E-16,0.707106781186547));
#732=DIRECTION('',(0.,0.,1.));
#733=DIRECTION('center_axis',(0.,-1.,0.));
#734=DIRECTION('ref_axis',(0.,0.,1.));
#735=DIRECTION('center_axis',(0.,-1.,0.));
#736=DIRECTION('ref_axis',(0.,0.,1.));
#737=DIRECTION('center_axis',(0.,-1.,0.));
#738=DIRECTION('ref_axis',(0.,0.,1.));
#739=DIRECTION('center_axis',(0.,-1.,0.));
#740=DIRECTION('ref_axis',(0.,0.,1.));
#741=DIRECTION('center_axis',(1.48029736616688E-16,1.,0.));
#742=DIRECTION('ref_axis',(0.707106781186547,-1.17756934401283E-16,0.707106781186547));
#743=DIRECTION('',(-1.48029736616688E-16,-1.,0.));
#744=DIRECTION('center_axis',(1.02716263700653E-33,1.,0.));
#745=DIRECTION('ref_axis',(0.707106781186547,-1.17756934401283E-16,0.707106781186547));
#746=DIRECTION('',(1.48029736616688E-16,1.,0.));
#747=DIRECTION('center_axis',(1.,-1.48029736616688E-16,0.));
#748=DIRECTION('ref_axis',(1.48029736616688E-16,1.,0.));
#749=DIRECTION('',(0.,0.,1.));
#750=DIRECTION('',(1.48029736616688E-16,1.,0.));
#751=DIRECTION('',(0.,0.,-1.));
#752=DIRECTION('center_axis',(0.,0.,1.));
#753=DIRECTION('ref_axis',(0.707106781186547,0.707106781186547,0.));
#754=DIRECTION('center_axis',(0.,0.,1.));
#755=DIRECTION('ref_axis',(0.707106781186547,0.707106781186547,0.));
#756=DIRECTION('',(0.,0.,1.));
#757=DIRECTION('center_axis',(0.,0.,1.));
#758=DIRECTION('ref_axis',(-0.707106781186547,0.707106781186547,0.));
#759=DIRECTION('',(0.,0.,-1.));
#760=DIRECTION('center_axis',(0.,0.,1.));
#761=DIRECTION('ref_axis',(-0.707106781186547,0.707106781186547,0.));
#762=DIRECTION('center_axis',(0.,-1.,0.));
#763=DIRECTION('ref_axis',(0.,0.,1.));
#764=DIRECTION('center_axis',(0.,-1.,0.));
#765=DIRECTION('ref_axis',(0.,0.,1.));
#766=DIRECTION('center_axis',(0.,-1.,0.));
#767=DIRECTION('ref_axis',(0.,0.,1.));
#768=DIRECTION('center_axis',(0.,-1.,0.));
#769=DIRECTION('ref_axis',(0.,0.,1.));
#770=DIRECTION('',(0.,-1.,0.));
#771=DIRECTION('center_axis',(0.,-1.,0.));
#772=DIRECTION('ref_axis',(0.,0.,1.));
#773=DIRECTION('',(0.,-1.,0.));
#774=DIRECTION('center_axis',(1.02716263700653E-33,1.,0.));
#775=DIRECTION('ref_axis',(0.,0.,1.));
#776=DIRECTION('center_axis',(0.,-1.,0.));
#777=DIRECTION('ref_axis',(0.,0.,1.));
#778=DIRECTION('center_axis',(0.,-1.,0.));
#779=DIRECTION('ref_axis',(0.,0.,1.));
#780=DIRECTION('center_axis',(0.,-1.,0.));
#781=DIRECTION('ref_axis',(0.,0.,1.));
#782=DIRECTION('center_axis',(0.,-1.,0.));
#783=DIRECTION('ref_axis',(0.,0.,1.));
#784=DIRECTION('',(0.,-1.,0.));
#785=DIRECTION('center_axis',(0.,-1.,0.));
#786=DIRECTION('ref_axis',(0.,0.,1.));
#787=DIRECTION('',(0.,-1.,0.));
#788=DIRECTION('center_axis',(1.02716263700653E-33,1.,0.));
#789=DIRECTION('ref_axis',(0.,0.,1.));
#790=DIRECTION('center_axis',(0.,-1.,0.));
#791=DIRECTION('ref_axis',(0.,0.,1.));
#792=DIRECTION('center_axis',(0.,-1.,0.));
#793=DIRECTION('ref_axis',(0.,0.,1.));
#794=DIRECTION('center_axis',(0.,-1.,0.));
#795=DIRECTION('ref_axis',(0.,0.,1.));
#796=DIRECTION('center_axis',(0.,-1.,0.));
#797=DIRECTION('ref_axis',(0.,0.,1.));
#798=DIRECTION('',(0.,-1.,0.));
#799=DIRECTION('center_axis',(0.,-1.,0.));
#800=DIRECTION('ref_axis',(0.,0.,1.));
#801=DIRECTION('',(0.,-1.,0.));
#802=DIRECTION('center_axis',(1.02716263700653E-33,1.,0.));
#803=DIRECTION('ref_axis',(0.,0.,1.));
#804=DIRECTION('center_axis',(0.,-1.,0.));
#805=DIRECTION('ref_axis',(0.,0.,1.));
#806=DIRECTION('center_axis',(0.,-1.,0.));
#807=DIRECTION('ref_axis',(0.,0.,1.));
#808=DIRECTION('center_axis',(0.,-1.,0.));
#809=DIRECTION('ref_axis',(0.,0.,1.));
#810=DIRECTION('center_axis',(0.,-1.,0.));
#811=DIRECTION('ref_axis',(0.,0.,1.));
#812=DIRECTION('',(0.,-1.,0.));
#813=DIRECTION('center_axis',(0.,-1.,0.));
#814=DIRECTION('ref_axis',(0.,0.,1.));
#815=DIRECTION('',(0.,-1.,0.));
#816=DIRECTION('center_axis',(1.02716263700653E-33,1.,0.));
#817=DIRECTION('ref_axis',(0.,0.,1.));
#818=DIRECTION('center_axis',(0.,0.,1.));
#819=DIRECTION('ref_axis',(1.,0.,0.));
#820=DIRECTION('',(1.,0.,0.));
#821=DIRECTION('center_axis',(0.,1.,0.));
#822=DIRECTION('ref_axis',(-1.,0.,0.));
#823=DIRECTION('',(-1.,0.,0.));
#824=DIRECTION('center_axis',(-1.02716263700653E-33,-1.,0.));
#825=DIRECTION('ref_axis',(1.,-1.02716263700653E-33,0.));
#826=DIRECTION('',(1.,-1.02716263700653E-33,0.));
#827=DIRECTION('center_axis',(0.,0.,1.));
#828=DIRECTION('ref_axis',(1.,0.,0.));
#829=CARTESIAN_POINT('',(0.,0.,0.));
#830=CARTESIAN_POINT('Origin',(60.,87.,5.));
#831=CARTESIAN_POINT('',(60.,88.35,5.));
#832=CARTESIAN_POINT('Origin',(60.,87.,5.));
#833=CARTESIAN_POINT('',(51.,88.35,5.));
#834=CARTESIAN_POINT('',(60.,88.35,5.));
#835=CARTESIAN_POINT('Origin',(51.,87.,5.));
#836=CARTESIAN_POINT('Origin',(51.,72.,5.));
#837=CARTESIAN_POINT('Origin',(60.,57.,5.));
#838=CARTESIAN_POINT('',(60.,58.35,5.));
#839=CARTESIAN_POINT('Origin',(60.,57.,5.));
#840=CARTESIAN_POINT('',(51.,58.35,5.));
#841=CARTESIAN_POINT('',(60.,58.35,5.));
#842=CARTESIAN_POINT('Origin',(51.,57.,5.));
#843=CARTESIAN_POINT('Origin',(51.,72.,5.));
#844=CARTESIAN_POINT('Origin',(45.,44.5,7.5));
#845=CARTESIAN_POINT('',(50.,47.,10.));
#846=CARTESIAN_POINT('',(50.,42.,5.));
#847=CARTESIAN_POINT('',(50.,51.375,14.375));
#848=CARTESIAN_POINT('',(60.,42.,5.));
#849=CARTESIAN_POINT('',(45.,42.,5.));
#850=CARTESIAN_POINT('',(60.,47.,10.));
#851=CARTESIAN_POINT('',(60.,31.5,-5.5));
#852=CARTESIAN_POINT('',(60.,47.,10.));
#853=CARTESIAN_POINT('Origin',(30.,60.,5.));
#854=CARTESIAN_POINT('',(50.,102.,5.));
#855=CARTESIAN_POINT('',(50.,66.,5.));
#856=CARTESIAN_POINT('',(60.,102.,5.));
#857=CARTESIAN_POINT('',(45.,102.,5.));
#858=CARTESIAN_POINT('',(60.,115.,5.));
#859=CARTESIAN_POINT('',(60.,-6.16297582203915E-32,5.));
#860=CARTESIAN_POINT('',(55.,120.,5.));
#861=CARTESIAN_POINT('Origin',(55.,115.,5.));
#862=CARTESIAN_POINT('',(5.,120.,5.));
#863=CARTESIAN_POINT('',(60.,120.,5.));
#864=CARTESIAN_POINT('',(0.,115.,5.));
#865=CARTESIAN_POINT('Origin',(5.,115.,5.));
#866=CARTESIAN_POINT('',(0.,5.,5.));
#867=CARTESIAN_POINT('',(0.,120.,5.));
#868=CARTESIAN_POINT('',(60.,5.,5.));
#869=CARTESIAN_POINT('',(45.,5.,5.));
#870=CARTESIAN_POINT('',(60.,-6.16297582203915E-32,5.));
#871=CARTESIAN_POINT('Origin',(45.,99.5,7.5));
#872=CARTESIAN_POINT('',(50.,97.,9.99999999999999));
#873=CARTESIAN_POINT('',(50.,92.625,14.375));
#874=CARTESIAN_POINT('',(60.,97.,9.99999999999999));
#875=CARTESIAN_POINT('',(60.,97.,9.99999999999999));
#876=CARTESIAN_POINT('',(60.,76.5,30.5));
#877=CARTESIAN_POINT('Origin',(60.,47.,10.));
#878=CARTESIAN_POINT('',(60.,97.,9.99999999999999));
#879=CARTESIAN_POINT('',(50.,97.,9.99999999999999));
#880=CARTESIAN_POINT('Origin',(50.,72.,7.5));
#881=CARTESIAN_POINT('Origin',(30.,72.,0.));
#882=CARTESIAN_POINT('',(27.1,72.,-5.));
#883=CARTESIAN_POINT('Origin',(30.,72.,-5.));
#884=CARTESIAN_POINT('',(27.1,72.,0.));
#885=CARTESIAN_POINT('',(27.1,72.,0.));
#886=CARTESIAN_POINT('Origin',(30.,72.,0.));
#887=CARTESIAN_POINT('Origin',(30.,72.,-5.));
#888=CARTESIAN_POINT('Origin',(5.,61.25,30.));
#889=CARTESIAN_POINT('',(0.,0.,30.));
#890=CARTESIAN_POINT('',(5.,0.,35.));
#891=CARTESIAN_POINT('Origin',(5.,0.,30.));
#892=CARTESIAN_POINT('',(5.,5.,35.));
#893=CARTESIAN_POINT('',(5.,61.25,35.));
#894=CARTESIAN_POINT('',(0.,5.,30.));
#895=CARTESIAN_POINT('Origin',(5.,5.,30.));
#896=CARTESIAN_POINT('',(0.,61.25,30.));
#897=CARTESIAN_POINT('Origin',(0.,120.,0.));
#898=CARTESIAN_POINT('',(0.,5.,5.));
#899=CARTESIAN_POINT('',(0.,115.,0.));
#900=CARTESIAN_POINT('',(0.,115.,0.));
#901=CARTESIAN_POINT('',(0.,0.,0.));
#902=CARTESIAN_POINT('',(0.,120.,0.));
#903=CARTESIAN_POINT('',(0.,0.,0.));
#904=CARTESIAN_POINT('Origin',(60.,5.,5.));
#905=CARTESIAN_POINT('',(55.,5.,35.));
#906=CARTESIAN_POINT('',(0.,5.,35.));
#907=CARTESIAN_POINT('',(60.,5.,30.));
#908=CARTESIAN_POINT('Origin',(55.,5.,30.));
#909=CARTESIAN_POINT('',(60.,5.,5.));
#910=CARTESIAN_POINT('',(55.,5.,27.));
#911=CARTESIAN_POINT('Origin',(55.,5.,30.));
#912=CARTESIAN_POINT('',(5.,5.,7.));
#913=CARTESIAN_POINT('Origin',(5.,5.,10.));
#914=CARTESIAN_POINT('',(55.,5.,7.));
#915=CARTESIAN_POINT('Origin',(55.,5.,10.));
#916=CARTESIAN_POINT('',(5.,5.,27.));
#917=CARTESIAN_POINT('Origin',(5.,5.,30.));
#918=CARTESIAN_POINT('Origin',(55.,1.25,30.));
#919=CARTESIAN_POINT('',(55.,0.,35.));
#920=CARTESIAN_POINT('',(55.,1.25,35.));
#921=CARTESIAN_POINT('',(60.,-6.16297582203915E-32,30.));
#922=CARTESIAN_POINT('Origin',(55.,-8.18789480661053E-15,30.));
#923=CARTESIAN_POINT('',(60.,1.25,30.));
#924=CARTESIAN_POINT('Origin',(60.,-6.16297582203915E-32,0.));
#925=CARTESIAN_POINT('',(60.,-6.16297582203915E-32,0.));
#926=CARTESIAN_POINT('',(60.,-6.16297582203915E-32,0.));
#927=CARTESIAN_POINT('',(60.,115.,0.));
#928=CARTESIAN_POINT('',(60.,-6.16297582203915E-32,0.));
#929=CARTESIAN_POINT('',(60.,115.,0.));
#930=CARTESIAN_POINT('Origin',(55.,115.,0.));
#931=CARTESIAN_POINT('',(55.,120.,0.));
#932=CARTESIAN_POINT('Origin',(55.,115.,0.));
#933=CARTESIAN_POINT('',(55.,120.,0.));
#934=CARTESIAN_POINT('Origin',(5.,115.,0.));
#935=CARTESIAN_POINT('',(5.,120.,0.));
#936=CARTESIAN_POINT('',(5.,120.,0.));
#937=CARTESIAN_POINT('Origin',(5.,115.,0.));
#938=CARTESIAN_POINT('Origin',(55.,1.8,30.));
#939=CARTESIAN_POINT('',(55.,1.8,27.));
#940=CARTESIAN_POINT('Origin',(55.,1.8,30.));
#941=CARTESIAN_POINT('',(55.,1.8,28.4));
#942=CARTESIAN_POINT('Origin',(55.,1.8,30.));
#943=CARTESIAN_POINT('Origin',(55.,3.4,30.));
#944=CARTESIAN_POINT('',(55.,3.4,27.));
#945=CARTESIAN_POINT('Origin',(55.,-5.,30.));
#946=CARTESIAN_POINT('',(55.,2.01265829698207E-49,28.4));
#947=CARTESIAN_POINT('',(55.,-5.,28.4));
#948=CARTESIAN_POINT('Origin',(55.,0.,30.));
#949=CARTESIAN_POINT('Origin',(5.,1.8,10.));
#950=CARTESIAN_POINT('',(5.,1.8,7.));
#951=CARTESIAN_POINT('Origin',(5.,1.8,10.));
#952=CARTESIAN_POINT('',(5.,1.8,8.4));
#953=CARTESIAN_POINT('Origin',(5.,1.8,10.));
#954=CARTESIAN_POINT('Origin',(5.,3.4,10.));
#955=CARTESIAN_POINT('',(5.,3.4,7.));
#956=CARTESIAN_POINT('Origin',(5.,-5.,10.));
#957=CARTESIAN_POINT('',(5.,2.01265829698207E-49,8.4));
#958=CARTESIAN_POINT('',(5.,-5.,8.4));
#959=CARTESIAN_POINT('Origin',(5.,0.,10.));
#960=CARTESIAN_POINT('Origin',(55.,1.8,10.));
#961=CARTESIAN_POINT('',(55.,1.8,7.));
#962=CARTESIAN_POINT('Origin',(55.,1.8,10.));
#963=CARTESIAN_POINT('',(55.,1.8,8.4));
#964=CARTESIAN_POINT('Origin',(55.,1.8,10.));
#965=CARTESIAN_POINT('Origin',(55.,3.4,10.));
#966=CARTESIAN_POINT('',(55.,3.4,7.));
#967=CARTESIAN_POINT('Origin',(55.,-5.,10.));
#968=CARTESIAN_POINT('',(55.,2.01265829698207E-49,8.4));
#969=CARTESIAN_POINT('',(55.,-5.,8.4));
#970=CARTESIAN_POINT('Origin',(55.,0.,10.));
#971=CARTESIAN_POINT('Origin',(5.,1.8,30.));
#972=CARTESIAN_POINT('',(5.,1.8,27.));
#973=CARTESIAN_POINT('Origin',(5.,1.8,30.));
#974=CARTESIAN_POINT('',(5.,1.8,28.4));
#975=CARTESIAN_POINT('Origin',(5.,1.8,30.));
#976=CARTESIAN_POINT('Origin',(5.,3.4,30.));
#977=CARTESIAN_POINT('',(5.,3.4,27.));
#978=CARTESIAN_POINT('Origin',(5.,-5.,30.));
#979=CARTESIAN_POINT('',(5.,2.01265829698207E-49,28.4));
#980=CARTESIAN_POINT('',(5.,-5.,28.4));
#981=CARTESIAN_POINT('Origin',(5.,0.,30.));
#982=CARTESIAN_POINT('Origin',(30.,2.5,35.));
#983=CARTESIAN_POINT('',(0.,0.,35.));
#984=CARTESIAN_POINT('Origin',(60.,120.,0.));
#985=CARTESIAN_POINT('',(60.,120.,0.));
#986=CARTESIAN_POINT('Origin',(0.,0.,0.));
#987=CARTESIAN_POINT('',(0.,0.,0.));
#988=CARTESIAN_POINT('Origin',(30.,60.,0.));
#989=UNCERTAINTY_MEASURE_WITH_UNIT(LENGTH_MEASURE(0.01),#993,
'DISTANCE_ACCURACY_VALUE',
'Maximum model space distance between geometric entities at asserted c
onnectivities');
#990=UNCERTAINTY_MEASURE_WITH_UNIT(LENGTH_MEASURE(0.01),#993,
'DISTANCE_ACCURACY_VALUE',
'Maximum model space distance between geometric entities at asserted c
onnectivities');
#991=(
GEOMETRIC_REPRESENTATION_CONTEXT(3)
GLOBAL_UNCERTAINTY_ASSIGNED_CONTEXT((#989))
GLOBAL_UNIT_ASSIGNED_CONTEXT((#993,#995,#996))
REPRESENTATION_CONTEXT('','3D')
);
#992=(
GEOMETRIC_REPRESENTATION_CONTEXT(3)
GLOBAL_UNCERTAINTY_ASSIGNED_CONTEXT((#990))
GLOBAL_UNIT_ASSIGNED_CONTEXT((#993,#995,#996))
REPRESENTATION_CONTEXT('','3D')
);
#993=(
LENGTH_UNIT()
NAMED_UNIT(*)
SI_UNIT(.MILLI.,.METRE.)
);
#994=(
LENGTH_UNIT()
NAMED_UNIT(*)
SI_UNIT($,.METRE.)
);
#995=(
NAMED_UNIT(*)
PLANE_ANGLE_UNIT()
SI_UNIT($,.RADIAN.)
);
#996=(
NAMED_UNIT(*)
SI_UNIT($,.STERADIAN.)
SOLID_ANGLE_UNIT()
);
#997=SHAPE_DEFINITION_REPRESENTATION(#998,#999);
#998=PRODUCT_DEFINITION_SHAPE('',$,#1001);
#999=SHAPE_REPRESENTATION('',(#589),#991);
#1000=PRODUCT_DEFINITION_CONTEXT('part definition',#1005,'design');
#1001=PRODUCT_DEFINITION('Gegenhalter','Gegenhalter v8',#1002,#1000);
#1002=PRODUCT_DEFINITION_FORMATION('',$,#1007);
#1003=PRODUCT_RELATED_PRODUCT_CATEGORY('Gegenhalter v8',
'Gegenhalter v8',(#1007));
#1004=APPLICATION_PROTOCOL_DEFINITION('international standard',
'automotive_design',2009,#1005);
#1005=APPLICATION_CONTEXT(
'Core Data for Automotive Mechanical Design Process');
#1006=PRODUCT_CONTEXT('part definition',#1005,'mechanical');
#1007=PRODUCT('Gegenhalter','Gegenhalter v8',$,(#1006));
#1008=PRESENTATION_STYLE_ASSIGNMENT((#1009));
#1009=SURFACE_STYLE_USAGE(.BOTH.,#1010);
#1010=SURFACE_SIDE_STYLE('',(#1011));
#1011=SURFACE_STYLE_FILL_AREA(#1012);
#1012=FILL_AREA_STYLE('Stahl - satiniert',(#1013));
#1013=FILL_AREA_STYLE_COLOUR('Stahl - satiniert',#1014);
#1014=COLOUR_RGB('Stahl - satiniert',0.627450980392157,0.627450980392157,
0.627450980392157);
ENDSEC;
END-ISO-10303-21;
