ISO-10303-21;
HEADER;
/* Generated by software containing ST-Developer
 * from STEP Tools, Inc. (www.steptools.com) 
 */

FILE_DESCRIPTION(
/* description */ (''),
/* implementation_level */ '2;1');

FILE_NAME(
/* name */ 'Strommesszangenhalter_Board.step',
/* time_stamp */ '2026-06-28T16:56:48+02:00',
/* author */ (''),
/* organization */ (''),
/* preprocessor_version */ 'ST-DEVELOPER v20.1',
/* originating_system */ 'Autodesk Translation Framework v15.8.0.0',
/* authorisation */ '');

FILE_SCHEMA (('AUTOMOTIVE_DESIGN { 1 0 10303 214 3 1 1 }'));
ENDSEC;

DATA;
#10=MECHANICAL_DESIGN_GEOMETRIC_PRESENTATION_REPRESENTATION('',(#13),#1119);
#11=SHAPE_REPRESENTATION_RELATIONSHIP('SRR','None',#1126,#12);
#12=ADVANCED_BREP_SHAPE_REPRESENTATION('',(#14),#1118);
#13=STYLED_ITEM('',(#1135),#14);
#14=MANIFOLD_SOLID_BREP('K\X\F6rper1',#659);
#15=FACE_BOUND('',#128,.T.);
#16=FACE_BOUND('',#129,.T.);
#17=FACE_BOUND('',#130,.T.);
#18=FACE_BOUND('',#131,.T.);
#19=FACE_BOUND('',#132,.T.);
#20=FACE_BOUND('',#133,.T.);
#21=FACE_BOUND('',#134,.T.);
#22=FACE_BOUND('',#135,.T.);
#23=FACE_BOUND('',#136,.T.);
#24=FACE_BOUND('',#137,.T.);
#25=FACE_BOUND('',#138,.T.);
#26=FACE_BOUND('',#139,.T.);
#27=FACE_BOUND('',#140,.T.);
#28=FACE_BOUND('',#141,.T.);
#29=FACE_BOUND('',#142,.T.);
#30=FACE_BOUND('',#143,.T.);
#31=FACE_BOUND('',#144,.T.);
#32=FACE_BOUND('',#145,.T.);
#33=FACE_BOUND('',#146,.T.);
#34=FACE_BOUND('',#147,.T.);
#35=FACE_BOUND('',#148,.T.);
#36=FACE_BOUND('',#149,.T.);
#37=FACE_BOUND('',#150,.T.);
#38=FACE_BOUND('',#151,.T.);
#39=FACE_BOUND('',#153,.T.);
#40=FACE_BOUND('',#154,.T.);
#41=FACE_BOUND('',#155,.T.);
#42=FACE_BOUND('',#156,.T.);
#43=FACE_BOUND('',#157,.T.);
#44=FACE_BOUND('',#158,.T.);
#45=FACE_BOUND('',#159,.T.);
#46=FACE_BOUND('',#160,.T.);
#47=FACE_BOUND('',#161,.T.);
#48=FACE_BOUND('',#162,.T.);
#49=FACE_BOUND('',#163,.T.);
#50=FACE_BOUND('',#164,.T.);
#51=FACE_BOUND('',#165,.T.);
#52=FACE_BOUND('',#166,.T.);
#53=FACE_BOUND('',#167,.T.);
#54=FACE_BOUND('',#168,.T.);
#55=FACE_BOUND('',#169,.T.);
#56=FACE_BOUND('',#170,.T.);
#57=FACE_BOUND('',#171,.T.);
#58=FACE_BOUND('',#172,.T.);
#59=FACE_BOUND('',#173,.T.);
#60=FACE_BOUND('',#174,.T.);
#61=FACE_BOUND('',#175,.T.);
#62=FACE_BOUND('',#176,.T.);
#63=PLANE('',#745);
#64=PLANE('',#746);
#65=PLANE('',#747);
#66=PLANE('',#748);
#67=PLANE('',#749);
#68=PLANE('',#750);
#69=FACE_OUTER_BOUND('',#99,.T.);
#70=FACE_OUTER_BOUND('',#100,.T.);
#71=FACE_OUTER_BOUND('',#101,.T.);
#72=FACE_OUTER_BOUND('',#102,.T.);
#73=FACE_OUTER_BOUND('',#103,.T.);
#74=FACE_OUTER_BOUND('',#104,.T.);
#75=FACE_OUTER_BOUND('',#105,.T.);
#76=FACE_OUTER_BOUND('',#106,.T.);
#77=FACE_OUTER_BOUND('',#107,.T.);
#78=FACE_OUTER_BOUND('',#108,.T.);
#79=FACE_OUTER_BOUND('',#109,.T.);
#80=FACE_OUTER_BOUND('',#110,.T.);
#81=FACE_OUTER_BOUND('',#111,.T.);
#82=FACE_OUTER_BOUND('',#112,.T.);
#83=FACE_OUTER_BOUND('',#113,.T.);
#84=FACE_OUTER_BOUND('',#114,.T.);
#85=FACE_OUTER_BOUND('',#115,.T.);
#86=FACE_OUTER_BOUND('',#116,.T.);
#87=FACE_OUTER_BOUND('',#117,.T.);
#88=FACE_OUTER_BOUND('',#118,.T.);
#89=FACE_OUTER_BOUND('',#119,.T.);
#90=FACE_OUTER_BOUND('',#120,.T.);
#91=FACE_OUTER_BOUND('',#121,.T.);
#92=FACE_OUTER_BOUND('',#122,.T.);
#93=FACE_OUTER_BOUND('',#123,.T.);
#94=FACE_OUTER_BOUND('',#124,.T.);
#95=FACE_OUTER_BOUND('',#125,.T.);
#96=FACE_OUTER_BOUND('',#126,.T.);
#97=FACE_OUTER_BOUND('',#127,.T.);
#98=FACE_OUTER_BOUND('',#152,.T.);
#99=EDGE_LOOP('',(#437,#438,#439,#440));
#100=EDGE_LOOP('',(#441,#442,#443,#444));
#101=EDGE_LOOP('',(#445,#446,#447,#448));
#102=EDGE_LOOP('',(#449,#450,#451,#452));
#103=EDGE_LOOP('',(#453,#454,#455,#456));
#104=EDGE_LOOP('',(#457,#458,#459,#460));
#105=EDGE_LOOP('',(#461,#462,#463,#464));
#106=EDGE_LOOP('',(#465,#466,#467,#468));
#107=EDGE_LOOP('',(#469,#470,#471,#472));
#108=EDGE_LOOP('',(#473,#474,#475,#476));
#109=EDGE_LOOP('',(#477,#478,#479,#480));
#110=EDGE_LOOP('',(#481,#482,#483,#484));
#111=EDGE_LOOP('',(#485,#486,#487,#488));
#112=EDGE_LOOP('',(#489,#490,#491,#492));
#113=EDGE_LOOP('',(#493,#494,#495,#496));
#114=EDGE_LOOP('',(#497,#498,#499,#500));
#115=EDGE_LOOP('',(#501,#502,#503,#504));
#116=EDGE_LOOP('',(#505,#506,#507,#508));
#117=EDGE_LOOP('',(#509,#510,#511,#512));
#118=EDGE_LOOP('',(#513,#514,#515,#516));
#119=EDGE_LOOP('',(#517,#518,#519,#520));
#120=EDGE_LOOP('',(#521,#522,#523,#524));
#121=EDGE_LOOP('',(#525,#526,#527,#528));
#122=EDGE_LOOP('',(#529,#530,#531,#532));
#123=EDGE_LOOP('',(#533,#534,#535,#536));
#124=EDGE_LOOP('',(#537,#538,#539,#540));
#125=EDGE_LOOP('',(#541,#542,#543,#544));
#126=EDGE_LOOP('',(#545,#546,#547,#548));
#127=EDGE_LOOP('',(#549,#550,#551,#552));
#128=EDGE_LOOP('',(#553));
#129=EDGE_LOOP('',(#554));
#130=EDGE_LOOP('',(#555));
#131=EDGE_LOOP('',(#556));
#132=EDGE_LOOP('',(#557));
#133=EDGE_LOOP('',(#558));
#134=EDGE_LOOP('',(#559));
#135=EDGE_LOOP('',(#560));
#136=EDGE_LOOP('',(#561));
#137=EDGE_LOOP('',(#562));
#138=EDGE_LOOP('',(#563));
#139=EDGE_LOOP('',(#564));
#140=EDGE_LOOP('',(#565));
#141=EDGE_LOOP('',(#566));
#142=EDGE_LOOP('',(#567));
#143=EDGE_LOOP('',(#568));
#144=EDGE_LOOP('',(#569));
#145=EDGE_LOOP('',(#570));
#146=EDGE_LOOP('',(#571));
#147=EDGE_LOOP('',(#572));
#148=EDGE_LOOP('',(#573));
#149=EDGE_LOOP('',(#574));
#150=EDGE_LOOP('',(#575));
#151=EDGE_LOOP('',(#576));
#152=EDGE_LOOP('',(#577,#578,#579,#580));
#153=EDGE_LOOP('',(#581));
#154=EDGE_LOOP('',(#582));
#155=EDGE_LOOP('',(#583));
#156=EDGE_LOOP('',(#584));
#157=EDGE_LOOP('',(#585));
#158=EDGE_LOOP('',(#586));
#159=EDGE_LOOP('',(#587));
#160=EDGE_LOOP('',(#588));
#161=EDGE_LOOP('',(#589));
#162=EDGE_LOOP('',(#590));
#163=EDGE_LOOP('',(#591));
#164=EDGE_LOOP('',(#592));
#165=EDGE_LOOP('',(#593));
#166=EDGE_LOOP('',(#594));
#167=EDGE_LOOP('',(#595));
#168=EDGE_LOOP('',(#596));
#169=EDGE_LOOP('',(#597));
#170=EDGE_LOOP('',(#598));
#171=EDGE_LOOP('',(#599));
#172=EDGE_LOOP('',(#600));
#173=EDGE_LOOP('',(#601));
#174=EDGE_LOOP('',(#602));
#175=EDGE_LOOP('',(#603));
#176=EDGE_LOOP('',(#604));
#177=LINE('',#950,#213);
#178=LINE('',#956,#214);
#179=LINE('',#962,#215);
#180=LINE('',#968,#216);
#181=LINE('',#974,#217);
#182=LINE('',#980,#218);
#183=LINE('',#986,#219);
#184=LINE('',#992,#220);
#185=LINE('',#998,#221);
#186=LINE('',#1004,#222);
#187=LINE('',#1010,#223);
#188=LINE('',#1016,#224);
#189=LINE('',#1022,#225);
#190=LINE('',#1028,#226);
#191=LINE('',#1034,#227);
#192=LINE('',#1040,#228);
#193=LINE('',#1046,#229);
#194=LINE('',#1052,#230);
#195=LINE('',#1058,#231);
#196=LINE('',#1064,#232);
#197=LINE('',#1070,#233);
#198=LINE('',#1076,#234);
#199=LINE('',#1082,#235);
#200=LINE('',#1088,#236);
#201=LINE('',#1093,#237);
#202=LINE('',#1095,#238);
#203=LINE('',#1097,#239);
#204=LINE('',#1098,#240);
#205=LINE('',#1101,#241);
#206=LINE('',#1103,#242);
#207=LINE('',#1104,#243);
#208=LINE('',#1107,#244);
#209=LINE('',#1109,#245);
#210=LINE('',#1110,#246);
#211=LINE('',#1112,#247);
#212=LINE('',#1113,#248);
#213=VECTOR('',#757,1.6);
#214=VECTOR('',#764,2.5);
#215=VECTOR('',#771,2.5);
#216=VECTOR('',#778,1.6);
#217=VECTOR('',#785,2.5);
#218=VECTOR('',#792,1.6);
#219=VECTOR('',#799,6.);
#220=VECTOR('',#806,6.);
#221=VECTOR('',#813,2.);
#222=VECTOR('',#820,1.99999999999999);
#223=VECTOR('',#827,6.);
#224=VECTOR('',#834,2.);
#225=VECTOR('',#841,1.99999999999999);
#226=VECTOR('',#848,6.);
#227=VECTOR('',#855,6.);
#228=VECTOR('',#862,1.99999999999999);
#229=VECTOR('',#869,1.99999999999999);
#230=VECTOR('',#876,6.00000000000001);
#231=VECTOR('',#883,1.6);
#232=VECTOR('',#890,2.5);
#233=VECTOR('',#897,2.5);
#234=VECTOR('',#904,1.6);
#235=VECTOR('',#911,1.6);
#236=VECTOR('',#918,2.5);
#237=VECTOR('',#923,10.);
#238=VECTOR('',#924,10.);
#239=VECTOR('',#925,10.);
#240=VECTOR('',#926,10.);
#241=VECTOR('',#929,10.);
#242=VECTOR('',#930,10.);
#243=VECTOR('',#931,10.);
#244=VECTOR('',#934,10.);
#245=VECTOR('',#935,10.);
#246=VECTOR('',#936,10.);
#247=VECTOR('',#939,10.);
#248=VECTOR('',#940,10.);
#249=CIRCLE('',#674,1.6);
#250=CIRCLE('',#675,1.6);
#251=CIRCLE('',#677,2.5);
#252=CIRCLE('',#678,2.5);
#253=CIRCLE('',#680,2.5);
#254=CIRCLE('',#681,2.5);
#255=CIRCLE('',#683,1.6);
#256=CIRCLE('',#684,1.6);
#257=CIRCLE('',#686,2.5);
#258=CIRCLE('',#687,2.5);
#259=CIRCLE('',#689,1.6);
#260=CIRCLE('',#690,1.6);
#261=CIRCLE('',#692,6.);
#262=CIRCLE('',#693,6.);
#263=CIRCLE('',#695,6.);
#264=CIRCLE('',#696,6.);
#265=CIRCLE('',#698,2.);
#266=CIRCLE('',#699,2.);
#267=CIRCLE('',#701,1.99999999999999);
#268=CIRCLE('',#702,1.99999999999999);
#269=CIRCLE('',#704,6.);
#270=CIRCLE('',#705,6.);
#271=CIRCLE('',#707,2.);
#272=CIRCLE('',#708,2.);
#273=CIRCLE('',#710,1.99999999999999);
#274=CIRCLE('',#711,1.99999999999999);
#275=CIRCLE('',#713,6.);
#276=CIRCLE('',#714,6.);
#277=CIRCLE('',#716,6.);
#278=CIRCLE('',#717,6.);
#279=CIRCLE('',#719,1.99999999999999);
#280=CIRCLE('',#720,1.99999999999999);
#281=CIRCLE('',#722,1.99999999999999);
#282=CIRCLE('',#723,1.99999999999999);
#283=CIRCLE('',#725,6.00000000000001);
#284=CIRCLE('',#726,6.00000000000001);
#285=CIRCLE('',#728,1.6);
#286=CIRCLE('',#729,1.6);
#287=CIRCLE('',#731,2.5);
#288=CIRCLE('',#732,2.5);
#289=CIRCLE('',#734,2.5);
#290=CIRCLE('',#735,2.5);
#291=CIRCLE('',#737,1.6);
#292=CIRCLE('',#738,1.6);
#293=CIRCLE('',#740,1.6);
#294=CIRCLE('',#741,1.6);
#295=CIRCLE('',#743,2.5);
#296=CIRCLE('',#744,2.5);
#297=VERTEX_POINT('',#947);
#298=VERTEX_POINT('',#949);
#299=VERTEX_POINT('',#953);
#300=VERTEX_POINT('',#955);
#301=VERTEX_POINT('',#959);
#302=VERTEX_POINT('',#961);
#303=VERTEX_POINT('',#965);
#304=VERTEX_POINT('',#967);
#305=VERTEX_POINT('',#971);
#306=VERTEX_POINT('',#973);
#307=VERTEX_POINT('',#977);
#308=VERTEX_POINT('',#979);
#309=VERTEX_POINT('',#983);
#310=VERTEX_POINT('',#985);
#311=VERTEX_POINT('',#989);
#312=VERTEX_POINT('',#991);
#313=VERTEX_POINT('',#995);
#314=VERTEX_POINT('',#997);
#315=VERTEX_POINT('',#1001);
#316=VERTEX_POINT('',#1003);
#317=VERTEX_POINT('',#1007);
#318=VERTEX_POINT('',#1009);
#319=VERTEX_POINT('',#1013);
#320=VERTEX_POINT('',#1015);
#321=VERTEX_POINT('',#1019);
#322=VERTEX_POINT('',#1021);
#323=VERTEX_POINT('',#1025);
#324=VERTEX_POINT('',#1027);
#325=VERTEX_POINT('',#1031);
#326=VERTEX_POINT('',#1033);
#327=VERTEX_POINT('',#1037);
#328=VERTEX_POINT('',#1039);
#329=VERTEX_POINT('',#1043);
#330=VERTEX_POINT('',#1045);
#331=VERTEX_POINT('',#1049);
#332=VERTEX_POINT('',#1051);
#333=VERTEX_POINT('',#1055);
#334=VERTEX_POINT('',#1057);
#335=VERTEX_POINT('',#1061);
#336=VERTEX_POINT('',#1063);
#337=VERTEX_POINT('',#1067);
#338=VERTEX_POINT('',#1069);
#339=VERTEX_POINT('',#1073);
#340=VERTEX_POINT('',#1075);
#341=VERTEX_POINT('',#1079);
#342=VERTEX_POINT('',#1081);
#343=VERTEX_POINT('',#1085);
#344=VERTEX_POINT('',#1087);
#345=VERTEX_POINT('',#1091);
#346=VERTEX_POINT('',#1092);
#347=VERTEX_POINT('',#1094);
#348=VERTEX_POINT('',#1096);
#349=VERTEX_POINT('',#1100);
#350=VERTEX_POINT('',#1102);
#351=VERTEX_POINT('',#1106);
#352=VERTEX_POINT('',#1108);
#353=EDGE_CURVE('',#297,#297,#249,.T.);
#354=EDGE_CURVE('',#297,#298,#177,.T.);
#355=EDGE_CURVE('',#298,#298,#250,.T.);
#356=EDGE_CURVE('',#299,#299,#251,.T.);
#357=EDGE_CURVE('',#299,#300,#178,.T.);
#358=EDGE_CURVE('',#300,#300,#252,.T.);
#359=EDGE_CURVE('',#301,#301,#253,.T.);
#360=EDGE_CURVE('',#301,#302,#179,.T.);
#361=EDGE_CURVE('',#302,#302,#254,.T.);
#362=EDGE_CURVE('',#303,#303,#255,.T.);
#363=EDGE_CURVE('',#303,#304,#180,.T.);
#364=EDGE_CURVE('',#304,#304,#256,.T.);
#365=EDGE_CURVE('',#305,#305,#257,.T.);
#366=EDGE_CURVE('',#305,#306,#181,.T.);
#367=EDGE_CURVE('',#306,#306,#258,.T.);
#368=EDGE_CURVE('',#307,#307,#259,.T.);
#369=EDGE_CURVE('',#307,#308,#182,.T.);
#370=EDGE_CURVE('',#308,#308,#260,.T.);
#371=EDGE_CURVE('',#309,#309,#261,.T.);
#372=EDGE_CURVE('',#309,#310,#183,.T.);
#373=EDGE_CURVE('',#310,#310,#262,.T.);
#374=EDGE_CURVE('',#311,#311,#263,.T.);
#375=EDGE_CURVE('',#311,#312,#184,.T.);
#376=EDGE_CURVE('',#312,#312,#264,.T.);
#377=EDGE_CURVE('',#313,#313,#265,.T.);
#378=EDGE_CURVE('',#313,#314,#185,.T.);
#379=EDGE_CURVE('',#314,#314,#266,.T.);
#380=EDGE_CURVE('',#315,#315,#267,.T.);
#381=EDGE_CURVE('',#315,#316,#186,.T.);
#382=EDGE_CURVE('',#316,#316,#268,.T.);
#383=EDGE_CURVE('',#317,#317,#269,.T.);
#384=EDGE_CURVE('',#317,#318,#187,.T.);
#385=EDGE_CURVE('',#318,#318,#270,.T.);
#386=EDGE_CURVE('',#319,#319,#271,.T.);
#387=EDGE_CURVE('',#319,#320,#188,.T.);
#388=EDGE_CURVE('',#320,#320,#272,.T.);
#389=EDGE_CURVE('',#321,#321,#273,.T.);
#390=EDGE_CURVE('',#321,#322,#189,.T.);
#391=EDGE_CURVE('',#322,#322,#274,.T.);
#392=EDGE_CURVE('',#323,#323,#275,.T.);
#393=EDGE_CURVE('',#323,#324,#190,.T.);
#394=EDGE_CURVE('',#324,#324,#276,.T.);
#395=EDGE_CURVE('',#325,#325,#277,.T.);
#396=EDGE_CURVE('',#325,#326,#191,.T.);
#397=EDGE_CURVE('',#326,#326,#278,.T.);
#398=EDGE_CURVE('',#327,#327,#279,.T.);
#399=EDGE_CURVE('',#327,#328,#192,.T.);
#400=EDGE_CURVE('',#328,#328,#280,.T.);
#401=EDGE_CURVE('',#329,#329,#281,.T.);
#402=EDGE_CURVE('',#329,#330,#193,.T.);
#403=EDGE_CURVE('',#330,#330,#282,.T.);
#404=EDGE_CURVE('',#331,#331,#283,.T.);
#405=EDGE_CURVE('',#331,#332,#194,.T.);
#406=EDGE_CURVE('',#332,#332,#284,.T.);
#407=EDGE_CURVE('',#333,#333,#285,.T.);
#408=EDGE_CURVE('',#333,#334,#195,.T.);
#409=EDGE_CURVE('',#334,#334,#286,.T.);
#410=EDGE_CURVE('',#335,#335,#287,.T.);
#411=EDGE_CURVE('',#335,#336,#196,.T.);
#412=EDGE_CURVE('',#336,#336,#288,.T.);
#413=EDGE_CURVE('',#337,#337,#289,.T.);
#414=EDGE_CURVE('',#337,#338,#197,.T.);
#415=EDGE_CURVE('',#338,#338,#290,.T.);
#416=EDGE_CURVE('',#339,#339,#291,.T.);
#417=EDGE_CURVE('',#339,#340,#198,.T.);
#418=EDGE_CURVE('',#340,#340,#292,.T.);
#419=EDGE_CURVE('',#341,#341,#293,.T.);
#420=EDGE_CURVE('',#341,#342,#199,.T.);
#421=EDGE_CURVE('',#342,#342,#294,.T.);
#422=EDGE_CURVE('',#343,#343,#295,.T.);
#423=EDGE_CURVE('',#343,#344,#200,.T.);
#424=EDGE_CURVE('',#344,#344,#296,.T.);
#425=EDGE_CURVE('',#345,#346,#201,.T.);
#426=EDGE_CURVE('',#346,#347,#202,.T.);
#427=EDGE_CURVE('',#348,#347,#203,.T.);
#428=EDGE_CURVE('',#345,#348,#204,.T.);
#429=EDGE_CURVE('',#349,#345,#205,.T.);
#430=EDGE_CURVE('',#350,#348,#206,.T.);
#431=EDGE_CURVE('',#349,#350,#207,.T.);
#432=EDGE_CURVE('',#351,#349,#208,.T.);
#433=EDGE_CURVE('',#352,#350,#209,.T.);
#434=EDGE_CURVE('',#351,#352,#210,.T.);
#435=EDGE_CURVE('',#346,#351,#211,.T.);
#436=EDGE_CURVE('',#347,#352,#212,.T.);
#437=ORIENTED_EDGE('',*,*,#353,.F.);
#438=ORIENTED_EDGE('',*,*,#354,.T.);
#439=ORIENTED_EDGE('',*,*,#355,.T.);
#440=ORIENTED_EDGE('',*,*,#354,.F.);
#441=ORIENTED_EDGE('',*,*,#356,.F.);
#442=ORIENTED_EDGE('',*,*,#357,.T.);
#443=ORIENTED_EDGE('',*,*,#358,.T.);
#444=ORIENTED_EDGE('',*,*,#357,.F.);
#445=ORIENTED_EDGE('',*,*,#359,.F.);
#446=ORIENTED_EDGE('',*,*,#360,.T.);
#447=ORIENTED_EDGE('',*,*,#361,.T.);
#448=ORIENTED_EDGE('',*,*,#360,.F.);
#449=ORIENTED_EDGE('',*,*,#362,.F.);
#450=ORIENTED_EDGE('',*,*,#363,.T.);
#451=ORIENTED_EDGE('',*,*,#364,.T.);
#452=ORIENTED_EDGE('',*,*,#363,.F.);
#453=ORIENTED_EDGE('',*,*,#365,.F.);
#454=ORIENTED_EDGE('',*,*,#366,.T.);
#455=ORIENTED_EDGE('',*,*,#367,.T.);
#456=ORIENTED_EDGE('',*,*,#366,.F.);
#457=ORIENTED_EDGE('',*,*,#368,.F.);
#458=ORIENTED_EDGE('',*,*,#369,.T.);
#459=ORIENTED_EDGE('',*,*,#370,.T.);
#460=ORIENTED_EDGE('',*,*,#369,.F.);
#461=ORIENTED_EDGE('',*,*,#371,.F.);
#462=ORIENTED_EDGE('',*,*,#372,.T.);
#463=ORIENTED_EDGE('',*,*,#373,.T.);
#464=ORIENTED_EDGE('',*,*,#372,.F.);
#465=ORIENTED_EDGE('',*,*,#374,.F.);
#466=ORIENTED_EDGE('',*,*,#375,.T.);
#467=ORIENTED_EDGE('',*,*,#376,.T.);
#468=ORIENTED_EDGE('',*,*,#375,.F.);
#469=ORIENTED_EDGE('',*,*,#377,.F.);
#470=ORIENTED_EDGE('',*,*,#378,.T.);
#471=ORIENTED_EDGE('',*,*,#379,.T.);
#472=ORIENTED_EDGE('',*,*,#378,.F.);
#473=ORIENTED_EDGE('',*,*,#380,.F.);
#474=ORIENTED_EDGE('',*,*,#381,.T.);
#475=ORIENTED_EDGE('',*,*,#382,.T.);
#476=ORIENTED_EDGE('',*,*,#381,.F.);
#477=ORIENTED_EDGE('',*,*,#383,.F.);
#478=ORIENTED_EDGE('',*,*,#384,.T.);
#479=ORIENTED_EDGE('',*,*,#385,.T.);
#480=ORIENTED_EDGE('',*,*,#384,.F.);
#481=ORIENTED_EDGE('',*,*,#386,.F.);
#482=ORIENTED_EDGE('',*,*,#387,.T.);
#483=ORIENTED_EDGE('',*,*,#388,.T.);
#484=ORIENTED_EDGE('',*,*,#387,.F.);
#485=ORIENTED_EDGE('',*,*,#389,.F.);
#486=ORIENTED_EDGE('',*,*,#390,.T.);
#487=ORIENTED_EDGE('',*,*,#391,.T.);
#488=ORIENTED_EDGE('',*,*,#390,.F.);
#489=ORIENTED_EDGE('',*,*,#392,.F.);
#490=ORIENTED_EDGE('',*,*,#393,.T.);
#491=ORIENTED_EDGE('',*,*,#394,.T.);
#492=ORIENTED_EDGE('',*,*,#393,.F.);
#493=ORIENTED_EDGE('',*,*,#395,.F.);
#494=ORIENTED_EDGE('',*,*,#396,.T.);
#495=ORIENTED_EDGE('',*,*,#397,.T.);
#496=ORIENTED_EDGE('',*,*,#396,.F.);
#497=ORIENTED_EDGE('',*,*,#398,.F.);
#498=ORIENTED_EDGE('',*,*,#399,.T.);
#499=ORIENTED_EDGE('',*,*,#400,.T.);
#500=ORIENTED_EDGE('',*,*,#399,.F.);
#501=ORIENTED_EDGE('',*,*,#401,.F.);
#502=ORIENTED_EDGE('',*,*,#402,.T.);
#503=ORIENTED_EDGE('',*,*,#403,.T.);
#504=ORIENTED_EDGE('',*,*,#402,.F.);
#505=ORIENTED_EDGE('',*,*,#404,.F.);
#506=ORIENTED_EDGE('',*,*,#405,.T.);
#507=ORIENTED_EDGE('',*,*,#406,.T.);
#508=ORIENTED_EDGE('',*,*,#405,.F.);
#509=ORIENTED_EDGE('',*,*,#407,.F.);
#510=ORIENTED_EDGE('',*,*,#408,.T.);
#511=ORIENTED_EDGE('',*,*,#409,.T.);
#512=ORIENTED_EDGE('',*,*,#408,.F.);
#513=ORIENTED_EDGE('',*,*,#410,.F.);
#514=ORIENTED_EDGE('',*,*,#411,.T.);
#515=ORIENTED_EDGE('',*,*,#412,.T.);
#516=ORIENTED_EDGE('',*,*,#411,.F.);
#517=ORIENTED_EDGE('',*,*,#413,.F.);
#518=ORIENTED_EDGE('',*,*,#414,.T.);
#519=ORIENTED_EDGE('',*,*,#415,.T.);
#520=ORIENTED_EDGE('',*,*,#414,.F.);
#521=ORIENTED_EDGE('',*,*,#416,.F.);
#522=ORIENTED_EDGE('',*,*,#417,.T.);
#523=ORIENTED_EDGE('',*,*,#418,.T.);
#524=ORIENTED_EDGE('',*,*,#417,.F.);
#525=ORIENTED_EDGE('',*,*,#419,.F.);
#526=ORIENTED_EDGE('',*,*,#420,.T.);
#527=ORIENTED_EDGE('',*,*,#421,.T.);
#528=ORIENTED_EDGE('',*,*,#420,.F.);
#529=ORIENTED_EDGE('',*,*,#422,.F.);
#530=ORIENTED_EDGE('',*,*,#423,.T.);
#531=ORIENTED_EDGE('',*,*,#424,.T.);
#532=ORIENTED_EDGE('',*,*,#423,.F.);
#533=ORIENTED_EDGE('',*,*,#425,.T.);
#534=ORIENTED_EDGE('',*,*,#426,.T.);
#535=ORIENTED_EDGE('',*,*,#427,.F.);
#536=ORIENTED_EDGE('',*,*,#428,.F.);
#537=ORIENTED_EDGE('',*,*,#429,.T.);
#538=ORIENTED_EDGE('',*,*,#428,.T.);
#539=ORIENTED_EDGE('',*,*,#430,.F.);
#540=ORIENTED_EDGE('',*,*,#431,.F.);
#541=ORIENTED_EDGE('',*,*,#432,.T.);
#542=ORIENTED_EDGE('',*,*,#431,.T.);
#543=ORIENTED_EDGE('',*,*,#433,.F.);
#544=ORIENTED_EDGE('',*,*,#434,.F.);
#545=ORIENTED_EDGE('',*,*,#435,.T.);
#546=ORIENTED_EDGE('',*,*,#434,.T.);
#547=ORIENTED_EDGE('',*,*,#436,.F.);
#548=ORIENTED_EDGE('',*,*,#426,.F.);
#549=ORIENTED_EDGE('',*,*,#436,.T.);
#550=ORIENTED_EDGE('',*,*,#433,.T.);
#551=ORIENTED_EDGE('',*,*,#430,.T.);
#552=ORIENTED_EDGE('',*,*,#427,.T.);
#553=ORIENTED_EDGE('',*,*,#422,.T.);
#554=ORIENTED_EDGE('',*,*,#419,.T.);
#555=ORIENTED_EDGE('',*,*,#416,.T.);
#556=ORIENTED_EDGE('',*,*,#413,.T.);
#557=ORIENTED_EDGE('',*,*,#410,.T.);
#558=ORIENTED_EDGE('',*,*,#407,.T.);
#559=ORIENTED_EDGE('',*,*,#404,.T.);
#560=ORIENTED_EDGE('',*,*,#401,.T.);
#561=ORIENTED_EDGE('',*,*,#398,.T.);
#562=ORIENTED_EDGE('',*,*,#395,.T.);
#563=ORIENTED_EDGE('',*,*,#392,.T.);
#564=ORIENTED_EDGE('',*,*,#389,.T.);
#565=ORIENTED_EDGE('',*,*,#386,.T.);
#566=ORIENTED_EDGE('',*,*,#383,.T.);
#567=ORIENTED_EDGE('',*,*,#380,.T.);
#568=ORIENTED_EDGE('',*,*,#377,.T.);
#569=ORIENTED_EDGE('',*,*,#374,.T.);
#570=ORIENTED_EDGE('',*,*,#371,.T.);
#571=ORIENTED_EDGE('',*,*,#368,.T.);
#572=ORIENTED_EDGE('',*,*,#365,.T.);
#573=ORIENTED_EDGE('',*,*,#362,.T.);
#574=ORIENTED_EDGE('',*,*,#359,.T.);
#575=ORIENTED_EDGE('',*,*,#356,.T.);
#576=ORIENTED_EDGE('',*,*,#353,.T.);
#577=ORIENTED_EDGE('',*,*,#435,.F.);
#578=ORIENTED_EDGE('',*,*,#425,.F.);
#579=ORIENTED_EDGE('',*,*,#429,.F.);
#580=ORIENTED_EDGE('',*,*,#432,.F.);
#581=ORIENTED_EDGE('',*,*,#424,.F.);
#582=ORIENTED_EDGE('',*,*,#421,.F.);
#583=ORIENTED_EDGE('',*,*,#418,.F.);
#584=ORIENTED_EDGE('',*,*,#415,.F.);
#585=ORIENTED_EDGE('',*,*,#412,.F.);
#586=ORIENTED_EDGE('',*,*,#409,.F.);
#587=ORIENTED_EDGE('',*,*,#406,.F.);
#588=ORIENTED_EDGE('',*,*,#403,.F.);
#589=ORIENTED_EDGE('',*,*,#400,.F.);
#590=ORIENTED_EDGE('',*,*,#397,.F.);
#591=ORIENTED_EDGE('',*,*,#394,.F.);
#592=ORIENTED_EDGE('',*,*,#391,.F.);
#593=ORIENTED_EDGE('',*,*,#388,.F.);
#594=ORIENTED_EDGE('',*,*,#385,.F.);
#595=ORIENTED_EDGE('',*,*,#382,.F.);
#596=ORIENTED_EDGE('',*,*,#379,.F.);
#597=ORIENTED_EDGE('',*,*,#376,.F.);
#598=ORIENTED_EDGE('',*,*,#373,.F.);
#599=ORIENTED_EDGE('',*,*,#370,.F.);
#600=ORIENTED_EDGE('',*,*,#367,.F.);
#601=ORIENTED_EDGE('',*,*,#364,.F.);
#602=ORIENTED_EDGE('',*,*,#361,.F.);
#603=ORIENTED_EDGE('',*,*,#358,.F.);
#604=ORIENTED_EDGE('',*,*,#355,.F.);
#605=CYLINDRICAL_SURFACE('',#673,1.6);
#606=CYLINDRICAL_SURFACE('',#676,2.5);
#607=CYLINDRICAL_SURFACE('',#679,2.5);
#608=CYLINDRICAL_SURFACE('',#682,1.6);
#609=CYLINDRICAL_SURFACE('',#685,2.5);
#610=CYLINDRICAL_SURFACE('',#688,1.6);
#611=CYLINDRICAL_SURFACE('',#691,6.);
#612=CYLINDRICAL_SURFACE('',#694,6.);
#613=CYLINDRICAL_SURFACE('',#697,2.);
#614=CYLINDRICAL_SURFACE('',#700,1.99999999999999);
#615=CYLINDRICAL_SURFACE('',#703,6.);
#616=CYLINDRICAL_SURFACE('',#706,2.);
#617=CYLINDRICAL_SURFACE('',#709,1.99999999999999);
#618=CYLINDRICAL_SURFACE('',#712,6.);
#619=CYLINDRICAL_SURFACE('',#715,6.);
#620=CYLINDRICAL_SURFACE('',#718,1.99999999999999);
#621=CYLINDRICAL_SURFACE('',#721,1.99999999999999);
#622=CYLINDRICAL_SURFACE('',#724,6.00000000000001);
#623=CYLINDRICAL_SURFACE('',#727,1.6);
#624=CYLINDRICAL_SURFACE('',#730,2.5);
#625=CYLINDRICAL_SURFACE('',#733,2.5);
#626=CYLINDRICAL_SURFACE('',#736,1.6);
#627=CYLINDRICAL_SURFACE('',#739,1.6);
#628=CYLINDRICAL_SURFACE('',#742,2.5);
#629=ADVANCED_FACE('',(#69),#605,.F.);
#630=ADVANCED_FACE('',(#70),#606,.F.);
#631=ADVANCED_FACE('',(#71),#607,.F.);
#632=ADVANCED_FACE('',(#72),#608,.F.);
#633=ADVANCED_FACE('',(#73),#609,.F.);
#634=ADVANCED_FACE('',(#74),#610,.F.);
#635=ADVANCED_FACE('',(#75),#611,.F.);
#636=ADVANCED_FACE('',(#76),#612,.F.);
#637=ADVANCED_FACE('',(#77),#613,.F.);
#638=ADVANCED_FACE('',(#78),#614,.F.);
#639=ADVANCED_FACE('',(#79),#615,.F.);
#640=ADVANCED_FACE('',(#80),#616,.F.);
#641=ADVANCED_FACE('',(#81),#617,.F.);
#642=ADVANCED_FACE('',(#82),#618,.F.);
#643=ADVANCED_FACE('',(#83),#619,.F.);
#644=ADVANCED_FACE('',(#84),#620,.F.);
#645=ADVANCED_FACE('',(#85),#621,.F.);
#646=ADVANCED_FACE('',(#86),#622,.F.);
#647=ADVANCED_FACE('',(#87),#623,.F.);
#648=ADVANCED_FACE('',(#88),#624,.F.);
#649=ADVANCED_FACE('',(#89),#625,.F.);
#650=ADVANCED_FACE('',(#90),#626,.F.);
#651=ADVANCED_FACE('',(#91),#627,.F.);
#652=ADVANCED_FACE('',(#92),#628,.F.);
#653=ADVANCED_FACE('',(#93),#63,.T.);
#654=ADVANCED_FACE('',(#94),#64,.T.);
#655=ADVANCED_FACE('',(#95),#65,.T.);
#656=ADVANCED_FACE('',(#96),#66,.T.);
#657=ADVANCED_FACE('',(#97,#15,#16,#17,#18,#19,#20,#21,#22,#23,#24,#25,
#26,#27,#28,#29,#30,#31,#32,#33,#34,#35,#36,#37,#38),#67,.T.);
#658=ADVANCED_FACE('',(#98,#39,#40,#41,#42,#43,#44,#45,#46,#47,#48,#49,
#50,#51,#52,#53,#54,#55,#56,#57,#58,#59,#60,#61,#62),#68,.F.);
#659=CLOSED_SHELL('',(#629,#630,#631,#632,#633,#634,#635,#636,#637,#638,
#639,#640,#641,#642,#643,#644,#645,#646,#647,#648,#649,#650,#651,#652,#653,
#654,#655,#656,#657,#658));
#660=DERIVED_UNIT_ELEMENT(#662,1.);
#661=DERIVED_UNIT_ELEMENT(#1121,-3.);
#662=(
MASS_UNIT()
NAMED_UNIT(*)
SI_UNIT(.KILO.,.GRAM.)
);
#663=DERIVED_UNIT((#660,#661));
#664=MEASURE_REPRESENTATION_ITEM('density measure',
POSITIVE_RATIO_MEASURE(7850.),#663);
#665=PROPERTY_DEFINITION_REPRESENTATION(#670,#667);
#666=PROPERTY_DEFINITION_REPRESENTATION(#671,#668);
#667=REPRESENTATION('material name',(#669),#1118);
#668=REPRESENTATION('density',(#664),#1118);
#669=DESCRIPTIVE_REPRESENTATION_ITEM('Stahl','Stahl');
#670=PROPERTY_DEFINITION('material property','material name',#1128);
#671=PROPERTY_DEFINITION('material property','density of part',#1128);
#672=AXIS2_PLACEMENT_3D('',#945,#751,#752);
#673=AXIS2_PLACEMENT_3D('',#946,#753,#754);
#674=AXIS2_PLACEMENT_3D('',#948,#755,#756);
#675=AXIS2_PLACEMENT_3D('',#951,#758,#759);
#676=AXIS2_PLACEMENT_3D('',#952,#760,#761);
#677=AXIS2_PLACEMENT_3D('',#954,#762,#763);
#678=AXIS2_PLACEMENT_3D('',#957,#765,#766);
#679=AXIS2_PLACEMENT_3D('',#958,#767,#768);
#680=AXIS2_PLACEMENT_3D('',#960,#769,#770);
#681=AXIS2_PLACEMENT_3D('',#963,#772,#773);
#682=AXIS2_PLACEMENT_3D('',#964,#774,#775);
#683=AXIS2_PLACEMENT_3D('',#966,#776,#777);
#684=AXIS2_PLACEMENT_3D('',#969,#779,#780);
#685=AXIS2_PLACEMENT_3D('',#970,#781,#782);
#686=AXIS2_PLACEMENT_3D('',#972,#783,#784);
#687=AXIS2_PLACEMENT_3D('',#975,#786,#787);
#688=AXIS2_PLACEMENT_3D('',#976,#788,#789);
#689=AXIS2_PLACEMENT_3D('',#978,#790,#791);
#690=AXIS2_PLACEMENT_3D('',#981,#793,#794);
#691=AXIS2_PLACEMENT_3D('',#982,#795,#796);
#692=AXIS2_PLACEMENT_3D('',#984,#797,#798);
#693=AXIS2_PLACEMENT_3D('',#987,#800,#801);
#694=AXIS2_PLACEMENT_3D('',#988,#802,#803);
#695=AXIS2_PLACEMENT_3D('',#990,#804,#805);
#696=AXIS2_PLACEMENT_3D('',#993,#807,#808);
#697=AXIS2_PLACEMENT_3D('',#994,#809,#810);
#698=AXIS2_PLACEMENT_3D('',#996,#811,#812);
#699=AXIS2_PLACEMENT_3D('',#999,#814,#815);
#700=AXIS2_PLACEMENT_3D('',#1000,#816,#817);
#701=AXIS2_PLACEMENT_3D('',#1002,#818,#819);
#702=AXIS2_PLACEMENT_3D('',#1005,#821,#822);
#703=AXIS2_PLACEMENT_3D('',#1006,#823,#824);
#704=AXIS2_PLACEMENT_3D('',#1008,#825,#826);
#705=AXIS2_PLACEMENT_3D('',#1011,#828,#829);
#706=AXIS2_PLACEMENT_3D('',#1012,#830,#831);
#707=AXIS2_PLACEMENT_3D('',#1014,#832,#833);
#708=AXIS2_PLACEMENT_3D('',#1017,#835,#836);
#709=AXIS2_PLACEMENT_3D('',#1018,#837,#838);
#710=AXIS2_PLACEMENT_3D('',#1020,#839,#840);
#711=AXIS2_PLACEMENT_3D('',#1023,#842,#843);
#712=AXIS2_PLACEMENT_3D('',#1024,#844,#845);
#713=AXIS2_PLACEMENT_3D('',#1026,#846,#847);
#714=AXIS2_PLACEMENT_3D('',#1029,#849,#850);
#715=AXIS2_PLACEMENT_3D('',#1030,#851,#852);
#716=AXIS2_PLACEMENT_3D('',#1032,#853,#854);
#717=AXIS2_PLACEMENT_3D('',#1035,#856,#857);
#718=AXIS2_PLACEMENT_3D('',#1036,#858,#859);
#719=AXIS2_PLACEMENT_3D('',#1038,#860,#861);
#720=AXIS2_PLACEMENT_3D('',#1041,#863,#864);
#721=AXIS2_PLACEMENT_3D('',#1042,#865,#866);
#722=AXIS2_PLACEMENT_3D('',#1044,#867,#868);
#723=AXIS2_PLACEMENT_3D('',#1047,#870,#871);
#724=AXIS2_PLACEMENT_3D('',#1048,#872,#873);
#725=AXIS2_PLACEMENT_3D('',#1050,#874,#875);
#726=AXIS2_PLACEMENT_3D('',#1053,#877,#878);
#727=AXIS2_PLACEMENT_3D('',#1054,#879,#880);
#728=AXIS2_PLACEMENT_3D('',#1056,#881,#882);
#729=AXIS2_PLACEMENT_3D('',#1059,#884,#885);
#730=AXIS2_PLACEMENT_3D('',#1060,#886,#887);
#731=AXIS2_PLACEMENT_3D('',#1062,#888,#889);
#732=AXIS2_PLACEMENT_3D('',#1065,#891,#892);
#733=AXIS2_PLACEMENT_3D('',#1066,#893,#894);
#734=AXIS2_PLACEMENT_3D('',#1068,#895,#896);
#735=AXIS2_PLACEMENT_3D('',#1071,#898,#899);
#736=AXIS2_PLACEMENT_3D('',#1072,#900,#901);
#737=AXIS2_PLACEMENT_3D('',#1074,#902,#903);
#738=AXIS2_PLACEMENT_3D('',#1077,#905,#906);
#739=AXIS2_PLACEMENT_3D('',#1078,#907,#908);
#740=AXIS2_PLACEMENT_3D('',#1080,#909,#910);
#741=AXIS2_PLACEMENT_3D('',#1083,#912,#913);
#742=AXIS2_PLACEMENT_3D('',#1084,#914,#915);
#743=AXIS2_PLACEMENT_3D('',#1086,#916,#917);
#744=AXIS2_PLACEMENT_3D('',#1089,#919,#920);
#745=AXIS2_PLACEMENT_3D('',#1090,#921,#922);
#746=AXIS2_PLACEMENT_3D('',#1099,#927,#928);
#747=AXIS2_PLACEMENT_3D('',#1105,#932,#933);
#748=AXIS2_PLACEMENT_3D('',#1111,#937,#938);
#749=AXIS2_PLACEMENT_3D('',#1114,#941,#942);
#750=AXIS2_PLACEMENT_3D('',#1115,#943,#944);
#751=DIRECTION('axis',(0.,0.,1.));
#752=DIRECTION('refdir',(1.,0.,0.));
#753=DIRECTION('center_axis',(0.,0.,1.));
#754=DIRECTION('ref_axis',(1.,0.,0.));
#755=DIRECTION('center_axis',(0.,0.,-1.));
#756=DIRECTION('ref_axis',(1.,0.,0.));
#757=DIRECTION('',(0.,0.,-1.));
#758=DIRECTION('center_axis',(0.,0.,-1.));
#759=DIRECTION('ref_axis',(1.,0.,0.));
#760=DIRECTION('center_axis',(0.,0.,1.));
#761=DIRECTION('ref_axis',(1.,0.,0.));
#762=DIRECTION('center_axis',(0.,0.,-1.));
#763=DIRECTION('ref_axis',(1.,0.,0.));
#764=DIRECTION('',(0.,0.,-1.));
#765=DIRECTION('center_axis',(0.,0.,-1.));
#766=DIRECTION('ref_axis',(1.,0.,0.));
#767=DIRECTION('center_axis',(0.,0.,1.));
#768=DIRECTION('ref_axis',(1.,0.,0.));
#769=DIRECTION('center_axis',(0.,0.,-1.));
#770=DIRECTION('ref_axis',(1.,0.,0.));
#771=DIRECTION('',(0.,0.,-1.));
#772=DIRECTION('center_axis',(0.,0.,-1.));
#773=DIRECTION('ref_axis',(1.,0.,0.));
#774=DIRECTION('center_axis',(0.,0.,1.));
#775=DIRECTION('ref_axis',(1.,0.,0.));
#776=DIRECTION('center_axis',(0.,0.,-1.));
#777=DIRECTION('ref_axis',(1.,0.,0.));
#778=DIRECTION('',(0.,0.,-1.));
#779=DIRECTION('center_axis',(0.,0.,-1.));
#780=DIRECTION('ref_axis',(1.,0.,0.));
#781=DIRECTION('center_axis',(0.,0.,1.));
#782=DIRECTION('ref_axis',(1.,0.,0.));
#783=DIRECTION('center_axis',(0.,0.,-1.));
#784=DIRECTION('ref_axis',(1.,0.,0.));
#785=DIRECTION('',(0.,0.,-1.));
#786=DIRECTION('center_axis',(0.,0.,-1.));
#787=DIRECTION('ref_axis',(1.,0.,0.));
#788=DIRECTION('center_axis',(0.,0.,1.));
#789=DIRECTION('ref_axis',(1.,0.,0.));
#790=DIRECTION('center_axis',(0.,0.,-1.));
#791=DIRECTION('ref_axis',(1.,0.,0.));
#792=DIRECTION('',(0.,0.,-1.));
#793=DIRECTION('center_axis',(0.,0.,-1.));
#794=DIRECTION('ref_axis',(1.,0.,0.));
#795=DIRECTION('center_axis',(0.,0.,1.));
#796=DIRECTION('ref_axis',(1.,0.,0.));
#797=DIRECTION('center_axis',(0.,0.,-1.));
#798=DIRECTION('ref_axis',(1.,0.,0.));
#799=DIRECTION('',(0.,0.,-1.));
#800=DIRECTION('center_axis',(0.,0.,-1.));
#801=DIRECTION('ref_axis',(1.,0.,0.));
#802=DIRECTION('center_axis',(0.,0.,1.));
#803=DIRECTION('ref_axis',(1.,0.,0.));
#804=DIRECTION('center_axis',(0.,0.,-1.));
#805=DIRECTION('ref_axis',(1.,0.,0.));
#806=DIRECTION('',(0.,0.,-1.));
#807=DIRECTION('center_axis',(0.,0.,-1.));
#808=DIRECTION('ref_axis',(1.,0.,0.));
#809=DIRECTION('center_axis',(0.,0.,1.));
#810=DIRECTION('ref_axis',(1.,0.,0.));
#811=DIRECTION('center_axis',(0.,0.,-1.));
#812=DIRECTION('ref_axis',(1.,0.,0.));
#813=DIRECTION('',(0.,0.,-1.));
#814=DIRECTION('center_axis',(0.,0.,-1.));
#815=DIRECTION('ref_axis',(1.,0.,0.));
#816=DIRECTION('center_axis',(0.,0.,1.));
#817=DIRECTION('ref_axis',(1.,0.,0.));
#818=DIRECTION('center_axis',(0.,0.,-1.));
#819=DIRECTION('ref_axis',(1.,0.,0.));
#820=DIRECTION('',(0.,0.,-1.));
#821=DIRECTION('center_axis',(0.,0.,-1.));
#822=DIRECTION('ref_axis',(1.,0.,0.));
#823=DIRECTION('center_axis',(0.,0.,1.));
#824=DIRECTION('ref_axis',(1.,0.,0.));
#825=DIRECTION('center_axis',(0.,0.,-1.));
#826=DIRECTION('ref_axis',(1.,0.,0.));
#827=DIRECTION('',(0.,0.,-1.));
#828=DIRECTION('center_axis',(0.,0.,-1.));
#829=DIRECTION('ref_axis',(1.,0.,0.));
#830=DIRECTION('center_axis',(0.,0.,1.));
#831=DIRECTION('ref_axis',(1.,0.,0.));
#832=DIRECTION('center_axis',(0.,0.,-1.));
#833=DIRECTION('ref_axis',(1.,0.,0.));
#834=DIRECTION('',(0.,0.,-1.));
#835=DIRECTION('center_axis',(0.,0.,-1.));
#836=DIRECTION('ref_axis',(1.,0.,0.));
#837=DIRECTION('center_axis',(0.,0.,1.));
#838=DIRECTION('ref_axis',(1.,0.,0.));
#839=DIRECTION('center_axis',(0.,0.,-1.));
#840=DIRECTION('ref_axis',(1.,0.,0.));
#841=DIRECTION('',(0.,0.,-1.));
#842=DIRECTION('center_axis',(0.,0.,-1.));
#843=DIRECTION('ref_axis',(1.,0.,0.));
#844=DIRECTION('center_axis',(0.,0.,1.));
#845=DIRECTION('ref_axis',(1.,0.,0.));
#846=DIRECTION('center_axis',(0.,0.,-1.));
#847=DIRECTION('ref_axis',(1.,0.,0.));
#848=DIRECTION('',(0.,0.,-1.));
#849=DIRECTION('center_axis',(0.,0.,-1.));
#850=DIRECTION('ref_axis',(1.,0.,0.));
#851=DIRECTION('center_axis',(0.,0.,1.));
#852=DIRECTION('ref_axis',(1.,0.,0.));
#853=DIRECTION('center_axis',(0.,0.,-1.));
#854=DIRECTION('ref_axis',(1.,0.,0.));
#855=DIRECTION('',(0.,0.,-1.));
#856=DIRECTION('center_axis',(0.,0.,-1.));
#857=DIRECTION('ref_axis',(1.,0.,0.));
#858=DIRECTION('center_axis',(0.,0.,1.));
#859=DIRECTION('ref_axis',(1.,0.,0.));
#860=DIRECTION('center_axis',(0.,0.,-1.));
#861=DIRECTION('ref_axis',(1.,0.,0.));
#862=DIRECTION('',(0.,0.,-1.));
#863=DIRECTION('center_axis',(0.,0.,-1.));
#864=DIRECTION('ref_axis',(1.,0.,0.));
#865=DIRECTION('center_axis',(0.,0.,1.));
#866=DIRECTION('ref_axis',(1.,0.,0.));
#867=DIRECTION('center_axis',(0.,0.,-1.));
#868=DIRECTION('ref_axis',(1.,0.,0.));
#869=DIRECTION('',(0.,0.,-1.));
#870=DIRECTION('center_axis',(0.,0.,-1.));
#871=DIRECTION('ref_axis',(1.,0.,0.));
#872=DIRECTION('center_axis',(0.,0.,1.));
#873=DIRECTION('ref_axis',(1.,0.,0.));
#874=DIRECTION('center_axis',(0.,0.,-1.));
#875=DIRECTION('ref_axis',(1.,0.,0.));
#876=DIRECTION('',(0.,0.,-1.));
#877=DIRECTION('center_axis',(0.,0.,-1.));
#878=DIRECTION('ref_axis',(1.,0.,0.));
#879=DIRECTION('center_axis',(0.,0.,1.));
#880=DIRECTION('ref_axis',(1.,0.,0.));
#881=DIRECTION('center_axis',(0.,0.,-1.));
#882=DIRECTION('ref_axis',(1.,0.,0.));
#883=DIRECTION('',(0.,0.,-1.));
#884=DIRECTION('center_axis',(0.,0.,-1.));
#885=DIRECTION('ref_axis',(1.,0.,0.));
#886=DIRECTION('center_axis',(0.,0.,1.));
#887=DIRECTION('ref_axis',(1.,0.,0.));
#888=DIRECTION('center_axis',(0.,0.,-1.));
#889=DIRECTION('ref_axis',(1.,0.,0.));
#890=DIRECTION('',(0.,0.,-1.));
#891=DIRECTION('center_axis',(0.,0.,-1.));
#892=DIRECTION('ref_axis',(1.,0.,0.));
#893=DIRECTION('center_axis',(0.,0.,1.));
#894=DIRECTION('ref_axis',(1.,0.,0.));
#895=DIRECTION('center_axis',(0.,0.,-1.));
#896=DIRECTION('ref_axis',(1.,0.,0.));
#897=DIRECTION('',(0.,0.,-1.));
#898=DIRECTION('center_axis',(0.,0.,-1.));
#899=DIRECTION('ref_axis',(1.,0.,0.));
#900=DIRECTION('center_axis',(0.,0.,1.));
#901=DIRECTION('ref_axis',(1.,0.,0.));
#902=DIRECTION('center_axis',(0.,0.,-1.));
#903=DIRECTION('ref_axis',(1.,0.,0.));
#904=DIRECTION('',(0.,0.,-1.));
#905=DIRECTION('center_axis',(0.,0.,-1.));
#906=DIRECTION('ref_axis',(1.,0.,0.));
#907=DIRECTION('center_axis',(0.,0.,1.));
#908=DIRECTION('ref_axis',(1.,0.,0.));
#909=DIRECTION('center_axis',(0.,0.,-1.));
#910=DIRECTION('ref_axis',(1.,0.,0.));
#911=DIRECTION('',(0.,0.,-1.));
#912=DIRECTION('center_axis',(0.,0.,-1.));
#913=DIRECTION('ref_axis',(1.,0.,0.));
#914=DIRECTION('center_axis',(0.,0.,1.));
#915=DIRECTION('ref_axis',(1.,0.,0.));
#916=DIRECTION('center_axis',(0.,0.,-1.));
#917=DIRECTION('ref_axis',(1.,0.,0.));
#918=DIRECTION('',(0.,0.,-1.));
#919=DIRECTION('center_axis',(0.,0.,-1.));
#920=DIRECTION('ref_axis',(1.,0.,0.));
#921=DIRECTION('center_axis',(0.,1.,0.));
#922=DIRECTION('ref_axis',(-1.,0.,0.));
#923=DIRECTION('',(-1.,0.,0.));
#924=DIRECTION('',(0.,0.,1.));
#925=DIRECTION('',(-1.,0.,0.));
#926=DIRECTION('',(0.,0.,1.));
#927=DIRECTION('center_axis',(1.,0.,0.));
#928=DIRECTION('ref_axis',(0.,1.,0.));
#929=DIRECTION('',(0.,1.,0.));
#930=DIRECTION('',(0.,1.,0.));
#931=DIRECTION('',(0.,0.,1.));
#932=DIRECTION('center_axis',(0.,-1.,0.));
#933=DIRECTION('ref_axis',(1.,0.,0.));
#934=DIRECTION('',(1.,0.,0.));
#935=DIRECTION('',(1.,0.,0.));
#936=DIRECTION('',(0.,0.,1.));
#937=DIRECTION('center_axis',(-1.,0.,0.));
#938=DIRECTION('ref_axis',(0.,-1.,0.));
#939=DIRECTION('',(0.,-1.,0.));
#940=DIRECTION('',(0.,-1.,0.));
#941=DIRECTION('center_axis',(0.,0.,1.));
#942=DIRECTION('ref_axis',(1.,0.,0.));
#943=DIRECTION('center_axis',(0.,0.,1.));
#944=DIRECTION('ref_axis',(1.,0.,0.));
#945=CARTESIAN_POINT('',(0.,0.,0.));
#946=CARTESIAN_POINT('Origin',(78.5,55.,0.));
#947=CARTESIAN_POINT('',(76.9,55.,2.));
#948=CARTESIAN_POINT('Origin',(78.5,55.,2.));
#949=CARTESIAN_POINT('',(76.9,55.,0.));
#950=CARTESIAN_POINT('',(76.9,55.,0.));
#951=CARTESIAN_POINT('Origin',(78.5,55.,0.));
#952=CARTESIAN_POINT('Origin',(190.,55.,0.));
#953=CARTESIAN_POINT('',(187.5,55.,2.));
#954=CARTESIAN_POINT('Origin',(190.,55.,2.));
#955=CARTESIAN_POINT('',(187.5,55.,0.));
#956=CARTESIAN_POINT('',(187.5,55.,0.));
#957=CARTESIAN_POINT('Origin',(190.,55.,0.));
#958=CARTESIAN_POINT('Origin',(150.,55.,0.));
#959=CARTESIAN_POINT('',(147.5,55.,2.));
#960=CARTESIAN_POINT('Origin',(150.,55.,2.));
#961=CARTESIAN_POINT('',(147.5,55.,0.));
#962=CARTESIAN_POINT('',(147.5,55.,0.));
#963=CARTESIAN_POINT('Origin',(150.,55.,0.));
#964=CARTESIAN_POINT('Origin',(143.5,55.,0.));
#965=CARTESIAN_POINT('',(141.9,55.,2.));
#966=CARTESIAN_POINT('Origin',(143.5,55.,2.));
#967=CARTESIAN_POINT('',(141.9,55.,0.));
#968=CARTESIAN_POINT('',(141.9,55.,0.));
#969=CARTESIAN_POINT('Origin',(143.5,55.,0.));
#970=CARTESIAN_POINT('Origin',(20.,55.,0.));
#971=CARTESIAN_POINT('',(17.5,55.,2.));
#972=CARTESIAN_POINT('Origin',(20.,55.,2.));
#973=CARTESIAN_POINT('',(17.5,55.,0.));
#974=CARTESIAN_POINT('',(17.5,55.,0.));
#975=CARTESIAN_POINT('Origin',(20.,55.,0.));
#976=CARTESIAN_POINT('Origin',(66.5,55.,0.));
#977=CARTESIAN_POINT('',(64.9,55.,2.));
#978=CARTESIAN_POINT('Origin',(66.5,55.,2.));
#979=CARTESIAN_POINT('',(64.9,55.,0.));
#980=CARTESIAN_POINT('',(64.9,55.,0.));
#981=CARTESIAN_POINT('Origin',(66.5,55.,0.));
#982=CARTESIAN_POINT('Origin',(122.5,24.9999999999999,0.));
#983=CARTESIAN_POINT('',(116.5,24.9999999999999,2.));
#984=CARTESIAN_POINT('Origin',(122.5,24.9999999999999,2.));
#985=CARTESIAN_POINT('',(116.5,24.9999999999999,0.));
#986=CARTESIAN_POINT('',(116.5,24.9999999999999,0.));
#987=CARTESIAN_POINT('Origin',(122.5,24.9999999999999,0.));
#988=CARTESIAN_POINT('Origin',(152.5,25.,0.));
#989=CARTESIAN_POINT('',(146.5,25.,2.));
#990=CARTESIAN_POINT('Origin',(152.5,25.,2.));
#991=CARTESIAN_POINT('',(146.5,25.,0.));
#992=CARTESIAN_POINT('',(146.5,25.,0.));
#993=CARTESIAN_POINT('Origin',(152.5,25.,0.));
#994=CARTESIAN_POINT('Origin',(47.2023369885786,140.,0.));
#995=CARTESIAN_POINT('',(45.2023369885786,140.,2.));
#996=CARTESIAN_POINT('Origin',(47.2023369885786,140.,2.));
#997=CARTESIAN_POINT('',(45.2023369885786,140.,0.));
#998=CARTESIAN_POINT('',(45.2023369885786,140.,0.));
#999=CARTESIAN_POINT('Origin',(47.2023369885786,140.,0.));
#1000=CARTESIAN_POINT('Origin',(163.75,140.,0.));
#1001=CARTESIAN_POINT('',(161.75,140.,2.));
#1002=CARTESIAN_POINT('Origin',(163.75,140.,2.));
#1003=CARTESIAN_POINT('',(161.75,140.,0.));
#1004=CARTESIAN_POINT('',(161.75,140.,0.));
#1005=CARTESIAN_POINT('Origin',(163.75,140.,0.));
#1006=CARTESIAN_POINT('Origin',(57.5,24.9999999999999,0.));
#1007=CARTESIAN_POINT('',(51.5,24.9999999999999,2.));
#1008=CARTESIAN_POINT('Origin',(57.5,24.9999999999999,2.));
#1009=CARTESIAN_POINT('',(51.5,24.9999999999999,0.));
#1010=CARTESIAN_POINT('',(51.5,24.9999999999999,0.));
#1011=CARTESIAN_POINT('Origin',(57.5,24.9999999999999,0.));
#1012=CARTESIAN_POINT('Origin',(34.7023369885786,140.,0.));
#1013=CARTESIAN_POINT('',(32.7023369885786,140.,2.));
#1014=CARTESIAN_POINT('Origin',(34.7023369885786,140.,2.));
#1015=CARTESIAN_POINT('',(32.7023369885786,140.,0.));
#1016=CARTESIAN_POINT('',(32.7023369885786,140.,0.));
#1017=CARTESIAN_POINT('Origin',(34.7023369885786,140.,0.));
#1018=CARTESIAN_POINT('Origin',(98.75,140.,0.));
#1019=CARTESIAN_POINT('',(96.75,140.,2.));
#1020=CARTESIAN_POINT('Origin',(98.75,140.,2.));
#1021=CARTESIAN_POINT('',(96.75,140.,0.));
#1022=CARTESIAN_POINT('',(96.75,140.,0.));
#1023=CARTESIAN_POINT('Origin',(98.75,140.,0.));
#1024=CARTESIAN_POINT('Origin',(22.5,24.9999999999999,0.));
#1025=CARTESIAN_POINT('',(16.5,24.9999999999999,2.));
#1026=CARTESIAN_POINT('Origin',(22.5,24.9999999999999,2.));
#1027=CARTESIAN_POINT('',(16.5,24.9999999999999,0.));
#1028=CARTESIAN_POINT('',(16.5,24.9999999999999,0.));
#1029=CARTESIAN_POINT('Origin',(22.5,24.9999999999999,0.));
#1030=CARTESIAN_POINT('Origin',(87.5,24.9999999999999,0.));
#1031=CARTESIAN_POINT('',(81.5,24.9999999999999,2.));
#1032=CARTESIAN_POINT('Origin',(87.5,24.9999999999999,2.));
#1033=CARTESIAN_POINT('',(81.5,24.9999999999999,0.));
#1034=CARTESIAN_POINT('',(81.5,24.9999999999999,0.));
#1035=CARTESIAN_POINT('Origin',(87.5,24.9999999999999,0.));
#1036=CARTESIAN_POINT('Origin',(111.25,140.,0.));
#1037=CARTESIAN_POINT('',(109.25,140.,2.));
#1038=CARTESIAN_POINT('Origin',(111.25,140.,2.));
#1039=CARTESIAN_POINT('',(109.25,140.,0.));
#1040=CARTESIAN_POINT('',(109.25,140.,0.));
#1041=CARTESIAN_POINT('Origin',(111.25,140.,0.));
#1042=CARTESIAN_POINT('Origin',(176.25,140.,0.));
#1043=CARTESIAN_POINT('',(174.25,140.,2.));
#1044=CARTESIAN_POINT('Origin',(176.25,140.,2.));
#1045=CARTESIAN_POINT('',(174.25,140.,0.));
#1046=CARTESIAN_POINT('',(174.25,140.,0.));
#1047=CARTESIAN_POINT('Origin',(176.25,140.,0.));
#1048=CARTESIAN_POINT('Origin',(187.5,25.,0.));
#1049=CARTESIAN_POINT('',(181.5,25.,2.));
#1050=CARTESIAN_POINT('Origin',(187.5,25.,2.));
#1051=CARTESIAN_POINT('',(181.5,25.,0.));
#1052=CARTESIAN_POINT('',(181.5,25.,0.));
#1053=CARTESIAN_POINT('Origin',(187.5,25.,0.));
#1054=CARTESIAN_POINT('Origin',(196.5,55.,0.));
#1055=CARTESIAN_POINT('',(194.9,55.,2.));
#1056=CARTESIAN_POINT('Origin',(196.5,55.,2.));
#1057=CARTESIAN_POINT('',(194.9,55.,0.));
#1058=CARTESIAN_POINT('',(194.9,55.,0.));
#1059=CARTESIAN_POINT('Origin',(196.5,55.,0.));
#1060=CARTESIAN_POINT('Origin',(125.,55.,0.));
#1061=CARTESIAN_POINT('',(122.5,55.,2.));
#1062=CARTESIAN_POINT('Origin',(125.,55.,2.));
#1063=CARTESIAN_POINT('',(122.5,55.,0.));
#1064=CARTESIAN_POINT('',(122.5,55.,0.));
#1065=CARTESIAN_POINT('Origin',(125.,55.,0.));
#1066=CARTESIAN_POINT('Origin',(60.,55.,0.));
#1067=CARTESIAN_POINT('',(57.5,55.,2.));
#1068=CARTESIAN_POINT('Origin',(60.,55.,2.));
#1069=CARTESIAN_POINT('',(57.5,55.,0.));
#1070=CARTESIAN_POINT('',(57.5,55.,0.));
#1071=CARTESIAN_POINT('Origin',(60.,55.,0.));
#1072=CARTESIAN_POINT('Origin',(13.5,55.,0.));
#1073=CARTESIAN_POINT('',(11.9,55.,2.));
#1074=CARTESIAN_POINT('Origin',(13.5,55.,2.));
#1075=CARTESIAN_POINT('',(11.9,55.,0.));
#1076=CARTESIAN_POINT('',(11.9,55.,0.));
#1077=CARTESIAN_POINT('Origin',(13.5,55.,0.));
#1078=CARTESIAN_POINT('Origin',(131.5,55.,0.));
#1079=CARTESIAN_POINT('',(129.9,55.,2.));
#1080=CARTESIAN_POINT('Origin',(131.5,55.,2.));
#1081=CARTESIAN_POINT('',(129.9,55.,0.));
#1082=CARTESIAN_POINT('',(129.9,55.,0.));
#1083=CARTESIAN_POINT('Origin',(131.5,55.,0.));
#1084=CARTESIAN_POINT('Origin',(85.,55.,0.));
#1085=CARTESIAN_POINT('',(82.5,55.,2.));
#1086=CARTESIAN_POINT('Origin',(85.,55.,2.));
#1087=CARTESIAN_POINT('',(82.5,55.,0.));
#1088=CARTESIAN_POINT('',(82.5,55.,0.));
#1089=CARTESIAN_POINT('Origin',(85.,55.,0.));
#1090=CARTESIAN_POINT('Origin',(210.,297.,0.));
#1091=CARTESIAN_POINT('',(210.,297.,0.));
#1092=CARTESIAN_POINT('',(0.,297.,0.));
#1093=CARTESIAN_POINT('',(210.,297.,0.));
#1094=CARTESIAN_POINT('',(0.,297.,2.));
#1095=CARTESIAN_POINT('',(0.,297.,0.));
#1096=CARTESIAN_POINT('',(210.,297.,2.));
#1097=CARTESIAN_POINT('',(210.,297.,2.));
#1098=CARTESIAN_POINT('',(210.,297.,0.));
#1099=CARTESIAN_POINT('Origin',(210.,0.,0.));
#1100=CARTESIAN_POINT('',(210.,0.,0.));
#1101=CARTESIAN_POINT('',(210.,0.,0.));
#1102=CARTESIAN_POINT('',(210.,0.,2.));
#1103=CARTESIAN_POINT('',(210.,0.,2.));
#1104=CARTESIAN_POINT('',(210.,0.,0.));
#1105=CARTESIAN_POINT('Origin',(0.,0.,0.));
#1106=CARTESIAN_POINT('',(0.,0.,0.));
#1107=CARTESIAN_POINT('',(0.,0.,0.));
#1108=CARTESIAN_POINT('',(0.,0.,2.));
#1109=CARTESIAN_POINT('',(0.,0.,2.));
#1110=CARTESIAN_POINT('',(0.,0.,0.));
#1111=CARTESIAN_POINT('Origin',(0.,297.,0.));
#1112=CARTESIAN_POINT('',(0.,297.,0.));
#1113=CARTESIAN_POINT('',(0.,297.,2.));
#1114=CARTESIAN_POINT('Origin',(105.,148.5,2.));
#1115=CARTESIAN_POINT('Origin',(105.,148.5,0.));
#1116=UNCERTAINTY_MEASURE_WITH_UNIT(LENGTH_MEASURE(0.01),#1120,
'DISTANCE_ACCURACY_VALUE',
'Maximum model space distance between geometric entities at asserted c
onnectivities');
#1117=UNCERTAINTY_MEASURE_WITH_UNIT(LENGTH_MEASURE(0.01),#1120,
'DISTANCE_ACCURACY_VALUE',
'Maximum model space distance between geometric entities at asserted c
onnectivities');
#1118=(
GEOMETRIC_REPRESENTATION_CONTEXT(3)
GLOBAL_UNCERTAINTY_ASSIGNED_CONTEXT((#1116))
GLOBAL_UNIT_ASSIGNED_CONTEXT((#1120,#1122,#1123))
REPRESENTATION_CONTEXT('','3D')
);
#1119=(
GEOMETRIC_REPRESENTATION_CONTEXT(3)
GLOBAL_UNCERTAINTY_ASSIGNED_CONTEXT((#1117))
GLOBAL_UNIT_ASSIGNED_CONTEXT((#1120,#1122,#1123))
REPRESENTATION_CONTEXT('','3D')
);
#1120=(
LENGTH_UNIT()
NAMED_UNIT(*)
SI_UNIT(.MILLI.,.METRE.)
);
#1121=(
LENGTH_UNIT()
NAMED_UNIT(*)
SI_UNIT($,.METRE.)
);
#1122=(
NAMED_UNIT(*)
PLANE_ANGLE_UNIT()
SI_UNIT($,.RADIAN.)
);
#1123=(
NAMED_UNIT(*)
SI_UNIT($,.STERADIAN.)
SOLID_ANGLE_UNIT()
);
#1124=SHAPE_DEFINITION_REPRESENTATION(#1125,#1126);
#1125=PRODUCT_DEFINITION_SHAPE('',$,#1128);
#1126=SHAPE_REPRESENTATION('',(#672),#1118);
#1127=PRODUCT_DEFINITION_CONTEXT('part definition',#1132,'design');
#1128=PRODUCT_DEFINITION('Platte_Strommesszange',
'Platte_Strommesszange v9',#1129,#1127);
#1129=PRODUCT_DEFINITION_FORMATION('',$,#1134);
#1130=PRODUCT_RELATED_PRODUCT_CATEGORY('Platte_Strommesszange v9',
'Platte_Strommesszange v9',(#1134));
#1131=APPLICATION_PROTOCOL_DEFINITION('international standard',
'automotive_design',2009,#1132);
#1132=APPLICATION_CONTEXT(
'Core Data for Automotive Mechanical Design Process');
#1133=PRODUCT_CONTEXT('part definition',#1132,'mechanical');
#1134=PRODUCT('Platte_Strommesszange','Platte_Strommesszange v9',$,(#1133));
#1135=PRESENTATION_STYLE_ASSIGNMENT((#1136));
#1136=SURFACE_STYLE_USAGE(.BOTH.,#1137);
#1137=SURFACE_SIDE_STYLE('',(#1138));
#1138=SURFACE_STYLE_FILL_AREA(#1139);
#1139=FILL_AREA_STYLE('Stahl - satiniert',(#1140));
#1140=FILL_AREA_STYLE_COLOUR('Stahl - satiniert',#1141);
#1141=COLOUR_RGB('Stahl - satiniert',0.627450980392157,0.627450980392157,
0.627450980392157);
ENDSEC;
END-ISO-10303-21;
