ISO-10303-21;
HEADER;
/* Generated by software containing ST-Developer
 * from STEP Tools, Inc. (www.steptools.com) 
 */

FILE_DESCRIPTION(
/* description */ (''),
/* implementation_level */ '2;1');

FILE_NAME(
/* name */ 'Strommesszangenhalter_Biegevorrichtung.step',
/* time_stamp */ '2026-06-28T16:56:30+02:00',
/* author */ (''),
/* organization */ (''),
/* preprocessor_version */ 'ST-DEVELOPER v20.1',
/* originating_system */ 'Autodesk Translation Framework v15.8.0.0',
/* authorisation */ '');

FILE_SCHEMA (('AUTOMOTIVE_DESIGN { 1 0 10303 214 3 1 1 }'));
ENDSEC;

DATA;
#10=MECHANICAL_DESIGN_GEOMETRIC_PRESENTATION_REPRESENTATION('',(#13),#1843);
#11=SHAPE_REPRESENTATION_RELATIONSHIP('SRR','None',#1850,#12);
#12=ADVANCED_BREP_SHAPE_REPRESENTATION('',(#14),#1842);
#13=STYLED_ITEM('',(#1859),#14);
#14=MANIFOLD_SOLID_BREP('K\X\F6rper1',#1061);
#15=TOROIDAL_SURFACE('',#1094,10.95,0.95);
#16=TOROIDAL_SURFACE('',#1099,10.95,0.95);
#17=TOROIDAL_SURFACE('',#1107,10.95,0.95);
#18=TOROIDAL_SURFACE('',#1117,10.95,0.95);
#19=TOROIDAL_SURFACE('',#1125,10.95,0.95);
#20=TOROIDAL_SURFACE('',#1132,10.95,0.95);
#21=B_SPLINE_CURVE_WITH_KNOTS('',3,(#1506,#1507,#1508,#1509,#1510,#1511,
#1512,#1513,#1514,#1515),.UNSPECIFIED.,.F.,.F.,(4,2,2,2,4),(0.281976997266542,
0.317096390908391,0.352305724655998,0.387613517853138,0.422987550521368),
 .UNSPECIFIED.);
#22=B_SPLINE_CURVE_WITH_KNOTS('',3,(#1567,#1568,#1569,#1570,#1571,#1572,
#1573,#1574,#1575,#1576),.UNSPECIFIED.,.F.,.F.,(4,2,2,2,4),(0.140966444275633,
0.176340477137074,0.211648270463795,0.246857604246423,0.281976997837047),
 .UNSPECIFIED.);
#23=B_SPLINE_CURVE_WITH_KNOTS('',3,(#1594,#1595,#1596,#1597,#1598,#1599,
#1600,#1601,#1602,#1603),.UNSPECIFIED.,.F.,.F.,(4,2,2,2,4),(0.281976997266542,
0.317096390908391,0.352305724655998,0.387613517853138,0.422987550521368),
 .UNSPECIFIED.);
#24=B_SPLINE_CURVE_WITH_KNOTS('',3,(#1647,#1648,#1649,#1650,#1651,#1652,
#1653,#1654,#1655,#1656),.UNSPECIFIED.,.F.,.F.,(4,2,2,2,4),(0.140966444011717,
0.176340476679947,0.211648269877087,0.246857603624694,0.281976997266542),
 .UNSPECIFIED.);
#25=B_SPLINE_CURVE_WITH_KNOTS('',3,(#1679,#1680,#1681,#1682,#1683,#1684,
#1685,#1686,#1687,#1688),.UNSPECIFIED.,.F.,.F.,(4,2,2,2,4),(0.281976997837047,
0.317096391427671,0.352305725210299,0.38761351853702,0.422987551398461),
 .UNSPECIFIED.);
#26=B_SPLINE_CURVE_WITH_KNOTS('',3,(#1702,#1703,#1704,#1705,#1706,#1707,
#1708,#1709,#1710,#1711),.UNSPECIFIED.,.F.,.F.,(4,2,2,2,4),(0.140966444275633,
0.176340477137074,0.211648270463795,0.246857604246423,0.281976997837047),
 .UNSPECIFIED.);
#27=CYLINDRICAL_SURFACE('',#1079,10.);
#28=CYLINDRICAL_SURFACE('',#1086,10.);
#29=CYLINDRICAL_SURFACE('',#1091,0.95);
#30=CYLINDRICAL_SURFACE('',#1103,0.95);
#31=CYLINDRICAL_SURFACE('',#1110,0.95);
#32=CYLINDRICAL_SURFACE('',#1114,0.95);
#33=CYLINDRICAL_SURFACE('',#1122,0.95);
#34=CYLINDRICAL_SURFACE('',#1128,10.);
#35=CYLINDRICAL_SURFACE('',#1130,0.95);
#36=CYLINDRICAL_SURFACE('',#1158,10.);
#37=CYLINDRICAL_SURFACE('',#1159,10.);
#38=CYLINDRICAL_SURFACE('',#1161,10.);
#39=CYLINDRICAL_SURFACE('',#1162,10.);
#40=CYLINDRICAL_SURFACE('',#1164,10.);
#41=CYLINDRICAL_SURFACE('',#1165,10.);
#42=CYLINDRICAL_SURFACE('',#1167,10.);
#43=PLANE('',#1078);
#44=PLANE('',#1081);
#45=PLANE('',#1082);
#46=PLANE('',#1088);
#47=PLANE('',#1089);
#48=PLANE('',#1097);
#49=PLANE('',#1105);
#50=PLANE('',#1112);
#51=PLANE('',#1120);
#52=PLANE('',#1129);
#53=PLANE('',#1134);
#54=PLANE('',#1136);
#55=PLANE('',#1139);
#56=PLANE('',#1140);
#57=PLANE('',#1141);
#58=PLANE('',#1142);
#59=PLANE('',#1143);
#60=PLANE('',#1144);
#61=PLANE('',#1145);
#62=PLANE('',#1146);
#63=PLANE('',#1147);
#64=PLANE('',#1148);
#65=PLANE('',#1149);
#66=PLANE('',#1150);
#67=PLANE('',#1151);
#68=PLANE('',#1152);
#69=PLANE('',#1153);
#70=PLANE('',#1154);
#71=PLANE('',#1155);
#72=PLANE('',#1156);
#73=PLANE('',#1169);
#74=PLANE('',#1170);
#75=FACE_OUTER_BOUND('',#131,.T.);
#76=FACE_OUTER_BOUND('',#132,.T.);
#77=FACE_OUTER_BOUND('',#133,.T.);
#78=FACE_OUTER_BOUND('',#134,.T.);
#79=FACE_OUTER_BOUND('',#135,.T.);
#80=FACE_OUTER_BOUND('',#136,.T.);
#81=FACE_OUTER_BOUND('',#137,.T.);
#82=FACE_OUTER_BOUND('',#138,.T.);
#83=FACE_OUTER_BOUND('',#139,.T.);
#84=FACE_OUTER_BOUND('',#140,.T.);
#85=FACE_OUTER_BOUND('',#141,.T.);
#86=FACE_OUTER_BOUND('',#142,.T.);
#87=FACE_OUTER_BOUND('',#143,.T.);
#88=FACE_OUTER_BOUND('',#144,.T.);
#89=FACE_OUTER_BOUND('',#145,.T.);
#90=FACE_OUTER_BOUND('',#146,.T.);
#91=FACE_OUTER_BOUND('',#147,.T.);
#92=FACE_OUTER_BOUND('',#148,.T.);
#93=FACE_OUTER_BOUND('',#149,.T.);
#94=FACE_OUTER_BOUND('',#150,.T.);
#95=FACE_OUTER_BOUND('',#151,.T.);
#96=FACE_OUTER_BOUND('',#152,.T.);
#97=FACE_OUTER_BOUND('',#153,.T.);
#98=FACE_OUTER_BOUND('',#154,.T.);
#99=FACE_OUTER_BOUND('',#155,.T.);
#100=FACE_OUTER_BOUND('',#156,.T.);
#101=FACE_OUTER_BOUND('',#157,.T.);
#102=FACE_OUTER_BOUND('',#158,.T.);
#103=FACE_OUTER_BOUND('',#159,.T.);
#104=FACE_OUTER_BOUND('',#160,.T.);
#105=FACE_OUTER_BOUND('',#161,.T.);
#106=FACE_OUTER_BOUND('',#162,.T.);
#107=FACE_OUTER_BOUND('',#163,.T.);
#108=FACE_OUTER_BOUND('',#164,.T.);
#109=FACE_OUTER_BOUND('',#165,.T.);
#110=FACE_OUTER_BOUND('',#166,.T.);
#111=FACE_OUTER_BOUND('',#167,.T.);
#112=FACE_OUTER_BOUND('',#168,.T.);
#113=FACE_OUTER_BOUND('',#169,.T.);
#114=FACE_OUTER_BOUND('',#170,.T.);
#115=FACE_OUTER_BOUND('',#171,.T.);
#116=FACE_OUTER_BOUND('',#172,.T.);
#117=FACE_OUTER_BOUND('',#173,.T.);
#118=FACE_OUTER_BOUND('',#174,.T.);
#119=FACE_OUTER_BOUND('',#175,.T.);
#120=FACE_OUTER_BOUND('',#176,.T.);
#121=FACE_OUTER_BOUND('',#177,.T.);
#122=FACE_OUTER_BOUND('',#178,.T.);
#123=FACE_OUTER_BOUND('',#179,.T.);
#124=FACE_OUTER_BOUND('',#180,.T.);
#125=FACE_OUTER_BOUND('',#181,.T.);
#126=FACE_OUTER_BOUND('',#182,.T.);
#127=FACE_OUTER_BOUND('',#183,.T.);
#128=FACE_OUTER_BOUND('',#184,.T.);
#129=FACE_OUTER_BOUND('',#185,.T.);
#130=FACE_OUTER_BOUND('',#186,.T.);
#131=EDGE_LOOP('',(#695,#696,#697,#698));
#132=EDGE_LOOP('',(#699,#700,#701,#702));
#133=EDGE_LOOP('',(#703,#704,#705,#706));
#134=EDGE_LOOP('',(#707,#708,#709,#710,#711,#712,#713,#714));
#135=EDGE_LOOP('',(#715,#716,#717,#718));
#136=EDGE_LOOP('',(#719,#720,#721,#722));
#137=EDGE_LOOP('',(#723,#724,#725,#726));
#138=EDGE_LOOP('',(#727,#728,#729,#730));
#139=EDGE_LOOP('',(#731,#732,#733,#734,#735,#736,#737,#738));
#140=EDGE_LOOP('',(#739,#740,#741,#742));
#141=EDGE_LOOP('',(#743,#744,#745,#746));
#142=EDGE_LOOP('',(#747,#748,#749,#750,#751,#752));
#143=EDGE_LOOP('',(#753,#754,#755,#756));
#144=EDGE_LOOP('',(#757,#758,#759,#760));
#145=EDGE_LOOP('',(#761,#762,#763,#764,#765,#766));
#146=EDGE_LOOP('',(#767,#768,#769,#770));
#147=EDGE_LOOP('',(#771,#772,#773,#774));
#148=EDGE_LOOP('',(#775,#776,#777,#778,#779,#780));
#149=EDGE_LOOP('',(#781,#782,#783,#784));
#150=EDGE_LOOP('',(#785,#786,#787,#788));
#151=EDGE_LOOP('',(#789,#790,#791,#792,#793,#794));
#152=EDGE_LOOP('',(#795,#796,#797,#798));
#153=EDGE_LOOP('',(#799,#800,#801,#802));
#154=EDGE_LOOP('',(#803,#804,#805,#806));
#155=EDGE_LOOP('',(#807,#808,#809,#810));
#156=EDGE_LOOP('',(#811,#812,#813,#814));
#157=EDGE_LOOP('',(#815,#816,#817,#818));
#158=EDGE_LOOP('',(#819,#820,#821,#822,#823,#824));
#159=EDGE_LOOP('',(#825,#826,#827,#828,#829,#830,#831,#832,#833,#834,#835,
#836,#837,#838,#839,#840,#841,#842,#843,#844));
#160=EDGE_LOOP('',(#845,#846,#847,#848,#849,#850,#851,#852));
#161=EDGE_LOOP('',(#853,#854,#855,#856));
#162=EDGE_LOOP('',(#857,#858,#859,#860));
#163=EDGE_LOOP('',(#861,#862,#863,#864,#865,#866,#867,#868,#869,#870));
#164=EDGE_LOOP('',(#871,#872,#873,#874,#875,#876,#877,#878,#879,#880));
#165=EDGE_LOOP('',(#881,#882,#883,#884));
#166=EDGE_LOOP('',(#885,#886,#887,#888,#889,#890,#891,#892));
#167=EDGE_LOOP('',(#893,#894,#895,#896));
#168=EDGE_LOOP('',(#897,#898,#899,#900,#901,#902,#903,#904,#905,#906));
#169=EDGE_LOOP('',(#907,#908,#909,#910,#911,#912,#913,#914,#915,#916));
#170=EDGE_LOOP('',(#917,#918,#919,#920));
#171=EDGE_LOOP('',(#921,#922,#923,#924));
#172=EDGE_LOOP('',(#925,#926,#927,#928));
#173=EDGE_LOOP('',(#929,#930,#931,#932));
#174=EDGE_LOOP('',(#933,#934,#935,#936));
#175=EDGE_LOOP('',(#937,#938,#939,#940));
#176=EDGE_LOOP('',(#941,#942,#943,#944));
#177=EDGE_LOOP('',(#945,#946,#947,#948,#949,#950));
#178=EDGE_LOOP('',(#951,#952,#953,#954));
#179=EDGE_LOOP('',(#955,#956,#957,#958));
#180=EDGE_LOOP('',(#959,#960,#961,#962));
#181=EDGE_LOOP('',(#963,#964,#965,#966));
#182=EDGE_LOOP('',(#967,#968,#969,#970));
#183=EDGE_LOOP('',(#971,#972,#973,#974));
#184=EDGE_LOOP('',(#975,#976,#977,#978));
#185=EDGE_LOOP('',(#979,#980,#981,#982));
#186=EDGE_LOOP('',(#983,#984,#985,#986,#987,#988,#989,#990,#991,#992,#993,
#994,#995,#996,#997,#998,#999,#1000,#1001,#1002));
#187=LINE('',#1481,#293);
#188=LINE('',#1486,#294);
#189=LINE('',#1487,#295);
#190=LINE('',#1488,#296);
#191=LINE('',#1491,#297);
#192=LINE('',#1494,#298);
#193=LINE('',#1497,#299);
#194=LINE('',#1499,#300);
#195=LINE('',#1501,#301);
#196=LINE('',#1503,#302);
#197=LINE('',#1505,#303);
#198=LINE('',#1519,#304);
#199=LINE('',#1521,#305);
#200=LINE('',#1523,#306);
#201=LINE('',#1524,#307);
#202=LINE('',#1535,#308);
#203=LINE('',#1538,#309);
#204=LINE('',#1541,#310);
#205=LINE('',#1542,#311);
#206=LINE('',#1545,#312);
#207=LINE('',#1547,#313);
#208=LINE('',#1549,#314);
#209=LINE('',#1551,#315);
#210=LINE('',#1553,#316);
#211=LINE('',#1560,#317);
#212=LINE('',#1563,#318);
#213=LINE('',#1581,#319);
#214=LINE('',#1583,#320);
#215=LINE('',#1586,#321);
#216=LINE('',#1609,#322);
#217=LINE('',#1610,#323);
#218=LINE('',#1613,#324);
#219=LINE('',#1617,#325);
#220=LINE('',#1618,#326);
#221=LINE('',#1627,#327);
#222=LINE('',#1628,#328);
#223=LINE('',#1633,#329);
#224=LINE('',#1634,#330);
#225=LINE('',#1640,#331);
#226=LINE('',#1643,#332);
#227=LINE('',#1661,#333);
#228=LINE('',#1663,#334);
#229=LINE('',#1666,#335);
#230=LINE('',#1672,#336);
#231=LINE('',#1675,#337);
#232=LINE('',#1692,#338);
#233=LINE('',#1693,#339);
#234=LINE('',#1695,#340);
#235=LINE('',#1699,#341);
#236=LINE('',#1715,#342);
#237=LINE('',#1718,#343);
#238=LINE('',#1721,#344);
#239=LINE('',#1723,#345);
#240=LINE('',#1725,#346);
#241=LINE('',#1727,#347);
#242=LINE('',#1731,#348);
#243=LINE('',#1733,#349);
#244=LINE('',#1735,#350);
#245=LINE('',#1739,#351);
#246=LINE('',#1741,#352);
#247=LINE('',#1742,#353);
#248=LINE('',#1744,#354);
#249=LINE('',#1745,#355);
#250=LINE('',#1748,#356);
#251=LINE('',#1750,#357);
#252=LINE('',#1751,#358);
#253=LINE('',#1753,#359);
#254=LINE('',#1756,#360);
#255=LINE('',#1757,#361);
#256=LINE('',#1760,#362);
#257=LINE('',#1761,#363);
#258=LINE('',#1763,#364);
#259=LINE('',#1764,#365);
#260=LINE('',#1766,#366);
#261=LINE('',#1768,#367);
#262=LINE('',#1770,#368);
#263=LINE('',#1771,#369);
#264=LINE('',#1772,#370);
#265=LINE('',#1775,#371);
#266=LINE('',#1776,#372);
#267=LINE('',#1778,#373);
#268=LINE('',#1780,#374);
#269=LINE('',#1781,#375);
#270=LINE('',#1785,#376);
#271=LINE('',#1786,#377);
#272=LINE('',#1787,#378);
#273=LINE('',#1790,#379);
#274=LINE('',#1791,#380);
#275=LINE('',#1792,#381);
#276=LINE('',#1793,#382);
#277=LINE('',#1796,#383);
#278=LINE('',#1798,#384);
#279=LINE('',#1799,#385);
#280=LINE('',#1800,#386);
#281=LINE('',#1803,#387);
#282=LINE('',#1805,#388);
#283=LINE('',#1806,#389);
#284=LINE('',#1808,#390);
#285=LINE('',#1810,#391);
#286=LINE('',#1813,#392);
#287=LINE('',#1816,#393);
#288=LINE('',#1817,#394);
#289=LINE('',#1820,#395);
#290=LINE('',#1821,#396);
#291=LINE('',#1833,#397);
#292=LINE('',#1838,#398);
#293=VECTOR('',#1177,10.);
#294=VECTOR('',#1182,10.);
#295=VECTOR('',#1183,10.);
#296=VECTOR('',#1184,10.);
#297=VECTOR('',#1187,10.);
#298=VECTOR('',#1190,10.);
#299=VECTOR('',#1193,10.);
#300=VECTOR('',#1194,10.);
#301=VECTOR('',#1195,10.);
#302=VECTOR('',#1196,10.);
#303=VECTOR('',#1197,10.);
#304=VECTOR('',#1200,10.);
#305=VECTOR('',#1201,10.);
#306=VECTOR('',#1202,10.);
#307=VECTOR('',#1203,10.);
#308=VECTOR('',#1212,10.);
#309=VECTOR('',#1215,10.);
#310=VECTOR('',#1218,10.);
#311=VECTOR('',#1219,10.);
#312=VECTOR('',#1222,10.);
#313=VECTOR('',#1223,10.);
#314=VECTOR('',#1224,10.);
#315=VECTOR('',#1225,10.);
#316=VECTOR('',#1226,10.);
#317=VECTOR('',#1233,10.);
#318=VECTOR('',#1236,10.);
#319=VECTOR('',#1245,10.);
#320=VECTOR('',#1246,10.);
#321=VECTOR('',#1249,10.);
#322=VECTOR('',#1262,10.);
#323=VECTOR('',#1263,10.);
#324=VECTOR('',#1266,10.);
#325=VECTOR('',#1269,10.);
#326=VECTOR('',#1270,10.);
#327=VECTOR('',#1281,10.);
#328=VECTOR('',#1282,10.);
#329=VECTOR('',#1287,10.);
#330=VECTOR('',#1288,10.);
#331=VECTOR('',#1293,10.);
#332=VECTOR('',#1296,10.);
#333=VECTOR('',#1305,10.);
#334=VECTOR('',#1306,10.);
#335=VECTOR('',#1309,10.);
#336=VECTOR('',#1314,10.);
#337=VECTOR('',#1317,10.);
#338=VECTOR('',#1326,10.);
#339=VECTOR('',#1327,10.);
#340=VECTOR('',#1330,10.);
#341=VECTOR('',#1335,10.);
#342=VECTOR('',#1342,10.);
#343=VECTOR('',#1345,10.);
#344=VECTOR('',#1348,10.);
#345=VECTOR('',#1349,10.);
#346=VECTOR('',#1350,10.);
#347=VECTOR('',#1351,10.);
#348=VECTOR('',#1354,10.);
#349=VECTOR('',#1355,10.);
#350=VECTOR('',#1356,10.);
#351=VECTOR('',#1359,10.);
#352=VECTOR('',#1360,10.);
#353=VECTOR('',#1361,10.);
#354=VECTOR('',#1362,10.);
#355=VECTOR('',#1363,10.);
#356=VECTOR('',#1366,10.);
#357=VECTOR('',#1367,10.);
#358=VECTOR('',#1368,10.);
#359=VECTOR('',#1371,10.);
#360=VECTOR('',#1374,10.);
#361=VECTOR('',#1375,10.);
#362=VECTOR('',#1378,10.);
#363=VECTOR('',#1379,10.);
#364=VECTOR('',#1380,10.);
#365=VECTOR('',#1381,10.);
#366=VECTOR('',#1384,10.);
#367=VECTOR('',#1385,10.);
#368=VECTOR('',#1386,10.);
#369=VECTOR('',#1387,10.);
#370=VECTOR('',#1388,10.);
#371=VECTOR('',#1391,10.);
#372=VECTOR('',#1392,10.);
#373=VECTOR('',#1395,10.);
#374=VECTOR('',#1396,10.);
#375=VECTOR('',#1397,10.);
#376=VECTOR('',#1400,10.);
#377=VECTOR('',#1401,10.);
#378=VECTOR('',#1402,10.);
#379=VECTOR('',#1405,10.);
#380=VECTOR('',#1406,10.);
#381=VECTOR('',#1407,10.);
#382=VECTOR('',#1408,10.);
#383=VECTOR('',#1411,10.);
#384=VECTOR('',#1412,10.);
#385=VECTOR('',#1413,10.);
#386=VECTOR('',#1414,10.);
#387=VECTOR('',#1417,10.);
#388=VECTOR('',#1418,10.);
#389=VECTOR('',#1419,10.);
#390=VECTOR('',#1422,10.);
#391=VECTOR('',#1425,10.);
#392=VECTOR('',#1430,10.);
#393=VECTOR('',#1433,10.);
#394=VECTOR('',#1434,10.);
#395=VECTOR('',#1437,10.);
#396=VECTOR('',#1438,10.);
#397=VECTOR('',#1459,10.);
#398=VECTOR('',#1468,10.);
#399=CIRCLE('',#1076,10.);
#400=CIRCLE('',#1077,9.);
#401=CIRCLE('',#1080,10.);
#402=CIRCLE('',#1084,9.);
#403=CIRCLE('',#1085,10.);
#404=CIRCLE('',#1087,10.);
#405=CIRCLE('',#1090,0.95);
#406=CIRCLE('',#1092,0.95);
#407=CIRCLE('',#1093,0.95);
#408=CIRCLE('',#1095,10.);
#409=CIRCLE('',#1096,10.95);
#410=CIRCLE('',#1098,10.);
#411=CIRCLE('',#1100,0.950000000000002);
#412=CIRCLE('',#1101,10.);
#413=CIRCLE('',#1102,10.95);
#414=CIRCLE('',#1104,0.95);
#415=CIRCLE('',#1106,10.);
#416=CIRCLE('',#1108,0.95);
#417=CIRCLE('',#1109,10.95);
#418=CIRCLE('',#1111,0.95);
#419=CIRCLE('',#1113,10.);
#420=CIRCLE('',#1115,0.95);
#421=CIRCLE('',#1116,0.95);
#422=CIRCLE('',#1118,10.);
#423=CIRCLE('',#1119,10.95);
#424=CIRCLE('',#1121,10.);
#425=CIRCLE('',#1123,0.95);
#426=CIRCLE('',#1124,0.95);
#427=CIRCLE('',#1126,10.95);
#428=CIRCLE('',#1127,10.);
#429=CIRCLE('',#1131,0.95);
#430=CIRCLE('',#1133,10.95);
#431=CIRCLE('',#1135,10.);
#432=CIRCLE('',#1137,10.);
#433=CIRCLE('',#1138,10.);
#434=CIRCLE('',#1157,10.);
#435=CIRCLE('',#1160,10.);
#436=CIRCLE('',#1163,10.);
#437=CIRCLE('',#1166,10.);
#438=CIRCLE('',#1168,10.);
#439=(
BOUNDED_CURVE()
B_SPLINE_CURVE(2,(#1475,#1476,#1477),.UNSPECIFIED.,.F.,.F.)
B_SPLINE_CURVE_WITH_KNOTS((3,3),(0.,0.639165765409528),.UNSPECIFIED.)
CURVE()
GEOMETRIC_REPRESENTATION_ITEM()
RATIONAL_B_SPLINE_CURVE((1.,1.00267367202018,1.00253828485855))
REPRESENTATION_ITEM('')
);
#440=(
BOUNDED_CURVE()
B_SPLINE_CURVE(2,(#1528,#1529,#1530),.UNSPECIFIED.,.F.,.F.)
B_SPLINE_CURVE_WITH_KNOTS((3,3),(0.577554505519023,1.21672027027489),
 .UNSPECIFIED.)
CURVE()
GEOMETRIC_REPRESENTATION_ITEM()
RATIONAL_B_SPLINE_CURVE((1.00253828453334,1.00267367167421,1.))
REPRESENTATION_ITEM('')
);
#441=VERTEX_POINT('',#1473);
#442=VERTEX_POINT('',#1474);
#443=VERTEX_POINT('',#1478);
#444=VERTEX_POINT('',#1480);
#445=VERTEX_POINT('',#1484);
#446=VERTEX_POINT('',#1485);
#447=VERTEX_POINT('',#1490);
#448=VERTEX_POINT('',#1492);
#449=VERTEX_POINT('',#1496);
#450=VERTEX_POINT('',#1498);
#451=VERTEX_POINT('',#1500);
#452=VERTEX_POINT('',#1502);
#453=VERTEX_POINT('',#1504);
#454=VERTEX_POINT('',#1517);
#455=VERTEX_POINT('',#1518);
#456=VERTEX_POINT('',#1520);
#457=VERTEX_POINT('',#1522);
#458=VERTEX_POINT('',#1526);
#459=VERTEX_POINT('',#1527);
#460=VERTEX_POINT('',#1534);
#461=VERTEX_POINT('',#1536);
#462=VERTEX_POINT('',#1540);
#463=VERTEX_POINT('',#1544);
#464=VERTEX_POINT('',#1546);
#465=VERTEX_POINT('',#1548);
#466=VERTEX_POINT('',#1550);
#467=VERTEX_POINT('',#1552);
#468=VERTEX_POINT('',#1556);
#469=VERTEX_POINT('',#1557);
#470=VERTEX_POINT('',#1559);
#471=VERTEX_POINT('',#1561);
#472=VERTEX_POINT('',#1565);
#473=VERTEX_POINT('',#1566);
#474=VERTEX_POINT('',#1580);
#475=VERTEX_POINT('',#1582);
#476=VERTEX_POINT('',#1584);
#477=VERTEX_POINT('',#1588);
#478=VERTEX_POINT('',#1589);
#479=VERTEX_POINT('',#1591);
#480=VERTEX_POINT('',#1593);
#481=VERTEX_POINT('',#1606);
#482=VERTEX_POINT('',#1607);
#483=VERTEX_POINT('',#1612);
#484=VERTEX_POINT('',#1614);
#485=VERTEX_POINT('',#1616);
#486=VERTEX_POINT('',#1620);
#487=VERTEX_POINT('',#1624);
#488=VERTEX_POINT('',#1625);
#489=VERTEX_POINT('',#1630);
#490=VERTEX_POINT('',#1632);
#491=VERTEX_POINT('',#1636);
#492=VERTEX_POINT('',#1637);
#493=VERTEX_POINT('',#1639);
#494=VERTEX_POINT('',#1641);
#495=VERTEX_POINT('',#1645);
#496=VERTEX_POINT('',#1646);
#497=VERTEX_POINT('',#1660);
#498=VERTEX_POINT('',#1662);
#499=VERTEX_POINT('',#1664);
#500=VERTEX_POINT('',#1668);
#501=VERTEX_POINT('',#1669);
#502=VERTEX_POINT('',#1671);
#503=VERTEX_POINT('',#1673);
#504=VERTEX_POINT('',#1677);
#505=VERTEX_POINT('',#1678);
#506=VERTEX_POINT('',#1697);
#507=VERTEX_POINT('',#1701);
#508=VERTEX_POINT('',#1714);
#509=VERTEX_POINT('',#1716);
#510=VERTEX_POINT('',#1720);
#511=VERTEX_POINT('',#1722);
#512=VERTEX_POINT('',#1724);
#513=VERTEX_POINT('',#1726);
#514=VERTEX_POINT('',#1728);
#515=VERTEX_POINT('',#1730);
#516=VERTEX_POINT('',#1732);
#517=VERTEX_POINT('',#1734);
#518=VERTEX_POINT('',#1736);
#519=VERTEX_POINT('',#1738);
#520=VERTEX_POINT('',#1740);
#521=VERTEX_POINT('',#1743);
#522=VERTEX_POINT('',#1747);
#523=VERTEX_POINT('',#1749);
#524=VERTEX_POINT('',#1755);
#525=VERTEX_POINT('',#1759);
#526=VERTEX_POINT('',#1762);
#527=VERTEX_POINT('',#1767);
#528=VERTEX_POINT('',#1769);
#529=VERTEX_POINT('',#1774);
#530=VERTEX_POINT('',#1779);
#531=VERTEX_POINT('',#1783);
#532=VERTEX_POINT('',#1784);
#533=VERTEX_POINT('',#1789);
#534=VERTEX_POINT('',#1795);
#535=VERTEX_POINT('',#1797);
#536=VERTEX_POINT('',#1802);
#537=VERTEX_POINT('',#1804);
#538=VERTEX_POINT('',#1815);
#539=VERTEX_POINT('',#1819);
#540=VERTEX_POINT('',#1832);
#541=EDGE_CURVE('',#441,#442,#439,.T.);
#542=EDGE_CURVE('',#442,#443,#399,.T.);
#543=EDGE_CURVE('',#443,#444,#187,.T.);
#544=EDGE_CURVE('',#444,#441,#400,.T.);
#545=EDGE_CURVE('',#445,#446,#188,.T.);
#546=EDGE_CURVE('',#446,#444,#189,.T.);
#547=EDGE_CURVE('',#443,#445,#190,.T.);
#548=EDGE_CURVE('',#447,#442,#191,.T.);
#549=EDGE_CURVE('',#448,#447,#401,.T.);
#550=EDGE_CURVE('',#448,#443,#192,.T.);
#551=EDGE_CURVE('',#449,#441,#193,.T.);
#552=EDGE_CURVE('',#449,#450,#194,.T.);
#553=EDGE_CURVE('',#451,#450,#195,.T.);
#554=EDGE_CURVE('',#452,#451,#196,.T.);
#555=EDGE_CURVE('',#453,#452,#197,.T.);
#556=EDGE_CURVE('',#447,#453,#21,.T.);
#557=EDGE_CURVE('',#454,#455,#198,.T.);
#558=EDGE_CURVE('',#455,#456,#199,.T.);
#559=EDGE_CURVE('',#456,#457,#200,.T.);
#560=EDGE_CURVE('',#457,#454,#201,.T.);
#561=EDGE_CURVE('',#458,#459,#440,.T.);
#562=EDGE_CURVE('',#459,#457,#402,.T.);
#563=EDGE_CURVE('',#456,#458,#403,.T.);
#564=EDGE_CURVE('',#460,#456,#202,.T.);
#565=EDGE_CURVE('',#461,#460,#404,.T.);
#566=EDGE_CURVE('',#458,#461,#203,.T.);
#567=EDGE_CURVE('',#462,#455,#204,.T.);
#568=EDGE_CURVE('',#460,#462,#205,.T.);
#569=EDGE_CURVE('',#463,#454,#206,.T.);
#570=EDGE_CURVE('',#463,#464,#207,.T.);
#571=EDGE_CURVE('',#465,#464,#208,.T.);
#572=EDGE_CURVE('',#466,#465,#209,.T.);
#573=EDGE_CURVE('',#467,#466,#210,.T.);
#574=EDGE_CURVE('',#462,#467,#405,.T.);
#575=EDGE_CURVE('',#468,#469,#406,.T.);
#576=EDGE_CURVE('',#469,#470,#211,.T.);
#577=EDGE_CURVE('',#470,#471,#407,.T.);
#578=EDGE_CURVE('',#471,#468,#212,.T.);
#579=EDGE_CURVE('',#472,#473,#22,.T.);
#580=EDGE_CURVE('',#473,#469,#408,.T.);
#581=EDGE_CURVE('',#468,#472,#409,.T.);
#582=EDGE_CURVE('',#471,#474,#213,.T.);
#583=EDGE_CURVE('',#475,#474,#214,.T.);
#584=EDGE_CURVE('',#476,#475,#410,.T.);
#585=EDGE_CURVE('',#476,#472,#215,.T.);
#586=EDGE_CURVE('',#477,#478,#411,.T.);
#587=EDGE_CURVE('',#478,#479,#412,.T.);
#588=EDGE_CURVE('',#479,#480,#23,.T.);
#589=EDGE_CURVE('',#480,#477,#413,.T.);
#590=EDGE_CURVE('',#481,#482,#414,.T.);
#591=EDGE_CURVE('',#482,#478,#216,.T.);
#592=EDGE_CURVE('',#477,#481,#217,.T.);
#593=EDGE_CURVE('',#480,#483,#218,.T.);
#594=EDGE_CURVE('',#484,#483,#415,.T.);
#595=EDGE_CURVE('',#485,#484,#219,.T.);
#596=EDGE_CURVE('',#485,#481,#220,.T.);
#597=EDGE_CURVE('',#486,#448,#416,.T.);
#598=EDGE_CURVE('',#453,#486,#417,.T.);
#599=EDGE_CURVE('',#487,#488,#418,.T.);
#600=EDGE_CURVE('',#488,#448,#221,.T.);
#601=EDGE_CURVE('',#486,#487,#222,.T.);
#602=EDGE_CURVE('',#489,#452,#419,.T.);
#603=EDGE_CURVE('',#490,#489,#223,.T.);
#604=EDGE_CURVE('',#490,#487,#224,.T.);
#605=EDGE_CURVE('',#491,#492,#420,.T.);
#606=EDGE_CURVE('',#492,#493,#225,.T.);
#607=EDGE_CURVE('',#493,#494,#421,.T.);
#608=EDGE_CURVE('',#494,#491,#226,.T.);
#609=EDGE_CURVE('',#495,#496,#24,.T.);
#610=EDGE_CURVE('',#496,#492,#422,.T.);
#611=EDGE_CURVE('',#491,#495,#423,.T.);
#612=EDGE_CURVE('',#494,#497,#227,.T.);
#613=EDGE_CURVE('',#498,#497,#228,.T.);
#614=EDGE_CURVE('',#499,#498,#424,.T.);
#615=EDGE_CURVE('',#499,#495,#229,.T.);
#616=EDGE_CURVE('',#500,#501,#425,.T.);
#617=EDGE_CURVE('',#501,#502,#230,.T.);
#618=EDGE_CURVE('',#502,#503,#426,.T.);
#619=EDGE_CURVE('',#503,#500,#231,.T.);
#620=EDGE_CURVE('',#504,#505,#25,.T.);
#621=EDGE_CURVE('',#505,#501,#427,.T.);
#622=EDGE_CURVE('',#500,#504,#428,.T.);
#623=EDGE_CURVE('',#473,#504,#232,.T.);
#624=EDGE_CURVE('',#500,#469,#233,.T.);
#625=EDGE_CURVE('',#503,#470,#234,.T.);
#626=EDGE_CURVE('',#506,#460,#429,.T.);
#627=EDGE_CURVE('',#467,#506,#235,.T.);
#628=EDGE_CURVE('',#507,#461,#26,.T.);
#629=EDGE_CURVE('',#506,#507,#430,.T.);
#630=EDGE_CURVE('',#508,#466,#236,.T.);
#631=EDGE_CURVE('',#509,#508,#431,.T.);
#632=EDGE_CURVE('',#509,#507,#237,.T.);
#633=EDGE_CURVE('',#446,#510,#238,.T.);
#634=EDGE_CURVE('',#510,#511,#239,.T.);
#635=EDGE_CURVE('',#511,#512,#240,.T.);
#636=EDGE_CURVE('',#512,#513,#241,.T.);
#637=EDGE_CURVE('',#514,#513,#432,.T.);
#638=EDGE_CURVE('',#514,#515,#242,.T.);
#639=EDGE_CURVE('',#515,#516,#243,.T.);
#640=EDGE_CURVE('',#516,#517,#244,.T.);
#641=EDGE_CURVE('',#518,#517,#433,.T.);
#642=EDGE_CURVE('',#518,#519,#245,.T.);
#643=EDGE_CURVE('',#519,#520,#246,.T.);
#644=EDGE_CURVE('',#520,#463,#247,.T.);
#645=EDGE_CURVE('',#459,#521,#248,.T.);
#646=EDGE_CURVE('',#521,#449,#249,.T.);
#647=EDGE_CURVE('',#522,#509,#250,.T.);
#648=EDGE_CURVE('',#523,#522,#251,.T.);
#649=EDGE_CURVE('',#521,#523,#252,.T.);
#650=EDGE_CURVE('',#450,#523,#253,.T.);
#651=EDGE_CURVE('',#464,#524,#254,.T.);
#652=EDGE_CURVE('',#520,#524,#255,.T.);
#653=EDGE_CURVE('',#524,#525,#256,.T.);
#654=EDGE_CURVE('',#474,#519,#257,.T.);
#655=EDGE_CURVE('',#526,#502,#258,.T.);
#656=EDGE_CURVE('',#525,#526,#259,.T.);
#657=EDGE_CURVE('',#512,#485,#260,.T.);
#658=EDGE_CURVE('',#511,#527,#261,.T.);
#659=EDGE_CURVE('',#528,#527,#262,.T.);
#660=EDGE_CURVE('',#497,#528,#263,.T.);
#661=EDGE_CURVE('',#482,#493,#264,.T.);
#662=EDGE_CURVE('',#527,#529,#265,.T.);
#663=EDGE_CURVE('',#510,#529,#266,.T.);
#664=EDGE_CURVE('',#488,#445,#267,.T.);
#665=EDGE_CURVE('',#530,#490,#268,.T.);
#666=EDGE_CURVE('',#529,#530,#269,.T.);
#667=EDGE_CURVE('',#531,#532,#270,.T.);
#668=EDGE_CURVE('',#516,#531,#271,.T.);
#669=EDGE_CURVE('',#515,#532,#272,.T.);
#670=EDGE_CURVE('',#532,#533,#273,.T.);
#671=EDGE_CURVE('',#483,#514,#274,.T.);
#672=EDGE_CURVE('',#496,#479,#275,.T.);
#673=EDGE_CURVE('',#533,#499,#276,.T.);
#674=EDGE_CURVE('',#534,#531,#277,.T.);
#675=EDGE_CURVE('',#535,#534,#278,.T.);
#676=EDGE_CURVE('',#505,#535,#279,.T.);
#677=EDGE_CURVE('',#517,#476,#280,.T.);
#678=EDGE_CURVE('',#526,#536,#281,.T.);
#679=EDGE_CURVE('',#537,#536,#282,.T.);
#680=EDGE_CURVE('',#537,#525,#283,.T.);
#681=EDGE_CURVE('',#475,#518,#284,.T.);
#682=EDGE_CURVE('',#513,#484,#285,.T.);
#683=EDGE_CURVE('',#478,#492,#286,.T.);
#684=EDGE_CURVE('',#538,#489,#287,.T.);
#685=EDGE_CURVE('',#538,#530,#288,.T.);
#686=EDGE_CURVE('',#528,#539,#289,.T.);
#687=EDGE_CURVE('',#498,#539,#290,.T.);
#688=EDGE_CURVE('',#536,#535,#434,.T.);
#689=EDGE_CURVE('',#534,#537,#435,.T.);
#690=EDGE_CURVE('',#539,#533,#436,.T.);
#691=EDGE_CURVE('',#508,#540,#291,.T.);
#692=EDGE_CURVE('',#540,#522,#437,.T.);
#693=EDGE_CURVE('',#451,#538,#438,.T.);
#694=EDGE_CURVE('',#465,#540,#292,.T.);
#695=ORIENTED_EDGE('',*,*,#541,.T.);
#696=ORIENTED_EDGE('',*,*,#542,.T.);
#697=ORIENTED_EDGE('',*,*,#543,.T.);
#698=ORIENTED_EDGE('',*,*,#544,.T.);
#699=ORIENTED_EDGE('',*,*,#545,.T.);
#700=ORIENTED_EDGE('',*,*,#546,.T.);
#701=ORIENTED_EDGE('',*,*,#543,.F.);
#702=ORIENTED_EDGE('',*,*,#547,.T.);
#703=ORIENTED_EDGE('',*,*,#542,.F.);
#704=ORIENTED_EDGE('',*,*,#548,.F.);
#705=ORIENTED_EDGE('',*,*,#549,.F.);
#706=ORIENTED_EDGE('',*,*,#550,.T.);
#707=ORIENTED_EDGE('',*,*,#541,.F.);
#708=ORIENTED_EDGE('',*,*,#551,.F.);
#709=ORIENTED_EDGE('',*,*,#552,.T.);
#710=ORIENTED_EDGE('',*,*,#553,.F.);
#711=ORIENTED_EDGE('',*,*,#554,.F.);
#712=ORIENTED_EDGE('',*,*,#555,.F.);
#713=ORIENTED_EDGE('',*,*,#556,.F.);
#714=ORIENTED_EDGE('',*,*,#548,.T.);
#715=ORIENTED_EDGE('',*,*,#557,.T.);
#716=ORIENTED_EDGE('',*,*,#558,.T.);
#717=ORIENTED_EDGE('',*,*,#559,.T.);
#718=ORIENTED_EDGE('',*,*,#560,.T.);
#719=ORIENTED_EDGE('',*,*,#561,.T.);
#720=ORIENTED_EDGE('',*,*,#562,.T.);
#721=ORIENTED_EDGE('',*,*,#559,.F.);
#722=ORIENTED_EDGE('',*,*,#563,.T.);
#723=ORIENTED_EDGE('',*,*,#563,.F.);
#724=ORIENTED_EDGE('',*,*,#564,.F.);
#725=ORIENTED_EDGE('',*,*,#565,.F.);
#726=ORIENTED_EDGE('',*,*,#566,.F.);
#727=ORIENTED_EDGE('',*,*,#558,.F.);
#728=ORIENTED_EDGE('',*,*,#567,.F.);
#729=ORIENTED_EDGE('',*,*,#568,.F.);
#730=ORIENTED_EDGE('',*,*,#564,.T.);
#731=ORIENTED_EDGE('',*,*,#557,.F.);
#732=ORIENTED_EDGE('',*,*,#569,.F.);
#733=ORIENTED_EDGE('',*,*,#570,.T.);
#734=ORIENTED_EDGE('',*,*,#571,.F.);
#735=ORIENTED_EDGE('',*,*,#572,.F.);
#736=ORIENTED_EDGE('',*,*,#573,.F.);
#737=ORIENTED_EDGE('',*,*,#574,.F.);
#738=ORIENTED_EDGE('',*,*,#567,.T.);
#739=ORIENTED_EDGE('',*,*,#575,.T.);
#740=ORIENTED_EDGE('',*,*,#576,.T.);
#741=ORIENTED_EDGE('',*,*,#577,.T.);
#742=ORIENTED_EDGE('',*,*,#578,.T.);
#743=ORIENTED_EDGE('',*,*,#579,.T.);
#744=ORIENTED_EDGE('',*,*,#580,.T.);
#745=ORIENTED_EDGE('',*,*,#575,.F.);
#746=ORIENTED_EDGE('',*,*,#581,.T.);
#747=ORIENTED_EDGE('',*,*,#581,.F.);
#748=ORIENTED_EDGE('',*,*,#578,.F.);
#749=ORIENTED_EDGE('',*,*,#582,.T.);
#750=ORIENTED_EDGE('',*,*,#583,.F.);
#751=ORIENTED_EDGE('',*,*,#584,.F.);
#752=ORIENTED_EDGE('',*,*,#585,.T.);
#753=ORIENTED_EDGE('',*,*,#586,.T.);
#754=ORIENTED_EDGE('',*,*,#587,.T.);
#755=ORIENTED_EDGE('',*,*,#588,.T.);
#756=ORIENTED_EDGE('',*,*,#589,.T.);
#757=ORIENTED_EDGE('',*,*,#590,.T.);
#758=ORIENTED_EDGE('',*,*,#591,.T.);
#759=ORIENTED_EDGE('',*,*,#586,.F.);
#760=ORIENTED_EDGE('',*,*,#592,.T.);
#761=ORIENTED_EDGE('',*,*,#592,.F.);
#762=ORIENTED_EDGE('',*,*,#589,.F.);
#763=ORIENTED_EDGE('',*,*,#593,.T.);
#764=ORIENTED_EDGE('',*,*,#594,.F.);
#765=ORIENTED_EDGE('',*,*,#595,.F.);
#766=ORIENTED_EDGE('',*,*,#596,.T.);
#767=ORIENTED_EDGE('',*,*,#597,.T.);
#768=ORIENTED_EDGE('',*,*,#549,.T.);
#769=ORIENTED_EDGE('',*,*,#556,.T.);
#770=ORIENTED_EDGE('',*,*,#598,.T.);
#771=ORIENTED_EDGE('',*,*,#599,.T.);
#772=ORIENTED_EDGE('',*,*,#600,.T.);
#773=ORIENTED_EDGE('',*,*,#597,.F.);
#774=ORIENTED_EDGE('',*,*,#601,.T.);
#775=ORIENTED_EDGE('',*,*,#601,.F.);
#776=ORIENTED_EDGE('',*,*,#598,.F.);
#777=ORIENTED_EDGE('',*,*,#555,.T.);
#778=ORIENTED_EDGE('',*,*,#602,.F.);
#779=ORIENTED_EDGE('',*,*,#603,.F.);
#780=ORIENTED_EDGE('',*,*,#604,.T.);
#781=ORIENTED_EDGE('',*,*,#605,.T.);
#782=ORIENTED_EDGE('',*,*,#606,.T.);
#783=ORIENTED_EDGE('',*,*,#607,.T.);
#784=ORIENTED_EDGE('',*,*,#608,.T.);
#785=ORIENTED_EDGE('',*,*,#609,.T.);
#786=ORIENTED_EDGE('',*,*,#610,.T.);
#787=ORIENTED_EDGE('',*,*,#605,.F.);
#788=ORIENTED_EDGE('',*,*,#611,.T.);
#789=ORIENTED_EDGE('',*,*,#611,.F.);
#790=ORIENTED_EDGE('',*,*,#608,.F.);
#791=ORIENTED_EDGE('',*,*,#612,.T.);
#792=ORIENTED_EDGE('',*,*,#613,.F.);
#793=ORIENTED_EDGE('',*,*,#614,.F.);
#794=ORIENTED_EDGE('',*,*,#615,.T.);
#795=ORIENTED_EDGE('',*,*,#616,.T.);
#796=ORIENTED_EDGE('',*,*,#617,.T.);
#797=ORIENTED_EDGE('',*,*,#618,.T.);
#798=ORIENTED_EDGE('',*,*,#619,.T.);
#799=ORIENTED_EDGE('',*,*,#620,.T.);
#800=ORIENTED_EDGE('',*,*,#621,.T.);
#801=ORIENTED_EDGE('',*,*,#616,.F.);
#802=ORIENTED_EDGE('',*,*,#622,.T.);
#803=ORIENTED_EDGE('',*,*,#580,.F.);
#804=ORIENTED_EDGE('',*,*,#623,.T.);
#805=ORIENTED_EDGE('',*,*,#622,.F.);
#806=ORIENTED_EDGE('',*,*,#624,.T.);
#807=ORIENTED_EDGE('',*,*,#576,.F.);
#808=ORIENTED_EDGE('',*,*,#624,.F.);
#809=ORIENTED_EDGE('',*,*,#619,.F.);
#810=ORIENTED_EDGE('',*,*,#625,.T.);
#811=ORIENTED_EDGE('',*,*,#626,.T.);
#812=ORIENTED_EDGE('',*,*,#568,.T.);
#813=ORIENTED_EDGE('',*,*,#574,.T.);
#814=ORIENTED_EDGE('',*,*,#627,.T.);
#815=ORIENTED_EDGE('',*,*,#628,.T.);
#816=ORIENTED_EDGE('',*,*,#565,.T.);
#817=ORIENTED_EDGE('',*,*,#626,.F.);
#818=ORIENTED_EDGE('',*,*,#629,.T.);
#819=ORIENTED_EDGE('',*,*,#629,.F.);
#820=ORIENTED_EDGE('',*,*,#627,.F.);
#821=ORIENTED_EDGE('',*,*,#573,.T.);
#822=ORIENTED_EDGE('',*,*,#630,.F.);
#823=ORIENTED_EDGE('',*,*,#631,.F.);
#824=ORIENTED_EDGE('',*,*,#632,.T.);
#825=ORIENTED_EDGE('',*,*,#546,.F.);
#826=ORIENTED_EDGE('',*,*,#633,.T.);
#827=ORIENTED_EDGE('',*,*,#634,.T.);
#828=ORIENTED_EDGE('',*,*,#635,.T.);
#829=ORIENTED_EDGE('',*,*,#636,.T.);
#830=ORIENTED_EDGE('',*,*,#637,.F.);
#831=ORIENTED_EDGE('',*,*,#638,.T.);
#832=ORIENTED_EDGE('',*,*,#639,.T.);
#833=ORIENTED_EDGE('',*,*,#640,.T.);
#834=ORIENTED_EDGE('',*,*,#641,.F.);
#835=ORIENTED_EDGE('',*,*,#642,.T.);
#836=ORIENTED_EDGE('',*,*,#643,.T.);
#837=ORIENTED_EDGE('',*,*,#644,.T.);
#838=ORIENTED_EDGE('',*,*,#569,.T.);
#839=ORIENTED_EDGE('',*,*,#560,.F.);
#840=ORIENTED_EDGE('',*,*,#562,.F.);
#841=ORIENTED_EDGE('',*,*,#645,.T.);
#842=ORIENTED_EDGE('',*,*,#646,.T.);
#843=ORIENTED_EDGE('',*,*,#551,.T.);
#844=ORIENTED_EDGE('',*,*,#544,.F.);
#845=ORIENTED_EDGE('',*,*,#561,.F.);
#846=ORIENTED_EDGE('',*,*,#566,.T.);
#847=ORIENTED_EDGE('',*,*,#628,.F.);
#848=ORIENTED_EDGE('',*,*,#632,.F.);
#849=ORIENTED_EDGE('',*,*,#647,.F.);
#850=ORIENTED_EDGE('',*,*,#648,.F.);
#851=ORIENTED_EDGE('',*,*,#649,.F.);
#852=ORIENTED_EDGE('',*,*,#645,.F.);
#853=ORIENTED_EDGE('',*,*,#650,.F.);
#854=ORIENTED_EDGE('',*,*,#552,.F.);
#855=ORIENTED_EDGE('',*,*,#646,.F.);
#856=ORIENTED_EDGE('',*,*,#649,.T.);
#857=ORIENTED_EDGE('',*,*,#651,.F.);
#858=ORIENTED_EDGE('',*,*,#570,.F.);
#859=ORIENTED_EDGE('',*,*,#644,.F.);
#860=ORIENTED_EDGE('',*,*,#652,.T.);
#861=ORIENTED_EDGE('',*,*,#653,.F.);
#862=ORIENTED_EDGE('',*,*,#652,.F.);
#863=ORIENTED_EDGE('',*,*,#643,.F.);
#864=ORIENTED_EDGE('',*,*,#654,.F.);
#865=ORIENTED_EDGE('',*,*,#582,.F.);
#866=ORIENTED_EDGE('',*,*,#577,.F.);
#867=ORIENTED_EDGE('',*,*,#625,.F.);
#868=ORIENTED_EDGE('',*,*,#618,.F.);
#869=ORIENTED_EDGE('',*,*,#655,.F.);
#870=ORIENTED_EDGE('',*,*,#656,.F.);
#871=ORIENTED_EDGE('',*,*,#596,.F.);
#872=ORIENTED_EDGE('',*,*,#657,.F.);
#873=ORIENTED_EDGE('',*,*,#635,.F.);
#874=ORIENTED_EDGE('',*,*,#658,.T.);
#875=ORIENTED_EDGE('',*,*,#659,.F.);
#876=ORIENTED_EDGE('',*,*,#660,.F.);
#877=ORIENTED_EDGE('',*,*,#612,.F.);
#878=ORIENTED_EDGE('',*,*,#607,.F.);
#879=ORIENTED_EDGE('',*,*,#661,.F.);
#880=ORIENTED_EDGE('',*,*,#590,.F.);
#881=ORIENTED_EDGE('',*,*,#662,.F.);
#882=ORIENTED_EDGE('',*,*,#658,.F.);
#883=ORIENTED_EDGE('',*,*,#634,.F.);
#884=ORIENTED_EDGE('',*,*,#663,.T.);
#885=ORIENTED_EDGE('',*,*,#545,.F.);
#886=ORIENTED_EDGE('',*,*,#664,.F.);
#887=ORIENTED_EDGE('',*,*,#599,.F.);
#888=ORIENTED_EDGE('',*,*,#604,.F.);
#889=ORIENTED_EDGE('',*,*,#665,.F.);
#890=ORIENTED_EDGE('',*,*,#666,.F.);
#891=ORIENTED_EDGE('',*,*,#663,.F.);
#892=ORIENTED_EDGE('',*,*,#633,.F.);
#893=ORIENTED_EDGE('',*,*,#667,.F.);
#894=ORIENTED_EDGE('',*,*,#668,.F.);
#895=ORIENTED_EDGE('',*,*,#639,.F.);
#896=ORIENTED_EDGE('',*,*,#669,.T.);
#897=ORIENTED_EDGE('',*,*,#670,.F.);
#898=ORIENTED_EDGE('',*,*,#669,.F.);
#899=ORIENTED_EDGE('',*,*,#638,.F.);
#900=ORIENTED_EDGE('',*,*,#671,.F.);
#901=ORIENTED_EDGE('',*,*,#593,.F.);
#902=ORIENTED_EDGE('',*,*,#588,.F.);
#903=ORIENTED_EDGE('',*,*,#672,.F.);
#904=ORIENTED_EDGE('',*,*,#609,.F.);
#905=ORIENTED_EDGE('',*,*,#615,.F.);
#906=ORIENTED_EDGE('',*,*,#673,.F.);
#907=ORIENTED_EDGE('',*,*,#674,.F.);
#908=ORIENTED_EDGE('',*,*,#675,.F.);
#909=ORIENTED_EDGE('',*,*,#676,.F.);
#910=ORIENTED_EDGE('',*,*,#620,.F.);
#911=ORIENTED_EDGE('',*,*,#623,.F.);
#912=ORIENTED_EDGE('',*,*,#579,.F.);
#913=ORIENTED_EDGE('',*,*,#585,.F.);
#914=ORIENTED_EDGE('',*,*,#677,.F.);
#915=ORIENTED_EDGE('',*,*,#640,.F.);
#916=ORIENTED_EDGE('',*,*,#668,.T.);
#917=ORIENTED_EDGE('',*,*,#656,.T.);
#918=ORIENTED_EDGE('',*,*,#678,.T.);
#919=ORIENTED_EDGE('',*,*,#679,.F.);
#920=ORIENTED_EDGE('',*,*,#680,.T.);
#921=ORIENTED_EDGE('',*,*,#654,.T.);
#922=ORIENTED_EDGE('',*,*,#642,.F.);
#923=ORIENTED_EDGE('',*,*,#681,.F.);
#924=ORIENTED_EDGE('',*,*,#583,.T.);
#925=ORIENTED_EDGE('',*,*,#657,.T.);
#926=ORIENTED_EDGE('',*,*,#595,.T.);
#927=ORIENTED_EDGE('',*,*,#682,.F.);
#928=ORIENTED_EDGE('',*,*,#636,.F.);
#929=ORIENTED_EDGE('',*,*,#547,.F.);
#930=ORIENTED_EDGE('',*,*,#550,.F.);
#931=ORIENTED_EDGE('',*,*,#600,.F.);
#932=ORIENTED_EDGE('',*,*,#664,.T.);
#933=ORIENTED_EDGE('',*,*,#591,.F.);
#934=ORIENTED_EDGE('',*,*,#661,.T.);
#935=ORIENTED_EDGE('',*,*,#606,.F.);
#936=ORIENTED_EDGE('',*,*,#683,.F.);
#937=ORIENTED_EDGE('',*,*,#665,.T.);
#938=ORIENTED_EDGE('',*,*,#603,.T.);
#939=ORIENTED_EDGE('',*,*,#684,.F.);
#940=ORIENTED_EDGE('',*,*,#685,.T.);
#941=ORIENTED_EDGE('',*,*,#660,.T.);
#942=ORIENTED_EDGE('',*,*,#686,.T.);
#943=ORIENTED_EDGE('',*,*,#687,.F.);
#944=ORIENTED_EDGE('',*,*,#613,.T.);
#945=ORIENTED_EDGE('',*,*,#621,.F.);
#946=ORIENTED_EDGE('',*,*,#676,.T.);
#947=ORIENTED_EDGE('',*,*,#688,.F.);
#948=ORIENTED_EDGE('',*,*,#678,.F.);
#949=ORIENTED_EDGE('',*,*,#655,.T.);
#950=ORIENTED_EDGE('',*,*,#617,.F.);
#951=ORIENTED_EDGE('',*,*,#587,.F.);
#952=ORIENTED_EDGE('',*,*,#683,.T.);
#953=ORIENTED_EDGE('',*,*,#610,.F.);
#954=ORIENTED_EDGE('',*,*,#672,.T.);
#955=ORIENTED_EDGE('',*,*,#688,.T.);
#956=ORIENTED_EDGE('',*,*,#675,.T.);
#957=ORIENTED_EDGE('',*,*,#689,.T.);
#958=ORIENTED_EDGE('',*,*,#679,.T.);
#959=ORIENTED_EDGE('',*,*,#641,.T.);
#960=ORIENTED_EDGE('',*,*,#677,.T.);
#961=ORIENTED_EDGE('',*,*,#584,.T.);
#962=ORIENTED_EDGE('',*,*,#681,.T.);
#963=ORIENTED_EDGE('',*,*,#614,.T.);
#964=ORIENTED_EDGE('',*,*,#687,.T.);
#965=ORIENTED_EDGE('',*,*,#690,.T.);
#966=ORIENTED_EDGE('',*,*,#673,.T.);
#967=ORIENTED_EDGE('',*,*,#637,.T.);
#968=ORIENTED_EDGE('',*,*,#682,.T.);
#969=ORIENTED_EDGE('',*,*,#594,.T.);
#970=ORIENTED_EDGE('',*,*,#671,.T.);
#971=ORIENTED_EDGE('',*,*,#631,.T.);
#972=ORIENTED_EDGE('',*,*,#691,.T.);
#973=ORIENTED_EDGE('',*,*,#692,.T.);
#974=ORIENTED_EDGE('',*,*,#647,.T.);
#975=ORIENTED_EDGE('',*,*,#602,.T.);
#976=ORIENTED_EDGE('',*,*,#554,.T.);
#977=ORIENTED_EDGE('',*,*,#693,.T.);
#978=ORIENTED_EDGE('',*,*,#684,.T.);
#979=ORIENTED_EDGE('',*,*,#572,.T.);
#980=ORIENTED_EDGE('',*,*,#694,.T.);
#981=ORIENTED_EDGE('',*,*,#691,.F.);
#982=ORIENTED_EDGE('',*,*,#630,.T.);
#983=ORIENTED_EDGE('',*,*,#648,.T.);
#984=ORIENTED_EDGE('',*,*,#692,.F.);
#985=ORIENTED_EDGE('',*,*,#694,.F.);
#986=ORIENTED_EDGE('',*,*,#571,.T.);
#987=ORIENTED_EDGE('',*,*,#651,.T.);
#988=ORIENTED_EDGE('',*,*,#653,.T.);
#989=ORIENTED_EDGE('',*,*,#680,.F.);
#990=ORIENTED_EDGE('',*,*,#689,.F.);
#991=ORIENTED_EDGE('',*,*,#674,.T.);
#992=ORIENTED_EDGE('',*,*,#667,.T.);
#993=ORIENTED_EDGE('',*,*,#670,.T.);
#994=ORIENTED_EDGE('',*,*,#690,.F.);
#995=ORIENTED_EDGE('',*,*,#686,.F.);
#996=ORIENTED_EDGE('',*,*,#659,.T.);
#997=ORIENTED_EDGE('',*,*,#662,.T.);
#998=ORIENTED_EDGE('',*,*,#666,.T.);
#999=ORIENTED_EDGE('',*,*,#685,.F.);
#1000=ORIENTED_EDGE('',*,*,#693,.F.);
#1001=ORIENTED_EDGE('',*,*,#553,.T.);
#1002=ORIENTED_EDGE('',*,*,#650,.T.);
#1003=CONICAL_SURFACE('',#1075,9.5,0.165148677414626);
#1004=CONICAL_SURFACE('',#1083,9.5,0.165148677414626);
#1005=ADVANCED_FACE('',(#75),#1003,.T.);
#1006=ADVANCED_FACE('',(#76),#43,.T.);
#1007=ADVANCED_FACE('',(#77),#27,.T.);
#1008=ADVANCED_FACE('',(#78),#44,.F.);
#1009=ADVANCED_FACE('',(#79),#45,.T.);
#1010=ADVANCED_FACE('',(#80),#1004,.T.);
#1011=ADVANCED_FACE('',(#81),#28,.T.);
#1012=ADVANCED_FACE('',(#82),#46,.F.);
#1013=ADVANCED_FACE('',(#83),#47,.F.);
#1014=ADVANCED_FACE('',(#84),#29,.F.);
#1015=ADVANCED_FACE('',(#85),#15,.F.);
#1016=ADVANCED_FACE('',(#86),#48,.F.);
#1017=ADVANCED_FACE('',(#87),#16,.F.);
#1018=ADVANCED_FACE('',(#88),#30,.F.);
#1019=ADVANCED_FACE('',(#89),#49,.F.);
#1020=ADVANCED_FACE('',(#90),#17,.F.);
#1021=ADVANCED_FACE('',(#91),#31,.F.);
#1022=ADVANCED_FACE('',(#92),#50,.F.);
#1023=ADVANCED_FACE('',(#93),#32,.F.);
#1024=ADVANCED_FACE('',(#94),#18,.F.);
#1025=ADVANCED_FACE('',(#95),#51,.F.);
#1026=ADVANCED_FACE('',(#96),#33,.F.);
#1027=ADVANCED_FACE('',(#97),#19,.F.);
#1028=ADVANCED_FACE('',(#98),#34,.T.);
#1029=ADVANCED_FACE('',(#99),#52,.F.);
#1030=ADVANCED_FACE('',(#100),#35,.F.);
#1031=ADVANCED_FACE('',(#101),#20,.F.);
#1032=ADVANCED_FACE('',(#102),#53,.F.);
#1033=ADVANCED_FACE('',(#103),#54,.T.);
#1034=ADVANCED_FACE('',(#104),#55,.F.);
#1035=ADVANCED_FACE('',(#105),#56,.F.);
#1036=ADVANCED_FACE('',(#106),#57,.F.);
#1037=ADVANCED_FACE('',(#107),#58,.F.);
#1038=ADVANCED_FACE('',(#108),#59,.F.);
#1039=ADVANCED_FACE('',(#109),#60,.F.);
#1040=ADVANCED_FACE('',(#110),#61,.F.);
#1041=ADVANCED_FACE('',(#111),#62,.F.);
#1042=ADVANCED_FACE('',(#112),#63,.F.);
#1043=ADVANCED_FACE('',(#113),#64,.F.);
#1044=ADVANCED_FACE('',(#114),#65,.T.);
#1045=ADVANCED_FACE('',(#115),#66,.T.);
#1046=ADVANCED_FACE('',(#116),#67,.T.);
#1047=ADVANCED_FACE('',(#117),#68,.F.);
#1048=ADVANCED_FACE('',(#118),#69,.F.);
#1049=ADVANCED_FACE('',(#119),#70,.T.);
#1050=ADVANCED_FACE('',(#120),#71,.T.);
#1051=ADVANCED_FACE('',(#121),#72,.F.);
#1052=ADVANCED_FACE('',(#122),#36,.T.);
#1053=ADVANCED_FACE('',(#123),#37,.T.);
#1054=ADVANCED_FACE('',(#124),#38,.T.);
#1055=ADVANCED_FACE('',(#125),#39,.T.);
#1056=ADVANCED_FACE('',(#126),#40,.T.);
#1057=ADVANCED_FACE('',(#127),#41,.T.);
#1058=ADVANCED_FACE('',(#128),#42,.T.);
#1059=ADVANCED_FACE('',(#129),#73,.T.);
#1060=ADVANCED_FACE('',(#130),#74,.F.);
#1061=CLOSED_SHELL('',(#1005,#1006,#1007,#1008,#1009,#1010,#1011,#1012,
#1013,#1014,#1015,#1016,#1017,#1018,#1019,#1020,#1021,#1022,#1023,#1024,
#1025,#1026,#1027,#1028,#1029,#1030,#1031,#1032,#1033,#1034,#1035,#1036,
#1037,#1038,#1039,#1040,#1041,#1042,#1043,#1044,#1045,#1046,#1047,#1048,
#1049,#1050,#1051,#1052,#1053,#1054,#1055,#1056,#1057,#1058,#1059,#1060));
#1062=DERIVED_UNIT_ELEMENT(#1064,1.);
#1063=DERIVED_UNIT_ELEMENT(#1845,-3.);
#1064=(
MASS_UNIT()
NAMED_UNIT(*)
SI_UNIT(.KILO.,.GRAM.)
);
#1065=DERIVED_UNIT((#1062,#1063));
#1066=MEASURE_REPRESENTATION_ITEM('density measure',
POSITIVE_RATIO_MEASURE(7850.),#1065);
#1067=PROPERTY_DEFINITION_REPRESENTATION(#1072,#1069);
#1068=PROPERTY_DEFINITION_REPRESENTATION(#1073,#1070);
#1069=REPRESENTATION('material name',(#1071),#1842);
#1070=REPRESENTATION('density',(#1066),#1842);
#1071=DESCRIPTIVE_REPRESENTATION_ITEM('Stahl','Stahl');
#1072=PROPERTY_DEFINITION('material property','material name',#1852);
#1073=PROPERTY_DEFINITION('material property','density of part',#1852);
#1074=AXIS2_PLACEMENT_3D('',#1471,#1171,#1172);
#1075=AXIS2_PLACEMENT_3D('',#1472,#1173,#1174);
#1076=AXIS2_PLACEMENT_3D('',#1479,#1175,#1176);
#1077=AXIS2_PLACEMENT_3D('',#1482,#1178,#1179);
#1078=AXIS2_PLACEMENT_3D('',#1483,#1180,#1181);
#1079=AXIS2_PLACEMENT_3D('',#1489,#1185,#1186);
#1080=AXIS2_PLACEMENT_3D('',#1493,#1188,#1189);
#1081=AXIS2_PLACEMENT_3D('',#1495,#1191,#1192);
#1082=AXIS2_PLACEMENT_3D('',#1516,#1198,#1199);
#1083=AXIS2_PLACEMENT_3D('',#1525,#1204,#1205);
#1084=AXIS2_PLACEMENT_3D('',#1531,#1206,#1207);
#1085=AXIS2_PLACEMENT_3D('',#1532,#1208,#1209);
#1086=AXIS2_PLACEMENT_3D('',#1533,#1210,#1211);
#1087=AXIS2_PLACEMENT_3D('',#1537,#1213,#1214);
#1088=AXIS2_PLACEMENT_3D('',#1539,#1216,#1217);
#1089=AXIS2_PLACEMENT_3D('',#1543,#1220,#1221);
#1090=AXIS2_PLACEMENT_3D('',#1554,#1227,#1228);
#1091=AXIS2_PLACEMENT_3D('',#1555,#1229,#1230);
#1092=AXIS2_PLACEMENT_3D('',#1558,#1231,#1232);
#1093=AXIS2_PLACEMENT_3D('',#1562,#1234,#1235);
#1094=AXIS2_PLACEMENT_3D('',#1564,#1237,#1238);
#1095=AXIS2_PLACEMENT_3D('',#1577,#1239,#1240);
#1096=AXIS2_PLACEMENT_3D('',#1578,#1241,#1242);
#1097=AXIS2_PLACEMENT_3D('',#1579,#1243,#1244);
#1098=AXIS2_PLACEMENT_3D('',#1585,#1247,#1248);
#1099=AXIS2_PLACEMENT_3D('',#1587,#1250,#1251);
#1100=AXIS2_PLACEMENT_3D('',#1590,#1252,#1253);
#1101=AXIS2_PLACEMENT_3D('',#1592,#1254,#1255);
#1102=AXIS2_PLACEMENT_3D('',#1604,#1256,#1257);
#1103=AXIS2_PLACEMENT_3D('',#1605,#1258,#1259);
#1104=AXIS2_PLACEMENT_3D('',#1608,#1260,#1261);
#1105=AXIS2_PLACEMENT_3D('',#1611,#1264,#1265);
#1106=AXIS2_PLACEMENT_3D('',#1615,#1267,#1268);
#1107=AXIS2_PLACEMENT_3D('',#1619,#1271,#1272);
#1108=AXIS2_PLACEMENT_3D('',#1621,#1273,#1274);
#1109=AXIS2_PLACEMENT_3D('',#1622,#1275,#1276);
#1110=AXIS2_PLACEMENT_3D('',#1623,#1277,#1278);
#1111=AXIS2_PLACEMENT_3D('',#1626,#1279,#1280);
#1112=AXIS2_PLACEMENT_3D('',#1629,#1283,#1284);
#1113=AXIS2_PLACEMENT_3D('',#1631,#1285,#1286);
#1114=AXIS2_PLACEMENT_3D('',#1635,#1289,#1290);
#1115=AXIS2_PLACEMENT_3D('',#1638,#1291,#1292);
#1116=AXIS2_PLACEMENT_3D('',#1642,#1294,#1295);
#1117=AXIS2_PLACEMENT_3D('',#1644,#1297,#1298);
#1118=AXIS2_PLACEMENT_3D('',#1657,#1299,#1300);
#1119=AXIS2_PLACEMENT_3D('',#1658,#1301,#1302);
#1120=AXIS2_PLACEMENT_3D('',#1659,#1303,#1304);
#1121=AXIS2_PLACEMENT_3D('',#1665,#1307,#1308);
#1122=AXIS2_PLACEMENT_3D('',#1667,#1310,#1311);
#1123=AXIS2_PLACEMENT_3D('',#1670,#1312,#1313);
#1124=AXIS2_PLACEMENT_3D('',#1674,#1315,#1316);
#1125=AXIS2_PLACEMENT_3D('',#1676,#1318,#1319);
#1126=AXIS2_PLACEMENT_3D('',#1689,#1320,#1321);
#1127=AXIS2_PLACEMENT_3D('',#1690,#1322,#1323);
#1128=AXIS2_PLACEMENT_3D('',#1691,#1324,#1325);
#1129=AXIS2_PLACEMENT_3D('',#1694,#1328,#1329);
#1130=AXIS2_PLACEMENT_3D('',#1696,#1331,#1332);
#1131=AXIS2_PLACEMENT_3D('',#1698,#1333,#1334);
#1132=AXIS2_PLACEMENT_3D('',#1700,#1336,#1337);
#1133=AXIS2_PLACEMENT_3D('',#1712,#1338,#1339);
#1134=AXIS2_PLACEMENT_3D('',#1713,#1340,#1341);
#1135=AXIS2_PLACEMENT_3D('',#1717,#1343,#1344);
#1136=AXIS2_PLACEMENT_3D('',#1719,#1346,#1347);
#1137=AXIS2_PLACEMENT_3D('',#1729,#1352,#1353);
#1138=AXIS2_PLACEMENT_3D('',#1737,#1357,#1358);
#1139=AXIS2_PLACEMENT_3D('',#1746,#1364,#1365);
#1140=AXIS2_PLACEMENT_3D('',#1752,#1369,#1370);
#1141=AXIS2_PLACEMENT_3D('',#1754,#1372,#1373);
#1142=AXIS2_PLACEMENT_3D('',#1758,#1376,#1377);
#1143=AXIS2_PLACEMENT_3D('',#1765,#1382,#1383);
#1144=AXIS2_PLACEMENT_3D('',#1773,#1389,#1390);
#1145=AXIS2_PLACEMENT_3D('',#1777,#1393,#1394);
#1146=AXIS2_PLACEMENT_3D('',#1782,#1398,#1399);
#1147=AXIS2_PLACEMENT_3D('',#1788,#1403,#1404);
#1148=AXIS2_PLACEMENT_3D('',#1794,#1409,#1410);
#1149=AXIS2_PLACEMENT_3D('',#1801,#1415,#1416);
#1150=AXIS2_PLACEMENT_3D('',#1807,#1420,#1421);
#1151=AXIS2_PLACEMENT_3D('',#1809,#1423,#1424);
#1152=AXIS2_PLACEMENT_3D('',#1811,#1426,#1427);
#1153=AXIS2_PLACEMENT_3D('',#1812,#1428,#1429);
#1154=AXIS2_PLACEMENT_3D('',#1814,#1431,#1432);
#1155=AXIS2_PLACEMENT_3D('',#1818,#1435,#1436);
#1156=AXIS2_PLACEMENT_3D('',#1822,#1439,#1440);
#1157=AXIS2_PLACEMENT_3D('',#1823,#1441,#1442);
#1158=AXIS2_PLACEMENT_3D('',#1824,#1443,#1444);
#1159=AXIS2_PLACEMENT_3D('',#1825,#1445,#1446);
#1160=AXIS2_PLACEMENT_3D('',#1826,#1447,#1448);
#1161=AXIS2_PLACEMENT_3D('',#1827,#1449,#1450);
#1162=AXIS2_PLACEMENT_3D('',#1828,#1451,#1452);
#1163=AXIS2_PLACEMENT_3D('',#1829,#1453,#1454);
#1164=AXIS2_PLACEMENT_3D('',#1830,#1455,#1456);
#1165=AXIS2_PLACEMENT_3D('',#1831,#1457,#1458);
#1166=AXIS2_PLACEMENT_3D('',#1834,#1460,#1461);
#1167=AXIS2_PLACEMENT_3D('',#1835,#1462,#1463);
#1168=AXIS2_PLACEMENT_3D('',#1836,#1464,#1465);
#1169=AXIS2_PLACEMENT_3D('',#1837,#1466,#1467);
#1170=AXIS2_PLACEMENT_3D('',#1839,#1469,#1470);
#1171=DIRECTION('axis',(0.,0.,1.));
#1172=DIRECTION('refdir',(1.,0.,0.));
#1173=DIRECTION('center_axis',(0.,0.,-1.));
#1174=DIRECTION('ref_axis',(0.707106781186548,0.707106781186548,0.));
#1175=DIRECTION('center_axis',(0.,0.,1.));
#1176=DIRECTION('ref_axis',(0.707106781186547,0.707106781186547,0.));
#1177=DIRECTION('',(0.,-0.164398987305357,0.986393923832144));
#1178=DIRECTION('center_axis',(0.,0.,-1.));
#1179=DIRECTION('ref_axis',(0.707106781186547,0.707106781186547,0.));
#1180=DIRECTION('center_axis',(0.,0.986393923832144,0.164398987305357));
#1181=DIRECTION('ref_axis',(0.,-0.164398987305357,0.986393923832144));
#1182=DIRECTION('',(0.,-0.164398987305357,0.986393923832144));
#1183=DIRECTION('',(1.,0.,0.));
#1184=DIRECTION('',(-1.,0.,0.));
#1185=DIRECTION('center_axis',(0.,0.,1.));
#1186=DIRECTION('ref_axis',(0.707106781186547,0.707106781186547,0.));
#1187=DIRECTION('',(0.,0.,1.));
#1188=DIRECTION('center_axis',(0.,0.,-1.));
#1189=DIRECTION('ref_axis',(0.670820410465275,0.741619833137707,0.));
#1190=DIRECTION('',(0.,0.,1.));
#1191=DIRECTION('center_axis',(4.44089209850063E-16,1.,0.));
#1192=DIRECTION('ref_axis',(1.,-4.44089209850063E-16,0.));
#1193=DIRECTION('',(1.,-4.44089209850063E-16,0.));
#1194=DIRECTION('',(0.,0.,-1.));
#1195=DIRECTION('',(-1.,4.44089209850063E-16,0.));
#1196=DIRECTION('',(0.,0.,-1.));
#1197=DIRECTION('',(1.,-4.44089209850063E-16,0.));
#1198=DIRECTION('center_axis',(0.,-0.986393923832144,0.164398987305357));
#1199=DIRECTION('ref_axis',(0.,-0.164398987305357,-0.986393923832144));
#1200=DIRECTION('',(0.,-0.164398987305357,-0.986393923832144));
#1201=DIRECTION('',(1.,0.,0.));
#1202=DIRECTION('',(0.,0.164398987305357,0.986393923832144));
#1203=DIRECTION('',(-1.,0.,0.));
#1204=DIRECTION('center_axis',(0.,0.,-1.));
#1205=DIRECTION('ref_axis',(0.707106781186547,-0.707106781186547,0.));
#1206=DIRECTION('center_axis',(0.,0.,-1.));
#1207=DIRECTION('ref_axis',(0.707106781186548,-0.707106781186548,0.));
#1208=DIRECTION('center_axis',(0.,0.,1.));
#1209=DIRECTION('ref_axis',(0.707106781186547,-0.707106781186547,0.));
#1210=DIRECTION('center_axis',(0.,0.,-1.));
#1211=DIRECTION('ref_axis',(0.707106781186547,-0.707106781186547,0.));
#1212=DIRECTION('',(0.,0.,1.));
#1213=DIRECTION('center_axis',(0.,0.,-1.));
#1214=DIRECTION('ref_axis',(0.670820392694603,-0.741619849211884,0.));
#1215=DIRECTION('',(0.,0.,-1.));
#1216=DIRECTION('center_axis',(0.,1.,0.));
#1217=DIRECTION('ref_axis',(0.,0.,-1.));
#1218=DIRECTION('',(0.,0.,1.));
#1219=DIRECTION('',(-1.,0.,0.));
#1220=DIRECTION('center_axis',(1.,0.,0.));
#1221=DIRECTION('ref_axis',(0.,-1.,0.));
#1222=DIRECTION('',(0.,-1.,0.));
#1223=DIRECTION('',(0.,0.,-1.));
#1224=DIRECTION('',(0.,1.,0.));
#1225=DIRECTION('',(0.,0.,-1.));
#1226=DIRECTION('',(0.,-1.,0.));
#1227=DIRECTION('center_axis',(-1.,0.,0.));
#1228=DIRECTION('ref_axis',(0.,0.707106781186548,-0.707106781186547));
#1229=DIRECTION('center_axis',(-1.,0.,0.));
#1230=DIRECTION('ref_axis',(0.,0.707106781186548,0.707106781186547));
#1231=DIRECTION('center_axis',(-1.,-2.3373116307898E-15,0.));
#1232=DIRECTION('ref_axis',(0.,0.,1.));
#1233=DIRECTION('',(1.,0.,0.));
#1234=DIRECTION('center_axis',(1.,0.,0.));
#1235=DIRECTION('ref_axis',(0.,0.707106781186548,0.707106781186547));
#1236=DIRECTION('',(-1.,0.,0.));
#1237=DIRECTION('center_axis',(0.,0.,-1.));
#1238=DIRECTION('ref_axis',(-1.,0.,0.));
#1239=DIRECTION('center_axis',(0.,0.,1.));
#1240=DIRECTION('ref_axis',(-0.670820392694603,-0.741619849211884,0.));
#1241=DIRECTION('center_axis',(0.,0.,-1.));
#1242=DIRECTION('ref_axis',(-0.670820392694603,-0.741619849211884,0.));
#1243=DIRECTION('center_axis',(0.,0.,1.));
#1244=DIRECTION('ref_axis',(1.,0.,0.));
#1245=DIRECTION('',(0.,-1.,0.));
#1246=DIRECTION('',(1.,0.,0.));
#1247=DIRECTION('center_axis',(0.,0.,1.));
#1248=DIRECTION('ref_axis',(-0.707106781186547,-0.707106781186548,0.));
#1249=DIRECTION('',(1.,-3.33066907387547E-16,0.));
#1250=DIRECTION('center_axis',(0.,0.,-1.));
#1251=DIRECTION('ref_axis',(-1.,0.,0.));
#1252=DIRECTION('center_axis',(1.,-2.33731163078981E-15,0.));
#1253=DIRECTION('ref_axis',(0.,0.,1.));
#1254=DIRECTION('center_axis',(0.,0.,1.));
#1255=DIRECTION('ref_axis',(-0.670820410465275,0.741619833137707,0.));
#1256=DIRECTION('center_axis',(0.,0.,-1.));
#1257=DIRECTION('ref_axis',(-0.670820410465275,0.741619833137707,0.));
#1258=DIRECTION('center_axis',(-1.,0.,0.));
#1259=DIRECTION('ref_axis',(0.,-0.707106781186547,0.707106781186548));
#1260=DIRECTION('center_axis',(1.,0.,0.));
#1261=DIRECTION('ref_axis',(0.,-0.707106781186547,0.707106781186548));
#1262=DIRECTION('',(-1.,0.,0.));
#1263=DIRECTION('',(1.,0.,0.));
#1264=DIRECTION('center_axis',(0.,0.,1.));
#1265=DIRECTION('ref_axis',(1.,0.,0.));
#1266=DIRECTION('',(-1.,0.,0.));
#1267=DIRECTION('center_axis',(0.,0.,1.));
#1268=DIRECTION('ref_axis',(-0.707106781186547,0.707106781186548,0.));
#1269=DIRECTION('',(-1.,0.,0.));
#1270=DIRECTION('',(0.,-1.,0.));
#1271=DIRECTION('center_axis',(0.,0.,1.));
#1272=DIRECTION('ref_axis',(1.,0.,0.));
#1273=DIRECTION('center_axis',(-1.,0.,0.));
#1274=DIRECTION('ref_axis',(0.,0.,-1.));
#1275=DIRECTION('center_axis',(0.,0.,1.));
#1276=DIRECTION('ref_axis',(0.670820410465275,0.741619833137707,0.));
#1277=DIRECTION('center_axis',(-1.,0.,0.));
#1278=DIRECTION('ref_axis',(0.,-0.707106781186547,-0.707106781186548));
#1279=DIRECTION('center_axis',(-1.,0.,0.));
#1280=DIRECTION('ref_axis',(0.,-0.707106781186547,-0.707106781186548));
#1281=DIRECTION('',(1.,0.,0.));
#1282=DIRECTION('',(-1.,0.,0.));
#1283=DIRECTION('center_axis',(0.,0.,-1.));
#1284=DIRECTION('ref_axis',(-1.,0.,0.));
#1285=DIRECTION('center_axis',(0.,0.,-1.));
#1286=DIRECTION('ref_axis',(0.707106781186547,0.707106781186547,0.));
#1287=DIRECTION('',(1.,0.,0.));
#1288=DIRECTION('',(0.,-1.,0.));
#1289=DIRECTION('center_axis',(-1.,0.,0.));
#1290=DIRECTION('ref_axis',(0.,-0.707106781186547,-0.707106781186548));
#1291=DIRECTION('center_axis',(-1.,2.3373116307898E-15,0.));
#1292=DIRECTION('ref_axis',(0.,0.,-1.));
#1293=DIRECTION('',(1.,0.,0.));
#1294=DIRECTION('center_axis',(1.,0.,0.));
#1295=DIRECTION('ref_axis',(0.,-0.707106781186547,-0.707106781186548));
#1296=DIRECTION('',(-1.,0.,0.));
#1297=DIRECTION('center_axis',(0.,0.,1.));
#1298=DIRECTION('ref_axis',(1.,0.,0.));
#1299=DIRECTION('center_axis',(0.,0.,-1.));
#1300=DIRECTION('ref_axis',(-0.670820410465275,0.741619833137707,0.));
#1301=DIRECTION('center_axis',(0.,0.,1.));
#1302=DIRECTION('ref_axis',(-0.670820410465275,0.741619833137707,0.));
#1303=DIRECTION('center_axis',(0.,0.,-1.));
#1304=DIRECTION('ref_axis',(-1.,0.,0.));
#1305=DIRECTION('',(0.,1.,0.));
#1306=DIRECTION('',(1.,0.,0.));
#1307=DIRECTION('center_axis',(0.,0.,-1.));
#1308=DIRECTION('ref_axis',(-0.707106781186547,0.707106781186548,0.));
#1309=DIRECTION('',(1.,0.,0.));
#1310=DIRECTION('center_axis',(-1.,0.,0.));
#1311=DIRECTION('ref_axis',(0.,0.707106781186548,-0.707106781186547));
#1312=DIRECTION('center_axis',(-1.,-2.3373116307898E-15,0.));
#1313=DIRECTION('ref_axis',(-2.3373116307898E-15,1.,0.));
#1314=DIRECTION('',(1.,0.,0.));
#1315=DIRECTION('center_axis',(1.,0.,0.));
#1316=DIRECTION('ref_axis',(0.,0.707106781186548,-0.707106781186547));
#1317=DIRECTION('',(-1.,0.,0.));
#1318=DIRECTION('center_axis',(0.,0.,1.));
#1319=DIRECTION('ref_axis',(1.,0.,0.));
#1320=DIRECTION('center_axis',(0.,0.,1.));
#1321=DIRECTION('ref_axis',(-0.670820392694603,-0.741619849211884,0.));
#1322=DIRECTION('center_axis',(0.,0.,-1.));
#1323=DIRECTION('ref_axis',(-0.670820392694603,-0.741619849211884,0.));
#1324=DIRECTION('center_axis',(-6.93889390390723E-17,0.,1.));
#1325=DIRECTION('ref_axis',(-0.707106781186548,-0.707106781186547,-1.57009245868377E-16));
#1326=DIRECTION('',(6.93889390390723E-17,0.,-1.));
#1327=DIRECTION('',(-6.93889390390723E-17,0.,1.));
#1328=DIRECTION('center_axis',(0.,1.,0.));
#1329=DIRECTION('ref_axis',(0.,0.,-1.));
#1330=DIRECTION('',(0.,0.,1.));
#1331=DIRECTION('center_axis',(-1.,0.,0.));
#1332=DIRECTION('ref_axis',(0.,0.707106781186548,-0.707106781186547));
#1333=DIRECTION('center_axis',(1.,0.,0.));
#1334=DIRECTION('ref_axis',(0.,0.,-1.));
#1335=DIRECTION('',(1.,0.,0.));
#1336=DIRECTION('center_axis',(0.,0.,1.));
#1337=DIRECTION('ref_axis',(1.,0.,0.));
#1338=DIRECTION('center_axis',(0.,0.,1.));
#1339=DIRECTION('ref_axis',(0.670820392694603,-0.741619849211884,0.));
#1340=DIRECTION('center_axis',(0.,0.,-1.));
#1341=DIRECTION('ref_axis',(-1.,0.,0.));
#1342=DIRECTION('',(-1.,0.,0.));
#1343=DIRECTION('center_axis',(0.,0.,-1.));
#1344=DIRECTION('ref_axis',(0.707106781186547,-0.707106781186547,0.));
#1345=DIRECTION('',(-1.,0.,0.));
#1346=DIRECTION('center_axis',(0.,0.,1.));
#1347=DIRECTION('ref_axis',(1.,0.,0.));
#1348=DIRECTION('',(0.,-1.,0.));
#1349=DIRECTION('',(-1.,0.,0.));
#1350=DIRECTION('',(0.,1.,0.));
#1351=DIRECTION('',(-1.,0.,0.));
#1352=DIRECTION('center_axis',(0.,0.,-1.));
#1353=DIRECTION('ref_axis',(-0.707106781186547,0.707106781186548,0.));
#1354=DIRECTION('',(1.,0.,0.));
#1355=DIRECTION('',(2.77555756156289E-16,-1.,0.));
#1356=DIRECTION('',(-1.,3.33066907387547E-16,0.));
#1357=DIRECTION('center_axis',(0.,0.,-1.));
#1358=DIRECTION('ref_axis',(-0.707106781186547,-0.707106781186548,0.));
#1359=DIRECTION('',(1.,0.,0.));
#1360=DIRECTION('',(0.,1.,0.));
#1361=DIRECTION('',(1.,-1.85037170770859E-16,0.));
#1362=DIRECTION('',(-1.,0.,0.));
#1363=DIRECTION('',(3.70074341541719E-16,1.,0.));
#1364=DIRECTION('center_axis',(0.,-1.,0.));
#1365=DIRECTION('ref_axis',(-1.,0.,0.));
#1366=DIRECTION('',(0.,0.,1.));
#1367=DIRECTION('',(1.,0.,0.));
#1368=DIRECTION('',(0.,0.,-1.));
#1369=DIRECTION('center_axis',(-1.,3.70074341541719E-16,0.));
#1370=DIRECTION('ref_axis',(3.70074341541719E-16,1.,0.));
#1371=DIRECTION('',(-3.70074341541719E-16,-1.,0.));
#1372=DIRECTION('center_axis',(1.85037170770859E-16,1.,0.));
#1373=DIRECTION('ref_axis',(1.,-1.85037170770859E-16,0.));
#1374=DIRECTION('',(-1.,1.85037170770859E-16,0.));
#1375=DIRECTION('',(0.,0.,-1.));
#1376=DIRECTION('center_axis',(-1.,0.,0.));
#1377=DIRECTION('ref_axis',(0.,1.,0.));
#1378=DIRECTION('',(0.,-1.,0.));
#1379=DIRECTION('',(0.,0.,1.));
#1380=DIRECTION('',(0.,1.,0.));
#1381=DIRECTION('',(0.,0.,1.));
#1382=DIRECTION('center_axis',(-1.,0.,0.));
#1383=DIRECTION('ref_axis',(0.,1.,0.));
#1384=DIRECTION('',(0.,0.,-1.));
#1385=DIRECTION('',(0.,0.,-1.));
#1386=DIRECTION('',(0.,-1.,0.));
#1387=DIRECTION('',(0.,0.,-1.));
#1388=DIRECTION('',(0.,0.,-1.));
#1389=DIRECTION('center_axis',(0.,-1.,0.));
#1390=DIRECTION('ref_axis',(-1.,0.,0.));
#1391=DIRECTION('',(1.,0.,0.));
#1392=DIRECTION('',(0.,0.,-1.));
#1393=DIRECTION('center_axis',(1.,0.,0.));
#1394=DIRECTION('ref_axis',(0.,-1.,0.));
#1395=DIRECTION('',(0.,0.,1.));
#1396=DIRECTION('',(0.,0.,1.));
#1397=DIRECTION('',(0.,1.,0.));
#1398=DIRECTION('center_axis',(1.,2.77555756156289E-16,0.));
#1399=DIRECTION('ref_axis',(2.77555756156289E-16,-1.,0.));
#1400=DIRECTION('',(-2.77555756156289E-16,1.,0.));
#1401=DIRECTION('',(0.,0.,-1.));
#1402=DIRECTION('',(0.,0.,-1.));
#1403=DIRECTION('center_axis',(0.,1.,0.));
#1404=DIRECTION('ref_axis',(1.,0.,0.));
#1405=DIRECTION('',(-1.,0.,0.));
#1406=DIRECTION('',(0.,0.,1.));
#1407=DIRECTION('',(-6.93889390390723E-17,0.,1.));
#1408=DIRECTION('',(0.,0.,1.));
#1409=DIRECTION('center_axis',(-3.33066907387547E-16,-1.,0.));
#1410=DIRECTION('ref_axis',(-1.,3.33066907387547E-16,0.));
#1411=DIRECTION('',(1.,-3.33066907387547E-16,0.));
#1412=DIRECTION('',(0.,0.,-1.));
#1413=DIRECTION('',(-1.,3.33066907387547E-16,0.));
#1414=DIRECTION('',(0.,0.,-1.));
#1415=DIRECTION('center_axis',(0.,-1.,0.));
#1416=DIRECTION('ref_axis',(1.,0.,0.));
#1417=DIRECTION('',(-1.,0.,0.));
#1418=DIRECTION('',(0.,0.,1.));
#1419=DIRECTION('',(1.,0.,0.));
#1420=DIRECTION('center_axis',(0.,-1.,0.));
#1421=DIRECTION('ref_axis',(1.,0.,0.));
#1422=DIRECTION('',(0.,0.,1.));
#1423=DIRECTION('center_axis',(0.,1.,0.));
#1424=DIRECTION('ref_axis',(-1.,0.,0.));
#1425=DIRECTION('',(0.,0.,-1.));
#1426=DIRECTION('center_axis',(0.,-1.,0.));
#1427=DIRECTION('ref_axis',(0.,0.,1.));
#1428=DIRECTION('center_axis',(0.,-1.,0.));
#1429=DIRECTION('ref_axis',(0.,0.,1.));
#1430=DIRECTION('',(6.93889390390723E-17,0.,-1.));
#1431=DIRECTION('center_axis',(0.,1.,0.));
#1432=DIRECTION('ref_axis',(-1.,0.,0.));
#1433=DIRECTION('',(0.,0.,1.));
#1434=DIRECTION('',(-1.,0.,0.));
#1435=DIRECTION('center_axis',(0.,1.,0.));
#1436=DIRECTION('ref_axis',(-1.,0.,0.));
#1437=DIRECTION('',(-1.,0.,0.));
#1438=DIRECTION('',(0.,0.,-1.));
#1439=DIRECTION('center_axis',(0.,0.,-1.));
#1440=DIRECTION('ref_axis',(-1.,0.,0.));
#1441=DIRECTION('center_axis',(0.,0.,-1.));
#1442=DIRECTION('ref_axis',(-0.707106781186547,-0.707106781186548,0.));
#1443=DIRECTION('center_axis',(6.93889390390723E-17,0.,-1.));
#1444=DIRECTION('ref_axis',(-0.707106781186548,0.707106781186547,-1.57009245868377E-16));
#1445=DIRECTION('center_axis',(0.,0.,1.));
#1446=DIRECTION('ref_axis',(-0.707106781186547,-0.707106781186548,0.));
#1447=DIRECTION('center_axis',(0.,0.,1.));
#1448=DIRECTION('ref_axis',(-0.707106781186547,-0.707106781186548,0.));
#1449=DIRECTION('center_axis',(0.,0.,1.));
#1450=DIRECTION('ref_axis',(-0.707106781186547,-0.707106781186548,0.));
#1451=DIRECTION('center_axis',(0.,0.,1.));
#1452=DIRECTION('ref_axis',(-0.707106781186547,0.707106781186548,0.));
#1453=DIRECTION('center_axis',(0.,0.,1.));
#1454=DIRECTION('ref_axis',(-0.707106781186547,0.707106781186548,0.));
#1455=DIRECTION('center_axis',(0.,0.,1.));
#1456=DIRECTION('ref_axis',(-0.707106781186547,0.707106781186548,0.));
#1457=DIRECTION('center_axis',(0.,0.,1.));
#1458=DIRECTION('ref_axis',(0.707106781186547,-0.707106781186547,0.));
#1459=DIRECTION('',(0.,0.,-1.));
#1460=DIRECTION('center_axis',(0.,0.,1.));
#1461=DIRECTION('ref_axis',(0.707106781186547,-0.707106781186547,0.));
#1462=DIRECTION('center_axis',(0.,0.,1.));
#1463=DIRECTION('ref_axis',(0.707106781186547,0.707106781186547,0.));
#1464=DIRECTION('center_axis',(0.,0.,1.));
#1465=DIRECTION('ref_axis',(0.707106781186547,0.707106781186547,0.));
#1466=DIRECTION('center_axis',(0.,-1.,0.));
#1467=DIRECTION('ref_axis',(1.,0.,0.));
#1468=DIRECTION('',(1.,0.,0.));
#1469=DIRECTION('center_axis',(0.,0.,1.));
#1470=DIRECTION('ref_axis',(1.,0.,0.));
#1471=CARTESIAN_POINT('',(0.,0.,0.));
#1472=CARTESIAN_POINT('Origin',(31.,21.000000461936,9.));
#1473=CARTESIAN_POINT('',(39.9442719616452,22.,12.));
#1474=CARTESIAN_POINT('',(40.9498744174925,22.,6.));
#1475=CARTESIAN_POINT('Ctrl Pts',(39.9442719616452,22.,12.));
#1476=CARTESIAN_POINT('Ctrl Pts',(40.4206099668983,22.,9.15966889023401));
#1477=CARTESIAN_POINT('Ctrl Pts',(40.9498744174925,22.,6.));
#1478=CARTESIAN_POINT('',(31.,31.000000461936,6.));
#1479=CARTESIAN_POINT('Origin',(31.,21.000000461936,6.));
#1480=CARTESIAN_POINT('',(31.,30.000000461936,12.));
#1481=CARTESIAN_POINT('',(31.,31.000000461936,6.));
#1482=CARTESIAN_POINT('Origin',(31.,21.000000461936,12.));
#1483=CARTESIAN_POINT('Origin',(31.,30.500000461936,9.));
#1484=CARTESIAN_POINT('',(27.,31.000000461936,6.));
#1485=CARTESIAN_POINT('',(27.,30.000000461936,12.));
#1486=CARTESIAN_POINT('',(27.,30.2770274827206,10.3378378752921));
#1487=CARTESIAN_POINT('',(31.,30.000000461936,12.));
#1488=CARTESIAN_POINT('',(31.,31.000000461936,6.));
#1489=CARTESIAN_POINT('Origin',(31.,21.000000461936,5.00000010430813));
#1490=CARTESIAN_POINT('',(40.9498744174925,22.,5.95000010430813));
#1491=CARTESIAN_POINT('',(40.9498744174925,22.,7.00000010430813));
#1492=CARTESIAN_POINT('',(31.,31.000000461936,5.95000010430813));
#1493=CARTESIAN_POINT('Origin',(31.,21.000000461936,5.95000010430813));
#1494=CARTESIAN_POINT('',(31.,31.000000461936,5.00000010430813));
#1495=CARTESIAN_POINT('Origin',(32.,22.,12.));
#1496=CARTESIAN_POINT('',(32.,22.,12.));
#1497=CARTESIAN_POINT('',(26.5,22.,12.));
#1498=CARTESIAN_POINT('',(32.,22.,0.));
#1499=CARTESIAN_POINT('',(32.,22.,12.));
#1500=CARTESIAN_POINT('',(42.,22.,0.));
#1501=CARTESIAN_POINT('',(26.5,22.,0.));
#1502=CARTESIAN_POINT('',(42.,22.,5.00000010430813));
#1503=CARTESIAN_POINT('',(42.,22.,0.));
#1504=CARTESIAN_POINT('',(41.904242336076,22.,5.00000010430813));
#1505=CARTESIAN_POINT('',(37.,22.,5.00000010430813));
#1506=CARTESIAN_POINT('Ctrl Pts',(40.9498744174925,22.,5.95000010430813));
#1507=CARTESIAN_POINT('Ctrl Pts',(40.9498744174925,22.,5.8329354588353));
#1508=CARTESIAN_POINT('Ctrl Pts',(40.9773810536394,22.,5.69517721434802));
#1509=CARTESIAN_POINT('Ctrl Pts',(41.0673196577872,22.,5.47868692280854));
#1510=CARTESIAN_POINT('Ctrl Pts',(41.1457671462283,22.,5.36172048965574));
#1511=CARTESIAN_POINT('Ctrl Pts',(41.3122229721622,22.,5.19575575398777));
#1512=CARTESIAN_POINT('Ctrl Pts',(41.4297786996568,22.,5.11748126835901));
#1513=CARTESIAN_POINT('Ctrl Pts',(41.6475358364481,22.,5.02752540562967));
#1514=CARTESIAN_POINT('Ctrl Pts',(41.7863288938486,22.,5.00000010430813));
#1515=CARTESIAN_POINT('Ctrl Pts',(41.904242336076,22.,5.00000010430813));
#1516=CARTESIAN_POINT('Origin',(31.,1.50000001490116,9.));
#1517=CARTESIAN_POINT('',(27.,2.00000001490116,12.));
#1518=CARTESIAN_POINT('',(27.,1.00000001490116,6.));
#1519=CARTESIAN_POINT('',(27.,1.8581081228079,11.1486486474404));
#1520=CARTESIAN_POINT('',(31.,1.00000001490116,6.));
#1521=CARTESIAN_POINT('',(31.,1.00000001490116,6.));
#1522=CARTESIAN_POINT('',(31.,2.00000001490116,12.));
#1523=CARTESIAN_POINT('',(31.,1.00000001490116,6.));
#1524=CARTESIAN_POINT('',(31.,2.00000001490116,12.));
#1525=CARTESIAN_POINT('Origin',(31.,11.0000000149012,9.));
#1526=CARTESIAN_POINT('',(40.9498743695686,10.,6.));
#1527=CARTESIAN_POINT('',(39.9442719083332,10.,12.));
#1528=CARTESIAN_POINT('Ctrl Pts',(40.9498743695686,10.,6.));
#1529=CARTESIAN_POINT('Ctrl Pts',(40.4206099169834,10.,9.15966888689621));
#1530=CARTESIAN_POINT('Ctrl Pts',(39.9442719083332,10.,12.));
#1531=CARTESIAN_POINT('Origin',(31.,11.0000000149012,12.));
#1532=CARTESIAN_POINT('Origin',(31.,11.0000000149012,6.));
#1533=CARTESIAN_POINT('Origin',(31.,11.0000000149012,6.00000010430813));
#1534=CARTESIAN_POINT('',(31.,1.00000001490116,5.95000010430813));
#1535=CARTESIAN_POINT('',(31.,1.00000001490116,7.00000010430813));
#1536=CARTESIAN_POINT('',(40.9498743695686,10.,5.95000010430813));
#1537=CARTESIAN_POINT('Origin',(31.,11.0000000149012,5.95000010430813));
#1538=CARTESIAN_POINT('',(40.9498743695686,10.,7.00000010430813));
#1539=CARTESIAN_POINT('Origin',(41.,1.00000001490116,7.00000010430813));
#1540=CARTESIAN_POINT('',(27.,1.00000001490116,5.95000010430813));
#1541=CARTESIAN_POINT('',(27.,1.00000001490116,9.50000005215406));
#1542=CARTESIAN_POINT('',(41.5,1.00000001490116,5.95000010430813));
#1543=CARTESIAN_POINT('Origin',(27.,10.,12.));
#1544=CARTESIAN_POINT('',(27.,10.,12.));
#1545=CARTESIAN_POINT('',(27.,13.,12.));
#1546=CARTESIAN_POINT('',(27.,10.,0.));
#1547=CARTESIAN_POINT('',(27.,10.,12.));
#1548=CARTESIAN_POINT('',(27.,0.,0.));
#1549=CARTESIAN_POINT('',(27.,13.,0.));
#1550=CARTESIAN_POINT('',(27.,0.,5.00000010430813));
#1551=CARTESIAN_POINT('',(27.,0.,6.));
#1552=CARTESIAN_POINT('',(27.,0.0500000149011615,5.00000010430813));
#1553=CARTESIAN_POINT('',(27.,5.,5.00000010430813));
#1554=CARTESIAN_POINT('Origin',(27.,0.0500000149011612,5.95000010430813));
#1555=CARTESIAN_POINT('Origin',(41.0000004693866,0.0500000149011612,6.05000010430813));
#1556=CARTESIAN_POINT('',(11.,0.0500000149011612,7.00000010430813));
#1557=CARTESIAN_POINT('',(11.,1.00000001490116,6.05000010430813));
#1558=CARTESIAN_POINT('Origin',(11.,0.0500000149011612,6.05000010430813));
#1559=CARTESIAN_POINT('',(15.,1.00000001490116,6.05000010430813));
#1560=CARTESIAN_POINT('',(41.0000004693866,1.00000001490116,6.05000010430813));
#1561=CARTESIAN_POINT('',(15.,0.0500000149011612,7.00000010430813));
#1562=CARTESIAN_POINT('Origin',(15.,0.0500000149011612,6.05000010430813));
#1563=CARTESIAN_POINT('',(41.0000004693866,0.0500000149011612,7.00000010430813));
#1564=CARTESIAN_POINT('Origin',(11.,11.0000000149012,6.05000010430813));
#1565=CARTESIAN_POINT('',(0.0957577076535188,10.,7.00000010430813));
#1566=CARTESIAN_POINT('',(1.05012563043143,10.,6.05000010430813));
#1567=CARTESIAN_POINT('Ctrl Pts',(0.0957577076535187,10.,7.00000010430813));
#1568=CARTESIAN_POINT('Ctrl Pts',(0.213671150524989,10.,7.00000010430813));
#1569=CARTESIAN_POINT('Ctrl Pts',(0.352464208698553,10.,6.97247480291201));
#1570=CARTESIAN_POINT('Ctrl Pts',(0.570221346566082,10.,6.88251893996984));
#1571=CARTESIAN_POINT('Ctrl Pts',(0.687777074612925,10.,6.80424445423524));
#1572=CARTESIAN_POINT('Ctrl Pts',(0.854232901170401,10.,6.63827971841557));
#1573=CARTESIAN_POINT('Ctrl Pts',(0.93268038988361,10.,6.5213132852766));
#1574=CARTESIAN_POINT('Ctrl Pts',(1.02261899422783,10.,6.30482299387723));
#1575=CARTESIAN_POINT('Ctrl Pts',(1.05012563043142,10.,6.16706474961021));
#1576=CARTESIAN_POINT('Ctrl Pts',(1.05012563043142,10.,6.05000010430813));
#1577=CARTESIAN_POINT('Origin',(11.,11.0000000149012,6.05000010430813));
#1578=CARTESIAN_POINT('Origin',(11.,11.0000000149012,7.00000010430813));
#1579=CARTESIAN_POINT('Origin',(41.0000009387732,0.,7.00000010430813));
#1580=CARTESIAN_POINT('',(15.,0.,7.00000010430813));
#1581=CARTESIAN_POINT('',(15.,7.56970231278906E-16,7.00000010430813));
#1582=CARTESIAN_POINT('',(10.,0.,7.00000010430813));
#1583=CARTESIAN_POINT('',(20.5000004693866,0.,7.00000010430813));
#1584=CARTESIAN_POINT('',(-6.12323399573677E-16,10.,7.00000010430813));
#1585=CARTESIAN_POINT('Origin',(10.,10.,7.00000010430813));
#1586=CARTESIAN_POINT('',(25.5000004693866,9.99999999999999,7.00000010430813));
#1587=CARTESIAN_POINT('Origin',(11.,21.000000461936,6.05000010430813));
#1588=CARTESIAN_POINT('',(11.,31.950000461936,7.00000010430813));
#1589=CARTESIAN_POINT('',(11.,31.000000461936,6.05000010430813));
#1590=CARTESIAN_POINT('Origin',(11.,31.950000461936,6.05000010430813));
#1591=CARTESIAN_POINT('',(1.0501255825075,22.,6.05000010430813));
#1592=CARTESIAN_POINT('Origin',(11.,21.000000461936,6.05000010430813));
#1593=CARTESIAN_POINT('',(0.095757663924021,22.,7.00000010430813));
#1594=CARTESIAN_POINT('Ctrl Pts',(1.0501255825075,22.,6.05000010430813));
#1595=CARTESIAN_POINT('Ctrl Pts',(1.0501255825075,22.,6.16706474978096));
#1596=CARTESIAN_POINT('Ctrl Pts',(1.02261894636057,22.,6.30482299426824));
#1597=CARTESIAN_POINT('Ctrl Pts',(0.932680342212831,22.,6.52131328580772));
#1598=CARTESIAN_POINT('Ctrl Pts',(0.854232853771726,22.,6.63827971896052));
#1599=CARTESIAN_POINT('Ctrl Pts',(0.687777027837799,22.,6.80424445462849));
#1600=CARTESIAN_POINT('Ctrl Pts',(0.570221300343194,22.,6.88251894025725));
#1601=CARTESIAN_POINT('Ctrl Pts',(0.352464163551909,22.,6.97247480298658));
#1602=CARTESIAN_POINT('Ctrl Pts',(0.213671106151454,22.,7.00000010430813));
#1603=CARTESIAN_POINT('Ctrl Pts',(0.0957576639240209,22.,7.00000010430813));
#1604=CARTESIAN_POINT('Origin',(11.,21.000000461936,7.00000010430813));
#1605=CARTESIAN_POINT('Origin',(41.0000004693866,31.950000461936,6.05000010430813));
#1606=CARTESIAN_POINT('',(15.,31.950000461936,7.00000010430813));
#1607=CARTESIAN_POINT('',(15.,31.000000461936,6.05000010430813));
#1608=CARTESIAN_POINT('Origin',(15.,31.950000461936,6.05000010430813));
#1609=CARTESIAN_POINT('',(41.0000004693866,31.000000461936,6.05000010430813));
#1610=CARTESIAN_POINT('',(41.0000004693866,31.950000461936,7.00000010430813));
#1611=CARTESIAN_POINT('Origin',(41.0000009387732,0.,7.00000010430813));
#1612=CARTESIAN_POINT('',(-1.34711147906209E-15,22.,7.00000010430813));
#1613=CARTESIAN_POINT('',(20.5000004693866,22.,7.00000010430813));
#1614=CARTESIAN_POINT('',(10.,32.,7.00000010430813));
#1615=CARTESIAN_POINT('Origin',(10.,22.,7.00000010430813));
#1616=CARTESIAN_POINT('',(15.,32.,7.00000010430813));
#1617=CARTESIAN_POINT('',(41.5000004693866,32.,7.00000010430813));
#1618=CARTESIAN_POINT('',(15.,11.,7.00000010430813));
#1619=CARTESIAN_POINT('Origin',(31.,21.000000461936,5.95000010430813));
#1620=CARTESIAN_POINT('',(31.,31.950000461936,5.00000010430813));
#1621=CARTESIAN_POINT('Origin',(31.,31.950000461936,5.95000010430813));
#1622=CARTESIAN_POINT('Origin',(31.,21.000000461936,5.00000010430813));
#1623=CARTESIAN_POINT('Origin',(41.5,31.950000461936,5.95000010430813));
#1624=CARTESIAN_POINT('',(27.,31.950000461936,5.00000010430813));
#1625=CARTESIAN_POINT('',(27.,31.000000461936,5.95000010430813));
#1626=CARTESIAN_POINT('Origin',(27.,31.950000461936,5.95000010430813));
#1627=CARTESIAN_POINT('',(41.5,31.000000461936,5.95000010430813));
#1628=CARTESIAN_POINT('',(41.5,31.950000461936,5.00000010430813));
#1629=CARTESIAN_POINT('Origin',(42.,0.,5.00000010430813));
#1630=CARTESIAN_POINT('',(32.,32.,5.00000010430813));
#1631=CARTESIAN_POINT('Origin',(32.,22.,5.00000010430813));
#1632=CARTESIAN_POINT('',(27.,32.,5.00000010430813));
#1633=CARTESIAN_POINT('',(21.5,32.,5.00000010430813));
#1634=CARTESIAN_POINT('',(27.,16.,5.00000010430813));
#1635=CARTESIAN_POINT('Origin',(41.5,31.950000461936,5.95000010430813));
#1636=CARTESIAN_POINT('',(11.,31.950000461936,5.00000010430813));
#1637=CARTESIAN_POINT('',(11.,31.000000461936,5.95000010430813));
#1638=CARTESIAN_POINT('Origin',(11.,31.950000461936,5.95000010430813));
#1639=CARTESIAN_POINT('',(15.,31.000000461936,5.95000010430813));
#1640=CARTESIAN_POINT('',(41.5,31.000000461936,5.95000010430813));
#1641=CARTESIAN_POINT('',(15.,31.950000461936,5.00000010430813));
#1642=CARTESIAN_POINT('Origin',(15.,31.950000461936,5.95000010430813));
#1643=CARTESIAN_POINT('',(41.5,31.950000461936,5.00000010430813));
#1644=CARTESIAN_POINT('Origin',(11.,21.000000461936,5.95000010430813));
#1645=CARTESIAN_POINT('',(0.095757663924021,22.,5.00000010430813));
#1646=CARTESIAN_POINT('',(1.0501255825075,22.,5.95000010430813));
#1647=CARTESIAN_POINT('Ctrl Pts',(0.095757663924021,22.,5.00000010430813));
#1648=CARTESIAN_POINT('Ctrl Pts',(0.213671106151454,22.,5.00000010430813));
#1649=CARTESIAN_POINT('Ctrl Pts',(0.352464163551909,22.,5.02752540562967));
#1650=CARTESIAN_POINT('Ctrl Pts',(0.570221300343194,22.,5.11748126835901));
#1651=CARTESIAN_POINT('Ctrl Pts',(0.687777027837799,22.,5.19575575398776));
#1652=CARTESIAN_POINT('Ctrl Pts',(0.854232853771726,22.,5.36172048965573));
#1653=CARTESIAN_POINT('Ctrl Pts',(0.932680342212831,22.,5.47868692280853));
#1654=CARTESIAN_POINT('Ctrl Pts',(1.02261894636057,22.,5.69517721434801));
#1655=CARTESIAN_POINT('Ctrl Pts',(1.0501255825075,22.,5.8329354588353));
#1656=CARTESIAN_POINT('Ctrl Pts',(1.0501255825075,22.,5.95000010430813));
#1657=CARTESIAN_POINT('Origin',(11.,21.000000461936,5.95000010430813));
#1658=CARTESIAN_POINT('Origin',(11.,21.000000461936,5.00000010430813));
#1659=CARTESIAN_POINT('Origin',(42.,0.,5.00000010430813));
#1660=CARTESIAN_POINT('',(15.,32.,5.00000010430813));
#1661=CARTESIAN_POINT('',(15.,11.,5.00000010430813));
#1662=CARTESIAN_POINT('',(10.,32.,5.00000010430813));
#1663=CARTESIAN_POINT('',(21.5,32.,5.00000010430813));
#1664=CARTESIAN_POINT('',(-1.33883918629122E-15,22.,5.00000010430813));
#1665=CARTESIAN_POINT('Origin',(10.,22.,5.00000010430813));
#1666=CARTESIAN_POINT('',(21.,22.,5.00000010430813));
#1667=CARTESIAN_POINT('Origin',(41.5,0.0500000149011612,5.95000010430813));
#1668=CARTESIAN_POINT('',(11.,1.00000001490116,5.95000010430813));
#1669=CARTESIAN_POINT('',(11.,0.0500000149011612,5.00000010430813));
#1670=CARTESIAN_POINT('Origin',(11.,0.0500000149011612,5.95000010430813));
#1671=CARTESIAN_POINT('',(15.,0.0500000149011612,5.00000010430813));
#1672=CARTESIAN_POINT('',(41.5,0.0500000149011612,5.00000010430813));
#1673=CARTESIAN_POINT('',(15.,1.00000001490116,5.95000010430813));
#1674=CARTESIAN_POINT('Origin',(15.,0.0500000149011612,5.95000010430813));
#1675=CARTESIAN_POINT('',(41.5,1.00000001490116,5.95000010430813));
#1676=CARTESIAN_POINT('Origin',(11.,11.0000000149012,5.95000010430813));
#1677=CARTESIAN_POINT('',(1.05012563043143,10.,5.95000010430813));
#1678=CARTESIAN_POINT('',(0.0957577076535188,10.,5.00000010430813));
#1679=CARTESIAN_POINT('Ctrl Pts',(1.05012563043142,10.,5.95000010430813));
#1680=CARTESIAN_POINT('Ctrl Pts',(1.05012563043142,10.,5.83293545900605));
#1681=CARTESIAN_POINT('Ctrl Pts',(1.02261899422783,10.,5.69517721473902));
#1682=CARTESIAN_POINT('Ctrl Pts',(0.932680389883612,10.,5.47868692333966));
#1683=CARTESIAN_POINT('Ctrl Pts',(0.854232901170402,10.,5.36172049020068));
#1684=CARTESIAN_POINT('Ctrl Pts',(0.687777074612925,10.,5.19575575438101));
#1685=CARTESIAN_POINT('Ctrl Pts',(0.570221346566082,10.,5.11748126864642));
#1686=CARTESIAN_POINT('Ctrl Pts',(0.352464208698554,10.,5.02752540570424));
#1687=CARTESIAN_POINT('Ctrl Pts',(0.21367115052499,10.,5.00000010430813));
#1688=CARTESIAN_POINT('Ctrl Pts',(0.0957577076535188,10.,5.00000010430813));
#1689=CARTESIAN_POINT('Origin',(11.,11.0000000149012,5.00000010430813));
#1690=CARTESIAN_POINT('Origin',(11.,11.0000000149012,5.95000010430813));
#1691=CARTESIAN_POINT('Origin',(11.,11.0000000149012,7.00000010430813));
#1692=CARTESIAN_POINT('',(1.05012563043143,10.,7.00000010430813));
#1693=CARTESIAN_POINT('',(11.,1.00000001490116,7.00000010430813));
#1694=CARTESIAN_POINT('Origin',(41.,1.00000001490116,7.00000010430813));
#1695=CARTESIAN_POINT('',(15.,1.00000001490116,9.50000005215406));
#1696=CARTESIAN_POINT('Origin',(41.5,0.0500000149011612,5.95000010430813));
#1697=CARTESIAN_POINT('',(31.,0.0500000149011612,5.00000010430813));
#1698=CARTESIAN_POINT('Origin',(31.,0.0500000149011612,5.95000010430813));
#1699=CARTESIAN_POINT('',(41.5,0.0500000149011612,5.00000010430813));
#1700=CARTESIAN_POINT('Origin',(31.,11.0000000149012,5.95000010430813));
#1701=CARTESIAN_POINT('',(41.9042422923465,10.,5.00000010430813));
#1702=CARTESIAN_POINT('Ctrl Pts',(41.9042422923465,10.,5.00000010430813));
#1703=CARTESIAN_POINT('Ctrl Pts',(41.786328849475,10.,5.00000010430813));
#1704=CARTESIAN_POINT('Ctrl Pts',(41.6475357913015,10.,5.02752540570424));
#1705=CARTESIAN_POINT('Ctrl Pts',(41.4297786534339,10.,5.11748126864642));
#1706=CARTESIAN_POINT('Ctrl Pts',(41.3122229253871,10.,5.19575575438102));
#1707=CARTESIAN_POINT('Ctrl Pts',(41.1457670988296,10.,5.36172049020068));
#1708=CARTESIAN_POINT('Ctrl Pts',(41.0673196101164,10.,5.47868692333966));
#1709=CARTESIAN_POINT('Ctrl Pts',(40.9773810057722,10.,5.69517721473903));
#1710=CARTESIAN_POINT('Ctrl Pts',(40.9498743695686,10.,5.83293545900605));
#1711=CARTESIAN_POINT('Ctrl Pts',(40.9498743695686,10.,5.95000010430813));
#1712=CARTESIAN_POINT('Origin',(31.,11.0000000149012,5.00000010430813));
#1713=CARTESIAN_POINT('Origin',(42.,0.,5.00000010430813));
#1714=CARTESIAN_POINT('',(32.,0.,5.00000010430813));
#1715=CARTESIAN_POINT('',(0.5,0.,5.00000010430813));
#1716=CARTESIAN_POINT('',(42.,10.,5.00000010430813));
#1717=CARTESIAN_POINT('Origin',(32.,10.,5.00000010430813));
#1718=CARTESIAN_POINT('',(42.,10.,5.00000010430813));
#1719=CARTESIAN_POINT('Origin',(21.,16.,12.));
#1720=CARTESIAN_POINT('',(27.,22.,12.));
#1721=CARTESIAN_POINT('',(27.,24.,12.));
#1722=CARTESIAN_POINT('',(15.,22.,12.));
#1723=CARTESIAN_POINT('',(24.,22.,12.));
#1724=CARTESIAN_POINT('',(15.,32.,12.));
#1725=CARTESIAN_POINT('',(15.,19.,12.));
#1726=CARTESIAN_POINT('',(10.,32.,12.));
#1727=CARTESIAN_POINT('',(42.,32.,12.));
#1728=CARTESIAN_POINT('',(-1.34711147906209E-15,22.,12.));
#1729=CARTESIAN_POINT('Origin',(10.,22.,12.));
#1730=CARTESIAN_POINT('',(10.,22.,12.));
#1731=CARTESIAN_POINT('',(10.5,22.,12.));
#1732=CARTESIAN_POINT('',(10.,10.,12.));
#1733=CARTESIAN_POINT('',(10.,19.,12.));
#1734=CARTESIAN_POINT('',(-6.12323399573677E-16,10.,12.));
#1735=CARTESIAN_POINT('',(15.5,9.99999999999999,12.));
#1736=CARTESIAN_POINT('',(10.,0.,12.));
#1737=CARTESIAN_POINT('Origin',(10.,10.,12.));
#1738=CARTESIAN_POINT('',(15.,1.51394046255781E-15,12.));
#1739=CARTESIAN_POINT('',(0.,0.,12.));
#1740=CARTESIAN_POINT('',(15.,10.,12.));
#1741=CARTESIAN_POINT('',(15.,8.,12.));
#1742=CARTESIAN_POINT('',(18.,10.,12.));
#1743=CARTESIAN_POINT('',(32.,10.,12.));
#1744=CARTESIAN_POINT('',(31.5,10.,12.));
#1745=CARTESIAN_POINT('',(32.,13.,12.));
#1746=CARTESIAN_POINT('Origin',(42.,10.,12.));
#1747=CARTESIAN_POINT('',(42.,10.,0.));
#1748=CARTESIAN_POINT('',(42.,10.,0.));
#1749=CARTESIAN_POINT('',(32.,10.,0.));
#1750=CARTESIAN_POINT('',(31.5,10.,0.));
#1751=CARTESIAN_POINT('',(32.,10.,12.));
#1752=CARTESIAN_POINT('Origin',(32.,10.,12.));
#1753=CARTESIAN_POINT('',(32.,13.,0.));
#1754=CARTESIAN_POINT('Origin',(15.,10.,12.));
#1755=CARTESIAN_POINT('',(15.,10.,0.));
#1756=CARTESIAN_POINT('',(18.,10.,0.));
#1757=CARTESIAN_POINT('',(15.,10.,12.));
#1758=CARTESIAN_POINT('Origin',(15.,1.51394046255781E-15,12.));
#1759=CARTESIAN_POINT('',(15.,0.,0.));
#1760=CARTESIAN_POINT('',(15.,8.,0.));
#1761=CARTESIAN_POINT('',(15.,0.,6.));
#1762=CARTESIAN_POINT('',(15.,1.51394046255781E-15,5.00000010430813));
#1763=CARTESIAN_POINT('',(15.,7.56970231278906E-16,5.00000010430813));
#1764=CARTESIAN_POINT('',(15.,0.,6.));
#1765=CARTESIAN_POINT('Origin',(15.,22.,12.));
#1766=CARTESIAN_POINT('',(15.,32.,6.));
#1767=CARTESIAN_POINT('',(15.,22.,0.));
#1768=CARTESIAN_POINT('',(15.,22.,12.));
#1769=CARTESIAN_POINT('',(15.,32.,0.));
#1770=CARTESIAN_POINT('',(15.,19.,0.));
#1771=CARTESIAN_POINT('',(15.,32.,6.));
#1772=CARTESIAN_POINT('',(15.,31.000000461936,8.50000005215407));
#1773=CARTESIAN_POINT('Origin',(27.,22.,12.));
#1774=CARTESIAN_POINT('',(27.,22.,0.));
#1775=CARTESIAN_POINT('',(24.,22.,0.));
#1776=CARTESIAN_POINT('',(27.,22.,12.));
#1777=CARTESIAN_POINT('Origin',(27.,32.,12.));
#1778=CARTESIAN_POINT('',(27.,31.000000461936,8.50000005215407));
#1779=CARTESIAN_POINT('',(27.,32.,0.));
#1780=CARTESIAN_POINT('',(27.,32.,6.));
#1781=CARTESIAN_POINT('',(27.,24.,0.));
#1782=CARTESIAN_POINT('Origin',(10.,22.,12.));
#1783=CARTESIAN_POINT('',(10.,10.,0.));
#1784=CARTESIAN_POINT('',(10.,22.,0.));
#1785=CARTESIAN_POINT('',(10.,19.,0.));
#1786=CARTESIAN_POINT('',(10.,10.,12.));
#1787=CARTESIAN_POINT('',(10.,22.,12.));
#1788=CARTESIAN_POINT('Origin',(-1.11022302462516E-15,22.,12.));
#1789=CARTESIAN_POINT('',(-1.34711147906209E-15,22.,0.));
#1790=CARTESIAN_POINT('',(10.5,22.,0.));
#1791=CARTESIAN_POINT('',(-1.11022302462516E-15,22.,0.));
#1792=CARTESIAN_POINT('',(1.0501255825075,22.,6.00000010430813));
#1793=CARTESIAN_POINT('',(-1.11022302462516E-15,22.,0.));
#1794=CARTESIAN_POINT('Origin',(10.,10.,12.));
#1795=CARTESIAN_POINT('',(-6.12323399573677E-16,10.,0.));
#1796=CARTESIAN_POINT('',(15.5,9.99999999999999,0.));
#1797=CARTESIAN_POINT('',(-6.04051106802806E-16,10.,5.00000010430813));
#1798=CARTESIAN_POINT('',(0.,10.,0.));
#1799=CARTESIAN_POINT('',(26.,9.99999999999999,5.00000010430813));
#1800=CARTESIAN_POINT('',(0.,10.,0.));
#1801=CARTESIAN_POINT('Origin',(2.46519032881566E-31,0.,0.));
#1802=CARTESIAN_POINT('',(10.,0.,5.00000010430813));
#1803=CARTESIAN_POINT('',(0.5,0.,5.00000010430813));
#1804=CARTESIAN_POINT('',(10.,0.,0.));
#1805=CARTESIAN_POINT('',(10.,0.,0.));
#1806=CARTESIAN_POINT('',(0.,0.,0.));
#1807=CARTESIAN_POINT('Origin',(2.46519032881566E-31,0.,0.));
#1808=CARTESIAN_POINT('',(10.,0.,0.));
#1809=CARTESIAN_POINT('Origin',(42.,32.,0.));
#1810=CARTESIAN_POINT('',(10.,32.,0.));
#1811=CARTESIAN_POINT('Origin',(41.,31.000000461936,5.00000010430813));
#1812=CARTESIAN_POINT('Origin',(41.,31.000000461936,5.00000010430813));
#1813=CARTESIAN_POINT('',(11.,31.000000461936,6.00000010430813));
#1814=CARTESIAN_POINT('Origin',(42.,32.,0.));
#1815=CARTESIAN_POINT('',(32.,32.,0.));
#1816=CARTESIAN_POINT('',(32.,32.,0.));
#1817=CARTESIAN_POINT('',(42.,32.,0.));
#1818=CARTESIAN_POINT('Origin',(42.,32.,0.));
#1819=CARTESIAN_POINT('',(10.,32.,0.));
#1820=CARTESIAN_POINT('',(42.,32.,0.));
#1821=CARTESIAN_POINT('',(10.,32.,0.));
#1822=CARTESIAN_POINT('Origin',(42.,0.,5.00000010430813));
#1823=CARTESIAN_POINT('Origin',(10.,10.,5.00000010430813));
#1824=CARTESIAN_POINT('Origin',(11.,21.000000461936,6.00000010430813));
#1825=CARTESIAN_POINT('Origin',(10.,10.,0.));
#1826=CARTESIAN_POINT('Origin',(10.,10.,0.));
#1827=CARTESIAN_POINT('Origin',(10.,10.,0.));
#1828=CARTESIAN_POINT('Origin',(10.,22.,0.));
#1829=CARTESIAN_POINT('Origin',(10.,22.,0.));
#1830=CARTESIAN_POINT('Origin',(10.,22.,0.));
#1831=CARTESIAN_POINT('Origin',(32.,10.,0.));
#1832=CARTESIAN_POINT('',(32.,0.,0.));
#1833=CARTESIAN_POINT('',(32.,0.,0.));
#1834=CARTESIAN_POINT('Origin',(32.,10.,0.));
#1835=CARTESIAN_POINT('Origin',(32.,22.,0.));
#1836=CARTESIAN_POINT('Origin',(32.,22.,0.));
#1837=CARTESIAN_POINT('Origin',(2.46519032881566E-31,0.,0.));
#1838=CARTESIAN_POINT('',(0.,0.,0.));
#1839=CARTESIAN_POINT('Origin',(21.,16.,0.));
#1840=UNCERTAINTY_MEASURE_WITH_UNIT(LENGTH_MEASURE(0.01),#1844,
'DISTANCE_ACCURACY_VALUE',
'Maximum model space distance between geometric entities at asserted c
onnectivities');
#1841=UNCERTAINTY_MEASURE_WITH_UNIT(LENGTH_MEASURE(0.01),#1844,
'DISTANCE_ACCURACY_VALUE',
'Maximum model space distance between geometric entities at asserted c
onnectivities');
#1842=(
GEOMETRIC_REPRESENTATION_CONTEXT(3)
GLOBAL_UNCERTAINTY_ASSIGNED_CONTEXT((#1840))
GLOBAL_UNIT_ASSIGNED_CONTEXT((#1844,#1846,#1847))
REPRESENTATION_CONTEXT('','3D')
);
#1843=(
GEOMETRIC_REPRESENTATION_CONTEXT(3)
GLOBAL_UNCERTAINTY_ASSIGNED_CONTEXT((#1841))
GLOBAL_UNIT_ASSIGNED_CONTEXT((#1844,#1846,#1847))
REPRESENTATION_CONTEXT('','3D')
);
#1844=(
LENGTH_UNIT()
NAMED_UNIT(*)
SI_UNIT(.MILLI.,.METRE.)
);
#1845=(
LENGTH_UNIT()
NAMED_UNIT(*)
SI_UNIT($,.METRE.)
);
#1846=(
NAMED_UNIT(*)
PLANE_ANGLE_UNIT()
SI_UNIT($,.RADIAN.)
);
#1847=(
NAMED_UNIT(*)
SI_UNIT($,.STERADIAN.)
SOLID_ANGLE_UNIT()
);
#1848=SHAPE_DEFINITION_REPRESENTATION(#1849,#1850);
#1849=PRODUCT_DEFINITION_SHAPE('',$,#1852);
#1850=SHAPE_REPRESENTATION('',(#1074),#1842);
#1851=PRODUCT_DEFINITION_CONTEXT('part definition',#1856,'design');
#1852=PRODUCT_DEFINITION('Jig_Draht','Jig_Draht v1',#1853,#1851);
#1853=PRODUCT_DEFINITION_FORMATION('',$,#1858);
#1854=PRODUCT_RELATED_PRODUCT_CATEGORY('Jig_Draht v1','Jig_Draht v1',(#1858));
#1855=APPLICATION_PROTOCOL_DEFINITION('international standard',
'automotive_design',2009,#1856);
#1856=APPLICATION_CONTEXT(
'Core Data for Automotive Mechanical Design Process');
#1857=PRODUCT_CONTEXT('part definition',#1856,'mechanical');
#1858=PRODUCT('Jig_Draht','Jig_Draht v1',$,(#1857));
#1859=PRESENTATION_STYLE_ASSIGNMENT((#1860));
#1860=SURFACE_STYLE_USAGE(.BOTH.,#1861);
#1861=SURFACE_SIDE_STYLE('',(#1862));
#1862=SURFACE_STYLE_FILL_AREA(#1863);
#1863=FILL_AREA_STYLE('Stahl - satiniert',(#1864));
#1864=FILL_AREA_STYLE_COLOUR('Stahl - satiniert',#1865);
#1865=COLOUR_RGB('Stahl - satiniert',0.627450980392157,0.627450980392157,
0.627450980392157);
ENDSEC;
END-ISO-10303-21;
