ISO-10303-21;
HEADER;
/* Generated by software containing ST-Developer
 * from STEP Tools, Inc. (www.steptools.com) 
 */

FILE_DESCRIPTION(
/* description */ (''),
/* implementation_level */ '2;1');

FILE_NAME(
/* name */ 'Strommesszangenhalter_Messwindungshalter.step',
/* time_stamp */ '2026-06-28T16:56:05+02:00',
/* author */ (''),
/* organization */ (''),
/* preprocessor_version */ 'ST-DEVELOPER v20.1',
/* originating_system */ 'Autodesk Translation Framework v15.8.0.0',
/* authorisation */ '');

FILE_SCHEMA (('AUTOMOTIVE_DESIGN { 1 0 10303 214 3 1 1 }'));
ENDSEC;

DATA;
#10=MECHANICAL_DESIGN_GEOMETRIC_PRESENTATION_REPRESENTATION('',(#13),#1563);
#11=SHAPE_REPRESENTATION_RELATIONSHIP('SRR','None',#1570,#12);
#12=ADVANCED_BREP_SHAPE_REPRESENTATION('',(#14),#1562);
#13=STYLED_ITEM('',(#1579),#14);
#14=MANIFOLD_SOLID_BREP('Halter_Windungen_V',#822);
#15=TOROIDAL_SURFACE('',#875,9.5,4.5);
#16=TOROIDAL_SURFACE('',#881,9.5,4.5);
#17=TOROIDAL_SURFACE('',#887,10.5,4.5);
#18=TOROIDAL_SURFACE('',#892,10.5,4.5);
#19=TOROIDAL_SURFACE('',#909,10.,3.99999999999998);
#20=TOROIDAL_SURFACE('',#920,10.,3.99999999999998);
#21=TOROIDAL_SURFACE('',#927,10.,3.99999999999998);
#22=TOROIDAL_SURFACE('',#934,10.,3.99999999999998);
#23=B_SPLINE_CURVE_WITH_KNOTS('',3,(#1299,#1300,#1301,#1302,#1303,#1304,
#1305,#1306,#1307,#1308,#1309,#1310,#1311,#1312,#1313,#1314,#1315,#1316),
 .UNSPECIFIED.,.F.,.F.,(4,2,2,2,2,2,2,2,4),(-1.88351041523815,-1.77554245398183,
-1.59332329007064,-1.44693937222412,-1.36113408626063,-1.29428385757693,
-1.21764228851451,-1.09149277457782,-1.02795610533172),.UNSPECIFIED.);
#24=B_SPLINE_CURVE_WITH_KNOTS('',3,(#1320,#1321,#1322,#1323,#1324,#1325,
#1326,#1327,#1328,#1329,#1330,#1331,#1332,#1333,#1334,#1335,#1336,#1337,
#1338,#1339),.UNSPECIFIED.,.F.,.F.,(4,2,2,2,2,2,2,2,2,4),(-1.60400603012621,
-1.59332329007083,-1.44693937222424,-1.36113408626073,-1.29428385757699,
-1.21764228851455,-1.09149277457784,-0.901511903811045,-0.763404508517687,
-0.737056614212473),.UNSPECIFIED.);
#25=B_SPLINE_CURVE_WITH_KNOTS('',3,(#1346,#1347,#1348,#1349,#1350,#1351,
#1352,#1353),.UNSPECIFIED.,.F.,.F.,(4,2,2,4),(0.,0.272322733205567,0.544645466411134,
0.595460850432342),.UNSPECIFIED.);
#26=B_SPLINE_CURVE_WITH_KNOTS('',3,(#1373,#1374,#1375,#1376,#1377,#1378,
#1379,#1380),.UNSPECIFIED.,.F.,.F.,(4,2,2,4),(2.60642185706058,2.65723724108179,
2.92955997428735,3.20188270749292),.UNSPECIFIED.);
#27=B_SPLINE_CURVE_WITH_KNOTS('',3,(#1405,#1406,#1407,#1408,#1409,#1410,
#1411,#1412,#1413,#1414,#1415,#1416,#1417,#1418,#1419,#1420,#1421,#1422),
 .UNSPECIFIED.,.F.,.F.,(4,2,2,2,2,2,2,2,4),(0.,0.0769830413836162,0.153966082767232,
0.230739264622184,0.307512446477135,0.384285628332086,0.461058810187037,
0.538041851570654,0.61502489295427),.UNSPECIFIED.);
#28=B_SPLINE_CURVE_WITH_KNOTS('',3,(#1423,#1424,#1425,#1426,#1427,#1428,
#1429,#1430,#1431,#1432,#1433,#1434,#1435,#1436,#1437,#1438,#1439,#1440),
 .UNSPECIFIED.,.F.,.F.,(4,2,2,2,2,2,2,2,4),(0.61502489295427,0.692007934337886,
0.768990975721502,0.845764157576454,0.922537339431405,0.999310521286356,
1.07608370314131,1.15306674452492,1.23004978590854),.UNSPECIFIED.);
#29=B_SPLINE_CURVE_WITH_KNOTS('',3,(#1444,#1445,#1446,#1447,#1448,#1449,
#1450,#1451,#1452,#1453,#1454,#1455,#1456,#1457,#1458,#1459,#1460,#1461,
#1462,#1463,#1464,#1465,#1466,#1467,#1468,#1469,#1470,#1471,#1472,#1473,
#1474,#1475,#1476,#1477),.UNSPECIFIED.,.T.,.F.,(4,2,2,2,2,2,2,2,2,2,2,2,
2,2,2,2,4),(0.,0.0769830413836162,0.153966082767232,0.230739264622184,0.307512446477135,
0.384285628332086,0.461058810187038,0.538041851570654,0.61502489295427,
0.692007934337886,0.768990975721502,0.845764157576454,0.922537339431405,
0.999310521286356,1.07608370314131,1.15306674452492,1.23004978590854),
 .UNSPECIFIED.);
#30=FACE_BOUND('',#97,.T.);
#31=FACE_BOUND('',#98,.T.);
#32=FACE_BOUND('',#99,.T.);
#33=FACE_BOUND('',#100,.T.);
#34=FACE_BOUND('',#125,.T.);
#35=FACE_BOUND('',#126,.T.);
#36=FACE_BOUND('',#127,.T.);
#37=FACE_BOUND('',#137,.T.);
#38=FACE_BOUND('',#141,.T.);
#39=FACE_BOUND('',#144,.T.);
#40=PLANE('',#839);
#41=PLANE('',#840);
#42=PLANE('',#868);
#43=PLANE('',#874);
#44=PLANE('',#884);
#45=PLANE('',#899);
#46=PLANE('',#902);
#47=PLANE('',#903);
#48=PLANE('',#915);
#49=PLANE('',#918);
#50=PLANE('',#932);
#51=PLANE('',#937);
#52=FACE_OUTER_BOUND('',#94,.T.);
#53=FACE_OUTER_BOUND('',#95,.T.);
#54=FACE_OUTER_BOUND('',#96,.T.);
#55=FACE_OUTER_BOUND('',#101,.T.);
#56=FACE_OUTER_BOUND('',#102,.T.);
#57=FACE_OUTER_BOUND('',#103,.T.);
#58=FACE_OUTER_BOUND('',#104,.T.);
#59=FACE_OUTER_BOUND('',#105,.T.);
#60=FACE_OUTER_BOUND('',#106,.T.);
#61=FACE_OUTER_BOUND('',#107,.T.);
#62=FACE_OUTER_BOUND('',#108,.T.);
#63=FACE_OUTER_BOUND('',#109,.T.);
#64=FACE_OUTER_BOUND('',#110,.T.);
#65=FACE_OUTER_BOUND('',#111,.T.);
#66=FACE_OUTER_BOUND('',#112,.T.);
#67=FACE_OUTER_BOUND('',#113,.T.);
#68=FACE_OUTER_BOUND('',#114,.T.);
#69=FACE_OUTER_BOUND('',#115,.T.);
#70=FACE_OUTER_BOUND('',#116,.T.);
#71=FACE_OUTER_BOUND('',#117,.T.);
#72=FACE_OUTER_BOUND('',#118,.T.);
#73=FACE_OUTER_BOUND('',#119,.T.);
#74=FACE_OUTER_BOUND('',#120,.T.);
#75=FACE_OUTER_BOUND('',#121,.T.);
#76=FACE_OUTER_BOUND('',#122,.T.);
#77=FACE_OUTER_BOUND('',#123,.T.);
#78=FACE_OUTER_BOUND('',#124,.T.);
#79=FACE_OUTER_BOUND('',#128,.T.);
#80=FACE_OUTER_BOUND('',#129,.T.);
#81=FACE_OUTER_BOUND('',#130,.T.);
#82=FACE_OUTER_BOUND('',#131,.T.);
#83=FACE_OUTER_BOUND('',#132,.T.);
#84=FACE_OUTER_BOUND('',#133,.T.);
#85=FACE_OUTER_BOUND('',#134,.T.);
#86=FACE_OUTER_BOUND('',#135,.T.);
#87=FACE_OUTER_BOUND('',#136,.T.);
#88=FACE_OUTER_BOUND('',#138,.T.);
#89=FACE_OUTER_BOUND('',#139,.T.);
#90=FACE_OUTER_BOUND('',#140,.T.);
#91=FACE_OUTER_BOUND('',#142,.T.);
#92=FACE_OUTER_BOUND('',#143,.T.);
#93=FACE_OUTER_BOUND('',#145,.T.);
#94=EDGE_LOOP('',(#516,#517,#518,#519));
#95=EDGE_LOOP('',(#520,#521,#522,#523));
#96=EDGE_LOOP('',(#524,#525,#526,#527,#528,#529,#530,#531,#532,#533,#534,
#535,#536,#537,#538,#539,#540,#541,#542,#543));
#97=EDGE_LOOP('',(#544));
#98=EDGE_LOOP('',(#545));
#99=EDGE_LOOP('',(#546));
#100=EDGE_LOOP('',(#547));
#101=EDGE_LOOP('',(#548,#549,#550,#551));
#102=EDGE_LOOP('',(#552,#553,#554,#555));
#103=EDGE_LOOP('',(#556,#557,#558,#559));
#104=EDGE_LOOP('',(#560,#561,#562,#563));
#105=EDGE_LOOP('',(#564,#565,#566,#567));
#106=EDGE_LOOP('',(#568,#569,#570,#571));
#107=EDGE_LOOP('',(#572,#573,#574,#575,#576,#577));
#108=EDGE_LOOP('',(#578,#579,#580,#581,#582));
#109=EDGE_LOOP('',(#583,#584,#585,#586,#587));
#110=EDGE_LOOP('',(#588,#589,#590,#591,#592));
#111=EDGE_LOOP('',(#593,#594,#595,#596,#597));
#112=EDGE_LOOP('',(#598,#599,#600,#601));
#113=EDGE_LOOP('',(#602,#603,#604,#605,#606));
#114=EDGE_LOOP('',(#607,#608,#609,#610,#611,#612,#613,#614,#615,#616));
#115=EDGE_LOOP('',(#617,#618,#619,#620));
#116=EDGE_LOOP('',(#621,#622,#623,#624));
#117=EDGE_LOOP('',(#625,#626,#627,#628));
#118=EDGE_LOOP('',(#629,#630,#631,#632,#633));
#119=EDGE_LOOP('',(#634,#635,#636,#637));
#120=EDGE_LOOP('',(#638,#639,#640,#641));
#121=EDGE_LOOP('',(#642,#643,#644,#645,#646,#647));
#122=EDGE_LOOP('',(#648,#649,#650,#651));
#123=EDGE_LOOP('',(#652,#653,#654,#655));
#124=EDGE_LOOP('',(#656,#657,#658,#659,#660,#661,#662,#663,#664,#665,#666,
#667,#668,#669,#670,#671));
#125=EDGE_LOOP('',(#672));
#126=EDGE_LOOP('',(#673));
#127=EDGE_LOOP('',(#674,#675,#676,#677,#678,#679,#680,#681));
#128=EDGE_LOOP('',(#682,#683,#684,#685));
#129=EDGE_LOOP('',(#686,#687,#688,#689));
#130=EDGE_LOOP('',(#690,#691,#692,#693));
#131=EDGE_LOOP('',(#694,#695,#696,#697));
#132=EDGE_LOOP('',(#698,#699,#700,#701));
#133=EDGE_LOOP('',(#702,#703,#704,#705));
#134=EDGE_LOOP('',(#706,#707,#708,#709));
#135=EDGE_LOOP('',(#710,#711,#712,#713));
#136=EDGE_LOOP('',(#714,#715,#716,#717));
#137=EDGE_LOOP('',(#718,#719));
#138=EDGE_LOOP('',(#720,#721,#722,#723));
#139=EDGE_LOOP('',(#724,#725,#726,#727));
#140=EDGE_LOOP('',(#728,#729,#730,#731,#732,#733,#734,#735));
#141=EDGE_LOOP('',(#736,#737,#738,#739,#740,#741,#742,#743));
#142=EDGE_LOOP('',(#744,#745,#746,#747));
#143=EDGE_LOOP('',(#748,#749,#750,#751));
#144=EDGE_LOOP('',(#752));
#145=EDGE_LOOP('',(#753,#754,#755,#756,#757));
#146=LINE('',#1204,#200);
#147=LINE('',#1207,#201);
#148=LINE('',#1210,#202);
#149=LINE('',#1212,#203);
#150=LINE('',#1213,#204);
#151=LINE('',#1216,#205);
#152=LINE('',#1220,#206);
#153=LINE('',#1224,#207);
#154=LINE('',#1228,#208);
#155=LINE('',#1232,#209);
#156=LINE('',#1236,#210);
#157=LINE('',#1244,#211);
#158=LINE('',#1260,#212);
#159=LINE('',#1264,#213);
#160=LINE('',#1270,#214);
#161=LINE('',#1271,#215);
#162=LINE('',#1275,#216);
#163=LINE('',#1279,#217);
#164=LINE('',#1282,#218);
#165=LINE('',#1285,#219);
#166=LINE('',#1288,#220);
#167=LINE('',#1290,#221);
#168=LINE('',#1293,#222);
#169=LINE('',#1298,#223);
#170=LINE('',#1340,#224);
#171=LINE('',#1342,#225);
#172=LINE('',#1355,#226);
#173=LINE('',#1356,#227);
#174=LINE('',#1365,#228);
#175=LINE('',#1368,#229);
#176=LINE('',#1383,#230);
#177=LINE('',#1387,#231);
#178=LINE('',#1396,#232);
#179=LINE('',#1403,#233);
#180=LINE('',#1443,#234);
#181=LINE('',#1480,#235);
#182=LINE('',#1483,#236);
#183=LINE('',#1486,#237);
#184=LINE('',#1489,#238);
#185=LINE('',#1493,#239);
#186=LINE('',#1496,#240);
#187=LINE('',#1500,#241);
#188=LINE('',#1504,#242);
#189=LINE('',#1508,#243);
#190=LINE('',#1518,#244);
#191=LINE('',#1521,#245);
#192=LINE('',#1523,#246);
#193=LINE('',#1527,#247);
#194=LINE('',#1530,#248);
#195=LINE('',#1531,#249);
#196=LINE('',#1542,#250);
#197=LINE('',#1550,#251);
#198=LINE('',#1553,#252);
#199=LINE('',#1555,#253);
#200=VECTOR('',#944,10.);
#201=VECTOR('',#947,10.);
#202=VECTOR('',#950,10.);
#203=VECTOR('',#951,5.);
#204=VECTOR('',#952,10.);
#205=VECTOR('',#955,10.);
#206=VECTOR('',#958,10.);
#207=VECTOR('',#961,10.);
#208=VECTOR('',#964,10.);
#209=VECTOR('',#967,10.);
#210=VECTOR('',#970,10.);
#211=VECTOR('',#977,10.);
#212=VECTOR('',#994,5.);
#213=VECTOR('',#999,10.);
#214=VECTOR('',#1006,5.);
#215=VECTOR('',#1007,5.);
#216=VECTOR('',#1012,10.);
#217=VECTOR('',#1017,10.);
#218=VECTOR('',#1020,10.);
#219=VECTOR('',#1023,10.);
#220=VECTOR('',#1026,10.);
#221=VECTOR('',#1027,10.);
#222=VECTOR('',#1030,10.);
#223=VECTOR('',#1035,10.);
#224=VECTOR('',#1038,10.);
#225=VECTOR('',#1039,10.);
#226=VECTOR('',#1044,10.);
#227=VECTOR('',#1045,10.);
#228=VECTOR('',#1056,10.);
#229=VECTOR('',#1059,10.);
#230=VECTOR('',#1068,10.);
#231=VECTOR('',#1071,10.);
#232=VECTOR('',#1084,10.);
#233=VECTOR('',#1093,2.00000002980232);
#234=VECTOR('',#1096,2.00000002980232);
#235=VECTOR('',#1099,1.4);
#236=VECTOR('',#1104,10.);
#237=VECTOR('',#1107,1.4);
#238=VECTOR('',#1112,10.);
#239=VECTOR('',#1117,10.);
#240=VECTOR('',#1118,10.);
#241=VECTOR('',#1121,10.);
#242=VECTOR('',#1124,10.);
#243=VECTOR('',#1127,10.);
#244=VECTOR('',#1140,10.);
#245=VECTOR('',#1143,10.);
#246=VECTOR('',#1146,10.);
#247=VECTOR('',#1151,10.);
#248=VECTOR('',#1154,10.);
#249=VECTOR('',#1155,10.);
#250=VECTOR('',#1172,10.);
#251=VECTOR('',#1183,10.);
#252=VECTOR('',#1186,10.);
#253=VECTOR('',#1189,10.);
#254=CIRCLE('',#837,5.);
#255=CIRCLE('',#838,5.);
#256=CIRCLE('',#841,5.);
#257=CIRCLE('',#842,5.);
#258=CIRCLE('',#843,5.);
#259=CIRCLE('',#844,5.);
#260=CIRCLE('',#845,5.);
#261=CIRCLE('',#846,5.);
#262=CIRCLE('',#847,5.);
#263=CIRCLE('',#848,15.);
#264=CIRCLE('',#849,15.);
#265=CIRCLE('',#850,5.);
#266=CIRCLE('',#851,5.);
#267=CIRCLE('',#852,1.4);
#268=CIRCLE('',#853,1.4);
#269=CIRCLE('',#854,2.00000002980232);
#270=CIRCLE('',#855,2.00000002980232);
#271=CIRCLE('',#857,5.);
#272=CIRCLE('',#859,5.);
#273=CIRCLE('',#861,5.);
#274=CIRCLE('',#863,5.);
#275=CIRCLE('',#865,15.);
#276=CIRCLE('',#867,5.);
#277=CIRCLE('',#869,4.5);
#278=CIRCLE('',#871,5.);
#279=CIRCLE('',#873,5.);
#280=CIRCLE('',#876,9.5);
#281=CIRCLE('',#877,4.5);
#282=CIRCLE('',#878,4.99999999999999);
#283=CIRCLE('',#880,4.5);
#284=CIRCLE('',#882,5.);
#285=CIRCLE('',#883,9.5);
#286=CIRCLE('',#885,10.5);
#287=CIRCLE('',#886,10.5);
#288=CIRCLE('',#888,4.5);
#289=CIRCLE('',#889,15.);
#290=CIRCLE('',#891,4.5);
#291=CIRCLE('',#893,4.5);
#292=CIRCLE('',#894,15.);
#293=CIRCLE('',#898,1.4);
#294=CIRCLE('',#901,1.4);
#295=CIRCLE('',#904,15.);
#296=CIRCLE('',#905,14.);
#297=CIRCLE('',#906,14.);
#298=CIRCLE('',#907,14.);
#299=CIRCLE('',#908,14.);
#300=CIRCLE('',#910,3.99999999999998);
#301=CIRCLE('',#911,3.99999999999998);
#302=CIRCLE('',#912,6.00000000000001);
#303=CIRCLE('',#914,5.);
#304=CIRCLE('',#917,3.99999999999998);
#305=CIRCLE('',#921,3.99999999999998);
#306=CIRCLE('',#922,6.00000000000002);
#307=CIRCLE('',#924,5.);
#308=CIRCLE('',#926,3.99999999999998);
#309=CIRCLE('',#928,3.99999999999998);
#310=CIRCLE('',#929,6.00000000000001);
#311=CIRCLE('',#931,3.99999999999998);
#312=CIRCLE('',#933,6.00000000000002);
#313=CIRCLE('',#935,3.99999999999998);
#314=VERTEX_POINT('',#1200);
#315=VERTEX_POINT('',#1201);
#316=VERTEX_POINT('',#1203);
#317=VERTEX_POINT('',#1205);
#318=VERTEX_POINT('',#1209);
#319=VERTEX_POINT('',#1211);
#320=VERTEX_POINT('',#1215);
#321=VERTEX_POINT('',#1217);
#322=VERTEX_POINT('',#1219);
#323=VERTEX_POINT('',#1221);
#324=VERTEX_POINT('',#1223);
#325=VERTEX_POINT('',#1225);
#326=VERTEX_POINT('',#1227);
#327=VERTEX_POINT('',#1229);
#328=VERTEX_POINT('',#1231);
#329=VERTEX_POINT('',#1233);
#330=VERTEX_POINT('',#1235);
#331=VERTEX_POINT('',#1237);
#332=VERTEX_POINT('',#1239);
#333=VERTEX_POINT('',#1241);
#334=VERTEX_POINT('',#1243);
#335=VERTEX_POINT('',#1245);
#336=VERTEX_POINT('',#1247);
#337=VERTEX_POINT('',#1250);
#338=VERTEX_POINT('',#1252);
#339=VERTEX_POINT('',#1254);
#340=VERTEX_POINT('',#1256);
#341=VERTEX_POINT('',#1259);
#342=VERTEX_POINT('',#1263);
#343=VERTEX_POINT('',#1267);
#344=VERTEX_POINT('',#1268);
#345=VERTEX_POINT('',#1273);
#346=VERTEX_POINT('',#1277);
#347=VERTEX_POINT('',#1281);
#348=VERTEX_POINT('',#1283);
#349=VERTEX_POINT('',#1287);
#350=VERTEX_POINT('',#1289);
#351=VERTEX_POINT('',#1291);
#352=VERTEX_POINT('',#1295);
#353=VERTEX_POINT('',#1297);
#354=VERTEX_POINT('',#1318);
#355=VERTEX_POINT('',#1319);
#356=VERTEX_POINT('',#1341);
#357=VERTEX_POINT('',#1345);
#358=VERTEX_POINT('',#1354);
#359=VERTEX_POINT('',#1358);
#360=VERTEX_POINT('',#1360);
#361=VERTEX_POINT('',#1364);
#362=VERTEX_POINT('',#1366);
#363=VERTEX_POINT('',#1370);
#364=VERTEX_POINT('',#1382);
#365=VERTEX_POINT('',#1384);
#366=VERTEX_POINT('',#1386);
#367=VERTEX_POINT('',#1390);
#368=VERTEX_POINT('',#1394);
#369=VERTEX_POINT('',#1398);
#370=VERTEX_POINT('',#1402);
#371=VERTEX_POINT('',#1404);
#372=VERTEX_POINT('',#1442);
#373=VERTEX_POINT('',#1479);
#374=VERTEX_POINT('',#1485);
#375=VERTEX_POINT('',#1491);
#376=VERTEX_POINT('',#1494);
#377=VERTEX_POINT('',#1495);
#378=VERTEX_POINT('',#1497);
#379=VERTEX_POINT('',#1499);
#380=VERTEX_POINT('',#1501);
#381=VERTEX_POINT('',#1503);
#382=VERTEX_POINT('',#1505);
#383=VERTEX_POINT('',#1507);
#384=VERTEX_POINT('',#1511);
#385=VERTEX_POINT('',#1513);
#386=VERTEX_POINT('',#1517);
#387=VERTEX_POINT('',#1519);
#388=VERTEX_POINT('',#1525);
#389=VERTEX_POINT('',#1529);
#390=VERTEX_POINT('',#1534);
#391=VERTEX_POINT('',#1540);
#392=VERTEX_POINT('',#1544);
#393=VERTEX_POINT('',#1548);
#394=VERTEX_POINT('',#1552);
#395=EDGE_CURVE('',#314,#315,#254,.T.);
#396=EDGE_CURVE('',#315,#316,#146,.T.);
#397=EDGE_CURVE('',#316,#317,#255,.T.);
#398=EDGE_CURVE('',#317,#314,#147,.T.);
#399=EDGE_CURVE('',#318,#315,#148,.T.);
#400=EDGE_CURVE('',#319,#318,#149,.T.);
#401=EDGE_CURVE('',#316,#319,#150,.T.);
#402=EDGE_CURVE('',#314,#320,#151,.T.);
#403=EDGE_CURVE('',#321,#320,#256,.T.);
#404=EDGE_CURVE('',#321,#322,#152,.T.);
#405=EDGE_CURVE('',#322,#323,#257,.T.);
#406=EDGE_CURVE('',#323,#324,#153,.T.);
#407=EDGE_CURVE('',#324,#325,#258,.T.);
#408=EDGE_CURVE('',#325,#326,#154,.T.);
#409=EDGE_CURVE('',#327,#326,#259,.T.);
#410=EDGE_CURVE('',#327,#328,#155,.T.);
#411=EDGE_CURVE('',#329,#328,#260,.T.);
#412=EDGE_CURVE('',#329,#330,#156,.T.);
#413=EDGE_CURVE('',#331,#330,#261,.T.);
#414=EDGE_CURVE('',#332,#331,#262,.T.);
#415=EDGE_CURVE('',#333,#332,#263,.T.);
#416=EDGE_CURVE('',#334,#333,#157,.T.);
#417=EDGE_CURVE('',#335,#334,#264,.T.);
#418=EDGE_CURVE('',#336,#335,#265,.T.);
#419=EDGE_CURVE('',#318,#336,#266,.T.);
#420=EDGE_CURVE('',#337,#337,#267,.T.);
#421=EDGE_CURVE('',#338,#338,#268,.T.);
#422=EDGE_CURVE('',#339,#339,#269,.T.);
#423=EDGE_CURVE('',#340,#340,#270,.T.);
#424=EDGE_CURVE('',#336,#341,#158,.T.);
#425=EDGE_CURVE('',#341,#319,#271,.T.);
#426=EDGE_CURVE('',#335,#342,#159,.T.);
#427=EDGE_CURVE('',#342,#341,#272,.T.);
#428=EDGE_CURVE('',#343,#344,#273,.T.);
#429=EDGE_CURVE('',#344,#331,#160,.T.);
#430=EDGE_CURVE('',#330,#343,#161,.T.);
#431=EDGE_CURVE('',#344,#345,#274,.T.);
#432=EDGE_CURVE('',#345,#332,#162,.T.);
#433=EDGE_CURVE('',#346,#345,#275,.T.);
#434=EDGE_CURVE('',#346,#333,#163,.T.);
#435=EDGE_CURVE('',#328,#347,#164,.T.);
#436=EDGE_CURVE('',#347,#348,#276,.T.);
#437=EDGE_CURVE('',#348,#329,#165,.T.);
#438=EDGE_CURVE('',#349,#327,#166,.T.);
#439=EDGE_CURVE('',#349,#350,#167,.T.);
#440=EDGE_CURVE('',#351,#350,#277,.F.);
#441=EDGE_CURVE('',#347,#351,#168,.T.);
#442=EDGE_CURVE('',#352,#349,#278,.F.);
#443=EDGE_CURVE('',#326,#353,#169,.T.);
#444=EDGE_CURVE('',#353,#352,#23,.F.);
#445=EDGE_CURVE('',#354,#355,#24,.T.);
#446=EDGE_CURVE('',#354,#321,#170,.T.);
#447=EDGE_CURVE('',#320,#356,#171,.T.);
#448=EDGE_CURVE('',#355,#356,#279,.T.);
#449=EDGE_CURVE('',#357,#354,#25,.T.);
#450=EDGE_CURVE('',#357,#358,#172,.T.);
#451=EDGE_CURVE('',#322,#358,#173,.T.);
#452=EDGE_CURVE('',#355,#359,#280,.T.);
#453=EDGE_CURVE('',#359,#360,#281,.T.);
#454=EDGE_CURVE('',#360,#357,#282,.T.);
#455=EDGE_CURVE('',#359,#361,#174,.T.);
#456=EDGE_CURVE('',#361,#362,#283,.T.);
#457=EDGE_CURVE('',#362,#360,#175,.T.);
#458=EDGE_CURVE('',#363,#362,#284,.T.);
#459=EDGE_CURVE('',#361,#352,#285,.T.);
#460=EDGE_CURVE('',#353,#363,#26,.T.);
#461=EDGE_CURVE('',#364,#356,#176,.T.);
#462=EDGE_CURVE('',#365,#364,#286,.T.);
#463=EDGE_CURVE('',#366,#365,#177,.T.);
#464=EDGE_CURVE('',#350,#366,#287,.T.);
#465=EDGE_CURVE('',#366,#367,#288,.T.);
#466=EDGE_CURVE('',#351,#367,#289,.T.);
#467=EDGE_CURVE('',#365,#368,#290,.T.);
#468=EDGE_CURVE('',#367,#368,#178,.T.);
#469=EDGE_CURVE('',#364,#369,#291,.F.);
#470=EDGE_CURVE('',#368,#369,#292,.T.);
#471=EDGE_CURVE('',#340,#370,#179,.T.);
#472=EDGE_CURVE('',#371,#370,#27,.T.);
#473=EDGE_CURVE('',#370,#371,#28,.T.);
#474=EDGE_CURVE('',#339,#372,#180,.T.);
#475=EDGE_CURVE('',#372,#372,#29,.T.);
#476=EDGE_CURVE('',#338,#373,#181,.T.);
#477=EDGE_CURVE('',#373,#373,#293,.T.);
#478=EDGE_CURVE('',#369,#317,#182,.T.);
#479=EDGE_CURVE('',#337,#374,#183,.T.);
#480=EDGE_CURVE('',#374,#374,#294,.T.);
#481=EDGE_CURVE('',#343,#348,#184,.T.);
#482=EDGE_CURVE('',#342,#375,#295,.T.);
#483=EDGE_CURVE('',#375,#346,#185,.T.);
#484=EDGE_CURVE('',#376,#377,#186,.T.);
#485=EDGE_CURVE('',#378,#376,#296,.T.);
#486=EDGE_CURVE('',#379,#378,#187,.T.);
#487=EDGE_CURVE('',#380,#379,#297,.T.);
#488=EDGE_CURVE('',#381,#380,#188,.T.);
#489=EDGE_CURVE('',#382,#381,#298,.T.);
#490=EDGE_CURVE('',#383,#382,#189,.T.);
#491=EDGE_CURVE('',#377,#383,#299,.T.);
#492=EDGE_CURVE('',#384,#378,#300,.T.);
#493=EDGE_CURVE('',#385,#376,#301,.T.);
#494=EDGE_CURVE('',#384,#385,#302,.T.);
#495=EDGE_CURVE('',#324,#386,#190,.T.);
#496=EDGE_CURVE('',#386,#387,#303,.T.);
#497=EDGE_CURVE('',#325,#387,#191,.T.);
#498=EDGE_CURVE('',#375,#334,#192,.T.);
#499=EDGE_CURVE('',#388,#379,#304,.T.);
#500=EDGE_CURVE('',#388,#384,#193,.T.);
#501=EDGE_CURVE('',#323,#389,#194,.T.);
#502=EDGE_CURVE('',#389,#386,#195,.T.);
#503=EDGE_CURVE('',#390,#380,#305,.T.);
#504=EDGE_CURVE('',#390,#388,#306,.T.);
#505=EDGE_CURVE('',#358,#389,#307,.T.);
#506=EDGE_CURVE('',#391,#381,#308,.T.);
#507=EDGE_CURVE('',#391,#390,#196,.T.);
#508=EDGE_CURVE('',#392,#382,#309,.T.);
#509=EDGE_CURVE('',#392,#391,#310,.T.);
#510=EDGE_CURVE('',#393,#383,#311,.T.);
#511=EDGE_CURVE('',#393,#392,#197,.T.);
#512=EDGE_CURVE('',#385,#394,#198,.T.);
#513=EDGE_CURVE('',#394,#393,#312,.T.);
#514=EDGE_CURVE('',#387,#363,#199,.T.);
#515=EDGE_CURVE('',#394,#377,#313,.T.);
#516=ORIENTED_EDGE('',*,*,#395,.T.);
#517=ORIENTED_EDGE('',*,*,#396,.T.);
#518=ORIENTED_EDGE('',*,*,#397,.T.);
#519=ORIENTED_EDGE('',*,*,#398,.T.);
#520=ORIENTED_EDGE('',*,*,#396,.F.);
#521=ORIENTED_EDGE('',*,*,#399,.F.);
#522=ORIENTED_EDGE('',*,*,#400,.F.);
#523=ORIENTED_EDGE('',*,*,#401,.F.);
#524=ORIENTED_EDGE('',*,*,#395,.F.);
#525=ORIENTED_EDGE('',*,*,#402,.T.);
#526=ORIENTED_EDGE('',*,*,#403,.F.);
#527=ORIENTED_EDGE('',*,*,#404,.T.);
#528=ORIENTED_EDGE('',*,*,#405,.T.);
#529=ORIENTED_EDGE('',*,*,#406,.T.);
#530=ORIENTED_EDGE('',*,*,#407,.T.);
#531=ORIENTED_EDGE('',*,*,#408,.T.);
#532=ORIENTED_EDGE('',*,*,#409,.F.);
#533=ORIENTED_EDGE('',*,*,#410,.T.);
#534=ORIENTED_EDGE('',*,*,#411,.F.);
#535=ORIENTED_EDGE('',*,*,#412,.T.);
#536=ORIENTED_EDGE('',*,*,#413,.F.);
#537=ORIENTED_EDGE('',*,*,#414,.F.);
#538=ORIENTED_EDGE('',*,*,#415,.F.);
#539=ORIENTED_EDGE('',*,*,#416,.F.);
#540=ORIENTED_EDGE('',*,*,#417,.F.);
#541=ORIENTED_EDGE('',*,*,#418,.F.);
#542=ORIENTED_EDGE('',*,*,#419,.F.);
#543=ORIENTED_EDGE('',*,*,#399,.T.);
#544=ORIENTED_EDGE('',*,*,#420,.T.);
#545=ORIENTED_EDGE('',*,*,#421,.T.);
#546=ORIENTED_EDGE('',*,*,#422,.T.);
#547=ORIENTED_EDGE('',*,*,#423,.T.);
#548=ORIENTED_EDGE('',*,*,#419,.T.);
#549=ORIENTED_EDGE('',*,*,#424,.T.);
#550=ORIENTED_EDGE('',*,*,#425,.T.);
#551=ORIENTED_EDGE('',*,*,#400,.T.);
#552=ORIENTED_EDGE('',*,*,#424,.F.);
#553=ORIENTED_EDGE('',*,*,#418,.T.);
#554=ORIENTED_EDGE('',*,*,#426,.T.);
#555=ORIENTED_EDGE('',*,*,#427,.T.);
#556=ORIENTED_EDGE('',*,*,#428,.T.);
#557=ORIENTED_EDGE('',*,*,#429,.T.);
#558=ORIENTED_EDGE('',*,*,#413,.T.);
#559=ORIENTED_EDGE('',*,*,#430,.T.);
#560=ORIENTED_EDGE('',*,*,#429,.F.);
#561=ORIENTED_EDGE('',*,*,#431,.T.);
#562=ORIENTED_EDGE('',*,*,#432,.T.);
#563=ORIENTED_EDGE('',*,*,#414,.T.);
#564=ORIENTED_EDGE('',*,*,#432,.F.);
#565=ORIENTED_EDGE('',*,*,#433,.F.);
#566=ORIENTED_EDGE('',*,*,#434,.T.);
#567=ORIENTED_EDGE('',*,*,#415,.T.);
#568=ORIENTED_EDGE('',*,*,#411,.T.);
#569=ORIENTED_EDGE('',*,*,#435,.T.);
#570=ORIENTED_EDGE('',*,*,#436,.T.);
#571=ORIENTED_EDGE('',*,*,#437,.T.);
#572=ORIENTED_EDGE('',*,*,#435,.F.);
#573=ORIENTED_EDGE('',*,*,#410,.F.);
#574=ORIENTED_EDGE('',*,*,#438,.F.);
#575=ORIENTED_EDGE('',*,*,#439,.T.);
#576=ORIENTED_EDGE('',*,*,#440,.F.);
#577=ORIENTED_EDGE('',*,*,#441,.F.);
#578=ORIENTED_EDGE('',*,*,#442,.T.);
#579=ORIENTED_EDGE('',*,*,#438,.T.);
#580=ORIENTED_EDGE('',*,*,#409,.T.);
#581=ORIENTED_EDGE('',*,*,#443,.T.);
#582=ORIENTED_EDGE('',*,*,#444,.T.);
#583=ORIENTED_EDGE('',*,*,#445,.F.);
#584=ORIENTED_EDGE('',*,*,#446,.T.);
#585=ORIENTED_EDGE('',*,*,#403,.T.);
#586=ORIENTED_EDGE('',*,*,#447,.T.);
#587=ORIENTED_EDGE('',*,*,#448,.F.);
#588=ORIENTED_EDGE('',*,*,#446,.F.);
#589=ORIENTED_EDGE('',*,*,#449,.F.);
#590=ORIENTED_EDGE('',*,*,#450,.T.);
#591=ORIENTED_EDGE('',*,*,#451,.F.);
#592=ORIENTED_EDGE('',*,*,#404,.F.);
#593=ORIENTED_EDGE('',*,*,#452,.T.);
#594=ORIENTED_EDGE('',*,*,#453,.T.);
#595=ORIENTED_EDGE('',*,*,#454,.T.);
#596=ORIENTED_EDGE('',*,*,#449,.T.);
#597=ORIENTED_EDGE('',*,*,#445,.T.);
#598=ORIENTED_EDGE('',*,*,#453,.F.);
#599=ORIENTED_EDGE('',*,*,#455,.T.);
#600=ORIENTED_EDGE('',*,*,#456,.T.);
#601=ORIENTED_EDGE('',*,*,#457,.T.);
#602=ORIENTED_EDGE('',*,*,#458,.T.);
#603=ORIENTED_EDGE('',*,*,#456,.F.);
#604=ORIENTED_EDGE('',*,*,#459,.T.);
#605=ORIENTED_EDGE('',*,*,#444,.F.);
#606=ORIENTED_EDGE('',*,*,#460,.T.);
#607=ORIENTED_EDGE('',*,*,#459,.F.);
#608=ORIENTED_EDGE('',*,*,#455,.F.);
#609=ORIENTED_EDGE('',*,*,#452,.F.);
#610=ORIENTED_EDGE('',*,*,#448,.T.);
#611=ORIENTED_EDGE('',*,*,#461,.F.);
#612=ORIENTED_EDGE('',*,*,#462,.F.);
#613=ORIENTED_EDGE('',*,*,#463,.F.);
#614=ORIENTED_EDGE('',*,*,#464,.F.);
#615=ORIENTED_EDGE('',*,*,#439,.F.);
#616=ORIENTED_EDGE('',*,*,#442,.F.);
#617=ORIENTED_EDGE('',*,*,#465,.T.);
#618=ORIENTED_EDGE('',*,*,#466,.F.);
#619=ORIENTED_EDGE('',*,*,#440,.T.);
#620=ORIENTED_EDGE('',*,*,#464,.T.);
#621=ORIENTED_EDGE('',*,*,#465,.F.);
#622=ORIENTED_EDGE('',*,*,#463,.T.);
#623=ORIENTED_EDGE('',*,*,#467,.T.);
#624=ORIENTED_EDGE('',*,*,#468,.F.);
#625=ORIENTED_EDGE('',*,*,#467,.F.);
#626=ORIENTED_EDGE('',*,*,#462,.T.);
#627=ORIENTED_EDGE('',*,*,#469,.T.);
#628=ORIENTED_EDGE('',*,*,#470,.F.);
#629=ORIENTED_EDGE('',*,*,#423,.F.);
#630=ORIENTED_EDGE('',*,*,#471,.T.);
#631=ORIENTED_EDGE('',*,*,#472,.F.);
#632=ORIENTED_EDGE('',*,*,#473,.F.);
#633=ORIENTED_EDGE('',*,*,#471,.F.);
#634=ORIENTED_EDGE('',*,*,#422,.F.);
#635=ORIENTED_EDGE('',*,*,#474,.T.);
#636=ORIENTED_EDGE('',*,*,#475,.F.);
#637=ORIENTED_EDGE('',*,*,#474,.F.);
#638=ORIENTED_EDGE('',*,*,#421,.F.);
#639=ORIENTED_EDGE('',*,*,#476,.T.);
#640=ORIENTED_EDGE('',*,*,#477,.T.);
#641=ORIENTED_EDGE('',*,*,#476,.F.);
#642=ORIENTED_EDGE('',*,*,#398,.F.);
#643=ORIENTED_EDGE('',*,*,#478,.F.);
#644=ORIENTED_EDGE('',*,*,#469,.F.);
#645=ORIENTED_EDGE('',*,*,#461,.T.);
#646=ORIENTED_EDGE('',*,*,#447,.F.);
#647=ORIENTED_EDGE('',*,*,#402,.F.);
#648=ORIENTED_EDGE('',*,*,#420,.F.);
#649=ORIENTED_EDGE('',*,*,#479,.T.);
#650=ORIENTED_EDGE('',*,*,#480,.F.);
#651=ORIENTED_EDGE('',*,*,#479,.F.);
#652=ORIENTED_EDGE('',*,*,#430,.F.);
#653=ORIENTED_EDGE('',*,*,#412,.F.);
#654=ORIENTED_EDGE('',*,*,#437,.F.);
#655=ORIENTED_EDGE('',*,*,#481,.F.);
#656=ORIENTED_EDGE('',*,*,#397,.F.);
#657=ORIENTED_EDGE('',*,*,#401,.T.);
#658=ORIENTED_EDGE('',*,*,#425,.F.);
#659=ORIENTED_EDGE('',*,*,#427,.F.);
#660=ORIENTED_EDGE('',*,*,#482,.T.);
#661=ORIENTED_EDGE('',*,*,#483,.T.);
#662=ORIENTED_EDGE('',*,*,#433,.T.);
#663=ORIENTED_EDGE('',*,*,#431,.F.);
#664=ORIENTED_EDGE('',*,*,#428,.F.);
#665=ORIENTED_EDGE('',*,*,#481,.T.);
#666=ORIENTED_EDGE('',*,*,#436,.F.);
#667=ORIENTED_EDGE('',*,*,#441,.T.);
#668=ORIENTED_EDGE('',*,*,#466,.T.);
#669=ORIENTED_EDGE('',*,*,#468,.T.);
#670=ORIENTED_EDGE('',*,*,#470,.T.);
#671=ORIENTED_EDGE('',*,*,#478,.T.);
#672=ORIENTED_EDGE('',*,*,#477,.F.);
#673=ORIENTED_EDGE('',*,*,#480,.T.);
#674=ORIENTED_EDGE('',*,*,#484,.F.);
#675=ORIENTED_EDGE('',*,*,#485,.F.);
#676=ORIENTED_EDGE('',*,*,#486,.F.);
#677=ORIENTED_EDGE('',*,*,#487,.F.);
#678=ORIENTED_EDGE('',*,*,#488,.F.);
#679=ORIENTED_EDGE('',*,*,#489,.F.);
#680=ORIENTED_EDGE('',*,*,#490,.F.);
#681=ORIENTED_EDGE('',*,*,#491,.F.);
#682=ORIENTED_EDGE('',*,*,#492,.T.);
#683=ORIENTED_EDGE('',*,*,#485,.T.);
#684=ORIENTED_EDGE('',*,*,#493,.F.);
#685=ORIENTED_EDGE('',*,*,#494,.F.);
#686=ORIENTED_EDGE('',*,*,#495,.T.);
#687=ORIENTED_EDGE('',*,*,#496,.T.);
#688=ORIENTED_EDGE('',*,*,#497,.F.);
#689=ORIENTED_EDGE('',*,*,#407,.F.);
#690=ORIENTED_EDGE('',*,*,#498,.T.);
#691=ORIENTED_EDGE('',*,*,#416,.T.);
#692=ORIENTED_EDGE('',*,*,#434,.F.);
#693=ORIENTED_EDGE('',*,*,#483,.F.);
#694=ORIENTED_EDGE('',*,*,#499,.T.);
#695=ORIENTED_EDGE('',*,*,#486,.T.);
#696=ORIENTED_EDGE('',*,*,#492,.F.);
#697=ORIENTED_EDGE('',*,*,#500,.F.);
#698=ORIENTED_EDGE('',*,*,#501,.T.);
#699=ORIENTED_EDGE('',*,*,#502,.T.);
#700=ORIENTED_EDGE('',*,*,#495,.F.);
#701=ORIENTED_EDGE('',*,*,#406,.F.);
#702=ORIENTED_EDGE('',*,*,#426,.F.);
#703=ORIENTED_EDGE('',*,*,#417,.T.);
#704=ORIENTED_EDGE('',*,*,#498,.F.);
#705=ORIENTED_EDGE('',*,*,#482,.F.);
#706=ORIENTED_EDGE('',*,*,#503,.T.);
#707=ORIENTED_EDGE('',*,*,#487,.T.);
#708=ORIENTED_EDGE('',*,*,#499,.F.);
#709=ORIENTED_EDGE('',*,*,#504,.F.);
#710=ORIENTED_EDGE('',*,*,#451,.T.);
#711=ORIENTED_EDGE('',*,*,#505,.T.);
#712=ORIENTED_EDGE('',*,*,#501,.F.);
#713=ORIENTED_EDGE('',*,*,#405,.F.);
#714=ORIENTED_EDGE('',*,*,#506,.T.);
#715=ORIENTED_EDGE('',*,*,#488,.T.);
#716=ORIENTED_EDGE('',*,*,#503,.F.);
#717=ORIENTED_EDGE('',*,*,#507,.F.);
#718=ORIENTED_EDGE('',*,*,#472,.T.);
#719=ORIENTED_EDGE('',*,*,#473,.T.);
#720=ORIENTED_EDGE('',*,*,#508,.T.);
#721=ORIENTED_EDGE('',*,*,#489,.T.);
#722=ORIENTED_EDGE('',*,*,#506,.F.);
#723=ORIENTED_EDGE('',*,*,#509,.F.);
#724=ORIENTED_EDGE('',*,*,#510,.T.);
#725=ORIENTED_EDGE('',*,*,#490,.T.);
#726=ORIENTED_EDGE('',*,*,#508,.F.);
#727=ORIENTED_EDGE('',*,*,#511,.F.);
#728=ORIENTED_EDGE('',*,*,#511,.T.);
#729=ORIENTED_EDGE('',*,*,#509,.T.);
#730=ORIENTED_EDGE('',*,*,#507,.T.);
#731=ORIENTED_EDGE('',*,*,#504,.T.);
#732=ORIENTED_EDGE('',*,*,#500,.T.);
#733=ORIENTED_EDGE('',*,*,#494,.T.);
#734=ORIENTED_EDGE('',*,*,#512,.T.);
#735=ORIENTED_EDGE('',*,*,#513,.T.);
#736=ORIENTED_EDGE('',*,*,#458,.F.);
#737=ORIENTED_EDGE('',*,*,#514,.F.);
#738=ORIENTED_EDGE('',*,*,#496,.F.);
#739=ORIENTED_EDGE('',*,*,#502,.F.);
#740=ORIENTED_EDGE('',*,*,#505,.F.);
#741=ORIENTED_EDGE('',*,*,#450,.F.);
#742=ORIENTED_EDGE('',*,*,#454,.F.);
#743=ORIENTED_EDGE('',*,*,#457,.F.);
#744=ORIENTED_EDGE('',*,*,#515,.T.);
#745=ORIENTED_EDGE('',*,*,#491,.T.);
#746=ORIENTED_EDGE('',*,*,#510,.F.);
#747=ORIENTED_EDGE('',*,*,#513,.F.);
#748=ORIENTED_EDGE('',*,*,#484,.T.);
#749=ORIENTED_EDGE('',*,*,#515,.F.);
#750=ORIENTED_EDGE('',*,*,#512,.F.);
#751=ORIENTED_EDGE('',*,*,#493,.T.);
#752=ORIENTED_EDGE('',*,*,#475,.T.);
#753=ORIENTED_EDGE('',*,*,#443,.F.);
#754=ORIENTED_EDGE('',*,*,#408,.F.);
#755=ORIENTED_EDGE('',*,*,#497,.T.);
#756=ORIENTED_EDGE('',*,*,#514,.T.);
#757=ORIENTED_EDGE('',*,*,#460,.F.);
#758=CYLINDRICAL_SURFACE('',#836,5.);
#759=CYLINDRICAL_SURFACE('',#856,5.);
#760=CYLINDRICAL_SURFACE('',#858,5.);
#761=CYLINDRICAL_SURFACE('',#860,5.);
#762=CYLINDRICAL_SURFACE('',#862,5.);
#763=CYLINDRICAL_SURFACE('',#864,15.);
#764=CYLINDRICAL_SURFACE('',#866,5.);
#765=CYLINDRICAL_SURFACE('',#870,5.);
#766=CYLINDRICAL_SURFACE('',#872,5.);
#767=CYLINDRICAL_SURFACE('',#879,4.5);
#768=CYLINDRICAL_SURFACE('',#890,4.5);
#769=CYLINDRICAL_SURFACE('',#895,2.00000002980232);
#770=CYLINDRICAL_SURFACE('',#896,2.00000002980232);
#771=CYLINDRICAL_SURFACE('',#897,1.4);
#772=CYLINDRICAL_SURFACE('',#900,1.4);
#773=CYLINDRICAL_SURFACE('',#913,5.);
#774=CYLINDRICAL_SURFACE('',#916,3.99999999999998);
#775=CYLINDRICAL_SURFACE('',#919,15.);
#776=CYLINDRICAL_SURFACE('',#923,5.);
#777=CYLINDRICAL_SURFACE('',#925,3.99999999999998);
#778=CYLINDRICAL_SURFACE('',#930,3.99999999999998);
#779=CYLINDRICAL_SURFACE('',#936,3.99999999999998);
#780=ADVANCED_FACE('',(#52),#758,.T.);
#781=ADVANCED_FACE('',(#53),#40,.T.);
#782=ADVANCED_FACE('',(#54,#30,#31,#32,#33),#41,.T.);
#783=ADVANCED_FACE('',(#55),#759,.T.);
#784=ADVANCED_FACE('',(#56),#760,.F.);
#785=ADVANCED_FACE('',(#57),#761,.T.);
#786=ADVANCED_FACE('',(#58),#762,.F.);
#787=ADVANCED_FACE('',(#59),#763,.T.);
#788=ADVANCED_FACE('',(#60),#764,.T.);
#789=ADVANCED_FACE('',(#61),#42,.T.);
#790=ADVANCED_FACE('',(#62),#765,.T.);
#791=ADVANCED_FACE('',(#63),#766,.T.);
#792=ADVANCED_FACE('',(#64),#43,.T.);
#793=ADVANCED_FACE('',(#65),#15,.T.);
#794=ADVANCED_FACE('',(#66),#767,.T.);
#795=ADVANCED_FACE('',(#67),#16,.T.);
#796=ADVANCED_FACE('',(#68),#44,.F.);
#797=ADVANCED_FACE('',(#69),#17,.T.);
#798=ADVANCED_FACE('',(#70),#768,.T.);
#799=ADVANCED_FACE('',(#71),#18,.T.);
#800=ADVANCED_FACE('',(#72),#769,.F.);
#801=ADVANCED_FACE('',(#73),#770,.F.);
#802=ADVANCED_FACE('',(#74),#771,.F.);
#803=ADVANCED_FACE('',(#75),#45,.T.);
#804=ADVANCED_FACE('',(#76),#772,.F.);
#805=ADVANCED_FACE('',(#77),#46,.T.);
#806=ADVANCED_FACE('',(#78,#34,#35,#36),#47,.T.);
#807=ADVANCED_FACE('',(#79),#19,.F.);
#808=ADVANCED_FACE('',(#80),#773,.F.);
#809=ADVANCED_FACE('',(#81),#48,.T.);
#810=ADVANCED_FACE('',(#82),#774,.F.);
#811=ADVANCED_FACE('',(#83),#49,.T.);
#812=ADVANCED_FACE('',(#84),#775,.T.);
#813=ADVANCED_FACE('',(#85),#20,.F.);
#814=ADVANCED_FACE('',(#86),#776,.F.);
#815=ADVANCED_FACE('',(#87,#37),#777,.F.);
#816=ADVANCED_FACE('',(#88),#21,.F.);
#817=ADVANCED_FACE('',(#89),#778,.F.);
#818=ADVANCED_FACE('',(#90,#38),#50,.T.);
#819=ADVANCED_FACE('',(#91),#22,.F.);
#820=ADVANCED_FACE('',(#92,#39),#779,.F.);
#821=ADVANCED_FACE('',(#93),#51,.T.);
#822=CLOSED_SHELL('',(#780,#781,#782,#783,#784,#785,#786,#787,#788,#789,
#790,#791,#792,#793,#794,#795,#796,#797,#798,#799,#800,#801,#802,#803,#804,
#805,#806,#807,#808,#809,#810,#811,#812,#813,#814,#815,#816,#817,#818,#819,
#820,#821));
#823=DERIVED_UNIT_ELEMENT(#825,1.);
#824=DERIVED_UNIT_ELEMENT(#1565,-3.);
#825=(
MASS_UNIT()
NAMED_UNIT(*)
SI_UNIT(.KILO.,.GRAM.)
);
#826=DERIVED_UNIT((#823,#824));
#827=MEASURE_REPRESENTATION_ITEM('density measure',
POSITIVE_RATIO_MEASURE(7850.),#826);
#828=PROPERTY_DEFINITION_REPRESENTATION(#833,#830);
#829=PROPERTY_DEFINITION_REPRESENTATION(#834,#831);
#830=REPRESENTATION('material name',(#832),#1562);
#831=REPRESENTATION('density',(#827),#1562);
#832=DESCRIPTIVE_REPRESENTATION_ITEM('Stahl','Stahl');
#833=PROPERTY_DEFINITION('material property','material name',#1572);
#834=PROPERTY_DEFINITION('material property','density of part',#1572);
#835=AXIS2_PLACEMENT_3D('',#1198,#938,#939);
#836=AXIS2_PLACEMENT_3D('',#1199,#940,#941);
#837=AXIS2_PLACEMENT_3D('',#1202,#942,#943);
#838=AXIS2_PLACEMENT_3D('',#1206,#945,#946);
#839=AXIS2_PLACEMENT_3D('',#1208,#948,#949);
#840=AXIS2_PLACEMENT_3D('',#1214,#953,#954);
#841=AXIS2_PLACEMENT_3D('',#1218,#956,#957);
#842=AXIS2_PLACEMENT_3D('',#1222,#959,#960);
#843=AXIS2_PLACEMENT_3D('',#1226,#962,#963);
#844=AXIS2_PLACEMENT_3D('',#1230,#965,#966);
#845=AXIS2_PLACEMENT_3D('',#1234,#968,#969);
#846=AXIS2_PLACEMENT_3D('',#1238,#971,#972);
#847=AXIS2_PLACEMENT_3D('',#1240,#973,#974);
#848=AXIS2_PLACEMENT_3D('',#1242,#975,#976);
#849=AXIS2_PLACEMENT_3D('',#1246,#978,#979);
#850=AXIS2_PLACEMENT_3D('',#1248,#980,#981);
#851=AXIS2_PLACEMENT_3D('',#1249,#982,#983);
#852=AXIS2_PLACEMENT_3D('',#1251,#984,#985);
#853=AXIS2_PLACEMENT_3D('',#1253,#986,#987);
#854=AXIS2_PLACEMENT_3D('',#1255,#988,#989);
#855=AXIS2_PLACEMENT_3D('',#1257,#990,#991);
#856=AXIS2_PLACEMENT_3D('',#1258,#992,#993);
#857=AXIS2_PLACEMENT_3D('',#1261,#995,#996);
#858=AXIS2_PLACEMENT_3D('',#1262,#997,#998);
#859=AXIS2_PLACEMENT_3D('',#1265,#1000,#1001);
#860=AXIS2_PLACEMENT_3D('',#1266,#1002,#1003);
#861=AXIS2_PLACEMENT_3D('',#1269,#1004,#1005);
#862=AXIS2_PLACEMENT_3D('',#1272,#1008,#1009);
#863=AXIS2_PLACEMENT_3D('',#1274,#1010,#1011);
#864=AXIS2_PLACEMENT_3D('',#1276,#1013,#1014);
#865=AXIS2_PLACEMENT_3D('',#1278,#1015,#1016);
#866=AXIS2_PLACEMENT_3D('',#1280,#1018,#1019);
#867=AXIS2_PLACEMENT_3D('',#1284,#1021,#1022);
#868=AXIS2_PLACEMENT_3D('',#1286,#1024,#1025);
#869=AXIS2_PLACEMENT_3D('',#1292,#1028,#1029);
#870=AXIS2_PLACEMENT_3D('',#1294,#1031,#1032);
#871=AXIS2_PLACEMENT_3D('',#1296,#1033,#1034);
#872=AXIS2_PLACEMENT_3D('',#1317,#1036,#1037);
#873=AXIS2_PLACEMENT_3D('',#1343,#1040,#1041);
#874=AXIS2_PLACEMENT_3D('',#1344,#1042,#1043);
#875=AXIS2_PLACEMENT_3D('',#1357,#1046,#1047);
#876=AXIS2_PLACEMENT_3D('',#1359,#1048,#1049);
#877=AXIS2_PLACEMENT_3D('',#1361,#1050,#1051);
#878=AXIS2_PLACEMENT_3D('',#1362,#1052,#1053);
#879=AXIS2_PLACEMENT_3D('',#1363,#1054,#1055);
#880=AXIS2_PLACEMENT_3D('',#1367,#1057,#1058);
#881=AXIS2_PLACEMENT_3D('',#1369,#1060,#1061);
#882=AXIS2_PLACEMENT_3D('',#1371,#1062,#1063);
#883=AXIS2_PLACEMENT_3D('',#1372,#1064,#1065);
#884=AXIS2_PLACEMENT_3D('',#1381,#1066,#1067);
#885=AXIS2_PLACEMENT_3D('',#1385,#1069,#1070);
#886=AXIS2_PLACEMENT_3D('',#1388,#1072,#1073);
#887=AXIS2_PLACEMENT_3D('',#1389,#1074,#1075);
#888=AXIS2_PLACEMENT_3D('',#1391,#1076,#1077);
#889=AXIS2_PLACEMENT_3D('',#1392,#1078,#1079);
#890=AXIS2_PLACEMENT_3D('',#1393,#1080,#1081);
#891=AXIS2_PLACEMENT_3D('',#1395,#1082,#1083);
#892=AXIS2_PLACEMENT_3D('',#1397,#1085,#1086);
#893=AXIS2_PLACEMENT_3D('',#1399,#1087,#1088);
#894=AXIS2_PLACEMENT_3D('',#1400,#1089,#1090);
#895=AXIS2_PLACEMENT_3D('',#1401,#1091,#1092);
#896=AXIS2_PLACEMENT_3D('',#1441,#1094,#1095);
#897=AXIS2_PLACEMENT_3D('',#1478,#1097,#1098);
#898=AXIS2_PLACEMENT_3D('',#1481,#1100,#1101);
#899=AXIS2_PLACEMENT_3D('',#1482,#1102,#1103);
#900=AXIS2_PLACEMENT_3D('',#1484,#1105,#1106);
#901=AXIS2_PLACEMENT_3D('',#1487,#1108,#1109);
#902=AXIS2_PLACEMENT_3D('',#1488,#1110,#1111);
#903=AXIS2_PLACEMENT_3D('',#1490,#1113,#1114);
#904=AXIS2_PLACEMENT_3D('',#1492,#1115,#1116);
#905=AXIS2_PLACEMENT_3D('',#1498,#1119,#1120);
#906=AXIS2_PLACEMENT_3D('',#1502,#1122,#1123);
#907=AXIS2_PLACEMENT_3D('',#1506,#1125,#1126);
#908=AXIS2_PLACEMENT_3D('',#1509,#1128,#1129);
#909=AXIS2_PLACEMENT_3D('',#1510,#1130,#1131);
#910=AXIS2_PLACEMENT_3D('',#1512,#1132,#1133);
#911=AXIS2_PLACEMENT_3D('',#1514,#1134,#1135);
#912=AXIS2_PLACEMENT_3D('',#1515,#1136,#1137);
#913=AXIS2_PLACEMENT_3D('',#1516,#1138,#1139);
#914=AXIS2_PLACEMENT_3D('',#1520,#1141,#1142);
#915=AXIS2_PLACEMENT_3D('',#1522,#1144,#1145);
#916=AXIS2_PLACEMENT_3D('',#1524,#1147,#1148);
#917=AXIS2_PLACEMENT_3D('',#1526,#1149,#1150);
#918=AXIS2_PLACEMENT_3D('',#1528,#1152,#1153);
#919=AXIS2_PLACEMENT_3D('',#1532,#1156,#1157);
#920=AXIS2_PLACEMENT_3D('',#1533,#1158,#1159);
#921=AXIS2_PLACEMENT_3D('',#1535,#1160,#1161);
#922=AXIS2_PLACEMENT_3D('',#1536,#1162,#1163);
#923=AXIS2_PLACEMENT_3D('',#1537,#1164,#1165);
#924=AXIS2_PLACEMENT_3D('',#1538,#1166,#1167);
#925=AXIS2_PLACEMENT_3D('',#1539,#1168,#1169);
#926=AXIS2_PLACEMENT_3D('',#1541,#1170,#1171);
#927=AXIS2_PLACEMENT_3D('',#1543,#1173,#1174);
#928=AXIS2_PLACEMENT_3D('',#1545,#1175,#1176);
#929=AXIS2_PLACEMENT_3D('',#1546,#1177,#1178);
#930=AXIS2_PLACEMENT_3D('',#1547,#1179,#1180);
#931=AXIS2_PLACEMENT_3D('',#1549,#1181,#1182);
#932=AXIS2_PLACEMENT_3D('',#1551,#1184,#1185);
#933=AXIS2_PLACEMENT_3D('',#1554,#1187,#1188);
#934=AXIS2_PLACEMENT_3D('',#1556,#1190,#1191);
#935=AXIS2_PLACEMENT_3D('',#1557,#1192,#1193);
#936=AXIS2_PLACEMENT_3D('',#1558,#1194,#1195);
#937=AXIS2_PLACEMENT_3D('',#1559,#1196,#1197);
#938=DIRECTION('axis',(0.,0.,1.));
#939=DIRECTION('refdir',(1.,0.,0.));
#940=DIRECTION('center_axis',(0.,0.,-1.));
#941=DIRECTION('ref_axis',(0.707106781186547,-0.707106781186548,0.));
#942=DIRECTION('center_axis',(0.,0.,1.));
#943=DIRECTION('ref_axis',(0.707106781186547,-0.707106781186548,0.));
#944=DIRECTION('',(0.,0.,1.));
#945=DIRECTION('center_axis',(0.,6.93889390390722E-17,-1.));
#946=DIRECTION('ref_axis',(0.707106781186547,-0.707106781186548,0.));
#947=DIRECTION('',(0.,0.,-1.));
#948=DIRECTION('center_axis',(1.,0.,0.));
#949=DIRECTION('ref_axis',(0.,-1.,0.));
#950=DIRECTION('',(0.,-1.,0.));
#951=DIRECTION('',(0.,0.,-1.));
#952=DIRECTION('',(0.,1.,0.));
#953=DIRECTION('center_axis',(0.,0.,-1.));
#954=DIRECTION('ref_axis',(5.0532154980743E-16,1.,0.));
#955=DIRECTION('',(-1.,0.,0.));
#956=DIRECTION('center_axis',(0.,0.,1.));
#957=DIRECTION('ref_axis',(-0.707106781186548,-0.707106781186547,0.));
#958=DIRECTION('',(0.,1.,0.));
#959=DIRECTION('center_axis',(0.,0.,1.));
#960=DIRECTION('ref_axis',(1.,-6.66133814775094E-16,0.));
#961=DIRECTION('',(-1.,0.,0.));
#962=DIRECTION('center_axis',(0.,0.,1.));
#963=DIRECTION('ref_axis',(1.33226762955019E-15,1.,0.));
#964=DIRECTION('',(0.,-1.,0.));
#965=DIRECTION('center_axis',(0.,0.,1.));
#966=DIRECTION('ref_axis',(0.707106781186547,-0.707106781186547,0.));
#967=DIRECTION('',(-1.,0.,0.));
#968=DIRECTION('center_axis',(0.,0.,1.));
#969=DIRECTION('ref_axis',(-0.707106781186548,-0.707106781186547,0.));
#970=DIRECTION('',(8.88178419700125E-16,1.,0.));
#971=DIRECTION('center_axis',(0.,0.,1.));
#972=DIRECTION('ref_axis',(1.,-8.88178419700125E-16,0.));
#973=DIRECTION('center_axis',(0.,0.,-1.));
#974=DIRECTION('ref_axis',(0.612372435695794,-0.790569415042095,0.));
#975=DIRECTION('center_axis',(0.,0.,1.));
#976=DIRECTION('ref_axis',(2.96059473233375E-16,1.,0.));
#977=DIRECTION('',(-1.,0.,0.));
#978=DIRECTION('center_axis',(0.,0.,1.));
#979=DIRECTION('ref_axis',(1.,-7.40148683083438E-16,0.));
#980=DIRECTION('center_axis',(0.,0.,-1.));
#981=DIRECTION('ref_axis',(-0.612372435695793,-0.790569415042096,0.));
#982=DIRECTION('center_axis',(0.,0.,1.));
#983=DIRECTION('ref_axis',(-1.,0.,0.));
#984=DIRECTION('center_axis',(0.,0.,1.));
#985=DIRECTION('ref_axis',(-1.,0.,0.));
#986=DIRECTION('center_axis',(0.,0.,1.));
#987=DIRECTION('ref_axis',(-1.,0.,0.));
#988=DIRECTION('center_axis',(0.,0.,1.));
#989=DIRECTION('ref_axis',(1.,0.,0.));
#990=DIRECTION('center_axis',(0.,0.,1.));
#991=DIRECTION('ref_axis',(1.,0.,0.));
#992=DIRECTION('center_axis',(0.,0.,1.));
#993=DIRECTION('ref_axis',(-1.,0.,0.));
#994=DIRECTION('',(0.,0.,1.));
#995=DIRECTION('center_axis',(0.,6.93889390390722E-17,-1.));
#996=DIRECTION('ref_axis',(-1.,0.,0.));
#997=DIRECTION('center_axis',(0.,0.,-1.));
#998=DIRECTION('ref_axis',(-0.612372435695793,-0.790569415042096,0.));
#999=DIRECTION('',(0.,0.,1.));
#1000=DIRECTION('center_axis',(0.,-6.93889390390722E-17,1.));
#1001=DIRECTION('ref_axis',(-0.612372435695793,-0.790569415042096,0.));
#1002=DIRECTION('center_axis',(0.,0.,-1.));
#1003=DIRECTION('ref_axis',(1.,-8.88178419700125E-16,0.));
#1004=DIRECTION('center_axis',(0.,6.93889390390722E-17,-1.));
#1005=DIRECTION('ref_axis',(1.,-8.88178419700125E-16,0.));
#1006=DIRECTION('',(0.,0.,-1.));
#1007=DIRECTION('',(0.,0.,1.));
#1008=DIRECTION('center_axis',(0.,0.,-1.));
#1009=DIRECTION('ref_axis',(0.612372435695794,-0.790569415042095,0.));
#1010=DIRECTION('center_axis',(0.,-6.93889390390722E-17,1.));
#1011=DIRECTION('ref_axis',(0.612372435695794,-0.790569415042095,0.));
#1012=DIRECTION('',(0.,0.,-1.));
#1013=DIRECTION('center_axis',(0.,0.,1.));
#1014=DIRECTION('ref_axis',(0.,1.,0.));
#1015=DIRECTION('center_axis',(0.,0.,1.));
#1016=DIRECTION('ref_axis',(2.96059473233375E-16,1.,0.));
#1017=DIRECTION('',(-9.009273877972E-33,-2.22044604925031E-17,-1.));
#1018=DIRECTION('center_axis',(0.,0.,-1.));
#1019=DIRECTION('ref_axis',(-0.707106781186548,-0.707106781186547,0.));
#1020=DIRECTION('',(0.,0.,1.));
#1021=DIRECTION('center_axis',(0.,6.93889390390722E-17,-1.));
#1022=DIRECTION('ref_axis',(-0.707106781186548,-0.707106781186547,0.));
#1023=DIRECTION('',(0.,0.,-1.));
#1024=DIRECTION('center_axis',(0.,-1.,0.));
#1025=DIRECTION('ref_axis',(-1.,0.,0.));
#1026=DIRECTION('',(1.11022302462516E-16,0.,-1.));
#1027=DIRECTION('',(-1.,0.,0.));
#1028=DIRECTION('center_axis',(0.,1.,0.));
#1029=DIRECTION('ref_axis',(-1.,0.,0.));
#1030=DIRECTION('',(1.,0.,0.));
#1031=DIRECTION('center_axis',(-1.11022302462516E-16,0.,1.));
#1032=DIRECTION('ref_axis',(0.707106781186547,-0.707106781186547,0.));
#1033=DIRECTION('center_axis',(0.,0.,1.));
#1034=DIRECTION('ref_axis',(0.707106781186547,-0.707106781186547,0.));
#1035=DIRECTION('',(-1.11022302462516E-16,0.,1.));
#1036=DIRECTION('center_axis',(1.11022302462516E-16,8.80425117434165E-32,
1.));
#1037=DIRECTION('ref_axis',(-0.707106781186548,-0.707106781186547,0.));
#1038=DIRECTION('',(-1.11022302462516E-16,-8.80425117434165E-32,-1.));
#1039=DIRECTION('',(1.11022302462516E-16,8.80425117434165E-32,1.));
#1040=DIRECTION('center_axis',(0.,0.,1.));
#1041=DIRECTION('ref_axis',(-0.707106781186548,-0.707106781186547,0.));
#1042=DIRECTION('center_axis',(-1.,0.,1.11022302462516E-16));
#1043=DIRECTION('ref_axis',(1.11022302462516E-16,-6.29001173107822E-32,
1.));
#1044=DIRECTION('',(0.,1.,0.));
#1045=DIRECTION('',(1.11022302462516E-16,-6.29001173107822E-32,1.));
#1046=DIRECTION('center_axis',(0.,0.,-1.));
#1047=DIRECTION('ref_axis',(0.923879532511287,-0.38268343236509,0.));
#1048=DIRECTION('center_axis',(0.,0.,-1.));
#1049=DIRECTION('ref_axis',(0.707106781186548,-0.707106781186548,0.));
#1050=DIRECTION('center_axis',(1.,0.,0.));
#1051=DIRECTION('ref_axis',(0.,0.,-1.));
#1052=DIRECTION('center_axis',(0.,0.,1.));
#1053=DIRECTION('ref_axis',(-1.77635683940025E-15,-1.,0.));
#1054=DIRECTION('center_axis',(-1.,0.,0.));
#1055=DIRECTION('ref_axis',(0.,0.707106781186547,-0.707106781186548));
#1056=DIRECTION('',(-1.,0.,0.));
#1057=DIRECTION('center_axis',(1.,0.,0.));
#1058=DIRECTION('ref_axis',(0.,0.,-1.));
#1059=DIRECTION('',(1.,0.,0.));
#1060=DIRECTION('center_axis',(0.,0.,-1.));
#1061=DIRECTION('ref_axis',(-1.,0.,0.));
#1062=DIRECTION('center_axis',(0.,0.,1.));
#1063=DIRECTION('ref_axis',(-1.,-2.22044604925031E-16,0.));
#1064=DIRECTION('center_axis',(0.,0.,-1.));
#1065=DIRECTION('ref_axis',(-0.707106781186548,-0.707106781186547,0.));
#1066=DIRECTION('center_axis',(0.,0.,1.));
#1067=DIRECTION('ref_axis',(0.,1.,0.));
#1068=DIRECTION('',(-1.,0.,0.));
#1069=DIRECTION('center_axis',(0.,0.,1.));
#1070=DIRECTION('ref_axis',(0.707106781186547,-0.707106781186548,0.));
#1071=DIRECTION('',(1.,0.,0.));
#1072=DIRECTION('center_axis',(0.,0.,1.));
#1073=DIRECTION('ref_axis',(-0.707106781186548,-0.707106781186547,0.));
#1074=DIRECTION('center_axis',(0.,0.,1.));
#1075=DIRECTION('ref_axis',(1.,0.,0.));
#1076=DIRECTION('center_axis',(-1.,9.86864910777917E-16,0.));
#1077=DIRECTION('ref_axis',(0.,0.,-1.));
#1078=DIRECTION('center_axis',(0.,0.,1.));
#1079=DIRECTION('ref_axis',(-1.,-1.11022302462516E-16,0.));
#1080=DIRECTION('center_axis',(1.,0.,0.));
#1081=DIRECTION('ref_axis',(0.,-0.707106781186548,-0.707106781186547));
#1082=DIRECTION('center_axis',(-1.,0.,0.));
#1083=DIRECTION('ref_axis',(0.,0.,-1.));
#1084=DIRECTION('',(1.,0.,0.));
#1085=DIRECTION('center_axis',(0.,0.,1.));
#1086=DIRECTION('ref_axis',(1.,0.,0.));
#1087=DIRECTION('center_axis',(-7.93016446160826E-16,1.,0.));
#1088=DIRECTION('ref_axis',(1.,7.93016446160826E-16,0.));
#1089=DIRECTION('center_axis',(0.,0.,1.));
#1090=DIRECTION('ref_axis',(-8.88178419700126E-16,-1.,0.));
#1091=DIRECTION('center_axis',(0.,0.,1.));
#1092=DIRECTION('ref_axis',(1.,0.,0.));
#1093=DIRECTION('',(0.,0.,1.));
#1094=DIRECTION('center_axis',(0.,0.,1.));
#1095=DIRECTION('ref_axis',(1.,0.,0.));
#1096=DIRECTION('',(0.,0.,1.));
#1097=DIRECTION('center_axis',(0.,0.,-1.));
#1098=DIRECTION('ref_axis',(-1.,0.,0.));
#1099=DIRECTION('',(0.,0.,1.));
#1100=DIRECTION('center_axis',(0.,0.,1.));
#1101=DIRECTION('ref_axis',(-1.,0.,0.));
#1102=DIRECTION('center_axis',(7.93016446160826E-16,-1.,0.));
#1103=DIRECTION('ref_axis',(-1.,-7.93016446160826E-16,3.52170046973666E-32));
#1104=DIRECTION('',(1.,7.93016446160826E-16,-3.52170046973666E-32));
#1105=DIRECTION('center_axis',(0.,0.,-1.));
#1106=DIRECTION('ref_axis',(-1.,0.,0.));
#1107=DIRECTION('',(0.,0.,1.));
#1108=DIRECTION('center_axis',(0.,0.,-1.));
#1109=DIRECTION('ref_axis',(-1.,0.,0.));
#1110=DIRECTION('center_axis',(-1.,8.88178419700125E-16,0.));
#1111=DIRECTION('ref_axis',(8.88178419700125E-16,1.,0.));
#1112=DIRECTION('',(-8.88178419700125E-16,-1.,0.));
#1113=DIRECTION('center_axis',(0.,-6.93889390390722E-17,1.));
#1114=DIRECTION('ref_axis',(-5.0532154980743E-16,-1.,-6.93889390390722E-17));
#1115=DIRECTION('center_axis',(0.,0.,1.));
#1116=DIRECTION('ref_axis',(1.,-7.40148683083438E-16,0.));
#1117=DIRECTION('',(-1.,0.,0.));
#1118=DIRECTION('',(0.,-1.,0.));
#1119=DIRECTION('center_axis',(0.,0.,1.));
#1120=DIRECTION('ref_axis',(3.1720657846433E-16,1.,0.));
#1121=DIRECTION('',(-1.,0.,0.));
#1122=DIRECTION('center_axis',(0.,0.,1.));
#1123=DIRECTION('ref_axis',(1.,-7.93016446160826E-16,0.));
#1124=DIRECTION('',(0.,1.,0.));
#1125=DIRECTION('center_axis',(0.,0.,1.));
#1126=DIRECTION('ref_axis',(0.,-1.,0.));
#1127=DIRECTION('',(1.,0.,0.));
#1128=DIRECTION('center_axis',(0.,0.,1.));
#1129=DIRECTION('ref_axis',(-1.,-1.98254111540206E-16,0.));
#1130=DIRECTION('center_axis',(0.,0.,1.));
#1131=DIRECTION('ref_axis',(1.,0.,0.));
#1132=DIRECTION('center_axis',(1.,-4.05741624797134E-16,0.));
#1133=DIRECTION('ref_axis',(-4.05741624797134E-16,-1.,1.73472347597681E-17));
#1134=DIRECTION('center_axis',(4.66973964754502E-16,1.,0.));
#1135=DIRECTION('ref_axis',(1.,-4.66973964754502E-16,1.73472347597681E-17));
#1136=DIRECTION('center_axis',(0.,0.,1.));
#1137=DIRECTION('ref_axis',(7.40148683083436E-16,1.,0.));
#1138=DIRECTION('center_axis',(0.,0.,1.));
#1139=DIRECTION('ref_axis',(0.,1.,0.));
#1140=DIRECTION('',(4.504636938986E-32,1.11022302462516E-16,1.));
#1141=DIRECTION('center_axis',(0.,0.,1.));
#1142=DIRECTION('ref_axis',(1.33226762955019E-15,1.,0.));
#1143=DIRECTION('',(-1.11022302462516E-16,5.18445247570944E-32,1.));
#1144=DIRECTION('center_axis',(0.,1.,-2.22044604925031E-17));
#1145=DIRECTION('ref_axis',(-9.009273877972E-33,-2.22044604925031E-17,-1.));
#1146=DIRECTION('',(-9.009273877972E-33,-2.22044604925031E-17,-1.));
#1147=DIRECTION('center_axis',(-1.,0.,0.));
#1148=DIRECTION('ref_axis',(0.,-1.,1.73472347597681E-17));
#1149=DIRECTION('center_axis',(1.,-4.05741624797134E-16,0.));
#1150=DIRECTION('ref_axis',(-4.05741624797134E-16,-1.,1.73472347597681E-17));
#1151=DIRECTION('',(-1.,0.,0.));
#1152=DIRECTION('center_axis',(0.,-1.,1.11022302462516E-16));
#1153=DIRECTION('ref_axis',(4.504636938986E-32,1.11022302462516E-16,1.));
#1154=DIRECTION('',(4.504636938986E-32,1.11022302462516E-16,1.));
#1155=DIRECTION('',(-1.,0.,0.));
#1156=DIRECTION('center_axis',(0.,0.,1.));
#1157=DIRECTION('ref_axis',(1.,-2.22044604925031E-16,0.));
#1158=DIRECTION('center_axis',(0.,0.,1.));
#1159=DIRECTION('ref_axis',(1.,0.,0.));
#1160=DIRECTION('center_axis',(-5.66553889764798E-16,-1.,0.));
#1161=DIRECTION('ref_axis',(-1.,5.66553889764798E-16,1.73472347597681E-17));
#1162=DIRECTION('center_axis',(0.,0.,1.));
#1163=DIRECTION('ref_axis',(1.,9.25185853854294E-17,0.));
#1164=DIRECTION('center_axis',(0.,0.,1.));
#1165=DIRECTION('ref_axis',(1.,-2.22044604925031E-16,0.));
#1166=DIRECTION('center_axis',(0.,0.,1.));
#1167=DIRECTION('ref_axis',(1.,-6.66133814775094E-16,0.));
#1168=DIRECTION('center_axis',(0.,1.,0.));
#1169=DIRECTION('ref_axis',(-1.,0.,1.73472347597681E-17));
#1170=DIRECTION('center_axis',(-5.66553889764798E-16,-1.,0.));
#1171=DIRECTION('ref_axis',(-1.,5.66553889764798E-16,1.73472347597681E-17));
#1172=DIRECTION('',(0.,1.,0.));
#1173=DIRECTION('center_axis',(0.,0.,1.));
#1174=DIRECTION('ref_axis',(1.,0.,0.));
#1175=DIRECTION('center_axis',(-1.,5.0532154980743E-16,0.));
#1176=DIRECTION('ref_axis',(5.0532154980743E-16,1.,1.73472347597681E-17));
#1177=DIRECTION('center_axis',(0.,0.,1.));
#1178=DIRECTION('ref_axis',(-7.40148683083436E-16,-1.,0.));
#1179=DIRECTION('center_axis',(1.,0.,0.));
#1180=DIRECTION('ref_axis',(0.,1.,1.73472347597681E-17));
#1181=DIRECTION('center_axis',(-1.,5.0532154980743E-16,0.));
#1182=DIRECTION('ref_axis',(5.0532154980743E-16,1.,1.73472347597681E-17));
#1183=DIRECTION('',(1.,0.,0.));
#1184=DIRECTION('center_axis',(0.,1.38777878078142E-16,1.));
#1185=DIRECTION('ref_axis',(-5.0532154980743E-16,-1.,1.38777878078142E-16));
#1186=DIRECTION('',(0.,-1.,0.));
#1187=DIRECTION('center_axis',(0.,0.,1.));
#1188=DIRECTION('ref_axis',(-1.,-9.25185853854295E-17,0.));
#1189=DIRECTION('',(0.,-1.,0.));
#1190=DIRECTION('center_axis',(0.,0.,1.));
#1191=DIRECTION('ref_axis',(1.,0.,0.));
#1192=DIRECTION('center_axis',(0.,1.,0.));
#1193=DIRECTION('ref_axis',(1.,0.,1.73472347597681E-17));
#1194=DIRECTION('center_axis',(0.,-1.,0.));
#1195=DIRECTION('ref_axis',(1.,0.,1.73472347597681E-17));
#1196=DIRECTION('center_axis',(1.,0.,1.11022302462516E-16));
#1197=DIRECTION('ref_axis',(-1.11022302462516E-16,0.,1.));
#1198=CARTESIAN_POINT('',(0.,0.,0.));
#1199=CARTESIAN_POINT('Origin',(46.,-6.10622663543836E-15,-2.71478709783888E-46));
#1200=CARTESIAN_POINT('',(46.,-5.,-25.));
#1201=CARTESIAN_POINT('',(51.,-6.10622663543836E-15,-25.));
#1202=CARTESIAN_POINT('Origin',(46.,-6.10622663543836E-15,-25.));
#1203=CARTESIAN_POINT('',(51.,-6.10622663543836E-15,-2.69266313254335E-46));
#1204=CARTESIAN_POINT('',(51.,-6.10622663543836E-15,-2.71478709783888E-46));
#1205=CARTESIAN_POINT('',(46.,-5.00000000000001,1.76085023486833E-31));
#1206=CARTESIAN_POINT('Origin',(46.,-6.10622663543836E-15,-6.93889390390722E-17));
#1207=CARTESIAN_POINT('',(46.,-5.00000000000001,-2.71478709783888E-46));
#1208=CARTESIAN_POINT('Origin',(51.,5.00000000000001,-2.69266313254335E-46));
#1209=CARTESIAN_POINT('',(51.,0.583135585918917,-25.));
#1210=CARTESIAN_POINT('',(51.,-5.,-25.));
#1211=CARTESIAN_POINT('',(51.,0.583135585918917,-2.69266313254335E-46));
#1212=CARTESIAN_POINT('',(51.,0.583135585918916,-12.5));
#1213=CARTESIAN_POINT('',(51.,-5.,-2.69266313254335E-46));
#1214=CARTESIAN_POINT('Origin',(9.99999999999999,-20.,-25.));
#1215=CARTESIAN_POINT('',(40.,-5.,-25.));
#1216=CARTESIAN_POINT('',(30.5,-5.,-25.));
#1217=CARTESIAN_POINT('',(35.,-1.11022302462516E-14,-25.));
#1218=CARTESIAN_POINT('Origin',(40.,-1.08246744900953E-14,-25.));
#1219=CARTESIAN_POINT('',(35.,5.,-25.));
#1220=CARTESIAN_POINT('',(35.,-5.,-25.));
#1221=CARTESIAN_POINT('',(30.,10.,-25.));
#1222=CARTESIAN_POINT('Origin',(30.,5.,-25.));
#1223=CARTESIAN_POINT('',(10.,10.,-25.));
#1224=CARTESIAN_POINT('',(30.,10.,-25.));
#1225=CARTESIAN_POINT('',(5.,5.00000000000001,-25.));
#1226=CARTESIAN_POINT('Origin',(10.,5.,-25.));
#1227=CARTESIAN_POINT('',(5.,3.33066907387547E-15,-25.));
#1228=CARTESIAN_POINT('',(5.,0.,-25.));
#1229=CARTESIAN_POINT('',(2.22044604925031E-15,-5.,-25.));
#1230=CARTESIAN_POINT('Origin',(2.22044604925031E-15,3.33066907387547E-15,
-25.));
#1231=CARTESIAN_POINT('',(-6.00000000000001,-5.,-25.));
#1232=CARTESIAN_POINT('',(-11.,-5.,-25.));
#1233=CARTESIAN_POINT('',(-11.,7.7715611723761E-15,-25.));
#1234=CARTESIAN_POINT('Origin',(-6.00000000000001,3.33066907387547E-15,
-25.));
#1235=CARTESIAN_POINT('',(-11.,0.583135585918922,-25.));
#1236=CARTESIAN_POINT('',(-11.,5.,-25.));
#1237=CARTESIAN_POINT('',(-7.68245836551855,5.29156779295946,-25.));
#1238=CARTESIAN_POINT('Origin',(-6.00000000000001,0.583135585918917,-25.));
#1239=CARTESIAN_POINT('',(-4.52368754827781,8.75,-25.));
#1240=CARTESIAN_POINT('Origin',(-9.36491673103708,10.,-25.));
#1241=CARTESIAN_POINT('',(10.,20.,-25.));
#1242=CARTESIAN_POINT('Origin',(10.,5.,-25.));
#1243=CARTESIAN_POINT('',(30.,20.,-25.));
#1244=CARTESIAN_POINT('',(30.,20.,-25.));
#1245=CARTESIAN_POINT('',(44.5236875482778,8.75,-25.));
#1246=CARTESIAN_POINT('Origin',(30.,5.,-25.));
#1247=CARTESIAN_POINT('',(47.6824583655185,5.29156779295946,-25.));
#1248=CARTESIAN_POINT('Origin',(49.3649167310371,10.,-25.));
#1249=CARTESIAN_POINT('Origin',(46.,0.583135585918916,-25.));
#1250=CARTESIAN_POINT('',(-5.1,2.54717263838265E-16,-25.));
#1251=CARTESIAN_POINT('Origin',(-6.5,8.32667119576356E-17,-25.));
#1252=CARTESIAN_POINT('',(47.9,0.,-25.));
#1253=CARTESIAN_POINT('Origin',(46.5,0.,-25.));
#1254=CARTESIAN_POINT('',(-2.00000002980232,2.44929363479203E-16,-25.));
#1255=CARTESIAN_POINT('Origin',(0.,0.,-25.));
#1256=CARTESIAN_POINT('',(37.9999999701977,2.44929363479203E-16,-25.));
#1257=CARTESIAN_POINT('Origin',(40.,0.,-25.));
#1258=CARTESIAN_POINT('Origin',(46.,0.583135585918916,-12.5));
#1259=CARTESIAN_POINT('',(47.6824583655185,5.29156779295946,-1.6335655769197E-16));
#1260=CARTESIAN_POINT('',(47.6824583655185,5.29156779295946,-12.5));
#1261=CARTESIAN_POINT('Origin',(46.,0.583135585918916,0.));
#1262=CARTESIAN_POINT('Origin',(49.3649167310371,10.,-12.5));
#1263=CARTESIAN_POINT('',(44.5236875482778,8.75,0.));
#1264=CARTESIAN_POINT('',(44.5236875482778,8.75,-12.5));
#1265=CARTESIAN_POINT('Origin',(49.3649167310371,10.,0.));
#1266=CARTESIAN_POINT('Origin',(-6.00000000000001,0.583135585918917,-12.5));
#1267=CARTESIAN_POINT('',(-11.,0.583135585918922,0.));
#1268=CARTESIAN_POINT('',(-7.68245836551855,5.29156779295946,-1.6335655769197E-16));
#1269=CARTESIAN_POINT('Origin',(-6.00000000000001,0.583135585918917,0.));
#1270=CARTESIAN_POINT('',(-7.68245836551855,5.29156779295946,-12.5));
#1271=CARTESIAN_POINT('',(-11.,0.583135585918922,-12.5));
#1272=CARTESIAN_POINT('Origin',(-9.36491673103708,10.,-12.5));
#1273=CARTESIAN_POINT('',(-4.52368754827781,8.75,0.));
#1274=CARTESIAN_POINT('Origin',(-9.36491673103708,10.,0.));
#1275=CARTESIAN_POINT('',(-4.52368754827781,8.75,-12.5));
#1276=CARTESIAN_POINT('Origin',(10.,5.,-12.5));
#1277=CARTESIAN_POINT('',(10.,20.,-1.38777878078144E-16));
#1278=CARTESIAN_POINT('Origin',(10.,5.,-1.38777878078144E-16));
#1279=CARTESIAN_POINT('',(10.,20.,-1.38777878078144E-16));
#1280=CARTESIAN_POINT('Origin',(-6.00000000000001,3.33066907387547E-15,
0.));
#1281=CARTESIAN_POINT('',(-6.00000000000001,-5.,0.));
#1282=CARTESIAN_POINT('',(-6.00000000000001,-5.,0.));
#1283=CARTESIAN_POINT('',(-11.,7.7715611723761E-15,0.));
#1284=CARTESIAN_POINT('Origin',(-6.00000000000001,3.33066907387547E-15,
-6.93889390390722E-17));
#1285=CARTESIAN_POINT('',(-11.,7.7715611723761E-15,0.));
#1286=CARTESIAN_POINT('Origin',(-4.,-5.,0.));
#1287=CARTESIAN_POINT('',(0.,-5.,-4.5));
#1288=CARTESIAN_POINT('',(8.32667268468867E-16,-5.,-12.5));
#1289=CARTESIAN_POINT('',(-0.5,-5.,-4.5));
#1290=CARTESIAN_POINT('',(51.,-5.,-4.5));
#1291=CARTESIAN_POINT('',(-5.,-5.,-1.38777878078144E-16));
#1292=CARTESIAN_POINT('Origin',(-0.5,-5.,2.22044604925031E-15));
#1293=CARTESIAN_POINT('',(-11.,-5.,0.));
#1294=CARTESIAN_POINT('Origin',(8.32667268468867E-16,3.33066907387547E-15,
-12.5));
#1295=CARTESIAN_POINT('',(0.500033069072373,-4.97493386185525,-4.5));
#1296=CARTESIAN_POINT('Origin',(-5.55111512312575E-17,3.33066907387547E-15,
-4.5));
#1297=CARTESIAN_POINT('',(5.,3.33066907387547E-15,-3.78817745432339));
#1298=CARTESIAN_POINT('',(5.,3.33066907387547E-15,-12.5));
#1299=CARTESIAN_POINT('Ctrl Pts',(0.500033069072373,-4.97493386185525,-4.5));
#1300=CARTESIAN_POINT('Ctrl Pts',(0.873184782074382,-4.93742819816942,-4.5));
#1301=CARTESIAN_POINT('Ctrl Pts',(1.23743030213548,-4.85854325393358,-4.45355616309743));
#1302=CARTESIAN_POINT('Ctrl Pts',(2.17962694118951,-4.54296519652768,-4.22222402889745));
#1303=CARTESIAN_POINT('Ctrl Pts',(2.67195963242316,-4.25635564426102,-3.97869641443967));
#1304=CARTESIAN_POINT('Ctrl Pts',(3.39187990541875,-3.69598666914418,-3.56156006578525));
#1305=CARTESIAN_POINT('Ctrl Pts',(3.67091269919906,-3.41622484999299,-3.37260463207895));
#1306=CARTESIAN_POINT('Ctrl Pts',(4.04902146565598,-2.94204953559119,-3.15912163146446));
#1307=CARTESIAN_POINT('Ctrl Pts',(4.18039750427558,-2.75323318653518,-3.09582620611993));
#1308=CARTESIAN_POINT('Ctrl Pts',(4.39511343182904,-2.3910204807447,-3.03751528457712));
#1309=CARTESIAN_POINT('Ctrl Pts',(4.47962231576816,-2.2288042687784,-3.03131324891178));
#1310=CARTESIAN_POINT('Ctrl Pts',(4.64403055369668,-1.86505701902795,-3.06201695790858));
#1311=CARTESIAN_POINT('Ctrl Pts',(4.71709016633612,-1.67065268658095,-3.10463297089835));
#1312=CARTESIAN_POINT('Ctrl Pts',(4.87707221982658,-1.15239211725322,-3.2636980539915));
#1313=CARTESIAN_POINT('Ctrl Pts',(4.94182931269323,-0.825992805832867,-3.40905329445723));
#1314=CARTESIAN_POINT('Ctrl Pts',(4.9908156470328,-0.343695260325227,-3.63007128129546));
#1315=CARTESIAN_POINT('Ctrl Pts',(5.,-0.174945239378589,-3.70885937189757));
#1316=CARTESIAN_POINT('Ctrl Pts',(5.,4.23272528138341E-15,-3.78817745432339));
#1317=CARTESIAN_POINT('Origin',(40.,-1.08246744900953E-14,-12.5));
#1318=CARTESIAN_POINT('',(35.,-1.11022302462516E-14,-3.78817745432338));
#1319=CARTESIAN_POINT('',(39.4999669309276,-4.97493386185527,-4.5));
#1320=CARTESIAN_POINT('Ctrl Pts',(35.,-1.09727504860047E-11,-3.78817745431842));
#1321=CARTESIAN_POINT('Ctrl Pts',(35.0000000000001,-0.0300573342459989,
-3.77454981790587));
#1322=CARTESIAN_POINT('Ctrl Pts',(35.0002710389138,-0.0599161753650737,
-3.76094411240495));
#1323=CARTESIAN_POINT('Ctrl Pts',(35.0080827214334,-0.495911922848504,-3.56156006578524));
#1324=CARTESIAN_POINT('Ctrl Pts',(35.0644725004862,-0.886995249363473,-3.37260463207895));
#1325=CARTESIAN_POINT('Ctrl Pts',(35.2169474921335,-1.47398745117008,-3.15912163146447));
#1326=CARTESIAN_POINT('Ctrl Pts',(35.2891749482065,-1.69237809149936,-3.09582620611993));
#1327=CARTESIAN_POINT('Ctrl Pts',(35.4501155563068,-2.08147845701642,-3.03751528457712));
#1328=CARTESIAN_POINT('Ctrl Pts',(35.5291831955164,-2.24641529134749,-3.03131324891178));
#1329=CARTESIAN_POINT('Ctrl Pts',(35.7215360525596,-2.59619023154057,-3.06201695790858));
#1330=CARTESIAN_POINT('Ctrl Pts',(35.8332237509335,-2.7712805211203,-3.10463297089834));
#1331=CARTESIAN_POINT('Ctrl Pts',(36.1518429743015,-3.21022250550934,-3.26369805399151));
#1332=CARTESIAN_POINT('Ctrl Pts',(36.3741081677178,-3.45786776665488,-3.40905329445724));
#1333=CARTESIAN_POINT('Ctrl Pts',(36.9681603214359,-4.00545746662582,-3.77740116267397));
#1334=CARTESIAN_POINT('Ctrl Pts',(37.4150764900627,-4.32187810518975,-4.04138916560455));
#1335=CARTESIAN_POINT('Ctrl Pts',(38.3620019018249,-4.74420190876668,-4.37365307174117));
#1336=CARTESIAN_POINT('Ctrl Pts',(38.7891962678866,-4.87268168822455,-4.46656223028614));
#1337=CARTESIAN_POINT('Ctrl Pts',(39.3273656604715,-4.955317600662,-4.49751876204849));
#1338=CARTESIAN_POINT('Ctrl Pts',(39.4136737112088,-4.96626048755637,-4.5));
#1339=CARTESIAN_POINT('Ctrl Pts',(39.4999669309276,-4.97493386185527,-4.5));
#1340=CARTESIAN_POINT('',(35.,-1.08246744900953E-14,-12.5));
#1341=CARTESIAN_POINT('',(40.,-5.,-4.5));
#1342=CARTESIAN_POINT('',(40.,-5.00000000000001,-12.5));
#1343=CARTESIAN_POINT('Origin',(40.,-1.08246744900953E-14,-4.5));
#1344=CARTESIAN_POINT('Origin',(35.,-5.,-25.));
#1345=CARTESIAN_POINT('',(35.,-5.,0.));
#1346=CARTESIAN_POINT('Ctrl Pts',(35.,-5.,2.22044604925031E-15));
#1347=CARTESIAN_POINT('Ctrl Pts',(35.,-4.34145441564772,-0.624751196879921));
#1348=CARTESIAN_POINT('Ctrl Pts',(35.,-3.61788451606331,-1.31374194149593));
#1349=CARTESIAN_POINT('Ctrl Pts',(35.,-2.0862867987354,-2.57535711191428));
#1350=CARTESIAN_POINT('Ctrl Pts',(35.,-1.27369927882189,-3.14243585630291));
#1351=CARTESIAN_POINT('Ctrl Pts',(35.,-0.317670070307826,-3.63863223909887));
#1352=CARTESIAN_POINT('Ctrl Pts',(35.,-0.161275846455633,-3.7150569114158));
#1353=CARTESIAN_POINT('Ctrl Pts',(35.,-1.19348975147204E-14,-3.78817745432339));
#1354=CARTESIAN_POINT('',(35.,5.,0.));
#1355=CARTESIAN_POINT('',(35.,-5.,0.));
#1356=CARTESIAN_POINT('',(35.,4.99999999999999,-25.));
#1357=CARTESIAN_POINT('Origin',(30.,-5.,2.22044604925031E-15));
#1358=CARTESIAN_POINT('',(30.,-14.5,-4.5));
#1359=CARTESIAN_POINT('Origin',(30.,-5.,-4.5));
#1360=CARTESIAN_POINT('',(30.,-10.,0.));
#1361=CARTESIAN_POINT('Origin',(30.,-14.5,2.22044604925031E-15));
#1362=CARTESIAN_POINT('Origin',(30.,-5.00000000000001,0.));
#1363=CARTESIAN_POINT('Origin',(30.5,-14.5,2.22044604925031E-15));
#1364=CARTESIAN_POINT('',(10.,-14.5,-4.5));
#1365=CARTESIAN_POINT('',(30.5,-14.5,-4.5));
#1366=CARTESIAN_POINT('',(10.,-10.,0.));
#1367=CARTESIAN_POINT('Origin',(10.,-14.5,2.22044604925031E-15));
#1368=CARTESIAN_POINT('',(10.,-10.,0.));
#1369=CARTESIAN_POINT('Origin',(10.,-5.,2.22044604925031E-15));
#1370=CARTESIAN_POINT('',(5.,-5.,0.));
#1371=CARTESIAN_POINT('Origin',(10.,-5.,0.));
#1372=CARTESIAN_POINT('Origin',(10.,-5.,-4.5));
#1373=CARTESIAN_POINT('Ctrl Pts',(5.,3.05311331771918E-15,-3.78817745432339));
#1374=CARTESIAN_POINT('Ctrl Pts',(5.,-0.161275846455622,-3.7150569114158));
#1375=CARTESIAN_POINT('Ctrl Pts',(5.,-0.31767007030782,-3.63863223909887));
#1376=CARTESIAN_POINT('Ctrl Pts',(5.,-1.27369927882189,-3.14243585630291));
#1377=CARTESIAN_POINT('Ctrl Pts',(5.,-2.0862867987354,-2.57535711191428));
#1378=CARTESIAN_POINT('Ctrl Pts',(5.,-3.6178845160633,-1.31374194149593));
#1379=CARTESIAN_POINT('Ctrl Pts',(5.,-4.34145441564772,-0.624751196879921));
#1380=CARTESIAN_POINT('Ctrl Pts',(5.,-5.,2.22044604925031E-15));
#1381=CARTESIAN_POINT('Origin',(51.,-25.000000372529,-4.5));
#1382=CARTESIAN_POINT('',(40.5,-5.,-4.5));
#1383=CARTESIAN_POINT('',(51.,-5.,-4.5));
#1384=CARTESIAN_POINT('',(30.,-15.5,-4.5));
#1385=CARTESIAN_POINT('Origin',(30.,-5.,-4.5));
#1386=CARTESIAN_POINT('',(10.,-15.5,-4.5));
#1387=CARTESIAN_POINT('',(30.5,-15.5,-4.5));
#1388=CARTESIAN_POINT('Origin',(10.,-5.,-4.5));
#1389=CARTESIAN_POINT('Origin',(10.,-5.,2.22044604925031E-15));
#1390=CARTESIAN_POINT('',(9.99999999999999,-20.,-1.38777878078144E-16));
#1391=CARTESIAN_POINT('Origin',(10.,-15.5,2.22044604925031E-15));
#1392=CARTESIAN_POINT('Origin',(10.,-5.,-1.38777878078144E-16));
#1393=CARTESIAN_POINT('Origin',(30.5,-15.5,2.77555756156289E-15));
#1394=CARTESIAN_POINT('',(30.,-20.,-1.38777878078144E-16));
#1395=CARTESIAN_POINT('Origin',(30.,-15.5,2.77555756156289E-15));
#1396=CARTESIAN_POINT('',(9.99999999999999,-20.,-1.38777878078144E-16));
#1397=CARTESIAN_POINT('Origin',(30.,-5.,2.22044604925031E-15));
#1398=CARTESIAN_POINT('',(45.,-5.00000000000001,-1.38777878078144E-16));
#1399=CARTESIAN_POINT('Origin',(40.5,-4.99999999999999,2.22044604925031E-15));
#1400=CARTESIAN_POINT('Origin',(30.,-5.00000000000001,-1.38777878078144E-16));
#1401=CARTESIAN_POINT('Origin',(40.,0.,-25.));
#1402=CARTESIAN_POINT('',(37.9999999701977,-2.44929363479203E-16,-3.46410159793136));
#1403=CARTESIAN_POINT('',(37.9999999701977,-2.44929363479203E-16,-25.));
#1404=CARTESIAN_POINT('',(42.0000000298023,1.04083408558608E-16,-3.46410159793136));
#1405=CARTESIAN_POINT('Ctrl Pts',(42.0000000298023,1.04083408558608E-16,
-3.46410159793136));
#1406=CARTESIAN_POINT('Ctrl Pts',(42.0000000298023,-0.256610137945387,-3.46410159793136));
#1407=CARTESIAN_POINT('Ctrl Pts',(41.947771197907,-0.526277210614291,-3.49565085584606));
#1408=CARTESIAN_POINT('Ctrl Pts',(41.7424574453358,-1.01716473433798,-3.60239201248222));
#1409=CARTESIAN_POINT('Ctrl Pts',(41.5895116798857,-1.23891548700737,-3.67540092504043));
#1410=CARTESIAN_POINT('Ctrl Pts',(41.2393933581753,-1.58903380871776,-3.80773321425018));
#1411=CARTESIAN_POINT('Ctrl Pts',(41.0174815315791,-1.74233018570092,-3.87652967829953));
#1412=CARTESIAN_POINT('Ctrl Pts',(40.5258901590354,-1.94792784070415,-3.97318393587832));
#1413=CARTESIAN_POINT('Ctrl Pts',(40.2559106061832,-2.00000002980232,-3.99999999999998));
#1414=CARTESIAN_POINT('Ctrl Pts',(39.7440893938168,-2.00000002980232,-3.99999999999998));
#1415=CARTESIAN_POINT('Ctrl Pts',(39.4741098409646,-1.94792784070415,-3.97318393587832));
#1416=CARTESIAN_POINT('Ctrl Pts',(38.9825184684209,-1.74233018570092,-3.87652967829953));
#1417=CARTESIAN_POINT('Ctrl Pts',(38.7606066418247,-1.58903380871776,-3.80773321425018));
#1418=CARTESIAN_POINT('Ctrl Pts',(38.4104883201143,-1.23891548700737,-3.67540092504043));
#1419=CARTESIAN_POINT('Ctrl Pts',(38.2575425546642,-1.01716473433798,-3.60239201248222));
#1420=CARTESIAN_POINT('Ctrl Pts',(38.052228802093,-0.52627721061429,-3.49565085584605));
#1421=CARTESIAN_POINT('Ctrl Pts',(37.9999999701977,-0.256610137945387,-3.46410159793136));
#1422=CARTESIAN_POINT('Ctrl Pts',(37.9999999701977,4.5102810375397E-16,
-3.46410159793136));
#1423=CARTESIAN_POINT('Ctrl Pts',(37.9999999701977,-4.85722573273506E-16,
-3.46410159793136));
#1424=CARTESIAN_POINT('Ctrl Pts',(37.9999999701977,0.256610137945387,-3.46410159793136));
#1425=CARTESIAN_POINT('Ctrl Pts',(38.052228802093,0.52627721061429,-3.49565085584605));
#1426=CARTESIAN_POINT('Ctrl Pts',(38.2575425546642,1.01716473433798,-3.60239201248222));
#1427=CARTESIAN_POINT('Ctrl Pts',(38.4104883201143,1.23891548700737,-3.67540092504043));
#1428=CARTESIAN_POINT('Ctrl Pts',(38.7606066418247,1.58903380871776,-3.80773321425018));
#1429=CARTESIAN_POINT('Ctrl Pts',(38.9825184684209,1.74233018570092,-3.87652967829954));
#1430=CARTESIAN_POINT('Ctrl Pts',(39.4741098409646,1.94792784070416,-3.97318393587833));
#1431=CARTESIAN_POINT('Ctrl Pts',(39.7440893938168,2.00000002980232,-3.99999999999998));
#1432=CARTESIAN_POINT('Ctrl Pts',(40.2559106061832,2.00000002980232,-3.99999999999998));
#1433=CARTESIAN_POINT('Ctrl Pts',(40.5258901590354,1.94792784070415,-3.97318393587832));
#1434=CARTESIAN_POINT('Ctrl Pts',(41.0174815315791,1.74233018570092,-3.87652967829953));
#1435=CARTESIAN_POINT('Ctrl Pts',(41.2393933581753,1.58903380871776,-3.80773321425018));
#1436=CARTESIAN_POINT('Ctrl Pts',(41.5895116798857,1.23891548700737,-3.67540092504043));
#1437=CARTESIAN_POINT('Ctrl Pts',(41.7424574453358,1.01716473433799,-3.60239201248222));
#1438=CARTESIAN_POINT('Ctrl Pts',(41.947771197907,0.526277210614291,-3.49565085584605));
#1439=CARTESIAN_POINT('Ctrl Pts',(42.0000000298023,0.256610137945387,-3.46410159793136));
#1440=CARTESIAN_POINT('Ctrl Pts',(42.0000000298023,-3.46944695195361E-16,
-3.46410159793136));
#1441=CARTESIAN_POINT('Origin',(0.,0.,-25.));
#1442=CARTESIAN_POINT('',(-2.00000002980232,6.93889390390723E-17,-3.46410159793136));
#1443=CARTESIAN_POINT('',(-2.00000002980232,-2.44929363479203E-16,-25.));
#1444=CARTESIAN_POINT('Ctrl Pts',(-2.00000002980232,6.93889390390723E-17,
-3.46410159793136));
#1445=CARTESIAN_POINT('Ctrl Pts',(-2.00000002980232,0.256610137945388,-3.46410159793136));
#1446=CARTESIAN_POINT('Ctrl Pts',(-1.94777119790697,0.526277210614291,-3.49565085584605));
#1447=CARTESIAN_POINT('Ctrl Pts',(-1.7424574453358,1.01716473433798,-3.60239201248222));
#1448=CARTESIAN_POINT('Ctrl Pts',(-1.58951167988566,1.23891548700737,-3.67540092504043));
#1449=CARTESIAN_POINT('Ctrl Pts',(-1.23939335817528,1.58903380871776,-3.80773321425018));
#1450=CARTESIAN_POINT('Ctrl Pts',(-1.01748153157906,1.74233018570092,-3.87652967829953));
#1451=CARTESIAN_POINT('Ctrl Pts',(-0.525890159035434,1.94792784070415,-3.97318393587832));
#1452=CARTESIAN_POINT('Ctrl Pts',(-0.255910606183171,2.00000002980232,-3.99999999999998));
#1453=CARTESIAN_POINT('Ctrl Pts',(0.255910606183171,2.00000002980232,-3.99999999999998));
#1454=CARTESIAN_POINT('Ctrl Pts',(0.525890159035434,1.94792784070415,-3.97318393587832));
#1455=CARTESIAN_POINT('Ctrl Pts',(1.01748153157906,1.74233018570092,-3.87652967829953));
#1456=CARTESIAN_POINT('Ctrl Pts',(1.23939335817528,1.58903380871776,-3.80773321425018));
#1457=CARTESIAN_POINT('Ctrl Pts',(1.58951167988566,1.23891548700737,-3.67540092504043));
#1458=CARTESIAN_POINT('Ctrl Pts',(1.7424574453358,1.01716473433798,-3.60239201248222));
#1459=CARTESIAN_POINT('Ctrl Pts',(1.94777119790697,0.526277210614291,-3.49565085584605));
#1460=CARTESIAN_POINT('Ctrl Pts',(2.00000002980232,0.256610137945387,-3.46410159793136));
#1461=CARTESIAN_POINT('Ctrl Pts',(2.00000002980232,-0.256610137945387,-3.46410159793136));
#1462=CARTESIAN_POINT('Ctrl Pts',(1.94777119790697,-0.526277210614291,-3.49565085584605));
#1463=CARTESIAN_POINT('Ctrl Pts',(1.7424574453358,-1.01716473433798,-3.60239201248222));
#1464=CARTESIAN_POINT('Ctrl Pts',(1.58951167988566,-1.23891548700737,-3.67540092504043));
#1465=CARTESIAN_POINT('Ctrl Pts',(1.23939335817528,-1.58903380871776,-3.80773321425018));
#1466=CARTESIAN_POINT('Ctrl Pts',(1.01748153157906,-1.74233018570092,-3.87652967829953));
#1467=CARTESIAN_POINT('Ctrl Pts',(0.525890159035434,-1.94792784070415,-3.97318393587832));
#1468=CARTESIAN_POINT('Ctrl Pts',(0.255910606183171,-2.00000002980232,-3.99999999999998));
#1469=CARTESIAN_POINT('Ctrl Pts',(-0.255910606183171,-2.00000002980232,
-3.99999999999998));
#1470=CARTESIAN_POINT('Ctrl Pts',(-0.525890159035434,-1.94792784070415,
-3.97318393587832));
#1471=CARTESIAN_POINT('Ctrl Pts',(-1.01748153157906,-1.74233018570092,-3.87652967829953));
#1472=CARTESIAN_POINT('Ctrl Pts',(-1.23939335817528,-1.58903380871776,-3.80773321425018));
#1473=CARTESIAN_POINT('Ctrl Pts',(-1.58951167988566,-1.23891548700737,-3.67540092504043));
#1474=CARTESIAN_POINT('Ctrl Pts',(-1.7424574453358,-1.01716473433798,-3.60239201248222));
#1475=CARTESIAN_POINT('Ctrl Pts',(-1.94777119790697,-0.526277210614291,
-3.49565085584605));
#1476=CARTESIAN_POINT('Ctrl Pts',(-2.00000002980232,-0.256610137945387,
-3.46410159793136));
#1477=CARTESIAN_POINT('Ctrl Pts',(-2.00000002980232,-2.08166817117217E-16,
-3.46410159793136));
#1478=CARTESIAN_POINT('Origin',(46.5,0.,0.));
#1479=CARTESIAN_POINT('',(47.9,1.71450551880629E-16,0.));
#1480=CARTESIAN_POINT('',(47.9,-1.71450551880629E-16,0.));
#1481=CARTESIAN_POINT('Origin',(46.5,0.,0.));
#1482=CARTESIAN_POINT('Origin',(51.,-5.,-2.73691106313441E-46));
#1483=CARTESIAN_POINT('',(44.,-5.00000000000001,2.46519032881566E-31));
#1484=CARTESIAN_POINT('Origin',(-6.5,8.32667119576356E-17,0.));
#1485=CARTESIAN_POINT('',(-5.1,2.54717263838265E-16,0.));
#1486=CARTESIAN_POINT('',(-5.1,-8.81838399229939E-17,0.));
#1487=CARTESIAN_POINT('Origin',(-6.5,8.32667119576356E-17,0.));
#1488=CARTESIAN_POINT('Origin',(-11.,-5.,0.));
#1489=CARTESIAN_POINT('',(-11.,5.,0.));
#1490=CARTESIAN_POINT('Origin',(9.99999999999999,-19.,-6.93889390390722E-17));
#1491=CARTESIAN_POINT('',(30.,20.,-1.38777878078144E-16));
#1492=CARTESIAN_POINT('Origin',(30.,5.,-1.38777878078144E-16));
#1493=CARTESIAN_POINT('',(30.,20.,-1.38777878078144E-16));
#1494=CARTESIAN_POINT('',(-4.,5.00000000000001,-6.93889390390722E-17));
#1495=CARTESIAN_POINT('',(-4.,-5.,-6.93889390390722E-17));
#1496=CARTESIAN_POINT('',(-4.,5.,-6.93889390390722E-17));
#1497=CARTESIAN_POINT('',(10.,19.,-6.93889390390722E-17));
#1498=CARTESIAN_POINT('Origin',(10.,5.,-6.93889390390722E-17));
#1499=CARTESIAN_POINT('',(30.,19.,-6.93889390390722E-17));
#1500=CARTESIAN_POINT('',(30.,19.,-6.93889390390722E-17));
#1501=CARTESIAN_POINT('',(44.,4.99999999999999,-6.93889390390722E-17));
#1502=CARTESIAN_POINT('Origin',(30.,5.,-6.93889390390722E-17));
#1503=CARTESIAN_POINT('',(44.,-5.00000000000001,-6.93889390390722E-17));
#1504=CARTESIAN_POINT('',(44.,-5.00000000000001,-6.93889390390722E-17));
#1505=CARTESIAN_POINT('',(30.,-19.,-6.93889390390722E-17));
#1506=CARTESIAN_POINT('Origin',(30.,-4.99999999999999,-6.93889390390722E-17));
#1507=CARTESIAN_POINT('',(9.99999999999999,-19.,-6.93889390390722E-17));
#1508=CARTESIAN_POINT('',(9.99999999999999,-19.,-6.93889390390722E-17));
#1509=CARTESIAN_POINT('Origin',(10.,-5.,-6.93889390390722E-17));
#1510=CARTESIAN_POINT('Origin',(10.,5.,0.));
#1511=CARTESIAN_POINT('',(10.,11.,6.93889390390723E-17));
#1512=CARTESIAN_POINT('Origin',(10.,15.,0.));
#1513=CARTESIAN_POINT('',(3.99999999999998,5.00000000000001,6.93889390390723E-17));
#1514=CARTESIAN_POINT('Origin',(0.,5.00000000000001,0.));
#1515=CARTESIAN_POINT('Origin',(10.,5.,6.93889390390723E-17));
#1516=CARTESIAN_POINT('Origin',(10.,5.,-12.5));
#1517=CARTESIAN_POINT('',(10.,10.,0.));
#1518=CARTESIAN_POINT('',(10.,10.,-25.));
#1519=CARTESIAN_POINT('',(5.,5.00000000000001,0.));
#1520=CARTESIAN_POINT('Origin',(10.,5.,0.));
#1521=CARTESIAN_POINT('',(5.,5.00000000000001,-25.));
#1522=CARTESIAN_POINT('Origin',(30.,20.,-1.38777878078144E-16));
#1523=CARTESIAN_POINT('',(30.,20.,-1.38777878078144E-16));
#1524=CARTESIAN_POINT('Origin',(30.,15.,0.));
#1525=CARTESIAN_POINT('',(30.,11.,6.93889390390723E-17));
#1526=CARTESIAN_POINT('Origin',(30.,15.,0.));
#1527=CARTESIAN_POINT('',(30.,11.,6.93889390390723E-17));
#1528=CARTESIAN_POINT('Origin',(30.,10.,-25.));
#1529=CARTESIAN_POINT('',(30.,10.,0.));
#1530=CARTESIAN_POINT('',(30.,10.,-25.));
#1531=CARTESIAN_POINT('',(30.,10.,0.));
#1532=CARTESIAN_POINT('Origin',(30.,5.,-12.5));
#1533=CARTESIAN_POINT('Origin',(30.,5.,0.));
#1534=CARTESIAN_POINT('',(36.,5.,6.93889390390723E-17));
#1535=CARTESIAN_POINT('Origin',(40.,4.99999999999999,0.));
#1536=CARTESIAN_POINT('Origin',(30.,4.99999999999999,6.93889390390723E-17));
#1537=CARTESIAN_POINT('Origin',(30.,5.,-12.5));
#1538=CARTESIAN_POINT('Origin',(30.,5.,0.));
#1539=CARTESIAN_POINT('Origin',(40.,-5.,0.));
#1540=CARTESIAN_POINT('',(36.,-5.,6.93889390390723E-17));
#1541=CARTESIAN_POINT('Origin',(40.,-5.,0.));
#1542=CARTESIAN_POINT('',(36.,-5.,6.93889390390723E-17));
#1543=CARTESIAN_POINT('Origin',(30.,-5.,0.));
#1544=CARTESIAN_POINT('',(30.,-11.,6.93889390390723E-17));
#1545=CARTESIAN_POINT('Origin',(30.,-15.,0.));
#1546=CARTESIAN_POINT('Origin',(30.,-5.,6.93889390390723E-17));
#1547=CARTESIAN_POINT('Origin',(9.99999999999999,-15.,0.));
#1548=CARTESIAN_POINT('',(10.,-11.,6.93889390390723E-17));
#1549=CARTESIAN_POINT('Origin',(9.99999999999999,-15.,0.));
#1550=CARTESIAN_POINT('',(10.,-11.,6.93889390390723E-17));
#1551=CARTESIAN_POINT('Origin',(10.,-10.,-6.93889390390723E-17));
#1552=CARTESIAN_POINT('',(3.99999999999998,-5.,6.93889390390723E-17));
#1553=CARTESIAN_POINT('',(3.99999999999998,5.,6.93889390390723E-17));
#1554=CARTESIAN_POINT('Origin',(10.,-5.,6.93889390390723E-17));
#1555=CARTESIAN_POINT('',(5.,5.,0.));
#1556=CARTESIAN_POINT('Origin',(10.,-5.,0.));
#1557=CARTESIAN_POINT('Origin',(0.,-5.,0.));
#1558=CARTESIAN_POINT('Origin',(0.,0.,0.));
#1559=CARTESIAN_POINT('Origin',(5.,0.,-25.));
#1560=UNCERTAINTY_MEASURE_WITH_UNIT(LENGTH_MEASURE(0.01),#1564,
'DISTANCE_ACCURACY_VALUE',
'Maximum model space distance between geometric entities at asserted c
onnectivities');
#1561=UNCERTAINTY_MEASURE_WITH_UNIT(LENGTH_MEASURE(0.01),#1564,
'DISTANCE_ACCURACY_VALUE',
'Maximum model space distance between geometric entities at asserted c
onnectivities');
#1562=(
GEOMETRIC_REPRESENTATION_CONTEXT(3)
GLOBAL_UNCERTAINTY_ASSIGNED_CONTEXT((#1560))
GLOBAL_UNIT_ASSIGNED_CONTEXT((#1564,#1566,#1567))
REPRESENTATION_CONTEXT('','3D')
);
#1563=(
GEOMETRIC_REPRESENTATION_CONTEXT(3)
GLOBAL_UNCERTAINTY_ASSIGNED_CONTEXT((#1561))
GLOBAL_UNIT_ASSIGNED_CONTEXT((#1564,#1566,#1567))
REPRESENTATION_CONTEXT('','3D')
);
#1564=(
LENGTH_UNIT()
NAMED_UNIT(*)
SI_UNIT(.MILLI.,.METRE.)
);
#1565=(
LENGTH_UNIT()
NAMED_UNIT(*)
SI_UNIT($,.METRE.)
);
#1566=(
NAMED_UNIT(*)
PLANE_ANGLE_UNIT()
SI_UNIT($,.RADIAN.)
);
#1567=(
NAMED_UNIT(*)
SI_UNIT($,.STERADIAN.)
SOLID_ANGLE_UNIT()
);
#1568=SHAPE_DEFINITION_REPRESENTATION(#1569,#1570);
#1569=PRODUCT_DEFINITION_SHAPE('',$,#1572);
#1570=SHAPE_REPRESENTATION('',(#835),#1562);
#1571=PRODUCT_DEFINITION_CONTEXT('part definition',#1576,'design');
#1572=PRODUCT_DEFINITION('Messwindungshalter','Messwindungshalter v5',#1573,
#1571);
#1573=PRODUCT_DEFINITION_FORMATION('',$,#1578);
#1574=PRODUCT_RELATED_PRODUCT_CATEGORY('Messwindungshalter v5',
'Messwindungshalter v5',(#1578));
#1575=APPLICATION_PROTOCOL_DEFINITION('international standard',
'automotive_design',2009,#1576);
#1576=APPLICATION_CONTEXT(
'Core Data for Automotive Mechanical Design Process');
#1577=PRODUCT_CONTEXT('part definition',#1576,'mechanical');
#1578=PRODUCT('Messwindungshalter','Messwindungshalter v5',$,(#1577));
#1579=PRESENTATION_STYLE_ASSIGNMENT((#1580));
#1580=SURFACE_STYLE_USAGE(.BOTH.,#1581);
#1581=SURFACE_SIDE_STYLE('',(#1582));
#1582=SURFACE_STYLE_FILL_AREA(#1583);
#1583=FILL_AREA_STYLE('Stahl - satiniert',(#1584));
#1584=FILL_AREA_STYLE_COLOUR('Stahl - satiniert',#1585);
#1585=COLOUR_RGB('Stahl - satiniert',0.627450980392157,0.627450980392157,
0.627450980392157);
ENDSEC;
END-ISO-10303-21;
