ISO-10303-21;
HEADER;
/* Generated by software containing ST-Developer
 * from STEP Tools, Inc. (www.steptools.com) 
 */

FILE_DESCRIPTION(
/* description */ (''),
/* implementation_level */ '2;1');

FILE_NAME(
/* name */ 'Strommesszangenhalter_Halter_Zange.step',
/* time_stamp */ '2026-06-28T16:55:36+02:00',
/* author */ (''),
/* organization */ (''),
/* preprocessor_version */ 'ST-DEVELOPER v20.1',
/* originating_system */ 'Autodesk Translation Framework v15.8.0.0',
/* authorisation */ '');

FILE_SCHEMA (('AUTOMOTIVE_DESIGN { 1 0 10303 214 3 1 1 }'));
ENDSEC;

DATA;
#10=MECHANICAL_DESIGN_GEOMETRIC_PRESENTATION_REPRESENTATION('',(#13),#1382);
#11=SHAPE_REPRESENTATION_RELATIONSHIP('SRR','None',#1389,#12);
#12=ADVANCED_BREP_SHAPE_REPRESENTATION('',(#14),#1381);
#13=STYLED_ITEM('',(#1398),#14);
#14=MANIFOLD_SOLID_BREP('Halter_Zange_V',#846);
#15=ELLIPSE('',#870,9.01387407001629,5.);
#16=ELLIPSE('',#873,9.01387818866039,5.);
#17=ELLIPSE('',#878,9.01387407001629,5.);
#18=ELLIPSE('',#881,9.01387818866039,5.);
#19=FACE_BOUND('',#108,.T.);
#20=FACE_BOUND('',#113,.T.);
#21=FACE_BOUND('',#129,.T.);
#22=FACE_BOUND('',#144,.T.);
#23=FACE_BOUND('',#145,.T.);
#24=FACE_BOUND('',#147,.T.);
#25=PLANE('',#863);
#26=PLANE('',#864);
#27=PLANE('',#868);
#28=PLANE('',#874);
#29=PLANE('',#876);
#30=PLANE('',#877);
#31=PLANE('',#882);
#32=PLANE('',#883);
#33=PLANE('',#884);
#34=PLANE('',#885);
#35=PLANE('',#886);
#36=PLANE('',#887);
#37=PLANE('',#888);
#38=PLANE('',#889);
#39=PLANE('',#890);
#40=PLANE('',#891);
#41=PLANE('',#892);
#42=PLANE('',#893);
#43=PLANE('',#894);
#44=PLANE('',#895);
#45=PLANE('',#896);
#46=PLANE('',#897);
#47=PLANE('',#898);
#48=PLANE('',#902);
#49=PLANE('',#906);
#50=PLANE('',#907);
#51=PLANE('',#908);
#52=PLANE('',#909);
#53=PLANE('',#910);
#54=PLANE('',#911);
#55=PLANE('',#912);
#56=PLANE('',#913);
#57=PLANE('',#914);
#58=PLANE('',#915);
#59=PLANE('',#916);
#60=PLANE('',#917);
#61=PLANE('',#918);
#62=FACE_OUTER_BOUND('',#105,.T.);
#63=FACE_OUTER_BOUND('',#106,.T.);
#64=FACE_OUTER_BOUND('',#107,.T.);
#65=FACE_OUTER_BOUND('',#109,.T.);
#66=FACE_OUTER_BOUND('',#110,.T.);
#67=FACE_OUTER_BOUND('',#111,.T.);
#68=FACE_OUTER_BOUND('',#112,.T.);
#69=FACE_OUTER_BOUND('',#114,.T.);
#70=FACE_OUTER_BOUND('',#115,.T.);
#71=FACE_OUTER_BOUND('',#116,.T.);
#72=FACE_OUTER_BOUND('',#117,.T.);
#73=FACE_OUTER_BOUND('',#118,.T.);
#74=FACE_OUTER_BOUND('',#119,.T.);
#75=FACE_OUTER_BOUND('',#120,.T.);
#76=FACE_OUTER_BOUND('',#121,.T.);
#77=FACE_OUTER_BOUND('',#122,.T.);
#78=FACE_OUTER_BOUND('',#123,.T.);
#79=FACE_OUTER_BOUND('',#124,.T.);
#80=FACE_OUTER_BOUND('',#125,.T.);
#81=FACE_OUTER_BOUND('',#126,.T.);
#82=FACE_OUTER_BOUND('',#127,.T.);
#83=FACE_OUTER_BOUND('',#128,.T.);
#84=FACE_OUTER_BOUND('',#130,.T.);
#85=FACE_OUTER_BOUND('',#131,.T.);
#86=FACE_OUTER_BOUND('',#132,.T.);
#87=FACE_OUTER_BOUND('',#133,.T.);
#88=FACE_OUTER_BOUND('',#134,.T.);
#89=FACE_OUTER_BOUND('',#135,.T.);
#90=FACE_OUTER_BOUND('',#136,.T.);
#91=FACE_OUTER_BOUND('',#137,.T.);
#92=FACE_OUTER_BOUND('',#138,.T.);
#93=FACE_OUTER_BOUND('',#139,.T.);
#94=FACE_OUTER_BOUND('',#140,.T.);
#95=FACE_OUTER_BOUND('',#141,.T.);
#96=FACE_OUTER_BOUND('',#142,.T.);
#97=FACE_OUTER_BOUND('',#143,.T.);
#98=FACE_OUTER_BOUND('',#146,.T.);
#99=FACE_OUTER_BOUND('',#148,.T.);
#100=FACE_OUTER_BOUND('',#149,.T.);
#101=FACE_OUTER_BOUND('',#150,.T.);
#102=FACE_OUTER_BOUND('',#151,.T.);
#103=FACE_OUTER_BOUND('',#152,.T.);
#104=FACE_OUTER_BOUND('',#153,.T.);
#105=EDGE_LOOP('',(#563,#564,#565,#566));
#106=EDGE_LOOP('',(#567,#568,#569,#570));
#107=EDGE_LOOP('',(#571,#572,#573,#574,#575,#576));
#108=EDGE_LOOP('',(#577,#578,#579,#580));
#109=EDGE_LOOP('',(#581,#582,#583,#584));
#110=EDGE_LOOP('',(#585,#586,#587,#588,#589,#590,#591,#592,#593,#594,#595,
#596,#597,#598,#599,#600));
#111=EDGE_LOOP('',(#601,#602,#603,#604,#605,#606));
#112=EDGE_LOOP('',(#607,#608,#609,#610,#611,#612));
#113=EDGE_LOOP('',(#613,#614,#615,#616));
#114=EDGE_LOOP('',(#617,#618,#619,#620));
#115=EDGE_LOOP('',(#621,#622,#623,#624,#625,#626));
#116=EDGE_LOOP('',(#627,#628,#629,#630,#631,#632));
#117=EDGE_LOOP('',(#633,#634,#635,#636));
#118=EDGE_LOOP('',(#637,#638,#639,#640,#641));
#119=EDGE_LOOP('',(#642,#643,#644,#645,#646));
#120=EDGE_LOOP('',(#647,#648,#649,#650,#651,#652,#653,#654));
#121=EDGE_LOOP('',(#655,#656,#657,#658));
#122=EDGE_LOOP('',(#659,#660,#661,#662));
#123=EDGE_LOOP('',(#663,#664,#665,#666));
#124=EDGE_LOOP('',(#667,#668,#669,#670));
#125=EDGE_LOOP('',(#671,#672,#673,#674));
#126=EDGE_LOOP('',(#675,#676,#677,#678));
#127=EDGE_LOOP('',(#679,#680,#681,#682,#683,#684,#685,#686));
#128=EDGE_LOOP('',(#687,#688,#689,#690));
#129=EDGE_LOOP('',(#691,#692,#693,#694));
#130=EDGE_LOOP('',(#695,#696,#697,#698));
#131=EDGE_LOOP('',(#699,#700,#701,#702,#703,#704,#705,#706));
#132=EDGE_LOOP('',(#707,#708,#709,#710));
#133=EDGE_LOOP('',(#711,#712,#713,#714));
#134=EDGE_LOOP('',(#715,#716,#717,#718));
#135=EDGE_LOOP('',(#719,#720,#721,#722));
#136=EDGE_LOOP('',(#723));
#137=EDGE_LOOP('',(#724,#725,#726,#727));
#138=EDGE_LOOP('',(#728));
#139=EDGE_LOOP('',(#729,#730,#731,#732));
#140=EDGE_LOOP('',(#733,#734,#735,#736));
#141=EDGE_LOOP('',(#737,#738,#739,#740));
#142=EDGE_LOOP('',(#741,#742,#743,#744));
#143=EDGE_LOOP('',(#745,#746,#747,#748));
#144=EDGE_LOOP('',(#749));
#145=EDGE_LOOP('',(#750));
#146=EDGE_LOOP('',(#751,#752,#753,#754,#755,#756));
#147=EDGE_LOOP('',(#757,#758,#759,#760));
#148=EDGE_LOOP('',(#761,#762,#763,#764));
#149=EDGE_LOOP('',(#765,#766,#767,#768));
#150=EDGE_LOOP('',(#769,#770,#771,#772));
#151=EDGE_LOOP('',(#773,#774,#775,#776));
#152=EDGE_LOOP('',(#777,#778,#779,#780));
#153=EDGE_LOOP('',(#781,#782,#783,#784,#785,#786,#787,#788,#789,#790,#791,
#792,#793,#794,#795,#796));
#154=LINE('',#1146,#255);
#155=LINE('',#1149,#256);
#156=LINE('',#1152,#257);
#157=LINE('',#1154,#258);
#158=LINE('',#1155,#259);
#159=LINE('',#1158,#260);
#160=LINE('',#1160,#261);
#161=LINE('',#1162,#262);
#162=LINE('',#1166,#263);
#163=LINE('',#1168,#264);
#164=LINE('',#1170,#265);
#165=LINE('',#1171,#266);
#166=LINE('',#1174,#267);
#167=LINE('',#1178,#268);
#168=LINE('',#1180,#269);
#169=LINE('',#1182,#270);
#170=LINE('',#1184,#271);
#171=LINE('',#1186,#272);
#172=LINE('',#1188,#273);
#173=LINE('',#1190,#274);
#174=LINE('',#1192,#275);
#175=LINE('',#1194,#276);
#176=LINE('',#1196,#277);
#177=LINE('',#1198,#278);
#178=LINE('',#1200,#279);
#179=LINE('',#1202,#280);
#180=LINE('',#1203,#281);
#181=LINE('',#1209,#282);
#182=LINE('',#1216,#283);
#183=LINE('',#1220,#284);
#184=LINE('',#1221,#285);
#185=LINE('',#1224,#286);
#186=LINE('',#1226,#287);
#187=LINE('',#1228,#288);
#188=LINE('',#1229,#289);
#189=LINE('',#1232,#290);
#190=LINE('',#1233,#291);
#191=LINE('',#1236,#292);
#192=LINE('',#1238,#293);
#193=LINE('',#1240,#294);
#194=LINE('',#1246,#295);
#195=LINE('',#1251,#296);
#196=LINE('',#1253,#297);
#197=LINE('',#1255,#298);
#198=LINE('',#1256,#299);
#199=LINE('',#1258,#300);
#200=LINE('',#1259,#301);
#201=LINE('',#1261,#302);
#202=LINE('',#1262,#303);
#203=LINE('',#1265,#304);
#204=LINE('',#1266,#305);
#205=LINE('',#1269,#306);
#206=LINE('',#1271,#307);
#207=LINE('',#1272,#308);
#208=LINE('',#1275,#309);
#209=LINE('',#1276,#310);
#210=LINE('',#1279,#311);
#211=LINE('',#1281,#312);
#212=LINE('',#1282,#313);
#213=LINE('',#1285,#314);
#214=LINE('',#1286,#315);
#215=LINE('',#1289,#316);
#216=LINE('',#1290,#317);
#217=LINE('',#1293,#318);
#218=LINE('',#1294,#319);
#219=LINE('',#1297,#320);
#220=LINE('',#1299,#321);
#221=LINE('',#1301,#322);
#222=LINE('',#1303,#323);
#223=LINE('',#1304,#324);
#224=LINE('',#1308,#325);
#225=LINE('',#1310,#326);
#226=LINE('',#1312,#327);
#227=LINE('',#1313,#328);
#228=LINE('',#1315,#329);
#229=LINE('',#1317,#330);
#230=LINE('',#1318,#331);
#231=LINE('',#1320,#332);
#232=LINE('',#1322,#333);
#233=LINE('',#1328,#334);
#234=LINE('',#1335,#335);
#235=LINE('',#1341,#336);
#236=LINE('',#1342,#337);
#237=LINE('',#1343,#338);
#238=LINE('',#1346,#339);
#239=LINE('',#1347,#340);
#240=LINE('',#1350,#341);
#241=LINE('',#1351,#342);
#242=LINE('',#1353,#343);
#243=LINE('',#1355,#344);
#244=LINE('',#1358,#345);
#245=LINE('',#1359,#346);
#246=LINE('',#1362,#347);
#247=LINE('',#1363,#348);
#248=LINE('',#1366,#349);
#249=LINE('',#1367,#350);
#250=LINE('',#1370,#351);
#251=LINE('',#1371,#352);
#252=LINE('',#1374,#353);
#253=LINE('',#1375,#354);
#254=LINE('',#1377,#355);
#255=VECTOR('',#925,10.);
#256=VECTOR('',#928,10.);
#257=VECTOR('',#931,10.);
#258=VECTOR('',#932,10.);
#259=VECTOR('',#933,10.);
#260=VECTOR('',#936,10.);
#261=VECTOR('',#937,10.);
#262=VECTOR('',#938,10.);
#263=VECTOR('',#941,10.);
#264=VECTOR('',#942,10.);
#265=VECTOR('',#943,10.);
#266=VECTOR('',#944,10.);
#267=VECTOR('',#947,10.);
#268=VECTOR('',#952,10.);
#269=VECTOR('',#953,10.);
#270=VECTOR('',#954,10.);
#271=VECTOR('',#955,10.);
#272=VECTOR('',#956,10.);
#273=VECTOR('',#957,10.);
#274=VECTOR('',#958,10.);
#275=VECTOR('',#959,10.);
#276=VECTOR('',#960,10.);
#277=VECTOR('',#961,10.);
#278=VECTOR('',#962,10.);
#279=VECTOR('',#963,10.);
#280=VECTOR('',#964,10.);
#281=VECTOR('',#965,10.);
#282=VECTOR('',#970,10.);
#283=VECTOR('',#979,10.);
#284=VECTOR('',#982,10.);
#285=VECTOR('',#983,10.);
#286=VECTOR('',#984,10.);
#287=VECTOR('',#985,10.);
#288=VECTOR('',#986,10.);
#289=VECTOR('',#987,10.);
#290=VECTOR('',#990,10.);
#291=VECTOR('',#991,10.);
#292=VECTOR('',#994,10.);
#293=VECTOR('',#995,10.);
#294=VECTOR('',#996,10.);
#295=VECTOR('',#1003,10.);
#296=VECTOR('',#1008,10.);
#297=VECTOR('',#1009,10.);
#298=VECTOR('',#1010,10.);
#299=VECTOR('',#1011,10.);
#300=VECTOR('',#1014,10.);
#301=VECTOR('',#1015,10.);
#302=VECTOR('',#1018,10.);
#303=VECTOR('',#1019,10.);
#304=VECTOR('',#1022,10.);
#305=VECTOR('',#1023,10.);
#306=VECTOR('',#1026,10.);
#307=VECTOR('',#1027,10.);
#308=VECTOR('',#1028,10.);
#309=VECTOR('',#1031,10.);
#310=VECTOR('',#1032,10.);
#311=VECTOR('',#1035,10.);
#312=VECTOR('',#1036,10.);
#313=VECTOR('',#1037,10.);
#314=VECTOR('',#1040,10.);
#315=VECTOR('',#1041,10.);
#316=VECTOR('',#1044,10.);
#317=VECTOR('',#1045,10.);
#318=VECTOR('',#1048,10.);
#319=VECTOR('',#1049,10.);
#320=VECTOR('',#1052,10.);
#321=VECTOR('',#1053,10.);
#322=VECTOR('',#1054,10.);
#323=VECTOR('',#1055,10.);
#324=VECTOR('',#1056,10.);
#325=VECTOR('',#1059,10.);
#326=VECTOR('',#1060,10.);
#327=VECTOR('',#1061,10.);
#328=VECTOR('',#1062,10.);
#329=VECTOR('',#1065,10.);
#330=VECTOR('',#1068,10.);
#331=VECTOR('',#1069,10.);
#332=VECTOR('',#1072,10.);
#333=VECTOR('',#1075,10.);
#334=VECTOR('',#1082,1.35);
#335=VECTOR('',#1091,1.35);
#336=VECTOR('',#1098,10.);
#337=VECTOR('',#1099,10.);
#338=VECTOR('',#1100,10.);
#339=VECTOR('',#1103,10.);
#340=VECTOR('',#1104,10.);
#341=VECTOR('',#1107,10.);
#342=VECTOR('',#1108,10.);
#343=VECTOR('',#1111,10.);
#344=VECTOR('',#1114,10.);
#345=VECTOR('',#1117,10.);
#346=VECTOR('',#1118,10.);
#347=VECTOR('',#1121,10.);
#348=VECTOR('',#1122,10.);
#349=VECTOR('',#1125,10.);
#350=VECTOR('',#1126,10.);
#351=VECTOR('',#1129,10.);
#352=VECTOR('',#1130,10.);
#353=VECTOR('',#1133,10.);
#354=VECTOR('',#1134,10.);
#355=VECTOR('',#1137,10.);
#356=CIRCLE('',#861,5.);
#357=CIRCLE('',#862,5.);
#358=CIRCLE('',#865,5.);
#359=CIRCLE('',#867,5.);
#360=CIRCLE('',#871,5.00000000000012);
#361=CIRCLE('',#872,5.00000000000012);
#362=CIRCLE('',#875,5.00000000000012);
#363=CIRCLE('',#880,5.00000000000012);
#364=CIRCLE('',#900,1.35);
#365=CIRCLE('',#901,1.35);
#366=CIRCLE('',#904,1.35);
#367=CIRCLE('',#905,1.35);
#368=VERTEX_POINT('',#1142);
#369=VERTEX_POINT('',#1143);
#370=VERTEX_POINT('',#1145);
#371=VERTEX_POINT('',#1147);
#372=VERTEX_POINT('',#1151);
#373=VERTEX_POINT('',#1153);
#374=VERTEX_POINT('',#1157);
#375=VERTEX_POINT('',#1159);
#376=VERTEX_POINT('',#1161);
#377=VERTEX_POINT('',#1164);
#378=VERTEX_POINT('',#1165);
#379=VERTEX_POINT('',#1167);
#380=VERTEX_POINT('',#1169);
#381=VERTEX_POINT('',#1173);
#382=VERTEX_POINT('',#1177);
#383=VERTEX_POINT('',#1179);
#384=VERTEX_POINT('',#1181);
#385=VERTEX_POINT('',#1183);
#386=VERTEX_POINT('',#1185);
#387=VERTEX_POINT('',#1187);
#388=VERTEX_POINT('',#1189);
#389=VERTEX_POINT('',#1191);
#390=VERTEX_POINT('',#1193);
#391=VERTEX_POINT('',#1195);
#392=VERTEX_POINT('',#1197);
#393=VERTEX_POINT('',#1199);
#394=VERTEX_POINT('',#1201);
#395=VERTEX_POINT('',#1205);
#396=VERTEX_POINT('',#1206);
#397=VERTEX_POINT('',#1208);
#398=VERTEX_POINT('',#1211);
#399=VERTEX_POINT('',#1215);
#400=VERTEX_POINT('',#1217);
#401=VERTEX_POINT('',#1219);
#402=VERTEX_POINT('',#1222);
#403=VERTEX_POINT('',#1223);
#404=VERTEX_POINT('',#1225);
#405=VERTEX_POINT('',#1227);
#406=VERTEX_POINT('',#1231);
#407=VERTEX_POINT('',#1235);
#408=VERTEX_POINT('',#1237);
#409=VERTEX_POINT('',#1239);
#410=VERTEX_POINT('',#1243);
#411=VERTEX_POINT('',#1244);
#412=VERTEX_POINT('',#1249);
#413=VERTEX_POINT('',#1250);
#414=VERTEX_POINT('',#1252);
#415=VERTEX_POINT('',#1254);
#416=VERTEX_POINT('',#1264);
#417=VERTEX_POINT('',#1268);
#418=VERTEX_POINT('',#1270);
#419=VERTEX_POINT('',#1274);
#420=VERTEX_POINT('',#1278);
#421=VERTEX_POINT('',#1280);
#422=VERTEX_POINT('',#1284);
#423=VERTEX_POINT('',#1288);
#424=VERTEX_POINT('',#1292);
#425=VERTEX_POINT('',#1296);
#426=VERTEX_POINT('',#1298);
#427=VERTEX_POINT('',#1300);
#428=VERTEX_POINT('',#1302);
#429=VERTEX_POINT('',#1306);
#430=VERTEX_POINT('',#1307);
#431=VERTEX_POINT('',#1309);
#432=VERTEX_POINT('',#1311);
#433=VERTEX_POINT('',#1325);
#434=VERTEX_POINT('',#1327);
#435=VERTEX_POINT('',#1332);
#436=VERTEX_POINT('',#1334);
#437=VERTEX_POINT('',#1339);
#438=VERTEX_POINT('',#1340);
#439=VERTEX_POINT('',#1345);
#440=VERTEX_POINT('',#1349);
#441=VERTEX_POINT('',#1357);
#442=VERTEX_POINT('',#1361);
#443=VERTEX_POINT('',#1365);
#444=VERTEX_POINT('',#1369);
#445=VERTEX_POINT('',#1373);
#446=EDGE_CURVE('',#368,#369,#356,.T.);
#447=EDGE_CURVE('',#369,#370,#154,.T.);
#448=EDGE_CURVE('',#370,#371,#357,.T.);
#449=EDGE_CURVE('',#371,#368,#155,.T.);
#450=EDGE_CURVE('',#369,#372,#156,.T.);
#451=EDGE_CURVE('',#373,#372,#157,.T.);
#452=EDGE_CURVE('',#370,#373,#158,.T.);
#453=EDGE_CURVE('',#368,#374,#159,.T.);
#454=EDGE_CURVE('',#374,#375,#160,.T.);
#455=EDGE_CURVE('',#376,#375,#161,.T.);
#456=EDGE_CURVE('',#372,#376,#358,.T.);
#457=EDGE_CURVE('',#377,#378,#162,.T.);
#458=EDGE_CURVE('',#378,#379,#163,.T.);
#459=EDGE_CURVE('',#379,#380,#164,.T.);
#460=EDGE_CURVE('',#380,#377,#165,.T.);
#461=EDGE_CURVE('',#376,#381,#166,.T.);
#462=EDGE_CURVE('',#381,#373,#359,.T.);
#463=EDGE_CURVE('',#375,#382,#167,.T.);
#464=EDGE_CURVE('',#382,#383,#168,.T.);
#465=EDGE_CURVE('',#384,#383,#169,.T.);
#466=EDGE_CURVE('',#384,#385,#170,.T.);
#467=EDGE_CURVE('',#385,#386,#171,.T.);
#468=EDGE_CURVE('',#386,#387,#172,.T.);
#469=EDGE_CURVE('',#387,#388,#173,.T.);
#470=EDGE_CURVE('',#388,#389,#174,.T.);
#471=EDGE_CURVE('',#389,#390,#175,.T.);
#472=EDGE_CURVE('',#390,#391,#176,.T.);
#473=EDGE_CURVE('',#391,#392,#177,.T.);
#474=EDGE_CURVE('',#392,#393,#178,.T.);
#475=EDGE_CURVE('',#393,#394,#179,.T.);
#476=EDGE_CURVE('',#394,#381,#180,.T.);
#477=EDGE_CURVE('',#395,#396,#15,.T.);
#478=EDGE_CURVE('',#396,#397,#181,.T.);
#479=EDGE_CURVE('',#397,#384,#360,.T.);
#480=EDGE_CURVE('',#383,#398,#361,.T.);
#481=EDGE_CURVE('',#398,#395,#16,.T.);
#482=EDGE_CURVE('',#399,#397,#182,.T.);
#483=EDGE_CURVE('',#400,#399,#362,.T.);
#484=EDGE_CURVE('',#401,#400,#183,.T.);
#485=EDGE_CURVE('',#401,#385,#184,.T.);
#486=EDGE_CURVE('',#402,#403,#185,.T.);
#487=EDGE_CURVE('',#403,#404,#186,.T.);
#488=EDGE_CURVE('',#404,#405,#187,.T.);
#489=EDGE_CURVE('',#405,#402,#188,.T.);
#490=EDGE_CURVE('',#406,#396,#189,.T.);
#491=EDGE_CURVE('',#399,#406,#190,.T.);
#492=EDGE_CURVE('',#407,#395,#191,.T.);
#493=EDGE_CURVE('',#408,#407,#192,.T.);
#494=EDGE_CURVE('',#408,#409,#193,.T.);
#495=EDGE_CURVE('',#406,#409,#17,.T.);
#496=EDGE_CURVE('',#410,#411,#363,.T.);
#497=EDGE_CURVE('',#411,#400,#194,.T.);
#498=EDGE_CURVE('',#409,#410,#18,.T.);
#499=EDGE_CURVE('',#412,#413,#195,.T.);
#500=EDGE_CURVE('',#413,#414,#196,.T.);
#501=EDGE_CURVE('',#415,#414,#197,.T.);
#502=EDGE_CURVE('',#415,#412,#198,.T.);
#503=EDGE_CURVE('',#398,#412,#199,.T.);
#504=EDGE_CURVE('',#407,#415,#200,.T.);
#505=EDGE_CURVE('',#414,#408,#201,.T.);
#506=EDGE_CURVE('',#413,#410,#202,.T.);
#507=EDGE_CURVE('',#416,#382,#203,.T.);
#508=EDGE_CURVE('',#411,#416,#204,.T.);
#509=EDGE_CURVE('',#403,#417,#205,.T.);
#510=EDGE_CURVE('',#417,#418,#206,.T.);
#511=EDGE_CURVE('',#418,#404,#207,.T.);
#512=EDGE_CURVE('',#418,#419,#208,.T.);
#513=EDGE_CURVE('',#419,#405,#209,.T.);
#514=EDGE_CURVE('',#420,#379,#210,.T.);
#515=EDGE_CURVE('',#421,#420,#211,.T.);
#516=EDGE_CURVE('',#421,#380,#212,.T.);
#517=EDGE_CURVE('',#419,#422,#213,.T.);
#518=EDGE_CURVE('',#422,#402,#214,.T.);
#519=EDGE_CURVE('',#423,#421,#215,.T.);
#520=EDGE_CURVE('',#423,#377,#216,.T.);
#521=EDGE_CURVE('',#420,#424,#217,.T.);
#522=EDGE_CURVE('',#378,#424,#218,.T.);
#523=EDGE_CURVE('',#425,#417,#219,.T.);
#524=EDGE_CURVE('',#426,#425,#220,.T.);
#525=EDGE_CURVE('',#427,#426,#221,.T.);
#526=EDGE_CURVE('',#428,#427,#222,.T.);
#527=EDGE_CURVE('',#422,#428,#223,.T.);
#528=EDGE_CURVE('',#429,#430,#224,.T.);
#529=EDGE_CURVE('',#430,#431,#225,.T.);
#530=EDGE_CURVE('',#431,#432,#226,.T.);
#531=EDGE_CURVE('',#432,#429,#227,.T.);
#532=EDGE_CURVE('',#424,#423,#228,.T.);
#533=EDGE_CURVE('',#430,#428,#229,.T.);
#534=EDGE_CURVE('',#429,#425,#230,.T.);
#535=EDGE_CURVE('',#426,#432,#231,.T.);
#536=EDGE_CURVE('',#431,#427,#232,.T.);
#537=EDGE_CURVE('',#433,#433,#364,.T.);
#538=EDGE_CURVE('',#433,#434,#233,.T.);
#539=EDGE_CURVE('',#434,#434,#365,.T.);
#540=EDGE_CURVE('',#435,#435,#366,.T.);
#541=EDGE_CURVE('',#435,#436,#234,.T.);
#542=EDGE_CURVE('',#436,#436,#367,.T.);
#543=EDGE_CURVE('',#437,#438,#235,.T.);
#544=EDGE_CURVE('',#437,#389,#236,.T.);
#545=EDGE_CURVE('',#438,#388,#237,.T.);
#546=EDGE_CURVE('',#438,#439,#238,.T.);
#547=EDGE_CURVE('',#439,#387,#239,.T.);
#548=EDGE_CURVE('',#439,#440,#240,.T.);
#549=EDGE_CURVE('',#440,#386,#241,.T.);
#550=EDGE_CURVE('',#440,#401,#242,.T.);
#551=EDGE_CURVE('',#374,#416,#243,.T.);
#552=EDGE_CURVE('',#441,#394,#244,.T.);
#553=EDGE_CURVE('',#441,#371,#245,.T.);
#554=EDGE_CURVE('',#442,#441,#246,.T.);
#555=EDGE_CURVE('',#442,#393,#247,.T.);
#556=EDGE_CURVE('',#443,#442,#248,.T.);
#557=EDGE_CURVE('',#443,#392,#249,.T.);
#558=EDGE_CURVE('',#444,#443,#250,.T.);
#559=EDGE_CURVE('',#444,#391,#251,.T.);
#560=EDGE_CURVE('',#445,#444,#252,.T.);
#561=EDGE_CURVE('',#445,#390,#253,.T.);
#562=EDGE_CURVE('',#437,#445,#254,.T.);
#563=ORIENTED_EDGE('',*,*,#446,.T.);
#564=ORIENTED_EDGE('',*,*,#447,.T.);
#565=ORIENTED_EDGE('',*,*,#448,.T.);
#566=ORIENTED_EDGE('',*,*,#449,.T.);
#567=ORIENTED_EDGE('',*,*,#447,.F.);
#568=ORIENTED_EDGE('',*,*,#450,.T.);
#569=ORIENTED_EDGE('',*,*,#451,.F.);
#570=ORIENTED_EDGE('',*,*,#452,.F.);
#571=ORIENTED_EDGE('',*,*,#446,.F.);
#572=ORIENTED_EDGE('',*,*,#453,.T.);
#573=ORIENTED_EDGE('',*,*,#454,.T.);
#574=ORIENTED_EDGE('',*,*,#455,.F.);
#575=ORIENTED_EDGE('',*,*,#456,.F.);
#576=ORIENTED_EDGE('',*,*,#450,.F.);
#577=ORIENTED_EDGE('',*,*,#457,.T.);
#578=ORIENTED_EDGE('',*,*,#458,.T.);
#579=ORIENTED_EDGE('',*,*,#459,.T.);
#580=ORIENTED_EDGE('',*,*,#460,.T.);
#581=ORIENTED_EDGE('',*,*,#456,.T.);
#582=ORIENTED_EDGE('',*,*,#461,.T.);
#583=ORIENTED_EDGE('',*,*,#462,.T.);
#584=ORIENTED_EDGE('',*,*,#451,.T.);
#585=ORIENTED_EDGE('',*,*,#461,.F.);
#586=ORIENTED_EDGE('',*,*,#455,.T.);
#587=ORIENTED_EDGE('',*,*,#463,.T.);
#588=ORIENTED_EDGE('',*,*,#464,.T.);
#589=ORIENTED_EDGE('',*,*,#465,.F.);
#590=ORIENTED_EDGE('',*,*,#466,.T.);
#591=ORIENTED_EDGE('',*,*,#467,.T.);
#592=ORIENTED_EDGE('',*,*,#468,.T.);
#593=ORIENTED_EDGE('',*,*,#469,.T.);
#594=ORIENTED_EDGE('',*,*,#470,.T.);
#595=ORIENTED_EDGE('',*,*,#471,.T.);
#596=ORIENTED_EDGE('',*,*,#472,.T.);
#597=ORIENTED_EDGE('',*,*,#473,.T.);
#598=ORIENTED_EDGE('',*,*,#474,.T.);
#599=ORIENTED_EDGE('',*,*,#475,.T.);
#600=ORIENTED_EDGE('',*,*,#476,.T.);
#601=ORIENTED_EDGE('',*,*,#477,.T.);
#602=ORIENTED_EDGE('',*,*,#478,.T.);
#603=ORIENTED_EDGE('',*,*,#479,.T.);
#604=ORIENTED_EDGE('',*,*,#465,.T.);
#605=ORIENTED_EDGE('',*,*,#480,.T.);
#606=ORIENTED_EDGE('',*,*,#481,.T.);
#607=ORIENTED_EDGE('',*,*,#479,.F.);
#608=ORIENTED_EDGE('',*,*,#482,.F.);
#609=ORIENTED_EDGE('',*,*,#483,.F.);
#610=ORIENTED_EDGE('',*,*,#484,.F.);
#611=ORIENTED_EDGE('',*,*,#485,.T.);
#612=ORIENTED_EDGE('',*,*,#466,.F.);
#613=ORIENTED_EDGE('',*,*,#486,.T.);
#614=ORIENTED_EDGE('',*,*,#487,.T.);
#615=ORIENTED_EDGE('',*,*,#488,.T.);
#616=ORIENTED_EDGE('',*,*,#489,.T.);
#617=ORIENTED_EDGE('',*,*,#478,.F.);
#618=ORIENTED_EDGE('',*,*,#490,.F.);
#619=ORIENTED_EDGE('',*,*,#491,.F.);
#620=ORIENTED_EDGE('',*,*,#482,.T.);
#621=ORIENTED_EDGE('',*,*,#477,.F.);
#622=ORIENTED_EDGE('',*,*,#492,.F.);
#623=ORIENTED_EDGE('',*,*,#493,.F.);
#624=ORIENTED_EDGE('',*,*,#494,.T.);
#625=ORIENTED_EDGE('',*,*,#495,.F.);
#626=ORIENTED_EDGE('',*,*,#490,.T.);
#627=ORIENTED_EDGE('',*,*,#496,.T.);
#628=ORIENTED_EDGE('',*,*,#497,.T.);
#629=ORIENTED_EDGE('',*,*,#483,.T.);
#630=ORIENTED_EDGE('',*,*,#491,.T.);
#631=ORIENTED_EDGE('',*,*,#495,.T.);
#632=ORIENTED_EDGE('',*,*,#498,.T.);
#633=ORIENTED_EDGE('',*,*,#499,.T.);
#634=ORIENTED_EDGE('',*,*,#500,.T.);
#635=ORIENTED_EDGE('',*,*,#501,.F.);
#636=ORIENTED_EDGE('',*,*,#502,.T.);
#637=ORIENTED_EDGE('',*,*,#481,.F.);
#638=ORIENTED_EDGE('',*,*,#503,.T.);
#639=ORIENTED_EDGE('',*,*,#502,.F.);
#640=ORIENTED_EDGE('',*,*,#504,.F.);
#641=ORIENTED_EDGE('',*,*,#492,.T.);
#642=ORIENTED_EDGE('',*,*,#498,.F.);
#643=ORIENTED_EDGE('',*,*,#494,.F.);
#644=ORIENTED_EDGE('',*,*,#505,.F.);
#645=ORIENTED_EDGE('',*,*,#500,.F.);
#646=ORIENTED_EDGE('',*,*,#506,.T.);
#647=ORIENTED_EDGE('',*,*,#480,.F.);
#648=ORIENTED_EDGE('',*,*,#464,.F.);
#649=ORIENTED_EDGE('',*,*,#507,.F.);
#650=ORIENTED_EDGE('',*,*,#508,.F.);
#651=ORIENTED_EDGE('',*,*,#496,.F.);
#652=ORIENTED_EDGE('',*,*,#506,.F.);
#653=ORIENTED_EDGE('',*,*,#499,.F.);
#654=ORIENTED_EDGE('',*,*,#503,.F.);
#655=ORIENTED_EDGE('',*,*,#487,.F.);
#656=ORIENTED_EDGE('',*,*,#509,.T.);
#657=ORIENTED_EDGE('',*,*,#510,.T.);
#658=ORIENTED_EDGE('',*,*,#511,.T.);
#659=ORIENTED_EDGE('',*,*,#488,.F.);
#660=ORIENTED_EDGE('',*,*,#511,.F.);
#661=ORIENTED_EDGE('',*,*,#512,.T.);
#662=ORIENTED_EDGE('',*,*,#513,.T.);
#663=ORIENTED_EDGE('',*,*,#459,.F.);
#664=ORIENTED_EDGE('',*,*,#514,.F.);
#665=ORIENTED_EDGE('',*,*,#515,.F.);
#666=ORIENTED_EDGE('',*,*,#516,.T.);
#667=ORIENTED_EDGE('',*,*,#489,.F.);
#668=ORIENTED_EDGE('',*,*,#513,.F.);
#669=ORIENTED_EDGE('',*,*,#517,.T.);
#670=ORIENTED_EDGE('',*,*,#518,.T.);
#671=ORIENTED_EDGE('',*,*,#460,.F.);
#672=ORIENTED_EDGE('',*,*,#516,.F.);
#673=ORIENTED_EDGE('',*,*,#519,.F.);
#674=ORIENTED_EDGE('',*,*,#520,.T.);
#675=ORIENTED_EDGE('',*,*,#521,.F.);
#676=ORIENTED_EDGE('',*,*,#514,.T.);
#677=ORIENTED_EDGE('',*,*,#458,.F.);
#678=ORIENTED_EDGE('',*,*,#522,.T.);
#679=ORIENTED_EDGE('',*,*,#523,.F.);
#680=ORIENTED_EDGE('',*,*,#524,.F.);
#681=ORIENTED_EDGE('',*,*,#525,.F.);
#682=ORIENTED_EDGE('',*,*,#526,.F.);
#683=ORIENTED_EDGE('',*,*,#527,.F.);
#684=ORIENTED_EDGE('',*,*,#517,.F.);
#685=ORIENTED_EDGE('',*,*,#512,.F.);
#686=ORIENTED_EDGE('',*,*,#510,.F.);
#687=ORIENTED_EDGE('',*,*,#505,.T.);
#688=ORIENTED_EDGE('',*,*,#493,.T.);
#689=ORIENTED_EDGE('',*,*,#504,.T.);
#690=ORIENTED_EDGE('',*,*,#501,.T.);
#691=ORIENTED_EDGE('',*,*,#528,.T.);
#692=ORIENTED_EDGE('',*,*,#529,.T.);
#693=ORIENTED_EDGE('',*,*,#530,.T.);
#694=ORIENTED_EDGE('',*,*,#531,.T.);
#695=ORIENTED_EDGE('',*,*,#457,.F.);
#696=ORIENTED_EDGE('',*,*,#520,.F.);
#697=ORIENTED_EDGE('',*,*,#532,.F.);
#698=ORIENTED_EDGE('',*,*,#522,.F.);
#699=ORIENTED_EDGE('',*,*,#486,.F.);
#700=ORIENTED_EDGE('',*,*,#518,.F.);
#701=ORIENTED_EDGE('',*,*,#527,.T.);
#702=ORIENTED_EDGE('',*,*,#533,.F.);
#703=ORIENTED_EDGE('',*,*,#528,.F.);
#704=ORIENTED_EDGE('',*,*,#534,.T.);
#705=ORIENTED_EDGE('',*,*,#523,.T.);
#706=ORIENTED_EDGE('',*,*,#509,.F.);
#707=ORIENTED_EDGE('',*,*,#524,.T.);
#708=ORIENTED_EDGE('',*,*,#534,.F.);
#709=ORIENTED_EDGE('',*,*,#531,.F.);
#710=ORIENTED_EDGE('',*,*,#535,.F.);
#711=ORIENTED_EDGE('',*,*,#525,.T.);
#712=ORIENTED_EDGE('',*,*,#535,.T.);
#713=ORIENTED_EDGE('',*,*,#530,.F.);
#714=ORIENTED_EDGE('',*,*,#536,.T.);
#715=ORIENTED_EDGE('',*,*,#526,.T.);
#716=ORIENTED_EDGE('',*,*,#536,.F.);
#717=ORIENTED_EDGE('',*,*,#529,.F.);
#718=ORIENTED_EDGE('',*,*,#533,.T.);
#719=ORIENTED_EDGE('',*,*,#537,.T.);
#720=ORIENTED_EDGE('',*,*,#538,.T.);
#721=ORIENTED_EDGE('',*,*,#539,.F.);
#722=ORIENTED_EDGE('',*,*,#538,.F.);
#723=ORIENTED_EDGE('',*,*,#537,.F.);
#724=ORIENTED_EDGE('',*,*,#540,.T.);
#725=ORIENTED_EDGE('',*,*,#541,.T.);
#726=ORIENTED_EDGE('',*,*,#542,.F.);
#727=ORIENTED_EDGE('',*,*,#541,.F.);
#728=ORIENTED_EDGE('',*,*,#540,.F.);
#729=ORIENTED_EDGE('',*,*,#543,.F.);
#730=ORIENTED_EDGE('',*,*,#544,.T.);
#731=ORIENTED_EDGE('',*,*,#470,.F.);
#732=ORIENTED_EDGE('',*,*,#545,.F.);
#733=ORIENTED_EDGE('',*,*,#546,.F.);
#734=ORIENTED_EDGE('',*,*,#545,.T.);
#735=ORIENTED_EDGE('',*,*,#469,.F.);
#736=ORIENTED_EDGE('',*,*,#547,.F.);
#737=ORIENTED_EDGE('',*,*,#548,.F.);
#738=ORIENTED_EDGE('',*,*,#547,.T.);
#739=ORIENTED_EDGE('',*,*,#468,.F.);
#740=ORIENTED_EDGE('',*,*,#549,.F.);
#741=ORIENTED_EDGE('',*,*,#550,.F.);
#742=ORIENTED_EDGE('',*,*,#549,.T.);
#743=ORIENTED_EDGE('',*,*,#467,.F.);
#744=ORIENTED_EDGE('',*,*,#485,.F.);
#745=ORIENTED_EDGE('',*,*,#551,.T.);
#746=ORIENTED_EDGE('',*,*,#507,.T.);
#747=ORIENTED_EDGE('',*,*,#463,.F.);
#748=ORIENTED_EDGE('',*,*,#454,.F.);
#749=ORIENTED_EDGE('',*,*,#539,.T.);
#750=ORIENTED_EDGE('',*,*,#542,.T.);
#751=ORIENTED_EDGE('',*,*,#448,.F.);
#752=ORIENTED_EDGE('',*,*,#452,.T.);
#753=ORIENTED_EDGE('',*,*,#462,.F.);
#754=ORIENTED_EDGE('',*,*,#476,.F.);
#755=ORIENTED_EDGE('',*,*,#552,.F.);
#756=ORIENTED_EDGE('',*,*,#553,.T.);
#757=ORIENTED_EDGE('',*,*,#532,.T.);
#758=ORIENTED_EDGE('',*,*,#519,.T.);
#759=ORIENTED_EDGE('',*,*,#515,.T.);
#760=ORIENTED_EDGE('',*,*,#521,.T.);
#761=ORIENTED_EDGE('',*,*,#554,.T.);
#762=ORIENTED_EDGE('',*,*,#552,.T.);
#763=ORIENTED_EDGE('',*,*,#475,.F.);
#764=ORIENTED_EDGE('',*,*,#555,.F.);
#765=ORIENTED_EDGE('',*,*,#556,.T.);
#766=ORIENTED_EDGE('',*,*,#555,.T.);
#767=ORIENTED_EDGE('',*,*,#474,.F.);
#768=ORIENTED_EDGE('',*,*,#557,.F.);
#769=ORIENTED_EDGE('',*,*,#558,.T.);
#770=ORIENTED_EDGE('',*,*,#557,.T.);
#771=ORIENTED_EDGE('',*,*,#473,.F.);
#772=ORIENTED_EDGE('',*,*,#559,.F.);
#773=ORIENTED_EDGE('',*,*,#560,.T.);
#774=ORIENTED_EDGE('',*,*,#559,.T.);
#775=ORIENTED_EDGE('',*,*,#472,.F.);
#776=ORIENTED_EDGE('',*,*,#561,.F.);
#777=ORIENTED_EDGE('',*,*,#562,.T.);
#778=ORIENTED_EDGE('',*,*,#561,.T.);
#779=ORIENTED_EDGE('',*,*,#471,.F.);
#780=ORIENTED_EDGE('',*,*,#544,.F.);
#781=ORIENTED_EDGE('',*,*,#449,.F.);
#782=ORIENTED_EDGE('',*,*,#553,.F.);
#783=ORIENTED_EDGE('',*,*,#554,.F.);
#784=ORIENTED_EDGE('',*,*,#556,.F.);
#785=ORIENTED_EDGE('',*,*,#558,.F.);
#786=ORIENTED_EDGE('',*,*,#560,.F.);
#787=ORIENTED_EDGE('',*,*,#562,.F.);
#788=ORIENTED_EDGE('',*,*,#543,.T.);
#789=ORIENTED_EDGE('',*,*,#546,.T.);
#790=ORIENTED_EDGE('',*,*,#548,.T.);
#791=ORIENTED_EDGE('',*,*,#550,.T.);
#792=ORIENTED_EDGE('',*,*,#484,.T.);
#793=ORIENTED_EDGE('',*,*,#497,.F.);
#794=ORIENTED_EDGE('',*,*,#508,.T.);
#795=ORIENTED_EDGE('',*,*,#551,.F.);
#796=ORIENTED_EDGE('',*,*,#453,.F.);
#797=CYLINDRICAL_SURFACE('',#860,5.);
#798=CYLINDRICAL_SURFACE('',#866,5.);
#799=CYLINDRICAL_SURFACE('',#869,5.);
#800=CYLINDRICAL_SURFACE('',#879,5.);
#801=CYLINDRICAL_SURFACE('',#899,1.35);
#802=CYLINDRICAL_SURFACE('',#903,1.35);
#803=ADVANCED_FACE('',(#62),#797,.T.);
#804=ADVANCED_FACE('',(#63),#25,.T.);
#805=ADVANCED_FACE('',(#64,#19),#26,.T.);
#806=ADVANCED_FACE('',(#65),#798,.T.);
#807=ADVANCED_FACE('',(#66),#27,.T.);
#808=ADVANCED_FACE('',(#67),#799,.T.);
#809=ADVANCED_FACE('',(#68,#20),#28,.T.);
#810=ADVANCED_FACE('',(#69),#29,.T.);
#811=ADVANCED_FACE('',(#70),#30,.T.);
#812=ADVANCED_FACE('',(#71),#800,.T.);
#813=ADVANCED_FACE('',(#72),#31,.T.);
#814=ADVANCED_FACE('',(#73),#32,.T.);
#815=ADVANCED_FACE('',(#74),#33,.T.);
#816=ADVANCED_FACE('',(#75),#34,.T.);
#817=ADVANCED_FACE('',(#76),#35,.F.);
#818=ADVANCED_FACE('',(#77),#36,.F.);
#819=ADVANCED_FACE('',(#78),#37,.F.);
#820=ADVANCED_FACE('',(#79),#38,.F.);
#821=ADVANCED_FACE('',(#80),#39,.F.);
#822=ADVANCED_FACE('',(#81),#40,.F.);
#823=ADVANCED_FACE('',(#82),#41,.F.);
#824=ADVANCED_FACE('',(#83,#21),#42,.T.);
#825=ADVANCED_FACE('',(#84),#43,.F.);
#826=ADVANCED_FACE('',(#85),#44,.F.);
#827=ADVANCED_FACE('',(#86),#45,.F.);
#828=ADVANCED_FACE('',(#87),#46,.F.);
#829=ADVANCED_FACE('',(#88),#47,.F.);
#830=ADVANCED_FACE('',(#89),#801,.F.);
#831=ADVANCED_FACE('',(#90),#48,.F.);
#832=ADVANCED_FACE('',(#91),#802,.F.);
#833=ADVANCED_FACE('',(#92),#49,.F.);
#834=ADVANCED_FACE('',(#93),#50,.T.);
#835=ADVANCED_FACE('',(#94),#51,.T.);
#836=ADVANCED_FACE('',(#95),#52,.T.);
#837=ADVANCED_FACE('',(#96),#53,.T.);
#838=ADVANCED_FACE('',(#97,#22,#23),#54,.T.);
#839=ADVANCED_FACE('',(#98,#24),#55,.T.);
#840=ADVANCED_FACE('',(#99),#56,.T.);
#841=ADVANCED_FACE('',(#100),#57,.T.);
#842=ADVANCED_FACE('',(#101),#58,.T.);
#843=ADVANCED_FACE('',(#102),#59,.T.);
#844=ADVANCED_FACE('',(#103),#60,.T.);
#845=ADVANCED_FACE('',(#104),#61,.F.);
#846=CLOSED_SHELL('',(#803,#804,#805,#806,#807,#808,#809,#810,#811,#812,
#813,#814,#815,#816,#817,#818,#819,#820,#821,#822,#823,#824,#825,#826,#827,
#828,#829,#830,#831,#832,#833,#834,#835,#836,#837,#838,#839,#840,#841,#842,
#843,#844,#845));
#847=DERIVED_UNIT_ELEMENT(#849,1.);
#848=DERIVED_UNIT_ELEMENT(#1384,-3.);
#849=(
MASS_UNIT()
NAMED_UNIT(*)
SI_UNIT(.KILO.,.GRAM.)
);
#850=DERIVED_UNIT((#847,#848));
#851=MEASURE_REPRESENTATION_ITEM('density measure',
POSITIVE_RATIO_MEASURE(7850.),#850);
#852=PROPERTY_DEFINITION_REPRESENTATION(#857,#854);
#853=PROPERTY_DEFINITION_REPRESENTATION(#858,#855);
#854=REPRESENTATION('material name',(#856),#1381);
#855=REPRESENTATION('density',(#851),#1381);
#856=DESCRIPTIVE_REPRESENTATION_ITEM('Stahl','Stahl');
#857=PROPERTY_DEFINITION('material property','material name',#1391);
#858=PROPERTY_DEFINITION('material property','density of part',#1391);
#859=AXIS2_PLACEMENT_3D('',#1140,#919,#920);
#860=AXIS2_PLACEMENT_3D('',#1141,#921,#922);
#861=AXIS2_PLACEMENT_3D('',#1144,#923,#924);
#862=AXIS2_PLACEMENT_3D('',#1148,#926,#927);
#863=AXIS2_PLACEMENT_3D('',#1150,#929,#930);
#864=AXIS2_PLACEMENT_3D('',#1156,#934,#935);
#865=AXIS2_PLACEMENT_3D('',#1163,#939,#940);
#866=AXIS2_PLACEMENT_3D('',#1172,#945,#946);
#867=AXIS2_PLACEMENT_3D('',#1175,#948,#949);
#868=AXIS2_PLACEMENT_3D('',#1176,#950,#951);
#869=AXIS2_PLACEMENT_3D('',#1204,#966,#967);
#870=AXIS2_PLACEMENT_3D('',#1207,#968,#969);
#871=AXIS2_PLACEMENT_3D('',#1210,#971,#972);
#872=AXIS2_PLACEMENT_3D('',#1212,#973,#974);
#873=AXIS2_PLACEMENT_3D('',#1213,#975,#976);
#874=AXIS2_PLACEMENT_3D('',#1214,#977,#978);
#875=AXIS2_PLACEMENT_3D('',#1218,#980,#981);
#876=AXIS2_PLACEMENT_3D('',#1230,#988,#989);
#877=AXIS2_PLACEMENT_3D('',#1234,#992,#993);
#878=AXIS2_PLACEMENT_3D('',#1241,#997,#998);
#879=AXIS2_PLACEMENT_3D('',#1242,#999,#1000);
#880=AXIS2_PLACEMENT_3D('',#1245,#1001,#1002);
#881=AXIS2_PLACEMENT_3D('',#1247,#1004,#1005);
#882=AXIS2_PLACEMENT_3D('',#1248,#1006,#1007);
#883=AXIS2_PLACEMENT_3D('',#1257,#1012,#1013);
#884=AXIS2_PLACEMENT_3D('',#1260,#1016,#1017);
#885=AXIS2_PLACEMENT_3D('',#1263,#1020,#1021);
#886=AXIS2_PLACEMENT_3D('',#1267,#1024,#1025);
#887=AXIS2_PLACEMENT_3D('',#1273,#1029,#1030);
#888=AXIS2_PLACEMENT_3D('',#1277,#1033,#1034);
#889=AXIS2_PLACEMENT_3D('',#1283,#1038,#1039);
#890=AXIS2_PLACEMENT_3D('',#1287,#1042,#1043);
#891=AXIS2_PLACEMENT_3D('',#1291,#1046,#1047);
#892=AXIS2_PLACEMENT_3D('',#1295,#1050,#1051);
#893=AXIS2_PLACEMENT_3D('',#1305,#1057,#1058);
#894=AXIS2_PLACEMENT_3D('',#1314,#1063,#1064);
#895=AXIS2_PLACEMENT_3D('',#1316,#1066,#1067);
#896=AXIS2_PLACEMENT_3D('',#1319,#1070,#1071);
#897=AXIS2_PLACEMENT_3D('',#1321,#1073,#1074);
#898=AXIS2_PLACEMENT_3D('',#1323,#1076,#1077);
#899=AXIS2_PLACEMENT_3D('',#1324,#1078,#1079);
#900=AXIS2_PLACEMENT_3D('',#1326,#1080,#1081);
#901=AXIS2_PLACEMENT_3D('',#1329,#1083,#1084);
#902=AXIS2_PLACEMENT_3D('',#1330,#1085,#1086);
#903=AXIS2_PLACEMENT_3D('',#1331,#1087,#1088);
#904=AXIS2_PLACEMENT_3D('',#1333,#1089,#1090);
#905=AXIS2_PLACEMENT_3D('',#1336,#1092,#1093);
#906=AXIS2_PLACEMENT_3D('',#1337,#1094,#1095);
#907=AXIS2_PLACEMENT_3D('',#1338,#1096,#1097);
#908=AXIS2_PLACEMENT_3D('',#1344,#1101,#1102);
#909=AXIS2_PLACEMENT_3D('',#1348,#1105,#1106);
#910=AXIS2_PLACEMENT_3D('',#1352,#1109,#1110);
#911=AXIS2_PLACEMENT_3D('',#1354,#1112,#1113);
#912=AXIS2_PLACEMENT_3D('',#1356,#1115,#1116);
#913=AXIS2_PLACEMENT_3D('',#1360,#1119,#1120);
#914=AXIS2_PLACEMENT_3D('',#1364,#1123,#1124);
#915=AXIS2_PLACEMENT_3D('',#1368,#1127,#1128);
#916=AXIS2_PLACEMENT_3D('',#1372,#1131,#1132);
#917=AXIS2_PLACEMENT_3D('',#1376,#1135,#1136);
#918=AXIS2_PLACEMENT_3D('',#1378,#1138,#1139);
#919=DIRECTION('axis',(0.,0.,1.));
#920=DIRECTION('refdir',(1.,0.,0.));
#921=DIRECTION('center_axis',(-1.,0.,0.));
#922=DIRECTION('ref_axis',(0.,0.707106781186547,-0.707106781186547));
#923=DIRECTION('center_axis',(1.,0.,0.));
#924=DIRECTION('ref_axis',(0.,0.707106781186547,-0.707106781186547));
#925=DIRECTION('',(1.,0.,0.));
#926=DIRECTION('center_axis',(-1.,0.,0.));
#927=DIRECTION('ref_axis',(0.,0.707106781186547,-0.707106781186547));
#928=DIRECTION('',(-1.,0.,0.));
#929=DIRECTION('center_axis',(0.,1.,0.));
#930=DIRECTION('ref_axis',(-1.,0.,0.));
#931=DIRECTION('',(0.,0.,1.));
#932=DIRECTION('',(-1.,0.,0.));
#933=DIRECTION('',(0.,0.,1.));
#934=DIRECTION('center_axis',(-1.,0.,0.));
#935=DIRECTION('ref_axis',(0.,-1.,0.));
#936=DIRECTION('',(0.,-1.,0.));
#937=DIRECTION('',(0.,0.,1.));
#938=DIRECTION('',(0.,-1.,0.));
#939=DIRECTION('center_axis',(1.,0.,0.));
#940=DIRECTION('ref_axis',(0.,0.707106781186547,0.707106781186547));
#941=DIRECTION('',(0.,5.73018335290404E-15,-1.));
#942=DIRECTION('',(0.,1.,0.));
#943=DIRECTION('',(0.,0.,1.));
#944=DIRECTION('',(0.,-1.,-1.00929365875014E-15));
#945=DIRECTION('center_axis',(-1.,0.,0.));
#946=DIRECTION('ref_axis',(0.,0.707106781186547,0.707106781186547));
#947=DIRECTION('',(1.,0.,0.));
#948=DIRECTION('center_axis',(-1.,0.,0.));
#949=DIRECTION('ref_axis',(0.,0.707106781186547,0.707106781186547));
#950=DIRECTION('center_axis',(0.,0.,1.));
#951=DIRECTION('ref_axis',(1.,0.,0.));
#952=DIRECTION('',(1.,0.,0.));
#953=DIRECTION('',(3.06268416022495E-16,1.,0.));
#954=DIRECTION('',(0.999999999999954,3.04615165886035E-7,0.));
#955=DIRECTION('',(0.,-1.,0.));
#956=DIRECTION('',(-0.745267208928315,-0.666765916417598,0.));
#957=DIRECTION('',(0.,-1.,0.));
#958=DIRECTION('',(0.707106781186548,-0.707106781186548,0.));
#959=DIRECTION('',(-4.59402630879375E-16,-1.,0.));
#960=DIRECTION('',(-1.,-2.06553120860494E-16,0.));
#961=DIRECTION('',(0.,1.,0.));
#962=DIRECTION('',(0.707106781186548,0.707106781186547,0.));
#963=DIRECTION('',(-1.66533453693773E-15,1.,0.));
#964=DIRECTION('',(-0.80393592779834,0.594715918733493,0.));
#965=DIRECTION('',(0.,1.,0.));
#966=DIRECTION('center_axis',(-0.999999999999954,-3.04615165886035E-7,0.));
#967=DIRECTION('ref_axis',(-2.15395449516892E-7,0.707106781186515,0.707106781186547));
#968=DIRECTION('center_axis',(-0.554700196225228,-0.832050294337844,-5.51499339952247E-15));
#969=DIRECTION('ref_axis',(-0.832050294337844,0.554700196225228,3.54108696327899E-15));
#970=DIRECTION('',(-0.999999999999954,-3.04615165886035E-7,0.));
#971=DIRECTION('center_axis',(1.,0.,0.));
#972=DIRECTION('ref_axis',(0.,0.707106781186564,-0.707106781186531));
#973=DIRECTION('center_axis',(-1.,3.06268416022495E-16,0.));
#974=DIRECTION('ref_axis',(2.16564487044748E-16,0.707106781186564,-0.707106781186531));
#975=DIRECTION('center_axis',(-0.554700196225229,1.69887150465268E-16,-0.832050294337844));
#976=DIRECTION('ref_axis',(-0.832050294337788,-3.66101866782946E-7,0.554700196225192));
#977=DIRECTION('center_axis',(-1.,0.,0.));
#978=DIRECTION('ref_axis',(0.,-1.,0.));
#979=DIRECTION('',(0.,0.,1.));
#980=DIRECTION('center_axis',(1.,0.,0.));
#981=DIRECTION('ref_axis',(0.,0.707106781186564,0.707106781186531));
#982=DIRECTION('',(0.,1.,0.));
#983=DIRECTION('',(0.,0.,1.));
#984=DIRECTION('',(0.,5.73018335290404E-15,-1.));
#985=DIRECTION('',(0.,1.,0.));
#986=DIRECTION('',(0.,0.,1.));
#987=DIRECTION('',(0.,-1.,-1.00929365875014E-15));
#988=DIRECTION('center_axis',(-3.04615165886035E-7,0.999999999999954,0.));
#989=DIRECTION('ref_axis',(-0.999999999999954,-3.04615165886035E-7,0.));
#990=DIRECTION('',(0.,0.,1.));
#991=DIRECTION('',(0.999999999999954,3.04615165886035E-7,0.));
#992=DIRECTION('center_axis',(0.554700196225228,0.832050294337844,5.51499339952247E-15));
#993=DIRECTION('ref_axis',(9.94229574291187E-15,0.,-1.));
#994=DIRECTION('',(-0.727606875109,0.485071250072663,0.485071250072667));
#995=DIRECTION('',(0.,-6.62819716194123E-15,1.));
#996=DIRECTION('',(-0.727606875108998,0.485071250072668,-0.485071250072666));
#997=DIRECTION('center_axis',(-0.554700196225228,-0.832050294337844,-5.51499339952247E-15));
#998=DIRECTION('ref_axis',(-0.832050294337844,0.554700196225228,3.72583932658051E-15));
#999=DIRECTION('center_axis',(0.999999999999954,3.04615165886035E-7,0.));
#1000=DIRECTION('ref_axis',(-2.15395449516892E-7,0.707106781186515,-0.707106781186547));
#1001=DIRECTION('center_axis',(-1.,3.06268416022495E-16,0.));
#1002=DIRECTION('ref_axis',(2.16564487044748E-16,0.707106781186564,0.707106781186531));
#1003=DIRECTION('',(-0.999999999999954,-3.04615165886035E-7,0.));
#1004=DIRECTION('center_axis',(-0.554700196225229,3.34844542325984E-16,
0.832050294337844));
#1005=DIRECTION('ref_axis',(-0.832050294337788,-3.6610186699849E-7,-0.554700196225192));
#1006=DIRECTION('center_axis',(0.554700196225229,-0.832050294337844,0.));
#1007=DIRECTION('ref_axis',(0.,0.,-1.));
#1008=DIRECTION('',(0.,0.,-1.));
#1009=DIRECTION('',(0.727606875108999,0.485071250072666,0.485071250072666));
#1010=DIRECTION('',(0.,0.,-1.));
#1011=DIRECTION('',(-0.727606875108999,-0.485071250072666,0.485071250072666));
#1012=DIRECTION('center_axis',(0.554700196225229,-1.69887150465268E-16,
0.832050294337844));
#1013=DIRECTION('ref_axis',(0.832050294337844,0.,-0.554700196225229));
#1014=DIRECTION('',(-3.06268416022495E-16,-1.,0.));
#1015=DIRECTION('',(0.,-1.,0.));
#1016=DIRECTION('center_axis',(0.554700196225229,-3.34844542325984E-16,
-0.832050294337844));
#1017=DIRECTION('ref_axis',(-0.832050294337844,0.,-0.554700196225229));
#1018=DIRECTION('',(0.,1.,-1.98254111540205E-16));
#1019=DIRECTION('',(3.06268416022495E-16,1.,-1.98254111540205E-16));
#1020=DIRECTION('center_axis',(1.,-3.06268416022495E-16,0.));
#1021=DIRECTION('ref_axis',(3.06268416022495E-16,1.,0.));
#1022=DIRECTION('',(0.,0.,1.));
#1023=DIRECTION('',(-3.06268416022495E-16,-1.,0.));
#1024=DIRECTION('center_axis',(0.,0.,-1.));
#1025=DIRECTION('ref_axis',(0.,1.,0.));
#1026=DIRECTION('',(1.,0.,0.));
#1027=DIRECTION('',(0.,1.,0.));
#1028=DIRECTION('',(-1.,0.,0.));
#1029=DIRECTION('center_axis',(0.,1.,0.));
#1030=DIRECTION('ref_axis',(0.,0.,1.));
#1031=DIRECTION('',(0.,0.,1.));
#1032=DIRECTION('',(-1.,0.,0.));
#1033=DIRECTION('center_axis',(0.,1.,0.));
#1034=DIRECTION('ref_axis',(0.,0.,1.));
#1035=DIRECTION('',(-1.,0.,0.));
#1036=DIRECTION('',(0.,0.,-1.));
#1037=DIRECTION('',(-1.,0.,0.));
#1038=DIRECTION('center_axis',(0.,-1.00929365875014E-15,1.));
#1039=DIRECTION('ref_axis',(0.,-1.,-1.00929365875014E-15));
#1040=DIRECTION('',(0.,-1.,-1.00929365875014E-15));
#1041=DIRECTION('',(-1.,0.,0.));
#1042=DIRECTION('center_axis',(0.,-1.00929365875014E-15,1.));
#1043=DIRECTION('ref_axis',(0.,-1.,-1.00929365875014E-15));
#1044=DIRECTION('',(0.,1.,1.00929365875014E-15));
#1045=DIRECTION('',(-1.,0.,0.));
#1046=DIRECTION('center_axis',(0.,0.,-1.));
#1047=DIRECTION('ref_axis',(0.,1.,0.));
#1048=DIRECTION('',(0.,-1.,0.));
#1049=DIRECTION('',(1.,0.,0.));
#1050=DIRECTION('center_axis',(1.,0.,0.));
#1051=DIRECTION('ref_axis',(0.,0.,-1.));
#1052=DIRECTION('',(0.,5.73018335290404E-15,-1.));
#1053=DIRECTION('',(0.,-1.,-3.46944695195362E-16));
#1054=DIRECTION('',(0.,0.,-1.));
#1055=DIRECTION('',(0.,1.,0.));
#1056=DIRECTION('',(0.,5.73018335290404E-15,-1.));
#1057=DIRECTION('center_axis',(1.,0.,0.));
#1058=DIRECTION('ref_axis',(0.,0.,-1.));
#1059=DIRECTION('',(0.,0.,1.));
#1060=DIRECTION('',(0.,1.,0.));
#1061=DIRECTION('',(0.,0.,-1.));
#1062=DIRECTION('',(0.,-1.,-3.46944695195362E-16));
#1063=DIRECTION('center_axis',(0.,-1.,0.));
#1064=DIRECTION('ref_axis',(0.,0.,1.));
#1065=DIRECTION('',(0.,-5.73018335290404E-15,1.));
#1066=DIRECTION('center_axis',(0.,-1.,0.));
#1067=DIRECTION('ref_axis',(0.,0.,1.));
#1068=DIRECTION('',(-1.,0.,0.));
#1069=DIRECTION('',(-1.,0.,0.));
#1070=DIRECTION('center_axis',(0.,3.46944695195362E-16,-1.));
#1071=DIRECTION('ref_axis',(0.,-1.,-3.46944695195362E-16));
#1072=DIRECTION('',(1.,0.,0.));
#1073=DIRECTION('center_axis',(0.,1.,0.));
#1074=DIRECTION('ref_axis',(0.,0.,-1.));
#1075=DIRECTION('',(-1.,0.,0.));
#1076=DIRECTION('center_axis',(0.,0.,1.));
#1077=DIRECTION('ref_axis',(0.,1.,0.));
#1078=DIRECTION('center_axis',(2.96059473233375E-16,-1.,0.));
#1079=DIRECTION('ref_axis',(-1.,-2.96059473233375E-16,0.));
#1080=DIRECTION('center_axis',(-4.13106241720988E-16,1.,0.));
#1081=DIRECTION('ref_axis',(-1.,-4.13106241720988E-16,0.));
#1082=DIRECTION('',(2.96059473233375E-16,-1.,0.));
#1083=DIRECTION('center_axis',(0.,1.,0.));
#1084=DIRECTION('ref_axis',(-1.,-2.96059473233375E-16,0.));
#1085=DIRECTION('center_axis',(-4.13106241720988E-16,1.,0.));
#1086=DIRECTION('ref_axis',(-1.,-4.13106241720989E-16,0.));
#1087=DIRECTION('center_axis',(4.44089209850063E-16,-1.,0.));
#1088=DIRECTION('ref_axis',(-1.,-4.44089209850063E-16,0.));
#1089=DIRECTION('center_axis',(-4.13106241720988E-16,1.,0.));
#1090=DIRECTION('ref_axis',(-1.,-4.13106241720988E-16,0.));
#1091=DIRECTION('',(4.44089209850063E-16,-1.,0.));
#1092=DIRECTION('center_axis',(0.,1.,0.));
#1093=DIRECTION('ref_axis',(-1.,-4.44089209850063E-16,0.));
#1094=DIRECTION('center_axis',(-4.13106241720988E-16,1.,0.));
#1095=DIRECTION('ref_axis',(-1.,-4.13106241720989E-16,0.));
#1096=DIRECTION('center_axis',(-1.,4.59402630879375E-16,0.));
#1097=DIRECTION('ref_axis',(-4.59402630879375E-16,-1.,0.));
#1098=DIRECTION('',(4.59402630879375E-16,1.,0.));
#1099=DIRECTION('',(0.,0.,1.));
#1100=DIRECTION('',(0.,0.,1.));
#1101=DIRECTION('center_axis',(-0.707106781186548,-0.707106781186548,0.));
#1102=DIRECTION('ref_axis',(0.707106781186548,-0.707106781186548,0.));
#1103=DIRECTION('',(-0.707106781186548,0.707106781186548,0.));
#1104=DIRECTION('',(0.,0.,1.));
#1105=DIRECTION('center_axis',(-1.,0.,0.));
#1106=DIRECTION('ref_axis',(0.,-1.,0.));
#1107=DIRECTION('',(0.,1.,0.));
#1108=DIRECTION('',(0.,0.,1.));
#1109=DIRECTION('center_axis',(-0.666765916417598,0.745267208928315,0.));
#1110=DIRECTION('ref_axis',(-0.745267208928315,-0.666765916417598,0.));
#1111=DIRECTION('',(0.745267208928315,0.666765916417598,0.));
#1112=DIRECTION('center_axis',(0.,-1.,0.));
#1113=DIRECTION('ref_axis',(1.,0.,0.));
#1114=DIRECTION('',(1.,0.,0.));
#1115=DIRECTION('center_axis',(1.,0.,0.));
#1116=DIRECTION('ref_axis',(0.,1.,0.));
#1117=DIRECTION('',(0.,0.,1.));
#1118=DIRECTION('',(0.,1.,0.));
#1119=DIRECTION('center_axis',(0.594715918733493,0.80393592779834,0.));
#1120=DIRECTION('ref_axis',(-0.80393592779834,0.594715918733493,0.));
#1121=DIRECTION('',(-0.80393592779834,0.594715918733493,0.));
#1122=DIRECTION('',(0.,0.,1.));
#1123=DIRECTION('center_axis',(1.,1.66533453693773E-15,0.));
#1124=DIRECTION('ref_axis',(-1.66533453693773E-15,1.,0.));
#1125=DIRECTION('',(-1.66533453693773E-15,1.,0.));
#1126=DIRECTION('',(0.,0.,1.));
#1127=DIRECTION('center_axis',(0.707106781186547,-0.707106781186548,0.));
#1128=DIRECTION('ref_axis',(0.707106781186548,0.707106781186547,0.));
#1129=DIRECTION('',(0.707106781186548,0.707106781186547,0.));
#1130=DIRECTION('',(0.,0.,1.));
#1131=DIRECTION('center_axis',(1.,0.,0.));
#1132=DIRECTION('ref_axis',(0.,1.,0.));
#1133=DIRECTION('',(0.,1.,0.));
#1134=DIRECTION('',(0.,0.,1.));
#1135=DIRECTION('center_axis',(-2.06553120860494E-16,1.,0.));
#1136=DIRECTION('ref_axis',(-1.,-2.06553120860494E-16,0.));
#1137=DIRECTION('',(-1.,-2.06553120860494E-16,0.));
#1138=DIRECTION('center_axis',(0.,0.,1.));
#1139=DIRECTION('ref_axis',(1.,0.,0.));
#1140=CARTESIAN_POINT('',(0.,0.,0.));
#1141=CARTESIAN_POINT('Origin',(7.51757651355337,53.0000008642673,5.));
#1142=CARTESIAN_POINT('',(0.,53.0000008642673,0.));
#1143=CARTESIAN_POINT('',(0.,58.0000008642673,5.));
#1144=CARTESIAN_POINT('Origin',(0.,53.0000008642673,5.));
#1145=CARTESIAN_POINT('',(2.28515302710673,58.0000008642673,5.));
#1146=CARTESIAN_POINT('',(7.51757651355337,58.0000008642673,5.));
#1147=CARTESIAN_POINT('',(2.28515302710673,53.0000008642673,0.));
#1148=CARTESIAN_POINT('Origin',(2.28515302710673,53.0000008642673,5.));
#1149=CARTESIAN_POINT('',(7.51757651355337,53.0000008642673,0.));
#1150=CARTESIAN_POINT('Origin',(2.28515302710673,58.0000008642673,0.));
#1151=CARTESIAN_POINT('',(0.,58.0000008642673,16.));
#1152=CARTESIAN_POINT('',(0.,58.0000008642673,0.));
#1153=CARTESIAN_POINT('',(2.28515302710673,58.0000008642673,16.));
#1154=CARTESIAN_POINT('',(7.51757651355337,58.0000008642673,16.));
#1155=CARTESIAN_POINT('',(2.28515302710673,58.0000008642673,0.));
#1156=CARTESIAN_POINT('Origin',(0.,58.0000008642673,0.));
#1157=CARTESIAN_POINT('',(0.,0.,0.));
#1158=CARTESIAN_POINT('',(0.,58.0000008642673,0.));
#1159=CARTESIAN_POINT('',(0.,0.,21.));
#1160=CARTESIAN_POINT('',(0.,0.,0.));
#1161=CARTESIAN_POINT('',(0.,53.0000008642673,21.));
#1162=CARTESIAN_POINT('',(0.,58.0000008642673,21.));
#1163=CARTESIAN_POINT('Origin',(0.,53.0000008642673,16.));
#1164=CARTESIAN_POINT('',(0.,49.6000008642674,14.2));
#1165=CARTESIAN_POINT('',(0.,49.6000008642674,6.8));
#1166=CARTESIAN_POINT('',(0.,49.6000008642674,7.09999999999997));
#1167=CARTESIAN_POINT('',(0.,54.0000008642674,6.8));
#1168=CARTESIAN_POINT('',(0.,53.8000008642674,6.8));
#1169=CARTESIAN_POINT('',(0.,54.0000008642674,14.2));
#1170=CARTESIAN_POINT('',(0.,54.0000008642674,3.4));
#1171=CARTESIAN_POINT('',(0.,56.0000008642673,14.2));
#1172=CARTESIAN_POINT('Origin',(7.51757651355337,53.0000008642673,16.));
#1173=CARTESIAN_POINT('',(2.28515302710673,53.0000008642673,21.));
#1174=CARTESIAN_POINT('',(7.51757651355337,53.0000008642673,21.));
#1175=CARTESIAN_POINT('Origin',(2.28515302710673,53.0000008642673,16.));
#1176=CARTESIAN_POINT('Origin',(12.75,29.0000004321337,21.));
#1177=CARTESIAN_POINT('',(25.5,0.,21.));
#1178=CARTESIAN_POINT('',(0.,0.,21.));
#1179=CARTESIAN_POINT('',(25.5,53.0000008642671,21.));
#1180=CARTESIAN_POINT('',(25.5,58.0000008642673,21.));
#1181=CARTESIAN_POINT('',(23.1519365442606,53.0000001490114,21.));
#1182=CARTESIAN_POINT('',(19.1249971061565,52.9999989223445,21.));
#1183=CARTESIAN_POINT('',(23.1519365442606,49.4779329757195,21.));
#1184=CARTESIAN_POINT('',(23.1519365442606,49.4779329757195,21.));
#1185=CARTESIAN_POINT('',(21.5,48.,21.));
#1186=CARTESIAN_POINT('',(21.5,48.,21.));
#1187=CARTESIAN_POINT('',(21.5,46.,21.));
#1188=CARTESIAN_POINT('',(21.5,46.,21.));
#1189=CARTESIAN_POINT('',(23.5,44.,21.));
#1190=CARTESIAN_POINT('',(23.5,44.,21.));
#1191=CARTESIAN_POINT('',(23.5,15.,21.));
#1192=CARTESIAN_POINT('',(23.5,15.,21.));
#1193=CARTESIAN_POINT('',(2.,15.,21.));
#1194=CARTESIAN_POINT('',(12.75,15.,21.));
#1195=CARTESIAN_POINT('',(2.,44.,21.));
#1196=CARTESIAN_POINT('',(2.,15.,21.));
#1197=CARTESIAN_POINT('',(4.,46.,21.));
#1198=CARTESIAN_POINT('',(2.,44.,21.));
#1199=CARTESIAN_POINT('',(3.99999999999999,48.,21.));
#1200=CARTESIAN_POINT('',(4.,46.,21.));
#1201=CARTESIAN_POINT('',(2.28515302710673,49.2685672548116,21.));
#1202=CARTESIAN_POINT('',(3.99999999999999,48.,21.));
#1203=CARTESIAN_POINT('',(2.28515302710673,49.2685672548116,21.));
#1204=CARTESIAN_POINT('Origin',(19.1249971061565,52.9999989223445,16.));
#1205=CARTESIAN_POINT('',(25.8894904154018,57.7403405873328,17.5903397230655));
#1206=CARTESIAN_POINT('',(25.5,58.0000008642673,16.));
#1207=CARTESIAN_POINT('Origin',(32.9999965730813,53.0000031488798,16.));
#1208=CARTESIAN_POINT('',(23.1519365442606,58.0000001490116,16.));
#1209=CARTESIAN_POINT('',(19.1249955830806,57.9999989223443,16.));
#1210=CARTESIAN_POINT('Origin',(23.1519365442606,53.0000001490114,16.));
#1211=CARTESIAN_POINT('',(25.5,57.6451596344279,17.85));
#1212=CARTESIAN_POINT('Origin',(25.5,53.0000008642671,16.));
#1213=CARTESIAN_POINT('Origin',(28.275,53.0000017095742,16.));
#1214=CARTESIAN_POINT('Origin',(23.1519365442606,58.0000001490116,0.));
#1215=CARTESIAN_POINT('',(23.1519365442606,58.0000001490116,5.));
#1216=CARTESIAN_POINT('',(23.1519365442606,58.0000001490116,0.));
#1217=CARTESIAN_POINT('',(23.1519365442606,53.0000001490114,0.));
#1218=CARTESIAN_POINT('Origin',(23.1519365442606,53.0000001490114,5.));
#1219=CARTESIAN_POINT('',(23.1519365442606,49.4779329757195,0.));
#1220=CARTESIAN_POINT('',(23.1519365442606,49.4779329757195,0.));
#1221=CARTESIAN_POINT('',(23.1519365442606,49.4779329757195,0.));
#1222=CARTESIAN_POINT('',(23.1519365442606,49.6000008642674,14.2));
#1223=CARTESIAN_POINT('',(23.1519365442606,49.6000008642674,6.8));
#1224=CARTESIAN_POINT('',(23.1519365442606,49.6000008642674,7.09999999999997));
#1225=CARTESIAN_POINT('',(23.1519365442606,54.0000008642674,6.8));
#1226=CARTESIAN_POINT('',(23.1519365442606,53.8000005066395,6.8));
#1227=CARTESIAN_POINT('',(23.1519365442606,54.0000008642674,14.2));
#1228=CARTESIAN_POINT('',(23.1519365442606,54.0000008642674,3.4));
#1229=CARTESIAN_POINT('',(23.1519365442606,56.0000005066395,14.2));
#1230=CARTESIAN_POINT('Origin',(25.5,58.0000008642673,0.));
#1231=CARTESIAN_POINT('',(25.5,58.0000008642673,5.));
#1232=CARTESIAN_POINT('',(25.5,58.0000008642673,0.));
#1233=CARTESIAN_POINT('',(19.1249955830806,57.9999989223443,5.));
#1234=CARTESIAN_POINT('Origin',(28.5,56.0000008642674,3.57500000000019));
#1235=CARTESIAN_POINT('',(31.5,54.0000008642674,13.85));
#1236=CARTESIAN_POINT('',(31.5,54.0000008642674,13.85));
#1237=CARTESIAN_POINT('',(31.5,54.0000008642674,7.15));
#1238=CARTESIAN_POINT('',(31.5,54.0000008642674,13.85));
#1239=CARTESIAN_POINT('',(25.8894904154019,57.7403405873328,3.4096602769346));
#1240=CARTESIAN_POINT('',(31.5,54.0000008642674,7.15));
#1241=CARTESIAN_POINT('Origin',(32.9999965730814,53.0000031488798,5.));
#1242=CARTESIAN_POINT('Origin',(19.1249971061565,52.9999989223445,5.));
#1243=CARTESIAN_POINT('',(25.5,57.6451596344279,3.14999999999999));
#1244=CARTESIAN_POINT('',(25.5,53.0000008642671,0.));
#1245=CARTESIAN_POINT('Origin',(25.5,53.0000008642671,5.));
#1246=CARTESIAN_POINT('',(19.1249971061565,52.9999989223445,0.));
#1247=CARTESIAN_POINT('Origin',(28.275,53.0000017095742,5.));
#1248=CARTESIAN_POINT('Origin',(28.5,46.4000008642674,6.925));
#1249=CARTESIAN_POINT('',(25.5,44.4000008642674,17.85));
#1250=CARTESIAN_POINT('',(25.5,44.4000008642674,3.15));
#1251=CARTESIAN_POINT('',(25.5,44.4000008642674,6.925));
#1252=CARTESIAN_POINT('',(31.5,48.4000008642674,7.15));
#1253=CARTESIAN_POINT('',(25.5,44.4000008642674,3.15));
#1254=CARTESIAN_POINT('',(31.5,48.4000008642674,13.85));
#1255=CARTESIAN_POINT('',(31.5,48.4000008642674,7.15));
#1256=CARTESIAN_POINT('',(31.5,48.4000008642674,13.85));
#1257=CARTESIAN_POINT('Origin',(28.5,27.0000004321337,15.85));
#1258=CARTESIAN_POINT('',(25.5,27.0000004321337,17.85));
#1259=CARTESIAN_POINT('',(31.5,48.4000008642674,13.85));
#1260=CARTESIAN_POINT('Origin',(28.5,24.2000004321337,5.15));
#1261=CARTESIAN_POINT('',(31.5,54.0000008642674,7.15));
#1262=CARTESIAN_POINT('',(25.5,24.2000004321337,3.15));
#1263=CARTESIAN_POINT('Origin',(25.5,0.,0.));
#1264=CARTESIAN_POINT('',(25.5,0.,0.));
#1265=CARTESIAN_POINT('',(25.5,0.,0.));
#1266=CARTESIAN_POINT('',(25.5,58.0000008642673,0.));
#1267=CARTESIAN_POINT('Origin',(23.1519365442606,49.6000008642674,6.8));
#1268=CARTESIAN_POINT('',(24.6519365442606,49.6000008642674,6.8));
#1269=CARTESIAN_POINT('',(23.1519365442606,49.6000008642674,6.8));
#1270=CARTESIAN_POINT('',(24.6519365442606,54.0000008642674,6.8));
#1271=CARTESIAN_POINT('',(24.6519365442606,54.0000008642674,6.8));
#1272=CARTESIAN_POINT('',(23.1519365442606,54.0000008642674,6.8));
#1273=CARTESIAN_POINT('Origin',(23.1519365442606,54.0000008642674,6.8));
#1274=CARTESIAN_POINT('',(24.6519365442606,54.0000008642674,14.2));
#1275=CARTESIAN_POINT('',(24.6519365442606,54.0000008642674,14.2));
#1276=CARTESIAN_POINT('',(23.1519365442606,54.0000008642674,14.2));
#1277=CARTESIAN_POINT('Origin',(23.1519365442606,54.0000008642674,6.8));
#1278=CARTESIAN_POINT('',(2.28515302710673,54.0000008642674,6.8));
#1279=CARTESIAN_POINT('',(23.1519365442606,54.0000008642674,6.8));
#1280=CARTESIAN_POINT('',(2.28515302710673,54.0000008642674,14.2));
#1281=CARTESIAN_POINT('',(2.28515302710673,54.0000008642674,3.4));
#1282=CARTESIAN_POINT('',(23.1519365442606,54.0000008642674,14.2));
#1283=CARTESIAN_POINT('Origin',(23.1519365442606,54.0000008642674,14.2));
#1284=CARTESIAN_POINT('',(24.6519365442606,49.6000008642674,14.2));
#1285=CARTESIAN_POINT('',(24.6519365442606,49.6000008642674,14.2));
#1286=CARTESIAN_POINT('',(23.1519365442606,49.6000008642674,14.2));
#1287=CARTESIAN_POINT('Origin',(23.1519365442606,54.0000008642674,14.2));
#1288=CARTESIAN_POINT('',(2.28515302710673,49.6000008642674,14.2));
#1289=CARTESIAN_POINT('',(2.28515302710673,51.6342840595395,14.2));
#1290=CARTESIAN_POINT('',(23.1519365442606,49.6000008642674,14.2));
#1291=CARTESIAN_POINT('Origin',(23.1519365442606,49.6000008642674,6.8));
#1292=CARTESIAN_POINT('',(2.28515302710673,49.6000008642674,6.8));
#1293=CARTESIAN_POINT('',(2.28515302710673,49.4342840595395,6.8));
#1294=CARTESIAN_POINT('',(23.1519365442606,49.6000008642674,6.8));
#1295=CARTESIAN_POINT('Origin',(24.6519365442606,51.8000008642674,10.5));
#1296=CARTESIAN_POINT('',(24.6519365442606,49.6000008642674,8.34999999999999));
#1297=CARTESIAN_POINT('',(24.6519365442606,49.6000008642674,6.8));
#1298=CARTESIAN_POINT('',(24.6519365442606,52.8000008642674,8.34999999999999));
#1299=CARTESIAN_POINT('',(24.6519365442606,52.3000008642674,8.34999999999999));
#1300=CARTESIAN_POINT('',(24.6519365442606,52.8000008642674,12.65));
#1301=CARTESIAN_POINT('',(24.6519365442606,52.8000008642674,11.575));
#1302=CARTESIAN_POINT('',(24.6519365442606,49.6000008642674,12.65));
#1303=CARTESIAN_POINT('',(24.6519365442606,50.7000008642674,12.65));
#1304=CARTESIAN_POINT('',(24.6519365442606,49.6000008642674,12.65));
#1305=CARTESIAN_POINT('Origin',(31.5,51.2000008642674,10.5));
#1306=CARTESIAN_POINT('',(31.5,49.6000008642674,8.34999999999999));
#1307=CARTESIAN_POINT('',(31.5,49.6000008642674,12.65));
#1308=CARTESIAN_POINT('',(31.5,49.6000008642674,8.34999999999999));
#1309=CARTESIAN_POINT('',(31.5,52.8000008642674,12.65));
#1310=CARTESIAN_POINT('',(31.5,49.6000008642674,12.65));
#1311=CARTESIAN_POINT('',(31.5,52.8000008642674,8.34999999999999));
#1312=CARTESIAN_POINT('',(31.5,52.8000008642674,12.65));
#1313=CARTESIAN_POINT('',(31.5,52.8000008642674,8.34999999999999));
#1314=CARTESIAN_POINT('Origin',(25.5,49.6000008642674,8.34999999999999));
#1315=CARTESIAN_POINT('',(2.28515302710673,49.6000008642674,7.1));
#1316=CARTESIAN_POINT('Origin',(25.5,49.6000008642674,8.34999999999999));
#1317=CARTESIAN_POINT('',(25.5,49.6000008642674,12.65));
#1318=CARTESIAN_POINT('',(25.5,49.6000008642674,8.34999999999999));
#1319=CARTESIAN_POINT('Origin',(25.5,52.8000008642674,8.34999999999999));
#1320=CARTESIAN_POINT('',(25.5,52.8000008642674,8.34999999999999));
#1321=CARTESIAN_POINT('Origin',(25.5,52.8000008642674,12.65));
#1322=CARTESIAN_POINT('',(25.5,52.8000008642674,12.65));
#1323=CARTESIAN_POINT('Origin',(25.5,49.6000008642674,12.65));
#1324=CARTESIAN_POINT('Origin',(18.75,13.,10.5));
#1325=CARTESIAN_POINT('',(20.1,13.,10.5));
#1326=CARTESIAN_POINT('Origin',(18.75,13.,10.5));
#1327=CARTESIAN_POINT('',(20.1,4.84057238736568E-15,10.5));
#1328=CARTESIAN_POINT('',(20.1,13.,10.5));
#1329=CARTESIAN_POINT('Origin',(18.75,4.44089209850063E-15,10.5));
#1330=CARTESIAN_POINT('Origin',(18.75,13.,10.5));
#1331=CARTESIAN_POINT('Origin',(6.75,13.,10.5));
#1332=CARTESIAN_POINT('',(8.1,13.,10.5));
#1333=CARTESIAN_POINT('Origin',(6.75,13.,10.5));
#1334=CARTESIAN_POINT('',(8.1,2.8199664825479E-15,10.5));
#1335=CARTESIAN_POINT('',(8.1,13.,10.5));
#1336=CARTESIAN_POINT('Origin',(6.75,2.22044604925031E-15,10.5));
#1337=CARTESIAN_POINT('Origin',(6.75,13.,10.5));
#1338=CARTESIAN_POINT('Origin',(23.5,44.,0.));
#1339=CARTESIAN_POINT('',(23.5,15.,0.));
#1340=CARTESIAN_POINT('',(23.5,44.,0.));
#1341=CARTESIAN_POINT('',(23.5,15.,0.));
#1342=CARTESIAN_POINT('',(23.5,15.,0.));
#1343=CARTESIAN_POINT('',(23.5,44.,0.));
#1344=CARTESIAN_POINT('Origin',(21.5,46.,0.));
#1345=CARTESIAN_POINT('',(21.5,46.,0.));
#1346=CARTESIAN_POINT('',(23.5,44.,0.));
#1347=CARTESIAN_POINT('',(21.5,46.,0.));
#1348=CARTESIAN_POINT('Origin',(21.5,48.,0.));
#1349=CARTESIAN_POINT('',(21.5,48.,0.));
#1350=CARTESIAN_POINT('',(21.5,46.,0.));
#1351=CARTESIAN_POINT('',(21.5,48.,0.));
#1352=CARTESIAN_POINT('Origin',(23.1519365442606,49.4779329757195,0.));
#1353=CARTESIAN_POINT('',(21.5,48.,0.));
#1354=CARTESIAN_POINT('Origin',(0.,0.,0.));
#1355=CARTESIAN_POINT('',(0.,0.,0.));
#1356=CARTESIAN_POINT('Origin',(2.28515302710673,49.2685672548116,0.));
#1357=CARTESIAN_POINT('',(2.28515302710673,49.2685672548116,0.));
#1358=CARTESIAN_POINT('',(2.28515302710673,49.2685672548116,0.));
#1359=CARTESIAN_POINT('',(2.28515302710673,49.2685672548116,0.));
#1360=CARTESIAN_POINT('Origin',(3.99999999999999,48.,0.));
#1361=CARTESIAN_POINT('',(3.99999999999999,48.,0.));
#1362=CARTESIAN_POINT('',(3.99999999999999,48.,0.));
#1363=CARTESIAN_POINT('',(3.99999999999999,48.,0.));
#1364=CARTESIAN_POINT('Origin',(4.,46.,0.));
#1365=CARTESIAN_POINT('',(4.,46.,0.));
#1366=CARTESIAN_POINT('',(4.,46.,0.));
#1367=CARTESIAN_POINT('',(4.,46.,0.));
#1368=CARTESIAN_POINT('Origin',(2.,44.,0.));
#1369=CARTESIAN_POINT('',(2.,44.,0.));
#1370=CARTESIAN_POINT('',(2.,44.,0.));
#1371=CARTESIAN_POINT('',(2.,44.,0.));
#1372=CARTESIAN_POINT('Origin',(2.,15.,0.));
#1373=CARTESIAN_POINT('',(2.,15.,0.));
#1374=CARTESIAN_POINT('',(2.,15.,0.));
#1375=CARTESIAN_POINT('',(2.,15.,0.));
#1376=CARTESIAN_POINT('Origin',(23.5,15.,0.));
#1377=CARTESIAN_POINT('',(12.75,15.,0.));
#1378=CARTESIAN_POINT('Origin',(12.75,29.0000004321337,0.));
#1379=UNCERTAINTY_MEASURE_WITH_UNIT(LENGTH_MEASURE(0.01),#1383,
'DISTANCE_ACCURACY_VALUE',
'Maximum model space distance between geometric entities at asserted c
onnectivities');
#1380=UNCERTAINTY_MEASURE_WITH_UNIT(LENGTH_MEASURE(0.01),#1383,
'DISTANCE_ACCURACY_VALUE',
'Maximum model space distance between geometric entities at asserted c
onnectivities');
#1381=(
GEOMETRIC_REPRESENTATION_CONTEXT(3)
GLOBAL_UNCERTAINTY_ASSIGNED_CONTEXT((#1379))
GLOBAL_UNIT_ASSIGNED_CONTEXT((#1383,#1385,#1386))
REPRESENTATION_CONTEXT('','3D')
);
#1382=(
GEOMETRIC_REPRESENTATION_CONTEXT(3)
GLOBAL_UNCERTAINTY_ASSIGNED_CONTEXT((#1380))
GLOBAL_UNIT_ASSIGNED_CONTEXT((#1383,#1385,#1386))
REPRESENTATION_CONTEXT('','3D')
);
#1383=(
LENGTH_UNIT()
NAMED_UNIT(*)
SI_UNIT(.MILLI.,.METRE.)
);
#1384=(
LENGTH_UNIT()
NAMED_UNIT(*)
SI_UNIT($,.METRE.)
);
#1385=(
NAMED_UNIT(*)
PLANE_ANGLE_UNIT()
SI_UNIT($,.RADIAN.)
);
#1386=(
NAMED_UNIT(*)
SI_UNIT($,.STERADIAN.)
SOLID_ANGLE_UNIT()
);
#1387=SHAPE_DEFINITION_REPRESENTATION(#1388,#1389);
#1388=PRODUCT_DEFINITION_SHAPE('',$,#1391);
#1389=SHAPE_REPRESENTATION('',(#859),#1381);
#1390=PRODUCT_DEFINITION_CONTEXT('part definition',#1395,'design');
#1391=PRODUCT_DEFINITION('Halter_Zange','Halter_Zange v8',#1392,#1390);
#1392=PRODUCT_DEFINITION_FORMATION('',$,#1397);
#1393=PRODUCT_RELATED_PRODUCT_CATEGORY('Halter_Zange v8',
'Halter_Zange v8',(#1397));
#1394=APPLICATION_PROTOCOL_DEFINITION('international standard',
'automotive_design',2009,#1395);
#1395=APPLICATION_CONTEXT(
'Core Data for Automotive Mechanical Design Process');
#1396=PRODUCT_CONTEXT('part definition',#1395,'mechanical');
#1397=PRODUCT('Halter_Zange','Halter_Zange v8',$,(#1396));
#1398=PRESENTATION_STYLE_ASSIGNMENT((#1399));
#1399=SURFACE_STYLE_USAGE(.BOTH.,#1400);
#1400=SURFACE_SIDE_STYLE('',(#1401));
#1401=SURFACE_STYLE_FILL_AREA(#1402);
#1402=FILL_AREA_STYLE('Stahl - satiniert',(#1403));
#1403=FILL_AREA_STYLE_COLOUR('Stahl - satiniert',#1404);
#1404=COLOUR_RGB('Stahl - satiniert',0.627450980392157,0.627450980392157,
0.627450980392157);
ENDSEC;
END-ISO-10303-21;
