ISO-10303-21;
HEADER;
/* Generated by software containing ST-Developer
 * from STEP Tools, Inc. (www.steptools.com) 
 */

FILE_DESCRIPTION(
/* description */ (''),
/* implementation_level */ '2;1');

FILE_NAME(
/* name */ 'Strommesszangenhalter_Sicherungsbolzen.step',
/* time_stamp */ '2026-06-28T16:51:58+02:00',
/* author */ (''),
/* organization */ (''),
/* preprocessor_version */ 'ST-DEVELOPER v20.1',
/* originating_system */ 'Autodesk Translation Framework v15.8.0.0',
/* authorisation */ '');

FILE_SCHEMA (('AUTOMOTIVE_DESIGN { 1 0 10303 214 3 1 1 }'));
ENDSEC;

DATA;
#10=MECHANICAL_DESIGN_GEOMETRIC_PRESENTATION_REPRESENTATION('',(#13),#543);
#11=SHAPE_REPRESENTATION_RELATIONSHIP('SRR','None',#550,#12);
#12=ADVANCED_BREP_SHAPE_REPRESENTATION('',(#14),#542);
#13=STYLED_ITEM('',(#559),#14);
#14=MANIFOLD_SOLID_BREP('Sicherungsbolzen_V',#335);
#15=FACE_OUTER_BOUND('',#33,.T.);
#16=FACE_OUTER_BOUND('',#34,.T.);
#17=FACE_OUTER_BOUND('',#35,.T.);
#18=FACE_OUTER_BOUND('',#36,.T.);
#19=FACE_OUTER_BOUND('',#37,.T.);
#20=FACE_OUTER_BOUND('',#38,.T.);
#21=FACE_OUTER_BOUND('',#39,.T.);
#22=FACE_OUTER_BOUND('',#40,.T.);
#23=FACE_OUTER_BOUND('',#41,.T.);
#24=FACE_OUTER_BOUND('',#42,.T.);
#25=FACE_OUTER_BOUND('',#43,.T.);
#26=FACE_OUTER_BOUND('',#44,.T.);
#27=FACE_OUTER_BOUND('',#45,.T.);
#28=FACE_OUTER_BOUND('',#46,.T.);
#29=FACE_OUTER_BOUND('',#47,.T.);
#30=FACE_OUTER_BOUND('',#48,.T.);
#31=FACE_OUTER_BOUND('',#49,.T.);
#32=FACE_OUTER_BOUND('',#50,.T.);
#33=EDGE_LOOP('',(#211,#212,#213,#214));
#34=EDGE_LOOP('',(#215,#216,#217,#218));
#35=EDGE_LOOP('',(#219,#220,#221,#222));
#36=EDGE_LOOP('',(#223,#224,#225,#226));
#37=EDGE_LOOP('',(#227,#228,#229,#230));
#38=EDGE_LOOP('',(#231,#232,#233,#234));
#39=EDGE_LOOP('',(#235,#236,#237,#238));
#40=EDGE_LOOP('',(#239,#240,#241,#242));
#41=EDGE_LOOP('',(#243,#244,#245,#246));
#42=EDGE_LOOP('',(#247,#248,#249,#250));
#43=EDGE_LOOP('',(#251,#252,#253,#254));
#44=EDGE_LOOP('',(#255,#256,#257,#258));
#45=EDGE_LOOP('',(#259,#260,#261,#262));
#46=EDGE_LOOP('',(#263,#264,#265,#266));
#47=EDGE_LOOP('',(#267,#268,#269,#270,#271,#272,#273,#274));
#48=EDGE_LOOP('',(#275,#276,#277,#278));
#49=EDGE_LOOP('',(#279,#280,#281,#282,#283,#284,#285,#286,#287,#288,#289,
#290));
#50=EDGE_LOOP('',(#291,#292,#293,#294,#295,#296,#297,#298));
#51=LINE('',#453,#95);
#52=LINE('',#455,#96);
#53=LINE('',#457,#97);
#54=LINE('',#458,#98);
#55=LINE('',#461,#99);
#56=LINE('',#463,#100);
#57=LINE('',#464,#101);
#58=LINE('',#467,#102);
#59=LINE('',#469,#103);
#60=LINE('',#470,#104);
#61=LINE('',#472,#105);
#62=LINE('',#473,#106);
#63=LINE('',#476,#107);
#64=LINE('',#478,#108);
#65=LINE('',#479,#109);
#66=LINE('',#482,#110);
#67=LINE('',#483,#111);
#68=LINE('',#488,#112);
#69=LINE('',#490,#113);
#70=LINE('',#492,#114);
#71=LINE('',#493,#115);
#72=LINE('',#496,#116);
#73=LINE('',#498,#117);
#74=LINE('',#499,#118);
#75=LINE('',#503,#119);
#76=LINE('',#505,#120);
#77=LINE('',#507,#121);
#78=LINE('',#508,#122);
#79=LINE('',#510,#123);
#80=LINE('',#511,#124);
#81=LINE('',#514,#125);
#82=LINE('',#516,#126);
#83=LINE('',#517,#127);
#84=LINE('',#520,#128);
#85=LINE('',#522,#129);
#86=LINE('',#523,#130);
#87=LINE('',#526,#131);
#88=LINE('',#528,#132);
#89=LINE('',#529,#133);
#90=LINE('',#531,#134);
#91=LINE('',#532,#135);
#92=LINE('',#534,#136);
#93=LINE('',#535,#137);
#94=LINE('',#537,#138);
#95=VECTOR('',#371,10.);
#96=VECTOR('',#372,10.);
#97=VECTOR('',#373,10.);
#98=VECTOR('',#374,10.);
#99=VECTOR('',#377,10.);
#100=VECTOR('',#378,10.);
#101=VECTOR('',#379,10.);
#102=VECTOR('',#382,10.);
#103=VECTOR('',#383,10.);
#104=VECTOR('',#384,10.);
#105=VECTOR('',#387,10.);
#106=VECTOR('',#388,10.);
#107=VECTOR('',#391,10.);
#108=VECTOR('',#392,10.);
#109=VECTOR('',#393,10.);
#110=VECTOR('',#396,10.);
#111=VECTOR('',#397,10.);
#112=VECTOR('',#402,10.);
#113=VECTOR('',#403,10.);
#114=VECTOR('',#404,10.);
#115=VECTOR('',#405,10.);
#116=VECTOR('',#408,10.);
#117=VECTOR('',#409,10.);
#118=VECTOR('',#410,10.);
#119=VECTOR('',#413,10.);
#120=VECTOR('',#414,10.);
#121=VECTOR('',#415,10.);
#122=VECTOR('',#416,10.);
#123=VECTOR('',#419,10.);
#124=VECTOR('',#420,10.);
#125=VECTOR('',#423,10.);
#126=VECTOR('',#424,10.);
#127=VECTOR('',#425,10.);
#128=VECTOR('',#428,10.);
#129=VECTOR('',#429,10.);
#130=VECTOR('',#430,10.);
#131=VECTOR('',#433,10.);
#132=VECTOR('',#434,10.);
#133=VECTOR('',#435,10.);
#134=VECTOR('',#438,10.);
#135=VECTOR('',#439,10.);
#136=VECTOR('',#440,10.);
#137=VECTOR('',#441,10.);
#138=VECTOR('',#444,10.);
#139=VERTEX_POINT('',#451);
#140=VERTEX_POINT('',#452);
#141=VERTEX_POINT('',#454);
#142=VERTEX_POINT('',#456);
#143=VERTEX_POINT('',#460);
#144=VERTEX_POINT('',#462);
#145=VERTEX_POINT('',#466);
#146=VERTEX_POINT('',#468);
#147=VERTEX_POINT('',#475);
#148=VERTEX_POINT('',#477);
#149=VERTEX_POINT('',#481);
#150=VERTEX_POINT('',#486);
#151=VERTEX_POINT('',#487);
#152=VERTEX_POINT('',#489);
#153=VERTEX_POINT('',#491);
#154=VERTEX_POINT('',#495);
#155=VERTEX_POINT('',#497);
#156=VERTEX_POINT('',#501);
#157=VERTEX_POINT('',#502);
#158=VERTEX_POINT('',#504);
#159=VERTEX_POINT('',#506);
#160=VERTEX_POINT('',#513);
#161=VERTEX_POINT('',#515);
#162=VERTEX_POINT('',#519);
#163=VERTEX_POINT('',#521);
#164=VERTEX_POINT('',#525);
#165=VERTEX_POINT('',#527);
#166=VERTEX_POINT('',#533);
#167=EDGE_CURVE('',#139,#140,#51,.T.);
#168=EDGE_CURVE('',#140,#141,#52,.T.);
#169=EDGE_CURVE('',#141,#142,#53,.T.);
#170=EDGE_CURVE('',#139,#142,#54,.T.);
#171=EDGE_CURVE('',#143,#141,#55,.T.);
#172=EDGE_CURVE('',#140,#144,#56,.T.);
#173=EDGE_CURVE('',#144,#143,#57,.T.);
#174=EDGE_CURVE('',#145,#143,#58,.T.);
#175=EDGE_CURVE('',#144,#146,#59,.T.);
#176=EDGE_CURVE('',#146,#145,#60,.T.);
#177=EDGE_CURVE('',#142,#145,#61,.T.);
#178=EDGE_CURVE('',#146,#139,#62,.T.);
#179=EDGE_CURVE('',#142,#147,#63,.T.);
#180=EDGE_CURVE('',#148,#147,#64,.T.);
#181=EDGE_CURVE('',#145,#148,#65,.T.);
#182=EDGE_CURVE('',#141,#149,#66,.T.);
#183=EDGE_CURVE('',#147,#149,#67,.T.);
#184=EDGE_CURVE('',#150,#151,#68,.T.);
#185=EDGE_CURVE('',#151,#152,#69,.T.);
#186=EDGE_CURVE('',#152,#153,#70,.F.);
#187=EDGE_CURVE('',#153,#150,#71,.T.);
#188=EDGE_CURVE('',#153,#154,#72,.T.);
#189=EDGE_CURVE('',#155,#154,#73,.T.);
#190=EDGE_CURVE('',#150,#155,#74,.T.);
#191=EDGE_CURVE('',#156,#157,#75,.T.);
#192=EDGE_CURVE('',#157,#158,#76,.T.);
#193=EDGE_CURVE('',#158,#159,#77,.F.);
#194=EDGE_CURVE('',#159,#156,#78,.T.);
#195=EDGE_CURVE('',#156,#151,#79,.T.);
#196=EDGE_CURVE('',#159,#152,#80,.T.);
#197=EDGE_CURVE('',#160,#155,#81,.T.);
#198=EDGE_CURVE('',#154,#161,#82,.F.);
#199=EDGE_CURVE('',#161,#160,#83,.T.);
#200=EDGE_CURVE('',#161,#162,#84,.T.);
#201=EDGE_CURVE('',#163,#162,#85,.T.);
#202=EDGE_CURVE('',#160,#163,#86,.T.);
#203=EDGE_CURVE('',#164,#163,#87,.T.);
#204=EDGE_CURVE('',#162,#165,#88,.F.);
#205=EDGE_CURVE('',#165,#164,#89,.T.);
#206=EDGE_CURVE('',#158,#148,#90,.T.);
#207=EDGE_CURVE('',#164,#157,#91,.T.);
#208=EDGE_CURVE('',#166,#165,#92,.T.);
#209=EDGE_CURVE('',#143,#166,#93,.T.);
#210=EDGE_CURVE('',#149,#166,#94,.T.);
#211=ORIENTED_EDGE('',*,*,#167,.T.);
#212=ORIENTED_EDGE('',*,*,#168,.T.);
#213=ORIENTED_EDGE('',*,*,#169,.T.);
#214=ORIENTED_EDGE('',*,*,#170,.F.);
#215=ORIENTED_EDGE('',*,*,#171,.T.);
#216=ORIENTED_EDGE('',*,*,#168,.F.);
#217=ORIENTED_EDGE('',*,*,#172,.T.);
#218=ORIENTED_EDGE('',*,*,#173,.T.);
#219=ORIENTED_EDGE('',*,*,#174,.T.);
#220=ORIENTED_EDGE('',*,*,#173,.F.);
#221=ORIENTED_EDGE('',*,*,#175,.T.);
#222=ORIENTED_EDGE('',*,*,#176,.T.);
#223=ORIENTED_EDGE('',*,*,#177,.T.);
#224=ORIENTED_EDGE('',*,*,#176,.F.);
#225=ORIENTED_EDGE('',*,*,#178,.T.);
#226=ORIENTED_EDGE('',*,*,#170,.T.);
#227=ORIENTED_EDGE('',*,*,#177,.F.);
#228=ORIENTED_EDGE('',*,*,#179,.T.);
#229=ORIENTED_EDGE('',*,*,#180,.F.);
#230=ORIENTED_EDGE('',*,*,#181,.F.);
#231=ORIENTED_EDGE('',*,*,#169,.F.);
#232=ORIENTED_EDGE('',*,*,#182,.T.);
#233=ORIENTED_EDGE('',*,*,#183,.F.);
#234=ORIENTED_EDGE('',*,*,#179,.F.);
#235=ORIENTED_EDGE('',*,*,#167,.F.);
#236=ORIENTED_EDGE('',*,*,#178,.F.);
#237=ORIENTED_EDGE('',*,*,#175,.F.);
#238=ORIENTED_EDGE('',*,*,#172,.F.);
#239=ORIENTED_EDGE('',*,*,#184,.T.);
#240=ORIENTED_EDGE('',*,*,#185,.T.);
#241=ORIENTED_EDGE('',*,*,#186,.T.);
#242=ORIENTED_EDGE('',*,*,#187,.T.);
#243=ORIENTED_EDGE('',*,*,#187,.F.);
#244=ORIENTED_EDGE('',*,*,#188,.T.);
#245=ORIENTED_EDGE('',*,*,#189,.F.);
#246=ORIENTED_EDGE('',*,*,#190,.F.);
#247=ORIENTED_EDGE('',*,*,#191,.T.);
#248=ORIENTED_EDGE('',*,*,#192,.T.);
#249=ORIENTED_EDGE('',*,*,#193,.T.);
#250=ORIENTED_EDGE('',*,*,#194,.T.);
#251=ORIENTED_EDGE('',*,*,#185,.F.);
#252=ORIENTED_EDGE('',*,*,#195,.F.);
#253=ORIENTED_EDGE('',*,*,#194,.F.);
#254=ORIENTED_EDGE('',*,*,#196,.T.);
#255=ORIENTED_EDGE('',*,*,#197,.T.);
#256=ORIENTED_EDGE('',*,*,#189,.T.);
#257=ORIENTED_EDGE('',*,*,#198,.T.);
#258=ORIENTED_EDGE('',*,*,#199,.T.);
#259=ORIENTED_EDGE('',*,*,#199,.F.);
#260=ORIENTED_EDGE('',*,*,#200,.T.);
#261=ORIENTED_EDGE('',*,*,#201,.F.);
#262=ORIENTED_EDGE('',*,*,#202,.F.);
#263=ORIENTED_EDGE('',*,*,#203,.T.);
#264=ORIENTED_EDGE('',*,*,#201,.T.);
#265=ORIENTED_EDGE('',*,*,#204,.T.);
#266=ORIENTED_EDGE('',*,*,#205,.T.);
#267=ORIENTED_EDGE('',*,*,#174,.F.);
#268=ORIENTED_EDGE('',*,*,#181,.T.);
#269=ORIENTED_EDGE('',*,*,#206,.F.);
#270=ORIENTED_EDGE('',*,*,#192,.F.);
#271=ORIENTED_EDGE('',*,*,#207,.F.);
#272=ORIENTED_EDGE('',*,*,#205,.F.);
#273=ORIENTED_EDGE('',*,*,#208,.F.);
#274=ORIENTED_EDGE('',*,*,#209,.F.);
#275=ORIENTED_EDGE('',*,*,#171,.F.);
#276=ORIENTED_EDGE('',*,*,#209,.T.);
#277=ORIENTED_EDGE('',*,*,#210,.F.);
#278=ORIENTED_EDGE('',*,*,#182,.F.);
#279=ORIENTED_EDGE('',*,*,#206,.T.);
#280=ORIENTED_EDGE('',*,*,#180,.T.);
#281=ORIENTED_EDGE('',*,*,#183,.T.);
#282=ORIENTED_EDGE('',*,*,#210,.T.);
#283=ORIENTED_EDGE('',*,*,#208,.T.);
#284=ORIENTED_EDGE('',*,*,#204,.F.);
#285=ORIENTED_EDGE('',*,*,#200,.F.);
#286=ORIENTED_EDGE('',*,*,#198,.F.);
#287=ORIENTED_EDGE('',*,*,#188,.F.);
#288=ORIENTED_EDGE('',*,*,#186,.F.);
#289=ORIENTED_EDGE('',*,*,#196,.F.);
#290=ORIENTED_EDGE('',*,*,#193,.F.);
#291=ORIENTED_EDGE('',*,*,#184,.F.);
#292=ORIENTED_EDGE('',*,*,#190,.T.);
#293=ORIENTED_EDGE('',*,*,#197,.F.);
#294=ORIENTED_EDGE('',*,*,#202,.T.);
#295=ORIENTED_EDGE('',*,*,#203,.F.);
#296=ORIENTED_EDGE('',*,*,#207,.T.);
#297=ORIENTED_EDGE('',*,*,#191,.F.);
#298=ORIENTED_EDGE('',*,*,#195,.T.);
#299=PLANE('',#349);
#300=PLANE('',#350);
#301=PLANE('',#351);
#302=PLANE('',#352);
#303=PLANE('',#353);
#304=PLANE('',#354);
#305=PLANE('',#355);
#306=PLANE('',#356);
#307=PLANE('',#357);
#308=PLANE('',#358);
#309=PLANE('',#359);
#310=PLANE('',#360);
#311=PLANE('',#361);
#312=PLANE('',#362);
#313=PLANE('',#363);
#314=PLANE('',#364);
#315=PLANE('',#365);
#316=PLANE('',#366);
#317=ADVANCED_FACE('',(#15),#299,.T.);
#318=ADVANCED_FACE('',(#16),#300,.T.);
#319=ADVANCED_FACE('',(#17),#301,.T.);
#320=ADVANCED_FACE('',(#18),#302,.T.);
#321=ADVANCED_FACE('',(#19),#303,.T.);
#322=ADVANCED_FACE('',(#20),#304,.T.);
#323=ADVANCED_FACE('',(#21),#305,.F.);
#324=ADVANCED_FACE('',(#22),#306,.T.);
#325=ADVANCED_FACE('',(#23),#307,.T.);
#326=ADVANCED_FACE('',(#24),#308,.T.);
#327=ADVANCED_FACE('',(#25),#309,.T.);
#328=ADVANCED_FACE('',(#26),#310,.T.);
#329=ADVANCED_FACE('',(#27),#311,.T.);
#330=ADVANCED_FACE('',(#28),#312,.T.);
#331=ADVANCED_FACE('',(#29),#313,.T.);
#332=ADVANCED_FACE('',(#30),#314,.T.);
#333=ADVANCED_FACE('',(#31),#315,.T.);
#334=ADVANCED_FACE('',(#32),#316,.T.);
#335=CLOSED_SHELL('',(#317,#318,#319,#320,#321,#322,#323,#324,#325,#326,
#327,#328,#329,#330,#331,#332,#333,#334));
#336=DERIVED_UNIT_ELEMENT(#338,1.);
#337=DERIVED_UNIT_ELEMENT(#545,-3.);
#338=(
MASS_UNIT()
NAMED_UNIT(*)
SI_UNIT(.KILO.,.GRAM.)
);
#339=DERIVED_UNIT((#336,#337));
#340=MEASURE_REPRESENTATION_ITEM('density measure',
POSITIVE_RATIO_MEASURE(7850.),#339);
#341=PROPERTY_DEFINITION_REPRESENTATION(#346,#343);
#342=PROPERTY_DEFINITION_REPRESENTATION(#347,#344);
#343=REPRESENTATION('material name',(#345),#542);
#344=REPRESENTATION('density',(#340),#542);
#345=DESCRIPTIVE_REPRESENTATION_ITEM('Stahl','Stahl');
#346=PROPERTY_DEFINITION('material property','material name',#552);
#347=PROPERTY_DEFINITION('material property','density of part',#552);
#348=AXIS2_PLACEMENT_3D('',#449,#367,#368);
#349=AXIS2_PLACEMENT_3D('',#450,#369,#370);
#350=AXIS2_PLACEMENT_3D('',#459,#375,#376);
#351=AXIS2_PLACEMENT_3D('',#465,#380,#381);
#352=AXIS2_PLACEMENT_3D('',#471,#385,#386);
#353=AXIS2_PLACEMENT_3D('',#474,#389,#390);
#354=AXIS2_PLACEMENT_3D('',#480,#394,#395);
#355=AXIS2_PLACEMENT_3D('',#484,#398,#399);
#356=AXIS2_PLACEMENT_3D('',#485,#400,#401);
#357=AXIS2_PLACEMENT_3D('',#494,#406,#407);
#358=AXIS2_PLACEMENT_3D('',#500,#411,#412);
#359=AXIS2_PLACEMENT_3D('',#509,#417,#418);
#360=AXIS2_PLACEMENT_3D('',#512,#421,#422);
#361=AXIS2_PLACEMENT_3D('',#518,#426,#427);
#362=AXIS2_PLACEMENT_3D('',#524,#431,#432);
#363=AXIS2_PLACEMENT_3D('',#530,#436,#437);
#364=AXIS2_PLACEMENT_3D('',#536,#442,#443);
#365=AXIS2_PLACEMENT_3D('',#538,#445,#446);
#366=AXIS2_PLACEMENT_3D('',#539,#447,#448);
#367=DIRECTION('axis',(0.,0.,1.));
#368=DIRECTION('refdir',(1.,0.,0.));
#369=DIRECTION('center_axis',(6.5420519111824E-17,0.707106781186548,-0.707106781186547));
#370=DIRECTION('ref_axis',(-1.,0.,-9.25185853854298E-17));
#371=DIRECTION('',(-1.,9.25185853854297E-17,0.));
#372=DIRECTION('',(-0.577350269189626,0.577350269189626,0.577350269189626));
#373=DIRECTION('',(1.,-9.25185853854297E-17,0.));
#374=DIRECTION('',(0.577350269189626,0.577350269189626,0.577350269189626));
#375=DIRECTION('center_axis',(-0.707106781186548,-2.20794252002406E-16,
-0.707106781186547));
#376=DIRECTION('ref_axis',(-0.707106781186547,0.,0.707106781186548));
#377=DIRECTION('',(-3.12250225675825E-16,1.,0.));
#378=DIRECTION('',(3.12250225675825E-16,-1.,0.));
#379=DIRECTION('',(-0.577350269189626,-0.577350269189626,0.577350269189626));
#380=DIRECTION('center_axis',(0.,-0.707106781186548,-0.707106781186547));
#381=DIRECTION('ref_axis',(-1.,0.,0.));
#382=DIRECTION('',(-1.,0.,0.));
#383=DIRECTION('',(1.,0.,0.));
#384=DIRECTION('',(0.577350269189626,-0.577350269189626,0.577350269189626));
#385=DIRECTION('center_axis',(0.707106781186548,2.94392336003208E-16,-0.707106781186547));
#386=DIRECTION('ref_axis',(-0.707106781186547,0.,-0.707106781186548));
#387=DIRECTION('',(4.16333634234434E-16,-1.,0.));
#388=DIRECTION('',(-4.16333634234434E-16,1.,0.));
#389=DIRECTION('center_axis',(1.,4.16333634234434E-16,0.));
#390=DIRECTION('ref_axis',(-4.16333634234434E-16,1.,0.));
#391=DIRECTION('',(0.,0.,1.));
#392=DIRECTION('',(-4.16333634234434E-16,1.,0.));
#393=DIRECTION('',(0.,0.,1.));
#394=DIRECTION('center_axis',(9.25185853854297E-17,1.,0.));
#395=DIRECTION('ref_axis',(-1.,9.25185853854297E-17,0.));
#396=DIRECTION('',(0.,0.,1.));
#397=DIRECTION('',(-1.,9.25185853854297E-17,0.));
#398=DIRECTION('center_axis',(0.,0.,1.));
#399=DIRECTION('ref_axis',(1.,0.,0.));
#400=DIRECTION('center_axis',(0.707106781186547,0.707106781186548,0.));
#401=DIRECTION('ref_axis',(0.,0.,-1.));
#402=DIRECTION('',(0.707106781186548,-0.707106781186547,0.));
#403=DIRECTION('',(0.,0.,-1.));
#404=DIRECTION('',(0.707106781186548,-0.707106781186547,0.));
#405=DIRECTION('',(0.,0.,1.));
#406=DIRECTION('center_axis',(-1.38777878078145E-16,1.,0.));
#407=DIRECTION('ref_axis',(-1.,-1.38777878078145E-16,0.));
#408=DIRECTION('',(-1.,-1.38777878078145E-16,0.));
#409=DIRECTION('',(0.,0.,-1.));
#410=DIRECTION('',(-1.,-1.38777878078145E-16,0.));
#411=DIRECTION('center_axis',(0.707106781186548,-0.707106781186547,0.));
#412=DIRECTION('ref_axis',(0.,0.,-1.));
#413=DIRECTION('',(-0.707106781186547,-0.707106781186548,0.));
#414=DIRECTION('',(0.,0.,-1.));
#415=DIRECTION('',(-0.707106781186547,-0.707106781186548,0.));
#416=DIRECTION('',(0.,0.,1.));
#417=DIRECTION('center_axis',(1.,0.,0.));
#418=DIRECTION('ref_axis',(0.,1.,0.));
#419=DIRECTION('',(0.,1.,0.));
#420=DIRECTION('',(0.,1.,0.));
#421=DIRECTION('center_axis',(-0.707106781186547,0.707106781186548,0.));
#422=DIRECTION('ref_axis',(0.,0.,1.));
#423=DIRECTION('',(0.707106781186548,0.707106781186547,0.));
#424=DIRECTION('',(0.707106781186548,0.707106781186547,0.));
#425=DIRECTION('',(0.,0.,1.));
#426=DIRECTION('center_axis',(-1.,-7.03424704934239E-16,0.));
#427=DIRECTION('ref_axis',(7.03424704934239E-16,-1.,0.));
#428=DIRECTION('',(7.03424704934239E-16,-1.,0.));
#429=DIRECTION('',(0.,0.,-1.));
#430=DIRECTION('',(7.03424704934239E-16,-1.,0.));
#431=DIRECTION('center_axis',(-0.707106781186547,-0.707106781186548,0.));
#432=DIRECTION('ref_axis',(0.,0.,1.));
#433=DIRECTION('',(-0.707106781186548,0.707106781186547,0.));
#434=DIRECTION('',(-0.707106781186548,0.707106781186547,0.));
#435=DIRECTION('',(0.,0.,1.));
#436=DIRECTION('center_axis',(0.,-1.,0.));
#437=DIRECTION('ref_axis',(1.,0.,0.));
#438=DIRECTION('',(1.,0.,0.));
#439=DIRECTION('',(1.,0.,0.));
#440=DIRECTION('',(1.,0.,0.));
#441=DIRECTION('',(0.,0.,1.));
#442=DIRECTION('center_axis',(-1.,-3.12250225675825E-16,0.));
#443=DIRECTION('ref_axis',(3.12250225675825E-16,-1.,0.));
#444=DIRECTION('',(3.12250225675825E-16,-1.,0.));
#445=DIRECTION('center_axis',(0.,0.,1.));
#446=DIRECTION('ref_axis',(1.,0.,0.));
#447=DIRECTION('center_axis',(0.,0.,1.));
#448=DIRECTION('ref_axis',(1.,0.,0.));
#449=CARTESIAN_POINT('',(0.,0.,0.));
#450=CARTESIAN_POINT('Origin',(3.5,3.5,0.5));
#451=CARTESIAN_POINT('',(4.,3.,0.));
#452=CARTESIAN_POINT('',(-1.88217497143484E-15,3.,0.));
#453=CARTESIAN_POINT('',(3.5,3.,0.));
#454=CARTESIAN_POINT('',(-1.,4.,1.));
#455=CARTESIAN_POINT('',(-1.88217497143484E-15,3.,0.));
#456=CARTESIAN_POINT('',(5.,4.,1.));
#457=CARTESIAN_POINT('',(3.5,4.,1.));
#458=CARTESIAN_POINT('',(4.,3.,0.));
#459=CARTESIAN_POINT('Origin',(-0.500000000000002,2.75,0.5));
#460=CARTESIAN_POINT('',(-1.,0.,1.));
#461=CARTESIAN_POINT('',(-1.,2.75,1.));
#462=CARTESIAN_POINT('',(-1.2490009027033E-15,1.,0.));
#463=CARTESIAN_POINT('',(-1.80411241501588E-15,2.75,0.));
#464=CARTESIAN_POINT('',(-1.2490009027033E-15,1.,0.));
#465=CARTESIAN_POINT('Origin',(0.999999999999999,0.5,0.5));
#466=CARTESIAN_POINT('',(5.,0.,1.));
#467=CARTESIAN_POINT('',(0.999999999999999,0.,1.));
#468=CARTESIAN_POINT('',(4.,1.,0.));
#469=CARTESIAN_POINT('',(0.999999999999999,1.,0.));
#470=CARTESIAN_POINT('',(4.,1.,0.));
#471=CARTESIAN_POINT('Origin',(4.5,0.750000000000001,0.5));
#472=CARTESIAN_POINT('',(5.,0.750000000000001,1.));
#473=CARTESIAN_POINT('',(4.,0.75,0.));
#474=CARTESIAN_POINT('Origin',(5.,0.,0.));
#475=CARTESIAN_POINT('',(5.,4.,2.4));
#476=CARTESIAN_POINT('',(5.,4.,0.));
#477=CARTESIAN_POINT('',(5.,0.,2.4));
#478=CARTESIAN_POINT('',(5.,0.,2.4));
#479=CARTESIAN_POINT('',(5.,0.,0.));
#480=CARTESIAN_POINT('Origin',(5.,4.,0.));
#481=CARTESIAN_POINT('',(-1.,4.,2.4));
#482=CARTESIAN_POINT('',(-1.,4.,0.));
#483=CARTESIAN_POINT('',(5.,4.,2.4));
#484=CARTESIAN_POINT('Origin',(2.,1.5,0.));
#485=CARTESIAN_POINT('Origin',(3.75,2.75,0.));
#486=CARTESIAN_POINT('',(3.5,3.,37.5));
#487=CARTESIAN_POINT('',(4.,2.5,37.5));
#488=CARTESIAN_POINT('',(3.625,2.875,37.5));
#489=CARTESIAN_POINT('',(4.,2.5,2.4));
#490=CARTESIAN_POINT('',(4.,2.5,0.));
#491=CARTESIAN_POINT('',(3.5,3.,2.4));
#492=CARTESIAN_POINT('',(3.5,3.,2.4));
#493=CARTESIAN_POINT('',(3.5,3.,0.));
#494=CARTESIAN_POINT('Origin',(4.,3.,0.));
#495=CARTESIAN_POINT('',(0.499999999999998,3.,2.4));
#496=CARTESIAN_POINT('',(3.,3.,2.4));
#497=CARTESIAN_POINT('',(0.499999999999998,3.,37.5));
#498=CARTESIAN_POINT('',(0.499999999999998,3.,0.));
#499=CARTESIAN_POINT('',(4.,3.,37.5));
#500=CARTESIAN_POINT('Origin',(3.75,0.25,0.));
#501=CARTESIAN_POINT('',(4.,0.5,37.5));
#502=CARTESIAN_POINT('',(3.5,0.,37.5));
#503=CARTESIAN_POINT('',(3.625,0.125,37.5));
#504=CARTESIAN_POINT('',(3.5,0.,2.4));
#505=CARTESIAN_POINT('',(3.5,0.,0.));
#506=CARTESIAN_POINT('',(4.,0.5,2.4));
#507=CARTESIAN_POINT('',(3.75,0.25,2.4));
#508=CARTESIAN_POINT('',(4.,0.5,0.));
#509=CARTESIAN_POINT('Origin',(4.,0.,0.));
#510=CARTESIAN_POINT('',(4.,0.,37.5));
#511=CARTESIAN_POINT('',(4.,1.,2.4));
#512=CARTESIAN_POINT('Origin',(0.249999999999998,2.75,0.));
#513=CARTESIAN_POINT('',(-1.7585617623356E-15,2.5,37.5));
#514=CARTESIAN_POINT('',(0.374999999999998,2.875,37.5));
#515=CARTESIAN_POINT('',(-1.66533453693774E-15,2.5,2.4));
#516=CARTESIAN_POINT('',(0.499999999999998,3.,2.4));
#517=CARTESIAN_POINT('',(-1.73472347597681E-15,2.5,0.));
#518=CARTESIAN_POINT('Origin',(-2.11027411480272E-15,3.,0.));
#519=CARTESIAN_POINT('',(-2.58485127069257E-16,0.5,2.4));
#520=CARTESIAN_POINT('',(-1.66533453693773E-15,2.5,2.4));
#521=CARTESIAN_POINT('',(-3.5171235246712E-16,0.5,37.5));
#522=CARTESIAN_POINT('',(-3.46944695195361E-16,0.5,0.));
#523=CARTESIAN_POINT('',(-2.11027411480272E-15,3.,37.5));
#524=CARTESIAN_POINT('Origin',(0.25,0.25,0.));
#525=CARTESIAN_POINT('',(0.5,0.,37.5));
#526=CARTESIAN_POINT('',(0.375,0.125,37.5));
#527=CARTESIAN_POINT('',(0.5,0.,2.4));
#528=CARTESIAN_POINT('',(0.25,0.25,2.4));
#529=CARTESIAN_POINT('',(0.5,0.,0.));
#530=CARTESIAN_POINT('Origin',(0.,0.,0.));
#531=CARTESIAN_POINT('',(-1.,0.,2.4));
#532=CARTESIAN_POINT('',(-1.,0.,37.5));
#533=CARTESIAN_POINT('',(-1.,0.,2.4));
#534=CARTESIAN_POINT('',(-1.,0.,2.4));
#535=CARTESIAN_POINT('',(-1.,0.,0.));
#536=CARTESIAN_POINT('Origin',(-1.,4.,0.));
#537=CARTESIAN_POINT('',(-1.,4.,2.4));
#538=CARTESIAN_POINT('Origin',(2.,2.,2.4));
#539=CARTESIAN_POINT('Origin',(2.,1.5,37.5));
#540=UNCERTAINTY_MEASURE_WITH_UNIT(LENGTH_MEASURE(0.01),#544,
'DISTANCE_ACCURACY_VALUE',
'Maximum model space distance between geometric entities at asserted c
onnectivities');
#541=UNCERTAINTY_MEASURE_WITH_UNIT(LENGTH_MEASURE(0.01),#544,
'DISTANCE_ACCURACY_VALUE',
'Maximum model space distance between geometric entities at asserted c
onnectivities');
#542=(
GEOMETRIC_REPRESENTATION_CONTEXT(3)
GLOBAL_UNCERTAINTY_ASSIGNED_CONTEXT((#540))
GLOBAL_UNIT_ASSIGNED_CONTEXT((#544,#546,#547))
REPRESENTATION_CONTEXT('','3D')
);
#543=(
GEOMETRIC_REPRESENTATION_CONTEXT(3)
GLOBAL_UNCERTAINTY_ASSIGNED_CONTEXT((#541))
GLOBAL_UNIT_ASSIGNED_CONTEXT((#544,#546,#547))
REPRESENTATION_CONTEXT('','3D')
);
#544=(
LENGTH_UNIT()
NAMED_UNIT(*)
SI_UNIT(.MILLI.,.METRE.)
);
#545=(
LENGTH_UNIT()
NAMED_UNIT(*)
SI_UNIT($,.METRE.)
);
#546=(
NAMED_UNIT(*)
PLANE_ANGLE_UNIT()
SI_UNIT($,.RADIAN.)
);
#547=(
NAMED_UNIT(*)
SI_UNIT($,.STERADIAN.)
SOLID_ANGLE_UNIT()
);
#548=SHAPE_DEFINITION_REPRESENTATION(#549,#550);
#549=PRODUCT_DEFINITION_SHAPE('',$,#552);
#550=SHAPE_REPRESENTATION('',(#348),#542);
#551=PRODUCT_DEFINITION_CONTEXT('part definition',#556,'design');
#552=PRODUCT_DEFINITION('Sicherungsbolzen','Sicherungsbolzen v3',#553,#551);
#553=PRODUCT_DEFINITION_FORMATION('',$,#558);
#554=PRODUCT_RELATED_PRODUCT_CATEGORY('Sicherungsbolzen v3',
'Sicherungsbolzen v3',(#558));
#555=APPLICATION_PROTOCOL_DEFINITION('international standard',
'automotive_design',2009,#556);
#556=APPLICATION_CONTEXT(
'Core Data for Automotive Mechanical Design Process');
#557=PRODUCT_CONTEXT('part definition',#556,'mechanical');
#558=PRODUCT('Sicherungsbolzen','Sicherungsbolzen v3',$,(#557));
#559=PRESENTATION_STYLE_ASSIGNMENT((#560));
#560=SURFACE_STYLE_USAGE(.BOTH.,#561);
#561=SURFACE_SIDE_STYLE('',(#562));
#562=SURFACE_STYLE_FILL_AREA(#563);
#563=FILL_AREA_STYLE('Stahl - satiniert',(#564));
#564=FILL_AREA_STYLE_COLOUR('Stahl - satiniert',#565);
#565=COLOUR_RGB('Stahl - satiniert',0.627450980392157,0.627450980392157,
0.627450980392157);
ENDSEC;
END-ISO-10303-21;
