ISO-10303-21;
HEADER;
/* Generated by software containing ST-Developer
 * from STEP Tools, Inc. (www.steptools.com) 
 */

FILE_DESCRIPTION(
/* description */ (''),
/* implementation_level */ '2;1');

FILE_NAME(
/* name */ 'Strommesszangenhalter_Abdeckung.step',
/* time_stamp */ '2026-06-28T16:55:22+02:00',
/* author */ (''),
/* organization */ (''),
/* preprocessor_version */ 'ST-DEVELOPER v20.1',
/* originating_system */ 'Autodesk Translation Framework v15.8.0.0',
/* authorisation */ '');

FILE_SCHEMA (('AUTOMOTIVE_DESIGN { 1 0 10303 214 3 1 1 }'));
ENDSEC;

DATA;
#10=MECHANICAL_DESIGN_GEOMETRIC_PRESENTATION_REPRESENTATION('',(#13),#873);
#11=SHAPE_REPRESENTATION_RELATIONSHIP('SRR','None',#880,#12);
#12=ADVANCED_BREP_SHAPE_REPRESENTATION('',(#14),#872);
#13=STYLED_ITEM('',(#889),#14);
#14=MANIFOLD_SOLID_BREP('K\X\F6rper1',#453);
#15=B_SPLINE_CURVE_WITH_KNOTS('',3,(#766,#767,#768,#769,#770,#771,#772,
#773,#774,#775,#776,#777,#778,#779),.UNSPECIFIED.,.F.,.F.,(4,2,2,2,2,2,
4),(-0.268073568423386,-0.267422715235389,-0.178562936275319,-0.110724604801429,
-0.0583289552190358,-0.0151424072538674,0.),.UNSPECIFIED.);
#16=B_SPLINE_CURVE_WITH_KNOTS('',3,(#785,#786,#787,#788,#789,#790,#791,
#792,#793,#794,#795,#796,#797,#798),.UNSPECIFIED.,.F.,.F.,(4,2,2,2,2,2,
4),(-0.000819915705208426,0.,0.0711664887601827,0.137490678893493,0.201857134130677,
0.250271656403741,0.292799281093552),.UNSPECIFIED.);
#17=B_SPLINE_CURVE_WITH_KNOTS('',3,(#804,#805,#806,#807,#808,#809,#810,
#811,#812,#813,#814,#815,#816,#817),.UNSPECIFIED.,.F.,.F.,(4,2,2,2,2,2,
4),(-0.268073568444429,-0.267422715259234,-0.178562936278799,-0.110724604803468,
-0.0583289552200188,-0.0151424072539705,0.),.UNSPECIFIED.);
#18=B_SPLINE_CURVE_WITH_KNOTS('',3,(#829,#830,#831,#832,#833,#834,#835,
#836,#837,#838,#839,#840,#841,#842),.UNSPECIFIED.,.F.,.F.,(4,2,2,2,2,2,
4),(-0.000819915705138471,0.,0.0711664887575399,0.137490678887997,0.20185713412241,
0.250271656393385,0.292799281081299),.UNSPECIFIED.);
#19=FACE_BOUND('',#70,.T.);
#20=FACE_BOUND('',#71,.T.);
#21=FACE_BOUND('',#72,.T.);
#22=FACE_BOUND('',#88,.T.);
#23=FACE_BOUND('',#89,.T.);
#24=FACE_BOUND('',#90,.T.);
#25=PLANE('',#491);
#26=PLANE('',#530);
#27=TOROIDAL_SURFACE('',#470,6.50000000000002,1.5);
#28=TOROIDAL_SURFACE('',#476,6.50000000000002,1.5);
#29=TOROIDAL_SURFACE('',#482,6.50000000000002,1.5);
#30=TOROIDAL_SURFACE('',#488,6.50000000000002,1.5);
#31=TOROIDAL_SURFACE('',#500,13.5,1.5);
#32=TOROIDAL_SURFACE('',#505,13.5,1.5);
#33=TOROIDAL_SURFACE('',#510,13.5,1.5);
#34=TOROIDAL_SURFACE('',#514,3.5,1.5);
#35=TOROIDAL_SURFACE('',#518,3.5,1.5);
#36=TOROIDAL_SURFACE('',#524,13.5,1.5);
#37=FACE_OUTER_BOUND('',#61,.T.);
#38=FACE_OUTER_BOUND('',#62,.T.);
#39=FACE_OUTER_BOUND('',#63,.T.);
#40=FACE_OUTER_BOUND('',#64,.T.);
#41=FACE_OUTER_BOUND('',#65,.T.);
#42=FACE_OUTER_BOUND('',#66,.T.);
#43=FACE_OUTER_BOUND('',#67,.T.);
#44=FACE_OUTER_BOUND('',#68,.T.);
#45=FACE_OUTER_BOUND('',#69,.T.);
#46=FACE_OUTER_BOUND('',#73,.T.);
#47=FACE_OUTER_BOUND('',#74,.T.);
#48=FACE_OUTER_BOUND('',#75,.T.);
#49=FACE_OUTER_BOUND('',#76,.T.);
#50=FACE_OUTER_BOUND('',#77,.T.);
#51=FACE_OUTER_BOUND('',#78,.T.);
#52=FACE_OUTER_BOUND('',#79,.T.);
#53=FACE_OUTER_BOUND('',#80,.T.);
#54=FACE_OUTER_BOUND('',#81,.T.);
#55=FACE_OUTER_BOUND('',#82,.T.);
#56=FACE_OUTER_BOUND('',#83,.T.);
#57=FACE_OUTER_BOUND('',#84,.T.);
#58=FACE_OUTER_BOUND('',#85,.T.);
#59=FACE_OUTER_BOUND('',#86,.T.);
#60=FACE_OUTER_BOUND('',#87,.T.);
#61=EDGE_LOOP('',(#285,#286,#287,#288));
#62=EDGE_LOOP('',(#289,#290,#291,#292));
#63=EDGE_LOOP('',(#293,#294,#295,#296));
#64=EDGE_LOOP('',(#297,#298,#299,#300));
#65=EDGE_LOOP('',(#301,#302,#303,#304));
#66=EDGE_LOOP('',(#305,#306,#307,#308));
#67=EDGE_LOOP('',(#309,#310,#311,#312));
#68=EDGE_LOOP('',(#313,#314,#315,#316));
#69=EDGE_LOOP('',(#317,#318,#319,#320,#321,#322,#323,#324,#325,#326,#327,
#328));
#70=EDGE_LOOP('',(#329));
#71=EDGE_LOOP('',(#330));
#72=EDGE_LOOP('',(#331,#332,#333,#334,#335,#336,#337,#338));
#73=EDGE_LOOP('',(#339,#340,#341,#342));
#74=EDGE_LOOP('',(#343,#344,#345,#346));
#75=EDGE_LOOP('',(#347,#348,#349,#350));
#76=EDGE_LOOP('',(#351,#352,#353,#354));
#77=EDGE_LOOP('',(#355,#356,#357,#358));
#78=EDGE_LOOP('',(#359,#360,#361,#362));
#79=EDGE_LOOP('',(#363,#364,#365,#366));
#80=EDGE_LOOP('',(#367,#368,#369,#370));
#81=EDGE_LOOP('',(#371,#372,#373,#374));
#82=EDGE_LOOP('',(#375,#376,#377,#378));
#83=EDGE_LOOP('',(#379,#380,#381,#382));
#84=EDGE_LOOP('',(#383,#384,#385,#386));
#85=EDGE_LOOP('',(#387,#388,#389,#390));
#86=EDGE_LOOP('',(#391,#392,#393,#394));
#87=EDGE_LOOP('',(#395,#396,#397,#398,#399,#400,#401,#402,#403,#404,#405,
#406));
#88=EDGE_LOOP('',(#407));
#89=EDGE_LOOP('',(#408));
#90=EDGE_LOOP('',(#409,#410,#411,#412,#413,#414,#415,#416));
#91=LINE('',#689,#113);
#92=LINE('',#692,#114);
#93=LINE('',#701,#115);
#94=LINE('',#704,#116);
#95=LINE('',#713,#117);
#96=LINE('',#716,#118);
#97=LINE('',#725,#119);
#98=LINE('',#728,#120);
#99=LINE('',#735,#121);
#100=LINE('',#739,#122);
#101=LINE('',#743,#123);
#102=LINE('',#747,#124);
#103=LINE('',#751,#125);
#104=LINE('',#755,#126);
#105=LINE('',#783,#127);
#106=LINE('',#820,#128);
#107=LINE('',#827,#129);
#108=LINE('',#848,#130);
#109=LINE('',#854,#131);
#110=LINE('',#857,#132);
#111=LINE('',#863,#133);
#112=LINE('',#867,#134);
#113=VECTOR('',#537,10.);
#114=VECTOR('',#540,10.);
#115=VECTOR('',#551,10.);
#116=VECTOR('',#554,10.);
#117=VECTOR('',#565,10.);
#118=VECTOR('',#568,10.);
#119=VECTOR('',#579,10.);
#120=VECTOR('',#582,10.);
#121=VECTOR('',#591,10.);
#122=VECTOR('',#594,10.);
#123=VECTOR('',#597,10.);
#124=VECTOR('',#600,10.);
#125=VECTOR('',#603,10.);
#126=VECTOR('',#606,10.);
#127=VECTOR('',#621,10.);
#128=VECTOR('',#632,10.);
#129=VECTOR('',#641,10.);
#130=VECTOR('',#652,10.);
#131=VECTOR('',#661,10.);
#132=VECTOR('',#664,10.);
#133=VECTOR('',#673,2.);
#134=VECTOR('',#678,2.);
#135=CIRCLE('',#468,1.5);
#136=CIRCLE('',#469,1.5);
#137=CIRCLE('',#471,5.00000000000002);
#138=CIRCLE('',#472,1.5);
#139=CIRCLE('',#473,6.50000000000002);
#140=CIRCLE('',#475,1.5);
#141=CIRCLE('',#477,5.00000000000002);
#142=CIRCLE('',#478,1.5);
#143=CIRCLE('',#479,6.50000000000002);
#144=CIRCLE('',#481,1.5);
#145=CIRCLE('',#483,5.00000000000002);
#146=CIRCLE('',#484,1.5);
#147=CIRCLE('',#485,6.50000000000002);
#148=CIRCLE('',#487,1.5);
#149=CIRCLE('',#489,5.00000000000002);
#150=CIRCLE('',#490,6.50000000000002);
#151=CIRCLE('',#492,3.5);
#152=CIRCLE('',#493,13.5);
#153=CIRCLE('',#494,13.5);
#154=CIRCLE('',#495,3.5);
#155=CIRCLE('',#496,13.5);
#156=CIRCLE('',#497,13.5);
#157=CIRCLE('',#498,2.);
#158=CIRCLE('',#499,2.);
#159=CIRCLE('',#501,15.);
#160=CIRCLE('',#502,1.50000000000004);
#161=CIRCLE('',#504,1.5);
#162=CIRCLE('',#506,15.);
#163=CIRCLE('',#507,1.50000000000005);
#164=CIRCLE('',#509,1.5);
#165=CIRCLE('',#511,15.);
#166=CIRCLE('',#513,1.5);
#167=CIRCLE('',#515,5.);
#168=CIRCLE('',#516,1.49999999999978);
#169=CIRCLE('',#519,5.);
#170=CIRCLE('',#520,1.5);
#171=CIRCLE('',#523,1.5);
#172=CIRCLE('',#525,15.);
#173=CIRCLE('',#527,2.);
#174=CIRCLE('',#529,2.);
#175=VERTEX_POINT('',#685);
#176=VERTEX_POINT('',#686);
#177=VERTEX_POINT('',#688);
#178=VERTEX_POINT('',#690);
#179=VERTEX_POINT('',#694);
#180=VERTEX_POINT('',#696);
#181=VERTEX_POINT('',#700);
#182=VERTEX_POINT('',#702);
#183=VERTEX_POINT('',#706);
#184=VERTEX_POINT('',#708);
#185=VERTEX_POINT('',#712);
#186=VERTEX_POINT('',#714);
#187=VERTEX_POINT('',#718);
#188=VERTEX_POINT('',#720);
#189=VERTEX_POINT('',#724);
#190=VERTEX_POINT('',#726);
#191=VERTEX_POINT('',#733);
#192=VERTEX_POINT('',#734);
#193=VERTEX_POINT('',#736);
#194=VERTEX_POINT('',#738);
#195=VERTEX_POINT('',#740);
#196=VERTEX_POINT('',#742);
#197=VERTEX_POINT('',#744);
#198=VERTEX_POINT('',#746);
#199=VERTEX_POINT('',#748);
#200=VERTEX_POINT('',#750);
#201=VERTEX_POINT('',#752);
#202=VERTEX_POINT('',#754);
#203=VERTEX_POINT('',#757);
#204=VERTEX_POINT('',#759);
#205=VERTEX_POINT('',#762);
#206=VERTEX_POINT('',#763);
#207=VERTEX_POINT('',#781);
#208=VERTEX_POINT('',#782);
#209=VERTEX_POINT('',#800);
#210=VERTEX_POINT('',#801);
#211=VERTEX_POINT('',#819);
#212=VERTEX_POINT('',#825);
#213=VERTEX_POINT('',#826);
#214=VERTEX_POINT('',#844);
#215=VERTEX_POINT('',#850);
#216=VERTEX_POINT('',#856);
#217=VERTEX_POINT('',#862);
#218=VERTEX_POINT('',#866);
#219=EDGE_CURVE('',#175,#176,#135,.T.);
#220=EDGE_CURVE('',#176,#177,#91,.T.);
#221=EDGE_CURVE('',#177,#178,#136,.T.);
#222=EDGE_CURVE('',#178,#175,#92,.T.);
#223=EDGE_CURVE('',#177,#179,#137,.T.);
#224=EDGE_CURVE('',#179,#180,#138,.T.);
#225=EDGE_CURVE('',#180,#178,#139,.T.);
#226=EDGE_CURVE('',#179,#181,#93,.T.);
#227=EDGE_CURVE('',#181,#182,#140,.T.);
#228=EDGE_CURVE('',#182,#180,#94,.T.);
#229=EDGE_CURVE('',#181,#183,#141,.T.);
#230=EDGE_CURVE('',#183,#184,#142,.T.);
#231=EDGE_CURVE('',#184,#182,#143,.T.);
#232=EDGE_CURVE('',#183,#185,#95,.T.);
#233=EDGE_CURVE('',#185,#186,#144,.T.);
#234=EDGE_CURVE('',#186,#184,#96,.T.);
#235=EDGE_CURVE('',#185,#187,#145,.T.);
#236=EDGE_CURVE('',#187,#188,#146,.T.);
#237=EDGE_CURVE('',#188,#186,#147,.T.);
#238=EDGE_CURVE('',#187,#189,#97,.T.);
#239=EDGE_CURVE('',#189,#190,#148,.T.);
#240=EDGE_CURVE('',#190,#188,#98,.T.);
#241=EDGE_CURVE('',#189,#176,#149,.T.);
#242=EDGE_CURVE('',#175,#190,#150,.T.);
#243=EDGE_CURVE('',#191,#192,#99,.T.);
#244=EDGE_CURVE('',#193,#191,#151,.T.);
#245=EDGE_CURVE('',#194,#193,#100,.T.);
#246=EDGE_CURVE('',#195,#194,#152,.T.);
#247=EDGE_CURVE('',#196,#195,#101,.T.);
#248=EDGE_CURVE('',#197,#196,#153,.T.);
#249=EDGE_CURVE('',#198,#197,#102,.T.);
#250=EDGE_CURVE('',#199,#198,#154,.T.);
#251=EDGE_CURVE('',#200,#199,#103,.T.);
#252=EDGE_CURVE('',#201,#200,#155,.T.);
#253=EDGE_CURVE('',#202,#201,#104,.T.);
#254=EDGE_CURVE('',#192,#202,#156,.T.);
#255=EDGE_CURVE('',#203,#203,#157,.T.);
#256=EDGE_CURVE('',#204,#204,#158,.T.);
#257=EDGE_CURVE('',#205,#206,#159,.T.);
#258=EDGE_CURVE('',#206,#201,#160,.T.);
#259=EDGE_CURVE('',#200,#205,#15,.T.);
#260=EDGE_CURVE('',#207,#208,#105,.T.);
#261=EDGE_CURVE('',#208,#198,#161,.T.);
#262=EDGE_CURVE('',#197,#207,#16,.T.);
#263=EDGE_CURVE('',#209,#210,#162,.T.);
#264=EDGE_CURVE('',#210,#195,#163,.T.);
#265=EDGE_CURVE('',#194,#209,#17,.T.);
#266=EDGE_CURVE('',#210,#211,#106,.T.);
#267=EDGE_CURVE('',#211,#196,#164,.T.);
#268=EDGE_CURVE('',#211,#207,#165,.T.);
#269=EDGE_CURVE('',#212,#213,#107,.T.);
#270=EDGE_CURVE('',#213,#191,#166,.T.);
#271=EDGE_CURVE('',#192,#212,#18,.T.);
#272=EDGE_CURVE('',#213,#214,#167,.T.);
#273=EDGE_CURVE('',#214,#193,#168,.T.);
#274=EDGE_CURVE('',#209,#214,#108,.T.);
#275=EDGE_CURVE('',#208,#215,#169,.T.);
#276=EDGE_CURVE('',#215,#199,#170,.T.);
#277=EDGE_CURVE('',#205,#215,#109,.T.);
#278=EDGE_CURVE('',#206,#216,#110,.T.);
#279=EDGE_CURVE('',#216,#202,#171,.T.);
#280=EDGE_CURVE('',#216,#212,#172,.T.);
#281=EDGE_CURVE('',#204,#217,#111,.T.);
#282=EDGE_CURVE('',#217,#217,#173,.T.);
#283=EDGE_CURVE('',#203,#218,#112,.T.);
#284=EDGE_CURVE('',#218,#218,#174,.T.);
#285=ORIENTED_EDGE('',*,*,#219,.T.);
#286=ORIENTED_EDGE('',*,*,#220,.T.);
#287=ORIENTED_EDGE('',*,*,#221,.T.);
#288=ORIENTED_EDGE('',*,*,#222,.T.);
#289=ORIENTED_EDGE('',*,*,#221,.F.);
#290=ORIENTED_EDGE('',*,*,#223,.T.);
#291=ORIENTED_EDGE('',*,*,#224,.T.);
#292=ORIENTED_EDGE('',*,*,#225,.T.);
#293=ORIENTED_EDGE('',*,*,#224,.F.);
#294=ORIENTED_EDGE('',*,*,#226,.T.);
#295=ORIENTED_EDGE('',*,*,#227,.T.);
#296=ORIENTED_EDGE('',*,*,#228,.T.);
#297=ORIENTED_EDGE('',*,*,#227,.F.);
#298=ORIENTED_EDGE('',*,*,#229,.T.);
#299=ORIENTED_EDGE('',*,*,#230,.T.);
#300=ORIENTED_EDGE('',*,*,#231,.T.);
#301=ORIENTED_EDGE('',*,*,#230,.F.);
#302=ORIENTED_EDGE('',*,*,#232,.T.);
#303=ORIENTED_EDGE('',*,*,#233,.T.);
#304=ORIENTED_EDGE('',*,*,#234,.T.);
#305=ORIENTED_EDGE('',*,*,#233,.F.);
#306=ORIENTED_EDGE('',*,*,#235,.T.);
#307=ORIENTED_EDGE('',*,*,#236,.T.);
#308=ORIENTED_EDGE('',*,*,#237,.T.);
#309=ORIENTED_EDGE('',*,*,#236,.F.);
#310=ORIENTED_EDGE('',*,*,#238,.T.);
#311=ORIENTED_EDGE('',*,*,#239,.T.);
#312=ORIENTED_EDGE('',*,*,#240,.T.);
#313=ORIENTED_EDGE('',*,*,#239,.F.);
#314=ORIENTED_EDGE('',*,*,#241,.T.);
#315=ORIENTED_EDGE('',*,*,#219,.F.);
#316=ORIENTED_EDGE('',*,*,#242,.T.);
#317=ORIENTED_EDGE('',*,*,#243,.F.);
#318=ORIENTED_EDGE('',*,*,#244,.F.);
#319=ORIENTED_EDGE('',*,*,#245,.F.);
#320=ORIENTED_EDGE('',*,*,#246,.F.);
#321=ORIENTED_EDGE('',*,*,#247,.F.);
#322=ORIENTED_EDGE('',*,*,#248,.F.);
#323=ORIENTED_EDGE('',*,*,#249,.F.);
#324=ORIENTED_EDGE('',*,*,#250,.F.);
#325=ORIENTED_EDGE('',*,*,#251,.F.);
#326=ORIENTED_EDGE('',*,*,#252,.F.);
#327=ORIENTED_EDGE('',*,*,#253,.F.);
#328=ORIENTED_EDGE('',*,*,#254,.F.);
#329=ORIENTED_EDGE('',*,*,#255,.T.);
#330=ORIENTED_EDGE('',*,*,#256,.T.);
#331=ORIENTED_EDGE('',*,*,#222,.F.);
#332=ORIENTED_EDGE('',*,*,#225,.F.);
#333=ORIENTED_EDGE('',*,*,#228,.F.);
#334=ORIENTED_EDGE('',*,*,#231,.F.);
#335=ORIENTED_EDGE('',*,*,#234,.F.);
#336=ORIENTED_EDGE('',*,*,#237,.F.);
#337=ORIENTED_EDGE('',*,*,#240,.F.);
#338=ORIENTED_EDGE('',*,*,#242,.F.);
#339=ORIENTED_EDGE('',*,*,#257,.T.);
#340=ORIENTED_EDGE('',*,*,#258,.T.);
#341=ORIENTED_EDGE('',*,*,#252,.T.);
#342=ORIENTED_EDGE('',*,*,#259,.T.);
#343=ORIENTED_EDGE('',*,*,#260,.T.);
#344=ORIENTED_EDGE('',*,*,#261,.T.);
#345=ORIENTED_EDGE('',*,*,#249,.T.);
#346=ORIENTED_EDGE('',*,*,#262,.T.);
#347=ORIENTED_EDGE('',*,*,#263,.T.);
#348=ORIENTED_EDGE('',*,*,#264,.T.);
#349=ORIENTED_EDGE('',*,*,#246,.T.);
#350=ORIENTED_EDGE('',*,*,#265,.T.);
#351=ORIENTED_EDGE('',*,*,#264,.F.);
#352=ORIENTED_EDGE('',*,*,#266,.T.);
#353=ORIENTED_EDGE('',*,*,#267,.T.);
#354=ORIENTED_EDGE('',*,*,#247,.T.);
#355=ORIENTED_EDGE('',*,*,#248,.T.);
#356=ORIENTED_EDGE('',*,*,#267,.F.);
#357=ORIENTED_EDGE('',*,*,#268,.T.);
#358=ORIENTED_EDGE('',*,*,#262,.F.);
#359=ORIENTED_EDGE('',*,*,#269,.T.);
#360=ORIENTED_EDGE('',*,*,#270,.T.);
#361=ORIENTED_EDGE('',*,*,#243,.T.);
#362=ORIENTED_EDGE('',*,*,#271,.T.);
#363=ORIENTED_EDGE('',*,*,#270,.F.);
#364=ORIENTED_EDGE('',*,*,#272,.T.);
#365=ORIENTED_EDGE('',*,*,#273,.T.);
#366=ORIENTED_EDGE('',*,*,#244,.T.);
#367=ORIENTED_EDGE('',*,*,#245,.T.);
#368=ORIENTED_EDGE('',*,*,#273,.F.);
#369=ORIENTED_EDGE('',*,*,#274,.F.);
#370=ORIENTED_EDGE('',*,*,#265,.F.);
#371=ORIENTED_EDGE('',*,*,#261,.F.);
#372=ORIENTED_EDGE('',*,*,#275,.T.);
#373=ORIENTED_EDGE('',*,*,#276,.T.);
#374=ORIENTED_EDGE('',*,*,#250,.T.);
#375=ORIENTED_EDGE('',*,*,#251,.T.);
#376=ORIENTED_EDGE('',*,*,#276,.F.);
#377=ORIENTED_EDGE('',*,*,#277,.F.);
#378=ORIENTED_EDGE('',*,*,#259,.F.);
#379=ORIENTED_EDGE('',*,*,#258,.F.);
#380=ORIENTED_EDGE('',*,*,#278,.T.);
#381=ORIENTED_EDGE('',*,*,#279,.T.);
#382=ORIENTED_EDGE('',*,*,#253,.T.);
#383=ORIENTED_EDGE('',*,*,#254,.T.);
#384=ORIENTED_EDGE('',*,*,#279,.F.);
#385=ORIENTED_EDGE('',*,*,#280,.T.);
#386=ORIENTED_EDGE('',*,*,#271,.F.);
#387=ORIENTED_EDGE('',*,*,#256,.F.);
#388=ORIENTED_EDGE('',*,*,#281,.T.);
#389=ORIENTED_EDGE('',*,*,#282,.T.);
#390=ORIENTED_EDGE('',*,*,#281,.F.);
#391=ORIENTED_EDGE('',*,*,#255,.F.);
#392=ORIENTED_EDGE('',*,*,#283,.T.);
#393=ORIENTED_EDGE('',*,*,#284,.T.);
#394=ORIENTED_EDGE('',*,*,#283,.F.);
#395=ORIENTED_EDGE('',*,*,#263,.F.);
#396=ORIENTED_EDGE('',*,*,#274,.T.);
#397=ORIENTED_EDGE('',*,*,#272,.F.);
#398=ORIENTED_EDGE('',*,*,#269,.F.);
#399=ORIENTED_EDGE('',*,*,#280,.F.);
#400=ORIENTED_EDGE('',*,*,#278,.F.);
#401=ORIENTED_EDGE('',*,*,#257,.F.);
#402=ORIENTED_EDGE('',*,*,#277,.T.);
#403=ORIENTED_EDGE('',*,*,#275,.F.);
#404=ORIENTED_EDGE('',*,*,#260,.F.);
#405=ORIENTED_EDGE('',*,*,#268,.F.);
#406=ORIENTED_EDGE('',*,*,#266,.F.);
#407=ORIENTED_EDGE('',*,*,#284,.F.);
#408=ORIENTED_EDGE('',*,*,#282,.F.);
#409=ORIENTED_EDGE('',*,*,#223,.F.);
#410=ORIENTED_EDGE('',*,*,#220,.F.);
#411=ORIENTED_EDGE('',*,*,#241,.F.);
#412=ORIENTED_EDGE('',*,*,#238,.F.);
#413=ORIENTED_EDGE('',*,*,#235,.F.);
#414=ORIENTED_EDGE('',*,*,#232,.F.);
#415=ORIENTED_EDGE('',*,*,#229,.F.);
#416=ORIENTED_EDGE('',*,*,#226,.F.);
#417=CYLINDRICAL_SURFACE('',#467,1.5);
#418=CYLINDRICAL_SURFACE('',#474,1.5);
#419=CYLINDRICAL_SURFACE('',#480,1.5);
#420=CYLINDRICAL_SURFACE('',#486,1.5);
#421=CYLINDRICAL_SURFACE('',#503,1.5);
#422=CYLINDRICAL_SURFACE('',#508,1.5);
#423=CYLINDRICAL_SURFACE('',#512,1.5);
#424=CYLINDRICAL_SURFACE('',#517,1.5);
#425=CYLINDRICAL_SURFACE('',#521,1.5);
#426=CYLINDRICAL_SURFACE('',#522,1.5);
#427=CYLINDRICAL_SURFACE('',#526,2.);
#428=CYLINDRICAL_SURFACE('',#528,2.);
#429=ADVANCED_FACE('',(#37),#417,.T.);
#430=ADVANCED_FACE('',(#38),#27,.T.);
#431=ADVANCED_FACE('',(#39),#418,.T.);
#432=ADVANCED_FACE('',(#40),#28,.T.);
#433=ADVANCED_FACE('',(#41),#419,.T.);
#434=ADVANCED_FACE('',(#42),#29,.T.);
#435=ADVANCED_FACE('',(#43),#420,.T.);
#436=ADVANCED_FACE('',(#44),#30,.T.);
#437=ADVANCED_FACE('',(#45,#19,#20,#21),#25,.T.);
#438=ADVANCED_FACE('',(#46),#31,.T.);
#439=ADVANCED_FACE('',(#47),#421,.T.);
#440=ADVANCED_FACE('',(#48),#32,.T.);
#441=ADVANCED_FACE('',(#49),#422,.T.);
#442=ADVANCED_FACE('',(#50),#33,.T.);
#443=ADVANCED_FACE('',(#51),#423,.T.);
#444=ADVANCED_FACE('',(#52),#34,.T.);
#445=ADVANCED_FACE('',(#53),#424,.T.);
#446=ADVANCED_FACE('',(#54),#35,.T.);
#447=ADVANCED_FACE('',(#55),#425,.T.);
#448=ADVANCED_FACE('',(#56),#426,.T.);
#449=ADVANCED_FACE('',(#57),#36,.T.);
#450=ADVANCED_FACE('',(#58),#427,.F.);
#451=ADVANCED_FACE('',(#59),#428,.F.);
#452=ADVANCED_FACE('',(#60,#22,#23,#24),#26,.F.);
#453=CLOSED_SHELL('',(#429,#430,#431,#432,#433,#434,#435,#436,#437,#438,
#439,#440,#441,#442,#443,#444,#445,#446,#447,#448,#449,#450,#451,#452));
#454=DERIVED_UNIT_ELEMENT(#456,1.);
#455=DERIVED_UNIT_ELEMENT(#875,-3.);
#456=(
MASS_UNIT()
NAMED_UNIT(*)
SI_UNIT(.KILO.,.GRAM.)
);
#457=DERIVED_UNIT((#454,#455));
#458=MEASURE_REPRESENTATION_ITEM('density measure',
POSITIVE_RATIO_MEASURE(7850.),#457);
#459=PROPERTY_DEFINITION_REPRESENTATION(#464,#461);
#460=PROPERTY_DEFINITION_REPRESENTATION(#465,#462);
#461=REPRESENTATION('material name',(#463),#872);
#462=REPRESENTATION('density',(#458),#872);
#463=DESCRIPTIVE_REPRESENTATION_ITEM('Stahl','Stahl');
#464=PROPERTY_DEFINITION('material property','material name',#882);
#465=PROPERTY_DEFINITION('material property','density of part',#882);
#466=AXIS2_PLACEMENT_3D('',#683,#531,#532);
#467=AXIS2_PLACEMENT_3D('',#684,#533,#534);
#468=AXIS2_PLACEMENT_3D('',#687,#535,#536);
#469=AXIS2_PLACEMENT_3D('',#691,#538,#539);
#470=AXIS2_PLACEMENT_3D('',#693,#541,#542);
#471=AXIS2_PLACEMENT_3D('',#695,#543,#544);
#472=AXIS2_PLACEMENT_3D('',#697,#545,#546);
#473=AXIS2_PLACEMENT_3D('',#698,#547,#548);
#474=AXIS2_PLACEMENT_3D('',#699,#549,#550);
#475=AXIS2_PLACEMENT_3D('',#703,#552,#553);
#476=AXIS2_PLACEMENT_3D('',#705,#555,#556);
#477=AXIS2_PLACEMENT_3D('',#707,#557,#558);
#478=AXIS2_PLACEMENT_3D('',#709,#559,#560);
#479=AXIS2_PLACEMENT_3D('',#710,#561,#562);
#480=AXIS2_PLACEMENT_3D('',#711,#563,#564);
#481=AXIS2_PLACEMENT_3D('',#715,#566,#567);
#482=AXIS2_PLACEMENT_3D('',#717,#569,#570);
#483=AXIS2_PLACEMENT_3D('',#719,#571,#572);
#484=AXIS2_PLACEMENT_3D('',#721,#573,#574);
#485=AXIS2_PLACEMENT_3D('',#722,#575,#576);
#486=AXIS2_PLACEMENT_3D('',#723,#577,#578);
#487=AXIS2_PLACEMENT_3D('',#727,#580,#581);
#488=AXIS2_PLACEMENT_3D('',#729,#583,#584);
#489=AXIS2_PLACEMENT_3D('',#730,#585,#586);
#490=AXIS2_PLACEMENT_3D('',#731,#587,#588);
#491=AXIS2_PLACEMENT_3D('',#732,#589,#590);
#492=AXIS2_PLACEMENT_3D('',#737,#592,#593);
#493=AXIS2_PLACEMENT_3D('',#741,#595,#596);
#494=AXIS2_PLACEMENT_3D('',#745,#598,#599);
#495=AXIS2_PLACEMENT_3D('',#749,#601,#602);
#496=AXIS2_PLACEMENT_3D('',#753,#604,#605);
#497=AXIS2_PLACEMENT_3D('',#756,#607,#608);
#498=AXIS2_PLACEMENT_3D('',#758,#609,#610);
#499=AXIS2_PLACEMENT_3D('',#760,#611,#612);
#500=AXIS2_PLACEMENT_3D('',#761,#613,#614);
#501=AXIS2_PLACEMENT_3D('',#764,#615,#616);
#502=AXIS2_PLACEMENT_3D('',#765,#617,#618);
#503=AXIS2_PLACEMENT_3D('',#780,#619,#620);
#504=AXIS2_PLACEMENT_3D('',#784,#622,#623);
#505=AXIS2_PLACEMENT_3D('',#799,#624,#625);
#506=AXIS2_PLACEMENT_3D('',#802,#626,#627);
#507=AXIS2_PLACEMENT_3D('',#803,#628,#629);
#508=AXIS2_PLACEMENT_3D('',#818,#630,#631);
#509=AXIS2_PLACEMENT_3D('',#821,#633,#634);
#510=AXIS2_PLACEMENT_3D('',#822,#635,#636);
#511=AXIS2_PLACEMENT_3D('',#823,#637,#638);
#512=AXIS2_PLACEMENT_3D('',#824,#639,#640);
#513=AXIS2_PLACEMENT_3D('',#828,#642,#643);
#514=AXIS2_PLACEMENT_3D('',#843,#644,#645);
#515=AXIS2_PLACEMENT_3D('',#845,#646,#647);
#516=AXIS2_PLACEMENT_3D('',#846,#648,#649);
#517=AXIS2_PLACEMENT_3D('',#847,#650,#651);
#518=AXIS2_PLACEMENT_3D('',#849,#653,#654);
#519=AXIS2_PLACEMENT_3D('',#851,#655,#656);
#520=AXIS2_PLACEMENT_3D('',#852,#657,#658);
#521=AXIS2_PLACEMENT_3D('',#853,#659,#660);
#522=AXIS2_PLACEMENT_3D('',#855,#662,#663);
#523=AXIS2_PLACEMENT_3D('',#858,#665,#666);
#524=AXIS2_PLACEMENT_3D('',#859,#667,#668);
#525=AXIS2_PLACEMENT_3D('',#860,#669,#670);
#526=AXIS2_PLACEMENT_3D('',#861,#671,#672);
#527=AXIS2_PLACEMENT_3D('',#864,#674,#675);
#528=AXIS2_PLACEMENT_3D('',#865,#676,#677);
#529=AXIS2_PLACEMENT_3D('',#868,#679,#680);
#530=AXIS2_PLACEMENT_3D('',#869,#681,#682);
#531=DIRECTION('axis',(0.,0.,1.));
#532=DIRECTION('refdir',(1.,0.,0.));
#533=DIRECTION('center_axis',(3.5527136788005E-15,-1.,0.));
#534=DIRECTION('ref_axis',(-0.707106781186547,-2.61682076447296E-15,0.707106781186548));
#535=DIRECTION('center_axis',(3.70074341541719E-15,-1.,0.));
#536=DIRECTION('ref_axis',(0.,0.,1.));
#537=DIRECTION('',(3.5527136788005E-15,-1.,0.));
#538=DIRECTION('center_axis',(-4.07081775695891E-15,1.,0.));
#539=DIRECTION('ref_axis',(-1.,-4.07081775695891E-15,0.));
#540=DIRECTION('',(-3.5527136788005E-15,1.,0.));
#541=DIRECTION('center_axis',(0.,0.,-1.));
#542=DIRECTION('ref_axis',(-1.,0.,0.));
#543=DIRECTION('center_axis',(0.,0.,-1.));
#544=DIRECTION('ref_axis',(4.44089209850061E-16,-1.,0.));
#545=DIRECTION('center_axis',(1.,1.48029736616687E-15,0.));
#546=DIRECTION('ref_axis',(-1.48029736616687E-15,1.,0.));
#547=DIRECTION('center_axis',(0.,0.,1.));
#548=DIRECTION('ref_axis',(0.707106781186548,-0.707106781186547,0.));
#549=DIRECTION('center_axis',(-1.,1.66533453693773E-15,0.));
#550=DIRECTION('ref_axis',(1.04672830578918E-15,0.707106781186548,0.707106781186547));
#551=DIRECTION('',(-1.,1.66533453693773E-15,0.));
#552=DIRECTION('center_axis',(1.,-7.40148683083437E-16,0.));
#553=DIRECTION('ref_axis',(7.40148683083437E-16,1.,0.));
#554=DIRECTION('',(1.,-1.66533453693773E-15,0.));
#555=DIRECTION('center_axis',(0.,0.,-1.));
#556=DIRECTION('ref_axis',(-1.,0.,0.));
#557=DIRECTION('center_axis',(0.,0.,-1.));
#558=DIRECTION('ref_axis',(-1.,4.44089209850061E-15,0.));
#559=DIRECTION('center_axis',(-4.44089209850062E-15,-1.,0.));
#560=DIRECTION('ref_axis',(1.,-4.44089209850062E-15,0.));
#561=DIRECTION('center_axis',(0.,0.,1.));
#562=DIRECTION('ref_axis',(-0.707106781186549,-0.707106781186546,0.));
#563=DIRECTION('center_axis',(8.88178419700125E-16,1.,0.));
#564=DIRECTION('ref_axis',(0.707106781186547,-5.23364152894592E-16,0.707106781186548));
#565=DIRECTION('',(8.88178419700125E-16,1.,0.));
#566=DIRECTION('center_axis',(-1.48029736616687E-15,-1.,0.));
#567=DIRECTION('ref_axis',(1.,-1.48029736616687E-15,0.));
#568=DIRECTION('',(-8.88178419700125E-16,-1.,0.));
#569=DIRECTION('center_axis',(0.,0.,-1.));
#570=DIRECTION('ref_axis',(-1.,0.,0.));
#571=DIRECTION('center_axis',(0.,0.,-1.));
#572=DIRECTION('ref_axis',(-3.55271367880048E-15,1.,0.));
#573=DIRECTION('center_axis',(-1.,-4.44089209850063E-15,0.));
#574=DIRECTION('ref_axis',(4.44089209850063E-15,-1.,0.));
#575=DIRECTION('center_axis',(0.,0.,1.));
#576=DIRECTION('ref_axis',(-0.707106781186541,0.707106781186554,0.));
#577=DIRECTION('center_axis',(1.,1.66533453693774E-15,0.));
#578=DIRECTION('ref_axis',(1.04672830578918E-15,-0.707106781186547,0.707106781186548));
#579=DIRECTION('',(1.,1.66533453693774E-15,0.));
#580=DIRECTION('center_axis',(-1.,-7.40148683083438E-16,0.));
#581=DIRECTION('ref_axis',(7.40148683083438E-16,-1.,0.));
#582=DIRECTION('',(-1.,-1.66533453693774E-15,0.));
#583=DIRECTION('center_axis',(0.,0.,-1.));
#584=DIRECTION('ref_axis',(-1.,0.,0.));
#585=DIRECTION('center_axis',(0.,0.,-1.));
#586=DIRECTION('ref_axis',(1.,0.,0.));
#587=DIRECTION('center_axis',(0.,0.,1.));
#588=DIRECTION('ref_axis',(0.707106781186546,0.707106781186549,0.));
#589=DIRECTION('center_axis',(0.,0.,1.));
#590=DIRECTION('ref_axis',(1.,0.,0.));
#591=DIRECTION('',(1.,6.10622663543836E-15,0.));
#592=DIRECTION('center_axis',(0.,0.,-1.));
#593=DIRECTION('ref_axis',(-1.,2.24877374373855E-14,0.));
#594=DIRECTION('',(-1.,5.55111512312578E-15,0.));
#595=DIRECTION('center_axis',(0.,0.,-1.));
#596=DIRECTION('ref_axis',(-0.707106781186551,-0.707106781186544,0.));
#597=DIRECTION('',(-1.,0.,0.));
#598=DIRECTION('center_axis',(0.,0.,-1.));
#599=DIRECTION('ref_axis',(0.707106781186547,-0.707106781186547,0.));
#600=DIRECTION('',(-1.,0.,0.));
#601=DIRECTION('center_axis',(0.,0.,-1.));
#602=DIRECTION('ref_axis',(1.,-6.12323399573676E-17,0.));
#603=DIRECTION('',(1.,0.,0.));
#604=DIRECTION('center_axis',(0.,0.,-1.));
#605=DIRECTION('ref_axis',(0.707106781186547,0.707106781186547,0.));
#606=DIRECTION('',(1.,3.5527136788005E-15,0.));
#607=DIRECTION('center_axis',(0.,0.,-1.));
#608=DIRECTION('ref_axis',(-0.707106781186551,0.707106781186544,0.));
#609=DIRECTION('center_axis',(0.,0.,-1.));
#610=DIRECTION('ref_axis',(1.,0.,0.));
#611=DIRECTION('center_axis',(0.,0.,-1.));
#612=DIRECTION('ref_axis',(1.,0.,0.));
#613=DIRECTION('center_axis',(0.,0.,1.));
#614=DIRECTION('ref_axis',(1.,0.,0.));
#615=DIRECTION('center_axis',(0.,0.,1.));
#616=DIRECTION('ref_axis',(1.,-2.96059473233375E-16,0.));
#617=DIRECTION('center_axis',(1.,1.48029736616684E-15,0.));
#618=DIRECTION('ref_axis',(-1.48029736616684E-15,1.,0.));
#619=DIRECTION('center_axis',(1.,0.,0.));
#620=DIRECTION('ref_axis',(0.,-0.707106781186548,0.707106781186548));
#621=DIRECTION('',(1.,0.,0.));
#622=DIRECTION('center_axis',(-1.,0.,0.));
#623=DIRECTION('ref_axis',(0.,-1.,0.));
#624=DIRECTION('center_axis',(0.,0.,1.));
#625=DIRECTION('ref_axis',(-0.745355992499956,-0.666666666666638,0.));
#626=DIRECTION('center_axis',(0.,0.,1.));
#627=DIRECTION('ref_axis',(-1.,4.58892183511731E-15,0.));
#628=DIRECTION('center_axis',(-1.,5.92118946466732E-15,0.));
#629=DIRECTION('ref_axis',(-5.92118946466732E-15,-1.,0.));
#630=DIRECTION('center_axis',(1.,0.,0.));
#631=DIRECTION('ref_axis',(0.,-0.707106781186548,0.707106781186547));
#632=DIRECTION('',(1.,0.,0.));
#633=DIRECTION('center_axis',(-1.,0.,0.));
#634=DIRECTION('ref_axis',(0.,-1.,0.));
#635=DIRECTION('center_axis',(0.,0.,1.));
#636=DIRECTION('ref_axis',(1.,0.,0.));
#637=DIRECTION('center_axis',(0.,0.,1.));
#638=DIRECTION('ref_axis',(0.,-1.,0.));
#639=DIRECTION('center_axis',(-1.,-6.10622663543836E-15,0.));
#640=DIRECTION('ref_axis',(-4.18691322315673E-15,0.707106781186548,0.707106781186548));
#641=DIRECTION('',(-1.,-6.10622663543836E-15,0.));
#642=DIRECTION('center_axis',(1.,5.9211894646675E-15,0.));
#643=DIRECTION('ref_axis',(-5.9211894646675E-15,1.,0.));
#644=DIRECTION('center_axis',(0.,0.,1.));
#645=DIRECTION('ref_axis',(-1.,5.66553889764798E-16,0.));
#646=DIRECTION('center_axis',(0.,0.,1.));
#647=DIRECTION('ref_axis',(-3.5527136788005E-15,1.,0.));
#648=DIRECTION('center_axis',(-1.,2.96059473233419E-15,0.));
#649=DIRECTION('ref_axis',(-2.96059473233419E-15,-1.,0.));
#650=DIRECTION('center_axis',(1.,-5.55111512312578E-15,0.));
#651=DIRECTION('ref_axis',(-4.18691322315673E-15,-0.707106781186548,0.707106781186548));
#652=DIRECTION('',(-1.,5.55111512312578E-15,0.));
#653=DIRECTION('center_axis',(0.,0.,1.));
#654=DIRECTION('ref_axis',(1.,0.,0.));
#655=DIRECTION('center_axis',(0.,0.,1.));
#656=DIRECTION('ref_axis',(0.,-1.,0.));
#657=DIRECTION('center_axis',(1.,0.,0.));
#658=DIRECTION('ref_axis',(0.,1.,0.));
#659=DIRECTION('center_axis',(-1.,0.,0.));
#660=DIRECTION('ref_axis',(0.,0.707106781186548,0.707106781186548));
#661=DIRECTION('',(1.,0.,0.));
#662=DIRECTION('center_axis',(-1.,-3.5527136788005E-15,0.));
#663=DIRECTION('ref_axis',(-2.61682076447296E-15,0.707106781186547,0.707106781186548));
#664=DIRECTION('',(-1.,-3.5527136788005E-15,0.));
#665=DIRECTION('center_axis',(1.,2.96059473233375E-15,0.));
#666=DIRECTION('ref_axis',(-2.96059473233375E-15,1.,0.));
#667=DIRECTION('center_axis',(0.,0.,1.));
#668=DIRECTION('ref_axis',(-0.745355992499933,0.666666666666663,0.));
#669=DIRECTION('center_axis',(0.,0.,1.));
#670=DIRECTION('ref_axis',(-4.58892183511731E-15,1.,0.));
#671=DIRECTION('center_axis',(0.,0.,1.));
#672=DIRECTION('ref_axis',(1.,0.,0.));
#673=DIRECTION('',(0.,0.,-1.));
#674=DIRECTION('center_axis',(0.,0.,-1.));
#675=DIRECTION('ref_axis',(1.,0.,0.));
#676=DIRECTION('center_axis',(0.,0.,1.));
#677=DIRECTION('ref_axis',(1.,0.,0.));
#678=DIRECTION('',(0.,0.,-1.));
#679=DIRECTION('center_axis',(0.,0.,-1.));
#680=DIRECTION('ref_axis',(1.,0.,0.));
#681=DIRECTION('center_axis',(0.,0.,1.));
#682=DIRECTION('ref_axis',(1.,0.,0.));
#683=CARTESIAN_POINT('',(0.,0.,0.));
#684=CARTESIAN_POINT('Origin',(16.5,2.50000000000004,0.));
#685=CARTESIAN_POINT('',(16.5,5.00000000000001,1.5));
#686=CARTESIAN_POINT('',(15.,5.,0.));
#687=CARTESIAN_POINT('Origin',(16.5,5.00000000000001,0.));
#688=CARTESIAN_POINT('',(15.,-5.,0.));
#689=CARTESIAN_POINT('',(15.,-5.,0.));
#690=CARTESIAN_POINT('',(16.5,-4.99999999999999,1.5));
#691=CARTESIAN_POINT('Origin',(16.5,-4.99999999999999,0.));
#692=CARTESIAN_POINT('',(16.5,2.50000000000004,1.5));
#693=CARTESIAN_POINT('Origin',(10.,-5.,0.));
#694=CARTESIAN_POINT('',(10.,-10.,0.));
#695=CARTESIAN_POINT('Origin',(10.,-5.,0.));
#696=CARTESIAN_POINT('',(10.,-11.5,1.5));
#697=CARTESIAN_POINT('Origin',(10.,-11.5,0.));
#698=CARTESIAN_POINT('Origin',(10.,-5.,1.5));
#699=CARTESIAN_POINT('Origin',(5.,-11.5,0.));
#700=CARTESIAN_POINT('',(-9.99999999999998,-9.99999999999998,0.));
#701=CARTESIAN_POINT('',(10.,-10.,0.));
#702=CARTESIAN_POINT('',(-9.99999999999999,-11.5,1.5));
#703=CARTESIAN_POINT('Origin',(-9.99999999999999,-11.5,0.));
#704=CARTESIAN_POINT('',(5.,-11.5,1.5));
#705=CARTESIAN_POINT('Origin',(-9.99999999999998,-4.99999999999996,0.));
#706=CARTESIAN_POINT('',(-15.,-4.99999999999994,0.));
#707=CARTESIAN_POINT('Origin',(-9.99999999999998,-4.99999999999996,0.));
#708=CARTESIAN_POINT('',(-16.5,-4.99999999999993,1.5));
#709=CARTESIAN_POINT('Origin',(-16.5,-4.99999999999993,0.));
#710=CARTESIAN_POINT('Origin',(-9.99999999999998,-4.99999999999996,1.5));
#711=CARTESIAN_POINT('Origin',(-16.5,-2.49999999999995,0.));
#712=CARTESIAN_POINT('',(-15.,5.00000000000006,0.));
#713=CARTESIAN_POINT('',(-15.,-4.99999999999994,0.));
#714=CARTESIAN_POINT('',(-16.5,5.00000000000007,1.5));
#715=CARTESIAN_POINT('Origin',(-16.5,5.00000000000007,0.));
#716=CARTESIAN_POINT('',(-16.5,-2.49999999999995,1.5));
#717=CARTESIAN_POINT('Origin',(-10.,4.99999999999996,0.));
#718=CARTESIAN_POINT('',(-10.,9.99999999999998,0.));
#719=CARTESIAN_POINT('Origin',(-10.,4.99999999999996,0.));
#720=CARTESIAN_POINT('',(-10.,11.5,1.5));
#721=CARTESIAN_POINT('Origin',(-10.,11.5,0.));
#722=CARTESIAN_POINT('Origin',(-10.,4.99999999999996,1.5));
#723=CARTESIAN_POINT('Origin',(-5.00000000000001,11.5,0.));
#724=CARTESIAN_POINT('',(9.99999999999998,10.,0.));
#725=CARTESIAN_POINT('',(9.99999999999998,10.,0.));
#726=CARTESIAN_POINT('',(9.99999999999998,11.5,1.5));
#727=CARTESIAN_POINT('Origin',(9.99999999999998,11.5,0.));
#728=CARTESIAN_POINT('',(-5.00000000000001,11.5,1.5));
#729=CARTESIAN_POINT('Origin',(10.,5.,0.));
#730=CARTESIAN_POINT('Origin',(10.,5.,0.));
#731=CARTESIAN_POINT('Origin',(10.,5.,1.5));
#732=CARTESIAN_POINT('Origin',(8.88178419700125E-15,1.88737914186277E-14,
1.5));
#733=CARTESIAN_POINT('',(-26.,3.49999999999988,1.5));
#734=CARTESIAN_POINT('',(-23.4164078649987,3.4999999999999,1.5));
#735=CARTESIAN_POINT('',(-12.5,3.49999999999997,1.5));
#736=CARTESIAN_POINT('',(-26.,-3.50000000000011,1.5));
#737=CARTESIAN_POINT('Origin',(-25.9999999999999,-1.12410081243297E-13,
1.5));
#738=CARTESIAN_POINT('',(-23.4164078649987,-3.4999999999999,1.5));
#739=CARTESIAN_POINT('',(-13.,-3.49999999999996,1.5));
#740=CARTESIAN_POINT('',(-10.,-18.5,1.5));
#741=CARTESIAN_POINT('Origin',(-9.99999999999997,-4.99999999999996,1.5));
#742=CARTESIAN_POINT('',(9.99999999999996,-18.5,1.5));
#743=CARTESIAN_POINT('',(-5.00000000000001,-18.5,1.5));
#744=CARTESIAN_POINT('',(23.4164078649987,-3.49999999999999,1.5));
#745=CARTESIAN_POINT('Origin',(9.99999999999997,-5.,1.5));
#746=CARTESIAN_POINT('',(26.,-3.5,1.5));
#747=CARTESIAN_POINT('',(12.5,-3.5,1.5));
#748=CARTESIAN_POINT('',(26.,3.5,1.5));
#749=CARTESIAN_POINT('Origin',(26.,0.,1.5));
#750=CARTESIAN_POINT('',(23.4164078649987,3.5,1.5));
#751=CARTESIAN_POINT('',(13.,3.5,1.5));
#752=CARTESIAN_POINT('',(9.99999999999997,18.5,1.5));
#753=CARTESIAN_POINT('Origin',(9.99999999999997,5.,1.5));
#754=CARTESIAN_POINT('',(-10.,18.5,1.5));
#755=CARTESIAN_POINT('',(4.99999999999996,18.5,1.5));
#756=CARTESIAN_POINT('Origin',(-9.99999999999997,4.99999999999996,1.5));
#757=CARTESIAN_POINT('',(-28.5,-8.8091326183295E-14,1.5));
#758=CARTESIAN_POINT('Origin',(-26.5,-8.78463968234655E-14,1.5));
#759=CARTESIAN_POINT('',(24.5,-2.44929359829467E-16,1.5));
#760=CARTESIAN_POINT('Origin',(26.5,0.,1.5));
#761=CARTESIAN_POINT('Origin',(9.99999999999997,5.,0.));
#762=CARTESIAN_POINT('',(25.,5.,0.));
#763=CARTESIAN_POINT('',(9.99999999999997,20.,0.));
#764=CARTESIAN_POINT('Origin',(9.99999999999997,5.,0.));
#765=CARTESIAN_POINT('Origin',(9.99999999999997,18.5,0.));
#766=CARTESIAN_POINT('Ctrl Pts',(23.4164078649987,3.5,1.5));
#767=CARTESIAN_POINT('Ctrl Pts',(23.4184449619475,3.50182203490168,1.5));
#768=CARTESIAN_POINT('Ctrl Pts',(23.420481854638,3.50364430208697,1.49999668018891));
#769=CARTESIAN_POINT('Ctrl Pts',(23.7005824862022,3.75428802997575,1.49908319595357));
#770=CARTESIAN_POINT('Ctrl Pts',(23.9662083442735,4.00002249676539,1.43639625365456));
#771=CARTESIAN_POINT('Ctrl Pts',(24.3771317660711,4.38900899805116,1.22332772699115));
#772=CARTESIAN_POINT('Ctrl Pts',(24.5300531696225,4.5369035500817,1.10047940547786));
#773=CARTESIAN_POINT('Ctrl Pts',(24.7495584323952,4.75134412807104,0.840087437790228));
#774=CARTESIAN_POINT('Ctrl Pts',(24.8323838727842,4.83319628997685,0.706718162046609));
#775=CARTESIAN_POINT('Ctrl Pts',(24.9436871370599,4.94370853974809,0.428900353062476));
#776=CARTESIAN_POINT('Ctrl Pts',(24.9779987017129,4.97800792144447,0.293272655046126));
#777=CARTESIAN_POINT('Ctrl Pts',(24.9974526750608,4.99745204116466,0.100795099833939));
#778=CARTESIAN_POINT('Ctrl Pts',(25.,5.,0.0504746908462246));
#779=CARTESIAN_POINT('Ctrl Pts',(25.,5.,0.));
#780=CARTESIAN_POINT('Origin',(12.5,-3.5,0.));
#781=CARTESIAN_POINT('',(25.,-5.,0.));
#782=CARTESIAN_POINT('',(26.,-5.,0.));
#783=CARTESIAN_POINT('',(25.,-5.,0.));
#784=CARTESIAN_POINT('Origin',(26.,-3.5,0.));
#785=CARTESIAN_POINT('Ctrl Pts',(23.4164078649987,-3.49999999999999,1.5));
#786=CARTESIAN_POINT('Ctrl Pts',(23.4184449619461,-3.50182203490046,1.5));
#787=CARTESIAN_POINT('Ctrl Pts',(23.4204818546393,-3.50364430208827,1.4999966801889));
#788=CARTESIAN_POINT('Ctrl Pts',(23.5992967846043,-3.66365408285094,1.49941351613585));
#789=CARTESIAN_POINT('Ctrl Pts',(23.7757196771182,-3.82472852724655,1.4738084693046));
#790=CARTESIAN_POINT('Ctrl Pts',(24.1024251994986,-4.12845196220759,1.37076083885424));
#791=CARTESIAN_POINT('Ctrl Pts',(24.2558542559987,-4.27365350101192,1.29623866603668));
#792=CARTESIAN_POINT('Ctrl Pts',(24.5329543670156,-4.53960457735923,1.09376556244287));
#793=CARTESIAN_POINT('Ctrl Pts',(24.6589481116802,-4.66247611261673,0.966197004792459));
#794=CARTESIAN_POINT('Ctrl Pts',(24.8382898951844,-4.83896399692884,0.690589085228002));
#795=CARTESIAN_POINT('Ctrl Pts',(24.901301843795,-4.90156751676138,0.556225902967811));
#796=CARTESIAN_POINT('Ctrl Pts',(24.9803543486124,-4.9803216601545,0.277480484914615));
#797=CARTESIAN_POINT('Ctrl Pts',(25.,-5.,0.140294563148603));
#798=CARTESIAN_POINT('Ctrl Pts',(25.,-5.,6.93889390390723E-17));
#799=CARTESIAN_POINT('Origin',(-9.99999999999997,-4.99999999999996,0.));
#800=CARTESIAN_POINT('',(-25.,-4.99999999999989,0.));
#801=CARTESIAN_POINT('',(-10.,-20.,0.));
#802=CARTESIAN_POINT('Origin',(-9.99999999999997,-4.99999999999996,0.));
#803=CARTESIAN_POINT('Origin',(-10.,-18.5,0.));
#804=CARTESIAN_POINT('Ctrl Pts',(-23.4164078649987,-3.49999999999896,1.5));
#805=CARTESIAN_POINT('Ctrl Pts',(-23.4184449619378,-3.50182203489198,1.5));
#806=CARTESIAN_POINT('Ctrl Pts',(-23.4204818546477,-3.50364430209555,1.49999668018887));
#807=CARTESIAN_POINT('Ctrl Pts',(-23.7005824861392,-3.75428802991912,1.49908319595378));
#808=CARTESIAN_POINT('Ctrl Pts',(-23.9662083442253,-4.00002249671967,1.43639625367954));
#809=CARTESIAN_POINT('Ctrl Pts',(-24.3771317660708,-4.38900899805085,1.22332772699127));
#810=CARTESIAN_POINT('Ctrl Pts',(-24.5300531696224,-4.53690355008146,1.10047940547803));
#811=CARTESIAN_POINT('Ctrl Pts',(-24.7495584323952,-4.75134412807094,0.840087437790224));
#812=CARTESIAN_POINT('Ctrl Pts',(-24.8323838727842,-4.83319628997675,0.706718162046608));
#813=CARTESIAN_POINT('Ctrl Pts',(-24.9436871370599,-4.943708539748,0.428900353062458));
#814=CARTESIAN_POINT('Ctrl Pts',(-24.9779987017129,-4.97800792144436,0.293272655046118));
#815=CARTESIAN_POINT('Ctrl Pts',(-24.9974526750607,-4.99745204116449,0.100795099834624));
#816=CARTESIAN_POINT('Ctrl Pts',(-25.,-4.99999999999989,0.0504746908465682));
#817=CARTESIAN_POINT('Ctrl Pts',(-25.,-4.99999999999989,0.));
#818=CARTESIAN_POINT('Origin',(-5.00000000000001,-18.5,0.));
#819=CARTESIAN_POINT('',(9.99999999999996,-20.,0.));
#820=CARTESIAN_POINT('',(-10.,-20.,0.));
#821=CARTESIAN_POINT('Origin',(9.99999999999996,-18.5,0.));
#822=CARTESIAN_POINT('Origin',(9.99999999999997,-5.,0.));
#823=CARTESIAN_POINT('Origin',(9.99999999999997,-5.,0.));
#824=CARTESIAN_POINT('Origin',(-12.5,3.49999999999997,0.));
#825=CARTESIAN_POINT('',(-25.,4.99999999999989,0.));
#826=CARTESIAN_POINT('',(-26.,4.99999999999988,0.));
#827=CARTESIAN_POINT('',(-25.,4.99999999999989,0.));
#828=CARTESIAN_POINT('Origin',(-26.,3.49999999999988,0.));
#829=CARTESIAN_POINT('Ctrl Pts',(-23.4164078649987,3.4999999999999,1.5));
#830=CARTESIAN_POINT('Ctrl Pts',(-23.4184449619459,3.50182203490021,1.5));
#831=CARTESIAN_POINT('Ctrl Pts',(-23.4204818546395,3.50364430208834,1.4999966801889));
#832=CARTESIAN_POINT('Ctrl Pts',(-23.5992967845978,3.66365408284482,1.49941351613587));
#833=CARTESIAN_POINT('Ctrl Pts',(-23.7757196771172,3.82472852724552,1.47380846930492));
#834=CARTESIAN_POINT('Ctrl Pts',(-24.1024251994986,4.12845196220749,1.37076083885424));
#835=CARTESIAN_POINT('Ctrl Pts',(-24.2558542559987,4.27365350101181,1.29623866603667));
#836=CARTESIAN_POINT('Ctrl Pts',(-24.5329543670156,4.53960457735911,1.09376556244288));
#837=CARTESIAN_POINT('Ctrl Pts',(-24.6589481116802,4.66247611261663,0.966197004792462));
#838=CARTESIAN_POINT('Ctrl Pts',(-24.8382898951844,4.83896399692873,0.690589085228016));
#839=CARTESIAN_POINT('Ctrl Pts',(-24.901301843795,4.90156751676128,0.556225902967819));
#840=CARTESIAN_POINT('Ctrl Pts',(-24.9803543486124,4.98032166015434,0.277480484914801));
#841=CARTESIAN_POINT('Ctrl Pts',(-25.,4.99999999999989,0.140294563148698));
#842=CARTESIAN_POINT('Ctrl Pts',(-25.,4.99999999999989,4.85722573273506E-16));
#843=CARTESIAN_POINT('Origin',(-25.9999999999999,-1.12410081243297E-13,
0.));
#844=CARTESIAN_POINT('',(-26.,-4.99999999999988,0.));
#845=CARTESIAN_POINT('Origin',(-25.9999999999999,-1.12410081243297E-13,
0.));
#846=CARTESIAN_POINT('Origin',(-26.,-3.50000000000011,0.));
#847=CARTESIAN_POINT('Origin',(-13.,-3.49999999999996,0.));
#848=CARTESIAN_POINT('',(-25.,-4.99999999999989,0.));
#849=CARTESIAN_POINT('Origin',(26.,0.,0.));
#850=CARTESIAN_POINT('',(26.,5.,0.));
#851=CARTESIAN_POINT('Origin',(26.,0.,0.));
#852=CARTESIAN_POINT('Origin',(26.,3.5,0.));
#853=CARTESIAN_POINT('Origin',(13.,3.5,0.));
#854=CARTESIAN_POINT('',(25.,5.,0.));
#855=CARTESIAN_POINT('Origin',(4.99999999999996,18.5,0.));
#856=CARTESIAN_POINT('',(-10.,20.,0.));
#857=CARTESIAN_POINT('',(9.99999999999997,20.,0.));
#858=CARTESIAN_POINT('Origin',(-10.,18.5,0.));
#859=CARTESIAN_POINT('Origin',(-9.99999999999997,4.99999999999996,0.));
#860=CARTESIAN_POINT('Origin',(-9.99999999999997,4.99999999999996,0.));
#861=CARTESIAN_POINT('Origin',(26.5,0.,0.));
#862=CARTESIAN_POINT('',(24.5,-2.44929359829471E-16,0.));
#863=CARTESIAN_POINT('',(24.5,-2.44929359829471E-16,0.));
#864=CARTESIAN_POINT('Origin',(26.5,0.,0.));
#865=CARTESIAN_POINT('Origin',(-26.5,-8.78463968234655E-14,0.));
#866=CARTESIAN_POINT('',(-28.5,-8.8091326183295E-14,0.));
#867=CARTESIAN_POINT('',(-28.5,-8.8091326183295E-14,0.));
#868=CARTESIAN_POINT('Origin',(-26.5,-8.78463968234655E-14,0.));
#869=CARTESIAN_POINT('Origin',(8.88178419700125E-15,1.88737914186277E-14,
0.));
#870=UNCERTAINTY_MEASURE_WITH_UNIT(LENGTH_MEASURE(0.01),#874,
'DISTANCE_ACCURACY_VALUE',
'Maximum model space distance between geometric entities at asserted c
onnectivities');
#871=UNCERTAINTY_MEASURE_WITH_UNIT(LENGTH_MEASURE(0.01),#874,
'DISTANCE_ACCURACY_VALUE',
'Maximum model space distance between geometric entities at asserted c
onnectivities');
#872=(
GEOMETRIC_REPRESENTATION_CONTEXT(3)
GLOBAL_UNCERTAINTY_ASSIGNED_CONTEXT((#870))
GLOBAL_UNIT_ASSIGNED_CONTEXT((#874,#876,#877))
REPRESENTATION_CONTEXT('','3D')
);
#873=(
GEOMETRIC_REPRESENTATION_CONTEXT(3)
GLOBAL_UNCERTAINTY_ASSIGNED_CONTEXT((#871))
GLOBAL_UNIT_ASSIGNED_CONTEXT((#874,#876,#877))
REPRESENTATION_CONTEXT('','3D')
);
#874=(
LENGTH_UNIT()
NAMED_UNIT(*)
SI_UNIT(.MILLI.,.METRE.)
);
#875=(
LENGTH_UNIT()
NAMED_UNIT(*)
SI_UNIT($,.METRE.)
);
#876=(
NAMED_UNIT(*)
PLANE_ANGLE_UNIT()
SI_UNIT($,.RADIAN.)
);
#877=(
NAMED_UNIT(*)
SI_UNIT($,.STERADIAN.)
SOLID_ANGLE_UNIT()
);
#878=SHAPE_DEFINITION_REPRESENTATION(#879,#880);
#879=PRODUCT_DEFINITION_SHAPE('',$,#882);
#880=SHAPE_REPRESENTATION('',(#466),#872);
#881=PRODUCT_DEFINITION_CONTEXT('part definition',#886,'design');
#882=PRODUCT_DEFINITION('Abeckung','Abeckung v4',#883,#881);
#883=PRODUCT_DEFINITION_FORMATION('',$,#888);
#884=PRODUCT_RELATED_PRODUCT_CATEGORY('Abeckung v4','Abeckung v4',(#888));
#885=APPLICATION_PROTOCOL_DEFINITION('international standard',
'automotive_design',2009,#886);
#886=APPLICATION_CONTEXT(
'Core Data for Automotive Mechanical Design Process');
#887=PRODUCT_CONTEXT('part definition',#886,'mechanical');
#888=PRODUCT('Abeckung','Abeckung v4',$,(#887));
#889=PRESENTATION_STYLE_ASSIGNMENT((#890));
#890=SURFACE_STYLE_USAGE(.BOTH.,#891);
#891=SURFACE_SIDE_STYLE('',(#892));
#892=SURFACE_STYLE_FILL_AREA(#893);
#893=FILL_AREA_STYLE('Stahl - satiniert',(#894));
#894=FILL_AREA_STYLE_COLOUR('Stahl - satiniert',#895);
#895=COLOUR_RGB('Stahl - satiniert',0.627450980392157,0.627450980392157,
0.627450980392157);
ENDSEC;
END-ISO-10303-21;
