ISO-10303-21;
HEADER;
/* Generated by software containing ST-Developer
 * from STEP Tools, Inc. (www.steptools.com) 
 */

FILE_DESCRIPTION(
/* description */ (''),
/* implementation_level */ '2;1');

FILE_NAME(
/* name */ 'Strommesszangenhalter_Knopf.step',
/* time_stamp */ '2026-06-28T16:55:47+02:00',
/* author */ (''),
/* organization */ (''),
/* preprocessor_version */ 'ST-DEVELOPER v20.1',
/* originating_system */ 'Autodesk Translation Framework v15.8.0.0',
/* authorisation */ '');

FILE_SCHEMA (('AUTOMOTIVE_DESIGN { 1 0 10303 214 3 1 1 }'));
ENDSEC;

DATA;
#10=MECHANICAL_DESIGN_GEOMETRIC_PRESENTATION_REPRESENTATION('',(#13),#213);
#11=SHAPE_REPRESENTATION_RELATIONSHIP('SRR','None',#220,#12);
#12=ADVANCED_BREP_SHAPE_REPRESENTATION('',(#14),#212);
#13=STYLED_ITEM('',(#229),#14);
#14=MANIFOLD_SOLID_BREP('Knopf_V',#123);
#15=SPHERICAL_SURFACE('',#144,5.);
#16=FACE_BOUND('',#32,.T.);
#17=CIRCLE('',#143,3.);
#18=CIRCLE('',#145,5.);
#19=FACE_OUTER_BOUND('',#26,.T.);
#20=FACE_OUTER_BOUND('',#27,.T.);
#21=FACE_OUTER_BOUND('',#28,.T.);
#22=FACE_OUTER_BOUND('',#29,.T.);
#23=FACE_OUTER_BOUND('',#30,.T.);
#24=FACE_OUTER_BOUND('',#31,.T.);
#25=FACE_OUTER_BOUND('',#33,.T.);
#26=EDGE_LOOP('',(#82,#83,#84,#85));
#27=EDGE_LOOP('',(#86,#87,#88,#89));
#28=EDGE_LOOP('',(#90,#91,#92,#93));
#29=EDGE_LOOP('',(#94,#95,#96,#97));
#30=EDGE_LOOP('',(#98,#99,#100,#101));
#31=EDGE_LOOP('',(#102));
#32=EDGE_LOOP('',(#103,#104,#105,#106));
#33=EDGE_LOOP('',(#107,#108,#109));
#34=LINE('',#182,#46);
#35=LINE('',#184,#47);
#36=LINE('',#186,#48);
#37=LINE('',#187,#49);
#38=LINE('',#190,#50);
#39=LINE('',#192,#51);
#40=LINE('',#193,#52);
#41=LINE('',#196,#53);
#42=LINE('',#198,#54);
#43=LINE('',#199,#55);
#44=LINE('',#201,#56);
#45=LINE('',#202,#57);
#46=VECTOR('',#150,10.);
#47=VECTOR('',#151,10.);
#48=VECTOR('',#152,10.);
#49=VECTOR('',#153,10.);
#50=VECTOR('',#156,10.);
#51=VECTOR('',#157,10.);
#52=VECTOR('',#158,10.);
#53=VECTOR('',#161,10.);
#54=VECTOR('',#162,10.);
#55=VECTOR('',#163,10.);
#56=VECTOR('',#166,10.);
#57=VECTOR('',#167,10.);
#58=VERTEX_POINT('',#180);
#59=VERTEX_POINT('',#181);
#60=VERTEX_POINT('',#183);
#61=VERTEX_POINT('',#185);
#62=VERTEX_POINT('',#189);
#63=VERTEX_POINT('',#191);
#64=VERTEX_POINT('',#195);
#65=VERTEX_POINT('',#197);
#66=VERTEX_POINT('',#205);
#67=VERTEX_POINT('',#208);
#68=EDGE_CURVE('',#58,#59,#34,.T.);
#69=EDGE_CURVE('',#58,#60,#35,.T.);
#70=EDGE_CURVE('',#60,#61,#36,.T.);
#71=EDGE_CURVE('',#59,#61,#37,.T.);
#72=EDGE_CURVE('',#62,#58,#38,.T.);
#73=EDGE_CURVE('',#62,#63,#39,.T.);
#74=EDGE_CURVE('',#63,#60,#40,.T.);
#75=EDGE_CURVE('',#64,#62,#41,.T.);
#76=EDGE_CURVE('',#64,#65,#42,.T.);
#77=EDGE_CURVE('',#65,#63,#43,.T.);
#78=EDGE_CURVE('',#59,#64,#44,.T.);
#79=EDGE_CURVE('',#61,#65,#45,.T.);
#80=EDGE_CURVE('',#66,#66,#17,.T.);
#81=EDGE_CURVE('',#67,#66,#18,.T.);
#82=ORIENTED_EDGE('',*,*,#68,.F.);
#83=ORIENTED_EDGE('',*,*,#69,.T.);
#84=ORIENTED_EDGE('',*,*,#70,.T.);
#85=ORIENTED_EDGE('',*,*,#71,.F.);
#86=ORIENTED_EDGE('',*,*,#72,.F.);
#87=ORIENTED_EDGE('',*,*,#73,.T.);
#88=ORIENTED_EDGE('',*,*,#74,.T.);
#89=ORIENTED_EDGE('',*,*,#69,.F.);
#90=ORIENTED_EDGE('',*,*,#75,.F.);
#91=ORIENTED_EDGE('',*,*,#76,.T.);
#92=ORIENTED_EDGE('',*,*,#77,.T.);
#93=ORIENTED_EDGE('',*,*,#73,.F.);
#94=ORIENTED_EDGE('',*,*,#78,.F.);
#95=ORIENTED_EDGE('',*,*,#71,.T.);
#96=ORIENTED_EDGE('',*,*,#79,.T.);
#97=ORIENTED_EDGE('',*,*,#76,.F.);
#98=ORIENTED_EDGE('',*,*,#79,.F.);
#99=ORIENTED_EDGE('',*,*,#70,.F.);
#100=ORIENTED_EDGE('',*,*,#74,.F.);
#101=ORIENTED_EDGE('',*,*,#77,.F.);
#102=ORIENTED_EDGE('',*,*,#80,.F.);
#103=ORIENTED_EDGE('',*,*,#68,.T.);
#104=ORIENTED_EDGE('',*,*,#78,.T.);
#105=ORIENTED_EDGE('',*,*,#75,.T.);
#106=ORIENTED_EDGE('',*,*,#72,.T.);
#107=ORIENTED_EDGE('',*,*,#80,.T.);
#108=ORIENTED_EDGE('',*,*,#81,.F.);
#109=ORIENTED_EDGE('',*,*,#81,.T.);
#110=PLANE('',#137);
#111=PLANE('',#138);
#112=PLANE('',#139);
#113=PLANE('',#140);
#114=PLANE('',#141);
#115=PLANE('',#142);
#116=ADVANCED_FACE('',(#19),#110,.F.);
#117=ADVANCED_FACE('',(#20),#111,.F.);
#118=ADVANCED_FACE('',(#21),#112,.F.);
#119=ADVANCED_FACE('',(#22),#113,.F.);
#120=ADVANCED_FACE('',(#23),#114,.F.);
#121=ADVANCED_FACE('',(#24,#16),#115,.T.);
#122=ADVANCED_FACE('',(#25),#15,.T.);
#123=CLOSED_SHELL('',(#116,#117,#118,#119,#120,#121,#122));
#124=DERIVED_UNIT_ELEMENT(#126,1.);
#125=DERIVED_UNIT_ELEMENT(#215,-3.);
#126=(
MASS_UNIT()
NAMED_UNIT(*)
SI_UNIT(.KILO.,.GRAM.)
);
#127=DERIVED_UNIT((#124,#125));
#128=MEASURE_REPRESENTATION_ITEM('density measure',
POSITIVE_RATIO_MEASURE(7850.),#127);
#129=PROPERTY_DEFINITION_REPRESENTATION(#134,#131);
#130=PROPERTY_DEFINITION_REPRESENTATION(#135,#132);
#131=REPRESENTATION('material name',(#133),#212);
#132=REPRESENTATION('density',(#128),#212);
#133=DESCRIPTIVE_REPRESENTATION_ITEM('Stahl','Stahl');
#134=PROPERTY_DEFINITION('material property','material name',#222);
#135=PROPERTY_DEFINITION('material property','density of part',#222);
#136=AXIS2_PLACEMENT_3D('',#178,#146,#147);
#137=AXIS2_PLACEMENT_3D('',#179,#148,#149);
#138=AXIS2_PLACEMENT_3D('',#188,#154,#155);
#139=AXIS2_PLACEMENT_3D('',#194,#159,#160);
#140=AXIS2_PLACEMENT_3D('',#200,#164,#165);
#141=AXIS2_PLACEMENT_3D('',#203,#168,#169);
#142=AXIS2_PLACEMENT_3D('',#204,#170,#171);
#143=AXIS2_PLACEMENT_3D('',#206,#172,#173);
#144=AXIS2_PLACEMENT_3D('',#207,#174,#175);
#145=AXIS2_PLACEMENT_3D('',#209,#176,#177);
#146=DIRECTION('axis',(0.,0.,1.));
#147=DIRECTION('refdir',(1.,0.,0.));
#148=DIRECTION('center_axis',(-1.,3.87287101613427E-16,0.));
#149=DIRECTION('ref_axis',(-3.87287101613427E-16,-1.,0.));
#150=DIRECTION('',(-3.87287101613427E-16,-1.,-5.73766571111199E-32));
#151=DIRECTION('',(0.,0.,1.));
#152=DIRECTION('',(-3.87287101613427E-16,-1.,0.));
#153=DIRECTION('',(0.,0.,1.));
#154=DIRECTION('center_axis',(0.,1.,0.));
#155=DIRECTION('ref_axis',(-1.,0.,0.));
#156=DIRECTION('',(-1.,0.,-1.48150188508965E-16));
#157=DIRECTION('',(0.,0.,1.));
#158=DIRECTION('',(-1.,0.,0.));
#159=DIRECTION('center_axis',(1.,1.29095700537809E-16,0.));
#160=DIRECTION('ref_axis',(-1.29095700537809E-16,1.,0.));
#161=DIRECTION('',(-1.29095700537809E-16,1.,-1.91255523703733E-32));
#162=DIRECTION('',(0.,0.,1.));
#163=DIRECTION('',(-1.29095700537809E-16,1.,0.));
#164=DIRECTION('center_axis',(8.41078048958451E-17,-1.,0.));
#165=DIRECTION('ref_axis',(1.,8.41078048958451E-17,0.));
#166=DIRECTION('',(1.,8.41078048958451E-17,1.48150188508965E-16));
#167=DIRECTION('',(1.,8.41078048958451E-17,0.));
#168=DIRECTION('center_axis',(0.,0.,1.));
#169=DIRECTION('ref_axis',(1.,0.,0.));
#170=DIRECTION('center_axis',(1.48150188508965E-16,0.,-1.));
#171=DIRECTION('ref_axis',(-1.,0.,-1.48150188508965E-16));
#172=DIRECTION('center_axis',(-1.48150188508965E-16,0.,1.));
#173=DIRECTION('ref_axis',(1.,0.,1.48150188508965E-16));
#174=DIRECTION('center_axis',(6.12323399573677E-17,0.,1.));
#175=DIRECTION('ref_axis',(1.,0.,0.));
#176=DIRECTION('center_axis',(1.22464679914735E-16,-1.,0.));
#177=DIRECTION('ref_axis',(-1.,-1.22464679914735E-16,0.));
#178=CARTESIAN_POINT('',(0.,0.,0.));
#179=CARTESIAN_POINT('Origin',(-1.65,2.15,-4.89808902388244E-17));
#180=CARTESIAN_POINT('',(-1.65,2.15,-4.89808902388244E-17));
#181=CARTESIAN_POINT('',(-1.65,-2.15,-4.89808902388244E-17));
#182=CARTESIAN_POINT('',(-1.65,1.075,-3.17919146398029E-16));
#183=CARTESIAN_POINT('',(-1.65,2.15,5.));
#184=CARTESIAN_POINT('',(-1.65,2.15,-4.89808902388244E-17));
#185=CARTESIAN_POINT('',(-1.65,-2.15,5.));
#186=CARTESIAN_POINT('',(-1.65,2.15,5.));
#187=CARTESIAN_POINT('',(-1.65,-2.15,-4.89808902388244E-17));
#188=CARTESIAN_POINT('Origin',(1.65,2.15,-4.89808902388244E-17));
#189=CARTESIAN_POINT('',(1.65,2.15,-4.89808902388244E-17));
#190=CARTESIAN_POINT('',(2.325,2.15,2.70977852925107E-16));
#191=CARTESIAN_POINT('',(1.65,2.15,5.));
#192=CARTESIAN_POINT('',(1.65,2.15,-4.89808902388244E-17));
#193=CARTESIAN_POINT('',(1.65,2.15,5.));
#194=CARTESIAN_POINT('Origin',(1.65,-2.15,-4.89808902388244E-17));
#195=CARTESIAN_POINT('',(1.65,-2.15,-4.89808902388244E-17));
#196=CARTESIAN_POINT('',(1.65,-1.075,1.70976475681556E-16));
#197=CARTESIAN_POINT('',(1.65,-2.15,5.));
#198=CARTESIAN_POINT('',(1.65,-2.15,-4.89808902388244E-17));
#199=CARTESIAN_POINT('',(1.65,-2.15,5.));
#200=CARTESIAN_POINT('Origin',(-1.65,-2.15,-4.89808902388244E-17));
#201=CARTESIAN_POINT('',(0.675,-2.15,2.65300418853147E-17));
#202=CARTESIAN_POINT('',(-1.65,-2.15,5.));
#203=CARTESIAN_POINT('Origin',(-5.55111512312578E-16,-1.11022302462516E-15,
5.));
#204=CARTESIAN_POINT('Origin',(3.,0.,3.70979230168659E-16));
#205=CARTESIAN_POINT('',(-3.,-3.67394039744206E-16,-4.44450565526895E-16));
#206=CARTESIAN_POINT('Origin',(0.,0.,0.));
#207=CARTESIAN_POINT('Origin',(-5.9260075403586E-16,0.,4.));
#208=CARTESIAN_POINT('',(-8.98762453822698E-16,-3.74939945665464E-32,9.));
#209=CARTESIAN_POINT('Origin',(-5.9260075403586E-16,0.,4.));
#210=UNCERTAINTY_MEASURE_WITH_UNIT(LENGTH_MEASURE(0.01),#214,
'DISTANCE_ACCURACY_VALUE',
'Maximum model space distance between geometric entities at asserted c
onnectivities');
#211=UNCERTAINTY_MEASURE_WITH_UNIT(LENGTH_MEASURE(0.01),#214,
'DISTANCE_ACCURACY_VALUE',
'Maximum model space distance between geometric entities at asserted c
onnectivities');
#212=(
GEOMETRIC_REPRESENTATION_CONTEXT(3)
GLOBAL_UNCERTAINTY_ASSIGNED_CONTEXT((#210))
GLOBAL_UNIT_ASSIGNED_CONTEXT((#214,#216,#217))
REPRESENTATION_CONTEXT('','3D')
);
#213=(
GEOMETRIC_REPRESENTATION_CONTEXT(3)
GLOBAL_UNCERTAINTY_ASSIGNED_CONTEXT((#211))
GLOBAL_UNIT_ASSIGNED_CONTEXT((#214,#216,#217))
REPRESENTATION_CONTEXT('','3D')
);
#214=(
LENGTH_UNIT()
NAMED_UNIT(*)
SI_UNIT(.MILLI.,.METRE.)
);
#215=(
LENGTH_UNIT()
NAMED_UNIT(*)
SI_UNIT($,.METRE.)
);
#216=(
NAMED_UNIT(*)
PLANE_ANGLE_UNIT()
SI_UNIT($,.RADIAN.)
);
#217=(
NAMED_UNIT(*)
SI_UNIT($,.STERADIAN.)
SOLID_ANGLE_UNIT()
);
#218=SHAPE_DEFINITION_REPRESENTATION(#219,#220);
#219=PRODUCT_DEFINITION_SHAPE('',$,#222);
#220=SHAPE_REPRESENTATION('',(#136),#212);
#221=PRODUCT_DEFINITION_CONTEXT('part definition',#226,'design');
#222=PRODUCT_DEFINITION('Knopf','Knopf v3',#223,#221);
#223=PRODUCT_DEFINITION_FORMATION('',$,#228);
#224=PRODUCT_RELATED_PRODUCT_CATEGORY('Knopf v3','Knopf v3',(#228));
#225=APPLICATION_PROTOCOL_DEFINITION('international standard',
'automotive_design',2009,#226);
#226=APPLICATION_CONTEXT(
'Core Data for Automotive Mechanical Design Process');
#227=PRODUCT_CONTEXT('part definition',#226,'mechanical');
#228=PRODUCT('Knopf','Knopf v3',$,(#227));
#229=PRESENTATION_STYLE_ASSIGNMENT((#230));
#230=SURFACE_STYLE_USAGE(.BOTH.,#231);
#231=SURFACE_SIDE_STYLE('',(#232));
#232=SURFACE_STYLE_FILL_AREA(#233);
#233=FILL_AREA_STYLE('Stahl - satiniert',(#234));
#234=FILL_AREA_STYLE_COLOUR('Stahl - satiniert',#235);
#235=COLOUR_RGB('Stahl - satiniert',0.627450980392157,0.627450980392157,
0.627450980392157);
ENDSEC;
END-ISO-10303-21;
